solid OpenSCAD_Model
  facet normal 0.999507 0.0314117 0
    outer loop
      vertex 15 0 10
      vertex 14.9704 0.941858 -10
      vertex 14.9704 0.941858 10
    endloop
  endfacet
  facet normal 0.999507 0.0314117 0
    outer loop
      vertex 14.9704 0.941858 -10
      vertex 15 0 10
      vertex 15 0 -10
    endloop
  endfacet
  facet normal 0.99556 0.0941288 0
    outer loop
      vertex 14.9704 0.941858 10
      vertex 14.8817 1.88 -10
      vertex 14.8817 1.88 10
    endloop
  endfacet
  facet normal 0.99556 0.0941288 0
    outer loop
      vertex 14.8817 1.88 -10
      vertex 14.9704 0.941858 10
      vertex 14.9704 0.941858 -10
    endloop
  endfacet
  facet normal 0.98769 0.156422 0
    outer loop
      vertex 14.8817 1.88 10
      vertex 14.7343 2.81072 -10
      vertex 14.7343 2.81072 10
    endloop
  endfacet
  facet normal 0.98769 0.156422 0
    outer loop
      vertex 14.7343 2.81072 -10
      vertex 14.8817 1.88 10
      vertex 14.8817 1.88 -10
    endloop
  endfacet
  facet normal 0.975908 0.218182 0
    outer loop
      vertex 14.7343 2.81072 10
      vertex 14.5287 3.73035 -10
      vertex 14.5287 3.73035 10
    endloop
  endfacet
  facet normal 0.975908 0.218182 0
    outer loop
      vertex 14.5287 3.73035 -10
      vertex 14.7343 2.81072 10
      vertex 14.7343 2.81072 -10
    endloop
  endfacet
  facet normal 0.960293 0.278993 0
    outer loop
      vertex 14.5287 3.73035 10
      vertex 14.2658 4.63525 -10
      vertex 14.2658 4.63525 10
    endloop
  endfacet
  facet normal 0.960293 0.278993 0
    outer loop
      vertex 14.2658 4.63525 -10
      vertex 14.5287 3.73035 10
      vertex 14.5287 3.73035 -10
    endloop
  endfacet
  facet normal 0.940882 0.338735 0
    outer loop
      vertex 14.2658 4.63525 10
      vertex 13.9466 5.52187 -10
      vertex 13.9466 5.52187 10
    endloop
  endfacet
  facet normal 0.940882 0.338735 0
    outer loop
      vertex 13.9466 5.52187 -10
      vertex 14.2658 4.63525 10
      vertex 14.2658 4.63525 -10
    endloop
  endfacet
  facet normal 0.91777 0.397111 0
    outer loop
      vertex 13.9466 5.52187 10
      vertex 13.5724 6.38669 -10
      vertex 13.5724 6.38669 10
    endloop
  endfacet
  facet normal 0.91777 0.397111 0
    outer loop
      vertex 13.5724 6.38669 -10
      vertex 13.9466 5.52187 10
      vertex 13.9466 5.52187 -10
    endloop
  endfacet
  facet normal 0.89101 0.453984 0
    outer loop
      vertex 13.5724 6.38669 10
      vertex 13.1446 7.22631 -10
      vertex 13.1446 7.22631 10
    endloop
  endfacet
  facet normal 0.89101 0.453984 0
    outer loop
      vertex 13.1446 7.22631 -10
      vertex 13.5724 6.38669 10
      vertex 13.5724 6.38669 -10
    endloop
  endfacet
  facet normal 0.860731 0.509059 0
    outer loop
      vertex 13.1446 7.22631 10
      vertex 12.6649 8.0374 -10
      vertex 12.6649 8.0374 10
    endloop
  endfacet
  facet normal 0.860731 0.509059 0
    outer loop
      vertex 12.6649 8.0374 -10
      vertex 13.1446 7.22631 10
      vertex 13.1446 7.22631 -10
    endloop
  endfacet
  facet normal 0.827113 0.562035 0
    outer loop
      vertex 12.6649 8.0374 10
      vertex 12.1353 8.81678 -10
      vertex 12.1353 8.81678 10
    endloop
  endfacet
  facet normal 0.827113 0.562035 0
    outer loop
      vertex 12.1353 8.81678 -10
      vertex 12.6649 8.0374 10
      vertex 12.6649 8.0374 -10
    endloop
  endfacet
  facet normal 0.790132 0.612937 0
    outer loop
      vertex 12.1353 8.81678 10
      vertex 11.5577 9.56136 -10
      vertex 11.5577 9.56136 10
    endloop
  endfacet
  facet normal 0.790132 0.612937 0
    outer loop
      vertex 11.5577 9.56136 -10
      vertex 12.1353 8.81678 10
      vertex 12.1353 8.81678 -10
    endloop
  endfacet
  facet normal 0.750092 0.661334 0
    outer loop
      vertex 11.5577 9.56136 10
      vertex 10.9345 10.2682 -10
      vertex 10.9345 10.2682 10
    endloop
  endfacet
  facet normal 0.750092 0.661334 0
    outer loop
      vertex 10.9345 10.2682 -10
      vertex 11.5577 9.56136 10
      vertex 11.5577 9.56136 -10
    endloop
  endfacet
  facet normal 0.707107 0.707107 0
    outer loop
      vertex 10.9345 10.2682 10
      vertex 10.2682 10.9345 -10
      vertex 10.2682 10.9345 10
    endloop
  endfacet
  facet normal 0.707107 0.707107 0
    outer loop
      vertex 10.2682 10.9345 -10
      vertex 10.9345 10.2682 10
      vertex 10.9345 10.2682 -10
    endloop
  endfacet
  facet normal 0.661334 0.750092 -0
    outer loop
      vertex 10.2682 10.9345 -10
      vertex 9.56136 11.5577 10
      vertex 10.2682 10.9345 10
    endloop
  endfacet
  facet normal 0.661334 0.750092 0
    outer loop
      vertex 9.56136 11.5577 10
      vertex 10.2682 10.9345 -10
      vertex 9.56136 11.5577 -10
    endloop
  endfacet
  facet normal 0.612937 0.790132 -0
    outer loop
      vertex 9.56136 11.5577 -10
      vertex 8.81678 12.1353 10
      vertex 9.56136 11.5577 10
    endloop
  endfacet
  facet normal 0.612937 0.790132 0
    outer loop
      vertex 8.81678 12.1353 10
      vertex 9.56136 11.5577 -10
      vertex 8.81678 12.1353 -10
    endloop
  endfacet
  facet normal 0.562035 0.827113 -0
    outer loop
      vertex 8.81678 12.1353 -10
      vertex 8.0374 12.6649 10
      vertex 8.81678 12.1353 10
    endloop
  endfacet
  facet normal 0.562035 0.827113 0
    outer loop
      vertex 8.0374 12.6649 10
      vertex 8.81678 12.1353 -10
      vertex 8.0374 12.6649 -10
    endloop
  endfacet
  facet normal 0.509059 0.860731 -0
    outer loop
      vertex 8.0374 12.6649 -10
      vertex 7.22631 13.1446 10
      vertex 8.0374 12.6649 10
    endloop
  endfacet
  facet normal 0.509059 0.860731 0
    outer loop
      vertex 7.22631 13.1446 10
      vertex 8.0374 12.6649 -10
      vertex 7.22631 13.1446 -10
    endloop
  endfacet
  facet normal 0.453984 0.89101 -0
    outer loop
      vertex 7.22631 13.1446 -10
      vertex 6.38669 13.5724 10
      vertex 7.22631 13.1446 10
    endloop
  endfacet
  facet normal 0.453984 0.89101 0
    outer loop
      vertex 6.38669 13.5724 10
      vertex 7.22631 13.1446 -10
      vertex 6.38669 13.5724 -10
    endloop
  endfacet
  facet normal 0.397111 0.91777 -0
    outer loop
      vertex 6.38669 13.5724 -10
      vertex 5.52187 13.9466 10
      vertex 6.38669 13.5724 10
    endloop
  endfacet
  facet normal 0.397111 0.91777 0
    outer loop
      vertex 5.52187 13.9466 10
      vertex 6.38669 13.5724 -10
      vertex 5.52187 13.9466 -10
    endloop
  endfacet
  facet normal 0.338735 0.940882 -0
    outer loop
      vertex 5.52187 13.9466 -10
      vertex 4.63525 14.2658 10
      vertex 5.52187 13.9466 10
    endloop
  endfacet
  facet normal 0.338735 0.940882 0
    outer loop
      vertex 4.63525 14.2658 10
      vertex 5.52187 13.9466 -10
      vertex 4.63525 14.2658 -10
    endloop
  endfacet
  facet normal 0.278993 0.960293 -0
    outer loop
      vertex 4.63525 14.2658 -10
      vertex 3.73035 14.5287 10
      vertex 4.63525 14.2658 10
    endloop
  endfacet
  facet normal 0.278993 0.960293 0
    outer loop
      vertex 3.73035 14.5287 10
      vertex 4.63525 14.2658 -10
      vertex 3.73035 14.5287 -10
    endloop
  endfacet
  facet normal 0.218182 0.975908 -0
    outer loop
      vertex 3.73035 14.5287 -10
      vertex 2.81072 14.7343 10
      vertex 3.73035 14.5287 10
    endloop
  endfacet
  facet normal 0.218182 0.975908 0
    outer loop
      vertex 2.81072 14.7343 10
      vertex 3.73035 14.5287 -10
      vertex 2.81072 14.7343 -10
    endloop
  endfacet
  facet normal 0.156422 0.98769 -0
    outer loop
      vertex 2.81072 14.7343 -10
      vertex 1.88 14.8817 10
      vertex 2.81072 14.7343 10
    endloop
  endfacet
  facet normal 0.156422 0.98769 0
    outer loop
      vertex 1.88 14.8817 10
      vertex 2.81072 14.7343 -10
      vertex 1.88 14.8817 -10
    endloop
  endfacet
  facet normal 0.0941288 0.99556 -0
    outer loop
      vertex 1.88 14.8817 -10
      vertex 0.941858 14.9704 10
      vertex 1.88 14.8817 10
    endloop
  endfacet
  facet normal 0.0941288 0.99556 0
    outer loop
      vertex 0.941858 14.9704 10
      vertex 1.88 14.8817 -10
      vertex 0.941858 14.9704 -10
    endloop
  endfacet
  facet normal 0.0314117 0.999507 -0
    outer loop
      vertex 0.941858 14.9704 -10
      vertex 0 15 10
      vertex 0.941858 14.9704 10
    endloop
  endfacet
  facet normal 0.0314117 0.999507 0
    outer loop
      vertex 0 15 10
      vertex 0.941858 14.9704 -10
      vertex 0 15 -10
    endloop
  endfacet
  facet normal -0.0314117 0.999507 0
    outer loop
      vertex 0 15 -10
      vertex -0.941858 14.9704 10
      vertex 0 15 10
    endloop
  endfacet
  facet normal -0.0314117 0.999507 0
    outer loop
      vertex -0.941858 14.9704 10
      vertex 0 15 -10
      vertex -0.941858 14.9704 -10
    endloop
  endfacet
  facet normal -0.0941288 0.99556 0
    outer loop
      vertex -0.941858 14.9704 -10
      vertex -1.88 14.8817 10
      vertex -0.941858 14.9704 10
    endloop
  endfacet
  facet normal -0.0941288 0.99556 0
    outer loop
      vertex -1.88 14.8817 10
      vertex -0.941858 14.9704 -10
      vertex -1.88 14.8817 -10
    endloop
  endfacet
  facet normal -0.156422 0.98769 0
    outer loop
      vertex -1.88 14.8817 -10
      vertex -2.81072 14.7343 10
      vertex -1.88 14.8817 10
    endloop
  endfacet
  facet normal -0.156422 0.98769 0
    outer loop
      vertex -2.81072 14.7343 10
      vertex -1.88 14.8817 -10
      vertex -2.81072 14.7343 -10
    endloop
  endfacet
  facet normal -0.218182 0.975908 0
    outer loop
      vertex -2.81072 14.7343 -10
      vertex -3.73035 14.5287 10
      vertex -2.81072 14.7343 10
    endloop
  endfacet
  facet normal -0.218182 0.975908 0
    outer loop
      vertex -3.73035 14.5287 10
      vertex -2.81072 14.7343 -10
      vertex -3.73035 14.5287 -10
    endloop
  endfacet
  facet normal -0.278993 0.960293 0
    outer loop
      vertex -3.73035 14.5287 -10
      vertex -4.63525 14.2658 10
      vertex -3.73035 14.5287 10
    endloop
  endfacet
  facet normal -0.278993 0.960293 0
    outer loop
      vertex -4.63525 14.2658 10
      vertex -3.73035 14.5287 -10
      vertex -4.63525 14.2658 -10
    endloop
  endfacet
  facet normal -0.338735 0.940882 0
    outer loop
      vertex -4.63525 14.2658 -10
      vertex -5.52187 13.9466 10
      vertex -4.63525 14.2658 10
    endloop
  endfacet
  facet normal -0.338735 0.940882 0
    outer loop
      vertex -5.52187 13.9466 10
      vertex -4.63525 14.2658 -10
      vertex -5.52187 13.9466 -10
    endloop
  endfacet
  facet normal -0.397111 0.91777 0
    outer loop
      vertex -5.52187 13.9466 -10
      vertex -6.38669 13.5724 10
      vertex -5.52187 13.9466 10
    endloop
  endfacet
  facet normal -0.397111 0.91777 0
    outer loop
      vertex -6.38669 13.5724 10
      vertex -5.52187 13.9466 -10
      vertex -6.38669 13.5724 -10
    endloop
  endfacet
  facet normal -0.453984 0.89101 0
    outer loop
      vertex -6.38669 13.5724 -10
      vertex -7.22631 13.1446 10
      vertex -6.38669 13.5724 10
    endloop
  endfacet
  facet normal -0.453984 0.89101 0
    outer loop
      vertex -7.22631 13.1446 10
      vertex -6.38669 13.5724 -10
      vertex -7.22631 13.1446 -10
    endloop
  endfacet
  facet normal -0.509059 0.860731 0
    outer loop
      vertex -7.22631 13.1446 -10
      vertex -8.0374 12.6649 10
      vertex -7.22631 13.1446 10
    endloop
  endfacet
  facet normal -0.509059 0.860731 0
    outer loop
      vertex -8.0374 12.6649 10
      vertex -7.22631 13.1446 -10
      vertex -8.0374 12.6649 -10
    endloop
  endfacet
  facet normal -0.562035 0.827113 0
    outer loop
      vertex -8.0374 12.6649 -10
      vertex -8.81678 12.1353 10
      vertex -8.0374 12.6649 10
    endloop
  endfacet
  facet normal -0.562035 0.827113 0
    outer loop
      vertex -8.81678 12.1353 10
      vertex -8.0374 12.6649 -10
      vertex -8.81678 12.1353 -10
    endloop
  endfacet
  facet normal -0.612937 0.790132 0
    outer loop
      vertex -8.81678 12.1353 -10
      vertex -9.56136 11.5577 10
      vertex -8.81678 12.1353 10
    endloop
  endfacet
  facet normal -0.612937 0.790132 0
    outer loop
      vertex -9.56136 11.5577 10
      vertex -8.81678 12.1353 -10
      vertex -9.56136 11.5577 -10
    endloop
  endfacet
  facet normal -0.661334 0.750092 0
    outer loop
      vertex -9.56136 11.5577 -10
      vertex -10.2682 10.9345 10
      vertex -9.56136 11.5577 10
    endloop
  endfacet
  facet normal -0.661334 0.750092 0
    outer loop
      vertex -10.2682 10.9345 10
      vertex -9.56136 11.5577 -10
      vertex -10.2682 10.9345 -10
    endloop
  endfacet
  facet normal -0.707107 0.707107 0
    outer loop
      vertex -10.9345 10.2682 -10
      vertex -10.2682 10.9345 10
      vertex -10.2682 10.9345 -10
    endloop
  endfacet
  facet normal -0.707107 0.707107 0
    outer loop
      vertex -10.2682 10.9345 10
      vertex -10.9345 10.2682 -10
      vertex -10.9345 10.2682 10
    endloop
  endfacet
  facet normal -0.750092 0.661334 0
    outer loop
      vertex -11.5577 9.56136 -10
      vertex -10.9345 10.2682 10
      vertex -10.9345 10.2682 -10
    endloop
  endfacet
  facet normal -0.750092 0.661334 0
    outer loop
      vertex -10.9345 10.2682 10
      vertex -11.5577 9.56136 -10
      vertex -11.5577 9.56136 10
    endloop
  endfacet
  facet normal -0.790132 0.612937 0
    outer loop
      vertex -12.1353 8.81678 -10
      vertex -11.5577 9.56136 10
      vertex -11.5577 9.56136 -10
    endloop
  endfacet
  facet normal -0.790132 0.612937 0
    outer loop
      vertex -11.5577 9.56136 10
      vertex -12.1353 8.81678 -10
      vertex -12.1353 8.81678 10
    endloop
  endfacet
  facet normal -0.827113 0.562035 0
    outer loop
      vertex -12.6649 8.0374 -10
      vertex -12.1353 8.81678 10
      vertex -12.1353 8.81678 -10
    endloop
  endfacet
  facet normal -0.827113 0.562035 0
    outer loop
      vertex -12.1353 8.81678 10
      vertex -12.6649 8.0374 -10
      vertex -12.6649 8.0374 10
    endloop
  endfacet
  facet normal -0.860731 0.509059 0
    outer loop
      vertex -13.1446 7.22631 -10
      vertex -12.6649 8.0374 10
      vertex -12.6649 8.0374 -10
    endloop
  endfacet
  facet normal -0.860731 0.509059 0
    outer loop
      vertex -12.6649 8.0374 10
      vertex -13.1446 7.22631 -10
      vertex -13.1446 7.22631 10
    endloop
  endfacet
  facet normal -0.89101 0.453984 0
    outer loop
      vertex -13.5724 6.38669 -10
      vertex -13.1446 7.22631 10
      vertex -13.1446 7.22631 -10
    endloop
  endfacet
  facet normal -0.89101 0.453984 0
    outer loop
      vertex -13.1446 7.22631 10
      vertex -13.5724 6.38669 -10
      vertex -13.5724 6.38669 10
    endloop
  endfacet
  facet normal -0.91777 0.397111 0
    outer loop
      vertex -13.9466 5.52187 -10
      vertex -13.5724 6.38669 10
      vertex -13.5724 6.38669 -10
    endloop
  endfacet
  facet normal -0.91777 0.397111 0
    outer loop
      vertex -13.5724 6.38669 10
      vertex -13.9466 5.52187 -10
      vertex -13.9466 5.52187 10
    endloop
  endfacet
  facet normal -0.940882 0.338735 0
    outer loop
      vertex -14.2658 4.63525 -10
      vertex -13.9466 5.52187 10
      vertex -13.9466 5.52187 -10
    endloop
  endfacet
  facet normal -0.940882 0.338735 0
    outer loop
      vertex -13.9466 5.52187 10
      vertex -14.2658 4.63525 -10
      vertex -14.2658 4.63525 10
    endloop
  endfacet
  facet normal -0.960293 0.278993 0
    outer loop
      vertex -14.5287 3.73035 -10
      vertex -14.2658 4.63525 10
      vertex -14.2658 4.63525 -10
    endloop
  endfacet
  facet normal -0.960293 0.278993 0
    outer loop
      vertex -14.2658 4.63525 10
      vertex -14.5287 3.73035 -10
      vertex -14.5287 3.73035 10
    endloop
  endfacet
  facet normal -0.975908 0.218182 0
    outer loop
      vertex -14.7343 2.81072 -10
      vertex -14.5287 3.73035 10
      vertex -14.5287 3.73035 -10
    endloop
  endfacet
  facet normal -0.975908 0.218182 0
    outer loop
      vertex -14.5287 3.73035 10
      vertex -14.7343 2.81072 -10
      vertex -14.7343 2.81072 10
    endloop
  endfacet
  facet normal -0.98769 0.156422 0
    outer loop
      vertex -14.8817 1.88 -10
      vertex -14.7343 2.81072 10
      vertex -14.7343 2.81072 -10
    endloop
  endfacet
  facet normal -0.98769 0.156422 0
    outer loop
      vertex -14.7343 2.81072 10
      vertex -14.8817 1.88 -10
      vertex -14.8817 1.88 10
    endloop
  endfacet
  facet normal -0.99556 0.0941288 0
    outer loop
      vertex -14.9704 0.941858 -10
      vertex -14.8817 1.88 10
      vertex -14.8817 1.88 -10
    endloop
  endfacet
  facet normal -0.99556 0.0941288 0
    outer loop
      vertex -14.8817 1.88 10
      vertex -14.9704 0.941858 -10
      vertex -14.9704 0.941858 10
    endloop
  endfacet
  facet normal -0.999507 0.0314117 0
    outer loop
      vertex -15 0 -10
      vertex -14.9704 0.941858 10
      vertex -14.9704 0.941858 -10
    endloop
  endfacet
  facet normal -0.999507 0.0314117 0
    outer loop
      vertex -14.9704 0.941858 10
      vertex -15 0 -10
      vertex -15 0 10
    endloop
  endfacet
  facet normal -0.999507 -0.0314117 0
    outer loop
      vertex -14.9704 -0.941858 -10
      vertex -15 0 10
      vertex -15 0 -10
    endloop
  endfacet
  facet normal -0.999507 -0.0314117 0
    outer loop
      vertex -15 0 10
      vertex -14.9704 -0.941858 -10
      vertex -14.9704 -0.941858 10
    endloop
  endfacet
  facet normal -0.99556 -0.0941288 0
    outer loop
      vertex -14.8817 -1.88 -10
      vertex -14.9704 -0.941858 10
      vertex -14.9704 -0.941858 -10
    endloop
  endfacet
  facet normal -0.99556 -0.0941288 0
    outer loop
      vertex -14.9704 -0.941858 10
      vertex -14.8817 -1.88 -10
      vertex -14.8817 -1.88 10
    endloop
  endfacet
  facet normal -0.98769 -0.156422 0
    outer loop
      vertex -14.7343 -2.81072 -10
      vertex -14.8817 -1.88 10
      vertex -14.8817 -1.88 -10
    endloop
  endfacet
  facet normal -0.98769 -0.156422 0
    outer loop
      vertex -14.8817 -1.88 10
      vertex -14.7343 -2.81072 -10
      vertex -14.7343 -2.81072 10
    endloop
  endfacet
  facet normal -0.975908 -0.218182 0
    outer loop
      vertex -14.5287 -3.73035 -10
      vertex -14.7343 -2.81072 10
      vertex -14.7343 -2.81072 -10
    endloop
  endfacet
  facet normal -0.975908 -0.218182 0
    outer loop
      vertex -14.7343 -2.81072 10
      vertex -14.5287 -3.73035 -10
      vertex -14.5287 -3.73035 10
    endloop
  endfacet
  facet normal -0.960293 -0.278993 0
    outer loop
      vertex -14.2658 -4.63525 -10
      vertex -14.5287 -3.73035 10
      vertex -14.5287 -3.73035 -10
    endloop
  endfacet
  facet normal -0.960293 -0.278993 0
    outer loop
      vertex -14.5287 -3.73035 10
      vertex -14.2658 -4.63525 -10
      vertex -14.2658 -4.63525 10
    endloop
  endfacet
  facet normal -0.940882 -0.338735 0
    outer loop
      vertex -13.9466 -5.52187 -10
      vertex -14.2658 -4.63525 10
      vertex -14.2658 -4.63525 -10
    endloop
  endfacet
  facet normal -0.940882 -0.338735 0
    outer loop
      vertex -14.2658 -4.63525 10
      vertex -13.9466 -5.52187 -10
      vertex -13.9466 -5.52187 10
    endloop
  endfacet
  facet normal -0.91777 -0.397111 0
    outer loop
      vertex -13.5724 -6.38669 -10
      vertex -13.9466 -5.52187 10
      vertex -13.9466 -5.52187 -10
    endloop
  endfacet
  facet normal -0.91777 -0.397111 0
    outer loop
      vertex -13.9466 -5.52187 10
      vertex -13.5724 -6.38669 -10
      vertex -13.5724 -6.38669 10
    endloop
  endfacet
  facet normal -0.89101 -0.453984 0
    outer loop
      vertex -13.1446 -7.22631 -10
      vertex -13.5724 -6.38669 10
      vertex -13.5724 -6.38669 -10
    endloop
  endfacet
  facet normal -0.89101 -0.453984 0
    outer loop
      vertex -13.5724 -6.38669 10
      vertex -13.1446 -7.22631 -10
      vertex -13.1446 -7.22631 10
    endloop
  endfacet
  facet normal -0.860731 -0.509059 0
    outer loop
      vertex -12.6649 -8.0374 -10
      vertex -13.1446 -7.22631 10
      vertex -13.1446 -7.22631 -10
    endloop
  endfacet
  facet normal -0.860731 -0.509059 0
    outer loop
      vertex -13.1446 -7.22631 10
      vertex -12.6649 -8.0374 -10
      vertex -12.6649 -8.0374 10
    endloop
  endfacet
  facet normal -0.827113 -0.562035 0
    outer loop
      vertex -12.1353 -8.81678 -10
      vertex -12.6649 -8.0374 10
      vertex -12.6649 -8.0374 -10
    endloop
  endfacet
  facet normal -0.827113 -0.562035 0
    outer loop
      vertex -12.6649 -8.0374 10
      vertex -12.1353 -8.81678 -10
      vertex -12.1353 -8.81678 10
    endloop
  endfacet
  facet normal -0.790132 -0.612937 0
    outer loop
      vertex -11.5577 -9.56136 -10
      vertex -12.1353 -8.81678 10
      vertex -12.1353 -8.81678 -10
    endloop
  endfacet
  facet normal -0.790132 -0.612937 0
    outer loop
      vertex -12.1353 -8.81678 10
      vertex -11.5577 -9.56136 -10
      vertex -11.5577 -9.56136 10
    endloop
  endfacet
  facet normal -0.750092 -0.661334 0
    outer loop
      vertex -10.9345 -10.2682 -10
      vertex -11.5577 -9.56136 10
      vertex -11.5577 -9.56136 -10
    endloop
  endfacet
  facet normal -0.750092 -0.661334 0
    outer loop
      vertex -11.5577 -9.56136 10
      vertex -10.9345 -10.2682 -10
      vertex -10.9345 -10.2682 10
    endloop
  endfacet
  facet normal -0.707107 -0.707107 0
    outer loop
      vertex -10.2682 -10.9345 -10
      vertex -10.9345 -10.2682 10
      vertex -10.9345 -10.2682 -10
    endloop
  endfacet
  facet normal -0.707107 -0.707107 0
    outer loop
      vertex -10.9345 -10.2682 10
      vertex -10.2682 -10.9345 -10
      vertex -10.2682 -10.9345 10
    endloop
  endfacet
  facet normal -0.661334 -0.750092 0
    outer loop
      vertex -10.2682 -10.9345 -10
      vertex -9.56136 -11.5577 10
      vertex -10.2682 -10.9345 10
    endloop
  endfacet
  facet normal -0.661334 -0.750092 -0
    outer loop
      vertex -9.56136 -11.5577 10
      vertex -10.2682 -10.9345 -10
      vertex -9.56136 -11.5577 -10
    endloop
  endfacet
  facet normal -0.612937 -0.790132 0
    outer loop
      vertex -9.56136 -11.5577 -10
      vertex -8.81678 -12.1353 10
      vertex -9.56136 -11.5577 10
    endloop
  endfacet
  facet normal -0.612937 -0.790132 -0
    outer loop
      vertex -8.81678 -12.1353 10
      vertex -9.56136 -11.5577 -10
      vertex -8.81678 -12.1353 -10
    endloop
  endfacet
  facet normal -0.562035 -0.827113 0
    outer loop
      vertex -8.81678 -12.1353 -10
      vertex -8.0374 -12.6649 10
      vertex -8.81678 -12.1353 10
    endloop
  endfacet
  facet normal -0.562035 -0.827113 -0
    outer loop
      vertex -8.0374 -12.6649 10
      vertex -8.81678 -12.1353 -10
      vertex -8.0374 -12.6649 -10
    endloop
  endfacet
  facet normal -0.509059 -0.860731 0
    outer loop
      vertex -8.0374 -12.6649 -10
      vertex -7.22631 -13.1446 10
      vertex -8.0374 -12.6649 10
    endloop
  endfacet
  facet normal -0.509059 -0.860731 -0
    outer loop
      vertex -7.22631 -13.1446 10
      vertex -8.0374 -12.6649 -10
      vertex -7.22631 -13.1446 -10
    endloop
  endfacet
  facet normal -0.453984 -0.89101 0
    outer loop
      vertex -7.22631 -13.1446 -10
      vertex -6.38669 -13.5724 10
      vertex -7.22631 -13.1446 10
    endloop
  endfacet
  facet normal -0.453984 -0.89101 -0
    outer loop
      vertex -6.38669 -13.5724 10
      vertex -7.22631 -13.1446 -10
      vertex -6.38669 -13.5724 -10
    endloop
  endfacet
  facet normal -0.397111 -0.91777 0
    outer loop
      vertex -6.38669 -13.5724 -10
      vertex -5.52187 -13.9466 10
      vertex -6.38669 -13.5724 10
    endloop
  endfacet
  facet normal -0.397111 -0.91777 -0
    outer loop
      vertex -5.52187 -13.9466 10
      vertex -6.38669 -13.5724 -10
      vertex -5.52187 -13.9466 -10
    endloop
  endfacet
  facet normal -0.338735 -0.940882 0
    outer loop
      vertex -5.52187 -13.9466 -10
      vertex -4.63525 -14.2658 10
      vertex -5.52187 -13.9466 10
    endloop
  endfacet
  facet normal -0.338735 -0.940882 -0
    outer loop
      vertex -4.63525 -14.2658 10
      vertex -5.52187 -13.9466 -10
      vertex -4.63525 -14.2658 -10
    endloop
  endfacet
  facet normal -0.278993 -0.960293 0
    outer loop
      vertex -4.63525 -14.2658 -10
      vertex -3.73035 -14.5287 10
      vertex -4.63525 -14.2658 10
    endloop
  endfacet
  facet normal -0.278993 -0.960293 -0
    outer loop
      vertex -3.73035 -14.5287 10
      vertex -4.63525 -14.2658 -10
      vertex -3.73035 -14.5287 -10
    endloop
  endfacet
  facet normal -0.218182 -0.975908 0
    outer loop
      vertex -3.73035 -14.5287 -10
      vertex -2.81072 -14.7343 10
      vertex -3.73035 -14.5287 10
    endloop
  endfacet
  facet normal -0.218182 -0.975908 -0
    outer loop
      vertex -2.81072 -14.7343 10
      vertex -3.73035 -14.5287 -10
      vertex -2.81072 -14.7343 -10
    endloop
  endfacet
  facet normal -0.156422 -0.98769 0
    outer loop
      vertex -2.81072 -14.7343 -10
      vertex -1.88 -14.8817 10
      vertex -2.81072 -14.7343 10
    endloop
  endfacet
  facet normal -0.156422 -0.98769 -0
    outer loop
      vertex -1.88 -14.8817 10
      vertex -2.81072 -14.7343 -10
      vertex -1.88 -14.8817 -10
    endloop
  endfacet
  facet normal -0.0941288 -0.99556 0
    outer loop
      vertex -1.88 -14.8817 -10
      vertex -0.941858 -14.9704 10
      vertex -1.88 -14.8817 10
    endloop
  endfacet
  facet normal -0.0941288 -0.99556 -0
    outer loop
      vertex -0.941858 -14.9704 10
      vertex -1.88 -14.8817 -10
      vertex -0.941858 -14.9704 -10
    endloop
  endfacet
  facet normal -0.0314117 -0.999507 0
    outer loop
      vertex -0.941858 -14.9704 -10
      vertex 0 -15 10
      vertex -0.941858 -14.9704 10
    endloop
  endfacet
  facet normal -0.0314117 -0.999507 -0
    outer loop
      vertex 0 -15 10
      vertex -0.941858 -14.9704 -10
      vertex 0 -15 -10
    endloop
  endfacet
  facet normal 0.0314117 -0.999507 0
    outer loop
      vertex 0 -15 -10
      vertex 0.941858 -14.9704 10
      vertex 0 -15 10
    endloop
  endfacet
  facet normal 0.0314117 -0.999507 0
    outer loop
      vertex 0.941858 -14.9704 10
      vertex 0 -15 -10
      vertex 0.941858 -14.9704 -10
    endloop
  endfacet
  facet normal 0.0941288 -0.99556 0
    outer loop
      vertex 0.941858 -14.9704 -10
      vertex 1.88 -14.8817 10
      vertex 0.941858 -14.9704 10
    endloop
  endfacet
  facet normal 0.0941288 -0.99556 0
    outer loop
      vertex 1.88 -14.8817 10
      vertex 0.941858 -14.9704 -10
      vertex 1.88 -14.8817 -10
    endloop
  endfacet
  facet normal 0.156422 -0.98769 0
    outer loop
      vertex 1.88 -14.8817 -10
      vertex 2.81072 -14.7343 10
      vertex 1.88 -14.8817 10
    endloop
  endfacet
  facet normal 0.156422 -0.98769 0
    outer loop
      vertex 2.81072 -14.7343 10
      vertex 1.88 -14.8817 -10
      vertex 2.81072 -14.7343 -10
    endloop
  endfacet
  facet normal 0.218182 -0.975908 0
    outer loop
      vertex 2.81072 -14.7343 -10
      vertex 3.73035 -14.5287 10
      vertex 2.81072 -14.7343 10
    endloop
  endfacet
  facet normal 0.218182 -0.975908 0
    outer loop
      vertex 3.73035 -14.5287 10
      vertex 2.81072 -14.7343 -10
      vertex 3.73035 -14.5287 -10
    endloop
  endfacet
  facet normal 0.278993 -0.960293 0
    outer loop
      vertex 3.73035 -14.5287 -10
      vertex 4.63525 -14.2658 10
      vertex 3.73035 -14.5287 10
    endloop
  endfacet
  facet normal 0.278993 -0.960293 0
    outer loop
      vertex 4.63525 -14.2658 10
      vertex 3.73035 -14.5287 -10
      vertex 4.63525 -14.2658 -10
    endloop
  endfacet
  facet normal 0.338735 -0.940882 0
    outer loop
      vertex 4.63525 -14.2658 -10
      vertex 5.52187 -13.9466 10
      vertex 4.63525 -14.2658 10
    endloop
  endfacet
  facet normal 0.338735 -0.940882 0
    outer loop
      vertex 5.52187 -13.9466 10
      vertex 4.63525 -14.2658 -10
      vertex 5.52187 -13.9466 -10
    endloop
  endfacet
  facet normal 0.397111 -0.91777 0
    outer loop
      vertex 5.52187 -13.9466 -10
      vertex 6.38669 -13.5724 10
      vertex 5.52187 -13.9466 10
    endloop
  endfacet
  facet normal 0.397111 -0.91777 0
    outer loop
      vertex 6.38669 -13.5724 10
      vertex 5.52187 -13.9466 -10
      vertex 6.38669 -13.5724 -10
    endloop
  endfacet
  facet normal 0.453984 -0.89101 0
    outer loop
      vertex 6.38669 -13.5724 -10
      vertex 7.22631 -13.1446 10
      vertex 6.38669 -13.5724 10
    endloop
  endfacet
  facet normal 0.453984 -0.89101 0
    outer loop
      vertex 7.22631 -13.1446 10
      vertex 6.38669 -13.5724 -10
      vertex 7.22631 -13.1446 -10
    endloop
  endfacet
  facet normal 0.509059 -0.860731 0
    outer loop
      vertex 7.22631 -13.1446 -10
      vertex 8.0374 -12.6649 10
      vertex 7.22631 -13.1446 10
    endloop
  endfacet
  facet normal 0.509059 -0.860731 0
    outer loop
      vertex 8.0374 -12.6649 10
      vertex 7.22631 -13.1446 -10
      vertex 8.0374 -12.6649 -10
    endloop
  endfacet
  facet normal 0.562035 -0.827113 0
    outer loop
      vertex 8.0374 -12.6649 -10
      vertex 8.81678 -12.1353 10
      vertex 8.0374 -12.6649 10
    endloop
  endfacet
  facet normal 0.562035 -0.827113 0
    outer loop
      vertex 8.81678 -12.1353 10
      vertex 8.0374 -12.6649 -10
      vertex 8.81678 -12.1353 -10
    endloop
  endfacet
  facet normal 0.612937 -0.790132 0
    outer loop
      vertex 8.81678 -12.1353 -10
      vertex 9.56136 -11.5577 10
      vertex 8.81678 -12.1353 10
    endloop
  endfacet
  facet normal 0.612937 -0.790132 0
    outer loop
      vertex 9.56136 -11.5577 10
      vertex 8.81678 -12.1353 -10
      vertex 9.56136 -11.5577 -10
    endloop
  endfacet
  facet normal 0.661334 -0.750092 0
    outer loop
      vertex 9.56136 -11.5577 -10
      vertex 10.2682 -10.9345 10
      vertex 9.56136 -11.5577 10
    endloop
  endfacet
  facet normal 0.661334 -0.750092 0
    outer loop
      vertex 10.2682 -10.9345 10
      vertex 9.56136 -11.5577 -10
      vertex 10.2682 -10.9345 -10
    endloop
  endfacet
  facet normal 0.707107 -0.707107 0
    outer loop
      vertex 10.2682 -10.9345 10
      vertex 10.9345 -10.2682 -10
      vertex 10.9345 -10.2682 10
    endloop
  endfacet
  facet normal 0.707107 -0.707107 0
    outer loop
      vertex 10.9345 -10.2682 -10
      vertex 10.2682 -10.9345 10
      vertex 10.2682 -10.9345 -10
    endloop
  endfacet
  facet normal 0.750092 -0.661334 0
    outer loop
      vertex 10.9345 -10.2682 10
      vertex 11.5577 -9.56136 -10
      vertex 11.5577 -9.56136 10
    endloop
  endfacet
  facet normal 0.750092 -0.661334 0
    outer loop
      vertex 11.5577 -9.56136 -10
      vertex 10.9345 -10.2682 10
      vertex 10.9345 -10.2682 -10
    endloop
  endfacet
  facet normal 0.790132 -0.612937 0
    outer loop
      vertex 11.5577 -9.56136 10
      vertex 12.1353 -8.81678 -10
      vertex 12.1353 -8.81678 10
    endloop
  endfacet
  facet normal 0.790132 -0.612937 0
    outer loop
      vertex 12.1353 -8.81678 -10
      vertex 11.5577 -9.56136 10
      vertex 11.5577 -9.56136 -10
    endloop
  endfacet
  facet normal 0.827113 -0.562035 0
    outer loop
      vertex 12.1353 -8.81678 10
      vertex 12.6649 -8.0374 -10
      vertex 12.6649 -8.0374 10
    endloop
  endfacet
  facet normal 0.827113 -0.562035 0
    outer loop
      vertex 12.6649 -8.0374 -10
      vertex 12.1353 -8.81678 10
      vertex 12.1353 -8.81678 -10
    endloop
  endfacet
  facet normal 0.860731 -0.509059 0
    outer loop
      vertex 12.6649 -8.0374 10
      vertex 13.1446 -7.22631 -10
      vertex 13.1446 -7.22631 10
    endloop
  endfacet
  facet normal 0.860731 -0.509059 0
    outer loop
      vertex 13.1446 -7.22631 -10
      vertex 12.6649 -8.0374 10
      vertex 12.6649 -8.0374 -10
    endloop
  endfacet
  facet normal 0.89101 -0.453984 0
    outer loop
      vertex 13.1446 -7.22631 10
      vertex 13.5724 -6.38669 -10
      vertex 13.5724 -6.38669 10
    endloop
  endfacet
  facet normal 0.89101 -0.453984 0
    outer loop
      vertex 13.5724 -6.38669 -10
      vertex 13.1446 -7.22631 10
      vertex 13.1446 -7.22631 -10
    endloop
  endfacet
  facet normal 0.91777 -0.397111 0
    outer loop
      vertex 13.5724 -6.38669 10
      vertex 13.9466 -5.52187 -10
      vertex 13.9466 -5.52187 10
    endloop
  endfacet
  facet normal 0.91777 -0.397111 0
    outer loop
      vertex 13.9466 -5.52187 -10
      vertex 13.5724 -6.38669 10
      vertex 13.5724 -6.38669 -10
    endloop
  endfacet
  facet normal 0.940882 -0.338735 0
    outer loop
      vertex 13.9466 -5.52187 10
      vertex 14.2658 -4.63525 -10
      vertex 14.2658 -4.63525 10
    endloop
  endfacet
  facet normal 0.940882 -0.338735 0
    outer loop
      vertex 14.2658 -4.63525 -10
      vertex 13.9466 -5.52187 10
      vertex 13.9466 -5.52187 -10
    endloop
  endfacet
  facet normal 0.960293 -0.278993 0
    outer loop
      vertex 14.2658 -4.63525 10
      vertex 14.5287 -3.73035 -10
      vertex 14.5287 -3.73035 10
    endloop
  endfacet
  facet normal 0.960293 -0.278993 0
    outer loop
      vertex 14.5287 -3.73035 -10
      vertex 14.2658 -4.63525 10
      vertex 14.2658 -4.63525 -10
    endloop
  endfacet
  facet normal 0.975908 -0.218182 0
    outer loop
      vertex 14.5287 -3.73035 10
      vertex 14.7343 -2.81072 -10
      vertex 14.7343 -2.81072 10
    endloop
  endfacet
  facet normal 0.975908 -0.218182 0
    outer loop
      vertex 14.7343 -2.81072 -10
      vertex 14.5287 -3.73035 10
      vertex 14.5287 -3.73035 -10
    endloop
  endfacet
  facet normal 0.98769 -0.156422 0
    outer loop
      vertex 14.7343 -2.81072 10
      vertex 14.8817 -1.88 -10
      vertex 14.8817 -1.88 10
    endloop
  endfacet
  facet normal 0.98769 -0.156422 0
    outer loop
      vertex 14.8817 -1.88 -10
      vertex 14.7343 -2.81072 10
      vertex 14.7343 -2.81072 -10
    endloop
  endfacet
  facet normal 0.99556 -0.0941288 0
    outer loop
      vertex 14.8817 -1.88 10
      vertex 14.9704 -0.941858 -10
      vertex 14.9704 -0.941858 10
    endloop
  endfacet
  facet normal 0.99556 -0.0941288 0
    outer loop
      vertex 14.9704 -0.941858 -10
      vertex 14.8817 -1.88 10
      vertex 14.8817 -1.88 -10
    endloop
  endfacet
  facet normal 0.999507 -0.0314117 0
    outer loop
      vertex 14.9704 -0.941858 10
      vertex 15 0 -10
      vertex 15 0 10
    endloop
  endfacet
  facet normal 0.999507 -0.0314117 0
    outer loop
      vertex 15 0 -10
      vertex 14.9704 -0.941858 10
      vertex 14.9704 -0.941858 -10
    endloop
  endfacet
  facet normal 0 0 -1
    outer loop
      vertex 14.9704 -0.941858 -10
      vertex 14.9704 0.941858 -10
      vertex 15 0 -10
    endloop
  endfacet
  facet normal 0 0 -1
    outer loop
      vertex 14.8817 -1.88 -10
      vertex 14.9704 0.941858 -10
      vertex 14.9704 -0.941858 -10
    endloop
  endfacet
  facet normal 0 0 -1
    outer loop
      vertex 14.8817 -1.88 -10
      vertex 14.8817 1.88 -10
      vertex 14.9704 0.941858 -10
    endloop
  endfacet
  facet normal 0 0 -1
    outer loop
      vertex 14.7343 -2.81072 -10
      vertex 14.8817 1.88 -10
      vertex 14.8817 -1.88 -10
    endloop
  endfacet
  facet normal 0 0 -1
    outer loop
      vertex 14.7343 -2.81072 -10
      vertex 14.7343 2.81072 -10
      vertex 14.8817 1.88 -10
    endloop
  endfacet
  facet normal 0 0 -1
    outer loop
      vertex 14.5287 -3.73035 -10
      vertex 14.7343 2.81072 -10
      vertex 14.7343 -2.81072 -10
    endloop
  endfacet
  facet normal 0 0 -1
    outer loop
      vertex 14.5287 -3.73035 -10
      vertex 14.5287 3.73035 -10
      vertex 14.7343 2.81072 -10
    endloop
  endfacet
  facet normal 0 0 -1
    outer loop
      vertex 14.2658 -4.63525 -10
      vertex 14.5287 3.73035 -10
      vertex 14.5287 -3.73035 -10
    endloop
  endfacet
  facet normal 0 0 -1
    outer loop
      vertex 14.2658 -4.63525 -10
      vertex 14.2658 4.63525 -10
      vertex 14.5287 3.73035 -10
    endloop
  endfacet
  facet normal 0 0 -1
    outer loop
      vertex 13.9466 -5.52187 -10
      vertex 14.2658 4.63525 -10
      vertex 14.2658 -4.63525 -10
    endloop
  endfacet
  facet normal 0 0 -1
    outer loop
      vertex 13.9466 -5.52187 -10
      vertex 13.9466 5.52187 -10
      vertex 14.2658 4.63525 -10
    endloop
  endfacet
  facet normal 0 0 -1
    outer loop
      vertex 13.5724 -6.38669 -10
      vertex 13.9466 5.52187 -10
      vertex 13.9466 -5.52187 -10
    endloop
  endfacet
  facet normal 0 0 -1
    outer loop
      vertex 13.5724 -6.38669 -10
      vertex 13.5724 6.38669 -10
      vertex 13.9466 5.52187 -10
    endloop
  endfacet
  facet normal 0 0 -1
    outer loop
      vertex 13.1446 -7.22631 -10
      vertex 13.5724 6.38669 -10
      vertex 13.5724 -6.38669 -10
    endloop
  endfacet
  facet normal 0 0 -1
    outer loop
      vertex 13.1446 -7.22631 -10
      vertex 13.1446 7.22631 -10
      vertex 13.5724 6.38669 -10
    endloop
  endfacet
  facet normal 0 0 -1
    outer loop
      vertex 12.6649 -8.0374 -10
      vertex 13.1446 7.22631 -10
      vertex 13.1446 -7.22631 -10
    endloop
  endfacet
  facet normal 0 0 -1
    outer loop
      vertex 12.6649 -8.0374 -10
      vertex 12.6649 8.0374 -10
      vertex 13.1446 7.22631 -10
    endloop
  endfacet
  facet normal 0 0 -1
    outer loop
      vertex 12.1353 -8.81678 -10
      vertex 12.6649 8.0374 -10
      vertex 12.6649 -8.0374 -10
    endloop
  endfacet
  facet normal 0 0 -1
    outer loop
      vertex 12.1353 -8.81678 -10
      vertex 12.1353 8.81678 -10
      vertex 12.6649 8.0374 -10
    endloop
  endfacet
  facet normal 0 0 -1
    outer loop
      vertex 11.5577 -9.56136 -10
      vertex 12.1353 8.81678 -10
      vertex 12.1353 -8.81678 -10
    endloop
  endfacet
  facet normal 0 0 -1
    outer loop
      vertex 11.5577 -9.56136 -10
      vertex 11.5577 9.56136 -10
      vertex 12.1353 8.81678 -10
    endloop
  endfacet
  facet normal 0 0 -1
    outer loop
      vertex 10.9345 -10.2682 -10
      vertex 11.5577 9.56136 -10
      vertex 11.5577 -9.56136 -10
    endloop
  endfacet
  facet normal 0 0 -1
    outer loop
      vertex 10.9345 -10.2682 -10
      vertex 10.9345 10.2682 -10
      vertex 11.5577 9.56136 -10
    endloop
  endfacet
  facet normal 0 0 -1
    outer loop
      vertex 10.2682 -10.9345 -10
      vertex 10.9345 10.2682 -10
      vertex 10.9345 -10.2682 -10
    endloop
  endfacet
  facet normal 0 0 -1
    outer loop
      vertex 10.2682 -10.9345 -10
      vertex 10.2682 10.9345 -10
      vertex 10.9345 10.2682 -10
    endloop
  endfacet
  facet normal 0 0 -1
    outer loop
      vertex 9.56136 -11.5577 -10
      vertex 10.2682 10.9345 -10
      vertex 10.2682 -10.9345 -10
    endloop
  endfacet
  facet normal 0 0 -1
    outer loop
      vertex 9.56136 -11.5577 -10
      vertex 9.56136 11.5577 -10
      vertex 10.2682 10.9345 -10
    endloop
  endfacet
  facet normal 0 0 -1
    outer loop
      vertex 8.81678 -12.1353 -10
      vertex 9.56136 11.5577 -10
      vertex 9.56136 -11.5577 -10
    endloop
  endfacet
  facet normal 0 0 -1
    outer loop
      vertex 8.81678 -12.1353 -10
      vertex 8.81678 12.1353 -10
      vertex 9.56136 11.5577 -10
    endloop
  endfacet
  facet normal 0 0 -1
    outer loop
      vertex 8.0374 -12.6649 -10
      vertex 8.81678 12.1353 -10
      vertex 8.81678 -12.1353 -10
    endloop
  endfacet
  facet normal 0 0 -1
    outer loop
      vertex 8.0374 -12.6649 -10
      vertex 8.0374 12.6649 -10
      vertex 8.81678 12.1353 -10
    endloop
  endfacet
  facet normal 0 0 -1
    outer loop
      vertex 7.22631 -13.1446 -10
      vertex 8.0374 12.6649 -10
      vertex 8.0374 -12.6649 -10
    endloop
  endfacet
  facet normal 0 0 -1
    outer loop
      vertex 7.22631 -13.1446 -10
      vertex 7.22631 13.1446 -10
      vertex 8.0374 12.6649 -10
    endloop
  endfacet
  facet normal 0 0 -1
    outer loop
      vertex 6.38669 -13.5724 -10
      vertex 7.22631 13.1446 -10
      vertex 7.22631 -13.1446 -10
    endloop
  endfacet
  facet normal 0 0 -1
    outer loop
      vertex 6.38669 -13.5724 -10
      vertex 6.38669 13.5724 -10
      vertex 7.22631 13.1446 -10
    endloop
  endfacet
  facet normal 0 0 -1
    outer loop
      vertex 5.52187 -13.9466 -10
      vertex 6.38669 13.5724 -10
      vertex 6.38669 -13.5724 -10
    endloop
  endfacet
  facet normal 0 0 -1
    outer loop
      vertex 5.52187 -13.9466 -10
      vertex 5.52187 13.9466 -10
      vertex 6.38669 13.5724 -10
    endloop
  endfacet
  facet normal 0 0 -1
    outer loop
      vertex 4.63525 -14.2658 -10
      vertex 5.52187 13.9466 -10
      vertex 5.52187 -13.9466 -10
    endloop
  endfacet
  facet normal 0 0 -1
    outer loop
      vertex 4.63525 -14.2658 -10
      vertex 4.63525 14.2658 -10
      vertex 5.52187 13.9466 -10
    endloop
  endfacet
  facet normal 0 0 -1
    outer loop
      vertex 3.73035 -14.5287 -10
      vertex 4.63525 14.2658 -10
      vertex 4.63525 -14.2658 -10
    endloop
  endfacet
  facet normal 0 0 -1
    outer loop
      vertex 3.73035 -14.5287 -10
      vertex 3.73035 14.5287 -10
      vertex 4.63525 14.2658 -10
    endloop
  endfacet
  facet normal 0 0 -1
    outer loop
      vertex 2.81072 -14.7343 -10
      vertex 3.73035 14.5287 -10
      vertex 3.73035 -14.5287 -10
    endloop
  endfacet
  facet normal 0 0 -1
    outer loop
      vertex 2.81072 -14.7343 -10
      vertex 2.81072 14.7343 -10
      vertex 3.73035 14.5287 -10
    endloop
  endfacet
  facet normal 0 0 -1
    outer loop
      vertex 1.88 -14.8817 -10
      vertex 2.81072 14.7343 -10
      vertex 2.81072 -14.7343 -10
    endloop
  endfacet
  facet normal 0 0 -1
    outer loop
      vertex 1.88 -14.8817 -10
      vertex 1.88 14.8817 -10
      vertex 2.81072 14.7343 -10
    endloop
  endfacet
  facet normal 0 0 -1
    outer loop
      vertex 0.941858 -14.9704 -10
      vertex 1.88 14.8817 -10
      vertex 1.88 -14.8817 -10
    endloop
  endfacet
  facet normal 0 0 -1
    outer loop
      vertex 0.941858 -14.9704 -10
      vertex 0.941858 14.9704 -10
      vertex 1.88 14.8817 -10
    endloop
  endfacet
  facet normal 0 0 -1
    outer loop
      vertex 0 -15 -10
      vertex 0.941858 14.9704 -10
      vertex 0.941858 -14.9704 -10
    endloop
  endfacet
  facet normal 0 0 -1
    outer loop
      vertex 0 -15 -10
      vertex 0 15 -10
      vertex 0.941858 14.9704 -10
    endloop
  endfacet
  facet normal 0 0 -1
    outer loop
      vertex -0.941858 -14.9704 -10
      vertex 0 15 -10
      vertex 0 -15 -10
    endloop
  endfacet
  facet normal 0 0 -1
    outer loop
      vertex -0.941858 -14.9704 -10
      vertex -0.941858 14.9704 -10
      vertex 0 15 -10
    endloop
  endfacet
  facet normal 0 0 -1
    outer loop
      vertex -1.88 -14.8817 -10
      vertex -0.941858 14.9704 -10
      vertex -0.941858 -14.9704 -10
    endloop
  endfacet
  facet normal 0 0 -1
    outer loop
      vertex -1.88 -14.8817 -10
      vertex -1.88 14.8817 -10
      vertex -0.941858 14.9704 -10
    endloop
  endfacet
  facet normal 0 0 -1
    outer loop
      vertex -2.81072 -14.7343 -10
      vertex -1.88 14.8817 -10
      vertex -1.88 -14.8817 -10
    endloop
  endfacet
  facet normal 0 0 -1
    outer loop
      vertex -2.81072 -14.7343 -10
      vertex -2.81072 14.7343 -10
      vertex -1.88 14.8817 -10
    endloop
  endfacet
  facet normal 0 0 -1
    outer loop
      vertex -3.73035 -14.5287 -10
      vertex -2.81072 14.7343 -10
      vertex -2.81072 -14.7343 -10
    endloop
  endfacet
  facet normal 0 0 -1
    outer loop
      vertex -3.73035 -14.5287 -10
      vertex -3.73035 14.5287 -10
      vertex -2.81072 14.7343 -10
    endloop
  endfacet
  facet normal 0 0 -1
    outer loop
      vertex -4.63525 -14.2658 -10
      vertex -3.73035 14.5287 -10
      vertex -3.73035 -14.5287 -10
    endloop
  endfacet
  facet normal 0 0 -1
    outer loop
      vertex -4.63525 -14.2658 -10
      vertex -4.63525 14.2658 -10
      vertex -3.73035 14.5287 -10
    endloop
  endfacet
  facet normal 0 0 -1
    outer loop
      vertex -5.52187 -13.9466 -10
      vertex -4.63525 14.2658 -10
      vertex -4.63525 -14.2658 -10
    endloop
  endfacet
  facet normal 0 0 -1
    outer loop
      vertex -5.52187 -13.9466 -10
      vertex -5.52187 13.9466 -10
      vertex -4.63525 14.2658 -10
    endloop
  endfacet
  facet normal 0 0 -1
    outer loop
      vertex -6.38669 -13.5724 -10
      vertex -5.52187 13.9466 -10
      vertex -5.52187 -13.9466 -10
    endloop
  endfacet
  facet normal 0 0 -1
    outer loop
      vertex -6.38669 -13.5724 -10
      vertex -6.38669 13.5724 -10
      vertex -5.52187 13.9466 -10
    endloop
  endfacet
  facet normal 0 0 -1
    outer loop
      vertex -7.22631 -13.1446 -10
      vertex -6.38669 13.5724 -10
      vertex -6.38669 -13.5724 -10
    endloop
  endfacet
  facet normal 0 0 -1
    outer loop
      vertex -7.22631 -13.1446 -10
      vertex -7.22631 13.1446 -10
      vertex -6.38669 13.5724 -10
    endloop
  endfacet
  facet normal 0 0 -1
    outer loop
      vertex -8.0374 -12.6649 -10
      vertex -7.22631 13.1446 -10
      vertex -7.22631 -13.1446 -10
    endloop
  endfacet
  facet normal 0 0 -1
    outer loop
      vertex -8.0374 -12.6649 -10
      vertex -8.0374 12.6649 -10
      vertex -7.22631 13.1446 -10
    endloop
  endfacet
  facet normal 0 0 -1
    outer loop
      vertex -8.81678 -12.1353 -10
      vertex -8.0374 12.6649 -10
      vertex -8.0374 -12.6649 -10
    endloop
  endfacet
  facet normal 0 0 -1
    outer loop
      vertex -8.81678 -12.1353 -10
      vertex -8.81678 12.1353 -10
      vertex -8.0374 12.6649 -10
    endloop
  endfacet
  facet normal 0 0 -1
    outer loop
      vertex -9.56136 -11.5577 -10
      vertex -8.81678 12.1353 -10
      vertex -8.81678 -12.1353 -10
    endloop
  endfacet
  facet normal 0 0 -1
    outer loop
      vertex -9.56136 -11.5577 -10
      vertex -9.56136 11.5577 -10
      vertex -8.81678 12.1353 -10
    endloop
  endfacet
  facet normal 0 0 -1
    outer loop
      vertex -10.2682 -10.9345 -10
      vertex -9.56136 11.5577 -10
      vertex -9.56136 -11.5577 -10
    endloop
  endfacet
  facet normal 0 0 -1
    outer loop
      vertex -10.2682 -10.9345 -10
      vertex -10.2682 10.9345 -10
      vertex -9.56136 11.5577 -10
    endloop
  endfacet
  facet normal 0 0 -1
    outer loop
      vertex -10.9345 -10.2682 -10
      vertex -10.2682 10.9345 -10
      vertex -10.2682 -10.9345 -10
    endloop
  endfacet
  facet normal 0 0 -1
    outer loop
      vertex -10.9345 -10.2682 -10
      vertex -10.9345 10.2682 -10
      vertex -10.2682 10.9345 -10
    endloop
  endfacet
  facet normal 0 0 -1
    outer loop
      vertex -11.5577 -9.56136 -10
      vertex -10.9345 10.2682 -10
      vertex -10.9345 -10.2682 -10
    endloop
  endfacet
  facet normal 0 0 -1
    outer loop
      vertex -11.5577 -9.56136 -10
      vertex -11.5577 9.56136 -10
      vertex -10.9345 10.2682 -10
    endloop
  endfacet
  facet normal 0 0 -1
    outer loop
      vertex -12.1353 -8.81678 -10
      vertex -11.5577 9.56136 -10
      vertex -11.5577 -9.56136 -10
    endloop
  endfacet
  facet normal 0 0 -1
    outer loop
      vertex -12.1353 -8.81678 -10
      vertex -12.1353 8.81678 -10
      vertex -11.5577 9.56136 -10
    endloop
  endfacet
  facet normal 0 0 -1
    outer loop
      vertex -12.6649 -8.0374 -10
      vertex -12.1353 8.81678 -10
      vertex -12.1353 -8.81678 -10
    endloop
  endfacet
  facet normal 0 0 -1
    outer loop
      vertex -12.6649 -8.0374 -10
      vertex -12.6649 8.0374 -10
      vertex -12.1353 8.81678 -10
    endloop
  endfacet
  facet normal 0 0 -1
    outer loop
      vertex -13.1446 -7.22631 -10
      vertex -12.6649 8.0374 -10
      vertex -12.6649 -8.0374 -10
    endloop
  endfacet
  facet normal 0 0 -1
    outer loop
      vertex -13.1446 -7.22631 -10
      vertex -13.1446 7.22631 -10
      vertex -12.6649 8.0374 -10
    endloop
  endfacet
  facet normal 0 0 -1
    outer loop
      vertex -13.5724 -6.38669 -10
      vertex -13.1446 7.22631 -10
      vertex -13.1446 -7.22631 -10
    endloop
  endfacet
  facet normal 0 0 -1
    outer loop
      vertex -13.5724 -6.38669 -10
      vertex -13.5724 6.38669 -10
      vertex -13.1446 7.22631 -10
    endloop
  endfacet
  facet normal 0 0 -1
    outer loop
      vertex -13.9466 -5.52187 -10
      vertex -13.5724 6.38669 -10
      vertex -13.5724 -6.38669 -10
    endloop
  endfacet
  facet normal 0 0 -1
    outer loop
      vertex -13.9466 -5.52187 -10
      vertex -13.9466 5.52187 -10
      vertex -13.5724 6.38669 -10
    endloop
  endfacet
  facet normal 0 0 -1
    outer loop
      vertex -14.2658 -4.63525 -10
      vertex -13.9466 5.52187 -10
      vertex -13.9466 -5.52187 -10
    endloop
  endfacet
  facet normal 0 0 -1
    outer loop
      vertex -14.2658 -4.63525 -10
      vertex -14.2658 4.63525 -10
      vertex -13.9466 5.52187 -10
    endloop
  endfacet
  facet normal 0 0 -1
    outer loop
      vertex -14.5287 -3.73035 -10
      vertex -14.2658 4.63525 -10
      vertex -14.2658 -4.63525 -10
    endloop
  endfacet
  facet normal 0 0 -1
    outer loop
      vertex -14.5287 -3.73035 -10
      vertex -14.5287 3.73035 -10
      vertex -14.2658 4.63525 -10
    endloop
  endfacet
  facet normal 0 0 -1
    outer loop
      vertex -14.7343 -2.81072 -10
      vertex -14.5287 3.73035 -10
      vertex -14.5287 -3.73035 -10
    endloop
  endfacet
  facet normal 0 0 -1
    outer loop
      vertex -14.7343 -2.81072 -10
      vertex -14.7343 2.81072 -10
      vertex -14.5287 3.73035 -10
    endloop
  endfacet
  facet normal 0 0 -1
    outer loop
      vertex -14.8817 -1.88 -10
      vertex -14.7343 2.81072 -10
      vertex -14.7343 -2.81072 -10
    endloop
  endfacet
  facet normal 0 0 -1
    outer loop
      vertex -14.8817 -1.88 -10
      vertex -14.8817 1.88 -10
      vertex -14.7343 2.81072 -10
    endloop
  endfacet
  facet normal 0 0 -1
    outer loop
      vertex -14.9704 -0.941858 -10
      vertex -14.8817 1.88 -10
      vertex -14.8817 -1.88 -10
    endloop
  endfacet
  facet normal 0 0 -1
    outer loop
      vertex -14.9704 -0.941858 -10
      vertex -14.9704 0.941858 -10
      vertex -14.8817 1.88 -10
    endloop
  endfacet
  facet normal 0 -0 -1
    outer loop
      vertex -14.9704 0.941858 -10
      vertex -14.9704 -0.941858 -10
      vertex -15 0 -10
    endloop
  endfacet
  facet normal 0 0 1
    outer loop
      vertex 14.9704 0.941858 10
      vertex 14.9704 -0.941858 10
      vertex 15 0 10
    endloop
  endfacet
  facet normal 0 0 1
    outer loop
      vertex 14.8817 1.88 10
      vertex 14.9704 -0.941858 10
      vertex 14.9704 0.941858 10
    endloop
  endfacet
  facet normal 0 0 1
    outer loop
      vertex 14.8817 1.88 10
      vertex 14.8817 -1.88 10
      vertex 14.9704 -0.941858 10
    endloop
  endfacet
  facet normal 0 0 1
    outer loop
      vertex 14.7343 2.81072 10
      vertex 14.8817 -1.88 10
      vertex 14.8817 1.88 10
    endloop
  endfacet
  facet normal 0 0 1
    outer loop
      vertex 14.7343 2.81072 10
      vertex 14.7343 -2.81072 10
      vertex 14.8817 -1.88 10
    endloop
  endfacet
  facet normal 0 0 1
    outer loop
      vertex 14.5287 3.73035 10
      vertex 14.7343 -2.81072 10
      vertex 14.7343 2.81072 10
    endloop
  endfacet
  facet normal 0 0 1
    outer loop
      vertex 14.5287 3.73035 10
      vertex 14.5287 -3.73035 10
      vertex 14.7343 -2.81072 10
    endloop
  endfacet
  facet normal 0 0 1
    outer loop
      vertex 14.2658 4.63525 10
      vertex 14.5287 -3.73035 10
      vertex 14.5287 3.73035 10
    endloop
  endfacet
  facet normal 0 0 1
    outer loop
      vertex 14.2658 4.63525 10
      vertex 14.2658 -4.63525 10
      vertex 14.5287 -3.73035 10
    endloop
  endfacet
  facet normal 0 0 1
    outer loop
      vertex 13.9466 5.52187 10
      vertex 14.2658 -4.63525 10
      vertex 14.2658 4.63525 10
    endloop
  endfacet
  facet normal 0 0 1
    outer loop
      vertex 13.9466 5.52187 10
      vertex 13.9466 -5.52187 10
      vertex 14.2658 -4.63525 10
    endloop
  endfacet
  facet normal 0 0 1
    outer loop
      vertex 13.5724 6.38669 10
      vertex 13.9466 -5.52187 10
      vertex 13.9466 5.52187 10
    endloop
  endfacet
  facet normal 0 0 1
    outer loop
      vertex 13.5724 6.38669 10
      vertex 13.5724 -6.38669 10
      vertex 13.9466 -5.52187 10
    endloop
  endfacet
  facet normal 0 0 1
    outer loop
      vertex 13.1446 7.22631 10
      vertex 13.5724 -6.38669 10
      vertex 13.5724 6.38669 10
    endloop
  endfacet
  facet normal 0 0 1
    outer loop
      vertex 13.1446 7.22631 10
      vertex 13.1446 -7.22631 10
      vertex 13.5724 -6.38669 10
    endloop
  endfacet
  facet normal 0 0 1
    outer loop
      vertex 12.6649 8.0374 10
      vertex 13.1446 -7.22631 10
      vertex 13.1446 7.22631 10
    endloop
  endfacet
  facet normal 0 0 1
    outer loop
      vertex 12.6649 8.0374 10
      vertex 12.6649 -8.0374 10
      vertex 13.1446 -7.22631 10
    endloop
  endfacet
  facet normal 0 0 1
    outer loop
      vertex 12.1353 8.81678 10
      vertex 12.6649 -8.0374 10
      vertex 12.6649 8.0374 10
    endloop
  endfacet
  facet normal 0 0 1
    outer loop
      vertex 12.1353 8.81678 10
      vertex 12.1353 -8.81678 10
      vertex 12.6649 -8.0374 10
    endloop
  endfacet
  facet normal 0 0 1
    outer loop
      vertex 11.5577 9.56136 10
      vertex 12.1353 -8.81678 10
      vertex 12.1353 8.81678 10
    endloop
  endfacet
  facet normal 0 0 1
    outer loop
      vertex 11.5577 9.56136 10
      vertex 11.5577 -9.56136 10
      vertex 12.1353 -8.81678 10
    endloop
  endfacet
  facet normal 0 0 1
    outer loop
      vertex 10.9345 10.2682 10
      vertex 11.5577 -9.56136 10
      vertex 11.5577 9.56136 10
    endloop
  endfacet
  facet normal 0 0 1
    outer loop
      vertex 10.9345 10.2682 10
      vertex 10.9345 -10.2682 10
      vertex 11.5577 -9.56136 10
    endloop
  endfacet
  facet normal 0 0 1
    outer loop
      vertex 10.2682 10.9345 10
      vertex 10.9345 -10.2682 10
      vertex 10.9345 10.2682 10
    endloop
  endfacet
  facet normal 0 0 1
    outer loop
      vertex 10.2682 10.9345 10
      vertex 10.2682 -10.9345 10
      vertex 10.9345 -10.2682 10
    endloop
  endfacet
  facet normal 0 0 1
    outer loop
      vertex 9.56136 11.5577 10
      vertex 10.2682 -10.9345 10
      vertex 10.2682 10.9345 10
    endloop
  endfacet
  facet normal 0 0 1
    outer loop
      vertex 9.56136 11.5577 10
      vertex 9.56136 -11.5577 10
      vertex 10.2682 -10.9345 10
    endloop
  endfacet
  facet normal 0 0 1
    outer loop
      vertex 8.81678 12.1353 10
      vertex 9.56136 -11.5577 10
      vertex 9.56136 11.5577 10
    endloop
  endfacet
  facet normal 0 0 1
    outer loop
      vertex 8.81678 12.1353 10
      vertex 8.81678 -12.1353 10
      vertex 9.56136 -11.5577 10
    endloop
  endfacet
  facet normal 0 0 1
    outer loop
      vertex 8.0374 12.6649 10
      vertex 8.81678 -12.1353 10
      vertex 8.81678 12.1353 10
    endloop
  endfacet
  facet normal 0 0 1
    outer loop
      vertex 8.0374 12.6649 10
      vertex 8.0374 -12.6649 10
      vertex 8.81678 -12.1353 10
    endloop
  endfacet
  facet normal 0 0 1
    outer loop
      vertex 7.22631 13.1446 10
      vertex 8.0374 -12.6649 10
      vertex 8.0374 12.6649 10
    endloop
  endfacet
  facet normal 0 0 1
    outer loop
      vertex 7.22631 13.1446 10
      vertex 7.22631 -13.1446 10
      vertex 8.0374 -12.6649 10
    endloop
  endfacet
  facet normal 0 0 1
    outer loop
      vertex 6.38669 13.5724 10
      vertex 7.22631 -13.1446 10
      vertex 7.22631 13.1446 10
    endloop
  endfacet
  facet normal 0 0 1
    outer loop
      vertex 6.38669 13.5724 10
      vertex 6.38669 -13.5724 10
      vertex 7.22631 -13.1446 10
    endloop
  endfacet
  facet normal 0 0 1
    outer loop
      vertex 5.52187 13.9466 10
      vertex 6.38669 -13.5724 10
      vertex 6.38669 13.5724 10
    endloop
  endfacet
  facet normal 0 0 1
    outer loop
      vertex 5.52187 13.9466 10
      vertex 5.52187 -13.9466 10
      vertex 6.38669 -13.5724 10
    endloop
  endfacet
  facet normal 0 0 1
    outer loop
      vertex 4.63525 14.2658 10
      vertex 5.52187 -13.9466 10
      vertex 5.52187 13.9466 10
    endloop
  endfacet
  facet normal 0 0 1
    outer loop
      vertex 4.63525 14.2658 10
      vertex 4.63525 -14.2658 10
      vertex 5.52187 -13.9466 10
    endloop
  endfacet
  facet normal 0 0 1
    outer loop
      vertex 3.73035 14.5287 10
      vertex 4.63525 -14.2658 10
      vertex 4.63525 14.2658 10
    endloop
  endfacet
  facet normal 0 0 1
    outer loop
      vertex 3.73035 14.5287 10
      vertex 3.73035 -14.5287 10
      vertex 4.63525 -14.2658 10
    endloop
  endfacet
  facet normal 0 0 1
    outer loop
      vertex 2.81072 14.7343 10
      vertex 3.73035 -14.5287 10
      vertex 3.73035 14.5287 10
    endloop
  endfacet
  facet normal 0 0 1
    outer loop
      vertex 2.81072 14.7343 10
      vertex 2.81072 -14.7343 10
      vertex 3.73035 -14.5287 10
    endloop
  endfacet
  facet normal 0 0 1
    outer loop
      vertex 1.88 14.8817 10
      vertex 2.81072 -14.7343 10
      vertex 2.81072 14.7343 10
    endloop
  endfacet
  facet normal 0 0 1
    outer loop
      vertex 1.88 14.8817 10
      vertex 1.88 -14.8817 10
      vertex 2.81072 -14.7343 10
    endloop
  endfacet
  facet normal 0 0 1
    outer loop
      vertex 0.941858 14.9704 10
      vertex 1.88 -14.8817 10
      vertex 1.88 14.8817 10
    endloop
  endfacet
  facet normal 0 0 1
    outer loop
      vertex 0.941858 14.9704 10
      vertex 0.941858 -14.9704 10
      vertex 1.88 -14.8817 10
    endloop
  endfacet
  facet normal 0 0 1
    outer loop
      vertex 0 15 10
      vertex 0.941858 -14.9704 10
      vertex 0.941858 14.9704 10
    endloop
  endfacet
  facet normal 0 0 1
    outer loop
      vertex 0 15 10
      vertex 0 -15 10
      vertex 0.941858 -14.9704 10
    endloop
  endfacet
  facet normal -0 0 1
    outer loop
      vertex -0.941858 14.9704 10
      vertex 0 -15 10
      vertex 0 15 10
    endloop
  endfacet
  facet normal 0 0 1
    outer loop
      vertex -0.941858 14.9704 10
      vertex -0.941858 -14.9704 10
      vertex 0 -15 10
    endloop
  endfacet
  facet normal -0 0 1
    outer loop
      vertex -1.88 14.8817 10
      vertex -0.941858 -14.9704 10
      vertex -0.941858 14.9704 10
    endloop
  endfacet
  facet normal 0 0 1
    outer loop
      vertex -1.88 14.8817 10
      vertex -1.88 -14.8817 10
      vertex -0.941858 -14.9704 10
    endloop
  endfacet
  facet normal -0 0 1
    outer loop
      vertex -2.81072 14.7343 10
      vertex -1.88 -14.8817 10
      vertex -1.88 14.8817 10
    endloop
  endfacet
  facet normal 0 0 1
    outer loop
      vertex -2.81072 14.7343 10
      vertex -2.81072 -14.7343 10
      vertex -1.88 -14.8817 10
    endloop
  endfacet
  facet normal -0 0 1
    outer loop
      vertex -3.73035 14.5287 10
      vertex -2.81072 -14.7343 10
      vertex -2.81072 14.7343 10
    endloop
  endfacet
  facet normal 0 0 1
    outer loop
      vertex -3.73035 14.5287 10
      vertex -3.73035 -14.5287 10
      vertex -2.81072 -14.7343 10
    endloop
  endfacet
  facet normal -0 0 1
    outer loop
      vertex -4.63525 14.2658 10
      vertex -3.73035 -14.5287 10
      vertex -3.73035 14.5287 10
    endloop
  endfacet
  facet normal 0 0 1
    outer loop
      vertex -4.63525 14.2658 10
      vertex -4.63525 -14.2658 10
      vertex -3.73035 -14.5287 10
    endloop
  endfacet
  facet normal -0 0 1
    outer loop
      vertex -5.52187 13.9466 10
      vertex -4.63525 -14.2658 10
      vertex -4.63525 14.2658 10
    endloop
  endfacet
  facet normal 0 0 1
    outer loop
      vertex -5.52187 13.9466 10
      vertex -5.52187 -13.9466 10
      vertex -4.63525 -14.2658 10
    endloop
  endfacet
  facet normal -0 0 1
    outer loop
      vertex -6.38669 13.5724 10
      vertex -5.52187 -13.9466 10
      vertex -5.52187 13.9466 10
    endloop
  endfacet
  facet normal 0 0 1
    outer loop
      vertex -6.38669 13.5724 10
      vertex -6.38669 -13.5724 10
      vertex -5.52187 -13.9466 10
    endloop
  endfacet
  facet normal -0 0 1
    outer loop
      vertex -7.22631 13.1446 10
      vertex -6.38669 -13.5724 10
      vertex -6.38669 13.5724 10
    endloop
  endfacet
  facet normal 0 0 1
    outer loop
      vertex -7.22631 13.1446 10
      vertex -7.22631 -13.1446 10
      vertex -6.38669 -13.5724 10
    endloop
  endfacet
  facet normal -0 0 1
    outer loop
      vertex -8.0374 12.6649 10
      vertex -7.22631 -13.1446 10
      vertex -7.22631 13.1446 10
    endloop
  endfacet
  facet normal 0 0 1
    outer loop
      vertex -8.0374 12.6649 10
      vertex -8.0374 -12.6649 10
      vertex -7.22631 -13.1446 10
    endloop
  endfacet
  facet normal -0 0 1
    outer loop
      vertex -8.81678 12.1353 10
      vertex -8.0374 -12.6649 10
      vertex -8.0374 12.6649 10
    endloop
  endfacet
  facet normal 0 0 1
    outer loop
      vertex -8.81678 12.1353 10
      vertex -8.81678 -12.1353 10
      vertex -8.0374 -12.6649 10
    endloop
  endfacet
  facet normal -0 0 1
    outer loop
      vertex -9.56136 11.5577 10
      vertex -8.81678 -12.1353 10
      vertex -8.81678 12.1353 10
    endloop
  endfacet
  facet normal 0 0 1
    outer loop
      vertex -9.56136 11.5577 10
      vertex -9.56136 -11.5577 10
      vertex -8.81678 -12.1353 10
    endloop
  endfacet
  facet normal -0 0 1
    outer loop
      vertex -10.2682 10.9345 10
      vertex -9.56136 -11.5577 10
      vertex -9.56136 11.5577 10
    endloop
  endfacet
  facet normal 0 0 1
    outer loop
      vertex -10.2682 10.9345 10
      vertex -10.2682 -10.9345 10
      vertex -9.56136 -11.5577 10
    endloop
  endfacet
  facet normal -0 0 1
    outer loop
      vertex -10.9345 10.2682 10
      vertex -10.2682 -10.9345 10
      vertex -10.2682 10.9345 10
    endloop
  endfacet
  facet normal 0 0 1
    outer loop
      vertex -10.9345 10.2682 10
      vertex -10.9345 -10.2682 10
      vertex -10.2682 -10.9345 10
    endloop
  endfacet
  facet normal -0 0 1
    outer loop
      vertex -11.5577 9.56136 10
      vertex -10.9345 -10.2682 10
      vertex -10.9345 10.2682 10
    endloop
  endfacet
  facet normal 0 0 1
    outer loop
      vertex -11.5577 9.56136 10
      vertex -11.5577 -9.56136 10
      vertex -10.9345 -10.2682 10
    endloop
  endfacet
  facet normal -0 0 1
    outer loop
      vertex -12.1353 8.81678 10
      vertex -11.5577 -9.56136 10
      vertex -11.5577 9.56136 10
    endloop
  endfacet
  facet normal 0 0 1
    outer loop
      vertex -12.1353 8.81678 10
      vertex -12.1353 -8.81678 10
      vertex -11.5577 -9.56136 10
    endloop
  endfacet
  facet normal -0 0 1
    outer loop
      vertex -12.6649 8.0374 10
      vertex -12.1353 -8.81678 10
      vertex -12.1353 8.81678 10
    endloop
  endfacet
  facet normal 0 0 1
    outer loop
      vertex -12.6649 8.0374 10
      vertex -12.6649 -8.0374 10
      vertex -12.1353 -8.81678 10
    endloop
  endfacet
  facet normal -0 0 1
    outer loop
      vertex -13.1446 7.22631 10
      vertex -12.6649 -8.0374 10
      vertex -12.6649 8.0374 10
    endloop
  endfacet
  facet normal 0 0 1
    outer loop
      vertex -13.1446 7.22631 10
      vertex -13.1446 -7.22631 10
      vertex -12.6649 -8.0374 10
    endloop
  endfacet
  facet normal -0 0 1
    outer loop
      vertex -13.5724 6.38669 10
      vertex -13.1446 -7.22631 10
      vertex -13.1446 7.22631 10
    endloop
  endfacet
  facet normal 0 0 1
    outer loop
      vertex -13.5724 6.38669 10
      vertex -13.5724 -6.38669 10
      vertex -13.1446 -7.22631 10
    endloop
  endfacet
  facet normal -0 0 1
    outer loop
      vertex -13.9466 5.52187 10
      vertex -13.5724 -6.38669 10
      vertex -13.5724 6.38669 10
    endloop
  endfacet
  facet normal 0 0 1
    outer loop
      vertex -13.9466 5.52187 10
      vertex -13.9466 -5.52187 10
      vertex -13.5724 -6.38669 10
    endloop
  endfacet
  facet normal -0 0 1
    outer loop
      vertex -14.2658 4.63525 10
      vertex -13.9466 -5.52187 10
      vertex -13.9466 5.52187 10
    endloop
  endfacet
  facet normal 0 0 1
    outer loop
      vertex -14.2658 4.63525 10
      vertex -14.2658 -4.63525 10
      vertex -13.9466 -5.52187 10
    endloop
  endfacet
  facet normal -0 0 1
    outer loop
      vertex -14.5287 3.73035 10
      vertex -14.2658 -4.63525 10
      vertex -14.2658 4.63525 10
    endloop
  endfacet
  facet normal 0 0 1
    outer loop
      vertex -14.5287 3.73035 10
      vertex -14.5287 -3.73035 10
      vertex -14.2658 -4.63525 10
    endloop
  endfacet
  facet normal -0 0 1
    outer loop
      vertex -14.7343 2.81072 10
      vertex -14.5287 -3.73035 10
      vertex -14.5287 3.73035 10
    endloop
  endfacet
  facet normal 0 0 1
    outer loop
      vertex -14.7343 2.81072 10
      vertex -14.7343 -2.81072 10
      vertex -14.5287 -3.73035 10
    endloop
  endfacet
  facet normal -0 0 1
    outer loop
      vertex -14.8817 1.88 10
      vertex -14.7343 -2.81072 10
      vertex -14.7343 2.81072 10
    endloop
  endfacet
  facet normal 0 0 1
    outer loop
      vertex -14.8817 1.88 10
      vertex -14.8817 -1.88 10
      vertex -14.7343 -2.81072 10
    endloop
  endfacet
  facet normal -0 0 1
    outer loop
      vertex -14.9704 0.941858 10
      vertex -14.8817 -1.88 10
      vertex -14.8817 1.88 10
    endloop
  endfacet
  facet normal 0 0 1
    outer loop
      vertex -14.9704 0.941858 10
      vertex -14.9704 -0.941858 10
      vertex -14.8817 -1.88 10
    endloop
  endfacet
  facet normal 0 -0 1
    outer loop
      vertex -14.9704 -0.941858 10
      vertex -14.9704 0.941858 10
      vertex -15 0 10
    endloop
  endfacet
endsolid OpenSCAD_Model
