solid OpenSCAD_Model
  facet normal 0.999507 0.0314117 0
    outer loop
      vertex 60 0 10
      vertex 59.9704 0.941858 -10
      vertex 59.9704 0.941858 10
    endloop
  endfacet
  facet normal 0.999507 0.0314117 0
    outer loop
      vertex 59.9704 0.941858 -10
      vertex 60 0 10
      vertex 60 0 -10
    endloop
  endfacet
  facet normal 0.99556 0.0941288 0
    outer loop
      vertex 59.9704 0.941858 10
      vertex 59.8817 1.88 -10
      vertex 59.8817 1.88 10
    endloop
  endfacet
  facet normal 0.99556 0.0941288 0
    outer loop
      vertex 59.8817 1.88 -10
      vertex 59.9704 0.941858 10
      vertex 59.9704 0.941858 -10
    endloop
  endfacet
  facet normal 0.98769 0.156422 0
    outer loop
      vertex 59.8817 1.88 10
      vertex 59.7343 2.81072 -10
      vertex 59.7343 2.81072 10
    endloop
  endfacet
  facet normal 0.98769 0.156422 0
    outer loop
      vertex 59.7343 2.81072 -10
      vertex 59.8817 1.88 10
      vertex 59.8817 1.88 -10
    endloop
  endfacet
  facet normal 0.975908 0.218182 0
    outer loop
      vertex 59.7343 2.81072 10
      vertex 59.5287 3.73035 -10
      vertex 59.5287 3.73035 10
    endloop
  endfacet
  facet normal 0.975908 0.218182 0
    outer loop
      vertex 59.5287 3.73035 -10
      vertex 59.7343 2.81072 10
      vertex 59.7343 2.81072 -10
    endloop
  endfacet
  facet normal 0.960293 0.278993 0
    outer loop
      vertex 59.5287 3.73035 10
      vertex 59.2658 4.63525 -10
      vertex 59.2658 4.63525 10
    endloop
  endfacet
  facet normal 0.960293 0.278993 0
    outer loop
      vertex 59.2658 4.63525 -10
      vertex 59.5287 3.73035 10
      vertex 59.5287 3.73035 -10
    endloop
  endfacet
  facet normal 0.940882 0.338735 0
    outer loop
      vertex 59.2658 4.63525 10
      vertex 58.9466 5.52187 -10
      vertex 58.9466 5.52187 10
    endloop
  endfacet
  facet normal 0.940882 0.338735 0
    outer loop
      vertex 58.9466 5.52187 -10
      vertex 59.2658 4.63525 10
      vertex 59.2658 4.63525 -10
    endloop
  endfacet
  facet normal 0.91777 0.397111 0
    outer loop
      vertex 58.9466 5.52187 10
      vertex 58.5724 6.38669 -10
      vertex 58.5724 6.38669 10
    endloop
  endfacet
  facet normal 0.91777 0.397111 0
    outer loop
      vertex 58.5724 6.38669 -10
      vertex 58.9466 5.52187 10
      vertex 58.9466 5.52187 -10
    endloop
  endfacet
  facet normal 0.89101 0.453984 0
    outer loop
      vertex 58.5724 6.38669 10
      vertex 58.1446 7.22631 -10
      vertex 58.1446 7.22631 10
    endloop
  endfacet
  facet normal 0.89101 0.453984 0
    outer loop
      vertex 58.1446 7.22631 -10
      vertex 58.5724 6.38669 10
      vertex 58.5724 6.38669 -10
    endloop
  endfacet
  facet normal 0.860731 0.509059 0
    outer loop
      vertex 58.1446 7.22631 10
      vertex 57.6649 8.0374 -10
      vertex 57.6649 8.0374 10
    endloop
  endfacet
  facet normal 0.860731 0.509059 0
    outer loop
      vertex 57.6649 8.0374 -10
      vertex 58.1446 7.22631 10
      vertex 58.1446 7.22631 -10
    endloop
  endfacet
  facet normal 0.827113 0.562035 0
    outer loop
      vertex 57.6649 8.0374 10
      vertex 57.1353 8.81678 -10
      vertex 57.1353 8.81678 10
    endloop
  endfacet
  facet normal 0.827113 0.562035 0
    outer loop
      vertex 57.1353 8.81678 -10
      vertex 57.6649 8.0374 10
      vertex 57.6649 8.0374 -10
    endloop
  endfacet
  facet normal 0.790132 0.612937 0
    outer loop
      vertex 57.1353 8.81678 10
      vertex 56.5577 9.56136 -10
      vertex 56.5577 9.56136 10
    endloop
  endfacet
  facet normal 0.790132 0.612937 0
    outer loop
      vertex 56.5577 9.56136 -10
      vertex 57.1353 8.81678 10
      vertex 57.1353 8.81678 -10
    endloop
  endfacet
  facet normal 0.750092 0.661334 0
    outer loop
      vertex 56.5577 9.56136 10
      vertex 55.9345 10.2682 -10
      vertex 55.9345 10.2682 10
    endloop
  endfacet
  facet normal 0.750092 0.661334 0
    outer loop
      vertex 55.9345 10.2682 -10
      vertex 56.5577 9.56136 10
      vertex 56.5577 9.56136 -10
    endloop
  endfacet
  facet normal 0.707107 0.707107 0
    outer loop
      vertex 55.9345 10.2682 10
      vertex 55.2682 10.9345 -10
      vertex 55.2682 10.9345 10
    endloop
  endfacet
  facet normal 0.707107 0.707107 0
    outer loop
      vertex 55.2682 10.9345 -10
      vertex 55.9345 10.2682 10
      vertex 55.9345 10.2682 -10
    endloop
  endfacet
  facet normal 0.661355 0.750073 -0
    outer loop
      vertex 55.2682 10.9345 -10
      vertex 54.5614 11.5577 10
      vertex 55.2682 10.9345 10
    endloop
  endfacet
  facet normal 0.661355 0.750073 0
    outer loop
      vertex 54.5614 11.5577 10
      vertex 55.2682 10.9345 -10
      vertex 54.5614 11.5577 -10
    endloop
  endfacet
  facet normal 0.612926 0.79014 -0
    outer loop
      vertex 54.5614 11.5577 -10
      vertex 53.8168 12.1353 10
      vertex 54.5614 11.5577 10
    endloop
  endfacet
  facet normal 0.612926 0.79014 0
    outer loop
      vertex 53.8168 12.1353 10
      vertex 54.5614 11.5577 -10
      vertex 53.8168 12.1353 -10
    endloop
  endfacet
  facet normal 0.562026 0.82712 -0
    outer loop
      vertex 53.8168 12.1353 -10
      vertex 53.0374 12.6649 10
      vertex 53.8168 12.1353 10
    endloop
  endfacet
  facet normal 0.562026 0.82712 0
    outer loop
      vertex 53.0374 12.6649 10
      vertex 53.8168 12.1353 -10
      vertex 53.0374 12.6649 -10
    endloop
  endfacet
  facet normal 0.509055 0.860734 -0
    outer loop
      vertex 53.0374 12.6649 -10
      vertex 52.2263 13.1446 10
      vertex 53.0374 12.6649 10
    endloop
  endfacet
  facet normal 0.509055 0.860734 0
    outer loop
      vertex 52.2263 13.1446 10
      vertex 53.0374 12.6649 -10
      vertex 52.2263 13.1446 -10
    endloop
  endfacet
  facet normal 0.453993 0.891005 -0
    outer loop
      vertex 52.2263 13.1446 -10
      vertex 51.3867 13.5724 10
      vertex 52.2263 13.1446 10
    endloop
  endfacet
  facet normal 0.453993 0.891005 0
    outer loop
      vertex 51.3867 13.5724 10
      vertex 52.2263 13.1446 -10
      vertex 51.3867 13.5724 -10
    endloop
  endfacet
  facet normal 0.397119 0.917767 -0
    outer loop
      vertex 51.3867 13.5724 -10
      vertex 50.5219 13.9466 10
      vertex 51.3867 13.5724 10
    endloop
  endfacet
  facet normal 0.397119 0.917767 0
    outer loop
      vertex 50.5219 13.9466 10
      vertex 51.3867 13.5724 -10
      vertex 50.5219 13.9466 -10
    endloop
  endfacet
  facet normal 0.338742 0.940879 -0
    outer loop
      vertex 50.5219 13.9466 -10
      vertex 49.6353 14.2658 10
      vertex 50.5219 13.9466 10
    endloop
  endfacet
  facet normal 0.338742 0.940879 0
    outer loop
      vertex 49.6353 14.2658 10
      vertex 50.5219 13.9466 -10
      vertex 49.6353 14.2658 -10
    endloop
  endfacet
  facet normal 0.278965 0.960301 -0
    outer loop
      vertex 49.6353 14.2658 -10
      vertex 48.7303 14.5287 10
      vertex 49.6353 14.2658 10
    endloop
  endfacet
  facet normal 0.278965 0.960301 0
    outer loop
      vertex 48.7303 14.5287 10
      vertex 49.6353 14.2658 -10
      vertex 48.7303 14.5287 -10
    endloop
  endfacet
  facet normal 0.218189 0.975907 -0
    outer loop
      vertex 48.7303 14.5287 -10
      vertex 47.8107 14.7343 10
      vertex 48.7303 14.5287 10
    endloop
  endfacet
  facet normal 0.218189 0.975907 0
    outer loop
      vertex 47.8107 14.7343 10
      vertex 48.7303 14.5287 -10
      vertex 47.8107 14.7343 -10
    endloop
  endfacet
  facet normal 0.156426 0.98769 -0
    outer loop
      vertex 47.8107 14.7343 -10
      vertex 46.88 14.8817 10
      vertex 47.8107 14.7343 10
    endloop
  endfacet
  facet normal 0.156426 0.98769 0
    outer loop
      vertex 46.88 14.8817 10
      vertex 47.8107 14.7343 -10
      vertex 46.88 14.8817 -10
    endloop
  endfacet
  facet normal 0.094133 0.99556 -0
    outer loop
      vertex 46.88 14.8817 -10
      vertex 45.9419 14.9704 10
      vertex 46.88 14.8817 10
    endloop
  endfacet
  facet normal 0.094133 0.99556 0
    outer loop
      vertex 45.9419 14.9704 10
      vertex 46.88 14.8817 -10
      vertex 45.9419 14.9704 -10
    endloop
  endfacet
  facet normal 0.0314103 0.999507 -0
    outer loop
      vertex 45.9419 14.9704 -10
      vertex 45 15 10
      vertex 45.9419 14.9704 10
    endloop
  endfacet
  facet normal 0.0314103 0.999507 0
    outer loop
      vertex 45 15 10
      vertex 45.9419 14.9704 -10
      vertex 45 15 -10
    endloop
  endfacet
  facet normal -0.0314103 0.999507 0
    outer loop
      vertex 45 15 -10
      vertex 44.0581 14.9704 10
      vertex 45 15 10
    endloop
  endfacet
  facet normal -0.0314103 0.999507 0
    outer loop
      vertex 44.0581 14.9704 10
      vertex 45 15 -10
      vertex 44.0581 14.9704 -10
    endloop
  endfacet
  facet normal -0.094133 0.99556 0
    outer loop
      vertex 44.0581 14.9704 -10
      vertex 43.12 14.8817 10
      vertex 44.0581 14.9704 10
    endloop
  endfacet
  facet normal -0.094133 0.99556 0
    outer loop
      vertex 43.12 14.8817 10
      vertex 44.0581 14.9704 -10
      vertex 43.12 14.8817 -10
    endloop
  endfacet
  facet normal -0.156426 0.98769 0
    outer loop
      vertex 43.12 14.8817 -10
      vertex 42.1893 14.7343 10
      vertex 43.12 14.8817 10
    endloop
  endfacet
  facet normal -0.156426 0.98769 0
    outer loop
      vertex 42.1893 14.7343 10
      vertex 43.12 14.8817 -10
      vertex 42.1893 14.7343 -10
    endloop
  endfacet
  facet normal -0.218189 0.975907 0
    outer loop
      vertex 42.1893 14.7343 -10
      vertex 41.2697 14.5287 10
      vertex 42.1893 14.7343 10
    endloop
  endfacet
  facet normal -0.218189 0.975907 0
    outer loop
      vertex 41.2697 14.5287 10
      vertex 42.1893 14.7343 -10
      vertex 41.2697 14.5287 -10
    endloop
  endfacet
  facet normal -0.278965 0.960301 0
    outer loop
      vertex 41.2697 14.5287 -10
      vertex 40.3647 14.2658 10
      vertex 41.2697 14.5287 10
    endloop
  endfacet
  facet normal -0.278965 0.960301 0
    outer loop
      vertex 40.3647 14.2658 10
      vertex 41.2697 14.5287 -10
      vertex 40.3647 14.2658 -10
    endloop
  endfacet
  facet normal -0.338742 0.940879 0
    outer loop
      vertex 40.3647 14.2658 -10
      vertex 39.4781 13.9466 10
      vertex 40.3647 14.2658 10
    endloop
  endfacet
  facet normal -0.338742 0.940879 0
    outer loop
      vertex 39.4781 13.9466 10
      vertex 40.3647 14.2658 -10
      vertex 39.4781 13.9466 -10
    endloop
  endfacet
  facet normal -0.397119 0.917767 0
    outer loop
      vertex 39.4781 13.9466 -10
      vertex 38.6133 13.5724 10
      vertex 39.4781 13.9466 10
    endloop
  endfacet
  facet normal -0.397119 0.917767 0
    outer loop
      vertex 38.6133 13.5724 10
      vertex 39.4781 13.9466 -10
      vertex 38.6133 13.5724 -10
    endloop
  endfacet
  facet normal -0.453993 0.891005 0
    outer loop
      vertex 38.6133 13.5724 -10
      vertex 37.7737 13.1446 10
      vertex 38.6133 13.5724 10
    endloop
  endfacet
  facet normal -0.453993 0.891005 0
    outer loop
      vertex 37.7737 13.1446 10
      vertex 38.6133 13.5724 -10
      vertex 37.7737 13.1446 -10
    endloop
  endfacet
  facet normal -0.509055 0.860734 0
    outer loop
      vertex 37.7737 13.1446 -10
      vertex 36.9626 12.6649 10
      vertex 37.7737 13.1446 10
    endloop
  endfacet
  facet normal -0.509055 0.860734 0
    outer loop
      vertex 36.9626 12.6649 10
      vertex 37.7737 13.1446 -10
      vertex 36.9626 12.6649 -10
    endloop
  endfacet
  facet normal -0.562026 0.82712 0
    outer loop
      vertex 36.9626 12.6649 -10
      vertex 36.1832 12.1353 10
      vertex 36.9626 12.6649 10
    endloop
  endfacet
  facet normal -0.562026 0.82712 0
    outer loop
      vertex 36.1832 12.1353 10
      vertex 36.9626 12.6649 -10
      vertex 36.1832 12.1353 -10
    endloop
  endfacet
  facet normal -0.612926 0.79014 0
    outer loop
      vertex 36.1832 12.1353 -10
      vertex 35.4386 11.5577 10
      vertex 36.1832 12.1353 10
    endloop
  endfacet
  facet normal -0.612926 0.79014 0
    outer loop
      vertex 35.4386 11.5577 10
      vertex 36.1832 12.1353 -10
      vertex 35.4386 11.5577 -10
    endloop
  endfacet
  facet normal -0.661355 0.750073 0
    outer loop
      vertex 35.4386 11.5577 -10
      vertex 34.7318 10.9345 10
      vertex 35.4386 11.5577 10
    endloop
  endfacet
  facet normal -0.661355 0.750073 0
    outer loop
      vertex 34.7318 10.9345 10
      vertex 35.4386 11.5577 -10
      vertex 34.7318 10.9345 -10
    endloop
  endfacet
  facet normal -0.707107 0.707107 0
    outer loop
      vertex 34.0655 10.2682 -10
      vertex 34.7318 10.9345 10
      vertex 34.7318 10.9345 -10
    endloop
  endfacet
  facet normal -0.707107 0.707107 0
    outer loop
      vertex 34.7318 10.9345 10
      vertex 34.0655 10.2682 -10
      vertex 34.0655 10.2682 10
    endloop
  endfacet
  facet normal -0.750092 0.661334 0
    outer loop
      vertex 33.4423 9.56136 -10
      vertex 34.0655 10.2682 10
      vertex 34.0655 10.2682 -10
    endloop
  endfacet
  facet normal -0.750092 0.661334 0
    outer loop
      vertex 34.0655 10.2682 10
      vertex 33.4423 9.56136 -10
      vertex 33.4423 9.56136 10
    endloop
  endfacet
  facet normal -0.790132 0.612937 0
    outer loop
      vertex 32.8647 8.81678 -10
      vertex 33.4423 9.56136 10
      vertex 33.4423 9.56136 -10
    endloop
  endfacet
  facet normal -0.790132 0.612937 0
    outer loop
      vertex 33.4423 9.56136 10
      vertex 32.8647 8.81678 -10
      vertex 32.8647 8.81678 10
    endloop
  endfacet
  facet normal -0.827113 0.562035 0
    outer loop
      vertex 32.3351 8.0374 -10
      vertex 32.8647 8.81678 10
      vertex 32.8647 8.81678 -10
    endloop
  endfacet
  facet normal -0.827113 0.562035 0
    outer loop
      vertex 32.8647 8.81678 10
      vertex 32.3351 8.0374 -10
      vertex 32.3351 8.0374 10
    endloop
  endfacet
  facet normal -0.860731 0.509059 0
    outer loop
      vertex 31.8554 7.22631 -10
      vertex 32.3351 8.0374 10
      vertex 32.3351 8.0374 -10
    endloop
  endfacet
  facet normal -0.860731 0.509059 0
    outer loop
      vertex 32.3351 8.0374 10
      vertex 31.8554 7.22631 -10
      vertex 31.8554 7.22631 10
    endloop
  endfacet
  facet normal -0.89101 0.453984 0
    outer loop
      vertex 31.4276 6.38669 -10
      vertex 31.8554 7.22631 10
      vertex 31.8554 7.22631 -10
    endloop
  endfacet
  facet normal -0.89101 0.453984 0
    outer loop
      vertex 31.8554 7.22631 10
      vertex 31.4276 6.38669 -10
      vertex 31.4276 6.38669 10
    endloop
  endfacet
  facet normal -0.91777 0.397111 0
    outer loop
      vertex 31.0534 5.52187 -10
      vertex 31.4276 6.38669 10
      vertex 31.4276 6.38669 -10
    endloop
  endfacet
  facet normal -0.91777 0.397111 0
    outer loop
      vertex 31.4276 6.38669 10
      vertex 31.0534 5.52187 -10
      vertex 31.0534 5.52187 10
    endloop
  endfacet
  facet normal -0.940882 0.338735 0
    outer loop
      vertex 30.7342 4.63525 -10
      vertex 31.0534 5.52187 10
      vertex 31.0534 5.52187 -10
    endloop
  endfacet
  facet normal -0.940882 0.338735 0
    outer loop
      vertex 31.0534 5.52187 10
      vertex 30.7342 4.63525 -10
      vertex 30.7342 4.63525 10
    endloop
  endfacet
  facet normal -0.960293 0.278993 0
    outer loop
      vertex 30.4713 3.73035 -10
      vertex 30.7342 4.63525 10
      vertex 30.7342 4.63525 -10
    endloop
  endfacet
  facet normal -0.960293 0.278993 0
    outer loop
      vertex 30.7342 4.63525 10
      vertex 30.4713 3.73035 -10
      vertex 30.4713 3.73035 10
    endloop
  endfacet
  facet normal -0.975908 0.218182 0
    outer loop
      vertex 30.2657 2.81072 -10
      vertex 30.4713 3.73035 10
      vertex 30.4713 3.73035 -10
    endloop
  endfacet
  facet normal -0.975908 0.218182 0
    outer loop
      vertex 30.4713 3.73035 10
      vertex 30.2657 2.81072 -10
      vertex 30.2657 2.81072 10
    endloop
  endfacet
  facet normal -0.98769 0.156422 0
    outer loop
      vertex 30.1183 1.88 -10
      vertex 30.2657 2.81072 10
      vertex 30.2657 2.81072 -10
    endloop
  endfacet
  facet normal -0.98769 0.156422 0
    outer loop
      vertex 30.2657 2.81072 10
      vertex 30.1183 1.88 -10
      vertex 30.1183 1.88 10
    endloop
  endfacet
  facet normal -0.99556 0.0941288 0
    outer loop
      vertex 30.0296 0.941858 -10
      vertex 30.1183 1.88 10
      vertex 30.1183 1.88 -10
    endloop
  endfacet
  facet normal -0.99556 0.0941288 0
    outer loop
      vertex 30.1183 1.88 10
      vertex 30.0296 0.941858 -10
      vertex 30.0296 0.941858 10
    endloop
  endfacet
  facet normal -0.999507 0.0314117 0
    outer loop
      vertex 30 0 -10
      vertex 30.0296 0.941858 10
      vertex 30.0296 0.941858 -10
    endloop
  endfacet
  facet normal -0.999507 0.0314117 0
    outer loop
      vertex 30.0296 0.941858 10
      vertex 30 0 -10
      vertex 30 0 10
    endloop
  endfacet
  facet normal -0.999507 -0.0314117 0
    outer loop
      vertex 30.0296 -0.941858 -10
      vertex 30 0 10
      vertex 30 0 -10
    endloop
  endfacet
  facet normal -0.999507 -0.0314117 0
    outer loop
      vertex 30 0 10
      vertex 30.0296 -0.941858 -10
      vertex 30.0296 -0.941858 10
    endloop
  endfacet
  facet normal -0.99556 -0.0941288 0
    outer loop
      vertex 30.1183 -1.88 -10
      vertex 30.0296 -0.941858 10
      vertex 30.0296 -0.941858 -10
    endloop
  endfacet
  facet normal -0.99556 -0.0941288 0
    outer loop
      vertex 30.0296 -0.941858 10
      vertex 30.1183 -1.88 -10
      vertex 30.1183 -1.88 10
    endloop
  endfacet
  facet normal -0.98769 -0.156422 0
    outer loop
      vertex 30.2657 -2.81072 -10
      vertex 30.1183 -1.88 10
      vertex 30.1183 -1.88 -10
    endloop
  endfacet
  facet normal -0.98769 -0.156422 0
    outer loop
      vertex 30.1183 -1.88 10
      vertex 30.2657 -2.81072 -10
      vertex 30.2657 -2.81072 10
    endloop
  endfacet
  facet normal -0.975908 -0.218182 0
    outer loop
      vertex 30.4713 -3.73035 -10
      vertex 30.2657 -2.81072 10
      vertex 30.2657 -2.81072 -10
    endloop
  endfacet
  facet normal -0.975908 -0.218182 0
    outer loop
      vertex 30.2657 -2.81072 10
      vertex 30.4713 -3.73035 -10
      vertex 30.4713 -3.73035 10
    endloop
  endfacet
  facet normal -0.960293 -0.278993 0
    outer loop
      vertex 30.7342 -4.63525 -10
      vertex 30.4713 -3.73035 10
      vertex 30.4713 -3.73035 -10
    endloop
  endfacet
  facet normal -0.960293 -0.278993 0
    outer loop
      vertex 30.4713 -3.73035 10
      vertex 30.7342 -4.63525 -10
      vertex 30.7342 -4.63525 10
    endloop
  endfacet
  facet normal -0.940882 -0.338735 0
    outer loop
      vertex 31.0534 -5.52187 -10
      vertex 30.7342 -4.63525 10
      vertex 30.7342 -4.63525 -10
    endloop
  endfacet
  facet normal -0.940882 -0.338735 0
    outer loop
      vertex 30.7342 -4.63525 10
      vertex 31.0534 -5.52187 -10
      vertex 31.0534 -5.52187 10
    endloop
  endfacet
  facet normal -0.91777 -0.397111 0
    outer loop
      vertex 31.4276 -6.38669 -10
      vertex 31.0534 -5.52187 10
      vertex 31.0534 -5.52187 -10
    endloop
  endfacet
  facet normal -0.91777 -0.397111 0
    outer loop
      vertex 31.0534 -5.52187 10
      vertex 31.4276 -6.38669 -10
      vertex 31.4276 -6.38669 10
    endloop
  endfacet
  facet normal -0.89101 -0.453984 0
    outer loop
      vertex 31.8554 -7.22631 -10
      vertex 31.4276 -6.38669 10
      vertex 31.4276 -6.38669 -10
    endloop
  endfacet
  facet normal -0.89101 -0.453984 0
    outer loop
      vertex 31.4276 -6.38669 10
      vertex 31.8554 -7.22631 -10
      vertex 31.8554 -7.22631 10
    endloop
  endfacet
  facet normal -0.860731 -0.509059 0
    outer loop
      vertex 32.3351 -8.0374 -10
      vertex 31.8554 -7.22631 10
      vertex 31.8554 -7.22631 -10
    endloop
  endfacet
  facet normal -0.860731 -0.509059 0
    outer loop
      vertex 31.8554 -7.22631 10
      vertex 32.3351 -8.0374 -10
      vertex 32.3351 -8.0374 10
    endloop
  endfacet
  facet normal -0.827113 -0.562035 0
    outer loop
      vertex 32.8647 -8.81678 -10
      vertex 32.3351 -8.0374 10
      vertex 32.3351 -8.0374 -10
    endloop
  endfacet
  facet normal -0.827113 -0.562035 0
    outer loop
      vertex 32.3351 -8.0374 10
      vertex 32.8647 -8.81678 -10
      vertex 32.8647 -8.81678 10
    endloop
  endfacet
  facet normal -0.790132 -0.612937 0
    outer loop
      vertex 33.4423 -9.56136 -10
      vertex 32.8647 -8.81678 10
      vertex 32.8647 -8.81678 -10
    endloop
  endfacet
  facet normal -0.790132 -0.612937 0
    outer loop
      vertex 32.8647 -8.81678 10
      vertex 33.4423 -9.56136 -10
      vertex 33.4423 -9.56136 10
    endloop
  endfacet
  facet normal -0.750092 -0.661334 0
    outer loop
      vertex 34.0655 -10.2682 -10
      vertex 33.4423 -9.56136 10
      vertex 33.4423 -9.56136 -10
    endloop
  endfacet
  facet normal -0.750092 -0.661334 0
    outer loop
      vertex 33.4423 -9.56136 10
      vertex 34.0655 -10.2682 -10
      vertex 34.0655 -10.2682 10
    endloop
  endfacet
  facet normal -0.707107 -0.707107 0
    outer loop
      vertex 34.7318 -10.9345 -10
      vertex 34.0655 -10.2682 10
      vertex 34.0655 -10.2682 -10
    endloop
  endfacet
  facet normal -0.707107 -0.707107 0
    outer loop
      vertex 34.0655 -10.2682 10
      vertex 34.7318 -10.9345 -10
      vertex 34.7318 -10.9345 10
    endloop
  endfacet
  facet normal -0.661355 -0.750073 0
    outer loop
      vertex 34.7318 -10.9345 -10
      vertex 35.4386 -11.5577 10
      vertex 34.7318 -10.9345 10
    endloop
  endfacet
  facet normal -0.661355 -0.750073 -0
    outer loop
      vertex 35.4386 -11.5577 10
      vertex 34.7318 -10.9345 -10
      vertex 35.4386 -11.5577 -10
    endloop
  endfacet
  facet normal -0.612926 -0.79014 0
    outer loop
      vertex 35.4386 -11.5577 -10
      vertex 36.1832 -12.1353 10
      vertex 35.4386 -11.5577 10
    endloop
  endfacet
  facet normal -0.612926 -0.79014 -0
    outer loop
      vertex 36.1832 -12.1353 10
      vertex 35.4386 -11.5577 -10
      vertex 36.1832 -12.1353 -10
    endloop
  endfacet
  facet normal -0.562026 -0.82712 0
    outer loop
      vertex 36.1832 -12.1353 -10
      vertex 36.9626 -12.6649 10
      vertex 36.1832 -12.1353 10
    endloop
  endfacet
  facet normal -0.562026 -0.82712 -0
    outer loop
      vertex 36.9626 -12.6649 10
      vertex 36.1832 -12.1353 -10
      vertex 36.9626 -12.6649 -10
    endloop
  endfacet
  facet normal -0.509055 -0.860734 0
    outer loop
      vertex 36.9626 -12.6649 -10
      vertex 37.7737 -13.1446 10
      vertex 36.9626 -12.6649 10
    endloop
  endfacet
  facet normal -0.509055 -0.860734 -0
    outer loop
      vertex 37.7737 -13.1446 10
      vertex 36.9626 -12.6649 -10
      vertex 37.7737 -13.1446 -10
    endloop
  endfacet
  facet normal -0.453993 -0.891005 0
    outer loop
      vertex 37.7737 -13.1446 -10
      vertex 38.6133 -13.5724 10
      vertex 37.7737 -13.1446 10
    endloop
  endfacet
  facet normal -0.453993 -0.891005 -0
    outer loop
      vertex 38.6133 -13.5724 10
      vertex 37.7737 -13.1446 -10
      vertex 38.6133 -13.5724 -10
    endloop
  endfacet
  facet normal -0.397119 -0.917767 0
    outer loop
      vertex 38.6133 -13.5724 -10
      vertex 39.4781 -13.9466 10
      vertex 38.6133 -13.5724 10
    endloop
  endfacet
  facet normal -0.397119 -0.917767 -0
    outer loop
      vertex 39.4781 -13.9466 10
      vertex 38.6133 -13.5724 -10
      vertex 39.4781 -13.9466 -10
    endloop
  endfacet
  facet normal -0.338742 -0.940879 0
    outer loop
      vertex 39.4781 -13.9466 -10
      vertex 40.3647 -14.2658 10
      vertex 39.4781 -13.9466 10
    endloop
  endfacet
  facet normal -0.338742 -0.940879 -0
    outer loop
      vertex 40.3647 -14.2658 10
      vertex 39.4781 -13.9466 -10
      vertex 40.3647 -14.2658 -10
    endloop
  endfacet
  facet normal -0.278965 -0.960301 0
    outer loop
      vertex 40.3647 -14.2658 -10
      vertex 41.2697 -14.5287 10
      vertex 40.3647 -14.2658 10
    endloop
  endfacet
  facet normal -0.278965 -0.960301 -0
    outer loop
      vertex 41.2697 -14.5287 10
      vertex 40.3647 -14.2658 -10
      vertex 41.2697 -14.5287 -10
    endloop
  endfacet
  facet normal -0.218189 -0.975907 0
    outer loop
      vertex 41.2697 -14.5287 -10
      vertex 42.1893 -14.7343 10
      vertex 41.2697 -14.5287 10
    endloop
  endfacet
  facet normal -0.218189 -0.975907 -0
    outer loop
      vertex 42.1893 -14.7343 10
      vertex 41.2697 -14.5287 -10
      vertex 42.1893 -14.7343 -10
    endloop
  endfacet
  facet normal -0.156426 -0.98769 0
    outer loop
      vertex 42.1893 -14.7343 -10
      vertex 43.12 -14.8817 10
      vertex 42.1893 -14.7343 10
    endloop
  endfacet
  facet normal -0.156426 -0.98769 -0
    outer loop
      vertex 43.12 -14.8817 10
      vertex 42.1893 -14.7343 -10
      vertex 43.12 -14.8817 -10
    endloop
  endfacet
  facet normal -0.094133 -0.99556 0
    outer loop
      vertex 43.12 -14.8817 -10
      vertex 44.0581 -14.9704 10
      vertex 43.12 -14.8817 10
    endloop
  endfacet
  facet normal -0.094133 -0.99556 -0
    outer loop
      vertex 44.0581 -14.9704 10
      vertex 43.12 -14.8817 -10
      vertex 44.0581 -14.9704 -10
    endloop
  endfacet
  facet normal -0.0314103 -0.999507 0
    outer loop
      vertex 44.0581 -14.9704 -10
      vertex 45 -15 10
      vertex 44.0581 -14.9704 10
    endloop
  endfacet
  facet normal -0.0314103 -0.999507 -0
    outer loop
      vertex 45 -15 10
      vertex 44.0581 -14.9704 -10
      vertex 45 -15 -10
    endloop
  endfacet
  facet normal 0.0314103 -0.999507 0
    outer loop
      vertex 45 -15 -10
      vertex 45.9419 -14.9704 10
      vertex 45 -15 10
    endloop
  endfacet
  facet normal 0.0314103 -0.999507 0
    outer loop
      vertex 45.9419 -14.9704 10
      vertex 45 -15 -10
      vertex 45.9419 -14.9704 -10
    endloop
  endfacet
  facet normal 0.094133 -0.99556 0
    outer loop
      vertex 45.9419 -14.9704 -10
      vertex 46.88 -14.8817 10
      vertex 45.9419 -14.9704 10
    endloop
  endfacet
  facet normal 0.094133 -0.99556 0
    outer loop
      vertex 46.88 -14.8817 10
      vertex 45.9419 -14.9704 -10
      vertex 46.88 -14.8817 -10
    endloop
  endfacet
  facet normal 0.156426 -0.98769 0
    outer loop
      vertex 46.88 -14.8817 -10
      vertex 47.8107 -14.7343 10
      vertex 46.88 -14.8817 10
    endloop
  endfacet
  facet normal 0.156426 -0.98769 0
    outer loop
      vertex 47.8107 -14.7343 10
      vertex 46.88 -14.8817 -10
      vertex 47.8107 -14.7343 -10
    endloop
  endfacet
  facet normal 0.218189 -0.975907 0
    outer loop
      vertex 47.8107 -14.7343 -10
      vertex 48.7303 -14.5287 10
      vertex 47.8107 -14.7343 10
    endloop
  endfacet
  facet normal 0.218189 -0.975907 0
    outer loop
      vertex 48.7303 -14.5287 10
      vertex 47.8107 -14.7343 -10
      vertex 48.7303 -14.5287 -10
    endloop
  endfacet
  facet normal 0.278965 -0.960301 0
    outer loop
      vertex 48.7303 -14.5287 -10
      vertex 49.6353 -14.2658 10
      vertex 48.7303 -14.5287 10
    endloop
  endfacet
  facet normal 0.278965 -0.960301 0
    outer loop
      vertex 49.6353 -14.2658 10
      vertex 48.7303 -14.5287 -10
      vertex 49.6353 -14.2658 -10
    endloop
  endfacet
  facet normal 0.338742 -0.940879 0
    outer loop
      vertex 49.6353 -14.2658 -10
      vertex 50.5219 -13.9466 10
      vertex 49.6353 -14.2658 10
    endloop
  endfacet
  facet normal 0.338742 -0.940879 0
    outer loop
      vertex 50.5219 -13.9466 10
      vertex 49.6353 -14.2658 -10
      vertex 50.5219 -13.9466 -10
    endloop
  endfacet
  facet normal 0.397119 -0.917767 0
    outer loop
      vertex 50.5219 -13.9466 -10
      vertex 51.3867 -13.5724 10
      vertex 50.5219 -13.9466 10
    endloop
  endfacet
  facet normal 0.397119 -0.917767 0
    outer loop
      vertex 51.3867 -13.5724 10
      vertex 50.5219 -13.9466 -10
      vertex 51.3867 -13.5724 -10
    endloop
  endfacet
  facet normal 0.453993 -0.891005 0
    outer loop
      vertex 51.3867 -13.5724 -10
      vertex 52.2263 -13.1446 10
      vertex 51.3867 -13.5724 10
    endloop
  endfacet
  facet normal 0.453993 -0.891005 0
    outer loop
      vertex 52.2263 -13.1446 10
      vertex 51.3867 -13.5724 -10
      vertex 52.2263 -13.1446 -10
    endloop
  endfacet
  facet normal 0.509055 -0.860734 0
    outer loop
      vertex 52.2263 -13.1446 -10
      vertex 53.0374 -12.6649 10
      vertex 52.2263 -13.1446 10
    endloop
  endfacet
  facet normal 0.509055 -0.860734 0
    outer loop
      vertex 53.0374 -12.6649 10
      vertex 52.2263 -13.1446 -10
      vertex 53.0374 -12.6649 -10
    endloop
  endfacet
  facet normal 0.562026 -0.82712 0
    outer loop
      vertex 53.0374 -12.6649 -10
      vertex 53.8168 -12.1353 10
      vertex 53.0374 -12.6649 10
    endloop
  endfacet
  facet normal 0.562026 -0.82712 0
    outer loop
      vertex 53.8168 -12.1353 10
      vertex 53.0374 -12.6649 -10
      vertex 53.8168 -12.1353 -10
    endloop
  endfacet
  facet normal 0.612926 -0.79014 0
    outer loop
      vertex 53.8168 -12.1353 -10
      vertex 54.5614 -11.5577 10
      vertex 53.8168 -12.1353 10
    endloop
  endfacet
  facet normal 0.612926 -0.79014 0
    outer loop
      vertex 54.5614 -11.5577 10
      vertex 53.8168 -12.1353 -10
      vertex 54.5614 -11.5577 -10
    endloop
  endfacet
  facet normal 0.661355 -0.750073 0
    outer loop
      vertex 54.5614 -11.5577 -10
      vertex 55.2682 -10.9345 10
      vertex 54.5614 -11.5577 10
    endloop
  endfacet
  facet normal 0.661355 -0.750073 0
    outer loop
      vertex 55.2682 -10.9345 10
      vertex 54.5614 -11.5577 -10
      vertex 55.2682 -10.9345 -10
    endloop
  endfacet
  facet normal 0.707107 -0.707107 0
    outer loop
      vertex 55.2682 -10.9345 10
      vertex 55.9345 -10.2682 -10
      vertex 55.9345 -10.2682 10
    endloop
  endfacet
  facet normal 0.707107 -0.707107 0
    outer loop
      vertex 55.9345 -10.2682 -10
      vertex 55.2682 -10.9345 10
      vertex 55.2682 -10.9345 -10
    endloop
  endfacet
  facet normal 0.750092 -0.661334 0
    outer loop
      vertex 55.9345 -10.2682 10
      vertex 56.5577 -9.56136 -10
      vertex 56.5577 -9.56136 10
    endloop
  endfacet
  facet normal 0.750092 -0.661334 0
    outer loop
      vertex 56.5577 -9.56136 -10
      vertex 55.9345 -10.2682 10
      vertex 55.9345 -10.2682 -10
    endloop
  endfacet
  facet normal 0.790132 -0.612937 0
    outer loop
      vertex 56.5577 -9.56136 10
      vertex 57.1353 -8.81678 -10
      vertex 57.1353 -8.81678 10
    endloop
  endfacet
  facet normal 0.790132 -0.612937 0
    outer loop
      vertex 57.1353 -8.81678 -10
      vertex 56.5577 -9.56136 10
      vertex 56.5577 -9.56136 -10
    endloop
  endfacet
  facet normal 0.827113 -0.562035 0
    outer loop
      vertex 57.1353 -8.81678 10
      vertex 57.6649 -8.0374 -10
      vertex 57.6649 -8.0374 10
    endloop
  endfacet
  facet normal 0.827113 -0.562035 0
    outer loop
      vertex 57.6649 -8.0374 -10
      vertex 57.1353 -8.81678 10
      vertex 57.1353 -8.81678 -10
    endloop
  endfacet
  facet normal 0.860731 -0.509059 0
    outer loop
      vertex 57.6649 -8.0374 10
      vertex 58.1446 -7.22631 -10
      vertex 58.1446 -7.22631 10
    endloop
  endfacet
  facet normal 0.860731 -0.509059 0
    outer loop
      vertex 58.1446 -7.22631 -10
      vertex 57.6649 -8.0374 10
      vertex 57.6649 -8.0374 -10
    endloop
  endfacet
  facet normal 0.89101 -0.453984 0
    outer loop
      vertex 58.1446 -7.22631 10
      vertex 58.5724 -6.38669 -10
      vertex 58.5724 -6.38669 10
    endloop
  endfacet
  facet normal 0.89101 -0.453984 0
    outer loop
      vertex 58.5724 -6.38669 -10
      vertex 58.1446 -7.22631 10
      vertex 58.1446 -7.22631 -10
    endloop
  endfacet
  facet normal 0.91777 -0.397111 0
    outer loop
      vertex 58.5724 -6.38669 10
      vertex 58.9466 -5.52187 -10
      vertex 58.9466 -5.52187 10
    endloop
  endfacet
  facet normal 0.91777 -0.397111 0
    outer loop
      vertex 58.9466 -5.52187 -10
      vertex 58.5724 -6.38669 10
      vertex 58.5724 -6.38669 -10
    endloop
  endfacet
  facet normal 0.940882 -0.338735 0
    outer loop
      vertex 58.9466 -5.52187 10
      vertex 59.2658 -4.63525 -10
      vertex 59.2658 -4.63525 10
    endloop
  endfacet
  facet normal 0.940882 -0.338735 0
    outer loop
      vertex 59.2658 -4.63525 -10
      vertex 58.9466 -5.52187 10
      vertex 58.9466 -5.52187 -10
    endloop
  endfacet
  facet normal 0.960293 -0.278993 0
    outer loop
      vertex 59.2658 -4.63525 10
      vertex 59.5287 -3.73035 -10
      vertex 59.5287 -3.73035 10
    endloop
  endfacet
  facet normal 0.960293 -0.278993 0
    outer loop
      vertex 59.5287 -3.73035 -10
      vertex 59.2658 -4.63525 10
      vertex 59.2658 -4.63525 -10
    endloop
  endfacet
  facet normal 0.975908 -0.218182 0
    outer loop
      vertex 59.5287 -3.73035 10
      vertex 59.7343 -2.81072 -10
      vertex 59.7343 -2.81072 10
    endloop
  endfacet
  facet normal 0.975908 -0.218182 0
    outer loop
      vertex 59.7343 -2.81072 -10
      vertex 59.5287 -3.73035 10
      vertex 59.5287 -3.73035 -10
    endloop
  endfacet
  facet normal 0.98769 -0.156422 0
    outer loop
      vertex 59.7343 -2.81072 10
      vertex 59.8817 -1.88 -10
      vertex 59.8817 -1.88 10
    endloop
  endfacet
  facet normal 0.98769 -0.156422 0
    outer loop
      vertex 59.8817 -1.88 -10
      vertex 59.7343 -2.81072 10
      vertex 59.7343 -2.81072 -10
    endloop
  endfacet
  facet normal 0.99556 -0.0941288 0
    outer loop
      vertex 59.8817 -1.88 10
      vertex 59.9704 -0.941858 -10
      vertex 59.9704 -0.941858 10
    endloop
  endfacet
  facet normal 0.99556 -0.0941288 0
    outer loop
      vertex 59.9704 -0.941858 -10
      vertex 59.8817 -1.88 10
      vertex 59.8817 -1.88 -10
    endloop
  endfacet
  facet normal 0.999507 -0.0314117 0
    outer loop
      vertex 59.9704 -0.941858 10
      vertex 60 0 -10
      vertex 60 0 10
    endloop
  endfacet
  facet normal 0.999507 -0.0314117 0
    outer loop
      vertex 60 0 -10
      vertex 59.9704 -0.941858 10
      vertex 59.9704 -0.941858 -10
    endloop
  endfacet
  facet normal 0 0 -1
    outer loop
      vertex 59.9704 -0.941858 -10
      vertex 59.9704 0.941858 -10
      vertex 60 0 -10
    endloop
  endfacet
  facet normal 0 0 -1
    outer loop
      vertex 59.8817 -1.88 -10
      vertex 59.9704 0.941858 -10
      vertex 59.9704 -0.941858 -10
    endloop
  endfacet
  facet normal 0 0 -1
    outer loop
      vertex 59.8817 -1.88 -10
      vertex 59.8817 1.88 -10
      vertex 59.9704 0.941858 -10
    endloop
  endfacet
  facet normal 0 0 -1
    outer loop
      vertex 59.7343 -2.81072 -10
      vertex 59.8817 1.88 -10
      vertex 59.8817 -1.88 -10
    endloop
  endfacet
  facet normal 0 0 -1
    outer loop
      vertex 59.7343 -2.81072 -10
      vertex 59.7343 2.81072 -10
      vertex 59.8817 1.88 -10
    endloop
  endfacet
  facet normal 0 0 -1
    outer loop
      vertex 59.5287 -3.73035 -10
      vertex 59.7343 2.81072 -10
      vertex 59.7343 -2.81072 -10
    endloop
  endfacet
  facet normal 0 0 -1
    outer loop
      vertex 59.5287 -3.73035 -10
      vertex 59.5287 3.73035 -10
      vertex 59.7343 2.81072 -10
    endloop
  endfacet
  facet normal 0 0 -1
    outer loop
      vertex 59.2658 -4.63525 -10
      vertex 59.5287 3.73035 -10
      vertex 59.5287 -3.73035 -10
    endloop
  endfacet
  facet normal 0 0 -1
    outer loop
      vertex 59.2658 -4.63525 -10
      vertex 59.2658 4.63525 -10
      vertex 59.5287 3.73035 -10
    endloop
  endfacet
  facet normal 0 0 -1
    outer loop
      vertex 58.9466 -5.52187 -10
      vertex 59.2658 4.63525 -10
      vertex 59.2658 -4.63525 -10
    endloop
  endfacet
  facet normal 0 0 -1
    outer loop
      vertex 58.9466 -5.52187 -10
      vertex 58.9466 5.52187 -10
      vertex 59.2658 4.63525 -10
    endloop
  endfacet
  facet normal 0 0 -1
    outer loop
      vertex 58.5724 -6.38669 -10
      vertex 58.9466 5.52187 -10
      vertex 58.9466 -5.52187 -10
    endloop
  endfacet
  facet normal 0 0 -1
    outer loop
      vertex 58.5724 -6.38669 -10
      vertex 58.5724 6.38669 -10
      vertex 58.9466 5.52187 -10
    endloop
  endfacet
  facet normal 0 0 -1
    outer loop
      vertex 58.1446 -7.22631 -10
      vertex 58.5724 6.38669 -10
      vertex 58.5724 -6.38669 -10
    endloop
  endfacet
  facet normal 0 0 -1
    outer loop
      vertex 58.1446 -7.22631 -10
      vertex 58.1446 7.22631 -10
      vertex 58.5724 6.38669 -10
    endloop
  endfacet
  facet normal 0 0 -1
    outer loop
      vertex 57.6649 -8.0374 -10
      vertex 58.1446 7.22631 -10
      vertex 58.1446 -7.22631 -10
    endloop
  endfacet
  facet normal 0 0 -1
    outer loop
      vertex 57.6649 -8.0374 -10
      vertex 57.6649 8.0374 -10
      vertex 58.1446 7.22631 -10
    endloop
  endfacet
  facet normal 0 0 -1
    outer loop
      vertex 57.1353 -8.81678 -10
      vertex 57.6649 8.0374 -10
      vertex 57.6649 -8.0374 -10
    endloop
  endfacet
  facet normal 0 0 -1
    outer loop
      vertex 57.1353 -8.81678 -10
      vertex 57.1353 8.81678 -10
      vertex 57.6649 8.0374 -10
    endloop
  endfacet
  facet normal 0 0 -1
    outer loop
      vertex 56.5577 -9.56136 -10
      vertex 57.1353 8.81678 -10
      vertex 57.1353 -8.81678 -10
    endloop
  endfacet
  facet normal 0 0 -1
    outer loop
      vertex 56.5577 -9.56136 -10
      vertex 56.5577 9.56136 -10
      vertex 57.1353 8.81678 -10
    endloop
  endfacet
  facet normal 0 0 -1
    outer loop
      vertex 55.9345 -10.2682 -10
      vertex 56.5577 9.56136 -10
      vertex 56.5577 -9.56136 -10
    endloop
  endfacet
  facet normal 0 0 -1
    outer loop
      vertex 55.9345 -10.2682 -10
      vertex 55.9345 10.2682 -10
      vertex 56.5577 9.56136 -10
    endloop
  endfacet
  facet normal 0 0 -1
    outer loop
      vertex 55.2682 -10.9345 -10
      vertex 55.9345 10.2682 -10
      vertex 55.9345 -10.2682 -10
    endloop
  endfacet
  facet normal 0 0 -1
    outer loop
      vertex 55.2682 -10.9345 -10
      vertex 55.2682 10.9345 -10
      vertex 55.9345 10.2682 -10
    endloop
  endfacet
  facet normal 0 0 -1
    outer loop
      vertex 54.5614 -11.5577 -10
      vertex 55.2682 10.9345 -10
      vertex 55.2682 -10.9345 -10
    endloop
  endfacet
  facet normal 0 0 -1
    outer loop
      vertex 54.5614 -11.5577 -10
      vertex 54.5614 11.5577 -10
      vertex 55.2682 10.9345 -10
    endloop
  endfacet
  facet normal 0 0 -1
    outer loop
      vertex 53.8168 -12.1353 -10
      vertex 54.5614 11.5577 -10
      vertex 54.5614 -11.5577 -10
    endloop
  endfacet
  facet normal 0 0 -1
    outer loop
      vertex 53.8168 -12.1353 -10
      vertex 53.8168 12.1353 -10
      vertex 54.5614 11.5577 -10
    endloop
  endfacet
  facet normal 0 0 -1
    outer loop
      vertex 53.0374 -12.6649 -10
      vertex 53.8168 12.1353 -10
      vertex 53.8168 -12.1353 -10
    endloop
  endfacet
  facet normal 0 0 -1
    outer loop
      vertex 53.0374 -12.6649 -10
      vertex 53.0374 12.6649 -10
      vertex 53.8168 12.1353 -10
    endloop
  endfacet
  facet normal 0 0 -1
    outer loop
      vertex 52.2263 -13.1446 -10
      vertex 53.0374 12.6649 -10
      vertex 53.0374 -12.6649 -10
    endloop
  endfacet
  facet normal 0 0 -1
    outer loop
      vertex 52.2263 -13.1446 -10
      vertex 52.2263 13.1446 -10
      vertex 53.0374 12.6649 -10
    endloop
  endfacet
  facet normal 0 0 -1
    outer loop
      vertex 51.3867 -13.5724 -10
      vertex 52.2263 13.1446 -10
      vertex 52.2263 -13.1446 -10
    endloop
  endfacet
  facet normal 0 0 -1
    outer loop
      vertex 51.3867 -13.5724 -10
      vertex 51.3867 13.5724 -10
      vertex 52.2263 13.1446 -10
    endloop
  endfacet
  facet normal 0 0 -1
    outer loop
      vertex 50.5219 -13.9466 -10
      vertex 51.3867 13.5724 -10
      vertex 51.3867 -13.5724 -10
    endloop
  endfacet
  facet normal 0 0 -1
    outer loop
      vertex 50.5219 -13.9466 -10
      vertex 50.5219 13.9466 -10
      vertex 51.3867 13.5724 -10
    endloop
  endfacet
  facet normal 0 0 -1
    outer loop
      vertex 49.6353 -14.2658 -10
      vertex 50.5219 13.9466 -10
      vertex 50.5219 -13.9466 -10
    endloop
  endfacet
  facet normal 0 0 -1
    outer loop
      vertex 49.6353 -14.2658 -10
      vertex 49.6353 14.2658 -10
      vertex 50.5219 13.9466 -10
    endloop
  endfacet
  facet normal 0 0 -1
    outer loop
      vertex 48.7303 -14.5287 -10
      vertex 49.6353 14.2658 -10
      vertex 49.6353 -14.2658 -10
    endloop
  endfacet
  facet normal 0 0 -1
    outer loop
      vertex 48.7303 -14.5287 -10
      vertex 48.7303 14.5287 -10
      vertex 49.6353 14.2658 -10
    endloop
  endfacet
  facet normal 0 0 -1
    outer loop
      vertex 47.8107 -14.7343 -10
      vertex 48.7303 14.5287 -10
      vertex 48.7303 -14.5287 -10
    endloop
  endfacet
  facet normal 0 0 -1
    outer loop
      vertex 47.8107 -14.7343 -10
      vertex 47.8107 14.7343 -10
      vertex 48.7303 14.5287 -10
    endloop
  endfacet
  facet normal 0 0 -1
    outer loop
      vertex 46.88 -14.8817 -10
      vertex 47.8107 14.7343 -10
      vertex 47.8107 -14.7343 -10
    endloop
  endfacet
  facet normal 0 0 -1
    outer loop
      vertex 46.88 -14.8817 -10
      vertex 46.88 14.8817 -10
      vertex 47.8107 14.7343 -10
    endloop
  endfacet
  facet normal 0 0 -1
    outer loop
      vertex 45.9419 -14.9704 -10
      vertex 46.88 14.8817 -10
      vertex 46.88 -14.8817 -10
    endloop
  endfacet
  facet normal 0 0 -1
    outer loop
      vertex 45.9419 -14.9704 -10
      vertex 45.9419 14.9704 -10
      vertex 46.88 14.8817 -10
    endloop
  endfacet
  facet normal 0 0 -1
    outer loop
      vertex 45 -15 -10
      vertex 45.9419 14.9704 -10
      vertex 45.9419 -14.9704 -10
    endloop
  endfacet
  facet normal 0 0 -1
    outer loop
      vertex 45 -15 -10
      vertex 45 15 -10
      vertex 45.9419 14.9704 -10
    endloop
  endfacet
  facet normal 0 0 -1
    outer loop
      vertex 44.0581 -14.9704 -10
      vertex 45 15 -10
      vertex 45 -15 -10
    endloop
  endfacet
  facet normal 0 0 -1
    outer loop
      vertex 44.0581 -14.9704 -10
      vertex 44.0581 14.9704 -10
      vertex 45 15 -10
    endloop
  endfacet
  facet normal 0 0 -1
    outer loop
      vertex 43.12 -14.8817 -10
      vertex 44.0581 14.9704 -10
      vertex 44.0581 -14.9704 -10
    endloop
  endfacet
  facet normal 0 0 -1
    outer loop
      vertex 43.12 -14.8817 -10
      vertex 43.12 14.8817 -10
      vertex 44.0581 14.9704 -10
    endloop
  endfacet
  facet normal 0 0 -1
    outer loop
      vertex 42.1893 -14.7343 -10
      vertex 43.12 14.8817 -10
      vertex 43.12 -14.8817 -10
    endloop
  endfacet
  facet normal 0 0 -1
    outer loop
      vertex 42.1893 -14.7343 -10
      vertex 42.1893 14.7343 -10
      vertex 43.12 14.8817 -10
    endloop
  endfacet
  facet normal 0 0 -1
    outer loop
      vertex 41.2697 -14.5287 -10
      vertex 42.1893 14.7343 -10
      vertex 42.1893 -14.7343 -10
    endloop
  endfacet
  facet normal 0 0 -1
    outer loop
      vertex 41.2697 -14.5287 -10
      vertex 41.2697 14.5287 -10
      vertex 42.1893 14.7343 -10
    endloop
  endfacet
  facet normal 0 0 -1
    outer loop
      vertex 40.3647 -14.2658 -10
      vertex 41.2697 14.5287 -10
      vertex 41.2697 -14.5287 -10
    endloop
  endfacet
  facet normal 0 0 -1
    outer loop
      vertex 40.3647 -14.2658 -10
      vertex 40.3647 14.2658 -10
      vertex 41.2697 14.5287 -10
    endloop
  endfacet
  facet normal 0 0 -1
    outer loop
      vertex 39.4781 -13.9466 -10
      vertex 40.3647 14.2658 -10
      vertex 40.3647 -14.2658 -10
    endloop
  endfacet
  facet normal 0 0 -1
    outer loop
      vertex 39.4781 -13.9466 -10
      vertex 39.4781 13.9466 -10
      vertex 40.3647 14.2658 -10
    endloop
  endfacet
  facet normal 0 0 -1
    outer loop
      vertex 38.6133 -13.5724 -10
      vertex 39.4781 13.9466 -10
      vertex 39.4781 -13.9466 -10
    endloop
  endfacet
  facet normal 0 0 -1
    outer loop
      vertex 38.6133 -13.5724 -10
      vertex 38.6133 13.5724 -10
      vertex 39.4781 13.9466 -10
    endloop
  endfacet
  facet normal 0 0 -1
    outer loop
      vertex 37.7737 -13.1446 -10
      vertex 38.6133 13.5724 -10
      vertex 38.6133 -13.5724 -10
    endloop
  endfacet
  facet normal 0 0 -1
    outer loop
      vertex 37.7737 -13.1446 -10
      vertex 37.7737 13.1446 -10
      vertex 38.6133 13.5724 -10
    endloop
  endfacet
  facet normal 0 0 -1
    outer loop
      vertex 36.9626 -12.6649 -10
      vertex 37.7737 13.1446 -10
      vertex 37.7737 -13.1446 -10
    endloop
  endfacet
  facet normal 0 0 -1
    outer loop
      vertex 36.9626 -12.6649 -10
      vertex 36.9626 12.6649 -10
      vertex 37.7737 13.1446 -10
    endloop
  endfacet
  facet normal 0 0 -1
    outer loop
      vertex 36.1832 -12.1353 -10
      vertex 36.9626 12.6649 -10
      vertex 36.9626 -12.6649 -10
    endloop
  endfacet
  facet normal 0 0 -1
    outer loop
      vertex 36.1832 -12.1353 -10
      vertex 36.1832 12.1353 -10
      vertex 36.9626 12.6649 -10
    endloop
  endfacet
  facet normal 0 0 -1
    outer loop
      vertex 35.4386 -11.5577 -10
      vertex 36.1832 12.1353 -10
      vertex 36.1832 -12.1353 -10
    endloop
  endfacet
  facet normal 0 0 -1
    outer loop
      vertex 35.4386 -11.5577 -10
      vertex 35.4386 11.5577 -10
      vertex 36.1832 12.1353 -10
    endloop
  endfacet
  facet normal 0 0 -1
    outer loop
      vertex 34.7318 -10.9345 -10
      vertex 35.4386 11.5577 -10
      vertex 35.4386 -11.5577 -10
    endloop
  endfacet
  facet normal 0 0 -1
    outer loop
      vertex 34.7318 -10.9345 -10
      vertex 34.7318 10.9345 -10
      vertex 35.4386 11.5577 -10
    endloop
  endfacet
  facet normal 0 0 -1
    outer loop
      vertex 34.0655 -10.2682 -10
      vertex 34.7318 10.9345 -10
      vertex 34.7318 -10.9345 -10
    endloop
  endfacet
  facet normal 0 0 -1
    outer loop
      vertex 34.0655 -10.2682 -10
      vertex 34.0655 10.2682 -10
      vertex 34.7318 10.9345 -10
    endloop
  endfacet
  facet normal 0 0 -1
    outer loop
      vertex 33.4423 -9.56136 -10
      vertex 34.0655 10.2682 -10
      vertex 34.0655 -10.2682 -10
    endloop
  endfacet
  facet normal 0 0 -1
    outer loop
      vertex 33.4423 -9.56136 -10
      vertex 33.4423 9.56136 -10
      vertex 34.0655 10.2682 -10
    endloop
  endfacet
  facet normal 0 0 -1
    outer loop
      vertex 32.8647 -8.81678 -10
      vertex 33.4423 9.56136 -10
      vertex 33.4423 -9.56136 -10
    endloop
  endfacet
  facet normal 0 0 -1
    outer loop
      vertex 32.8647 -8.81678 -10
      vertex 32.8647 8.81678 -10
      vertex 33.4423 9.56136 -10
    endloop
  endfacet
  facet normal 0 0 -1
    outer loop
      vertex 32.3351 -8.0374 -10
      vertex 32.8647 8.81678 -10
      vertex 32.8647 -8.81678 -10
    endloop
  endfacet
  facet normal 0 0 -1
    outer loop
      vertex 32.3351 -8.0374 -10
      vertex 32.3351 8.0374 -10
      vertex 32.8647 8.81678 -10
    endloop
  endfacet
  facet normal 0 0 -1
    outer loop
      vertex 31.8554 -7.22631 -10
      vertex 32.3351 8.0374 -10
      vertex 32.3351 -8.0374 -10
    endloop
  endfacet
  facet normal 0 0 -1
    outer loop
      vertex 31.8554 -7.22631 -10
      vertex 31.8554 7.22631 -10
      vertex 32.3351 8.0374 -10
    endloop
  endfacet
  facet normal 0 0 -1
    outer loop
      vertex 31.4276 -6.38669 -10
      vertex 31.8554 7.22631 -10
      vertex 31.8554 -7.22631 -10
    endloop
  endfacet
  facet normal 0 0 -1
    outer loop
      vertex 31.4276 -6.38669 -10
      vertex 31.4276 6.38669 -10
      vertex 31.8554 7.22631 -10
    endloop
  endfacet
  facet normal 0 0 -1
    outer loop
      vertex 31.0534 -5.52187 -10
      vertex 31.4276 6.38669 -10
      vertex 31.4276 -6.38669 -10
    endloop
  endfacet
  facet normal 0 0 -1
    outer loop
      vertex 31.0534 -5.52187 -10
      vertex 31.0534 5.52187 -10
      vertex 31.4276 6.38669 -10
    endloop
  endfacet
  facet normal 0 0 -1
    outer loop
      vertex 30.7342 -4.63525 -10
      vertex 31.0534 5.52187 -10
      vertex 31.0534 -5.52187 -10
    endloop
  endfacet
  facet normal 0 0 -1
    outer loop
      vertex 30.7342 -4.63525 -10
      vertex 30.7342 4.63525 -10
      vertex 31.0534 5.52187 -10
    endloop
  endfacet
  facet normal 0 0 -1
    outer loop
      vertex 30.4713 -3.73035 -10
      vertex 30.7342 4.63525 -10
      vertex 30.7342 -4.63525 -10
    endloop
  endfacet
  facet normal 0 0 -1
    outer loop
      vertex 30.4713 -3.73035 -10
      vertex 30.4713 3.73035 -10
      vertex 30.7342 4.63525 -10
    endloop
  endfacet
  facet normal 0 0 -1
    outer loop
      vertex 30.2657 -2.81072 -10
      vertex 30.4713 3.73035 -10
      vertex 30.4713 -3.73035 -10
    endloop
  endfacet
  facet normal 0 0 -1
    outer loop
      vertex 30.2657 -2.81072 -10
      vertex 30.2657 2.81072 -10
      vertex 30.4713 3.73035 -10
    endloop
  endfacet
  facet normal 0 0 -1
    outer loop
      vertex 30.1183 -1.88 -10
      vertex 30.2657 2.81072 -10
      vertex 30.2657 -2.81072 -10
    endloop
  endfacet
  facet normal 0 0 -1
    outer loop
      vertex 30.1183 -1.88 -10
      vertex 30.1183 1.88 -10
      vertex 30.2657 2.81072 -10
    endloop
  endfacet
  facet normal 0 0 -1
    outer loop
      vertex 30.0296 -0.941858 -10
      vertex 30.1183 1.88 -10
      vertex 30.1183 -1.88 -10
    endloop
  endfacet
  facet normal 0 0 -1
    outer loop
      vertex 30.0296 -0.941858 -10
      vertex 30.0296 0.941858 -10
      vertex 30.1183 1.88 -10
    endloop
  endfacet
  facet normal 0 -0 -1
    outer loop
      vertex 30.0296 0.941858 -10
      vertex 30.0296 -0.941858 -10
      vertex 30 0 -10
    endloop
  endfacet
  facet normal 0 0 1
    outer loop
      vertex 59.9704 0.941858 10
      vertex 59.9704 -0.941858 10
      vertex 60 0 10
    endloop
  endfacet
  facet normal 0 0 1
    outer loop
      vertex 59.8817 1.88 10
      vertex 59.9704 -0.941858 10
      vertex 59.9704 0.941858 10
    endloop
  endfacet
  facet normal 0 0 1
    outer loop
      vertex 59.8817 1.88 10
      vertex 59.8817 -1.88 10
      vertex 59.9704 -0.941858 10
    endloop
  endfacet
  facet normal 0 0 1
    outer loop
      vertex 59.7343 2.81072 10
      vertex 59.8817 -1.88 10
      vertex 59.8817 1.88 10
    endloop
  endfacet
  facet normal 0 0 1
    outer loop
      vertex 59.7343 2.81072 10
      vertex 59.7343 -2.81072 10
      vertex 59.8817 -1.88 10
    endloop
  endfacet
  facet normal 0 0 1
    outer loop
      vertex 59.5287 3.73035 10
      vertex 59.7343 -2.81072 10
      vertex 59.7343 2.81072 10
    endloop
  endfacet
  facet normal 0 0 1
    outer loop
      vertex 59.5287 3.73035 10
      vertex 59.5287 -3.73035 10
      vertex 59.7343 -2.81072 10
    endloop
  endfacet
  facet normal 0 0 1
    outer loop
      vertex 59.2658 4.63525 10
      vertex 59.5287 -3.73035 10
      vertex 59.5287 3.73035 10
    endloop
  endfacet
  facet normal 0 0 1
    outer loop
      vertex 59.2658 4.63525 10
      vertex 59.2658 -4.63525 10
      vertex 59.5287 -3.73035 10
    endloop
  endfacet
  facet normal 0 0 1
    outer loop
      vertex 58.9466 5.52187 10
      vertex 59.2658 -4.63525 10
      vertex 59.2658 4.63525 10
    endloop
  endfacet
  facet normal 0 0 1
    outer loop
      vertex 58.9466 5.52187 10
      vertex 58.9466 -5.52187 10
      vertex 59.2658 -4.63525 10
    endloop
  endfacet
  facet normal 0 0 1
    outer loop
      vertex 58.5724 6.38669 10
      vertex 58.9466 -5.52187 10
      vertex 58.9466 5.52187 10
    endloop
  endfacet
  facet normal 0 0 1
    outer loop
      vertex 58.5724 6.38669 10
      vertex 58.5724 -6.38669 10
      vertex 58.9466 -5.52187 10
    endloop
  endfacet
  facet normal 0 0 1
    outer loop
      vertex 58.1446 7.22631 10
      vertex 58.5724 -6.38669 10
      vertex 58.5724 6.38669 10
    endloop
  endfacet
  facet normal 0 0 1
    outer loop
      vertex 58.1446 7.22631 10
      vertex 58.1446 -7.22631 10
      vertex 58.5724 -6.38669 10
    endloop
  endfacet
  facet normal 0 0 1
    outer loop
      vertex 57.6649 8.0374 10
      vertex 58.1446 -7.22631 10
      vertex 58.1446 7.22631 10
    endloop
  endfacet
  facet normal 0 0 1
    outer loop
      vertex 57.6649 8.0374 10
      vertex 57.6649 -8.0374 10
      vertex 58.1446 -7.22631 10
    endloop
  endfacet
  facet normal 0 0 1
    outer loop
      vertex 57.1353 8.81678 10
      vertex 57.6649 -8.0374 10
      vertex 57.6649 8.0374 10
    endloop
  endfacet
  facet normal 0 0 1
    outer loop
      vertex 57.1353 8.81678 10
      vertex 57.1353 -8.81678 10
      vertex 57.6649 -8.0374 10
    endloop
  endfacet
  facet normal 0 0 1
    outer loop
      vertex 56.5577 9.56136 10
      vertex 57.1353 -8.81678 10
      vertex 57.1353 8.81678 10
    endloop
  endfacet
  facet normal 0 0 1
    outer loop
      vertex 56.5577 9.56136 10
      vertex 56.5577 -9.56136 10
      vertex 57.1353 -8.81678 10
    endloop
  endfacet
  facet normal 0 0 1
    outer loop
      vertex 55.9345 10.2682 10
      vertex 56.5577 -9.56136 10
      vertex 56.5577 9.56136 10
    endloop
  endfacet
  facet normal 0 0 1
    outer loop
      vertex 55.9345 10.2682 10
      vertex 55.9345 -10.2682 10
      vertex 56.5577 -9.56136 10
    endloop
  endfacet
  facet normal 0 0 1
    outer loop
      vertex 55.2682 10.9345 10
      vertex 55.9345 -10.2682 10
      vertex 55.9345 10.2682 10
    endloop
  endfacet
  facet normal 0 0 1
    outer loop
      vertex 55.2682 10.9345 10
      vertex 55.2682 -10.9345 10
      vertex 55.9345 -10.2682 10
    endloop
  endfacet
  facet normal 0 0 1
    outer loop
      vertex 54.5614 11.5577 10
      vertex 55.2682 -10.9345 10
      vertex 55.2682 10.9345 10
    endloop
  endfacet
  facet normal 0 0 1
    outer loop
      vertex 54.5614 11.5577 10
      vertex 54.5614 -11.5577 10
      vertex 55.2682 -10.9345 10
    endloop
  endfacet
  facet normal 0 0 1
    outer loop
      vertex 53.8168 12.1353 10
      vertex 54.5614 -11.5577 10
      vertex 54.5614 11.5577 10
    endloop
  endfacet
  facet normal 0 0 1
    outer loop
      vertex 53.8168 12.1353 10
      vertex 53.8168 -12.1353 10
      vertex 54.5614 -11.5577 10
    endloop
  endfacet
  facet normal 0 0 1
    outer loop
      vertex 53.0374 12.6649 10
      vertex 53.8168 -12.1353 10
      vertex 53.8168 12.1353 10
    endloop
  endfacet
  facet normal 0 0 1
    outer loop
      vertex 53.0374 12.6649 10
      vertex 53.0374 -12.6649 10
      vertex 53.8168 -12.1353 10
    endloop
  endfacet
  facet normal 0 0 1
    outer loop
      vertex 52.2263 13.1446 10
      vertex 53.0374 -12.6649 10
      vertex 53.0374 12.6649 10
    endloop
  endfacet
  facet normal 0 0 1
    outer loop
      vertex 52.2263 13.1446 10
      vertex 52.2263 -13.1446 10
      vertex 53.0374 -12.6649 10
    endloop
  endfacet
  facet normal 0 0 1
    outer loop
      vertex 51.3867 13.5724 10
      vertex 52.2263 -13.1446 10
      vertex 52.2263 13.1446 10
    endloop
  endfacet
  facet normal 0 0 1
    outer loop
      vertex 51.3867 13.5724 10
      vertex 51.3867 -13.5724 10
      vertex 52.2263 -13.1446 10
    endloop
  endfacet
  facet normal 0 0 1
    outer loop
      vertex 50.5219 13.9466 10
      vertex 51.3867 -13.5724 10
      vertex 51.3867 13.5724 10
    endloop
  endfacet
  facet normal 0 0 1
    outer loop
      vertex 50.5219 13.9466 10
      vertex 50.5219 -13.9466 10
      vertex 51.3867 -13.5724 10
    endloop
  endfacet
  facet normal 0 0 1
    outer loop
      vertex 49.6353 14.2658 10
      vertex 50.5219 -13.9466 10
      vertex 50.5219 13.9466 10
    endloop
  endfacet
  facet normal 0 0 1
    outer loop
      vertex 49.6353 14.2658 10
      vertex 49.6353 -14.2658 10
      vertex 50.5219 -13.9466 10
    endloop
  endfacet
  facet normal 0 0 1
    outer loop
      vertex 48.7303 14.5287 10
      vertex 49.6353 -14.2658 10
      vertex 49.6353 14.2658 10
    endloop
  endfacet
  facet normal 0 0 1
    outer loop
      vertex 48.7303 14.5287 10
      vertex 48.7303 -14.5287 10
      vertex 49.6353 -14.2658 10
    endloop
  endfacet
  facet normal 0 0 1
    outer loop
      vertex 47.8107 14.7343 10
      vertex 48.7303 -14.5287 10
      vertex 48.7303 14.5287 10
    endloop
  endfacet
  facet normal 0 0 1
    outer loop
      vertex 47.8107 14.7343 10
      vertex 47.8107 -14.7343 10
      vertex 48.7303 -14.5287 10
    endloop
  endfacet
  facet normal 0 0 1
    outer loop
      vertex 46.88 14.8817 10
      vertex 47.8107 -14.7343 10
      vertex 47.8107 14.7343 10
    endloop
  endfacet
  facet normal 0 0 1
    outer loop
      vertex 46.88 14.8817 10
      vertex 46.88 -14.8817 10
      vertex 47.8107 -14.7343 10
    endloop
  endfacet
  facet normal 0 0 1
    outer loop
      vertex 45.9419 14.9704 10
      vertex 46.88 -14.8817 10
      vertex 46.88 14.8817 10
    endloop
  endfacet
  facet normal 0 0 1
    outer loop
      vertex 45.9419 14.9704 10
      vertex 45.9419 -14.9704 10
      vertex 46.88 -14.8817 10
    endloop
  endfacet
  facet normal 0 0 1
    outer loop
      vertex 45 15 10
      vertex 45.9419 -14.9704 10
      vertex 45.9419 14.9704 10
    endloop
  endfacet
  facet normal 0 0 1
    outer loop
      vertex 45 15 10
      vertex 45 -15 10
      vertex 45.9419 -14.9704 10
    endloop
  endfacet
  facet normal -0 0 1
    outer loop
      vertex 44.0581 14.9704 10
      vertex 45 -15 10
      vertex 45 15 10
    endloop
  endfacet
  facet normal 0 0 1
    outer loop
      vertex 44.0581 14.9704 10
      vertex 44.0581 -14.9704 10
      vertex 45 -15 10
    endloop
  endfacet
  facet normal -0 0 1
    outer loop
      vertex 43.12 14.8817 10
      vertex 44.0581 -14.9704 10
      vertex 44.0581 14.9704 10
    endloop
  endfacet
  facet normal 0 0 1
    outer loop
      vertex 43.12 14.8817 10
      vertex 43.12 -14.8817 10
      vertex 44.0581 -14.9704 10
    endloop
  endfacet
  facet normal -0 0 1
    outer loop
      vertex 42.1893 14.7343 10
      vertex 43.12 -14.8817 10
      vertex 43.12 14.8817 10
    endloop
  endfacet
  facet normal 0 0 1
    outer loop
      vertex 42.1893 14.7343 10
      vertex 42.1893 -14.7343 10
      vertex 43.12 -14.8817 10
    endloop
  endfacet
  facet normal -0 0 1
    outer loop
      vertex 41.2697 14.5287 10
      vertex 42.1893 -14.7343 10
      vertex 42.1893 14.7343 10
    endloop
  endfacet
  facet normal 0 0 1
    outer loop
      vertex 41.2697 14.5287 10
      vertex 41.2697 -14.5287 10
      vertex 42.1893 -14.7343 10
    endloop
  endfacet
  facet normal -0 0 1
    outer loop
      vertex 40.3647 14.2658 10
      vertex 41.2697 -14.5287 10
      vertex 41.2697 14.5287 10
    endloop
  endfacet
  facet normal 0 0 1
    outer loop
      vertex 40.3647 14.2658 10
      vertex 40.3647 -14.2658 10
      vertex 41.2697 -14.5287 10
    endloop
  endfacet
  facet normal -0 0 1
    outer loop
      vertex 39.4781 13.9466 10
      vertex 40.3647 -14.2658 10
      vertex 40.3647 14.2658 10
    endloop
  endfacet
  facet normal 0 0 1
    outer loop
      vertex 39.4781 13.9466 10
      vertex 39.4781 -13.9466 10
      vertex 40.3647 -14.2658 10
    endloop
  endfacet
  facet normal -0 0 1
    outer loop
      vertex 38.6133 13.5724 10
      vertex 39.4781 -13.9466 10
      vertex 39.4781 13.9466 10
    endloop
  endfacet
  facet normal 0 0 1
    outer loop
      vertex 38.6133 13.5724 10
      vertex 38.6133 -13.5724 10
      vertex 39.4781 -13.9466 10
    endloop
  endfacet
  facet normal -0 0 1
    outer loop
      vertex 37.7737 13.1446 10
      vertex 38.6133 -13.5724 10
      vertex 38.6133 13.5724 10
    endloop
  endfacet
  facet normal 0 0 1
    outer loop
      vertex 37.7737 13.1446 10
      vertex 37.7737 -13.1446 10
      vertex 38.6133 -13.5724 10
    endloop
  endfacet
  facet normal -0 0 1
    outer loop
      vertex 36.9626 12.6649 10
      vertex 37.7737 -13.1446 10
      vertex 37.7737 13.1446 10
    endloop
  endfacet
  facet normal 0 0 1
    outer loop
      vertex 36.9626 12.6649 10
      vertex 36.9626 -12.6649 10
      vertex 37.7737 -13.1446 10
    endloop
  endfacet
  facet normal -0 0 1
    outer loop
      vertex 36.1832 12.1353 10
      vertex 36.9626 -12.6649 10
      vertex 36.9626 12.6649 10
    endloop
  endfacet
  facet normal 0 0 1
    outer loop
      vertex 36.1832 12.1353 10
      vertex 36.1832 -12.1353 10
      vertex 36.9626 -12.6649 10
    endloop
  endfacet
  facet normal -0 0 1
    outer loop
      vertex 35.4386 11.5577 10
      vertex 36.1832 -12.1353 10
      vertex 36.1832 12.1353 10
    endloop
  endfacet
  facet normal 0 0 1
    outer loop
      vertex 35.4386 11.5577 10
      vertex 35.4386 -11.5577 10
      vertex 36.1832 -12.1353 10
    endloop
  endfacet
  facet normal -0 0 1
    outer loop
      vertex 34.7318 10.9345 10
      vertex 35.4386 -11.5577 10
      vertex 35.4386 11.5577 10
    endloop
  endfacet
  facet normal 0 0 1
    outer loop
      vertex 34.7318 10.9345 10
      vertex 34.7318 -10.9345 10
      vertex 35.4386 -11.5577 10
    endloop
  endfacet
  facet normal -0 0 1
    outer loop
      vertex 34.0655 10.2682 10
      vertex 34.7318 -10.9345 10
      vertex 34.7318 10.9345 10
    endloop
  endfacet
  facet normal 0 0 1
    outer loop
      vertex 34.0655 10.2682 10
      vertex 34.0655 -10.2682 10
      vertex 34.7318 -10.9345 10
    endloop
  endfacet
  facet normal -0 0 1
    outer loop
      vertex 33.4423 9.56136 10
      vertex 34.0655 -10.2682 10
      vertex 34.0655 10.2682 10
    endloop
  endfacet
  facet normal 0 0 1
    outer loop
      vertex 33.4423 9.56136 10
      vertex 33.4423 -9.56136 10
      vertex 34.0655 -10.2682 10
    endloop
  endfacet
  facet normal -0 0 1
    outer loop
      vertex 32.8647 8.81678 10
      vertex 33.4423 -9.56136 10
      vertex 33.4423 9.56136 10
    endloop
  endfacet
  facet normal 0 0 1
    outer loop
      vertex 32.8647 8.81678 10
      vertex 32.8647 -8.81678 10
      vertex 33.4423 -9.56136 10
    endloop
  endfacet
  facet normal -0 0 1
    outer loop
      vertex 32.3351 8.0374 10
      vertex 32.8647 -8.81678 10
      vertex 32.8647 8.81678 10
    endloop
  endfacet
  facet normal 0 0 1
    outer loop
      vertex 32.3351 8.0374 10
      vertex 32.3351 -8.0374 10
      vertex 32.8647 -8.81678 10
    endloop
  endfacet
  facet normal -0 0 1
    outer loop
      vertex 31.8554 7.22631 10
      vertex 32.3351 -8.0374 10
      vertex 32.3351 8.0374 10
    endloop
  endfacet
  facet normal 0 0 1
    outer loop
      vertex 31.8554 7.22631 10
      vertex 31.8554 -7.22631 10
      vertex 32.3351 -8.0374 10
    endloop
  endfacet
  facet normal -0 0 1
    outer loop
      vertex 31.4276 6.38669 10
      vertex 31.8554 -7.22631 10
      vertex 31.8554 7.22631 10
    endloop
  endfacet
  facet normal 0 0 1
    outer loop
      vertex 31.4276 6.38669 10
      vertex 31.4276 -6.38669 10
      vertex 31.8554 -7.22631 10
    endloop
  endfacet
  facet normal -0 0 1
    outer loop
      vertex 31.0534 5.52187 10
      vertex 31.4276 -6.38669 10
      vertex 31.4276 6.38669 10
    endloop
  endfacet
  facet normal 0 0 1
    outer loop
      vertex 31.0534 5.52187 10
      vertex 31.0534 -5.52187 10
      vertex 31.4276 -6.38669 10
    endloop
  endfacet
  facet normal -0 0 1
    outer loop
      vertex 30.7342 4.63525 10
      vertex 31.0534 -5.52187 10
      vertex 31.0534 5.52187 10
    endloop
  endfacet
  facet normal 0 0 1
    outer loop
      vertex 30.7342 4.63525 10
      vertex 30.7342 -4.63525 10
      vertex 31.0534 -5.52187 10
    endloop
  endfacet
  facet normal -0 0 1
    outer loop
      vertex 30.4713 3.73035 10
      vertex 30.7342 -4.63525 10
      vertex 30.7342 4.63525 10
    endloop
  endfacet
  facet normal 0 0 1
    outer loop
      vertex 30.4713 3.73035 10
      vertex 30.4713 -3.73035 10
      vertex 30.7342 -4.63525 10
    endloop
  endfacet
  facet normal -0 0 1
    outer loop
      vertex 30.2657 2.81072 10
      vertex 30.4713 -3.73035 10
      vertex 30.4713 3.73035 10
    endloop
  endfacet
  facet normal 0 0 1
    outer loop
      vertex 30.2657 2.81072 10
      vertex 30.2657 -2.81072 10
      vertex 30.4713 -3.73035 10
    endloop
  endfacet
  facet normal -0 0 1
    outer loop
      vertex 30.1183 1.88 10
      vertex 30.2657 -2.81072 10
      vertex 30.2657 2.81072 10
    endloop
  endfacet
  facet normal 0 0 1
    outer loop
      vertex 30.1183 1.88 10
      vertex 30.1183 -1.88 10
      vertex 30.2657 -2.81072 10
    endloop
  endfacet
  facet normal -0 0 1
    outer loop
      vertex 30.0296 0.941858 10
      vertex 30.1183 -1.88 10
      vertex 30.1183 1.88 10
    endloop
  endfacet
  facet normal 0 0 1
    outer loop
      vertex 30.0296 0.941858 10
      vertex 30.0296 -0.941858 10
      vertex 30.1183 -1.88 10
    endloop
  endfacet
  facet normal 0 -0 1
    outer loop
      vertex 30.0296 -0.941858 10
      vertex 30.0296 0.941858 10
      vertex 30 0 10
    endloop
  endfacet
endsolid OpenSCAD_Model
