solid OpenSCAD_Model
  facet normal 0.999493 0.0318358 0
    outer loop
      vertex 105 0 10
      vertex 104.97 0.941858 -10
      vertex 104.97 0.941858 10
    endloop
  endfacet
  facet normal 0.999493 0.0318358 0
    outer loop
      vertex 104.97 0.941858 -10
      vertex 105 0 10
      vertex 105 0 -10
    endloop
  endfacet
  facet normal 0.995629 0.0933925 0
    outer loop
      vertex 104.97 0.941858 10
      vertex 104.882 1.88 -10
      vertex 104.882 1.88 10
    endloop
  endfacet
  facet normal 0.995629 0.0933925 0
    outer loop
      vertex 104.882 1.88 -10
      vertex 104.97 0.941858 10
      vertex 104.97 0.941858 -10
    endloop
  endfacet
  facet normal 0.987592 0.157044 0
    outer loop
      vertex 104.882 1.88 10
      vertex 104.734 2.81072 -10
      vertex 104.734 2.81072 10
    endloop
  endfacet
  facet normal 0.987592 0.157044 0
    outer loop
      vertex 104.734 2.81072 -10
      vertex 104.882 1.88 10
      vertex 104.882 1.88 -10
    endloop
  endfacet
  facet normal 0.976044 0.217575 0
    outer loop
      vertex 104.734 2.81072 10
      vertex 104.529 3.73035 -10
      vertex 104.529 3.73035 10
    endloop
  endfacet
  facet normal 0.976044 0.217575 0
    outer loop
      vertex 104.529 3.73035 -10
      vertex 104.734 2.81072 10
      vertex 104.734 2.81072 -10
    endloop
  endfacet
  facet normal 0.960265 0.279091 0
    outer loop
      vertex 104.529 3.73035 10
      vertex 104.266 4.63525 -10
      vertex 104.266 4.63525 10
    endloop
  endfacet
  facet normal 0.960265 0.279091 0
    outer loop
      vertex 104.266 4.63525 -10
      vertex 104.529 3.73035 10
      vertex 104.529 3.73035 -10
    endloop
  endfacet
  facet normal 0.940949 0.338547 0
    outer loop
      vertex 104.266 4.63525 10
      vertex 103.947 5.52187 -10
      vertex 103.947 5.52187 10
    endloop
  endfacet
  facet normal 0.940949 0.338547 0
    outer loop
      vertex 103.947 5.52187 -10
      vertex 104.266 4.63525 10
      vertex 104.266 4.63525 -10
    endloop
  endfacet
  facet normal 0.917461 0.397826 0
    outer loop
      vertex 103.947 5.52187 10
      vertex 103.572 6.38669 -10
      vertex 103.572 6.38669 10
    endloop
  endfacet
  facet normal 0.917461 0.397826 0
    outer loop
      vertex 103.572 6.38669 -10
      vertex 103.947 5.52187 10
      vertex 103.947 5.52187 -10
    endloop
  endfacet
  facet normal 0.891353 0.45331 0
    outer loop
      vertex 103.572 6.38669 10
      vertex 103.145 7.22631 -10
      vertex 103.145 7.22631 10
    endloop
  endfacet
  facet normal 0.891353 0.45331 0
    outer loop
      vertex 103.145 7.22631 -10
      vertex 103.572 6.38669 10
      vertex 103.572 6.38669 -10
    endloop
  endfacet
  facet normal 0.860592 0.509295 0
    outer loop
      vertex 103.145 7.22631 10
      vertex 102.665 8.0374 -10
      vertex 102.665 8.0374 10
    endloop
  endfacet
  facet normal 0.860592 0.509295 0
    outer loop
      vertex 102.665 8.0374 -10
      vertex 103.145 7.22631 10
      vertex 103.145 7.22631 -10
    endloop
  endfacet
  facet normal 0.826916 0.562326 0
    outer loop
      vertex 102.665 8.0374 10
      vertex 102.135 8.81678 -10
      vertex 102.135 8.81678 10
    endloop
  endfacet
  facet normal 0.826916 0.562326 0
    outer loop
      vertex 102.135 8.81678 -10
      vertex 102.665 8.0374 10
      vertex 102.665 8.0374 -10
    endloop
  endfacet
  facet normal 0.79044 0.612539 0
    outer loop
      vertex 102.135 8.81678 10
      vertex 101.558 9.56136 -10
      vertex 101.558 9.56136 10
    endloop
  endfacet
  facet normal 0.79044 0.612539 0
    outer loop
      vertex 101.558 9.56136 -10
      vertex 102.135 8.81678 10
      vertex 102.135 8.81678 -10
    endloop
  endfacet
  facet normal 0.750197 0.661214 0
    outer loop
      vertex 101.558 9.56136 10
      vertex 100.935 10.2682 -10
      vertex 100.935 10.2682 10
    endloop
  endfacet
  facet normal 0.750197 0.661214 0
    outer loop
      vertex 100.935 10.2682 -10
      vertex 101.558 9.56136 10
      vertex 101.558 9.56136 -10
    endloop
  endfacet
  facet normal 0.706735 0.707478 -0
    outer loop
      vertex 100.935 10.2682 -10
      vertex 100.268 10.9345 10
      vertex 100.935 10.2682 10
    endloop
  endfacet
  facet normal 0.706735 0.707478 0
    outer loop
      vertex 100.268 10.9345 10
      vertex 100.935 10.2682 -10
      vertex 100.268 10.9345 -10
    endloop
  endfacet
  facet normal 0.66146 0.74998 -0
    outer loop
      vertex 100.268 10.9345 -10
      vertex 99.5614 11.5577 10
      vertex 100.268 10.9345 10
    endloop
  endfacet
  facet normal 0.66146 0.74998 0
    outer loop
      vertex 99.5614 11.5577 10
      vertex 100.268 10.9345 -10
      vertex 99.5614 11.5577 -10
    endloop
  endfacet
  facet normal 0.612926 0.79014 -0
    outer loop
      vertex 99.5614 11.5577 -10
      vertex 98.8168 12.1353 10
      vertex 99.5614 11.5577 10
    endloop
  endfacet
  facet normal 0.612926 0.79014 0
    outer loop
      vertex 98.8168 12.1353 10
      vertex 99.5614 11.5577 -10
      vertex 98.8168 12.1353 -10
    endloop
  endfacet
  facet normal 0.562026 0.82712 -0
    outer loop
      vertex 98.8168 12.1353 -10
      vertex 98.0374 12.6649 10
      vertex 98.8168 12.1353 10
    endloop
  endfacet
  facet normal 0.562026 0.82712 0
    outer loop
      vertex 98.0374 12.6649 10
      vertex 98.8168 12.1353 -10
      vertex 98.0374 12.6649 -10
    endloop
  endfacet
  facet normal 0.509055 0.860734 -0
    outer loop
      vertex 98.0374 12.6649 -10
      vertex 97.2263 13.1446 10
      vertex 98.0374 12.6649 10
    endloop
  endfacet
  facet normal 0.509055 0.860734 0
    outer loop
      vertex 97.2263 13.1446 10
      vertex 98.0374 12.6649 -10
      vertex 97.2263 13.1446 -10
    endloop
  endfacet
  facet normal 0.453993 0.891005 -0
    outer loop
      vertex 97.2263 13.1446 -10
      vertex 96.3867 13.5724 10
      vertex 97.2263 13.1446 10
    endloop
  endfacet
  facet normal 0.453993 0.891005 0
    outer loop
      vertex 96.3867 13.5724 10
      vertex 97.2263 13.1446 -10
      vertex 96.3867 13.5724 -10
    endloop
  endfacet
  facet normal 0.397119 0.917767 -0
    outer loop
      vertex 96.3867 13.5724 -10
      vertex 95.5219 13.9466 10
      vertex 96.3867 13.5724 10
    endloop
  endfacet
  facet normal 0.397119 0.917767 0
    outer loop
      vertex 95.5219 13.9466 10
      vertex 96.3867 13.5724 -10
      vertex 95.5219 13.9466 -10
    endloop
  endfacet
  facet normal 0.338742 0.940879 -0
    outer loop
      vertex 95.5219 13.9466 -10
      vertex 94.6353 14.2658 10
      vertex 95.5219 13.9466 10
    endloop
  endfacet
  facet normal 0.338742 0.940879 0
    outer loop
      vertex 94.6353 14.2658 10
      vertex 95.5219 13.9466 -10
      vertex 94.6353 14.2658 -10
    endloop
  endfacet
  facet normal 0.278965 0.960301 -0
    outer loop
      vertex 94.6353 14.2658 -10
      vertex 93.7303 14.5287 10
      vertex 94.6353 14.2658 10
    endloop
  endfacet
  facet normal 0.278965 0.960301 0
    outer loop
      vertex 93.7303 14.5287 10
      vertex 94.6353 14.2658 -10
      vertex 93.7303 14.5287 -10
    endloop
  endfacet
  facet normal 0.218189 0.975907 -0
    outer loop
      vertex 93.7303 14.5287 -10
      vertex 92.8107 14.7343 10
      vertex 93.7303 14.5287 10
    endloop
  endfacet
  facet normal 0.218189 0.975907 0
    outer loop
      vertex 92.8107 14.7343 10
      vertex 93.7303 14.5287 -10
      vertex 92.8107 14.7343 -10
    endloop
  endfacet
  facet normal 0.156426 0.98769 -0
    outer loop
      vertex 92.8107 14.7343 -10
      vertex 91.88 14.8817 10
      vertex 92.8107 14.7343 10
    endloop
  endfacet
  facet normal 0.156426 0.98769 0
    outer loop
      vertex 91.88 14.8817 10
      vertex 92.8107 14.7343 -10
      vertex 91.88 14.8817 -10
    endloop
  endfacet
  facet normal 0.094133 0.99556 -0
    outer loop
      vertex 91.88 14.8817 -10
      vertex 90.9419 14.9704 10
      vertex 91.88 14.8817 10
    endloop
  endfacet
  facet normal 0.094133 0.99556 0
    outer loop
      vertex 90.9419 14.9704 10
      vertex 91.88 14.8817 -10
      vertex 90.9419 14.9704 -10
    endloop
  endfacet
  facet normal 0.0314103 0.999507 -0
    outer loop
      vertex 90.9419 14.9704 -10
      vertex 90 15 10
      vertex 90.9419 14.9704 10
    endloop
  endfacet
  facet normal 0.0314103 0.999507 0
    outer loop
      vertex 90 15 10
      vertex 90.9419 14.9704 -10
      vertex 90 15 -10
    endloop
  endfacet
  facet normal -0.0314103 0.999507 0
    outer loop
      vertex 90 15 -10
      vertex 89.0581 14.9704 10
      vertex 90 15 10
    endloop
  endfacet
  facet normal -0.0314103 0.999507 0
    outer loop
      vertex 89.0581 14.9704 10
      vertex 90 15 -10
      vertex 89.0581 14.9704 -10
    endloop
  endfacet
  facet normal -0.094133 0.99556 0
    outer loop
      vertex 89.0581 14.9704 -10
      vertex 88.12 14.8817 10
      vertex 89.0581 14.9704 10
    endloop
  endfacet
  facet normal -0.094133 0.99556 0
    outer loop
      vertex 88.12 14.8817 10
      vertex 89.0581 14.9704 -10
      vertex 88.12 14.8817 -10
    endloop
  endfacet
  facet normal -0.156426 0.98769 0
    outer loop
      vertex 88.12 14.8817 -10
      vertex 87.1893 14.7343 10
      vertex 88.12 14.8817 10
    endloop
  endfacet
  facet normal -0.156426 0.98769 0
    outer loop
      vertex 87.1893 14.7343 10
      vertex 88.12 14.8817 -10
      vertex 87.1893 14.7343 -10
    endloop
  endfacet
  facet normal -0.218189 0.975907 0
    outer loop
      vertex 87.1893 14.7343 -10
      vertex 86.2697 14.5287 10
      vertex 87.1893 14.7343 10
    endloop
  endfacet
  facet normal -0.218189 0.975907 0
    outer loop
      vertex 86.2697 14.5287 10
      vertex 87.1893 14.7343 -10
      vertex 86.2697 14.5287 -10
    endloop
  endfacet
  facet normal -0.278965 0.960301 0
    outer loop
      vertex 86.2697 14.5287 -10
      vertex 85.3647 14.2658 10
      vertex 86.2697 14.5287 10
    endloop
  endfacet
  facet normal -0.278965 0.960301 0
    outer loop
      vertex 85.3647 14.2658 10
      vertex 86.2697 14.5287 -10
      vertex 85.3647 14.2658 -10
    endloop
  endfacet
  facet normal -0.338742 0.940879 0
    outer loop
      vertex 85.3647 14.2658 -10
      vertex 84.4781 13.9466 10
      vertex 85.3647 14.2658 10
    endloop
  endfacet
  facet normal -0.338742 0.940879 0
    outer loop
      vertex 84.4781 13.9466 10
      vertex 85.3647 14.2658 -10
      vertex 84.4781 13.9466 -10
    endloop
  endfacet
  facet normal -0.397119 0.917767 0
    outer loop
      vertex 84.4781 13.9466 -10
      vertex 83.6133 13.5724 10
      vertex 84.4781 13.9466 10
    endloop
  endfacet
  facet normal -0.397119 0.917767 0
    outer loop
      vertex 83.6133 13.5724 10
      vertex 84.4781 13.9466 -10
      vertex 83.6133 13.5724 -10
    endloop
  endfacet
  facet normal -0.453993 0.891005 0
    outer loop
      vertex 83.6133 13.5724 -10
      vertex 82.7737 13.1446 10
      vertex 83.6133 13.5724 10
    endloop
  endfacet
  facet normal -0.453993 0.891005 0
    outer loop
      vertex 82.7737 13.1446 10
      vertex 83.6133 13.5724 -10
      vertex 82.7737 13.1446 -10
    endloop
  endfacet
  facet normal -0.509055 0.860734 0
    outer loop
      vertex 82.7737 13.1446 -10
      vertex 81.9626 12.6649 10
      vertex 82.7737 13.1446 10
    endloop
  endfacet
  facet normal -0.509055 0.860734 0
    outer loop
      vertex 81.9626 12.6649 10
      vertex 82.7737 13.1446 -10
      vertex 81.9626 12.6649 -10
    endloop
  endfacet
  facet normal -0.562026 0.82712 0
    outer loop
      vertex 81.9626 12.6649 -10
      vertex 81.1832 12.1353 10
      vertex 81.9626 12.6649 10
    endloop
  endfacet
  facet normal -0.562026 0.82712 0
    outer loop
      vertex 81.1832 12.1353 10
      vertex 81.9626 12.6649 -10
      vertex 81.1832 12.1353 -10
    endloop
  endfacet
  facet normal -0.612926 0.79014 0
    outer loop
      vertex 81.1832 12.1353 -10
      vertex 80.4386 11.5577 10
      vertex 81.1832 12.1353 10
    endloop
  endfacet
  facet normal -0.612926 0.79014 0
    outer loop
      vertex 80.4386 11.5577 10
      vertex 81.1832 12.1353 -10
      vertex 80.4386 11.5577 -10
    endloop
  endfacet
  facet normal -0.661355 0.750073 0
    outer loop
      vertex 80.4386 11.5577 -10
      vertex 79.7318 10.9345 10
      vertex 80.4386 11.5577 10
    endloop
  endfacet
  facet normal -0.661355 0.750073 0
    outer loop
      vertex 79.7318 10.9345 10
      vertex 80.4386 11.5577 -10
      vertex 79.7318 10.9345 -10
    endloop
  endfacet
  facet normal -0.707107 0.707107 0
    outer loop
      vertex 79.7318 10.9345 -10
      vertex 79.0655 10.2682 10
      vertex 79.7318 10.9345 10
    endloop
  endfacet
  facet normal -0.707107 0.707107 0
    outer loop
      vertex 79.0655 10.2682 10
      vertex 79.7318 10.9345 -10
      vertex 79.0655 10.2682 -10
    endloop
  endfacet
  facet normal -0.750092 0.661334 0
    outer loop
      vertex 78.4423 9.56136 -10
      vertex 79.0655 10.2682 10
      vertex 79.0655 10.2682 -10
    endloop
  endfacet
  facet normal -0.750092 0.661334 0
    outer loop
      vertex 79.0655 10.2682 10
      vertex 78.4423 9.56136 -10
      vertex 78.4423 9.56136 10
    endloop
  endfacet
  facet normal -0.790132 0.612937 0
    outer loop
      vertex 77.8647 8.81678 -10
      vertex 78.4423 9.56136 10
      vertex 78.4423 9.56136 -10
    endloop
  endfacet
  facet normal -0.790132 0.612937 0
    outer loop
      vertex 78.4423 9.56136 10
      vertex 77.8647 8.81678 -10
      vertex 77.8647 8.81678 10
    endloop
  endfacet
  facet normal -0.827113 0.562035 0
    outer loop
      vertex 77.3351 8.0374 -10
      vertex 77.8647 8.81678 10
      vertex 77.8647 8.81678 -10
    endloop
  endfacet
  facet normal -0.827113 0.562035 0
    outer loop
      vertex 77.8647 8.81678 10
      vertex 77.3351 8.0374 -10
      vertex 77.3351 8.0374 10
    endloop
  endfacet
  facet normal -0.860731 0.509059 0
    outer loop
      vertex 76.8554 7.22631 -10
      vertex 77.3351 8.0374 10
      vertex 77.3351 8.0374 -10
    endloop
  endfacet
  facet normal -0.860731 0.509059 0
    outer loop
      vertex 77.3351 8.0374 10
      vertex 76.8554 7.22631 -10
      vertex 76.8554 7.22631 10
    endloop
  endfacet
  facet normal -0.89101 0.453984 0
    outer loop
      vertex 76.4276 6.38669 -10
      vertex 76.8554 7.22631 10
      vertex 76.8554 7.22631 -10
    endloop
  endfacet
  facet normal -0.89101 0.453984 0
    outer loop
      vertex 76.8554 7.22631 10
      vertex 76.4276 6.38669 -10
      vertex 76.4276 6.38669 10
    endloop
  endfacet
  facet normal -0.91777 0.397111 0
    outer loop
      vertex 76.0534 5.52187 -10
      vertex 76.4276 6.38669 10
      vertex 76.4276 6.38669 -10
    endloop
  endfacet
  facet normal -0.91777 0.397111 0
    outer loop
      vertex 76.4276 6.38669 10
      vertex 76.0534 5.52187 -10
      vertex 76.0534 5.52187 10
    endloop
  endfacet
  facet normal -0.940882 0.338735 0
    outer loop
      vertex 75.7342 4.63525 -10
      vertex 76.0534 5.52187 10
      vertex 76.0534 5.52187 -10
    endloop
  endfacet
  facet normal -0.940882 0.338735 0
    outer loop
      vertex 76.0534 5.52187 10
      vertex 75.7342 4.63525 -10
      vertex 75.7342 4.63525 10
    endloop
  endfacet
  facet normal -0.960293 0.278993 0
    outer loop
      vertex 75.4713 3.73035 -10
      vertex 75.7342 4.63525 10
      vertex 75.7342 4.63525 -10
    endloop
  endfacet
  facet normal -0.960293 0.278993 0
    outer loop
      vertex 75.7342 4.63525 10
      vertex 75.4713 3.73035 -10
      vertex 75.4713 3.73035 10
    endloop
  endfacet
  facet normal -0.975908 0.218182 0
    outer loop
      vertex 75.2657 2.81072 -10
      vertex 75.4713 3.73035 10
      vertex 75.4713 3.73035 -10
    endloop
  endfacet
  facet normal -0.975908 0.218182 0
    outer loop
      vertex 75.4713 3.73035 10
      vertex 75.2657 2.81072 -10
      vertex 75.2657 2.81072 10
    endloop
  endfacet
  facet normal -0.98769 0.156422 0
    outer loop
      vertex 75.1183 1.88 -10
      vertex 75.2657 2.81072 10
      vertex 75.2657 2.81072 -10
    endloop
  endfacet
  facet normal -0.98769 0.156422 0
    outer loop
      vertex 75.2657 2.81072 10
      vertex 75.1183 1.88 -10
      vertex 75.1183 1.88 10
    endloop
  endfacet
  facet normal -0.99556 0.0941288 0
    outer loop
      vertex 75.0296 0.941858 -10
      vertex 75.1183 1.88 10
      vertex 75.1183 1.88 -10
    endloop
  endfacet
  facet normal -0.99556 0.0941288 0
    outer loop
      vertex 75.1183 1.88 10
      vertex 75.0296 0.941858 -10
      vertex 75.0296 0.941858 10
    endloop
  endfacet
  facet normal -0.999507 0.0314117 0
    outer loop
      vertex 75 0 -10
      vertex 75.0296 0.941858 10
      vertex 75.0296 0.941858 -10
    endloop
  endfacet
  facet normal -0.999507 0.0314117 0
    outer loop
      vertex 75.0296 0.941858 10
      vertex 75 0 -10
      vertex 75 0 10
    endloop
  endfacet
  facet normal -0.999507 -0.0314117 0
    outer loop
      vertex 75.0296 -0.941858 -10
      vertex 75 0 10
      vertex 75 0 -10
    endloop
  endfacet
  facet normal -0.999507 -0.0314117 0
    outer loop
      vertex 75 0 10
      vertex 75.0296 -0.941858 -10
      vertex 75.0296 -0.941858 10
    endloop
  endfacet
  facet normal -0.99556 -0.0941288 0
    outer loop
      vertex 75.1183 -1.88 -10
      vertex 75.0296 -0.941858 10
      vertex 75.0296 -0.941858 -10
    endloop
  endfacet
  facet normal -0.99556 -0.0941288 0
    outer loop
      vertex 75.0296 -0.941858 10
      vertex 75.1183 -1.88 -10
      vertex 75.1183 -1.88 10
    endloop
  endfacet
  facet normal -0.98769 -0.156422 0
    outer loop
      vertex 75.2657 -2.81072 -10
      vertex 75.1183 -1.88 10
      vertex 75.1183 -1.88 -10
    endloop
  endfacet
  facet normal -0.98769 -0.156422 0
    outer loop
      vertex 75.1183 -1.88 10
      vertex 75.2657 -2.81072 -10
      vertex 75.2657 -2.81072 10
    endloop
  endfacet
  facet normal -0.975908 -0.218182 0
    outer loop
      vertex 75.4713 -3.73035 -10
      vertex 75.2657 -2.81072 10
      vertex 75.2657 -2.81072 -10
    endloop
  endfacet
  facet normal -0.975908 -0.218182 0
    outer loop
      vertex 75.2657 -2.81072 10
      vertex 75.4713 -3.73035 -10
      vertex 75.4713 -3.73035 10
    endloop
  endfacet
  facet normal -0.960293 -0.278993 0
    outer loop
      vertex 75.7342 -4.63525 -10
      vertex 75.4713 -3.73035 10
      vertex 75.4713 -3.73035 -10
    endloop
  endfacet
  facet normal -0.960293 -0.278993 0
    outer loop
      vertex 75.4713 -3.73035 10
      vertex 75.7342 -4.63525 -10
      vertex 75.7342 -4.63525 10
    endloop
  endfacet
  facet normal -0.940882 -0.338735 0
    outer loop
      vertex 76.0534 -5.52187 -10
      vertex 75.7342 -4.63525 10
      vertex 75.7342 -4.63525 -10
    endloop
  endfacet
  facet normal -0.940882 -0.338735 0
    outer loop
      vertex 75.7342 -4.63525 10
      vertex 76.0534 -5.52187 -10
      vertex 76.0534 -5.52187 10
    endloop
  endfacet
  facet normal -0.91777 -0.397111 0
    outer loop
      vertex 76.4276 -6.38669 -10
      vertex 76.0534 -5.52187 10
      vertex 76.0534 -5.52187 -10
    endloop
  endfacet
  facet normal -0.91777 -0.397111 0
    outer loop
      vertex 76.0534 -5.52187 10
      vertex 76.4276 -6.38669 -10
      vertex 76.4276 -6.38669 10
    endloop
  endfacet
  facet normal -0.89101 -0.453984 0
    outer loop
      vertex 76.8554 -7.22631 -10
      vertex 76.4276 -6.38669 10
      vertex 76.4276 -6.38669 -10
    endloop
  endfacet
  facet normal -0.89101 -0.453984 0
    outer loop
      vertex 76.4276 -6.38669 10
      vertex 76.8554 -7.22631 -10
      vertex 76.8554 -7.22631 10
    endloop
  endfacet
  facet normal -0.860731 -0.509059 0
    outer loop
      vertex 77.3351 -8.0374 -10
      vertex 76.8554 -7.22631 10
      vertex 76.8554 -7.22631 -10
    endloop
  endfacet
  facet normal -0.860731 -0.509059 0
    outer loop
      vertex 76.8554 -7.22631 10
      vertex 77.3351 -8.0374 -10
      vertex 77.3351 -8.0374 10
    endloop
  endfacet
  facet normal -0.827113 -0.562035 0
    outer loop
      vertex 77.8647 -8.81678 -10
      vertex 77.3351 -8.0374 10
      vertex 77.3351 -8.0374 -10
    endloop
  endfacet
  facet normal -0.827113 -0.562035 0
    outer loop
      vertex 77.3351 -8.0374 10
      vertex 77.8647 -8.81678 -10
      vertex 77.8647 -8.81678 10
    endloop
  endfacet
  facet normal -0.790132 -0.612937 0
    outer loop
      vertex 78.4423 -9.56136 -10
      vertex 77.8647 -8.81678 10
      vertex 77.8647 -8.81678 -10
    endloop
  endfacet
  facet normal -0.790132 -0.612937 0
    outer loop
      vertex 77.8647 -8.81678 10
      vertex 78.4423 -9.56136 -10
      vertex 78.4423 -9.56136 10
    endloop
  endfacet
  facet normal -0.750092 -0.661334 0
    outer loop
      vertex 79.0655 -10.2682 -10
      vertex 78.4423 -9.56136 10
      vertex 78.4423 -9.56136 -10
    endloop
  endfacet
  facet normal -0.750092 -0.661334 0
    outer loop
      vertex 78.4423 -9.56136 10
      vertex 79.0655 -10.2682 -10
      vertex 79.0655 -10.2682 10
    endloop
  endfacet
  facet normal -0.707107 -0.707107 0
    outer loop
      vertex 79.0655 -10.2682 -10
      vertex 79.7318 -10.9345 10
      vertex 79.0655 -10.2682 10
    endloop
  endfacet
  facet normal -0.707107 -0.707107 -0
    outer loop
      vertex 79.7318 -10.9345 10
      vertex 79.0655 -10.2682 -10
      vertex 79.7318 -10.9345 -10
    endloop
  endfacet
  facet normal -0.661355 -0.750073 0
    outer loop
      vertex 79.7318 -10.9345 -10
      vertex 80.4386 -11.5577 10
      vertex 79.7318 -10.9345 10
    endloop
  endfacet
  facet normal -0.661355 -0.750073 -0
    outer loop
      vertex 80.4386 -11.5577 10
      vertex 79.7318 -10.9345 -10
      vertex 80.4386 -11.5577 -10
    endloop
  endfacet
  facet normal -0.612926 -0.79014 0
    outer loop
      vertex 80.4386 -11.5577 -10
      vertex 81.1832 -12.1353 10
      vertex 80.4386 -11.5577 10
    endloop
  endfacet
  facet normal -0.612926 -0.79014 -0
    outer loop
      vertex 81.1832 -12.1353 10
      vertex 80.4386 -11.5577 -10
      vertex 81.1832 -12.1353 -10
    endloop
  endfacet
  facet normal -0.562026 -0.82712 0
    outer loop
      vertex 81.1832 -12.1353 -10
      vertex 81.9626 -12.6649 10
      vertex 81.1832 -12.1353 10
    endloop
  endfacet
  facet normal -0.562026 -0.82712 -0
    outer loop
      vertex 81.9626 -12.6649 10
      vertex 81.1832 -12.1353 -10
      vertex 81.9626 -12.6649 -10
    endloop
  endfacet
  facet normal -0.509055 -0.860734 0
    outer loop
      vertex 81.9626 -12.6649 -10
      vertex 82.7737 -13.1446 10
      vertex 81.9626 -12.6649 10
    endloop
  endfacet
  facet normal -0.509055 -0.860734 -0
    outer loop
      vertex 82.7737 -13.1446 10
      vertex 81.9626 -12.6649 -10
      vertex 82.7737 -13.1446 -10
    endloop
  endfacet
  facet normal -0.453993 -0.891005 0
    outer loop
      vertex 82.7737 -13.1446 -10
      vertex 83.6133 -13.5724 10
      vertex 82.7737 -13.1446 10
    endloop
  endfacet
  facet normal -0.453993 -0.891005 -0
    outer loop
      vertex 83.6133 -13.5724 10
      vertex 82.7737 -13.1446 -10
      vertex 83.6133 -13.5724 -10
    endloop
  endfacet
  facet normal -0.397119 -0.917767 0
    outer loop
      vertex 83.6133 -13.5724 -10
      vertex 84.4781 -13.9466 10
      vertex 83.6133 -13.5724 10
    endloop
  endfacet
  facet normal -0.397119 -0.917767 -0
    outer loop
      vertex 84.4781 -13.9466 10
      vertex 83.6133 -13.5724 -10
      vertex 84.4781 -13.9466 -10
    endloop
  endfacet
  facet normal -0.338742 -0.940879 0
    outer loop
      vertex 84.4781 -13.9466 -10
      vertex 85.3647 -14.2658 10
      vertex 84.4781 -13.9466 10
    endloop
  endfacet
  facet normal -0.338742 -0.940879 -0
    outer loop
      vertex 85.3647 -14.2658 10
      vertex 84.4781 -13.9466 -10
      vertex 85.3647 -14.2658 -10
    endloop
  endfacet
  facet normal -0.278965 -0.960301 0
    outer loop
      vertex 85.3647 -14.2658 -10
      vertex 86.2697 -14.5287 10
      vertex 85.3647 -14.2658 10
    endloop
  endfacet
  facet normal -0.278965 -0.960301 -0
    outer loop
      vertex 86.2697 -14.5287 10
      vertex 85.3647 -14.2658 -10
      vertex 86.2697 -14.5287 -10
    endloop
  endfacet
  facet normal -0.218189 -0.975907 0
    outer loop
      vertex 86.2697 -14.5287 -10
      vertex 87.1893 -14.7343 10
      vertex 86.2697 -14.5287 10
    endloop
  endfacet
  facet normal -0.218189 -0.975907 -0
    outer loop
      vertex 87.1893 -14.7343 10
      vertex 86.2697 -14.5287 -10
      vertex 87.1893 -14.7343 -10
    endloop
  endfacet
  facet normal -0.156426 -0.98769 0
    outer loop
      vertex 87.1893 -14.7343 -10
      vertex 88.12 -14.8817 10
      vertex 87.1893 -14.7343 10
    endloop
  endfacet
  facet normal -0.156426 -0.98769 -0
    outer loop
      vertex 88.12 -14.8817 10
      vertex 87.1893 -14.7343 -10
      vertex 88.12 -14.8817 -10
    endloop
  endfacet
  facet normal -0.094133 -0.99556 0
    outer loop
      vertex 88.12 -14.8817 -10
      vertex 89.0581 -14.9704 10
      vertex 88.12 -14.8817 10
    endloop
  endfacet
  facet normal -0.094133 -0.99556 -0
    outer loop
      vertex 89.0581 -14.9704 10
      vertex 88.12 -14.8817 -10
      vertex 89.0581 -14.9704 -10
    endloop
  endfacet
  facet normal -0.0314103 -0.999507 0
    outer loop
      vertex 89.0581 -14.9704 -10
      vertex 90 -15 10
      vertex 89.0581 -14.9704 10
    endloop
  endfacet
  facet normal -0.0314103 -0.999507 -0
    outer loop
      vertex 90 -15 10
      vertex 89.0581 -14.9704 -10
      vertex 90 -15 -10
    endloop
  endfacet
  facet normal 0.0314103 -0.999507 0
    outer loop
      vertex 90 -15 -10
      vertex 90.9419 -14.9704 10
      vertex 90 -15 10
    endloop
  endfacet
  facet normal 0.0314103 -0.999507 0
    outer loop
      vertex 90.9419 -14.9704 10
      vertex 90 -15 -10
      vertex 90.9419 -14.9704 -10
    endloop
  endfacet
  facet normal 0.094133 -0.99556 0
    outer loop
      vertex 90.9419 -14.9704 -10
      vertex 91.88 -14.8817 10
      vertex 90.9419 -14.9704 10
    endloop
  endfacet
  facet normal 0.094133 -0.99556 0
    outer loop
      vertex 91.88 -14.8817 10
      vertex 90.9419 -14.9704 -10
      vertex 91.88 -14.8817 -10
    endloop
  endfacet
  facet normal 0.156426 -0.98769 0
    outer loop
      vertex 91.88 -14.8817 -10
      vertex 92.8107 -14.7343 10
      vertex 91.88 -14.8817 10
    endloop
  endfacet
  facet normal 0.156426 -0.98769 0
    outer loop
      vertex 92.8107 -14.7343 10
      vertex 91.88 -14.8817 -10
      vertex 92.8107 -14.7343 -10
    endloop
  endfacet
  facet normal 0.218189 -0.975907 0
    outer loop
      vertex 92.8107 -14.7343 -10
      vertex 93.7303 -14.5287 10
      vertex 92.8107 -14.7343 10
    endloop
  endfacet
  facet normal 0.218189 -0.975907 0
    outer loop
      vertex 93.7303 -14.5287 10
      vertex 92.8107 -14.7343 -10
      vertex 93.7303 -14.5287 -10
    endloop
  endfacet
  facet normal 0.278965 -0.960301 0
    outer loop
      vertex 93.7303 -14.5287 -10
      vertex 94.6353 -14.2658 10
      vertex 93.7303 -14.5287 10
    endloop
  endfacet
  facet normal 0.278965 -0.960301 0
    outer loop
      vertex 94.6353 -14.2658 10
      vertex 93.7303 -14.5287 -10
      vertex 94.6353 -14.2658 -10
    endloop
  endfacet
  facet normal 0.338742 -0.940879 0
    outer loop
      vertex 94.6353 -14.2658 -10
      vertex 95.5219 -13.9466 10
      vertex 94.6353 -14.2658 10
    endloop
  endfacet
  facet normal 0.338742 -0.940879 0
    outer loop
      vertex 95.5219 -13.9466 10
      vertex 94.6353 -14.2658 -10
      vertex 95.5219 -13.9466 -10
    endloop
  endfacet
  facet normal 0.397119 -0.917767 0
    outer loop
      vertex 95.5219 -13.9466 -10
      vertex 96.3867 -13.5724 10
      vertex 95.5219 -13.9466 10
    endloop
  endfacet
  facet normal 0.397119 -0.917767 0
    outer loop
      vertex 96.3867 -13.5724 10
      vertex 95.5219 -13.9466 -10
      vertex 96.3867 -13.5724 -10
    endloop
  endfacet
  facet normal 0.453993 -0.891005 0
    outer loop
      vertex 96.3867 -13.5724 -10
      vertex 97.2263 -13.1446 10
      vertex 96.3867 -13.5724 10
    endloop
  endfacet
  facet normal 0.453993 -0.891005 0
    outer loop
      vertex 97.2263 -13.1446 10
      vertex 96.3867 -13.5724 -10
      vertex 97.2263 -13.1446 -10
    endloop
  endfacet
  facet normal 0.509055 -0.860734 0
    outer loop
      vertex 97.2263 -13.1446 -10
      vertex 98.0374 -12.6649 10
      vertex 97.2263 -13.1446 10
    endloop
  endfacet
  facet normal 0.509055 -0.860734 0
    outer loop
      vertex 98.0374 -12.6649 10
      vertex 97.2263 -13.1446 -10
      vertex 98.0374 -12.6649 -10
    endloop
  endfacet
  facet normal 0.562026 -0.82712 0
    outer loop
      vertex 98.0374 -12.6649 -10
      vertex 98.8168 -12.1353 10
      vertex 98.0374 -12.6649 10
    endloop
  endfacet
  facet normal 0.562026 -0.82712 0
    outer loop
      vertex 98.8168 -12.1353 10
      vertex 98.0374 -12.6649 -10
      vertex 98.8168 -12.1353 -10
    endloop
  endfacet
  facet normal 0.612926 -0.79014 0
    outer loop
      vertex 98.8168 -12.1353 -10
      vertex 99.5614 -11.5577 10
      vertex 98.8168 -12.1353 10
    endloop
  endfacet
  facet normal 0.612926 -0.79014 0
    outer loop
      vertex 99.5614 -11.5577 10
      vertex 98.8168 -12.1353 -10
      vertex 99.5614 -11.5577 -10
    endloop
  endfacet
  facet normal 0.66146 -0.74998 0
    outer loop
      vertex 99.5614 -11.5577 -10
      vertex 100.268 -10.9345 10
      vertex 99.5614 -11.5577 10
    endloop
  endfacet
  facet normal 0.66146 -0.74998 0
    outer loop
      vertex 100.268 -10.9345 10
      vertex 99.5614 -11.5577 -10
      vertex 100.268 -10.9345 -10
    endloop
  endfacet
  facet normal 0.706735 -0.707478 0
    outer loop
      vertex 100.268 -10.9345 -10
      vertex 100.935 -10.2682 10
      vertex 100.268 -10.9345 10
    endloop
  endfacet
  facet normal 0.706735 -0.707478 0
    outer loop
      vertex 100.935 -10.2682 10
      vertex 100.268 -10.9345 -10
      vertex 100.935 -10.2682 -10
    endloop
  endfacet
  facet normal 0.750197 -0.661214 0
    outer loop
      vertex 100.935 -10.2682 10
      vertex 101.558 -9.56136 -10
      vertex 101.558 -9.56136 10
    endloop
  endfacet
  facet normal 0.750197 -0.661214 0
    outer loop
      vertex 101.558 -9.56136 -10
      vertex 100.935 -10.2682 10
      vertex 100.935 -10.2682 -10
    endloop
  endfacet
  facet normal 0.79044 -0.612539 0
    outer loop
      vertex 101.558 -9.56136 10
      vertex 102.135 -8.81678 -10
      vertex 102.135 -8.81678 10
    endloop
  endfacet
  facet normal 0.79044 -0.612539 0
    outer loop
      vertex 102.135 -8.81678 -10
      vertex 101.558 -9.56136 10
      vertex 101.558 -9.56136 -10
    endloop
  endfacet
  facet normal 0.826916 -0.562326 0
    outer loop
      vertex 102.135 -8.81678 10
      vertex 102.665 -8.0374 -10
      vertex 102.665 -8.0374 10
    endloop
  endfacet
  facet normal 0.826916 -0.562326 0
    outer loop
      vertex 102.665 -8.0374 -10
      vertex 102.135 -8.81678 10
      vertex 102.135 -8.81678 -10
    endloop
  endfacet
  facet normal 0.860592 -0.509295 0
    outer loop
      vertex 102.665 -8.0374 10
      vertex 103.145 -7.22631 -10
      vertex 103.145 -7.22631 10
    endloop
  endfacet
  facet normal 0.860592 -0.509295 0
    outer loop
      vertex 103.145 -7.22631 -10
      vertex 102.665 -8.0374 10
      vertex 102.665 -8.0374 -10
    endloop
  endfacet
  facet normal 0.891353 -0.45331 0
    outer loop
      vertex 103.145 -7.22631 10
      vertex 103.572 -6.38669 -10
      vertex 103.572 -6.38669 10
    endloop
  endfacet
  facet normal 0.891353 -0.45331 0
    outer loop
      vertex 103.572 -6.38669 -10
      vertex 103.145 -7.22631 10
      vertex 103.145 -7.22631 -10
    endloop
  endfacet
  facet normal 0.917461 -0.397826 0
    outer loop
      vertex 103.572 -6.38669 10
      vertex 103.947 -5.52187 -10
      vertex 103.947 -5.52187 10
    endloop
  endfacet
  facet normal 0.917461 -0.397826 0
    outer loop
      vertex 103.947 -5.52187 -10
      vertex 103.572 -6.38669 10
      vertex 103.572 -6.38669 -10
    endloop
  endfacet
  facet normal 0.940949 -0.338547 0
    outer loop
      vertex 103.947 -5.52187 10
      vertex 104.266 -4.63525 -10
      vertex 104.266 -4.63525 10
    endloop
  endfacet
  facet normal 0.940949 -0.338547 0
    outer loop
      vertex 104.266 -4.63525 -10
      vertex 103.947 -5.52187 10
      vertex 103.947 -5.52187 -10
    endloop
  endfacet
  facet normal 0.960265 -0.279091 0
    outer loop
      vertex 104.266 -4.63525 10
      vertex 104.529 -3.73035 -10
      vertex 104.529 -3.73035 10
    endloop
  endfacet
  facet normal 0.960265 -0.279091 0
    outer loop
      vertex 104.529 -3.73035 -10
      vertex 104.266 -4.63525 10
      vertex 104.266 -4.63525 -10
    endloop
  endfacet
  facet normal 0.976044 -0.217575 0
    outer loop
      vertex 104.529 -3.73035 10
      vertex 104.734 -2.81072 -10
      vertex 104.734 -2.81072 10
    endloop
  endfacet
  facet normal 0.976044 -0.217575 0
    outer loop
      vertex 104.734 -2.81072 -10
      vertex 104.529 -3.73035 10
      vertex 104.529 -3.73035 -10
    endloop
  endfacet
  facet normal 0.987592 -0.157044 0
    outer loop
      vertex 104.734 -2.81072 10
      vertex 104.882 -1.88 -10
      vertex 104.882 -1.88 10
    endloop
  endfacet
  facet normal 0.987592 -0.157044 0
    outer loop
      vertex 104.882 -1.88 -10
      vertex 104.734 -2.81072 10
      vertex 104.734 -2.81072 -10
    endloop
  endfacet
  facet normal 0.995629 -0.0933925 0
    outer loop
      vertex 104.882 -1.88 10
      vertex 104.97 -0.941858 -10
      vertex 104.97 -0.941858 10
    endloop
  endfacet
  facet normal 0.995629 -0.0933925 0
    outer loop
      vertex 104.97 -0.941858 -10
      vertex 104.882 -1.88 10
      vertex 104.882 -1.88 -10
    endloop
  endfacet
  facet normal 0.999493 -0.0318358 0
    outer loop
      vertex 104.97 -0.941858 10
      vertex 105 0 -10
      vertex 105 0 10
    endloop
  endfacet
  facet normal 0.999493 -0.0318358 0
    outer loop
      vertex 105 0 -10
      vertex 104.97 -0.941858 10
      vertex 104.97 -0.941858 -10
    endloop
  endfacet
  facet normal 0 0 -1
    outer loop
      vertex 104.97 -0.941858 -10
      vertex 104.97 0.941858 -10
      vertex 105 0 -10
    endloop
  endfacet
  facet normal 0 0 -1
    outer loop
      vertex 104.882 -1.88 -10
      vertex 104.97 0.941858 -10
      vertex 104.97 -0.941858 -10
    endloop
  endfacet
  facet normal 0 0 -1
    outer loop
      vertex 104.882 -1.88 -10
      vertex 104.882 1.88 -10
      vertex 104.97 0.941858 -10
    endloop
  endfacet
  facet normal 0 0 -1
    outer loop
      vertex 104.734 -2.81072 -10
      vertex 104.882 1.88 -10
      vertex 104.882 -1.88 -10
    endloop
  endfacet
  facet normal 0 0 -1
    outer loop
      vertex 104.734 -2.81072 -10
      vertex 104.734 2.81072 -10
      vertex 104.882 1.88 -10
    endloop
  endfacet
  facet normal 0 0 -1
    outer loop
      vertex 104.529 -3.73035 -10
      vertex 104.734 2.81072 -10
      vertex 104.734 -2.81072 -10
    endloop
  endfacet
  facet normal 0 0 -1
    outer loop
      vertex 104.529 -3.73035 -10
      vertex 104.529 3.73035 -10
      vertex 104.734 2.81072 -10
    endloop
  endfacet
  facet normal 0 0 -1
    outer loop
      vertex 104.266 -4.63525 -10
      vertex 104.529 3.73035 -10
      vertex 104.529 -3.73035 -10
    endloop
  endfacet
  facet normal 0 0 -1
    outer loop
      vertex 104.266 -4.63525 -10
      vertex 104.266 4.63525 -10
      vertex 104.529 3.73035 -10
    endloop
  endfacet
  facet normal 0 0 -1
    outer loop
      vertex 103.947 -5.52187 -10
      vertex 104.266 4.63525 -10
      vertex 104.266 -4.63525 -10
    endloop
  endfacet
  facet normal 0 0 -1
    outer loop
      vertex 103.947 -5.52187 -10
      vertex 103.947 5.52187 -10
      vertex 104.266 4.63525 -10
    endloop
  endfacet
  facet normal 0 0 -1
    outer loop
      vertex 103.572 -6.38669 -10
      vertex 103.947 5.52187 -10
      vertex 103.947 -5.52187 -10
    endloop
  endfacet
  facet normal 0 0 -1
    outer loop
      vertex 103.572 -6.38669 -10
      vertex 103.572 6.38669 -10
      vertex 103.947 5.52187 -10
    endloop
  endfacet
  facet normal 0 0 -1
    outer loop
      vertex 103.145 -7.22631 -10
      vertex 103.572 6.38669 -10
      vertex 103.572 -6.38669 -10
    endloop
  endfacet
  facet normal 0 0 -1
    outer loop
      vertex 103.145 -7.22631 -10
      vertex 103.145 7.22631 -10
      vertex 103.572 6.38669 -10
    endloop
  endfacet
  facet normal 0 0 -1
    outer loop
      vertex 102.665 -8.0374 -10
      vertex 103.145 7.22631 -10
      vertex 103.145 -7.22631 -10
    endloop
  endfacet
  facet normal 0 0 -1
    outer loop
      vertex 102.665 -8.0374 -10
      vertex 102.665 8.0374 -10
      vertex 103.145 7.22631 -10
    endloop
  endfacet
  facet normal 0 0 -1
    outer loop
      vertex 102.135 -8.81678 -10
      vertex 102.665 8.0374 -10
      vertex 102.665 -8.0374 -10
    endloop
  endfacet
  facet normal 0 0 -1
    outer loop
      vertex 102.135 -8.81678 -10
      vertex 102.135 8.81678 -10
      vertex 102.665 8.0374 -10
    endloop
  endfacet
  facet normal 0 0 -1
    outer loop
      vertex 101.558 -9.56136 -10
      vertex 102.135 8.81678 -10
      vertex 102.135 -8.81678 -10
    endloop
  endfacet
  facet normal 0 0 -1
    outer loop
      vertex 101.558 -9.56136 -10
      vertex 101.558 9.56136 -10
      vertex 102.135 8.81678 -10
    endloop
  endfacet
  facet normal 0 0 -1
    outer loop
      vertex 100.935 -10.2682 -10
      vertex 101.558 9.56136 -10
      vertex 101.558 -9.56136 -10
    endloop
  endfacet
  facet normal 0 0 -1
    outer loop
      vertex 100.935 -10.2682 -10
      vertex 100.935 10.2682 -10
      vertex 101.558 9.56136 -10
    endloop
  endfacet
  facet normal 0 0 -1
    outer loop
      vertex 100.268 -10.9345 -10
      vertex 100.935 10.2682 -10
      vertex 100.935 -10.2682 -10
    endloop
  endfacet
  facet normal 0 0 -1
    outer loop
      vertex 100.268 -10.9345 -10
      vertex 100.268 10.9345 -10
      vertex 100.935 10.2682 -10
    endloop
  endfacet
  facet normal 0 0 -1
    outer loop
      vertex 99.5614 -11.5577 -10
      vertex 100.268 10.9345 -10
      vertex 100.268 -10.9345 -10
    endloop
  endfacet
  facet normal 0 0 -1
    outer loop
      vertex 99.5614 -11.5577 -10
      vertex 99.5614 11.5577 -10
      vertex 100.268 10.9345 -10
    endloop
  endfacet
  facet normal 0 0 -1
    outer loop
      vertex 98.8168 -12.1353 -10
      vertex 99.5614 11.5577 -10
      vertex 99.5614 -11.5577 -10
    endloop
  endfacet
  facet normal 0 0 -1
    outer loop
      vertex 98.8168 -12.1353 -10
      vertex 98.8168 12.1353 -10
      vertex 99.5614 11.5577 -10
    endloop
  endfacet
  facet normal 0 0 -1
    outer loop
      vertex 98.0374 -12.6649 -10
      vertex 98.8168 12.1353 -10
      vertex 98.8168 -12.1353 -10
    endloop
  endfacet
  facet normal 0 0 -1
    outer loop
      vertex 98.0374 -12.6649 -10
      vertex 98.0374 12.6649 -10
      vertex 98.8168 12.1353 -10
    endloop
  endfacet
  facet normal 0 0 -1
    outer loop
      vertex 97.2263 -13.1446 -10
      vertex 98.0374 12.6649 -10
      vertex 98.0374 -12.6649 -10
    endloop
  endfacet
  facet normal 0 0 -1
    outer loop
      vertex 97.2263 -13.1446 -10
      vertex 97.2263 13.1446 -10
      vertex 98.0374 12.6649 -10
    endloop
  endfacet
  facet normal 0 0 -1
    outer loop
      vertex 96.3867 -13.5724 -10
      vertex 97.2263 13.1446 -10
      vertex 97.2263 -13.1446 -10
    endloop
  endfacet
  facet normal 0 0 -1
    outer loop
      vertex 96.3867 -13.5724 -10
      vertex 96.3867 13.5724 -10
      vertex 97.2263 13.1446 -10
    endloop
  endfacet
  facet normal 0 0 -1
    outer loop
      vertex 95.5219 -13.9466 -10
      vertex 96.3867 13.5724 -10
      vertex 96.3867 -13.5724 -10
    endloop
  endfacet
  facet normal 0 0 -1
    outer loop
      vertex 95.5219 -13.9466 -10
      vertex 95.5219 13.9466 -10
      vertex 96.3867 13.5724 -10
    endloop
  endfacet
  facet normal 0 0 -1
    outer loop
      vertex 94.6353 -14.2658 -10
      vertex 95.5219 13.9466 -10
      vertex 95.5219 -13.9466 -10
    endloop
  endfacet
  facet normal 0 0 -1
    outer loop
      vertex 94.6353 -14.2658 -10
      vertex 94.6353 14.2658 -10
      vertex 95.5219 13.9466 -10
    endloop
  endfacet
  facet normal 0 0 -1
    outer loop
      vertex 93.7303 -14.5287 -10
      vertex 94.6353 14.2658 -10
      vertex 94.6353 -14.2658 -10
    endloop
  endfacet
  facet normal 0 0 -1
    outer loop
      vertex 93.7303 -14.5287 -10
      vertex 93.7303 14.5287 -10
      vertex 94.6353 14.2658 -10
    endloop
  endfacet
  facet normal 0 0 -1
    outer loop
      vertex 92.8107 -14.7343 -10
      vertex 93.7303 14.5287 -10
      vertex 93.7303 -14.5287 -10
    endloop
  endfacet
  facet normal 0 0 -1
    outer loop
      vertex 92.8107 -14.7343 -10
      vertex 92.8107 14.7343 -10
      vertex 93.7303 14.5287 -10
    endloop
  endfacet
  facet normal 0 0 -1
    outer loop
      vertex 91.88 -14.8817 -10
      vertex 92.8107 14.7343 -10
      vertex 92.8107 -14.7343 -10
    endloop
  endfacet
  facet normal 0 0 -1
    outer loop
      vertex 91.88 -14.8817 -10
      vertex 91.88 14.8817 -10
      vertex 92.8107 14.7343 -10
    endloop
  endfacet
  facet normal 0 0 -1
    outer loop
      vertex 90.9419 -14.9704 -10
      vertex 91.88 14.8817 -10
      vertex 91.88 -14.8817 -10
    endloop
  endfacet
  facet normal 0 0 -1
    outer loop
      vertex 90.9419 -14.9704 -10
      vertex 90.9419 14.9704 -10
      vertex 91.88 14.8817 -10
    endloop
  endfacet
  facet normal 0 0 -1
    outer loop
      vertex 90 -15 -10
      vertex 90.9419 14.9704 -10
      vertex 90.9419 -14.9704 -10
    endloop
  endfacet
  facet normal 0 0 -1
    outer loop
      vertex 90 -15 -10
      vertex 90 15 -10
      vertex 90.9419 14.9704 -10
    endloop
  endfacet
  facet normal 0 0 -1
    outer loop
      vertex 89.0581 -14.9704 -10
      vertex 90 15 -10
      vertex 90 -15 -10
    endloop
  endfacet
  facet normal 0 0 -1
    outer loop
      vertex 89.0581 -14.9704 -10
      vertex 89.0581 14.9704 -10
      vertex 90 15 -10
    endloop
  endfacet
  facet normal 0 0 -1
    outer loop
      vertex 88.12 -14.8817 -10
      vertex 89.0581 14.9704 -10
      vertex 89.0581 -14.9704 -10
    endloop
  endfacet
  facet normal 0 0 -1
    outer loop
      vertex 88.12 -14.8817 -10
      vertex 88.12 14.8817 -10
      vertex 89.0581 14.9704 -10
    endloop
  endfacet
  facet normal 0 0 -1
    outer loop
      vertex 87.1893 -14.7343 -10
      vertex 88.12 14.8817 -10
      vertex 88.12 -14.8817 -10
    endloop
  endfacet
  facet normal 0 0 -1
    outer loop
      vertex 87.1893 -14.7343 -10
      vertex 87.1893 14.7343 -10
      vertex 88.12 14.8817 -10
    endloop
  endfacet
  facet normal 0 0 -1
    outer loop
      vertex 86.2697 -14.5287 -10
      vertex 87.1893 14.7343 -10
      vertex 87.1893 -14.7343 -10
    endloop
  endfacet
  facet normal 0 0 -1
    outer loop
      vertex 86.2697 -14.5287 -10
      vertex 86.2697 14.5287 -10
      vertex 87.1893 14.7343 -10
    endloop
  endfacet
  facet normal 0 0 -1
    outer loop
      vertex 85.3647 -14.2658 -10
      vertex 86.2697 14.5287 -10
      vertex 86.2697 -14.5287 -10
    endloop
  endfacet
  facet normal 0 0 -1
    outer loop
      vertex 85.3647 -14.2658 -10
      vertex 85.3647 14.2658 -10
      vertex 86.2697 14.5287 -10
    endloop
  endfacet
  facet normal 0 0 -1
    outer loop
      vertex 84.4781 -13.9466 -10
      vertex 85.3647 14.2658 -10
      vertex 85.3647 -14.2658 -10
    endloop
  endfacet
  facet normal 0 0 -1
    outer loop
      vertex 84.4781 -13.9466 -10
      vertex 84.4781 13.9466 -10
      vertex 85.3647 14.2658 -10
    endloop
  endfacet
  facet normal 0 0 -1
    outer loop
      vertex 83.6133 -13.5724 -10
      vertex 84.4781 13.9466 -10
      vertex 84.4781 -13.9466 -10
    endloop
  endfacet
  facet normal 0 0 -1
    outer loop
      vertex 83.6133 -13.5724 -10
      vertex 83.6133 13.5724 -10
      vertex 84.4781 13.9466 -10
    endloop
  endfacet
  facet normal 0 0 -1
    outer loop
      vertex 82.7737 -13.1446 -10
      vertex 83.6133 13.5724 -10
      vertex 83.6133 -13.5724 -10
    endloop
  endfacet
  facet normal 0 0 -1
    outer loop
      vertex 82.7737 -13.1446 -10
      vertex 82.7737 13.1446 -10
      vertex 83.6133 13.5724 -10
    endloop
  endfacet
  facet normal 0 0 -1
    outer loop
      vertex 81.9626 -12.6649 -10
      vertex 82.7737 13.1446 -10
      vertex 82.7737 -13.1446 -10
    endloop
  endfacet
  facet normal 0 0 -1
    outer loop
      vertex 81.9626 -12.6649 -10
      vertex 81.9626 12.6649 -10
      vertex 82.7737 13.1446 -10
    endloop
  endfacet
  facet normal 0 0 -1
    outer loop
      vertex 81.1832 -12.1353 -10
      vertex 81.9626 12.6649 -10
      vertex 81.9626 -12.6649 -10
    endloop
  endfacet
  facet normal 0 0 -1
    outer loop
      vertex 81.1832 -12.1353 -10
      vertex 81.1832 12.1353 -10
      vertex 81.9626 12.6649 -10
    endloop
  endfacet
  facet normal 0 0 -1
    outer loop
      vertex 80.4386 -11.5577 -10
      vertex 81.1832 12.1353 -10
      vertex 81.1832 -12.1353 -10
    endloop
  endfacet
  facet normal 0 0 -1
    outer loop
      vertex 80.4386 -11.5577 -10
      vertex 80.4386 11.5577 -10
      vertex 81.1832 12.1353 -10
    endloop
  endfacet
  facet normal 0 0 -1
    outer loop
      vertex 79.7318 -10.9345 -10
      vertex 80.4386 11.5577 -10
      vertex 80.4386 -11.5577 -10
    endloop
  endfacet
  facet normal 0 0 -1
    outer loop
      vertex 79.7318 -10.9345 -10
      vertex 79.7318 10.9345 -10
      vertex 80.4386 11.5577 -10
    endloop
  endfacet
  facet normal 0 0 -1
    outer loop
      vertex 79.0655 -10.2682 -10
      vertex 79.7318 10.9345 -10
      vertex 79.7318 -10.9345 -10
    endloop
  endfacet
  facet normal 0 0 -1
    outer loop
      vertex 79.0655 -10.2682 -10
      vertex 79.0655 10.2682 -10
      vertex 79.7318 10.9345 -10
    endloop
  endfacet
  facet normal 0 0 -1
    outer loop
      vertex 78.4423 -9.56136 -10
      vertex 79.0655 10.2682 -10
      vertex 79.0655 -10.2682 -10
    endloop
  endfacet
  facet normal 0 0 -1
    outer loop
      vertex 78.4423 -9.56136 -10
      vertex 78.4423 9.56136 -10
      vertex 79.0655 10.2682 -10
    endloop
  endfacet
  facet normal 0 0 -1
    outer loop
      vertex 77.8647 -8.81678 -10
      vertex 78.4423 9.56136 -10
      vertex 78.4423 -9.56136 -10
    endloop
  endfacet
  facet normal 0 0 -1
    outer loop
      vertex 77.8647 -8.81678 -10
      vertex 77.8647 8.81678 -10
      vertex 78.4423 9.56136 -10
    endloop
  endfacet
  facet normal 0 0 -1
    outer loop
      vertex 77.3351 -8.0374 -10
      vertex 77.8647 8.81678 -10
      vertex 77.8647 -8.81678 -10
    endloop
  endfacet
  facet normal 0 0 -1
    outer loop
      vertex 77.3351 -8.0374 -10
      vertex 77.3351 8.0374 -10
      vertex 77.8647 8.81678 -10
    endloop
  endfacet
  facet normal 0 0 -1
    outer loop
      vertex 76.8554 -7.22631 -10
      vertex 77.3351 8.0374 -10
      vertex 77.3351 -8.0374 -10
    endloop
  endfacet
  facet normal 0 0 -1
    outer loop
      vertex 76.8554 -7.22631 -10
      vertex 76.8554 7.22631 -10
      vertex 77.3351 8.0374 -10
    endloop
  endfacet
  facet normal 0 0 -1
    outer loop
      vertex 76.4276 -6.38669 -10
      vertex 76.8554 7.22631 -10
      vertex 76.8554 -7.22631 -10
    endloop
  endfacet
  facet normal 0 0 -1
    outer loop
      vertex 76.4276 -6.38669 -10
      vertex 76.4276 6.38669 -10
      vertex 76.8554 7.22631 -10
    endloop
  endfacet
  facet normal 0 0 -1
    outer loop
      vertex 76.0534 -5.52187 -10
      vertex 76.4276 6.38669 -10
      vertex 76.4276 -6.38669 -10
    endloop
  endfacet
  facet normal 0 0 -1
    outer loop
      vertex 76.0534 -5.52187 -10
      vertex 76.0534 5.52187 -10
      vertex 76.4276 6.38669 -10
    endloop
  endfacet
  facet normal 0 0 -1
    outer loop
      vertex 75.7342 -4.63525 -10
      vertex 76.0534 5.52187 -10
      vertex 76.0534 -5.52187 -10
    endloop
  endfacet
  facet normal 0 0 -1
    outer loop
      vertex 75.7342 -4.63525 -10
      vertex 75.7342 4.63525 -10
      vertex 76.0534 5.52187 -10
    endloop
  endfacet
  facet normal 0 0 -1
    outer loop
      vertex 75.4713 -3.73035 -10
      vertex 75.7342 4.63525 -10
      vertex 75.7342 -4.63525 -10
    endloop
  endfacet
  facet normal 0 0 -1
    outer loop
      vertex 75.4713 -3.73035 -10
      vertex 75.4713 3.73035 -10
      vertex 75.7342 4.63525 -10
    endloop
  endfacet
  facet normal 0 0 -1
    outer loop
      vertex 75.2657 -2.81072 -10
      vertex 75.4713 3.73035 -10
      vertex 75.4713 -3.73035 -10
    endloop
  endfacet
  facet normal 0 0 -1
    outer loop
      vertex 75.2657 -2.81072 -10
      vertex 75.2657 2.81072 -10
      vertex 75.4713 3.73035 -10
    endloop
  endfacet
  facet normal 0 0 -1
    outer loop
      vertex 75.1183 -1.88 -10
      vertex 75.2657 2.81072 -10
      vertex 75.2657 -2.81072 -10
    endloop
  endfacet
  facet normal 0 0 -1
    outer loop
      vertex 75.1183 -1.88 -10
      vertex 75.1183 1.88 -10
      vertex 75.2657 2.81072 -10
    endloop
  endfacet
  facet normal 0 0 -1
    outer loop
      vertex 75.0296 -0.941858 -10
      vertex 75.1183 1.88 -10
      vertex 75.1183 -1.88 -10
    endloop
  endfacet
  facet normal 0 0 -1
    outer loop
      vertex 75.0296 -0.941858 -10
      vertex 75.0296 0.941858 -10
      vertex 75.1183 1.88 -10
    endloop
  endfacet
  facet normal 0 -0 -1
    outer loop
      vertex 75.0296 0.941858 -10
      vertex 75.0296 -0.941858 -10
      vertex 75 0 -10
    endloop
  endfacet
  facet normal 0 0 1
    outer loop
      vertex 104.97 0.941858 10
      vertex 104.97 -0.941858 10
      vertex 105 0 10
    endloop
  endfacet
  facet normal 0 0 1
    outer loop
      vertex 104.882 1.88 10
      vertex 104.97 -0.941858 10
      vertex 104.97 0.941858 10
    endloop
  endfacet
  facet normal 0 0 1
    outer loop
      vertex 104.882 1.88 10
      vertex 104.882 -1.88 10
      vertex 104.97 -0.941858 10
    endloop
  endfacet
  facet normal 0 0 1
    outer loop
      vertex 104.734 2.81072 10
      vertex 104.882 -1.88 10
      vertex 104.882 1.88 10
    endloop
  endfacet
  facet normal 0 0 1
    outer loop
      vertex 104.734 2.81072 10
      vertex 104.734 -2.81072 10
      vertex 104.882 -1.88 10
    endloop
  endfacet
  facet normal 0 0 1
    outer loop
      vertex 104.529 3.73035 10
      vertex 104.734 -2.81072 10
      vertex 104.734 2.81072 10
    endloop
  endfacet
  facet normal 0 0 1
    outer loop
      vertex 104.529 3.73035 10
      vertex 104.529 -3.73035 10
      vertex 104.734 -2.81072 10
    endloop
  endfacet
  facet normal 0 0 1
    outer loop
      vertex 104.266 4.63525 10
      vertex 104.529 -3.73035 10
      vertex 104.529 3.73035 10
    endloop
  endfacet
  facet normal 0 0 1
    outer loop
      vertex 104.266 4.63525 10
      vertex 104.266 -4.63525 10
      vertex 104.529 -3.73035 10
    endloop
  endfacet
  facet normal 0 0 1
    outer loop
      vertex 103.947 5.52187 10
      vertex 104.266 -4.63525 10
      vertex 104.266 4.63525 10
    endloop
  endfacet
  facet normal 0 0 1
    outer loop
      vertex 103.947 5.52187 10
      vertex 103.947 -5.52187 10
      vertex 104.266 -4.63525 10
    endloop
  endfacet
  facet normal 0 0 1
    outer loop
      vertex 103.572 6.38669 10
      vertex 103.947 -5.52187 10
      vertex 103.947 5.52187 10
    endloop
  endfacet
  facet normal 0 0 1
    outer loop
      vertex 103.572 6.38669 10
      vertex 103.572 -6.38669 10
      vertex 103.947 -5.52187 10
    endloop
  endfacet
  facet normal 0 0 1
    outer loop
      vertex 103.145 7.22631 10
      vertex 103.572 -6.38669 10
      vertex 103.572 6.38669 10
    endloop
  endfacet
  facet normal 0 0 1
    outer loop
      vertex 103.145 7.22631 10
      vertex 103.145 -7.22631 10
      vertex 103.572 -6.38669 10
    endloop
  endfacet
  facet normal 0 0 1
    outer loop
      vertex 102.665 8.0374 10
      vertex 103.145 -7.22631 10
      vertex 103.145 7.22631 10
    endloop
  endfacet
  facet normal 0 0 1
    outer loop
      vertex 102.665 8.0374 10
      vertex 102.665 -8.0374 10
      vertex 103.145 -7.22631 10
    endloop
  endfacet
  facet normal 0 0 1
    outer loop
      vertex 102.135 8.81678 10
      vertex 102.665 -8.0374 10
      vertex 102.665 8.0374 10
    endloop
  endfacet
  facet normal 0 0 1
    outer loop
      vertex 102.135 8.81678 10
      vertex 102.135 -8.81678 10
      vertex 102.665 -8.0374 10
    endloop
  endfacet
  facet normal 0 0 1
    outer loop
      vertex 101.558 9.56136 10
      vertex 102.135 -8.81678 10
      vertex 102.135 8.81678 10
    endloop
  endfacet
  facet normal 0 0 1
    outer loop
      vertex 101.558 9.56136 10
      vertex 101.558 -9.56136 10
      vertex 102.135 -8.81678 10
    endloop
  endfacet
  facet normal 0 0 1
    outer loop
      vertex 100.935 10.2682 10
      vertex 101.558 -9.56136 10
      vertex 101.558 9.56136 10
    endloop
  endfacet
  facet normal 0 0 1
    outer loop
      vertex 100.935 10.2682 10
      vertex 100.935 -10.2682 10
      vertex 101.558 -9.56136 10
    endloop
  endfacet
  facet normal 0 0 1
    outer loop
      vertex 100.268 10.9345 10
      vertex 100.935 -10.2682 10
      vertex 100.935 10.2682 10
    endloop
  endfacet
  facet normal 0 0 1
    outer loop
      vertex 100.268 10.9345 10
      vertex 100.268 -10.9345 10
      vertex 100.935 -10.2682 10
    endloop
  endfacet
  facet normal 0 0 1
    outer loop
      vertex 99.5614 11.5577 10
      vertex 100.268 -10.9345 10
      vertex 100.268 10.9345 10
    endloop
  endfacet
  facet normal 0 0 1
    outer loop
      vertex 99.5614 11.5577 10
      vertex 99.5614 -11.5577 10
      vertex 100.268 -10.9345 10
    endloop
  endfacet
  facet normal 0 0 1
    outer loop
      vertex 98.8168 12.1353 10
      vertex 99.5614 -11.5577 10
      vertex 99.5614 11.5577 10
    endloop
  endfacet
  facet normal 0 0 1
    outer loop
      vertex 98.8168 12.1353 10
      vertex 98.8168 -12.1353 10
      vertex 99.5614 -11.5577 10
    endloop
  endfacet
  facet normal 0 0 1
    outer loop
      vertex 98.0374 12.6649 10
      vertex 98.8168 -12.1353 10
      vertex 98.8168 12.1353 10
    endloop
  endfacet
  facet normal 0 0 1
    outer loop
      vertex 98.0374 12.6649 10
      vertex 98.0374 -12.6649 10
      vertex 98.8168 -12.1353 10
    endloop
  endfacet
  facet normal 0 0 1
    outer loop
      vertex 97.2263 13.1446 10
      vertex 98.0374 -12.6649 10
      vertex 98.0374 12.6649 10
    endloop
  endfacet
  facet normal 0 0 1
    outer loop
      vertex 97.2263 13.1446 10
      vertex 97.2263 -13.1446 10
      vertex 98.0374 -12.6649 10
    endloop
  endfacet
  facet normal 0 0 1
    outer loop
      vertex 96.3867 13.5724 10
      vertex 97.2263 -13.1446 10
      vertex 97.2263 13.1446 10
    endloop
  endfacet
  facet normal 0 0 1
    outer loop
      vertex 96.3867 13.5724 10
      vertex 96.3867 -13.5724 10
      vertex 97.2263 -13.1446 10
    endloop
  endfacet
  facet normal 0 0 1
    outer loop
      vertex 95.5219 13.9466 10
      vertex 96.3867 -13.5724 10
      vertex 96.3867 13.5724 10
    endloop
  endfacet
  facet normal 0 0 1
    outer loop
      vertex 95.5219 13.9466 10
      vertex 95.5219 -13.9466 10
      vertex 96.3867 -13.5724 10
    endloop
  endfacet
  facet normal 0 0 1
    outer loop
      vertex 94.6353 14.2658 10
      vertex 95.5219 -13.9466 10
      vertex 95.5219 13.9466 10
    endloop
  endfacet
  facet normal 0 0 1
    outer loop
      vertex 94.6353 14.2658 10
      vertex 94.6353 -14.2658 10
      vertex 95.5219 -13.9466 10
    endloop
  endfacet
  facet normal 0 0 1
    outer loop
      vertex 93.7303 14.5287 10
      vertex 94.6353 -14.2658 10
      vertex 94.6353 14.2658 10
    endloop
  endfacet
  facet normal 0 0 1
    outer loop
      vertex 93.7303 14.5287 10
      vertex 93.7303 -14.5287 10
      vertex 94.6353 -14.2658 10
    endloop
  endfacet
  facet normal 0 0 1
    outer loop
      vertex 92.8107 14.7343 10
      vertex 93.7303 -14.5287 10
      vertex 93.7303 14.5287 10
    endloop
  endfacet
  facet normal 0 0 1
    outer loop
      vertex 92.8107 14.7343 10
      vertex 92.8107 -14.7343 10
      vertex 93.7303 -14.5287 10
    endloop
  endfacet
  facet normal 0 0 1
    outer loop
      vertex 91.88 14.8817 10
      vertex 92.8107 -14.7343 10
      vertex 92.8107 14.7343 10
    endloop
  endfacet
  facet normal 0 0 1
    outer loop
      vertex 91.88 14.8817 10
      vertex 91.88 -14.8817 10
      vertex 92.8107 -14.7343 10
    endloop
  endfacet
  facet normal 0 0 1
    outer loop
      vertex 90.9419 14.9704 10
      vertex 91.88 -14.8817 10
      vertex 91.88 14.8817 10
    endloop
  endfacet
  facet normal 0 0 1
    outer loop
      vertex 90.9419 14.9704 10
      vertex 90.9419 -14.9704 10
      vertex 91.88 -14.8817 10
    endloop
  endfacet
  facet normal 0 0 1
    outer loop
      vertex 90 15 10
      vertex 90.9419 -14.9704 10
      vertex 90.9419 14.9704 10
    endloop
  endfacet
  facet normal 0 0 1
    outer loop
      vertex 90 15 10
      vertex 90 -15 10
      vertex 90.9419 -14.9704 10
    endloop
  endfacet
  facet normal -0 0 1
    outer loop
      vertex 89.0581 14.9704 10
      vertex 90 -15 10
      vertex 90 15 10
    endloop
  endfacet
  facet normal 0 0 1
    outer loop
      vertex 89.0581 14.9704 10
      vertex 89.0581 -14.9704 10
      vertex 90 -15 10
    endloop
  endfacet
  facet normal -0 0 1
    outer loop
      vertex 88.12 14.8817 10
      vertex 89.0581 -14.9704 10
      vertex 89.0581 14.9704 10
    endloop
  endfacet
  facet normal 0 0 1
    outer loop
      vertex 88.12 14.8817 10
      vertex 88.12 -14.8817 10
      vertex 89.0581 -14.9704 10
    endloop
  endfacet
  facet normal -0 0 1
    outer loop
      vertex 87.1893 14.7343 10
      vertex 88.12 -14.8817 10
      vertex 88.12 14.8817 10
    endloop
  endfacet
  facet normal 0 0 1
    outer loop
      vertex 87.1893 14.7343 10
      vertex 87.1893 -14.7343 10
      vertex 88.12 -14.8817 10
    endloop
  endfacet
  facet normal -0 0 1
    outer loop
      vertex 86.2697 14.5287 10
      vertex 87.1893 -14.7343 10
      vertex 87.1893 14.7343 10
    endloop
  endfacet
  facet normal 0 0 1
    outer loop
      vertex 86.2697 14.5287 10
      vertex 86.2697 -14.5287 10
      vertex 87.1893 -14.7343 10
    endloop
  endfacet
  facet normal -0 0 1
    outer loop
      vertex 85.3647 14.2658 10
      vertex 86.2697 -14.5287 10
      vertex 86.2697 14.5287 10
    endloop
  endfacet
  facet normal 0 0 1
    outer loop
      vertex 85.3647 14.2658 10
      vertex 85.3647 -14.2658 10
      vertex 86.2697 -14.5287 10
    endloop
  endfacet
  facet normal -0 0 1
    outer loop
      vertex 84.4781 13.9466 10
      vertex 85.3647 -14.2658 10
      vertex 85.3647 14.2658 10
    endloop
  endfacet
  facet normal 0 0 1
    outer loop
      vertex 84.4781 13.9466 10
      vertex 84.4781 -13.9466 10
      vertex 85.3647 -14.2658 10
    endloop
  endfacet
  facet normal -0 0 1
    outer loop
      vertex 83.6133 13.5724 10
      vertex 84.4781 -13.9466 10
      vertex 84.4781 13.9466 10
    endloop
  endfacet
  facet normal 0 0 1
    outer loop
      vertex 83.6133 13.5724 10
      vertex 83.6133 -13.5724 10
      vertex 84.4781 -13.9466 10
    endloop
  endfacet
  facet normal -0 0 1
    outer loop
      vertex 82.7737 13.1446 10
      vertex 83.6133 -13.5724 10
      vertex 83.6133 13.5724 10
    endloop
  endfacet
  facet normal 0 0 1
    outer loop
      vertex 82.7737 13.1446 10
      vertex 82.7737 -13.1446 10
      vertex 83.6133 -13.5724 10
    endloop
  endfacet
  facet normal -0 0 1
    outer loop
      vertex 81.9626 12.6649 10
      vertex 82.7737 -13.1446 10
      vertex 82.7737 13.1446 10
    endloop
  endfacet
  facet normal 0 0 1
    outer loop
      vertex 81.9626 12.6649 10
      vertex 81.9626 -12.6649 10
      vertex 82.7737 -13.1446 10
    endloop
  endfacet
  facet normal -0 0 1
    outer loop
      vertex 81.1832 12.1353 10
      vertex 81.9626 -12.6649 10
      vertex 81.9626 12.6649 10
    endloop
  endfacet
  facet normal 0 0 1
    outer loop
      vertex 81.1832 12.1353 10
      vertex 81.1832 -12.1353 10
      vertex 81.9626 -12.6649 10
    endloop
  endfacet
  facet normal -0 0 1
    outer loop
      vertex 80.4386 11.5577 10
      vertex 81.1832 -12.1353 10
      vertex 81.1832 12.1353 10
    endloop
  endfacet
  facet normal 0 0 1
    outer loop
      vertex 80.4386 11.5577 10
      vertex 80.4386 -11.5577 10
      vertex 81.1832 -12.1353 10
    endloop
  endfacet
  facet normal -0 0 1
    outer loop
      vertex 79.7318 10.9345 10
      vertex 80.4386 -11.5577 10
      vertex 80.4386 11.5577 10
    endloop
  endfacet
  facet normal 0 0 1
    outer loop
      vertex 79.7318 10.9345 10
      vertex 79.7318 -10.9345 10
      vertex 80.4386 -11.5577 10
    endloop
  endfacet
  facet normal -0 0 1
    outer loop
      vertex 79.0655 10.2682 10
      vertex 79.7318 -10.9345 10
      vertex 79.7318 10.9345 10
    endloop
  endfacet
  facet normal 0 0 1
    outer loop
      vertex 79.0655 10.2682 10
      vertex 79.0655 -10.2682 10
      vertex 79.7318 -10.9345 10
    endloop
  endfacet
  facet normal -0 0 1
    outer loop
      vertex 78.4423 9.56136 10
      vertex 79.0655 -10.2682 10
      vertex 79.0655 10.2682 10
    endloop
  endfacet
  facet normal 0 0 1
    outer loop
      vertex 78.4423 9.56136 10
      vertex 78.4423 -9.56136 10
      vertex 79.0655 -10.2682 10
    endloop
  endfacet
  facet normal -0 0 1
    outer loop
      vertex 77.8647 8.81678 10
      vertex 78.4423 -9.56136 10
      vertex 78.4423 9.56136 10
    endloop
  endfacet
  facet normal 0 0 1
    outer loop
      vertex 77.8647 8.81678 10
      vertex 77.8647 -8.81678 10
      vertex 78.4423 -9.56136 10
    endloop
  endfacet
  facet normal -0 0 1
    outer loop
      vertex 77.3351 8.0374 10
      vertex 77.8647 -8.81678 10
      vertex 77.8647 8.81678 10
    endloop
  endfacet
  facet normal 0 0 1
    outer loop
      vertex 77.3351 8.0374 10
      vertex 77.3351 -8.0374 10
      vertex 77.8647 -8.81678 10
    endloop
  endfacet
  facet normal -0 0 1
    outer loop
      vertex 76.8554 7.22631 10
      vertex 77.3351 -8.0374 10
      vertex 77.3351 8.0374 10
    endloop
  endfacet
  facet normal 0 0 1
    outer loop
      vertex 76.8554 7.22631 10
      vertex 76.8554 -7.22631 10
      vertex 77.3351 -8.0374 10
    endloop
  endfacet
  facet normal -0 0 1
    outer loop
      vertex 76.4276 6.38669 10
      vertex 76.8554 -7.22631 10
      vertex 76.8554 7.22631 10
    endloop
  endfacet
  facet normal 0 0 1
    outer loop
      vertex 76.4276 6.38669 10
      vertex 76.4276 -6.38669 10
      vertex 76.8554 -7.22631 10
    endloop
  endfacet
  facet normal -0 0 1
    outer loop
      vertex 76.0534 5.52187 10
      vertex 76.4276 -6.38669 10
      vertex 76.4276 6.38669 10
    endloop
  endfacet
  facet normal 0 0 1
    outer loop
      vertex 76.0534 5.52187 10
      vertex 76.0534 -5.52187 10
      vertex 76.4276 -6.38669 10
    endloop
  endfacet
  facet normal -0 0 1
    outer loop
      vertex 75.7342 4.63525 10
      vertex 76.0534 -5.52187 10
      vertex 76.0534 5.52187 10
    endloop
  endfacet
  facet normal 0 0 1
    outer loop
      vertex 75.7342 4.63525 10
      vertex 75.7342 -4.63525 10
      vertex 76.0534 -5.52187 10
    endloop
  endfacet
  facet normal -0 0 1
    outer loop
      vertex 75.4713 3.73035 10
      vertex 75.7342 -4.63525 10
      vertex 75.7342 4.63525 10
    endloop
  endfacet
  facet normal 0 0 1
    outer loop
      vertex 75.4713 3.73035 10
      vertex 75.4713 -3.73035 10
      vertex 75.7342 -4.63525 10
    endloop
  endfacet
  facet normal -0 0 1
    outer loop
      vertex 75.2657 2.81072 10
      vertex 75.4713 -3.73035 10
      vertex 75.4713 3.73035 10
    endloop
  endfacet
  facet normal 0 0 1
    outer loop
      vertex 75.2657 2.81072 10
      vertex 75.2657 -2.81072 10
      vertex 75.4713 -3.73035 10
    endloop
  endfacet
  facet normal -0 0 1
    outer loop
      vertex 75.1183 1.88 10
      vertex 75.2657 -2.81072 10
      vertex 75.2657 2.81072 10
    endloop
  endfacet
  facet normal 0 0 1
    outer loop
      vertex 75.1183 1.88 10
      vertex 75.1183 -1.88 10
      vertex 75.2657 -2.81072 10
    endloop
  endfacet
  facet normal -0 0 1
    outer loop
      vertex 75.0296 0.941858 10
      vertex 75.1183 -1.88 10
      vertex 75.1183 1.88 10
    endloop
  endfacet
  facet normal 0 0 1
    outer loop
      vertex 75.0296 0.941858 10
      vertex 75.0296 -0.941858 10
      vertex 75.1183 -1.88 10
    endloop
  endfacet
  facet normal 0 -0 1
    outer loop
      vertex 75.0296 -0.941858 10
      vertex 75.0296 0.941858 10
      vertex 75 0 10
    endloop
  endfacet
endsolid OpenSCAD_Model
