solid OpenSCAD_Model
  facet normal 0.999507 0.0314103 0
    outer loop
      vertex 82.5 32 10
      vertex 82.4704 32.9419 -10
      vertex 82.4704 32.9419 10
    endloop
  endfacet
  facet normal 0.999507 0.0314103 0
    outer loop
      vertex 82.4704 32.9419 -10
      vertex 82.5 32 10
      vertex 82.5 32 -10
    endloop
  endfacet
  facet normal 0.99556 0.094133 0
    outer loop
      vertex 82.4704 32.9419 10
      vertex 82.3817 33.88 -10
      vertex 82.3817 33.88 10
    endloop
  endfacet
  facet normal 0.99556 0.094133 0
    outer loop
      vertex 82.3817 33.88 -10
      vertex 82.4704 32.9419 10
      vertex 82.4704 32.9419 -10
    endloop
  endfacet
  facet normal 0.98769 0.156426 0
    outer loop
      vertex 82.3817 33.88 10
      vertex 82.2343 34.8107 -10
      vertex 82.2343 34.8107 10
    endloop
  endfacet
  facet normal 0.98769 0.156426 0
    outer loop
      vertex 82.2343 34.8107 -10
      vertex 82.3817 33.88 10
      vertex 82.3817 33.88 -10
    endloop
  endfacet
  facet normal 0.975907 0.218189 0
    outer loop
      vertex 82.2343 34.8107 10
      vertex 82.0287 35.7303 -10
      vertex 82.0287 35.7303 10
    endloop
  endfacet
  facet normal 0.975907 0.218189 0
    outer loop
      vertex 82.0287 35.7303 -10
      vertex 82.2343 34.8107 10
      vertex 82.2343 34.8107 -10
    endloop
  endfacet
  facet normal 0.960301 0.278965 0
    outer loop
      vertex 82.0287 35.7303 10
      vertex 81.7658 36.6353 -10
      vertex 81.7658 36.6353 10
    endloop
  endfacet
  facet normal 0.960301 0.278965 0
    outer loop
      vertex 81.7658 36.6353 -10
      vertex 82.0287 35.7303 10
      vertex 82.0287 35.7303 -10
    endloop
  endfacet
  facet normal 0.940879 0.338742 0
    outer loop
      vertex 81.7658 36.6353 10
      vertex 81.4466 37.5219 -10
      vertex 81.4466 37.5219 10
    endloop
  endfacet
  facet normal 0.940879 0.338742 0
    outer loop
      vertex 81.4466 37.5219 -10
      vertex 81.7658 36.6353 10
      vertex 81.7658 36.6353 -10
    endloop
  endfacet
  facet normal 0.917767 0.397119 0
    outer loop
      vertex 81.4466 37.5219 10
      vertex 81.0724 38.3867 -10
      vertex 81.0724 38.3867 10
    endloop
  endfacet
  facet normal 0.917767 0.397119 0
    outer loop
      vertex 81.0724 38.3867 -10
      vertex 81.4466 37.5219 10
      vertex 81.4466 37.5219 -10
    endloop
  endfacet
  facet normal 0.891005 0.453993 0
    outer loop
      vertex 81.0724 38.3867 10
      vertex 80.6446 39.2263 -10
      vertex 80.6446 39.2263 10
    endloop
  endfacet
  facet normal 0.891005 0.453993 0
    outer loop
      vertex 80.6446 39.2263 -10
      vertex 81.0724 38.3867 10
      vertex 81.0724 38.3867 -10
    endloop
  endfacet
  facet normal 0.860734 0.509055 0
    outer loop
      vertex 80.6446 39.2263 10
      vertex 80.1649 40.0374 -10
      vertex 80.1649 40.0374 10
    endloop
  endfacet
  facet normal 0.860734 0.509055 0
    outer loop
      vertex 80.1649 40.0374 -10
      vertex 80.6446 39.2263 10
      vertex 80.6446 39.2263 -10
    endloop
  endfacet
  facet normal 0.82712 0.562026 0
    outer loop
      vertex 80.1649 40.0374 10
      vertex 79.6353 40.8168 -10
      vertex 79.6353 40.8168 10
    endloop
  endfacet
  facet normal 0.82712 0.562026 0
    outer loop
      vertex 79.6353 40.8168 -10
      vertex 80.1649 40.0374 10
      vertex 80.1649 40.0374 -10
    endloop
  endfacet
  facet normal 0.79014 0.612926 0
    outer loop
      vertex 79.6353 40.8168 10
      vertex 79.0577 41.5614 -10
      vertex 79.0577 41.5614 10
    endloop
  endfacet
  facet normal 0.79014 0.612926 0
    outer loop
      vertex 79.0577 41.5614 -10
      vertex 79.6353 40.8168 10
      vertex 79.6353 40.8168 -10
    endloop
  endfacet
  facet normal 0.750073 0.661355 0
    outer loop
      vertex 79.0577 41.5614 10
      vertex 78.4345 42.2682 -10
      vertex 78.4345 42.2682 10
    endloop
  endfacet
  facet normal 0.750073 0.661355 0
    outer loop
      vertex 78.4345 42.2682 -10
      vertex 79.0577 41.5614 10
      vertex 79.0577 41.5614 -10
    endloop
  endfacet
  facet normal 0.707107 0.707107 -0
    outer loop
      vertex 78.4345 42.2682 -10
      vertex 77.7682 42.9345 10
      vertex 78.4345 42.2682 10
    endloop
  endfacet
  facet normal 0.707107 0.707107 0
    outer loop
      vertex 77.7682 42.9345 10
      vertex 78.4345 42.2682 -10
      vertex 77.7682 42.9345 -10
    endloop
  endfacet
  facet normal 0.661355 0.750073 -0
    outer loop
      vertex 77.7682 42.9345 -10
      vertex 77.0614 43.5577 10
      vertex 77.7682 42.9345 10
    endloop
  endfacet
  facet normal 0.661355 0.750073 0
    outer loop
      vertex 77.0614 43.5577 10
      vertex 77.7682 42.9345 -10
      vertex 77.0614 43.5577 -10
    endloop
  endfacet
  facet normal 0.612926 0.79014 -0
    outer loop
      vertex 77.0614 43.5577 -10
      vertex 76.3168 44.1353 10
      vertex 77.0614 43.5577 10
    endloop
  endfacet
  facet normal 0.612926 0.79014 0
    outer loop
      vertex 76.3168 44.1353 10
      vertex 77.0614 43.5577 -10
      vertex 76.3168 44.1353 -10
    endloop
  endfacet
  facet normal 0.562026 0.82712 -0
    outer loop
      vertex 76.3168 44.1353 -10
      vertex 75.5374 44.6649 10
      vertex 76.3168 44.1353 10
    endloop
  endfacet
  facet normal 0.562026 0.82712 0
    outer loop
      vertex 75.5374 44.6649 10
      vertex 76.3168 44.1353 -10
      vertex 75.5374 44.6649 -10
    endloop
  endfacet
  facet normal 0.509055 0.860734 -0
    outer loop
      vertex 75.5374 44.6649 -10
      vertex 74.7263 45.1446 10
      vertex 75.5374 44.6649 10
    endloop
  endfacet
  facet normal 0.509055 0.860734 0
    outer loop
      vertex 74.7263 45.1446 10
      vertex 75.5374 44.6649 -10
      vertex 74.7263 45.1446 -10
    endloop
  endfacet
  facet normal 0.453993 0.891005 -0
    outer loop
      vertex 74.7263 45.1446 -10
      vertex 73.8867 45.5724 10
      vertex 74.7263 45.1446 10
    endloop
  endfacet
  facet normal 0.453993 0.891005 0
    outer loop
      vertex 73.8867 45.5724 10
      vertex 74.7263 45.1446 -10
      vertex 73.8867 45.5724 -10
    endloop
  endfacet
  facet normal 0.397119 0.917767 -0
    outer loop
      vertex 73.8867 45.5724 -10
      vertex 73.0219 45.9466 10
      vertex 73.8867 45.5724 10
    endloop
  endfacet
  facet normal 0.397119 0.917767 0
    outer loop
      vertex 73.0219 45.9466 10
      vertex 73.8867 45.5724 -10
      vertex 73.0219 45.9466 -10
    endloop
  endfacet
  facet normal 0.338742 0.940879 -0
    outer loop
      vertex 73.0219 45.9466 -10
      vertex 72.1353 46.2658 10
      vertex 73.0219 45.9466 10
    endloop
  endfacet
  facet normal 0.338742 0.940879 0
    outer loop
      vertex 72.1353 46.2658 10
      vertex 73.0219 45.9466 -10
      vertex 72.1353 46.2658 -10
    endloop
  endfacet
  facet normal 0.278965 0.960301 -0
    outer loop
      vertex 72.1353 46.2658 -10
      vertex 71.2303 46.5287 10
      vertex 72.1353 46.2658 10
    endloop
  endfacet
  facet normal 0.278965 0.960301 0
    outer loop
      vertex 71.2303 46.5287 10
      vertex 72.1353 46.2658 -10
      vertex 71.2303 46.5287 -10
    endloop
  endfacet
  facet normal 0.218189 0.975907 -0
    outer loop
      vertex 71.2303 46.5287 -10
      vertex 70.3107 46.7343 10
      vertex 71.2303 46.5287 10
    endloop
  endfacet
  facet normal 0.218189 0.975907 0
    outer loop
      vertex 70.3107 46.7343 10
      vertex 71.2303 46.5287 -10
      vertex 70.3107 46.7343 -10
    endloop
  endfacet
  facet normal 0.156426 0.98769 -0
    outer loop
      vertex 70.3107 46.7343 -10
      vertex 69.38 46.8817 10
      vertex 70.3107 46.7343 10
    endloop
  endfacet
  facet normal 0.156426 0.98769 0
    outer loop
      vertex 69.38 46.8817 10
      vertex 70.3107 46.7343 -10
      vertex 69.38 46.8817 -10
    endloop
  endfacet
  facet normal 0.094133 0.99556 -0
    outer loop
      vertex 69.38 46.8817 -10
      vertex 68.4419 46.9704 10
      vertex 69.38 46.8817 10
    endloop
  endfacet
  facet normal 0.094133 0.99556 0
    outer loop
      vertex 68.4419 46.9704 10
      vertex 69.38 46.8817 -10
      vertex 68.4419 46.9704 -10
    endloop
  endfacet
  facet normal 0.0314103 0.999507 -0
    outer loop
      vertex 68.4419 46.9704 -10
      vertex 67.5 47 10
      vertex 68.4419 46.9704 10
    endloop
  endfacet
  facet normal 0.0314103 0.999507 0
    outer loop
      vertex 67.5 47 10
      vertex 68.4419 46.9704 -10
      vertex 67.5 47 -10
    endloop
  endfacet
  facet normal -0.0314103 0.999507 0
    outer loop
      vertex 67.5 47 -10
      vertex 66.5581 46.9704 10
      vertex 67.5 47 10
    endloop
  endfacet
  facet normal -0.0314103 0.999507 0
    outer loop
      vertex 66.5581 46.9704 10
      vertex 67.5 47 -10
      vertex 66.5581 46.9704 -10
    endloop
  endfacet
  facet normal -0.094133 0.99556 0
    outer loop
      vertex 66.5581 46.9704 -10
      vertex 65.62 46.8817 10
      vertex 66.5581 46.9704 10
    endloop
  endfacet
  facet normal -0.094133 0.99556 0
    outer loop
      vertex 65.62 46.8817 10
      vertex 66.5581 46.9704 -10
      vertex 65.62 46.8817 -10
    endloop
  endfacet
  facet normal -0.156426 0.98769 0
    outer loop
      vertex 65.62 46.8817 -10
      vertex 64.6893 46.7343 10
      vertex 65.62 46.8817 10
    endloop
  endfacet
  facet normal -0.156426 0.98769 0
    outer loop
      vertex 64.6893 46.7343 10
      vertex 65.62 46.8817 -10
      vertex 64.6893 46.7343 -10
    endloop
  endfacet
  facet normal -0.218189 0.975907 0
    outer loop
      vertex 64.6893 46.7343 -10
      vertex 63.7697 46.5287 10
      vertex 64.6893 46.7343 10
    endloop
  endfacet
  facet normal -0.218189 0.975907 0
    outer loop
      vertex 63.7697 46.5287 10
      vertex 64.6893 46.7343 -10
      vertex 63.7697 46.5287 -10
    endloop
  endfacet
  facet normal -0.278965 0.960301 0
    outer loop
      vertex 63.7697 46.5287 -10
      vertex 62.8647 46.2658 10
      vertex 63.7697 46.5287 10
    endloop
  endfacet
  facet normal -0.278965 0.960301 0
    outer loop
      vertex 62.8647 46.2658 10
      vertex 63.7697 46.5287 -10
      vertex 62.8647 46.2658 -10
    endloop
  endfacet
  facet normal -0.338742 0.940879 0
    outer loop
      vertex 62.8647 46.2658 -10
      vertex 61.9781 45.9466 10
      vertex 62.8647 46.2658 10
    endloop
  endfacet
  facet normal -0.338742 0.940879 0
    outer loop
      vertex 61.9781 45.9466 10
      vertex 62.8647 46.2658 -10
      vertex 61.9781 45.9466 -10
    endloop
  endfacet
  facet normal -0.397119 0.917767 0
    outer loop
      vertex 61.9781 45.9466 -10
      vertex 61.1133 45.5724 10
      vertex 61.9781 45.9466 10
    endloop
  endfacet
  facet normal -0.397119 0.917767 0
    outer loop
      vertex 61.1133 45.5724 10
      vertex 61.9781 45.9466 -10
      vertex 61.1133 45.5724 -10
    endloop
  endfacet
  facet normal -0.453993 0.891005 0
    outer loop
      vertex 61.1133 45.5724 -10
      vertex 60.2737 45.1446 10
      vertex 61.1133 45.5724 10
    endloop
  endfacet
  facet normal -0.453993 0.891005 0
    outer loop
      vertex 60.2737 45.1446 10
      vertex 61.1133 45.5724 -10
      vertex 60.2737 45.1446 -10
    endloop
  endfacet
  facet normal -0.509055 0.860734 0
    outer loop
      vertex 60.2737 45.1446 -10
      vertex 59.4626 44.6649 10
      vertex 60.2737 45.1446 10
    endloop
  endfacet
  facet normal -0.509055 0.860734 0
    outer loop
      vertex 59.4626 44.6649 10
      vertex 60.2737 45.1446 -10
      vertex 59.4626 44.6649 -10
    endloop
  endfacet
  facet normal -0.562026 0.82712 0
    outer loop
      vertex 59.4626 44.6649 -10
      vertex 58.6832 44.1353 10
      vertex 59.4626 44.6649 10
    endloop
  endfacet
  facet normal -0.562026 0.82712 0
    outer loop
      vertex 58.6832 44.1353 10
      vertex 59.4626 44.6649 -10
      vertex 58.6832 44.1353 -10
    endloop
  endfacet
  facet normal -0.612926 0.79014 0
    outer loop
      vertex 58.6832 44.1353 -10
      vertex 57.9386 43.5577 10
      vertex 58.6832 44.1353 10
    endloop
  endfacet
  facet normal -0.612926 0.79014 0
    outer loop
      vertex 57.9386 43.5577 10
      vertex 58.6832 44.1353 -10
      vertex 57.9386 43.5577 -10
    endloop
  endfacet
  facet normal -0.661355 0.750073 0
    outer loop
      vertex 57.9386 43.5577 -10
      vertex 57.2318 42.9345 10
      vertex 57.9386 43.5577 10
    endloop
  endfacet
  facet normal -0.661355 0.750073 0
    outer loop
      vertex 57.2318 42.9345 10
      vertex 57.9386 43.5577 -10
      vertex 57.2318 42.9345 -10
    endloop
  endfacet
  facet normal -0.707107 0.707107 0
    outer loop
      vertex 56.5655 42.2682 -10
      vertex 57.2318 42.9345 10
      vertex 57.2318 42.9345 -10
    endloop
  endfacet
  facet normal -0.707107 0.707107 0
    outer loop
      vertex 57.2318 42.9345 10
      vertex 56.5655 42.2682 -10
      vertex 56.5655 42.2682 10
    endloop
  endfacet
  facet normal -0.750073 0.661355 0
    outer loop
      vertex 55.9423 41.5614 -10
      vertex 56.5655 42.2682 10
      vertex 56.5655 42.2682 -10
    endloop
  endfacet
  facet normal -0.750073 0.661355 0
    outer loop
      vertex 56.5655 42.2682 10
      vertex 55.9423 41.5614 -10
      vertex 55.9423 41.5614 10
    endloop
  endfacet
  facet normal -0.79014 0.612926 0
    outer loop
      vertex 55.3647 40.8168 -10
      vertex 55.9423 41.5614 10
      vertex 55.9423 41.5614 -10
    endloop
  endfacet
  facet normal -0.79014 0.612926 0
    outer loop
      vertex 55.9423 41.5614 10
      vertex 55.3647 40.8168 -10
      vertex 55.3647 40.8168 10
    endloop
  endfacet
  facet normal -0.82712 0.562026 0
    outer loop
      vertex 54.8351 40.0374 -10
      vertex 55.3647 40.8168 10
      vertex 55.3647 40.8168 -10
    endloop
  endfacet
  facet normal -0.82712 0.562026 0
    outer loop
      vertex 55.3647 40.8168 10
      vertex 54.8351 40.0374 -10
      vertex 54.8351 40.0374 10
    endloop
  endfacet
  facet normal -0.860734 0.509055 0
    outer loop
      vertex 54.3554 39.2263 -10
      vertex 54.8351 40.0374 10
      vertex 54.8351 40.0374 -10
    endloop
  endfacet
  facet normal -0.860734 0.509055 0
    outer loop
      vertex 54.8351 40.0374 10
      vertex 54.3554 39.2263 -10
      vertex 54.3554 39.2263 10
    endloop
  endfacet
  facet normal -0.891005 0.453993 0
    outer loop
      vertex 53.9276 38.3867 -10
      vertex 54.3554 39.2263 10
      vertex 54.3554 39.2263 -10
    endloop
  endfacet
  facet normal -0.891005 0.453993 0
    outer loop
      vertex 54.3554 39.2263 10
      vertex 53.9276 38.3867 -10
      vertex 53.9276 38.3867 10
    endloop
  endfacet
  facet normal -0.917767 0.397119 0
    outer loop
      vertex 53.5534 37.5219 -10
      vertex 53.9276 38.3867 10
      vertex 53.9276 38.3867 -10
    endloop
  endfacet
  facet normal -0.917767 0.397119 0
    outer loop
      vertex 53.9276 38.3867 10
      vertex 53.5534 37.5219 -10
      vertex 53.5534 37.5219 10
    endloop
  endfacet
  facet normal -0.940879 0.338742 0
    outer loop
      vertex 53.2342 36.6353 -10
      vertex 53.5534 37.5219 10
      vertex 53.5534 37.5219 -10
    endloop
  endfacet
  facet normal -0.940879 0.338742 0
    outer loop
      vertex 53.5534 37.5219 10
      vertex 53.2342 36.6353 -10
      vertex 53.2342 36.6353 10
    endloop
  endfacet
  facet normal -0.960301 0.278965 0
    outer loop
      vertex 52.9713 35.7303 -10
      vertex 53.2342 36.6353 10
      vertex 53.2342 36.6353 -10
    endloop
  endfacet
  facet normal -0.960301 0.278965 0
    outer loop
      vertex 53.2342 36.6353 10
      vertex 52.9713 35.7303 -10
      vertex 52.9713 35.7303 10
    endloop
  endfacet
  facet normal -0.975907 0.218189 0
    outer loop
      vertex 52.7657 34.8107 -10
      vertex 52.9713 35.7303 10
      vertex 52.9713 35.7303 -10
    endloop
  endfacet
  facet normal -0.975907 0.218189 0
    outer loop
      vertex 52.9713 35.7303 10
      vertex 52.7657 34.8107 -10
      vertex 52.7657 34.8107 10
    endloop
  endfacet
  facet normal -0.98769 0.156426 0
    outer loop
      vertex 52.6183 33.88 -10
      vertex 52.7657 34.8107 10
      vertex 52.7657 34.8107 -10
    endloop
  endfacet
  facet normal -0.98769 0.156426 0
    outer loop
      vertex 52.7657 34.8107 10
      vertex 52.6183 33.88 -10
      vertex 52.6183 33.88 10
    endloop
  endfacet
  facet normal -0.99556 0.094133 0
    outer loop
      vertex 52.5296 32.9419 -10
      vertex 52.6183 33.88 10
      vertex 52.6183 33.88 -10
    endloop
  endfacet
  facet normal -0.99556 0.094133 0
    outer loop
      vertex 52.6183 33.88 10
      vertex 52.5296 32.9419 -10
      vertex 52.5296 32.9419 10
    endloop
  endfacet
  facet normal -0.999507 0.0314103 0
    outer loop
      vertex 52.5 32 -10
      vertex 52.5296 32.9419 10
      vertex 52.5296 32.9419 -10
    endloop
  endfacet
  facet normal -0.999507 0.0314103 0
    outer loop
      vertex 52.5296 32.9419 10
      vertex 52.5 32 -10
      vertex 52.5 32 10
    endloop
  endfacet
  facet normal -0.999507 -0.0314103 0
    outer loop
      vertex 52.5296 31.0581 -10
      vertex 52.5 32 10
      vertex 52.5 32 -10
    endloop
  endfacet
  facet normal -0.999507 -0.0314103 0
    outer loop
      vertex 52.5 32 10
      vertex 52.5296 31.0581 -10
      vertex 52.5296 31.0581 10
    endloop
  endfacet
  facet normal -0.99556 -0.094133 0
    outer loop
      vertex 52.6183 30.12 -10
      vertex 52.5296 31.0581 10
      vertex 52.5296 31.0581 -10
    endloop
  endfacet
  facet normal -0.99556 -0.094133 0
    outer loop
      vertex 52.5296 31.0581 10
      vertex 52.6183 30.12 -10
      vertex 52.6183 30.12 10
    endloop
  endfacet
  facet normal -0.98769 -0.156426 0
    outer loop
      vertex 52.7657 29.1893 -10
      vertex 52.6183 30.12 10
      vertex 52.6183 30.12 -10
    endloop
  endfacet
  facet normal -0.98769 -0.156426 0
    outer loop
      vertex 52.6183 30.12 10
      vertex 52.7657 29.1893 -10
      vertex 52.7657 29.1893 10
    endloop
  endfacet
  facet normal -0.975907 -0.218189 0
    outer loop
      vertex 52.9713 28.2697 -10
      vertex 52.7657 29.1893 10
      vertex 52.7657 29.1893 -10
    endloop
  endfacet
  facet normal -0.975907 -0.218189 0
    outer loop
      vertex 52.7657 29.1893 10
      vertex 52.9713 28.2697 -10
      vertex 52.9713 28.2697 10
    endloop
  endfacet
  facet normal -0.960301 -0.278965 0
    outer loop
      vertex 53.2342 27.3647 -10
      vertex 52.9713 28.2697 10
      vertex 52.9713 28.2697 -10
    endloop
  endfacet
  facet normal -0.960301 -0.278965 0
    outer loop
      vertex 52.9713 28.2697 10
      vertex 53.2342 27.3647 -10
      vertex 53.2342 27.3647 10
    endloop
  endfacet
  facet normal -0.940879 -0.338742 0
    outer loop
      vertex 53.5534 26.4781 -10
      vertex 53.2342 27.3647 10
      vertex 53.2342 27.3647 -10
    endloop
  endfacet
  facet normal -0.940879 -0.338742 0
    outer loop
      vertex 53.2342 27.3647 10
      vertex 53.5534 26.4781 -10
      vertex 53.5534 26.4781 10
    endloop
  endfacet
  facet normal -0.917767 -0.397119 0
    outer loop
      vertex 53.9276 25.6133 -10
      vertex 53.5534 26.4781 10
      vertex 53.5534 26.4781 -10
    endloop
  endfacet
  facet normal -0.917767 -0.397119 0
    outer loop
      vertex 53.5534 26.4781 10
      vertex 53.9276 25.6133 -10
      vertex 53.9276 25.6133 10
    endloop
  endfacet
  facet normal -0.891005 -0.453993 0
    outer loop
      vertex 54.3554 24.7737 -10
      vertex 53.9276 25.6133 10
      vertex 53.9276 25.6133 -10
    endloop
  endfacet
  facet normal -0.891005 -0.453993 0
    outer loop
      vertex 53.9276 25.6133 10
      vertex 54.3554 24.7737 -10
      vertex 54.3554 24.7737 10
    endloop
  endfacet
  facet normal -0.860734 -0.509055 0
    outer loop
      vertex 54.8351 23.9626 -10
      vertex 54.3554 24.7737 10
      vertex 54.3554 24.7737 -10
    endloop
  endfacet
  facet normal -0.860734 -0.509055 0
    outer loop
      vertex 54.3554 24.7737 10
      vertex 54.8351 23.9626 -10
      vertex 54.8351 23.9626 10
    endloop
  endfacet
  facet normal -0.82712 -0.562026 0
    outer loop
      vertex 55.3647 23.1832 -10
      vertex 54.8351 23.9626 10
      vertex 54.8351 23.9626 -10
    endloop
  endfacet
  facet normal -0.82712 -0.562026 0
    outer loop
      vertex 54.8351 23.9626 10
      vertex 55.3647 23.1832 -10
      vertex 55.3647 23.1832 10
    endloop
  endfacet
  facet normal -0.79014 -0.612926 0
    outer loop
      vertex 55.9423 22.4386 -10
      vertex 55.3647 23.1832 10
      vertex 55.3647 23.1832 -10
    endloop
  endfacet
  facet normal -0.79014 -0.612926 0
    outer loop
      vertex 55.3647 23.1832 10
      vertex 55.9423 22.4386 -10
      vertex 55.9423 22.4386 10
    endloop
  endfacet
  facet normal -0.750073 -0.661355 0
    outer loop
      vertex 56.5655 21.7318 -10
      vertex 55.9423 22.4386 10
      vertex 55.9423 22.4386 -10
    endloop
  endfacet
  facet normal -0.750073 -0.661355 0
    outer loop
      vertex 55.9423 22.4386 10
      vertex 56.5655 21.7318 -10
      vertex 56.5655 21.7318 10
    endloop
  endfacet
  facet normal -0.707107 -0.707107 0
    outer loop
      vertex 57.2318 21.0655 -10
      vertex 56.5655 21.7318 10
      vertex 56.5655 21.7318 -10
    endloop
  endfacet
  facet normal -0.707107 -0.707107 0
    outer loop
      vertex 56.5655 21.7318 10
      vertex 57.2318 21.0655 -10
      vertex 57.2318 21.0655 10
    endloop
  endfacet
  facet normal -0.661355 -0.750073 0
    outer loop
      vertex 57.2318 21.0655 -10
      vertex 57.9386 20.4423 10
      vertex 57.2318 21.0655 10
    endloop
  endfacet
  facet normal -0.661355 -0.750073 -0
    outer loop
      vertex 57.9386 20.4423 10
      vertex 57.2318 21.0655 -10
      vertex 57.9386 20.4423 -10
    endloop
  endfacet
  facet normal -0.612926 -0.79014 0
    outer loop
      vertex 57.9386 20.4423 -10
      vertex 58.6832 19.8647 10
      vertex 57.9386 20.4423 10
    endloop
  endfacet
  facet normal -0.612926 -0.79014 -0
    outer loop
      vertex 58.6832 19.8647 10
      vertex 57.9386 20.4423 -10
      vertex 58.6832 19.8647 -10
    endloop
  endfacet
  facet normal -0.562026 -0.82712 0
    outer loop
      vertex 58.6832 19.8647 -10
      vertex 59.4626 19.3351 10
      vertex 58.6832 19.8647 10
    endloop
  endfacet
  facet normal -0.562026 -0.82712 -0
    outer loop
      vertex 59.4626 19.3351 10
      vertex 58.6832 19.8647 -10
      vertex 59.4626 19.3351 -10
    endloop
  endfacet
  facet normal -0.509055 -0.860734 0
    outer loop
      vertex 59.4626 19.3351 -10
      vertex 60.2737 18.8554 10
      vertex 59.4626 19.3351 10
    endloop
  endfacet
  facet normal -0.509055 -0.860734 -0
    outer loop
      vertex 60.2737 18.8554 10
      vertex 59.4626 19.3351 -10
      vertex 60.2737 18.8554 -10
    endloop
  endfacet
  facet normal -0.453993 -0.891005 0
    outer loop
      vertex 60.2737 18.8554 -10
      vertex 61.1133 18.4276 10
      vertex 60.2737 18.8554 10
    endloop
  endfacet
  facet normal -0.453993 -0.891005 -0
    outer loop
      vertex 61.1133 18.4276 10
      vertex 60.2737 18.8554 -10
      vertex 61.1133 18.4276 -10
    endloop
  endfacet
  facet normal -0.397119 -0.917767 0
    outer loop
      vertex 61.1133 18.4276 -10
      vertex 61.9781 18.0534 10
      vertex 61.1133 18.4276 10
    endloop
  endfacet
  facet normal -0.397119 -0.917767 -0
    outer loop
      vertex 61.9781 18.0534 10
      vertex 61.1133 18.4276 -10
      vertex 61.9781 18.0534 -10
    endloop
  endfacet
  facet normal -0.338742 -0.940879 0
    outer loop
      vertex 61.9781 18.0534 -10
      vertex 62.8647 17.7342 10
      vertex 61.9781 18.0534 10
    endloop
  endfacet
  facet normal -0.338742 -0.940879 -0
    outer loop
      vertex 62.8647 17.7342 10
      vertex 61.9781 18.0534 -10
      vertex 62.8647 17.7342 -10
    endloop
  endfacet
  facet normal -0.278965 -0.960301 0
    outer loop
      vertex 62.8647 17.7342 -10
      vertex 63.7697 17.4713 10
      vertex 62.8647 17.7342 10
    endloop
  endfacet
  facet normal -0.278965 -0.960301 -0
    outer loop
      vertex 63.7697 17.4713 10
      vertex 62.8647 17.7342 -10
      vertex 63.7697 17.4713 -10
    endloop
  endfacet
  facet normal -0.218189 -0.975907 0
    outer loop
      vertex 63.7697 17.4713 -10
      vertex 64.6893 17.2657 10
      vertex 63.7697 17.4713 10
    endloop
  endfacet
  facet normal -0.218189 -0.975907 -0
    outer loop
      vertex 64.6893 17.2657 10
      vertex 63.7697 17.4713 -10
      vertex 64.6893 17.2657 -10
    endloop
  endfacet
  facet normal -0.156426 -0.98769 0
    outer loop
      vertex 64.6893 17.2657 -10
      vertex 65.62 17.1183 10
      vertex 64.6893 17.2657 10
    endloop
  endfacet
  facet normal -0.156426 -0.98769 -0
    outer loop
      vertex 65.62 17.1183 10
      vertex 64.6893 17.2657 -10
      vertex 65.62 17.1183 -10
    endloop
  endfacet
  facet normal -0.094133 -0.99556 0
    outer loop
      vertex 65.62 17.1183 -10
      vertex 66.5581 17.0296 10
      vertex 65.62 17.1183 10
    endloop
  endfacet
  facet normal -0.094133 -0.99556 -0
    outer loop
      vertex 66.5581 17.0296 10
      vertex 65.62 17.1183 -10
      vertex 66.5581 17.0296 -10
    endloop
  endfacet
  facet normal -0.0314103 -0.999507 0
    outer loop
      vertex 66.5581 17.0296 -10
      vertex 67.5 17 10
      vertex 66.5581 17.0296 10
    endloop
  endfacet
  facet normal -0.0314103 -0.999507 -0
    outer loop
      vertex 67.5 17 10
      vertex 66.5581 17.0296 -10
      vertex 67.5 17 -10
    endloop
  endfacet
  facet normal 0.0314103 -0.999507 0
    outer loop
      vertex 67.5 17 -10
      vertex 68.4419 17.0296 10
      vertex 67.5 17 10
    endloop
  endfacet
  facet normal 0.0314103 -0.999507 0
    outer loop
      vertex 68.4419 17.0296 10
      vertex 67.5 17 -10
      vertex 68.4419 17.0296 -10
    endloop
  endfacet
  facet normal 0.094133 -0.99556 0
    outer loop
      vertex 68.4419 17.0296 -10
      vertex 69.38 17.1183 10
      vertex 68.4419 17.0296 10
    endloop
  endfacet
  facet normal 0.094133 -0.99556 0
    outer loop
      vertex 69.38 17.1183 10
      vertex 68.4419 17.0296 -10
      vertex 69.38 17.1183 -10
    endloop
  endfacet
  facet normal 0.156426 -0.98769 0
    outer loop
      vertex 69.38 17.1183 -10
      vertex 70.3107 17.2657 10
      vertex 69.38 17.1183 10
    endloop
  endfacet
  facet normal 0.156426 -0.98769 0
    outer loop
      vertex 70.3107 17.2657 10
      vertex 69.38 17.1183 -10
      vertex 70.3107 17.2657 -10
    endloop
  endfacet
  facet normal 0.218189 -0.975907 0
    outer loop
      vertex 70.3107 17.2657 -10
      vertex 71.2303 17.4713 10
      vertex 70.3107 17.2657 10
    endloop
  endfacet
  facet normal 0.218189 -0.975907 0
    outer loop
      vertex 71.2303 17.4713 10
      vertex 70.3107 17.2657 -10
      vertex 71.2303 17.4713 -10
    endloop
  endfacet
  facet normal 0.278965 -0.960301 0
    outer loop
      vertex 71.2303 17.4713 -10
      vertex 72.1353 17.7342 10
      vertex 71.2303 17.4713 10
    endloop
  endfacet
  facet normal 0.278965 -0.960301 0
    outer loop
      vertex 72.1353 17.7342 10
      vertex 71.2303 17.4713 -10
      vertex 72.1353 17.7342 -10
    endloop
  endfacet
  facet normal 0.338742 -0.940879 0
    outer loop
      vertex 72.1353 17.7342 -10
      vertex 73.0219 18.0534 10
      vertex 72.1353 17.7342 10
    endloop
  endfacet
  facet normal 0.338742 -0.940879 0
    outer loop
      vertex 73.0219 18.0534 10
      vertex 72.1353 17.7342 -10
      vertex 73.0219 18.0534 -10
    endloop
  endfacet
  facet normal 0.397119 -0.917767 0
    outer loop
      vertex 73.0219 18.0534 -10
      vertex 73.8867 18.4276 10
      vertex 73.0219 18.0534 10
    endloop
  endfacet
  facet normal 0.397119 -0.917767 0
    outer loop
      vertex 73.8867 18.4276 10
      vertex 73.0219 18.0534 -10
      vertex 73.8867 18.4276 -10
    endloop
  endfacet
  facet normal 0.453993 -0.891005 0
    outer loop
      vertex 73.8867 18.4276 -10
      vertex 74.7263 18.8554 10
      vertex 73.8867 18.4276 10
    endloop
  endfacet
  facet normal 0.453993 -0.891005 0
    outer loop
      vertex 74.7263 18.8554 10
      vertex 73.8867 18.4276 -10
      vertex 74.7263 18.8554 -10
    endloop
  endfacet
  facet normal 0.509055 -0.860734 0
    outer loop
      vertex 74.7263 18.8554 -10
      vertex 75.5374 19.3351 10
      vertex 74.7263 18.8554 10
    endloop
  endfacet
  facet normal 0.509055 -0.860734 0
    outer loop
      vertex 75.5374 19.3351 10
      vertex 74.7263 18.8554 -10
      vertex 75.5374 19.3351 -10
    endloop
  endfacet
  facet normal 0.562026 -0.82712 0
    outer loop
      vertex 75.5374 19.3351 -10
      vertex 76.3168 19.8647 10
      vertex 75.5374 19.3351 10
    endloop
  endfacet
  facet normal 0.562026 -0.82712 0
    outer loop
      vertex 76.3168 19.8647 10
      vertex 75.5374 19.3351 -10
      vertex 76.3168 19.8647 -10
    endloop
  endfacet
  facet normal 0.612926 -0.79014 0
    outer loop
      vertex 76.3168 19.8647 -10
      vertex 77.0614 20.4423 10
      vertex 76.3168 19.8647 10
    endloop
  endfacet
  facet normal 0.612926 -0.79014 0
    outer loop
      vertex 77.0614 20.4423 10
      vertex 76.3168 19.8647 -10
      vertex 77.0614 20.4423 -10
    endloop
  endfacet
  facet normal 0.661355 -0.750073 0
    outer loop
      vertex 77.0614 20.4423 -10
      vertex 77.7682 21.0655 10
      vertex 77.0614 20.4423 10
    endloop
  endfacet
  facet normal 0.661355 -0.750073 0
    outer loop
      vertex 77.7682 21.0655 10
      vertex 77.0614 20.4423 -10
      vertex 77.7682 21.0655 -10
    endloop
  endfacet
  facet normal 0.707107 -0.707107 0
    outer loop
      vertex 77.7682 21.0655 -10
      vertex 78.4345 21.7318 10
      vertex 77.7682 21.0655 10
    endloop
  endfacet
  facet normal 0.707107 -0.707107 0
    outer loop
      vertex 78.4345 21.7318 10
      vertex 77.7682 21.0655 -10
      vertex 78.4345 21.7318 -10
    endloop
  endfacet
  facet normal 0.750073 -0.661355 0
    outer loop
      vertex 78.4345 21.7318 10
      vertex 79.0577 22.4386 -10
      vertex 79.0577 22.4386 10
    endloop
  endfacet
  facet normal 0.750073 -0.661355 0
    outer loop
      vertex 79.0577 22.4386 -10
      vertex 78.4345 21.7318 10
      vertex 78.4345 21.7318 -10
    endloop
  endfacet
  facet normal 0.79014 -0.612926 0
    outer loop
      vertex 79.0577 22.4386 10
      vertex 79.6353 23.1832 -10
      vertex 79.6353 23.1832 10
    endloop
  endfacet
  facet normal 0.79014 -0.612926 0
    outer loop
      vertex 79.6353 23.1832 -10
      vertex 79.0577 22.4386 10
      vertex 79.0577 22.4386 -10
    endloop
  endfacet
  facet normal 0.82712 -0.562026 0
    outer loop
      vertex 79.6353 23.1832 10
      vertex 80.1649 23.9626 -10
      vertex 80.1649 23.9626 10
    endloop
  endfacet
  facet normal 0.82712 -0.562026 0
    outer loop
      vertex 80.1649 23.9626 -10
      vertex 79.6353 23.1832 10
      vertex 79.6353 23.1832 -10
    endloop
  endfacet
  facet normal 0.860734 -0.509055 0
    outer loop
      vertex 80.1649 23.9626 10
      vertex 80.6446 24.7737 -10
      vertex 80.6446 24.7737 10
    endloop
  endfacet
  facet normal 0.860734 -0.509055 0
    outer loop
      vertex 80.6446 24.7737 -10
      vertex 80.1649 23.9626 10
      vertex 80.1649 23.9626 -10
    endloop
  endfacet
  facet normal 0.891005 -0.453993 0
    outer loop
      vertex 80.6446 24.7737 10
      vertex 81.0724 25.6133 -10
      vertex 81.0724 25.6133 10
    endloop
  endfacet
  facet normal 0.891005 -0.453993 0
    outer loop
      vertex 81.0724 25.6133 -10
      vertex 80.6446 24.7737 10
      vertex 80.6446 24.7737 -10
    endloop
  endfacet
  facet normal 0.917767 -0.397119 0
    outer loop
      vertex 81.0724 25.6133 10
      vertex 81.4466 26.4781 -10
      vertex 81.4466 26.4781 10
    endloop
  endfacet
  facet normal 0.917767 -0.397119 0
    outer loop
      vertex 81.4466 26.4781 -10
      vertex 81.0724 25.6133 10
      vertex 81.0724 25.6133 -10
    endloop
  endfacet
  facet normal 0.940879 -0.338742 0
    outer loop
      vertex 81.4466 26.4781 10
      vertex 81.7658 27.3647 -10
      vertex 81.7658 27.3647 10
    endloop
  endfacet
  facet normal 0.940879 -0.338742 0
    outer loop
      vertex 81.7658 27.3647 -10
      vertex 81.4466 26.4781 10
      vertex 81.4466 26.4781 -10
    endloop
  endfacet
  facet normal 0.960301 -0.278965 0
    outer loop
      vertex 81.7658 27.3647 10
      vertex 82.0287 28.2697 -10
      vertex 82.0287 28.2697 10
    endloop
  endfacet
  facet normal 0.960301 -0.278965 0
    outer loop
      vertex 82.0287 28.2697 -10
      vertex 81.7658 27.3647 10
      vertex 81.7658 27.3647 -10
    endloop
  endfacet
  facet normal 0.975907 -0.218189 0
    outer loop
      vertex 82.0287 28.2697 10
      vertex 82.2343 29.1893 -10
      vertex 82.2343 29.1893 10
    endloop
  endfacet
  facet normal 0.975907 -0.218189 0
    outer loop
      vertex 82.2343 29.1893 -10
      vertex 82.0287 28.2697 10
      vertex 82.0287 28.2697 -10
    endloop
  endfacet
  facet normal 0.98769 -0.156426 0
    outer loop
      vertex 82.2343 29.1893 10
      vertex 82.3817 30.12 -10
      vertex 82.3817 30.12 10
    endloop
  endfacet
  facet normal 0.98769 -0.156426 0
    outer loop
      vertex 82.3817 30.12 -10
      vertex 82.2343 29.1893 10
      vertex 82.2343 29.1893 -10
    endloop
  endfacet
  facet normal 0.99556 -0.094133 0
    outer loop
      vertex 82.3817 30.12 10
      vertex 82.4704 31.0581 -10
      vertex 82.4704 31.0581 10
    endloop
  endfacet
  facet normal 0.99556 -0.094133 0
    outer loop
      vertex 82.4704 31.0581 -10
      vertex 82.3817 30.12 10
      vertex 82.3817 30.12 -10
    endloop
  endfacet
  facet normal 0.999507 -0.0314103 0
    outer loop
      vertex 82.4704 31.0581 10
      vertex 82.5 32 -10
      vertex 82.5 32 10
    endloop
  endfacet
  facet normal 0.999507 -0.0314103 0
    outer loop
      vertex 82.5 32 -10
      vertex 82.4704 31.0581 10
      vertex 82.4704 31.0581 -10
    endloop
  endfacet
  facet normal 0 0 -1
    outer loop
      vertex 82.4704 31.0581 -10
      vertex 82.4704 32.9419 -10
      vertex 82.5 32 -10
    endloop
  endfacet
  facet normal 0 0 -1
    outer loop
      vertex 82.3817 30.12 -10
      vertex 82.4704 32.9419 -10
      vertex 82.4704 31.0581 -10
    endloop
  endfacet
  facet normal 0 0 -1
    outer loop
      vertex 82.3817 30.12 -10
      vertex 82.3817 33.88 -10
      vertex 82.4704 32.9419 -10
    endloop
  endfacet
  facet normal 0 0 -1
    outer loop
      vertex 82.2343 29.1893 -10
      vertex 82.3817 33.88 -10
      vertex 82.3817 30.12 -10
    endloop
  endfacet
  facet normal 0 0 -1
    outer loop
      vertex 82.2343 29.1893 -10
      vertex 82.2343 34.8107 -10
      vertex 82.3817 33.88 -10
    endloop
  endfacet
  facet normal 0 0 -1
    outer loop
      vertex 82.0287 28.2697 -10
      vertex 82.2343 34.8107 -10
      vertex 82.2343 29.1893 -10
    endloop
  endfacet
  facet normal 0 0 -1
    outer loop
      vertex 82.0287 28.2697 -10
      vertex 82.0287 35.7303 -10
      vertex 82.2343 34.8107 -10
    endloop
  endfacet
  facet normal 0 0 -1
    outer loop
      vertex 81.7658 27.3647 -10
      vertex 82.0287 35.7303 -10
      vertex 82.0287 28.2697 -10
    endloop
  endfacet
  facet normal 0 0 -1
    outer loop
      vertex 81.7658 27.3647 -10
      vertex 81.7658 36.6353 -10
      vertex 82.0287 35.7303 -10
    endloop
  endfacet
  facet normal 0 0 -1
    outer loop
      vertex 81.4466 26.4781 -10
      vertex 81.7658 36.6353 -10
      vertex 81.7658 27.3647 -10
    endloop
  endfacet
  facet normal 0 0 -1
    outer loop
      vertex 81.4466 26.4781 -10
      vertex 81.4466 37.5219 -10
      vertex 81.7658 36.6353 -10
    endloop
  endfacet
  facet normal 0 0 -1
    outer loop
      vertex 81.0724 25.6133 -10
      vertex 81.4466 37.5219 -10
      vertex 81.4466 26.4781 -10
    endloop
  endfacet
  facet normal 0 0 -1
    outer loop
      vertex 81.0724 25.6133 -10
      vertex 81.0724 38.3867 -10
      vertex 81.4466 37.5219 -10
    endloop
  endfacet
  facet normal 0 0 -1
    outer loop
      vertex 80.6446 24.7737 -10
      vertex 81.0724 38.3867 -10
      vertex 81.0724 25.6133 -10
    endloop
  endfacet
  facet normal 0 0 -1
    outer loop
      vertex 80.6446 24.7737 -10
      vertex 80.6446 39.2263 -10
      vertex 81.0724 38.3867 -10
    endloop
  endfacet
  facet normal 0 0 -1
    outer loop
      vertex 80.1649 23.9626 -10
      vertex 80.6446 39.2263 -10
      vertex 80.6446 24.7737 -10
    endloop
  endfacet
  facet normal 0 0 -1
    outer loop
      vertex 80.1649 23.9626 -10
      vertex 80.1649 40.0374 -10
      vertex 80.6446 39.2263 -10
    endloop
  endfacet
  facet normal 0 0 -1
    outer loop
      vertex 79.6353 23.1832 -10
      vertex 80.1649 40.0374 -10
      vertex 80.1649 23.9626 -10
    endloop
  endfacet
  facet normal 0 0 -1
    outer loop
      vertex 79.6353 23.1832 -10
      vertex 79.6353 40.8168 -10
      vertex 80.1649 40.0374 -10
    endloop
  endfacet
  facet normal 0 0 -1
    outer loop
      vertex 79.0577 22.4386 -10
      vertex 79.6353 40.8168 -10
      vertex 79.6353 23.1832 -10
    endloop
  endfacet
  facet normal 0 0 -1
    outer loop
      vertex 79.0577 22.4386 -10
      vertex 79.0577 41.5614 -10
      vertex 79.6353 40.8168 -10
    endloop
  endfacet
  facet normal 0 0 -1
    outer loop
      vertex 78.4345 21.7318 -10
      vertex 79.0577 41.5614 -10
      vertex 79.0577 22.4386 -10
    endloop
  endfacet
  facet normal 0 0 -1
    outer loop
      vertex 78.4345 21.7318 -10
      vertex 78.4345 42.2682 -10
      vertex 79.0577 41.5614 -10
    endloop
  endfacet
  facet normal 0 0 -1
    outer loop
      vertex 77.7682 21.0655 -10
      vertex 78.4345 42.2682 -10
      vertex 78.4345 21.7318 -10
    endloop
  endfacet
  facet normal 0 0 -1
    outer loop
      vertex 77.7682 21.0655 -10
      vertex 77.7682 42.9345 -10
      vertex 78.4345 42.2682 -10
    endloop
  endfacet
  facet normal 0 0 -1
    outer loop
      vertex 77.0614 20.4423 -10
      vertex 77.7682 42.9345 -10
      vertex 77.7682 21.0655 -10
    endloop
  endfacet
  facet normal 0 0 -1
    outer loop
      vertex 77.0614 20.4423 -10
      vertex 77.0614 43.5577 -10
      vertex 77.7682 42.9345 -10
    endloop
  endfacet
  facet normal 0 0 -1
    outer loop
      vertex 76.3168 19.8647 -10
      vertex 77.0614 43.5577 -10
      vertex 77.0614 20.4423 -10
    endloop
  endfacet
  facet normal 0 0 -1
    outer loop
      vertex 76.3168 19.8647 -10
      vertex 76.3168 44.1353 -10
      vertex 77.0614 43.5577 -10
    endloop
  endfacet
  facet normal 0 0 -1
    outer loop
      vertex 75.5374 19.3351 -10
      vertex 76.3168 44.1353 -10
      vertex 76.3168 19.8647 -10
    endloop
  endfacet
  facet normal 0 0 -1
    outer loop
      vertex 75.5374 19.3351 -10
      vertex 75.5374 44.6649 -10
      vertex 76.3168 44.1353 -10
    endloop
  endfacet
  facet normal 0 0 -1
    outer loop
      vertex 74.7263 18.8554 -10
      vertex 75.5374 44.6649 -10
      vertex 75.5374 19.3351 -10
    endloop
  endfacet
  facet normal 0 0 -1
    outer loop
      vertex 74.7263 18.8554 -10
      vertex 74.7263 45.1446 -10
      vertex 75.5374 44.6649 -10
    endloop
  endfacet
  facet normal 0 0 -1
    outer loop
      vertex 73.8867 18.4276 -10
      vertex 74.7263 45.1446 -10
      vertex 74.7263 18.8554 -10
    endloop
  endfacet
  facet normal 0 0 -1
    outer loop
      vertex 73.8867 18.4276 -10
      vertex 73.8867 45.5724 -10
      vertex 74.7263 45.1446 -10
    endloop
  endfacet
  facet normal 0 0 -1
    outer loop
      vertex 73.0219 18.0534 -10
      vertex 73.8867 45.5724 -10
      vertex 73.8867 18.4276 -10
    endloop
  endfacet
  facet normal 0 0 -1
    outer loop
      vertex 73.0219 18.0534 -10
      vertex 73.0219 45.9466 -10
      vertex 73.8867 45.5724 -10
    endloop
  endfacet
  facet normal 0 0 -1
    outer loop
      vertex 72.1353 17.7342 -10
      vertex 73.0219 45.9466 -10
      vertex 73.0219 18.0534 -10
    endloop
  endfacet
  facet normal 0 0 -1
    outer loop
      vertex 72.1353 17.7342 -10
      vertex 72.1353 46.2658 -10
      vertex 73.0219 45.9466 -10
    endloop
  endfacet
  facet normal 0 0 -1
    outer loop
      vertex 71.2303 17.4713 -10
      vertex 72.1353 46.2658 -10
      vertex 72.1353 17.7342 -10
    endloop
  endfacet
  facet normal 0 0 -1
    outer loop
      vertex 71.2303 17.4713 -10
      vertex 71.2303 46.5287 -10
      vertex 72.1353 46.2658 -10
    endloop
  endfacet
  facet normal 0 0 -1
    outer loop
      vertex 70.3107 17.2657 -10
      vertex 71.2303 46.5287 -10
      vertex 71.2303 17.4713 -10
    endloop
  endfacet
  facet normal 0 0 -1
    outer loop
      vertex 70.3107 17.2657 -10
      vertex 70.3107 46.7343 -10
      vertex 71.2303 46.5287 -10
    endloop
  endfacet
  facet normal 0 0 -1
    outer loop
      vertex 69.38 17.1183 -10
      vertex 70.3107 46.7343 -10
      vertex 70.3107 17.2657 -10
    endloop
  endfacet
  facet normal 0 0 -1
    outer loop
      vertex 69.38 17.1183 -10
      vertex 69.38 46.8817 -10
      vertex 70.3107 46.7343 -10
    endloop
  endfacet
  facet normal 0 0 -1
    outer loop
      vertex 68.4419 17.0296 -10
      vertex 69.38 46.8817 -10
      vertex 69.38 17.1183 -10
    endloop
  endfacet
  facet normal 0 0 -1
    outer loop
      vertex 68.4419 17.0296 -10
      vertex 68.4419 46.9704 -10
      vertex 69.38 46.8817 -10
    endloop
  endfacet
  facet normal 0 0 -1
    outer loop
      vertex 67.5 17 -10
      vertex 68.4419 46.9704 -10
      vertex 68.4419 17.0296 -10
    endloop
  endfacet
  facet normal 0 0 -1
    outer loop
      vertex 67.5 17 -10
      vertex 67.5 47 -10
      vertex 68.4419 46.9704 -10
    endloop
  endfacet
  facet normal 0 0 -1
    outer loop
      vertex 66.5581 17.0296 -10
      vertex 67.5 47 -10
      vertex 67.5 17 -10
    endloop
  endfacet
  facet normal 0 0 -1
    outer loop
      vertex 66.5581 17.0296 -10
      vertex 66.5581 46.9704 -10
      vertex 67.5 47 -10
    endloop
  endfacet
  facet normal 0 0 -1
    outer loop
      vertex 65.62 17.1183 -10
      vertex 66.5581 46.9704 -10
      vertex 66.5581 17.0296 -10
    endloop
  endfacet
  facet normal 0 0 -1
    outer loop
      vertex 65.62 17.1183 -10
      vertex 65.62 46.8817 -10
      vertex 66.5581 46.9704 -10
    endloop
  endfacet
  facet normal 0 0 -1
    outer loop
      vertex 64.6893 17.2657 -10
      vertex 65.62 46.8817 -10
      vertex 65.62 17.1183 -10
    endloop
  endfacet
  facet normal 0 0 -1
    outer loop
      vertex 64.6893 17.2657 -10
      vertex 64.6893 46.7343 -10
      vertex 65.62 46.8817 -10
    endloop
  endfacet
  facet normal 0 0 -1
    outer loop
      vertex 63.7697 17.4713 -10
      vertex 64.6893 46.7343 -10
      vertex 64.6893 17.2657 -10
    endloop
  endfacet
  facet normal 0 0 -1
    outer loop
      vertex 63.7697 17.4713 -10
      vertex 63.7697 46.5287 -10
      vertex 64.6893 46.7343 -10
    endloop
  endfacet
  facet normal 0 0 -1
    outer loop
      vertex 62.8647 17.7342 -10
      vertex 63.7697 46.5287 -10
      vertex 63.7697 17.4713 -10
    endloop
  endfacet
  facet normal 0 0 -1
    outer loop
      vertex 62.8647 17.7342 -10
      vertex 62.8647 46.2658 -10
      vertex 63.7697 46.5287 -10
    endloop
  endfacet
  facet normal 0 0 -1
    outer loop
      vertex 61.9781 18.0534 -10
      vertex 62.8647 46.2658 -10
      vertex 62.8647 17.7342 -10
    endloop
  endfacet
  facet normal 0 0 -1
    outer loop
      vertex 61.9781 18.0534 -10
      vertex 61.9781 45.9466 -10
      vertex 62.8647 46.2658 -10
    endloop
  endfacet
  facet normal 0 0 -1
    outer loop
      vertex 61.1133 18.4276 -10
      vertex 61.9781 45.9466 -10
      vertex 61.9781 18.0534 -10
    endloop
  endfacet
  facet normal 0 0 -1
    outer loop
      vertex 61.1133 18.4276 -10
      vertex 61.1133 45.5724 -10
      vertex 61.9781 45.9466 -10
    endloop
  endfacet
  facet normal 0 0 -1
    outer loop
      vertex 60.2737 18.8554 -10
      vertex 61.1133 45.5724 -10
      vertex 61.1133 18.4276 -10
    endloop
  endfacet
  facet normal 0 0 -1
    outer loop
      vertex 60.2737 18.8554 -10
      vertex 60.2737 45.1446 -10
      vertex 61.1133 45.5724 -10
    endloop
  endfacet
  facet normal 0 0 -1
    outer loop
      vertex 59.4626 19.3351 -10
      vertex 60.2737 45.1446 -10
      vertex 60.2737 18.8554 -10
    endloop
  endfacet
  facet normal 0 0 -1
    outer loop
      vertex 59.4626 19.3351 -10
      vertex 59.4626 44.6649 -10
      vertex 60.2737 45.1446 -10
    endloop
  endfacet
  facet normal 0 0 -1
    outer loop
      vertex 58.6832 19.8647 -10
      vertex 59.4626 44.6649 -10
      vertex 59.4626 19.3351 -10
    endloop
  endfacet
  facet normal 0 0 -1
    outer loop
      vertex 58.6832 19.8647 -10
      vertex 58.6832 44.1353 -10
      vertex 59.4626 44.6649 -10
    endloop
  endfacet
  facet normal 0 0 -1
    outer loop
      vertex 57.9386 20.4423 -10
      vertex 58.6832 44.1353 -10
      vertex 58.6832 19.8647 -10
    endloop
  endfacet
  facet normal 0 0 -1
    outer loop
      vertex 57.9386 20.4423 -10
      vertex 57.9386 43.5577 -10
      vertex 58.6832 44.1353 -10
    endloop
  endfacet
  facet normal 0 0 -1
    outer loop
      vertex 57.2318 21.0655 -10
      vertex 57.9386 43.5577 -10
      vertex 57.9386 20.4423 -10
    endloop
  endfacet
  facet normal 0 0 -1
    outer loop
      vertex 57.2318 21.0655 -10
      vertex 57.2318 42.9345 -10
      vertex 57.9386 43.5577 -10
    endloop
  endfacet
  facet normal 0 0 -1
    outer loop
      vertex 56.5655 21.7318 -10
      vertex 57.2318 42.9345 -10
      vertex 57.2318 21.0655 -10
    endloop
  endfacet
  facet normal 0 0 -1
    outer loop
      vertex 56.5655 21.7318 -10
      vertex 56.5655 42.2682 -10
      vertex 57.2318 42.9345 -10
    endloop
  endfacet
  facet normal 0 0 -1
    outer loop
      vertex 55.9423 22.4386 -10
      vertex 56.5655 42.2682 -10
      vertex 56.5655 21.7318 -10
    endloop
  endfacet
  facet normal 0 0 -1
    outer loop
      vertex 55.9423 22.4386 -10
      vertex 55.9423 41.5614 -10
      vertex 56.5655 42.2682 -10
    endloop
  endfacet
  facet normal 0 0 -1
    outer loop
      vertex 55.3647 23.1832 -10
      vertex 55.9423 41.5614 -10
      vertex 55.9423 22.4386 -10
    endloop
  endfacet
  facet normal 0 0 -1
    outer loop
      vertex 55.3647 23.1832 -10
      vertex 55.3647 40.8168 -10
      vertex 55.9423 41.5614 -10
    endloop
  endfacet
  facet normal 0 0 -1
    outer loop
      vertex 54.8351 23.9626 -10
      vertex 55.3647 40.8168 -10
      vertex 55.3647 23.1832 -10
    endloop
  endfacet
  facet normal 0 0 -1
    outer loop
      vertex 54.8351 23.9626 -10
      vertex 54.8351 40.0374 -10
      vertex 55.3647 40.8168 -10
    endloop
  endfacet
  facet normal 0 0 -1
    outer loop
      vertex 54.3554 24.7737 -10
      vertex 54.8351 40.0374 -10
      vertex 54.8351 23.9626 -10
    endloop
  endfacet
  facet normal 0 0 -1
    outer loop
      vertex 54.3554 24.7737 -10
      vertex 54.3554 39.2263 -10
      vertex 54.8351 40.0374 -10
    endloop
  endfacet
  facet normal 0 0 -1
    outer loop
      vertex 53.9276 25.6133 -10
      vertex 54.3554 39.2263 -10
      vertex 54.3554 24.7737 -10
    endloop
  endfacet
  facet normal 0 0 -1
    outer loop
      vertex 53.9276 25.6133 -10
      vertex 53.9276 38.3867 -10
      vertex 54.3554 39.2263 -10
    endloop
  endfacet
  facet normal 0 0 -1
    outer loop
      vertex 53.5534 26.4781 -10
      vertex 53.9276 38.3867 -10
      vertex 53.9276 25.6133 -10
    endloop
  endfacet
  facet normal 0 0 -1
    outer loop
      vertex 53.5534 26.4781 -10
      vertex 53.5534 37.5219 -10
      vertex 53.9276 38.3867 -10
    endloop
  endfacet
  facet normal 0 0 -1
    outer loop
      vertex 53.2342 27.3647 -10
      vertex 53.5534 37.5219 -10
      vertex 53.5534 26.4781 -10
    endloop
  endfacet
  facet normal 0 0 -1
    outer loop
      vertex 53.2342 27.3647 -10
      vertex 53.2342 36.6353 -10
      vertex 53.5534 37.5219 -10
    endloop
  endfacet
  facet normal 0 0 -1
    outer loop
      vertex 52.9713 28.2697 -10
      vertex 53.2342 36.6353 -10
      vertex 53.2342 27.3647 -10
    endloop
  endfacet
  facet normal 0 0 -1
    outer loop
      vertex 52.9713 28.2697 -10
      vertex 52.9713 35.7303 -10
      vertex 53.2342 36.6353 -10
    endloop
  endfacet
  facet normal 0 0 -1
    outer loop
      vertex 52.7657 29.1893 -10
      vertex 52.9713 35.7303 -10
      vertex 52.9713 28.2697 -10
    endloop
  endfacet
  facet normal 0 0 -1
    outer loop
      vertex 52.7657 29.1893 -10
      vertex 52.7657 34.8107 -10
      vertex 52.9713 35.7303 -10
    endloop
  endfacet
  facet normal 0 0 -1
    outer loop
      vertex 52.6183 30.12 -10
      vertex 52.7657 34.8107 -10
      vertex 52.7657 29.1893 -10
    endloop
  endfacet
  facet normal 0 0 -1
    outer loop
      vertex 52.6183 30.12 -10
      vertex 52.6183 33.88 -10
      vertex 52.7657 34.8107 -10
    endloop
  endfacet
  facet normal 0 0 -1
    outer loop
      vertex 52.5296 31.0581 -10
      vertex 52.6183 33.88 -10
      vertex 52.6183 30.12 -10
    endloop
  endfacet
  facet normal 0 0 -1
    outer loop
      vertex 52.5296 31.0581 -10
      vertex 52.5296 32.9419 -10
      vertex 52.6183 33.88 -10
    endloop
  endfacet
  facet normal 0 -0 -1
    outer loop
      vertex 52.5296 32.9419 -10
      vertex 52.5296 31.0581 -10
      vertex 52.5 32 -10
    endloop
  endfacet
  facet normal 0 0 1
    outer loop
      vertex 82.4704 32.9419 10
      vertex 82.4704 31.0581 10
      vertex 82.5 32 10
    endloop
  endfacet
  facet normal 0 0 1
    outer loop
      vertex 82.3817 33.88 10
      vertex 82.4704 31.0581 10
      vertex 82.4704 32.9419 10
    endloop
  endfacet
  facet normal 0 0 1
    outer loop
      vertex 82.3817 33.88 10
      vertex 82.3817 30.12 10
      vertex 82.4704 31.0581 10
    endloop
  endfacet
  facet normal 0 0 1
    outer loop
      vertex 82.2343 34.8107 10
      vertex 82.3817 30.12 10
      vertex 82.3817 33.88 10
    endloop
  endfacet
  facet normal 0 0 1
    outer loop
      vertex 82.2343 34.8107 10
      vertex 82.2343 29.1893 10
      vertex 82.3817 30.12 10
    endloop
  endfacet
  facet normal 0 0 1
    outer loop
      vertex 82.0287 35.7303 10
      vertex 82.2343 29.1893 10
      vertex 82.2343 34.8107 10
    endloop
  endfacet
  facet normal 0 0 1
    outer loop
      vertex 82.0287 35.7303 10
      vertex 82.0287 28.2697 10
      vertex 82.2343 29.1893 10
    endloop
  endfacet
  facet normal 0 0 1
    outer loop
      vertex 81.7658 36.6353 10
      vertex 82.0287 28.2697 10
      vertex 82.0287 35.7303 10
    endloop
  endfacet
  facet normal 0 0 1
    outer loop
      vertex 81.7658 36.6353 10
      vertex 81.7658 27.3647 10
      vertex 82.0287 28.2697 10
    endloop
  endfacet
  facet normal 0 0 1
    outer loop
      vertex 81.4466 37.5219 10
      vertex 81.7658 27.3647 10
      vertex 81.7658 36.6353 10
    endloop
  endfacet
  facet normal 0 0 1
    outer loop
      vertex 81.4466 37.5219 10
      vertex 81.4466 26.4781 10
      vertex 81.7658 27.3647 10
    endloop
  endfacet
  facet normal 0 0 1
    outer loop
      vertex 81.0724 38.3867 10
      vertex 81.4466 26.4781 10
      vertex 81.4466 37.5219 10
    endloop
  endfacet
  facet normal 0 0 1
    outer loop
      vertex 81.0724 38.3867 10
      vertex 81.0724 25.6133 10
      vertex 81.4466 26.4781 10
    endloop
  endfacet
  facet normal 0 0 1
    outer loop
      vertex 80.6446 39.2263 10
      vertex 81.0724 25.6133 10
      vertex 81.0724 38.3867 10
    endloop
  endfacet
  facet normal 0 0 1
    outer loop
      vertex 80.6446 39.2263 10
      vertex 80.6446 24.7737 10
      vertex 81.0724 25.6133 10
    endloop
  endfacet
  facet normal 0 0 1
    outer loop
      vertex 80.1649 40.0374 10
      vertex 80.6446 24.7737 10
      vertex 80.6446 39.2263 10
    endloop
  endfacet
  facet normal 0 0 1
    outer loop
      vertex 80.1649 40.0374 10
      vertex 80.1649 23.9626 10
      vertex 80.6446 24.7737 10
    endloop
  endfacet
  facet normal 0 0 1
    outer loop
      vertex 79.6353 40.8168 10
      vertex 80.1649 23.9626 10
      vertex 80.1649 40.0374 10
    endloop
  endfacet
  facet normal 0 0 1
    outer loop
      vertex 79.6353 40.8168 10
      vertex 79.6353 23.1832 10
      vertex 80.1649 23.9626 10
    endloop
  endfacet
  facet normal 0 0 1
    outer loop
      vertex 79.0577 41.5614 10
      vertex 79.6353 23.1832 10
      vertex 79.6353 40.8168 10
    endloop
  endfacet
  facet normal 0 0 1
    outer loop
      vertex 79.0577 41.5614 10
      vertex 79.0577 22.4386 10
      vertex 79.6353 23.1832 10
    endloop
  endfacet
  facet normal 0 0 1
    outer loop
      vertex 78.4345 42.2682 10
      vertex 79.0577 22.4386 10
      vertex 79.0577 41.5614 10
    endloop
  endfacet
  facet normal 0 0 1
    outer loop
      vertex 78.4345 42.2682 10
      vertex 78.4345 21.7318 10
      vertex 79.0577 22.4386 10
    endloop
  endfacet
  facet normal 0 0 1
    outer loop
      vertex 77.7682 42.9345 10
      vertex 78.4345 21.7318 10
      vertex 78.4345 42.2682 10
    endloop
  endfacet
  facet normal 0 0 1
    outer loop
      vertex 77.7682 42.9345 10
      vertex 77.7682 21.0655 10
      vertex 78.4345 21.7318 10
    endloop
  endfacet
  facet normal 0 0 1
    outer loop
      vertex 77.0614 43.5577 10
      vertex 77.7682 21.0655 10
      vertex 77.7682 42.9345 10
    endloop
  endfacet
  facet normal 0 0 1
    outer loop
      vertex 77.0614 43.5577 10
      vertex 77.0614 20.4423 10
      vertex 77.7682 21.0655 10
    endloop
  endfacet
  facet normal 0 0 1
    outer loop
      vertex 76.3168 44.1353 10
      vertex 77.0614 20.4423 10
      vertex 77.0614 43.5577 10
    endloop
  endfacet
  facet normal 0 0 1
    outer loop
      vertex 76.3168 44.1353 10
      vertex 76.3168 19.8647 10
      vertex 77.0614 20.4423 10
    endloop
  endfacet
  facet normal 0 0 1
    outer loop
      vertex 75.5374 44.6649 10
      vertex 76.3168 19.8647 10
      vertex 76.3168 44.1353 10
    endloop
  endfacet
  facet normal 0 0 1
    outer loop
      vertex 75.5374 44.6649 10
      vertex 75.5374 19.3351 10
      vertex 76.3168 19.8647 10
    endloop
  endfacet
  facet normal 0 0 1
    outer loop
      vertex 74.7263 45.1446 10
      vertex 75.5374 19.3351 10
      vertex 75.5374 44.6649 10
    endloop
  endfacet
  facet normal 0 0 1
    outer loop
      vertex 74.7263 45.1446 10
      vertex 74.7263 18.8554 10
      vertex 75.5374 19.3351 10
    endloop
  endfacet
  facet normal 0 0 1
    outer loop
      vertex 73.8867 45.5724 10
      vertex 74.7263 18.8554 10
      vertex 74.7263 45.1446 10
    endloop
  endfacet
  facet normal 0 0 1
    outer loop
      vertex 73.8867 45.5724 10
      vertex 73.8867 18.4276 10
      vertex 74.7263 18.8554 10
    endloop
  endfacet
  facet normal 0 0 1
    outer loop
      vertex 73.0219 45.9466 10
      vertex 73.8867 18.4276 10
      vertex 73.8867 45.5724 10
    endloop
  endfacet
  facet normal 0 0 1
    outer loop
      vertex 73.0219 45.9466 10
      vertex 73.0219 18.0534 10
      vertex 73.8867 18.4276 10
    endloop
  endfacet
  facet normal 0 0 1
    outer loop
      vertex 72.1353 46.2658 10
      vertex 73.0219 18.0534 10
      vertex 73.0219 45.9466 10
    endloop
  endfacet
  facet normal 0 0 1
    outer loop
      vertex 72.1353 46.2658 10
      vertex 72.1353 17.7342 10
      vertex 73.0219 18.0534 10
    endloop
  endfacet
  facet normal 0 0 1
    outer loop
      vertex 71.2303 46.5287 10
      vertex 72.1353 17.7342 10
      vertex 72.1353 46.2658 10
    endloop
  endfacet
  facet normal 0 0 1
    outer loop
      vertex 71.2303 46.5287 10
      vertex 71.2303 17.4713 10
      vertex 72.1353 17.7342 10
    endloop
  endfacet
  facet normal 0 0 1
    outer loop
      vertex 70.3107 46.7343 10
      vertex 71.2303 17.4713 10
      vertex 71.2303 46.5287 10
    endloop
  endfacet
  facet normal 0 0 1
    outer loop
      vertex 70.3107 46.7343 10
      vertex 70.3107 17.2657 10
      vertex 71.2303 17.4713 10
    endloop
  endfacet
  facet normal 0 0 1
    outer loop
      vertex 69.38 46.8817 10
      vertex 70.3107 17.2657 10
      vertex 70.3107 46.7343 10
    endloop
  endfacet
  facet normal 0 0 1
    outer loop
      vertex 69.38 46.8817 10
      vertex 69.38 17.1183 10
      vertex 70.3107 17.2657 10
    endloop
  endfacet
  facet normal 0 0 1
    outer loop
      vertex 68.4419 46.9704 10
      vertex 69.38 17.1183 10
      vertex 69.38 46.8817 10
    endloop
  endfacet
  facet normal 0 0 1
    outer loop
      vertex 68.4419 46.9704 10
      vertex 68.4419 17.0296 10
      vertex 69.38 17.1183 10
    endloop
  endfacet
  facet normal 0 0 1
    outer loop
      vertex 67.5 47 10
      vertex 68.4419 17.0296 10
      vertex 68.4419 46.9704 10
    endloop
  endfacet
  facet normal 0 0 1
    outer loop
      vertex 67.5 47 10
      vertex 67.5 17 10
      vertex 68.4419 17.0296 10
    endloop
  endfacet
  facet normal -0 0 1
    outer loop
      vertex 66.5581 46.9704 10
      vertex 67.5 17 10
      vertex 67.5 47 10
    endloop
  endfacet
  facet normal 0 0 1
    outer loop
      vertex 66.5581 46.9704 10
      vertex 66.5581 17.0296 10
      vertex 67.5 17 10
    endloop
  endfacet
  facet normal -0 0 1
    outer loop
      vertex 65.62 46.8817 10
      vertex 66.5581 17.0296 10
      vertex 66.5581 46.9704 10
    endloop
  endfacet
  facet normal 0 0 1
    outer loop
      vertex 65.62 46.8817 10
      vertex 65.62 17.1183 10
      vertex 66.5581 17.0296 10
    endloop
  endfacet
  facet normal -0 0 1
    outer loop
      vertex 64.6893 46.7343 10
      vertex 65.62 17.1183 10
      vertex 65.62 46.8817 10
    endloop
  endfacet
  facet normal 0 0 1
    outer loop
      vertex 64.6893 46.7343 10
      vertex 64.6893 17.2657 10
      vertex 65.62 17.1183 10
    endloop
  endfacet
  facet normal -0 0 1
    outer loop
      vertex 63.7697 46.5287 10
      vertex 64.6893 17.2657 10
      vertex 64.6893 46.7343 10
    endloop
  endfacet
  facet normal 0 0 1
    outer loop
      vertex 63.7697 46.5287 10
      vertex 63.7697 17.4713 10
      vertex 64.6893 17.2657 10
    endloop
  endfacet
  facet normal -0 0 1
    outer loop
      vertex 62.8647 46.2658 10
      vertex 63.7697 17.4713 10
      vertex 63.7697 46.5287 10
    endloop
  endfacet
  facet normal 0 0 1
    outer loop
      vertex 62.8647 46.2658 10
      vertex 62.8647 17.7342 10
      vertex 63.7697 17.4713 10
    endloop
  endfacet
  facet normal -0 0 1
    outer loop
      vertex 61.9781 45.9466 10
      vertex 62.8647 17.7342 10
      vertex 62.8647 46.2658 10
    endloop
  endfacet
  facet normal 0 0 1
    outer loop
      vertex 61.9781 45.9466 10
      vertex 61.9781 18.0534 10
      vertex 62.8647 17.7342 10
    endloop
  endfacet
  facet normal -0 0 1
    outer loop
      vertex 61.1133 45.5724 10
      vertex 61.9781 18.0534 10
      vertex 61.9781 45.9466 10
    endloop
  endfacet
  facet normal 0 0 1
    outer loop
      vertex 61.1133 45.5724 10
      vertex 61.1133 18.4276 10
      vertex 61.9781 18.0534 10
    endloop
  endfacet
  facet normal -0 0 1
    outer loop
      vertex 60.2737 45.1446 10
      vertex 61.1133 18.4276 10
      vertex 61.1133 45.5724 10
    endloop
  endfacet
  facet normal 0 0 1
    outer loop
      vertex 60.2737 45.1446 10
      vertex 60.2737 18.8554 10
      vertex 61.1133 18.4276 10
    endloop
  endfacet
  facet normal -0 0 1
    outer loop
      vertex 59.4626 44.6649 10
      vertex 60.2737 18.8554 10
      vertex 60.2737 45.1446 10
    endloop
  endfacet
  facet normal 0 0 1
    outer loop
      vertex 59.4626 44.6649 10
      vertex 59.4626 19.3351 10
      vertex 60.2737 18.8554 10
    endloop
  endfacet
  facet normal -0 0 1
    outer loop
      vertex 58.6832 44.1353 10
      vertex 59.4626 19.3351 10
      vertex 59.4626 44.6649 10
    endloop
  endfacet
  facet normal 0 0 1
    outer loop
      vertex 58.6832 44.1353 10
      vertex 58.6832 19.8647 10
      vertex 59.4626 19.3351 10
    endloop
  endfacet
  facet normal -0 0 1
    outer loop
      vertex 57.9386 43.5577 10
      vertex 58.6832 19.8647 10
      vertex 58.6832 44.1353 10
    endloop
  endfacet
  facet normal 0 0 1
    outer loop
      vertex 57.9386 43.5577 10
      vertex 57.9386 20.4423 10
      vertex 58.6832 19.8647 10
    endloop
  endfacet
  facet normal -0 0 1
    outer loop
      vertex 57.2318 42.9345 10
      vertex 57.9386 20.4423 10
      vertex 57.9386 43.5577 10
    endloop
  endfacet
  facet normal 0 0 1
    outer loop
      vertex 57.2318 42.9345 10
      vertex 57.2318 21.0655 10
      vertex 57.9386 20.4423 10
    endloop
  endfacet
  facet normal -0 0 1
    outer loop
      vertex 56.5655 42.2682 10
      vertex 57.2318 21.0655 10
      vertex 57.2318 42.9345 10
    endloop
  endfacet
  facet normal 0 0 1
    outer loop
      vertex 56.5655 42.2682 10
      vertex 56.5655 21.7318 10
      vertex 57.2318 21.0655 10
    endloop
  endfacet
  facet normal -0 0 1
    outer loop
      vertex 55.9423 41.5614 10
      vertex 56.5655 21.7318 10
      vertex 56.5655 42.2682 10
    endloop
  endfacet
  facet normal 0 0 1
    outer loop
      vertex 55.9423 41.5614 10
      vertex 55.9423 22.4386 10
      vertex 56.5655 21.7318 10
    endloop
  endfacet
  facet normal -0 0 1
    outer loop
      vertex 55.3647 40.8168 10
      vertex 55.9423 22.4386 10
      vertex 55.9423 41.5614 10
    endloop
  endfacet
  facet normal 0 0 1
    outer loop
      vertex 55.3647 40.8168 10
      vertex 55.3647 23.1832 10
      vertex 55.9423 22.4386 10
    endloop
  endfacet
  facet normal -0 0 1
    outer loop
      vertex 54.8351 40.0374 10
      vertex 55.3647 23.1832 10
      vertex 55.3647 40.8168 10
    endloop
  endfacet
  facet normal 0 0 1
    outer loop
      vertex 54.8351 40.0374 10
      vertex 54.8351 23.9626 10
      vertex 55.3647 23.1832 10
    endloop
  endfacet
  facet normal -0 0 1
    outer loop
      vertex 54.3554 39.2263 10
      vertex 54.8351 23.9626 10
      vertex 54.8351 40.0374 10
    endloop
  endfacet
  facet normal 0 0 1
    outer loop
      vertex 54.3554 39.2263 10
      vertex 54.3554 24.7737 10
      vertex 54.8351 23.9626 10
    endloop
  endfacet
  facet normal -0 0 1
    outer loop
      vertex 53.9276 38.3867 10
      vertex 54.3554 24.7737 10
      vertex 54.3554 39.2263 10
    endloop
  endfacet
  facet normal 0 0 1
    outer loop
      vertex 53.9276 38.3867 10
      vertex 53.9276 25.6133 10
      vertex 54.3554 24.7737 10
    endloop
  endfacet
  facet normal -0 0 1
    outer loop
      vertex 53.5534 37.5219 10
      vertex 53.9276 25.6133 10
      vertex 53.9276 38.3867 10
    endloop
  endfacet
  facet normal 0 0 1
    outer loop
      vertex 53.5534 37.5219 10
      vertex 53.5534 26.4781 10
      vertex 53.9276 25.6133 10
    endloop
  endfacet
  facet normal -0 0 1
    outer loop
      vertex 53.2342 36.6353 10
      vertex 53.5534 26.4781 10
      vertex 53.5534 37.5219 10
    endloop
  endfacet
  facet normal 0 0 1
    outer loop
      vertex 53.2342 36.6353 10
      vertex 53.2342 27.3647 10
      vertex 53.5534 26.4781 10
    endloop
  endfacet
  facet normal -0 0 1
    outer loop
      vertex 52.9713 35.7303 10
      vertex 53.2342 27.3647 10
      vertex 53.2342 36.6353 10
    endloop
  endfacet
  facet normal 0 0 1
    outer loop
      vertex 52.9713 35.7303 10
      vertex 52.9713 28.2697 10
      vertex 53.2342 27.3647 10
    endloop
  endfacet
  facet normal -0 0 1
    outer loop
      vertex 52.7657 34.8107 10
      vertex 52.9713 28.2697 10
      vertex 52.9713 35.7303 10
    endloop
  endfacet
  facet normal 0 0 1
    outer loop
      vertex 52.7657 34.8107 10
      vertex 52.7657 29.1893 10
      vertex 52.9713 28.2697 10
    endloop
  endfacet
  facet normal -0 0 1
    outer loop
      vertex 52.6183 33.88 10
      vertex 52.7657 29.1893 10
      vertex 52.7657 34.8107 10
    endloop
  endfacet
  facet normal 0 0 1
    outer loop
      vertex 52.6183 33.88 10
      vertex 52.6183 30.12 10
      vertex 52.7657 29.1893 10
    endloop
  endfacet
  facet normal -0 0 1
    outer loop
      vertex 52.5296 32.9419 10
      vertex 52.6183 30.12 10
      vertex 52.6183 33.88 10
    endloop
  endfacet
  facet normal 0 0 1
    outer loop
      vertex 52.5296 32.9419 10
      vertex 52.5296 31.0581 10
      vertex 52.6183 30.12 10
    endloop
  endfacet
  facet normal 0 -0 1
    outer loop
      vertex 52.5296 31.0581 10
      vertex 52.5296 32.9419 10
      vertex 52.5 32 10
    endloop
  endfacet
endsolid OpenSCAD_Model
