solid OpenSCAD_Model
  facet normal 0.999779 0.02101 0
    outer loop
      vertex 15 0 10
      vertex 14.9868 0.628135 -10
      vertex 14.9868 0.628135 10
    endloop
  endfacet
  facet normal 0.999779 0.02101 0
    outer loop
      vertex 14.9868 0.628135 -10
      vertex 15 0 10
      vertex 15 0 -10
    endloop
  endfacet
  facet normal 0.998032 0.0627117 0
    outer loop
      vertex 14.9868 0.628135 10
      vertex 14.9474 1.25517 -10
      vertex 14.9474 1.25517 10
    endloop
  endfacet
  facet normal 0.998032 0.0627117 0
    outer loop
      vertex 14.9474 1.25517 -10
      vertex 14.9868 0.628135 10
      vertex 14.9868 0.628135 -10
    endloop
  endfacet
  facet normal 0.994517 0.104572 0
    outer loop
      vertex 14.9474 1.25517 10
      vertex 14.8817 1.88 -10
      vertex 14.8817 1.88 10
    endloop
  endfacet
  facet normal 0.994517 0.104572 0
    outer loop
      vertex 14.8817 1.88 -10
      vertex 14.9474 1.25517 10
      vertex 14.9474 1.25517 -10
    endloop
  endfacet
  facet normal 0.989268 0.146115 0
    outer loop
      vertex 14.8817 1.88 10
      vertex 14.7899 2.50153 -10
      vertex 14.7899 2.50153 10
    endloop
  endfacet
  facet normal 0.989268 0.146115 0
    outer loop
      vertex 14.7899 2.50153 -10
      vertex 14.8817 1.88 10
      vertex 14.8817 1.88 -10
    endloop
  endfacet
  facet normal 0.982295 0.187339 0
    outer loop
      vertex 14.7899 2.50153 10
      vertex 14.6722 3.11868 -10
      vertex 14.6722 3.11868 10
    endloop
  endfacet
  facet normal 0.982295 0.187339 0
    outer loop
      vertex 14.6722 3.11868 -10
      vertex 14.7899 2.50153 10
      vertex 14.7899 2.50153 -10
    endloop
  endfacet
  facet normal 0.973567 0.228402 0
    outer loop
      vertex 14.6722 3.11868 10
      vertex 14.5287 3.73035 -10
      vertex 14.5287 3.73035 10
    endloop
  endfacet
  facet normal 0.973567 0.228402 0
    outer loop
      vertex 14.5287 3.73035 -10
      vertex 14.6722 3.11868 10
      vertex 14.6722 3.11868 -10
    endloop
  endfacet
  facet normal 0.963185 0.268838 0
    outer loop
      vertex 14.5287 3.73035 10
      vertex 14.3598 4.33548 -10
      vertex 14.3598 4.33548 10
    endloop
  endfacet
  facet normal 0.963185 0.268838 0
    outer loop
      vertex 14.3598 4.33548 -10
      vertex 14.5287 3.73035 10
      vertex 14.5287 3.73035 -10
    endloop
  endfacet
  facet normal 0.951031 0.309095 0
    outer loop
      vertex 14.3598 4.33548 10
      vertex 14.1656 4.933 -10
      vertex 14.1656 4.933 10
    endloop
  endfacet
  facet normal 0.951031 0.309095 0
    outer loop
      vertex 14.1656 4.933 -10
      vertex 14.3598 4.33548 10
      vertex 14.3598 4.33548 -10
    endloop
  endfacet
  facet normal 0.937281 0.348574 0
    outer loop
      vertex 14.1656 4.933 10
      vertex 13.9466 5.52187 -10
      vertex 13.9466 5.52187 10
    endloop
  endfacet
  facet normal 0.937281 0.348574 0
    outer loop
      vertex 13.9466 5.52187 -10
      vertex 14.1656 4.933 10
      vertex 14.1656 4.933 -10
    endloop
  endfacet
  facet normal 0.9219 0.387428 0
    outer loop
      vertex 13.9466 5.52187 10
      vertex 13.7032 6.10105 -10
      vertex 13.7032 6.10105 10
    endloop
  endfacet
  facet normal 0.9219 0.387428 0
    outer loop
      vertex 13.7032 6.10105 -10
      vertex 13.9466 5.52187 10
      vertex 13.9466 5.52187 -10
    endloop
  endfacet
  facet normal 0.904831 0.425771 0
    outer loop
      vertex 13.7032 6.10105 10
      vertex 13.4357 6.66953 -10
      vertex 13.4357 6.66953 10
    endloop
  endfacet
  facet normal 0.904831 0.425771 0
    outer loop
      vertex 13.4357 6.66953 -10
      vertex 13.7032 6.10105 10
      vertex 13.7032 6.10105 -10
    endloop
  endfacet
  facet normal 0.886189 0.463324 0
    outer loop
      vertex 13.4357 6.66953 10
      vertex 13.1446 7.22631 -10
      vertex 13.1446 7.22631 10
    endloop
  endfacet
  facet normal 0.886189 0.463324 0
    outer loop
      vertex 13.1446 7.22631 -10
      vertex 13.4357 6.66953 10
      vertex 13.4357 6.66953 -10
    endloop
  endfacet
  facet normal 0.86605 0.499957 0
    outer loop
      vertex 13.1446 7.22631 10
      vertex 12.8305 7.77041 -10
      vertex 12.8305 7.77041 10
    endloop
  endfacet
  facet normal 0.86605 0.499957 0
    outer loop
      vertex 12.8305 7.77041 -10
      vertex 13.1446 7.22631 10
      vertex 13.1446 7.22631 -10
    endloop
  endfacet
  facet normal 0.844285 0.535895 0
    outer loop
      vertex 12.8305 7.77041 10
      vertex 12.4938 8.30087 -10
      vertex 12.4938 8.30087 10
    endloop
  endfacet
  facet normal 0.844285 0.535895 0
    outer loop
      vertex 12.4938 8.30087 -10
      vertex 12.8305 7.77041 10
      vertex 12.8305 7.77041 -10
    endloop
  endfacet
  facet normal 0.821199 0.570642 0
    outer loop
      vertex 12.4938 8.30087 10
      vertex 12.1353 8.81678 -10
      vertex 12.1353 8.81678 10
    endloop
  endfacet
  facet normal 0.821199 0.570642 0
    outer loop
      vertex 12.1353 8.81678 -10
      vertex 12.4938 8.30087 10
      vertex 12.4938 8.30087 -10
    endloop
  endfacet
  facet normal 0.796495 0.604645 0
    outer loop
      vertex 12.1353 8.81678 10
      vertex 11.7554 9.31722 -10
      vertex 11.7554 9.31722 10
    endloop
  endfacet
  facet normal 0.796495 0.604645 0
    outer loop
      vertex 11.7554 9.31722 -10
      vertex 12.1353 8.81678 10
      vertex 12.1353 8.81678 -10
    endloop
  endfacet
  facet normal 0.770493 0.637448 0
    outer loop
      vertex 11.7554 9.31722 10
      vertex 11.3549 9.80131 -10
      vertex 11.3549 9.80131 10
    endloop
  endfacet
  facet normal 0.770493 0.637448 0
    outer loop
      vertex 11.3549 9.80131 -10
      vertex 11.7554 9.31722 10
      vertex 11.7554 9.31722 -10
    endloop
  endfacet
  facet normal 0.743137 0.66914 0
    outer loop
      vertex 11.3549 9.80131 10
      vertex 10.9345 10.2682 -10
      vertex 10.9345 10.2682 10
    endloop
  endfacet
  facet normal 0.743137 0.66914 0
    outer loop
      vertex 10.9345 10.2682 -10
      vertex 11.3549 9.80131 10
      vertex 11.3549 9.80131 -10
    endloop
  endfacet
  facet normal 0.714549 0.699586 0
    outer loop
      vertex 10.9345 10.2682 10
      vertex 10.495 10.7171 -10
      vertex 10.495 10.7171 10
    endloop
  endfacet
  facet normal 0.714549 0.699586 0
    outer loop
      vertex 10.495 10.7171 -10
      vertex 10.9345 10.2682 10
      vertex 10.9345 10.2682 -10
    endloop
  endfacet
  facet normal 0.684555 0.728961 -0
    outer loop
      vertex 10.495 10.7171 -10
      vertex 10.037 11.1472 10
      vertex 10.495 10.7171 10
    endloop
  endfacet
  facet normal 0.684555 0.728961 0
    outer loop
      vertex 10.037 11.1472 10
      vertex 10.495 10.7171 -10
      vertex 10.037 11.1472 -10
    endloop
  endfacet
  facet normal 0.653365 0.757043 -0
    outer loop
      vertex 10.037 11.1472 -10
      vertex 9.56136 11.5577 10
      vertex 10.037 11.1472 10
    endloop
  endfacet
  facet normal 0.653365 0.757043 0
    outer loop
      vertex 9.56136 11.5577 10
      vertex 10.037 11.1472 -10
      vertex 9.56136 11.5577 -10
    endloop
  endfacet
  facet normal 0.621101 0.78373 -0
    outer loop
      vertex 9.56136 11.5577 -10
      vertex 9.06899 11.9479 10
      vertex 9.56136 11.5577 10
    endloop
  endfacet
  facet normal 0.621101 0.78373 0
    outer loop
      vertex 9.06899 11.9479 10
      vertex 9.56136 11.5577 -10
      vertex 9.06899 11.9479 -10
    endloop
  endfacet
  facet normal 0.587791 0.809013 -0
    outer loop
      vertex 9.06899 11.9479 -10
      vertex 8.5607 12.3172 10
      vertex 9.06899 11.9479 10
    endloop
  endfacet
  facet normal 0.587791 0.809013 0
    outer loop
      vertex 8.5607 12.3172 10
      vertex 9.06899 11.9479 -10
      vertex 8.5607 12.3172 -10
    endloop
  endfacet
  facet normal 0.553414 0.832906 -0
    outer loop
      vertex 8.5607 12.3172 -10
      vertex 8.0374 12.6649 10
      vertex 8.5607 12.3172 10
    endloop
  endfacet
  facet normal 0.553414 0.832906 0
    outer loop
      vertex 8.0374 12.6649 10
      vertex 8.5607 12.3172 -10
      vertex 8.0374 12.6649 -10
    endloop
  endfacet
  facet normal 0.518072 0.855337 -0
    outer loop
      vertex 8.0374 12.6649 -10
      vertex 7.5 12.9904 10
      vertex 8.0374 12.6649 10
    endloop
  endfacet
  facet normal 0.518072 0.855337 0
    outer loop
      vertex 7.5 12.9904 10
      vertex 8.0374 12.6649 -10
      vertex 7.5 12.9904 -10
    endloop
  endfacet
  facet normal 0.481787 0.876288 -0
    outer loop
      vertex 7.5 12.9904 -10
      vertex 6.94944 13.2931 10
      vertex 7.5 12.9904 10
    endloop
  endfacet
  facet normal 0.481787 0.876288 0
    outer loop
      vertex 6.94944 13.2931 10
      vertex 7.5 12.9904 -10
      vertex 6.94944 13.2931 -10
    endloop
  endfacet
  facet normal 0.444569 0.895744 -0
    outer loop
      vertex 6.94944 13.2931 -10
      vertex 6.38669 13.5724 10
      vertex 6.94944 13.2931 10
    endloop
  endfacet
  facet normal 0.444569 0.895744 0
    outer loop
      vertex 6.38669 13.5724 10
      vertex 6.94944 13.2931 -10
      vertex 6.38669 13.5724 -10
    endloop
  endfacet
  facet normal 0.406679 0.913571 -0
    outer loop
      vertex 6.38669 13.5724 -10
      vertex 5.81273 13.8279 10
      vertex 6.38669 13.5724 10
    endloop
  endfacet
  facet normal 0.406679 0.913571 0
    outer loop
      vertex 5.81273 13.8279 10
      vertex 6.38669 13.5724 -10
      vertex 5.81273 13.8279 -10
    endloop
  endfacet
  facet normal 0.36815 0.929766 -0
    outer loop
      vertex 5.81273 13.8279 -10
      vertex 5.22858 14.0592 10
      vertex 5.81273 13.8279 10
    endloop
  endfacet
  facet normal 0.36815 0.929766 0
    outer loop
      vertex 5.22858 14.0592 10
      vertex 5.81273 13.8279 -10
      vertex 5.22858 14.0592 -10
    endloop
  endfacet
  facet normal 0.328839 0.944386 -0
    outer loop
      vertex 5.22858 14.0592 -10
      vertex 4.63525 14.2658 10
      vertex 5.22858 14.0592 10
    endloop
  endfacet
  facet normal 0.328839 0.944386 0
    outer loop
      vertex 4.63525 14.2658 10
      vertex 5.22858 14.0592 -10
      vertex 4.63525 14.2658 -10
    endloop
  endfacet
  facet normal 0.289049 0.957314 -0
    outer loop
      vertex 4.63525 14.2658 -10
      vertex 4.0338 14.4474 10
      vertex 4.63525 14.2658 10
    endloop
  endfacet
  facet normal 0.289049 0.957314 0
    outer loop
      vertex 4.0338 14.4474 10
      vertex 4.63525 14.2658 -10
      vertex 4.0338 14.4474 -10
    endloop
  endfacet
  facet normal 0.24877 0.968563 -0
    outer loop
      vertex 4.0338 14.4474 -10
      vertex 3.42526 14.6037 10
      vertex 4.0338 14.4474 10
    endloop
  endfacet
  facet normal 0.24877 0.968563 0
    outer loop
      vertex 3.42526 14.6037 10
      vertex 4.0338 14.4474 -10
      vertex 3.42526 14.6037 -10
    endloop
  endfacet
  facet normal 0.207874 0.978156 -0
    outer loop
      vertex 3.42526 14.6037 -10
      vertex 2.81072 14.7343 10
      vertex 3.42526 14.6037 10
    endloop
  endfacet
  facet normal 0.207874 0.978156 0
    outer loop
      vertex 2.81072 14.7343 10
      vertex 3.42526 14.6037 -10
      vertex 2.81072 14.7343 -10
    endloop
  endfacet
  facet normal 0.166807 0.98599 -0
    outer loop
      vertex 2.81072 14.7343 -10
      vertex 2.19125 14.8391 10
      vertex 2.81072 14.7343 10
    endloop
  endfacet
  facet normal 0.166807 0.98599 0
    outer loop
      vertex 2.19125 14.8391 10
      vertex 2.81072 14.7343 -10
      vertex 2.19125 14.8391 -10
    endloop
  endfacet
  facet normal 0.125265 0.992123 -0
    outer loop
      vertex 2.19125 14.8391 -10
      vertex 1.56793 14.9178 10
      vertex 2.19125 14.8391 10
    endloop
  endfacet
  facet normal 0.125265 0.992123 0
    outer loop
      vertex 1.56793 14.9178 10
      vertex 2.19125 14.8391 -10
      vertex 1.56793 14.9178 -10
    endloop
  endfacet
  facet normal 0.0837209 0.996489 -0
    outer loop
      vertex 1.56793 14.9178 -10
      vertex 0.941858 14.9704 10
      vertex 1.56793 14.9178 10
    endloop
  endfacet
  facet normal 0.0837209 0.996489 0
    outer loop
      vertex 0.941858 14.9704 10
      vertex 1.56793 14.9178 -10
      vertex 0.941858 14.9704 -10
    endloop
  endfacet
  facet normal 0.0418608 0.999123 -0
    outer loop
      vertex 0.941858 14.9704 -10
      vertex 0.314136 14.9967 10
      vertex 0.941858 14.9704 10
    endloop
  endfacet
  facet normal 0.0418608 0.999123 0
    outer loop
      vertex 0.314136 14.9967 10
      vertex 0.941858 14.9704 -10
      vertex 0.314136 14.9967 -10
    endloop
  endfacet
  facet normal 0 1 -0
    outer loop
      vertex 0.314136 14.9967 -10
      vertex -0.314136 14.9967 10
      vertex 0.314136 14.9967 10
    endloop
  endfacet
  facet normal 0 1 0
    outer loop
      vertex -0.314136 14.9967 10
      vertex 0.314136 14.9967 -10
      vertex -0.314136 14.9967 -10
    endloop
  endfacet
  facet normal -0.0418608 0.999123 0
    outer loop
      vertex -0.314136 14.9967 -10
      vertex -0.941858 14.9704 10
      vertex -0.314136 14.9967 10
    endloop
  endfacet
  facet normal -0.0418608 0.999123 0
    outer loop
      vertex -0.941858 14.9704 10
      vertex -0.314136 14.9967 -10
      vertex -0.941858 14.9704 -10
    endloop
  endfacet
  facet normal -0.0837209 0.996489 0
    outer loop
      vertex -0.941858 14.9704 -10
      vertex -1.56793 14.9178 10
      vertex -0.941858 14.9704 10
    endloop
  endfacet
  facet normal -0.0837209 0.996489 0
    outer loop
      vertex -1.56793 14.9178 10
      vertex -0.941858 14.9704 -10
      vertex -1.56793 14.9178 -10
    endloop
  endfacet
  facet normal -0.125265 0.992123 0
    outer loop
      vertex -1.56793 14.9178 -10
      vertex -2.19125 14.8391 10
      vertex -1.56793 14.9178 10
    endloop
  endfacet
  facet normal -0.125265 0.992123 0
    outer loop
      vertex -2.19125 14.8391 10
      vertex -1.56793 14.9178 -10
      vertex -2.19125 14.8391 -10
    endloop
  endfacet
  facet normal -0.166807 0.98599 0
    outer loop
      vertex -2.19125 14.8391 -10
      vertex -2.81072 14.7343 10
      vertex -2.19125 14.8391 10
    endloop
  endfacet
  facet normal -0.166807 0.98599 0
    outer loop
      vertex -2.81072 14.7343 10
      vertex -2.19125 14.8391 -10
      vertex -2.81072 14.7343 -10
    endloop
  endfacet
  facet normal -0.207874 0.978156 0
    outer loop
      vertex -2.81072 14.7343 -10
      vertex -3.42526 14.6037 10
      vertex -2.81072 14.7343 10
    endloop
  endfacet
  facet normal -0.207874 0.978156 0
    outer loop
      vertex -3.42526 14.6037 10
      vertex -2.81072 14.7343 -10
      vertex -3.42526 14.6037 -10
    endloop
  endfacet
  facet normal -0.24877 0.968563 0
    outer loop
      vertex -3.42526 14.6037 -10
      vertex -4.0338 14.4474 10
      vertex -3.42526 14.6037 10
    endloop
  endfacet
  facet normal -0.24877 0.968563 0
    outer loop
      vertex -4.0338 14.4474 10
      vertex -3.42526 14.6037 -10
      vertex -4.0338 14.4474 -10
    endloop
  endfacet
  facet normal -0.289049 0.957314 0
    outer loop
      vertex -4.0338 14.4474 -10
      vertex -4.63525 14.2658 10
      vertex -4.0338 14.4474 10
    endloop
  endfacet
  facet normal -0.289049 0.957314 0
    outer loop
      vertex -4.63525 14.2658 10
      vertex -4.0338 14.4474 -10
      vertex -4.63525 14.2658 -10
    endloop
  endfacet
  facet normal -0.328839 0.944386 0
    outer loop
      vertex -4.63525 14.2658 -10
      vertex -5.22858 14.0592 10
      vertex -4.63525 14.2658 10
    endloop
  endfacet
  facet normal -0.328839 0.944386 0
    outer loop
      vertex -5.22858 14.0592 10
      vertex -4.63525 14.2658 -10
      vertex -5.22858 14.0592 -10
    endloop
  endfacet
  facet normal -0.36815 0.929766 0
    outer loop
      vertex -5.22858 14.0592 -10
      vertex -5.81273 13.8279 10
      vertex -5.22858 14.0592 10
    endloop
  endfacet
  facet normal -0.36815 0.929766 0
    outer loop
      vertex -5.81273 13.8279 10
      vertex -5.22858 14.0592 -10
      vertex -5.81273 13.8279 -10
    endloop
  endfacet
  facet normal -0.406679 0.913571 0
    outer loop
      vertex -5.81273 13.8279 -10
      vertex -6.38669 13.5724 10
      vertex -5.81273 13.8279 10
    endloop
  endfacet
  facet normal -0.406679 0.913571 0
    outer loop
      vertex -6.38669 13.5724 10
      vertex -5.81273 13.8279 -10
      vertex -6.38669 13.5724 -10
    endloop
  endfacet
  facet normal -0.444569 0.895744 0
    outer loop
      vertex -6.38669 13.5724 -10
      vertex -6.94944 13.2931 10
      vertex -6.38669 13.5724 10
    endloop
  endfacet
  facet normal -0.444569 0.895744 0
    outer loop
      vertex -6.94944 13.2931 10
      vertex -6.38669 13.5724 -10
      vertex -6.94944 13.2931 -10
    endloop
  endfacet
  facet normal -0.481787 0.876288 0
    outer loop
      vertex -6.94944 13.2931 -10
      vertex -7.5 12.9904 10
      vertex -6.94944 13.2931 10
    endloop
  endfacet
  facet normal -0.481787 0.876288 0
    outer loop
      vertex -7.5 12.9904 10
      vertex -6.94944 13.2931 -10
      vertex -7.5 12.9904 -10
    endloop
  endfacet
  facet normal -0.518072 0.855337 0
    outer loop
      vertex -7.5 12.9904 -10
      vertex -8.0374 12.6649 10
      vertex -7.5 12.9904 10
    endloop
  endfacet
  facet normal -0.518072 0.855337 0
    outer loop
      vertex -8.0374 12.6649 10
      vertex -7.5 12.9904 -10
      vertex -8.0374 12.6649 -10
    endloop
  endfacet
  facet normal -0.553414 0.832906 0
    outer loop
      vertex -8.0374 12.6649 -10
      vertex -8.5607 12.3172 10
      vertex -8.0374 12.6649 10
    endloop
  endfacet
  facet normal -0.553414 0.832906 0
    outer loop
      vertex -8.5607 12.3172 10
      vertex -8.0374 12.6649 -10
      vertex -8.5607 12.3172 -10
    endloop
  endfacet
  facet normal -0.587791 0.809013 0
    outer loop
      vertex -8.5607 12.3172 -10
      vertex -9.06899 11.9479 10
      vertex -8.5607 12.3172 10
    endloop
  endfacet
  facet normal -0.587791 0.809013 0
    outer loop
      vertex -9.06899 11.9479 10
      vertex -8.5607 12.3172 -10
      vertex -9.06899 11.9479 -10
    endloop
  endfacet
  facet normal -0.621101 0.78373 0
    outer loop
      vertex -9.06899 11.9479 -10
      vertex -9.56136 11.5577 10
      vertex -9.06899 11.9479 10
    endloop
  endfacet
  facet normal -0.621101 0.78373 0
    outer loop
      vertex -9.56136 11.5577 10
      vertex -9.06899 11.9479 -10
      vertex -9.56136 11.5577 -10
    endloop
  endfacet
  facet normal -0.653365 0.757043 0
    outer loop
      vertex -9.56136 11.5577 -10
      vertex -10.037 11.1472 10
      vertex -9.56136 11.5577 10
    endloop
  endfacet
  facet normal -0.653365 0.757043 0
    outer loop
      vertex -10.037 11.1472 10
      vertex -9.56136 11.5577 -10
      vertex -10.037 11.1472 -10
    endloop
  endfacet
  facet normal -0.684555 0.728961 0
    outer loop
      vertex -10.037 11.1472 -10
      vertex -10.495 10.7171 10
      vertex -10.037 11.1472 10
    endloop
  endfacet
  facet normal -0.684555 0.728961 0
    outer loop
      vertex -10.495 10.7171 10
      vertex -10.037 11.1472 -10
      vertex -10.495 10.7171 -10
    endloop
  endfacet
  facet normal -0.714549 0.699586 0
    outer loop
      vertex -10.9345 10.2682 -10
      vertex -10.495 10.7171 10
      vertex -10.495 10.7171 -10
    endloop
  endfacet
  facet normal -0.714549 0.699586 0
    outer loop
      vertex -10.495 10.7171 10
      vertex -10.9345 10.2682 -10
      vertex -10.9345 10.2682 10
    endloop
  endfacet
  facet normal -0.743137 0.66914 0
    outer loop
      vertex -11.3549 9.80131 -10
      vertex -10.9345 10.2682 10
      vertex -10.9345 10.2682 -10
    endloop
  endfacet
  facet normal -0.743137 0.66914 0
    outer loop
      vertex -10.9345 10.2682 10
      vertex -11.3549 9.80131 -10
      vertex -11.3549 9.80131 10
    endloop
  endfacet
  facet normal -0.770493 0.637448 0
    outer loop
      vertex -11.7554 9.31722 -10
      vertex -11.3549 9.80131 10
      vertex -11.3549 9.80131 -10
    endloop
  endfacet
  facet normal -0.770493 0.637448 0
    outer loop
      vertex -11.3549 9.80131 10
      vertex -11.7554 9.31722 -10
      vertex -11.7554 9.31722 10
    endloop
  endfacet
  facet normal -0.796495 0.604645 0
    outer loop
      vertex -12.1353 8.81678 -10
      vertex -11.7554 9.31722 10
      vertex -11.7554 9.31722 -10
    endloop
  endfacet
  facet normal -0.796495 0.604645 0
    outer loop
      vertex -11.7554 9.31722 10
      vertex -12.1353 8.81678 -10
      vertex -12.1353 8.81678 10
    endloop
  endfacet
  facet normal -0.821199 0.570642 0
    outer loop
      vertex -12.4938 8.30087 -10
      vertex -12.1353 8.81678 10
      vertex -12.1353 8.81678 -10
    endloop
  endfacet
  facet normal -0.821199 0.570642 0
    outer loop
      vertex -12.1353 8.81678 10
      vertex -12.4938 8.30087 -10
      vertex -12.4938 8.30087 10
    endloop
  endfacet
  facet normal -0.844285 0.535895 0
    outer loop
      vertex -12.8305 7.77041 -10
      vertex -12.4938 8.30087 10
      vertex -12.4938 8.30087 -10
    endloop
  endfacet
  facet normal -0.844285 0.535895 0
    outer loop
      vertex -12.4938 8.30087 10
      vertex -12.8305 7.77041 -10
      vertex -12.8305 7.77041 10
    endloop
  endfacet
  facet normal -0.86605 0.499957 0
    outer loop
      vertex -13.1446 7.22631 -10
      vertex -12.8305 7.77041 10
      vertex -12.8305 7.77041 -10
    endloop
  endfacet
  facet normal -0.86605 0.499957 0
    outer loop
      vertex -12.8305 7.77041 10
      vertex -13.1446 7.22631 -10
      vertex -13.1446 7.22631 10
    endloop
  endfacet
  facet normal -0.886189 0.463324 0
    outer loop
      vertex -13.4357 6.66953 -10
      vertex -13.1446 7.22631 10
      vertex -13.1446 7.22631 -10
    endloop
  endfacet
  facet normal -0.886189 0.463324 0
    outer loop
      vertex -13.1446 7.22631 10
      vertex -13.4357 6.66953 -10
      vertex -13.4357 6.66953 10
    endloop
  endfacet
  facet normal -0.904831 0.425771 0
    outer loop
      vertex -13.7032 6.10105 -10
      vertex -13.4357 6.66953 10
      vertex -13.4357 6.66953 -10
    endloop
  endfacet
  facet normal -0.904831 0.425771 0
    outer loop
      vertex -13.4357 6.66953 10
      vertex -13.7032 6.10105 -10
      vertex -13.7032 6.10105 10
    endloop
  endfacet
  facet normal -0.9219 0.387428 0
    outer loop
      vertex -13.9466 5.52187 -10
      vertex -13.7032 6.10105 10
      vertex -13.7032 6.10105 -10
    endloop
  endfacet
  facet normal -0.9219 0.387428 0
    outer loop
      vertex -13.7032 6.10105 10
      vertex -13.9466 5.52187 -10
      vertex -13.9466 5.52187 10
    endloop
  endfacet
  facet normal -0.937281 0.348574 0
    outer loop
      vertex -14.1656 4.933 -10
      vertex -13.9466 5.52187 10
      vertex -13.9466 5.52187 -10
    endloop
  endfacet
  facet normal -0.937281 0.348574 0
    outer loop
      vertex -13.9466 5.52187 10
      vertex -14.1656 4.933 -10
      vertex -14.1656 4.933 10
    endloop
  endfacet
  facet normal -0.951031 0.309095 0
    outer loop
      vertex -14.3598 4.33548 -10
      vertex -14.1656 4.933 10
      vertex -14.1656 4.933 -10
    endloop
  endfacet
  facet normal -0.951031 0.309095 0
    outer loop
      vertex -14.1656 4.933 10
      vertex -14.3598 4.33548 -10
      vertex -14.3598 4.33548 10
    endloop
  endfacet
  facet normal -0.963185 0.268838 0
    outer loop
      vertex -14.5287 3.73035 -10
      vertex -14.3598 4.33548 10
      vertex -14.3598 4.33548 -10
    endloop
  endfacet
  facet normal -0.963185 0.268838 0
    outer loop
      vertex -14.3598 4.33548 10
      vertex -14.5287 3.73035 -10
      vertex -14.5287 3.73035 10
    endloop
  endfacet
  facet normal -0.973567 0.228402 0
    outer loop
      vertex -14.6722 3.11868 -10
      vertex -14.5287 3.73035 10
      vertex -14.5287 3.73035 -10
    endloop
  endfacet
  facet normal -0.973567 0.228402 0
    outer loop
      vertex -14.5287 3.73035 10
      vertex -14.6722 3.11868 -10
      vertex -14.6722 3.11868 10
    endloop
  endfacet
  facet normal -0.982295 0.187339 0
    outer loop
      vertex -14.7899 2.50153 -10
      vertex -14.6722 3.11868 10
      vertex -14.6722 3.11868 -10
    endloop
  endfacet
  facet normal -0.982295 0.187339 0
    outer loop
      vertex -14.6722 3.11868 10
      vertex -14.7899 2.50153 -10
      vertex -14.7899 2.50153 10
    endloop
  endfacet
  facet normal -0.989268 0.146115 0
    outer loop
      vertex -14.8817 1.88 -10
      vertex -14.7899 2.50153 10
      vertex -14.7899 2.50153 -10
    endloop
  endfacet
  facet normal -0.989268 0.146115 0
    outer loop
      vertex -14.7899 2.50153 10
      vertex -14.8817 1.88 -10
      vertex -14.8817 1.88 10
    endloop
  endfacet
  facet normal -0.994517 0.104572 0
    outer loop
      vertex -14.9474 1.25517 -10
      vertex -14.8817 1.88 10
      vertex -14.8817 1.88 -10
    endloop
  endfacet
  facet normal -0.994517 0.104572 0
    outer loop
      vertex -14.8817 1.88 10
      vertex -14.9474 1.25517 -10
      vertex -14.9474 1.25517 10
    endloop
  endfacet
  facet normal -0.998032 0.0627117 0
    outer loop
      vertex -14.9868 0.628135 -10
      vertex -14.9474 1.25517 10
      vertex -14.9474 1.25517 -10
    endloop
  endfacet
  facet normal -0.998032 0.0627117 0
    outer loop
      vertex -14.9474 1.25517 10
      vertex -14.9868 0.628135 -10
      vertex -14.9868 0.628135 10
    endloop
  endfacet
  facet normal -0.999779 0.02101 0
    outer loop
      vertex -15 0 -10
      vertex -14.9868 0.628135 10
      vertex -14.9868 0.628135 -10
    endloop
  endfacet
  facet normal -0.999779 0.02101 0
    outer loop
      vertex -14.9868 0.628135 10
      vertex -15 0 -10
      vertex -15 0 10
    endloop
  endfacet
  facet normal -0.999779 -0.02101 0
    outer loop
      vertex -14.9868 -0.628135 -10
      vertex -15 0 10
      vertex -15 0 -10
    endloop
  endfacet
  facet normal -0.999779 -0.02101 0
    outer loop
      vertex -15 0 10
      vertex -14.9868 -0.628135 -10
      vertex -14.9868 -0.628135 10
    endloop
  endfacet
  facet normal -0.998032 -0.0627117 0
    outer loop
      vertex -14.9474 -1.25517 -10
      vertex -14.9868 -0.628135 10
      vertex -14.9868 -0.628135 -10
    endloop
  endfacet
  facet normal -0.998032 -0.0627117 0
    outer loop
      vertex -14.9868 -0.628135 10
      vertex -14.9474 -1.25517 -10
      vertex -14.9474 -1.25517 10
    endloop
  endfacet
  facet normal -0.994517 -0.104572 0
    outer loop
      vertex -14.8817 -1.88 -10
      vertex -14.9474 -1.25517 10
      vertex -14.9474 -1.25517 -10
    endloop
  endfacet
  facet normal -0.994517 -0.104572 0
    outer loop
      vertex -14.9474 -1.25517 10
      vertex -14.8817 -1.88 -10
      vertex -14.8817 -1.88 10
    endloop
  endfacet
  facet normal -0.989268 -0.146115 0
    outer loop
      vertex -14.7899 -2.50153 -10
      vertex -14.8817 -1.88 10
      vertex -14.8817 -1.88 -10
    endloop
  endfacet
  facet normal -0.989268 -0.146115 0
    outer loop
      vertex -14.8817 -1.88 10
      vertex -14.7899 -2.50153 -10
      vertex -14.7899 -2.50153 10
    endloop
  endfacet
  facet normal -0.982295 -0.187339 0
    outer loop
      vertex -14.6722 -3.11868 -10
      vertex -14.7899 -2.50153 10
      vertex -14.7899 -2.50153 -10
    endloop
  endfacet
  facet normal -0.982295 -0.187339 0
    outer loop
      vertex -14.7899 -2.50153 10
      vertex -14.6722 -3.11868 -10
      vertex -14.6722 -3.11868 10
    endloop
  endfacet
  facet normal -0.973567 -0.228402 0
    outer loop
      vertex -14.5287 -3.73035 -10
      vertex -14.6722 -3.11868 10
      vertex -14.6722 -3.11868 -10
    endloop
  endfacet
  facet normal -0.973567 -0.228402 0
    outer loop
      vertex -14.6722 -3.11868 10
      vertex -14.5287 -3.73035 -10
      vertex -14.5287 -3.73035 10
    endloop
  endfacet
  facet normal -0.963185 -0.268838 0
    outer loop
      vertex -14.3598 -4.33548 -10
      vertex -14.5287 -3.73035 10
      vertex -14.5287 -3.73035 -10
    endloop
  endfacet
  facet normal -0.963185 -0.268838 0
    outer loop
      vertex -14.5287 -3.73035 10
      vertex -14.3598 -4.33548 -10
      vertex -14.3598 -4.33548 10
    endloop
  endfacet
  facet normal -0.951031 -0.309095 0
    outer loop
      vertex -14.1656 -4.933 -10
      vertex -14.3598 -4.33548 10
      vertex -14.3598 -4.33548 -10
    endloop
  endfacet
  facet normal -0.951031 -0.309095 0
    outer loop
      vertex -14.3598 -4.33548 10
      vertex -14.1656 -4.933 -10
      vertex -14.1656 -4.933 10
    endloop
  endfacet
  facet normal -0.937281 -0.348574 0
    outer loop
      vertex -13.9466 -5.52187 -10
      vertex -14.1656 -4.933 10
      vertex -14.1656 -4.933 -10
    endloop
  endfacet
  facet normal -0.937281 -0.348574 0
    outer loop
      vertex -14.1656 -4.933 10
      vertex -13.9466 -5.52187 -10
      vertex -13.9466 -5.52187 10
    endloop
  endfacet
  facet normal -0.9219 -0.387428 0
    outer loop
      vertex -13.7032 -6.10105 -10
      vertex -13.9466 -5.52187 10
      vertex -13.9466 -5.52187 -10
    endloop
  endfacet
  facet normal -0.9219 -0.387428 0
    outer loop
      vertex -13.9466 -5.52187 10
      vertex -13.7032 -6.10105 -10
      vertex -13.7032 -6.10105 10
    endloop
  endfacet
  facet normal -0.904831 -0.425771 0
    outer loop
      vertex -13.4357 -6.66953 -10
      vertex -13.7032 -6.10105 10
      vertex -13.7032 -6.10105 -10
    endloop
  endfacet
  facet normal -0.904831 -0.425771 0
    outer loop
      vertex -13.7032 -6.10105 10
      vertex -13.4357 -6.66953 -10
      vertex -13.4357 -6.66953 10
    endloop
  endfacet
  facet normal -0.886189 -0.463324 0
    outer loop
      vertex -13.1446 -7.22631 -10
      vertex -13.4357 -6.66953 10
      vertex -13.4357 -6.66953 -10
    endloop
  endfacet
  facet normal -0.886189 -0.463324 0
    outer loop
      vertex -13.4357 -6.66953 10
      vertex -13.1446 -7.22631 -10
      vertex -13.1446 -7.22631 10
    endloop
  endfacet
  facet normal -0.86605 -0.499957 0
    outer loop
      vertex -12.8305 -7.77041 -10
      vertex -13.1446 -7.22631 10
      vertex -13.1446 -7.22631 -10
    endloop
  endfacet
  facet normal -0.86605 -0.499957 0
    outer loop
      vertex -13.1446 -7.22631 10
      vertex -12.8305 -7.77041 -10
      vertex -12.8305 -7.77041 10
    endloop
  endfacet
  facet normal -0.844285 -0.535895 0
    outer loop
      vertex -12.4938 -8.30087 -10
      vertex -12.8305 -7.77041 10
      vertex -12.8305 -7.77041 -10
    endloop
  endfacet
  facet normal -0.844285 -0.535895 0
    outer loop
      vertex -12.8305 -7.77041 10
      vertex -12.4938 -8.30087 -10
      vertex -12.4938 -8.30087 10
    endloop
  endfacet
  facet normal -0.821199 -0.570642 0
    outer loop
      vertex -12.1353 -8.81678 -10
      vertex -12.4938 -8.30087 10
      vertex -12.4938 -8.30087 -10
    endloop
  endfacet
  facet normal -0.821199 -0.570642 0
    outer loop
      vertex -12.4938 -8.30087 10
      vertex -12.1353 -8.81678 -10
      vertex -12.1353 -8.81678 10
    endloop
  endfacet
  facet normal -0.796495 -0.604645 0
    outer loop
      vertex -11.7554 -9.31722 -10
      vertex -12.1353 -8.81678 10
      vertex -12.1353 -8.81678 -10
    endloop
  endfacet
  facet normal -0.796495 -0.604645 0
    outer loop
      vertex -12.1353 -8.81678 10
      vertex -11.7554 -9.31722 -10
      vertex -11.7554 -9.31722 10
    endloop
  endfacet
  facet normal -0.770493 -0.637448 0
    outer loop
      vertex -11.3549 -9.80131 -10
      vertex -11.7554 -9.31722 10
      vertex -11.7554 -9.31722 -10
    endloop
  endfacet
  facet normal -0.770493 -0.637448 0
    outer loop
      vertex -11.7554 -9.31722 10
      vertex -11.3549 -9.80131 -10
      vertex -11.3549 -9.80131 10
    endloop
  endfacet
  facet normal -0.743137 -0.66914 0
    outer loop
      vertex -10.9345 -10.2682 -10
      vertex -11.3549 -9.80131 10
      vertex -11.3549 -9.80131 -10
    endloop
  endfacet
  facet normal -0.743137 -0.66914 0
    outer loop
      vertex -11.3549 -9.80131 10
      vertex -10.9345 -10.2682 -10
      vertex -10.9345 -10.2682 10
    endloop
  endfacet
  facet normal -0.714549 -0.699586 0
    outer loop
      vertex -10.495 -10.7171 -10
      vertex -10.9345 -10.2682 10
      vertex -10.9345 -10.2682 -10
    endloop
  endfacet
  facet normal -0.714549 -0.699586 0
    outer loop
      vertex -10.9345 -10.2682 10
      vertex -10.495 -10.7171 -10
      vertex -10.495 -10.7171 10
    endloop
  endfacet
  facet normal -0.684555 -0.728961 0
    outer loop
      vertex -10.495 -10.7171 -10
      vertex -10.037 -11.1472 10
      vertex -10.495 -10.7171 10
    endloop
  endfacet
  facet normal -0.684555 -0.728961 -0
    outer loop
      vertex -10.037 -11.1472 10
      vertex -10.495 -10.7171 -10
      vertex -10.037 -11.1472 -10
    endloop
  endfacet
  facet normal -0.653365 -0.757043 0
    outer loop
      vertex -10.037 -11.1472 -10
      vertex -9.56136 -11.5577 10
      vertex -10.037 -11.1472 10
    endloop
  endfacet
  facet normal -0.653365 -0.757043 -0
    outer loop
      vertex -9.56136 -11.5577 10
      vertex -10.037 -11.1472 -10
      vertex -9.56136 -11.5577 -10
    endloop
  endfacet
  facet normal -0.621101 -0.78373 0
    outer loop
      vertex -9.56136 -11.5577 -10
      vertex -9.06899 -11.9479 10
      vertex -9.56136 -11.5577 10
    endloop
  endfacet
  facet normal -0.621101 -0.78373 -0
    outer loop
      vertex -9.06899 -11.9479 10
      vertex -9.56136 -11.5577 -10
      vertex -9.06899 -11.9479 -10
    endloop
  endfacet
  facet normal -0.587791 -0.809013 0
    outer loop
      vertex -9.06899 -11.9479 -10
      vertex -8.5607 -12.3172 10
      vertex -9.06899 -11.9479 10
    endloop
  endfacet
  facet normal -0.587791 -0.809013 -0
    outer loop
      vertex -8.5607 -12.3172 10
      vertex -9.06899 -11.9479 -10
      vertex -8.5607 -12.3172 -10
    endloop
  endfacet
  facet normal -0.553414 -0.832906 0
    outer loop
      vertex -8.5607 -12.3172 -10
      vertex -8.0374 -12.6649 10
      vertex -8.5607 -12.3172 10
    endloop
  endfacet
  facet normal -0.553414 -0.832906 -0
    outer loop
      vertex -8.0374 -12.6649 10
      vertex -8.5607 -12.3172 -10
      vertex -8.0374 -12.6649 -10
    endloop
  endfacet
  facet normal -0.518072 -0.855337 0
    outer loop
      vertex -8.0374 -12.6649 -10
      vertex -7.5 -12.9904 10
      vertex -8.0374 -12.6649 10
    endloop
  endfacet
  facet normal -0.518072 -0.855337 -0
    outer loop
      vertex -7.5 -12.9904 10
      vertex -8.0374 -12.6649 -10
      vertex -7.5 -12.9904 -10
    endloop
  endfacet
  facet normal -0.481787 -0.876288 0
    outer loop
      vertex -7.5 -12.9904 -10
      vertex -6.94944 -13.2931 10
      vertex -7.5 -12.9904 10
    endloop
  endfacet
  facet normal -0.481787 -0.876288 -0
    outer loop
      vertex -6.94944 -13.2931 10
      vertex -7.5 -12.9904 -10
      vertex -6.94944 -13.2931 -10
    endloop
  endfacet
  facet normal -0.444569 -0.895744 0
    outer loop
      vertex -6.94944 -13.2931 -10
      vertex -6.38669 -13.5724 10
      vertex -6.94944 -13.2931 10
    endloop
  endfacet
  facet normal -0.444569 -0.895744 -0
    outer loop
      vertex -6.38669 -13.5724 10
      vertex -6.94944 -13.2931 -10
      vertex -6.38669 -13.5724 -10
    endloop
  endfacet
  facet normal -0.406679 -0.913571 0
    outer loop
      vertex -6.38669 -13.5724 -10
      vertex -5.81273 -13.8279 10
      vertex -6.38669 -13.5724 10
    endloop
  endfacet
  facet normal -0.406679 -0.913571 -0
    outer loop
      vertex -5.81273 -13.8279 10
      vertex -6.38669 -13.5724 -10
      vertex -5.81273 -13.8279 -10
    endloop
  endfacet
  facet normal -0.36815 -0.929766 0
    outer loop
      vertex -5.81273 -13.8279 -10
      vertex -5.22858 -14.0592 10
      vertex -5.81273 -13.8279 10
    endloop
  endfacet
  facet normal -0.36815 -0.929766 -0
    outer loop
      vertex -5.22858 -14.0592 10
      vertex -5.81273 -13.8279 -10
      vertex -5.22858 -14.0592 -10
    endloop
  endfacet
  facet normal -0.328839 -0.944386 0
    outer loop
      vertex -5.22858 -14.0592 -10
      vertex -4.63525 -14.2658 10
      vertex -5.22858 -14.0592 10
    endloop
  endfacet
  facet normal -0.328839 -0.944386 -0
    outer loop
      vertex -4.63525 -14.2658 10
      vertex -5.22858 -14.0592 -10
      vertex -4.63525 -14.2658 -10
    endloop
  endfacet
  facet normal -0.289049 -0.957314 0
    outer loop
      vertex -4.63525 -14.2658 -10
      vertex -4.0338 -14.4474 10
      vertex -4.63525 -14.2658 10
    endloop
  endfacet
  facet normal -0.289049 -0.957314 -0
    outer loop
      vertex -4.0338 -14.4474 10
      vertex -4.63525 -14.2658 -10
      vertex -4.0338 -14.4474 -10
    endloop
  endfacet
  facet normal -0.24877 -0.968563 0
    outer loop
      vertex -4.0338 -14.4474 -10
      vertex -3.42526 -14.6037 10
      vertex -4.0338 -14.4474 10
    endloop
  endfacet
  facet normal -0.24877 -0.968563 -0
    outer loop
      vertex -3.42526 -14.6037 10
      vertex -4.0338 -14.4474 -10
      vertex -3.42526 -14.6037 -10
    endloop
  endfacet
  facet normal -0.207874 -0.978156 0
    outer loop
      vertex -3.42526 -14.6037 -10
      vertex -2.81072 -14.7343 10
      vertex -3.42526 -14.6037 10
    endloop
  endfacet
  facet normal -0.207874 -0.978156 -0
    outer loop
      vertex -2.81072 -14.7343 10
      vertex -3.42526 -14.6037 -10
      vertex -2.81072 -14.7343 -10
    endloop
  endfacet
  facet normal -0.166807 -0.98599 0
    outer loop
      vertex -2.81072 -14.7343 -10
      vertex -2.19125 -14.8391 10
      vertex -2.81072 -14.7343 10
    endloop
  endfacet
  facet normal -0.166807 -0.98599 -0
    outer loop
      vertex -2.19125 -14.8391 10
      vertex -2.81072 -14.7343 -10
      vertex -2.19125 -14.8391 -10
    endloop
  endfacet
  facet normal -0.125265 -0.992123 0
    outer loop
      vertex -2.19125 -14.8391 -10
      vertex -1.56793 -14.9178 10
      vertex -2.19125 -14.8391 10
    endloop
  endfacet
  facet normal -0.125265 -0.992123 -0
    outer loop
      vertex -1.56793 -14.9178 10
      vertex -2.19125 -14.8391 -10
      vertex -1.56793 -14.9178 -10
    endloop
  endfacet
  facet normal -0.0837209 -0.996489 0
    outer loop
      vertex -1.56793 -14.9178 -10
      vertex -0.941858 -14.9704 10
      vertex -1.56793 -14.9178 10
    endloop
  endfacet
  facet normal -0.0837209 -0.996489 -0
    outer loop
      vertex -0.941858 -14.9704 10
      vertex -1.56793 -14.9178 -10
      vertex -0.941858 -14.9704 -10
    endloop
  endfacet
  facet normal -0.0418608 -0.999123 0
    outer loop
      vertex -0.941858 -14.9704 -10
      vertex -0.314136 -14.9967 10
      vertex -0.941858 -14.9704 10
    endloop
  endfacet
  facet normal -0.0418608 -0.999123 -0
    outer loop
      vertex -0.314136 -14.9967 10
      vertex -0.941858 -14.9704 -10
      vertex -0.314136 -14.9967 -10
    endloop
  endfacet
  facet normal 0 -1 0
    outer loop
      vertex -0.314136 -14.9967 -10
      vertex 0.314136 -14.9967 10
      vertex -0.314136 -14.9967 10
    endloop
  endfacet
  facet normal 0 -1 -0
    outer loop
      vertex 0.314136 -14.9967 10
      vertex -0.314136 -14.9967 -10
      vertex 0.314136 -14.9967 -10
    endloop
  endfacet
  facet normal 0.0418608 -0.999123 0
    outer loop
      vertex 0.314136 -14.9967 -10
      vertex 0.941858 -14.9704 10
      vertex 0.314136 -14.9967 10
    endloop
  endfacet
  facet normal 0.0418608 -0.999123 0
    outer loop
      vertex 0.941858 -14.9704 10
      vertex 0.314136 -14.9967 -10
      vertex 0.941858 -14.9704 -10
    endloop
  endfacet
  facet normal 0.0837209 -0.996489 0
    outer loop
      vertex 0.941858 -14.9704 -10
      vertex 1.56793 -14.9178 10
      vertex 0.941858 -14.9704 10
    endloop
  endfacet
  facet normal 0.0837209 -0.996489 0
    outer loop
      vertex 1.56793 -14.9178 10
      vertex 0.941858 -14.9704 -10
      vertex 1.56793 -14.9178 -10
    endloop
  endfacet
  facet normal 0.125265 -0.992123 0
    outer loop
      vertex 1.56793 -14.9178 -10
      vertex 2.19125 -14.8391 10
      vertex 1.56793 -14.9178 10
    endloop
  endfacet
  facet normal 0.125265 -0.992123 0
    outer loop
      vertex 2.19125 -14.8391 10
      vertex 1.56793 -14.9178 -10
      vertex 2.19125 -14.8391 -10
    endloop
  endfacet
  facet normal 0.166807 -0.98599 0
    outer loop
      vertex 2.19125 -14.8391 -10
      vertex 2.81072 -14.7343 10
      vertex 2.19125 -14.8391 10
    endloop
  endfacet
  facet normal 0.166807 -0.98599 0
    outer loop
      vertex 2.81072 -14.7343 10
      vertex 2.19125 -14.8391 -10
      vertex 2.81072 -14.7343 -10
    endloop
  endfacet
  facet normal 0.207874 -0.978156 0
    outer loop
      vertex 2.81072 -14.7343 -10
      vertex 3.42526 -14.6037 10
      vertex 2.81072 -14.7343 10
    endloop
  endfacet
  facet normal 0.207874 -0.978156 0
    outer loop
      vertex 3.42526 -14.6037 10
      vertex 2.81072 -14.7343 -10
      vertex 3.42526 -14.6037 -10
    endloop
  endfacet
  facet normal 0.24877 -0.968563 0
    outer loop
      vertex 3.42526 -14.6037 -10
      vertex 4.0338 -14.4474 10
      vertex 3.42526 -14.6037 10
    endloop
  endfacet
  facet normal 0.24877 -0.968563 0
    outer loop
      vertex 4.0338 -14.4474 10
      vertex 3.42526 -14.6037 -10
      vertex 4.0338 -14.4474 -10
    endloop
  endfacet
  facet normal 0.289049 -0.957314 0
    outer loop
      vertex 4.0338 -14.4474 -10
      vertex 4.63525 -14.2658 10
      vertex 4.0338 -14.4474 10
    endloop
  endfacet
  facet normal 0.289049 -0.957314 0
    outer loop
      vertex 4.63525 -14.2658 10
      vertex 4.0338 -14.4474 -10
      vertex 4.63525 -14.2658 -10
    endloop
  endfacet
  facet normal 0.328839 -0.944386 0
    outer loop
      vertex 4.63525 -14.2658 -10
      vertex 5.22858 -14.0592 10
      vertex 4.63525 -14.2658 10
    endloop
  endfacet
  facet normal 0.328839 -0.944386 0
    outer loop
      vertex 5.22858 -14.0592 10
      vertex 4.63525 -14.2658 -10
      vertex 5.22858 -14.0592 -10
    endloop
  endfacet
  facet normal 0.36815 -0.929766 0
    outer loop
      vertex 5.22858 -14.0592 -10
      vertex 5.81273 -13.8279 10
      vertex 5.22858 -14.0592 10
    endloop
  endfacet
  facet normal 0.36815 -0.929766 0
    outer loop
      vertex 5.81273 -13.8279 10
      vertex 5.22858 -14.0592 -10
      vertex 5.81273 -13.8279 -10
    endloop
  endfacet
  facet normal 0.406679 -0.913571 0
    outer loop
      vertex 5.81273 -13.8279 -10
      vertex 6.38669 -13.5724 10
      vertex 5.81273 -13.8279 10
    endloop
  endfacet
  facet normal 0.406679 -0.913571 0
    outer loop
      vertex 6.38669 -13.5724 10
      vertex 5.81273 -13.8279 -10
      vertex 6.38669 -13.5724 -10
    endloop
  endfacet
  facet normal 0.444569 -0.895744 0
    outer loop
      vertex 6.38669 -13.5724 -10
      vertex 6.94944 -13.2931 10
      vertex 6.38669 -13.5724 10
    endloop
  endfacet
  facet normal 0.444569 -0.895744 0
    outer loop
      vertex 6.94944 -13.2931 10
      vertex 6.38669 -13.5724 -10
      vertex 6.94944 -13.2931 -10
    endloop
  endfacet
  facet normal 0.481787 -0.876288 0
    outer loop
      vertex 6.94944 -13.2931 -10
      vertex 7.5 -12.9904 10
      vertex 6.94944 -13.2931 10
    endloop
  endfacet
  facet normal 0.481787 -0.876288 0
    outer loop
      vertex 7.5 -12.9904 10
      vertex 6.94944 -13.2931 -10
      vertex 7.5 -12.9904 -10
    endloop
  endfacet
  facet normal 0.518072 -0.855337 0
    outer loop
      vertex 7.5 -12.9904 -10
      vertex 8.0374 -12.6649 10
      vertex 7.5 -12.9904 10
    endloop
  endfacet
  facet normal 0.518072 -0.855337 0
    outer loop
      vertex 8.0374 -12.6649 10
      vertex 7.5 -12.9904 -10
      vertex 8.0374 -12.6649 -10
    endloop
  endfacet
  facet normal 0.553414 -0.832906 0
    outer loop
      vertex 8.0374 -12.6649 -10
      vertex 8.5607 -12.3172 10
      vertex 8.0374 -12.6649 10
    endloop
  endfacet
  facet normal 0.553414 -0.832906 0
    outer loop
      vertex 8.5607 -12.3172 10
      vertex 8.0374 -12.6649 -10
      vertex 8.5607 -12.3172 -10
    endloop
  endfacet
  facet normal 0.587791 -0.809013 0
    outer loop
      vertex 8.5607 -12.3172 -10
      vertex 9.06899 -11.9479 10
      vertex 8.5607 -12.3172 10
    endloop
  endfacet
  facet normal 0.587791 -0.809013 0
    outer loop
      vertex 9.06899 -11.9479 10
      vertex 8.5607 -12.3172 -10
      vertex 9.06899 -11.9479 -10
    endloop
  endfacet
  facet normal 0.621101 -0.78373 0
    outer loop
      vertex 9.06899 -11.9479 -10
      vertex 9.56136 -11.5577 10
      vertex 9.06899 -11.9479 10
    endloop
  endfacet
  facet normal 0.621101 -0.78373 0
    outer loop
      vertex 9.56136 -11.5577 10
      vertex 9.06899 -11.9479 -10
      vertex 9.56136 -11.5577 -10
    endloop
  endfacet
  facet normal 0.653365 -0.757043 0
    outer loop
      vertex 9.56136 -11.5577 -10
      vertex 10.037 -11.1472 10
      vertex 9.56136 -11.5577 10
    endloop
  endfacet
  facet normal 0.653365 -0.757043 0
    outer loop
      vertex 10.037 -11.1472 10
      vertex 9.56136 -11.5577 -10
      vertex 10.037 -11.1472 -10
    endloop
  endfacet
  facet normal 0.684555 -0.728961 0
    outer loop
      vertex 10.037 -11.1472 -10
      vertex 10.495 -10.7171 10
      vertex 10.037 -11.1472 10
    endloop
  endfacet
  facet normal 0.684555 -0.728961 0
    outer loop
      vertex 10.495 -10.7171 10
      vertex 10.037 -11.1472 -10
      vertex 10.495 -10.7171 -10
    endloop
  endfacet
  facet normal 0.714549 -0.699586 0
    outer loop
      vertex 10.495 -10.7171 10
      vertex 10.9345 -10.2682 -10
      vertex 10.9345 -10.2682 10
    endloop
  endfacet
  facet normal 0.714549 -0.699586 0
    outer loop
      vertex 10.9345 -10.2682 -10
      vertex 10.495 -10.7171 10
      vertex 10.495 -10.7171 -10
    endloop
  endfacet
  facet normal 0.743137 -0.66914 0
    outer loop
      vertex 10.9345 -10.2682 10
      vertex 11.3549 -9.80131 -10
      vertex 11.3549 -9.80131 10
    endloop
  endfacet
  facet normal 0.743137 -0.66914 0
    outer loop
      vertex 11.3549 -9.80131 -10
      vertex 10.9345 -10.2682 10
      vertex 10.9345 -10.2682 -10
    endloop
  endfacet
  facet normal 0.770493 -0.637448 0
    outer loop
      vertex 11.3549 -9.80131 10
      vertex 11.7554 -9.31722 -10
      vertex 11.7554 -9.31722 10
    endloop
  endfacet
  facet normal 0.770493 -0.637448 0
    outer loop
      vertex 11.7554 -9.31722 -10
      vertex 11.3549 -9.80131 10
      vertex 11.3549 -9.80131 -10
    endloop
  endfacet
  facet normal 0.796495 -0.604645 0
    outer loop
      vertex 11.7554 -9.31722 10
      vertex 12.1353 -8.81678 -10
      vertex 12.1353 -8.81678 10
    endloop
  endfacet
  facet normal 0.796495 -0.604645 0
    outer loop
      vertex 12.1353 -8.81678 -10
      vertex 11.7554 -9.31722 10
      vertex 11.7554 -9.31722 -10
    endloop
  endfacet
  facet normal 0.821199 -0.570642 0
    outer loop
      vertex 12.1353 -8.81678 10
      vertex 12.4938 -8.30087 -10
      vertex 12.4938 -8.30087 10
    endloop
  endfacet
  facet normal 0.821199 -0.570642 0
    outer loop
      vertex 12.4938 -8.30087 -10
      vertex 12.1353 -8.81678 10
      vertex 12.1353 -8.81678 -10
    endloop
  endfacet
  facet normal 0.844285 -0.535895 0
    outer loop
      vertex 12.4938 -8.30087 10
      vertex 12.8305 -7.77041 -10
      vertex 12.8305 -7.77041 10
    endloop
  endfacet
  facet normal 0.844285 -0.535895 0
    outer loop
      vertex 12.8305 -7.77041 -10
      vertex 12.4938 -8.30087 10
      vertex 12.4938 -8.30087 -10
    endloop
  endfacet
  facet normal 0.86605 -0.499957 0
    outer loop
      vertex 12.8305 -7.77041 10
      vertex 13.1446 -7.22631 -10
      vertex 13.1446 -7.22631 10
    endloop
  endfacet
  facet normal 0.86605 -0.499957 0
    outer loop
      vertex 13.1446 -7.22631 -10
      vertex 12.8305 -7.77041 10
      vertex 12.8305 -7.77041 -10
    endloop
  endfacet
  facet normal 0.886189 -0.463324 0
    outer loop
      vertex 13.1446 -7.22631 10
      vertex 13.4357 -6.66953 -10
      vertex 13.4357 -6.66953 10
    endloop
  endfacet
  facet normal 0.886189 -0.463324 0
    outer loop
      vertex 13.4357 -6.66953 -10
      vertex 13.1446 -7.22631 10
      vertex 13.1446 -7.22631 -10
    endloop
  endfacet
  facet normal 0.904831 -0.425771 0
    outer loop
      vertex 13.4357 -6.66953 10
      vertex 13.7032 -6.10105 -10
      vertex 13.7032 -6.10105 10
    endloop
  endfacet
  facet normal 0.904831 -0.425771 0
    outer loop
      vertex 13.7032 -6.10105 -10
      vertex 13.4357 -6.66953 10
      vertex 13.4357 -6.66953 -10
    endloop
  endfacet
  facet normal 0.9219 -0.387428 0
    outer loop
      vertex 13.7032 -6.10105 10
      vertex 13.9466 -5.52187 -10
      vertex 13.9466 -5.52187 10
    endloop
  endfacet
  facet normal 0.9219 -0.387428 0
    outer loop
      vertex 13.9466 -5.52187 -10
      vertex 13.7032 -6.10105 10
      vertex 13.7032 -6.10105 -10
    endloop
  endfacet
  facet normal 0.937281 -0.348574 0
    outer loop
      vertex 13.9466 -5.52187 10
      vertex 14.1656 -4.933 -10
      vertex 14.1656 -4.933 10
    endloop
  endfacet
  facet normal 0.937281 -0.348574 0
    outer loop
      vertex 14.1656 -4.933 -10
      vertex 13.9466 -5.52187 10
      vertex 13.9466 -5.52187 -10
    endloop
  endfacet
  facet normal 0.951031 -0.309095 0
    outer loop
      vertex 14.1656 -4.933 10
      vertex 14.3598 -4.33548 -10
      vertex 14.3598 -4.33548 10
    endloop
  endfacet
  facet normal 0.951031 -0.309095 0
    outer loop
      vertex 14.3598 -4.33548 -10
      vertex 14.1656 -4.933 10
      vertex 14.1656 -4.933 -10
    endloop
  endfacet
  facet normal 0.963185 -0.268838 0
    outer loop
      vertex 14.3598 -4.33548 10
      vertex 14.5287 -3.73035 -10
      vertex 14.5287 -3.73035 10
    endloop
  endfacet
  facet normal 0.963185 -0.268838 0
    outer loop
      vertex 14.5287 -3.73035 -10
      vertex 14.3598 -4.33548 10
      vertex 14.3598 -4.33548 -10
    endloop
  endfacet
  facet normal 0.973567 -0.228402 0
    outer loop
      vertex 14.5287 -3.73035 10
      vertex 14.6722 -3.11868 -10
      vertex 14.6722 -3.11868 10
    endloop
  endfacet
  facet normal 0.973567 -0.228402 0
    outer loop
      vertex 14.6722 -3.11868 -10
      vertex 14.5287 -3.73035 10
      vertex 14.5287 -3.73035 -10
    endloop
  endfacet
  facet normal 0.982295 -0.187339 0
    outer loop
      vertex 14.6722 -3.11868 10
      vertex 14.7899 -2.50153 -10
      vertex 14.7899 -2.50153 10
    endloop
  endfacet
  facet normal 0.982295 -0.187339 0
    outer loop
      vertex 14.7899 -2.50153 -10
      vertex 14.6722 -3.11868 10
      vertex 14.6722 -3.11868 -10
    endloop
  endfacet
  facet normal 0.989268 -0.146115 0
    outer loop
      vertex 14.7899 -2.50153 10
      vertex 14.8817 -1.88 -10
      vertex 14.8817 -1.88 10
    endloop
  endfacet
  facet normal 0.989268 -0.146115 0
    outer loop
      vertex 14.8817 -1.88 -10
      vertex 14.7899 -2.50153 10
      vertex 14.7899 -2.50153 -10
    endloop
  endfacet
  facet normal 0.994517 -0.104572 0
    outer loop
      vertex 14.8817 -1.88 10
      vertex 14.9474 -1.25517 -10
      vertex 14.9474 -1.25517 10
    endloop
  endfacet
  facet normal 0.994517 -0.104572 0
    outer loop
      vertex 14.9474 -1.25517 -10
      vertex 14.8817 -1.88 10
      vertex 14.8817 -1.88 -10
    endloop
  endfacet
  facet normal 0.998032 -0.0627117 0
    outer loop
      vertex 14.9474 -1.25517 10
      vertex 14.9868 -0.628135 -10
      vertex 14.9868 -0.628135 10
    endloop
  endfacet
  facet normal 0.998032 -0.0627117 0
    outer loop
      vertex 14.9868 -0.628135 -10
      vertex 14.9474 -1.25517 10
      vertex 14.9474 -1.25517 -10
    endloop
  endfacet
  facet normal 0.999779 -0.02101 0
    outer loop
      vertex 14.9868 -0.628135 10
      vertex 15 0 -10
      vertex 15 0 10
    endloop
  endfacet
  facet normal 0.999779 -0.02101 0
    outer loop
      vertex 15 0 -10
      vertex 14.9868 -0.628135 10
      vertex 14.9868 -0.628135 -10
    endloop
  endfacet
  facet normal 0 0 -1
    outer loop
      vertex 14.9868 -0.628135 -10
      vertex 14.9868 0.628135 -10
      vertex 15 0 -10
    endloop
  endfacet
  facet normal 0 0 -1
    outer loop
      vertex 14.9474 -1.25517 -10
      vertex 14.9868 0.628135 -10
      vertex 14.9868 -0.628135 -10
    endloop
  endfacet
  facet normal 0 0 -1
    outer loop
      vertex 14.9474 -1.25517 -10
      vertex 14.9474 1.25517 -10
      vertex 14.9868 0.628135 -10
    endloop
  endfacet
  facet normal 0 0 -1
    outer loop
      vertex 14.8817 -1.88 -10
      vertex 14.9474 1.25517 -10
      vertex 14.9474 -1.25517 -10
    endloop
  endfacet
  facet normal 0 0 -1
    outer loop
      vertex 14.8817 -1.88 -10
      vertex 14.8817 1.88 -10
      vertex 14.9474 1.25517 -10
    endloop
  endfacet
  facet normal 0 0 -1
    outer loop
      vertex 14.7899 -2.50153 -10
      vertex 14.8817 1.88 -10
      vertex 14.8817 -1.88 -10
    endloop
  endfacet
  facet normal 0 0 -1
    outer loop
      vertex 14.7899 -2.50153 -10
      vertex 14.7899 2.50153 -10
      vertex 14.8817 1.88 -10
    endloop
  endfacet
  facet normal 0 0 -1
    outer loop
      vertex 14.6722 -3.11868 -10
      vertex 14.7899 2.50153 -10
      vertex 14.7899 -2.50153 -10
    endloop
  endfacet
  facet normal 0 0 -1
    outer loop
      vertex 14.6722 -3.11868 -10
      vertex 14.6722 3.11868 -10
      vertex 14.7899 2.50153 -10
    endloop
  endfacet
  facet normal 0 0 -1
    outer loop
      vertex 14.5287 -3.73035 -10
      vertex 14.6722 3.11868 -10
      vertex 14.6722 -3.11868 -10
    endloop
  endfacet
  facet normal 0 0 -1
    outer loop
      vertex 14.5287 -3.73035 -10
      vertex 14.5287 3.73035 -10
      vertex 14.6722 3.11868 -10
    endloop
  endfacet
  facet normal 0 0 -1
    outer loop
      vertex 14.3598 -4.33548 -10
      vertex 14.5287 3.73035 -10
      vertex 14.5287 -3.73035 -10
    endloop
  endfacet
  facet normal 0 0 -1
    outer loop
      vertex 14.3598 -4.33548 -10
      vertex 14.3598 4.33548 -10
      vertex 14.5287 3.73035 -10
    endloop
  endfacet
  facet normal 0 0 -1
    outer loop
      vertex 14.1656 -4.933 -10
      vertex 14.3598 4.33548 -10
      vertex 14.3598 -4.33548 -10
    endloop
  endfacet
  facet normal 0 0 -1
    outer loop
      vertex 14.1656 -4.933 -10
      vertex 14.1656 4.933 -10
      vertex 14.3598 4.33548 -10
    endloop
  endfacet
  facet normal 0 0 -1
    outer loop
      vertex 13.9466 -5.52187 -10
      vertex 14.1656 4.933 -10
      vertex 14.1656 -4.933 -10
    endloop
  endfacet
  facet normal 0 0 -1
    outer loop
      vertex 13.9466 -5.52187 -10
      vertex 13.9466 5.52187 -10
      vertex 14.1656 4.933 -10
    endloop
  endfacet
  facet normal 0 0 -1
    outer loop
      vertex 13.7032 -6.10105 -10
      vertex 13.9466 5.52187 -10
      vertex 13.9466 -5.52187 -10
    endloop
  endfacet
  facet normal 0 0 -1
    outer loop
      vertex 13.7032 -6.10105 -10
      vertex 13.7032 6.10105 -10
      vertex 13.9466 5.52187 -10
    endloop
  endfacet
  facet normal 0 0 -1
    outer loop
      vertex 13.4357 -6.66953 -10
      vertex 13.7032 6.10105 -10
      vertex 13.7032 -6.10105 -10
    endloop
  endfacet
  facet normal 0 0 -1
    outer loop
      vertex 13.4357 -6.66953 -10
      vertex 13.4357 6.66953 -10
      vertex 13.7032 6.10105 -10
    endloop
  endfacet
  facet normal 0 0 -1
    outer loop
      vertex 13.1446 -7.22631 -10
      vertex 13.4357 6.66953 -10
      vertex 13.4357 -6.66953 -10
    endloop
  endfacet
  facet normal 0 0 -1
    outer loop
      vertex 13.1446 -7.22631 -10
      vertex 13.1446 7.22631 -10
      vertex 13.4357 6.66953 -10
    endloop
  endfacet
  facet normal 0 0 -1
    outer loop
      vertex 12.8305 -7.77041 -10
      vertex 13.1446 7.22631 -10
      vertex 13.1446 -7.22631 -10
    endloop
  endfacet
  facet normal 0 0 -1
    outer loop
      vertex 12.8305 -7.77041 -10
      vertex 12.8305 7.77041 -10
      vertex 13.1446 7.22631 -10
    endloop
  endfacet
  facet normal 0 0 -1
    outer loop
      vertex 12.4938 -8.30087 -10
      vertex 12.8305 7.77041 -10
      vertex 12.8305 -7.77041 -10
    endloop
  endfacet
  facet normal 0 0 -1
    outer loop
      vertex 12.4938 -8.30087 -10
      vertex 12.4938 8.30087 -10
      vertex 12.8305 7.77041 -10
    endloop
  endfacet
  facet normal 0 0 -1
    outer loop
      vertex 12.1353 -8.81678 -10
      vertex 12.4938 8.30087 -10
      vertex 12.4938 -8.30087 -10
    endloop
  endfacet
  facet normal 0 0 -1
    outer loop
      vertex 12.1353 -8.81678 -10
      vertex 12.1353 8.81678 -10
      vertex 12.4938 8.30087 -10
    endloop
  endfacet
  facet normal 0 0 -1
    outer loop
      vertex 11.7554 -9.31722 -10
      vertex 12.1353 8.81678 -10
      vertex 12.1353 -8.81678 -10
    endloop
  endfacet
  facet normal 0 0 -1
    outer loop
      vertex 11.7554 -9.31722 -10
      vertex 11.7554 9.31722 -10
      vertex 12.1353 8.81678 -10
    endloop
  endfacet
  facet normal 0 0 -1
    outer loop
      vertex 11.3549 -9.80131 -10
      vertex 11.7554 9.31722 -10
      vertex 11.7554 -9.31722 -10
    endloop
  endfacet
  facet normal 0 0 -1
    outer loop
      vertex 11.3549 -9.80131 -10
      vertex 11.3549 9.80131 -10
      vertex 11.7554 9.31722 -10
    endloop
  endfacet
  facet normal 0 0 -1
    outer loop
      vertex 10.9345 -10.2682 -10
      vertex 11.3549 9.80131 -10
      vertex 11.3549 -9.80131 -10
    endloop
  endfacet
  facet normal 0 0 -1
    outer loop
      vertex 10.9345 -10.2682 -10
      vertex 10.9345 10.2682 -10
      vertex 11.3549 9.80131 -10
    endloop
  endfacet
  facet normal 0 0 -1
    outer loop
      vertex 10.495 -10.7171 -10
      vertex 10.9345 10.2682 -10
      vertex 10.9345 -10.2682 -10
    endloop
  endfacet
  facet normal 0 0 -1
    outer loop
      vertex 10.495 -10.7171 -10
      vertex 10.495 10.7171 -10
      vertex 10.9345 10.2682 -10
    endloop
  endfacet
  facet normal 0 0 -1
    outer loop
      vertex 10.037 -11.1472 -10
      vertex 10.495 10.7171 -10
      vertex 10.495 -10.7171 -10
    endloop
  endfacet
  facet normal 0 0 -1
    outer loop
      vertex 10.037 -11.1472 -10
      vertex 10.037 11.1472 -10
      vertex 10.495 10.7171 -10
    endloop
  endfacet
  facet normal 0 0 -1
    outer loop
      vertex 9.56136 -11.5577 -10
      vertex 10.037 11.1472 -10
      vertex 10.037 -11.1472 -10
    endloop
  endfacet
  facet normal 0 0 -1
    outer loop
      vertex 9.56136 -11.5577 -10
      vertex 9.56136 11.5577 -10
      vertex 10.037 11.1472 -10
    endloop
  endfacet
  facet normal 0 0 -1
    outer loop
      vertex 9.06899 -11.9479 -10
      vertex 9.56136 11.5577 -10
      vertex 9.56136 -11.5577 -10
    endloop
  endfacet
  facet normal 0 0 -1
    outer loop
      vertex 9.06899 -11.9479 -10
      vertex 9.06899 11.9479 -10
      vertex 9.56136 11.5577 -10
    endloop
  endfacet
  facet normal 0 0 -1
    outer loop
      vertex 8.5607 -12.3172 -10
      vertex 9.06899 11.9479 -10
      vertex 9.06899 -11.9479 -10
    endloop
  endfacet
  facet normal 0 0 -1
    outer loop
      vertex 8.5607 -12.3172 -10
      vertex 8.5607 12.3172 -10
      vertex 9.06899 11.9479 -10
    endloop
  endfacet
  facet normal 0 0 -1
    outer loop
      vertex 8.0374 -12.6649 -10
      vertex 8.5607 12.3172 -10
      vertex 8.5607 -12.3172 -10
    endloop
  endfacet
  facet normal 0 0 -1
    outer loop
      vertex 8.0374 -12.6649 -10
      vertex 8.0374 12.6649 -10
      vertex 8.5607 12.3172 -10
    endloop
  endfacet
  facet normal 0 0 -1
    outer loop
      vertex 7.5 -12.9904 -10
      vertex 8.0374 12.6649 -10
      vertex 8.0374 -12.6649 -10
    endloop
  endfacet
  facet normal 0 0 -1
    outer loop
      vertex 7.5 -12.9904 -10
      vertex 7.5 12.9904 -10
      vertex 8.0374 12.6649 -10
    endloop
  endfacet
  facet normal 0 0 -1
    outer loop
      vertex 6.94944 -13.2931 -10
      vertex 7.5 12.9904 -10
      vertex 7.5 -12.9904 -10
    endloop
  endfacet
  facet normal 0 0 -1
    outer loop
      vertex 6.94944 -13.2931 -10
      vertex 6.94944 13.2931 -10
      vertex 7.5 12.9904 -10
    endloop
  endfacet
  facet normal 0 0 -1
    outer loop
      vertex 6.38669 -13.5724 -10
      vertex 6.94944 13.2931 -10
      vertex 6.94944 -13.2931 -10
    endloop
  endfacet
  facet normal 0 0 -1
    outer loop
      vertex 6.38669 -13.5724 -10
      vertex 6.38669 13.5724 -10
      vertex 6.94944 13.2931 -10
    endloop
  endfacet
  facet normal 0 0 -1
    outer loop
      vertex 5.81273 -13.8279 -10
      vertex 6.38669 13.5724 -10
      vertex 6.38669 -13.5724 -10
    endloop
  endfacet
  facet normal 0 0 -1
    outer loop
      vertex 5.81273 -13.8279 -10
      vertex 5.81273 13.8279 -10
      vertex 6.38669 13.5724 -10
    endloop
  endfacet
  facet normal 0 0 -1
    outer loop
      vertex 5.22858 -14.0592 -10
      vertex 5.81273 13.8279 -10
      vertex 5.81273 -13.8279 -10
    endloop
  endfacet
  facet normal 0 0 -1
    outer loop
      vertex 5.22858 -14.0592 -10
      vertex 5.22858 14.0592 -10
      vertex 5.81273 13.8279 -10
    endloop
  endfacet
  facet normal 0 0 -1
    outer loop
      vertex 4.63525 -14.2658 -10
      vertex 5.22858 14.0592 -10
      vertex 5.22858 -14.0592 -10
    endloop
  endfacet
  facet normal 0 0 -1
    outer loop
      vertex 4.63525 -14.2658 -10
      vertex 4.63525 14.2658 -10
      vertex 5.22858 14.0592 -10
    endloop
  endfacet
  facet normal 0 0 -1
    outer loop
      vertex 4.0338 -14.4474 -10
      vertex 4.63525 14.2658 -10
      vertex 4.63525 -14.2658 -10
    endloop
  endfacet
  facet normal 0 0 -1
    outer loop
      vertex 4.0338 -14.4474 -10
      vertex 4.0338 14.4474 -10
      vertex 4.63525 14.2658 -10
    endloop
  endfacet
  facet normal 0 0 -1
    outer loop
      vertex 3.42526 -14.6037 -10
      vertex 4.0338 14.4474 -10
      vertex 4.0338 -14.4474 -10
    endloop
  endfacet
  facet normal 0 0 -1
    outer loop
      vertex 3.42526 -14.6037 -10
      vertex 3.42526 14.6037 -10
      vertex 4.0338 14.4474 -10
    endloop
  endfacet
  facet normal 0 0 -1
    outer loop
      vertex 2.81072 -14.7343 -10
      vertex 3.42526 14.6037 -10
      vertex 3.42526 -14.6037 -10
    endloop
  endfacet
  facet normal 0 0 -1
    outer loop
      vertex 2.81072 -14.7343 -10
      vertex 2.81072 14.7343 -10
      vertex 3.42526 14.6037 -10
    endloop
  endfacet
  facet normal 0 0 -1
    outer loop
      vertex 2.19125 -14.8391 -10
      vertex 2.81072 14.7343 -10
      vertex 2.81072 -14.7343 -10
    endloop
  endfacet
  facet normal 0 0 -1
    outer loop
      vertex 2.19125 -14.8391 -10
      vertex 2.19125 14.8391 -10
      vertex 2.81072 14.7343 -10
    endloop
  endfacet
  facet normal 0 0 -1
    outer loop
      vertex 1.56793 -14.9178 -10
      vertex 2.19125 14.8391 -10
      vertex 2.19125 -14.8391 -10
    endloop
  endfacet
  facet normal 0 0 -1
    outer loop
      vertex 1.56793 -14.9178 -10
      vertex 1.56793 14.9178 -10
      vertex 2.19125 14.8391 -10
    endloop
  endfacet
  facet normal 0 0 -1
    outer loop
      vertex 0.941858 -14.9704 -10
      vertex 1.56793 14.9178 -10
      vertex 1.56793 -14.9178 -10
    endloop
  endfacet
  facet normal 0 0 -1
    outer loop
      vertex 0.941858 -14.9704 -10
      vertex 0.941858 14.9704 -10
      vertex 1.56793 14.9178 -10
    endloop
  endfacet
  facet normal 0 0 -1
    outer loop
      vertex 0.314136 -14.9967 -10
      vertex 0.941858 14.9704 -10
      vertex 0.941858 -14.9704 -10
    endloop
  endfacet
  facet normal 0 0 -1
    outer loop
      vertex 0.314136 -14.9967 -10
      vertex 0.314136 14.9967 -10
      vertex 0.941858 14.9704 -10
    endloop
  endfacet
  facet normal 0 0 -1
    outer loop
      vertex -0.314136 -14.9967 -10
      vertex 0.314136 14.9967 -10
      vertex 0.314136 -14.9967 -10
    endloop
  endfacet
  facet normal 0 0 -1
    outer loop
      vertex -0.314136 -14.9967 -10
      vertex -0.314136 14.9967 -10
      vertex 0.314136 14.9967 -10
    endloop
  endfacet
  facet normal 0 0 -1
    outer loop
      vertex -0.941858 -14.9704 -10
      vertex -0.314136 14.9967 -10
      vertex -0.314136 -14.9967 -10
    endloop
  endfacet
  facet normal 0 0 -1
    outer loop
      vertex -0.941858 -14.9704 -10
      vertex -0.941858 14.9704 -10
      vertex -0.314136 14.9967 -10
    endloop
  endfacet
  facet normal 0 0 -1
    outer loop
      vertex -1.56793 -14.9178 -10
      vertex -0.941858 14.9704 -10
      vertex -0.941858 -14.9704 -10
    endloop
  endfacet
  facet normal 0 0 -1
    outer loop
      vertex -1.56793 -14.9178 -10
      vertex -1.56793 14.9178 -10
      vertex -0.941858 14.9704 -10
    endloop
  endfacet
  facet normal 0 0 -1
    outer loop
      vertex -2.19125 -14.8391 -10
      vertex -1.56793 14.9178 -10
      vertex -1.56793 -14.9178 -10
    endloop
  endfacet
  facet normal 0 0 -1
    outer loop
      vertex -2.19125 -14.8391 -10
      vertex -2.19125 14.8391 -10
      vertex -1.56793 14.9178 -10
    endloop
  endfacet
  facet normal 0 0 -1
    outer loop
      vertex -2.81072 -14.7343 -10
      vertex -2.19125 14.8391 -10
      vertex -2.19125 -14.8391 -10
    endloop
  endfacet
  facet normal 0 0 -1
    outer loop
      vertex -2.81072 -14.7343 -10
      vertex -2.81072 14.7343 -10
      vertex -2.19125 14.8391 -10
    endloop
  endfacet
  facet normal 0 0 -1
    outer loop
      vertex -3.42526 -14.6037 -10
      vertex -2.81072 14.7343 -10
      vertex -2.81072 -14.7343 -10
    endloop
  endfacet
  facet normal 0 0 -1
    outer loop
      vertex -3.42526 -14.6037 -10
      vertex -3.42526 14.6037 -10
      vertex -2.81072 14.7343 -10
    endloop
  endfacet
  facet normal 0 0 -1
    outer loop
      vertex -4.0338 -14.4474 -10
      vertex -3.42526 14.6037 -10
      vertex -3.42526 -14.6037 -10
    endloop
  endfacet
  facet normal 0 0 -1
    outer loop
      vertex -4.0338 -14.4474 -10
      vertex -4.0338 14.4474 -10
      vertex -3.42526 14.6037 -10
    endloop
  endfacet
  facet normal 0 0 -1
    outer loop
      vertex -4.63525 -14.2658 -10
      vertex -4.0338 14.4474 -10
      vertex -4.0338 -14.4474 -10
    endloop
  endfacet
  facet normal 0 0 -1
    outer loop
      vertex -4.63525 -14.2658 -10
      vertex -4.63525 14.2658 -10
      vertex -4.0338 14.4474 -10
    endloop
  endfacet
  facet normal 0 0 -1
    outer loop
      vertex -5.22858 -14.0592 -10
      vertex -4.63525 14.2658 -10
      vertex -4.63525 -14.2658 -10
    endloop
  endfacet
  facet normal 0 0 -1
    outer loop
      vertex -5.22858 -14.0592 -10
      vertex -5.22858 14.0592 -10
      vertex -4.63525 14.2658 -10
    endloop
  endfacet
  facet normal 0 0 -1
    outer loop
      vertex -5.81273 -13.8279 -10
      vertex -5.22858 14.0592 -10
      vertex -5.22858 -14.0592 -10
    endloop
  endfacet
  facet normal 0 0 -1
    outer loop
      vertex -5.81273 -13.8279 -10
      vertex -5.81273 13.8279 -10
      vertex -5.22858 14.0592 -10
    endloop
  endfacet
  facet normal 0 0 -1
    outer loop
      vertex -6.38669 -13.5724 -10
      vertex -5.81273 13.8279 -10
      vertex -5.81273 -13.8279 -10
    endloop
  endfacet
  facet normal 0 0 -1
    outer loop
      vertex -6.38669 -13.5724 -10
      vertex -6.38669 13.5724 -10
      vertex -5.81273 13.8279 -10
    endloop
  endfacet
  facet normal 0 0 -1
    outer loop
      vertex -6.94944 -13.2931 -10
      vertex -6.38669 13.5724 -10
      vertex -6.38669 -13.5724 -10
    endloop
  endfacet
  facet normal 0 0 -1
    outer loop
      vertex -6.94944 -13.2931 -10
      vertex -6.94944 13.2931 -10
      vertex -6.38669 13.5724 -10
    endloop
  endfacet
  facet normal 0 0 -1
    outer loop
      vertex -7.5 -12.9904 -10
      vertex -6.94944 13.2931 -10
      vertex -6.94944 -13.2931 -10
    endloop
  endfacet
  facet normal 0 0 -1
    outer loop
      vertex -7.5 -12.9904 -10
      vertex -7.5 12.9904 -10
      vertex -6.94944 13.2931 -10
    endloop
  endfacet
  facet normal 0 0 -1
    outer loop
      vertex -8.0374 -12.6649 -10
      vertex -7.5 12.9904 -10
      vertex -7.5 -12.9904 -10
    endloop
  endfacet
  facet normal 0 0 -1
    outer loop
      vertex -8.0374 -12.6649 -10
      vertex -8.0374 12.6649 -10
      vertex -7.5 12.9904 -10
    endloop
  endfacet
  facet normal 0 0 -1
    outer loop
      vertex -8.5607 -12.3172 -10
      vertex -8.0374 12.6649 -10
      vertex -8.0374 -12.6649 -10
    endloop
  endfacet
  facet normal 0 0 -1
    outer loop
      vertex -8.5607 -12.3172 -10
      vertex -8.5607 12.3172 -10
      vertex -8.0374 12.6649 -10
    endloop
  endfacet
  facet normal 0 0 -1
    outer loop
      vertex -9.06899 -11.9479 -10
      vertex -8.5607 12.3172 -10
      vertex -8.5607 -12.3172 -10
    endloop
  endfacet
  facet normal 0 0 -1
    outer loop
      vertex -9.06899 -11.9479 -10
      vertex -9.06899 11.9479 -10
      vertex -8.5607 12.3172 -10
    endloop
  endfacet
  facet normal 0 0 -1
    outer loop
      vertex -9.56136 -11.5577 -10
      vertex -9.06899 11.9479 -10
      vertex -9.06899 -11.9479 -10
    endloop
  endfacet
  facet normal 0 0 -1
    outer loop
      vertex -9.56136 -11.5577 -10
      vertex -9.56136 11.5577 -10
      vertex -9.06899 11.9479 -10
    endloop
  endfacet
  facet normal 0 0 -1
    outer loop
      vertex -10.037 -11.1472 -10
      vertex -9.56136 11.5577 -10
      vertex -9.56136 -11.5577 -10
    endloop
  endfacet
  facet normal 0 0 -1
    outer loop
      vertex -10.037 -11.1472 -10
      vertex -10.037 11.1472 -10
      vertex -9.56136 11.5577 -10
    endloop
  endfacet
  facet normal 0 0 -1
    outer loop
      vertex -10.495 -10.7171 -10
      vertex -10.037 11.1472 -10
      vertex -10.037 -11.1472 -10
    endloop
  endfacet
  facet normal 0 0 -1
    outer loop
      vertex -10.495 -10.7171 -10
      vertex -10.495 10.7171 -10
      vertex -10.037 11.1472 -10
    endloop
  endfacet
  facet normal 0 0 -1
    outer loop
      vertex -10.9345 -10.2682 -10
      vertex -10.495 10.7171 -10
      vertex -10.495 -10.7171 -10
    endloop
  endfacet
  facet normal 0 0 -1
    outer loop
      vertex -10.9345 -10.2682 -10
      vertex -10.9345 10.2682 -10
      vertex -10.495 10.7171 -10
    endloop
  endfacet
  facet normal 0 0 -1
    outer loop
      vertex -11.3549 -9.80131 -10
      vertex -10.9345 10.2682 -10
      vertex -10.9345 -10.2682 -10
    endloop
  endfacet
  facet normal 0 0 -1
    outer loop
      vertex -11.3549 -9.80131 -10
      vertex -11.3549 9.80131 -10
      vertex -10.9345 10.2682 -10
    endloop
  endfacet
  facet normal 0 0 -1
    outer loop
      vertex -11.7554 -9.31722 -10
      vertex -11.3549 9.80131 -10
      vertex -11.3549 -9.80131 -10
    endloop
  endfacet
  facet normal 0 0 -1
    outer loop
      vertex -11.7554 -9.31722 -10
      vertex -11.7554 9.31722 -10
      vertex -11.3549 9.80131 -10
    endloop
  endfacet
  facet normal 0 0 -1
    outer loop
      vertex -12.1353 -8.81678 -10
      vertex -11.7554 9.31722 -10
      vertex -11.7554 -9.31722 -10
    endloop
  endfacet
  facet normal 0 0 -1
    outer loop
      vertex -12.1353 -8.81678 -10
      vertex -12.1353 8.81678 -10
      vertex -11.7554 9.31722 -10
    endloop
  endfacet
  facet normal 0 0 -1
    outer loop
      vertex -12.4938 -8.30087 -10
      vertex -12.1353 8.81678 -10
      vertex -12.1353 -8.81678 -10
    endloop
  endfacet
  facet normal 0 0 -1
    outer loop
      vertex -12.4938 -8.30087 -10
      vertex -12.4938 8.30087 -10
      vertex -12.1353 8.81678 -10
    endloop
  endfacet
  facet normal 0 0 -1
    outer loop
      vertex -12.8305 -7.77041 -10
      vertex -12.4938 8.30087 -10
      vertex -12.4938 -8.30087 -10
    endloop
  endfacet
  facet normal 0 0 -1
    outer loop
      vertex -12.8305 -7.77041 -10
      vertex -12.8305 7.77041 -10
      vertex -12.4938 8.30087 -10
    endloop
  endfacet
  facet normal 0 0 -1
    outer loop
      vertex -13.1446 -7.22631 -10
      vertex -12.8305 7.77041 -10
      vertex -12.8305 -7.77041 -10
    endloop
  endfacet
  facet normal 0 0 -1
    outer loop
      vertex -13.1446 -7.22631 -10
      vertex -13.1446 7.22631 -10
      vertex -12.8305 7.77041 -10
    endloop
  endfacet
  facet normal 0 0 -1
    outer loop
      vertex -13.4357 -6.66953 -10
      vertex -13.1446 7.22631 -10
      vertex -13.1446 -7.22631 -10
    endloop
  endfacet
  facet normal 0 0 -1
    outer loop
      vertex -13.4357 -6.66953 -10
      vertex -13.4357 6.66953 -10
      vertex -13.1446 7.22631 -10
    endloop
  endfacet
  facet normal 0 0 -1
    outer loop
      vertex -13.7032 -6.10105 -10
      vertex -13.4357 6.66953 -10
      vertex -13.4357 -6.66953 -10
    endloop
  endfacet
  facet normal 0 0 -1
    outer loop
      vertex -13.7032 -6.10105 -10
      vertex -13.7032 6.10105 -10
      vertex -13.4357 6.66953 -10
    endloop
  endfacet
  facet normal 0 0 -1
    outer loop
      vertex -13.9466 -5.52187 -10
      vertex -13.7032 6.10105 -10
      vertex -13.7032 -6.10105 -10
    endloop
  endfacet
  facet normal 0 0 -1
    outer loop
      vertex -13.9466 -5.52187 -10
      vertex -13.9466 5.52187 -10
      vertex -13.7032 6.10105 -10
    endloop
  endfacet
  facet normal 0 0 -1
    outer loop
      vertex -14.1656 -4.933 -10
      vertex -13.9466 5.52187 -10
      vertex -13.9466 -5.52187 -10
    endloop
  endfacet
  facet normal 0 0 -1
    outer loop
      vertex -14.1656 -4.933 -10
      vertex -14.1656 4.933 -10
      vertex -13.9466 5.52187 -10
    endloop
  endfacet
  facet normal 0 0 -1
    outer loop
      vertex -14.3598 -4.33548 -10
      vertex -14.1656 4.933 -10
      vertex -14.1656 -4.933 -10
    endloop
  endfacet
  facet normal 0 0 -1
    outer loop
      vertex -14.3598 -4.33548 -10
      vertex -14.3598 4.33548 -10
      vertex -14.1656 4.933 -10
    endloop
  endfacet
  facet normal 0 0 -1
    outer loop
      vertex -14.5287 -3.73035 -10
      vertex -14.3598 4.33548 -10
      vertex -14.3598 -4.33548 -10
    endloop
  endfacet
  facet normal 0 0 -1
    outer loop
      vertex -14.5287 -3.73035 -10
      vertex -14.5287 3.73035 -10
      vertex -14.3598 4.33548 -10
    endloop
  endfacet
  facet normal 0 0 -1
    outer loop
      vertex -14.6722 -3.11868 -10
      vertex -14.5287 3.73035 -10
      vertex -14.5287 -3.73035 -10
    endloop
  endfacet
  facet normal 0 0 -1
    outer loop
      vertex -14.6722 -3.11868 -10
      vertex -14.6722 3.11868 -10
      vertex -14.5287 3.73035 -10
    endloop
  endfacet
  facet normal 0 0 -1
    outer loop
      vertex -14.7899 -2.50153 -10
      vertex -14.6722 3.11868 -10
      vertex -14.6722 -3.11868 -10
    endloop
  endfacet
  facet normal 0 0 -1
    outer loop
      vertex -14.7899 -2.50153 -10
      vertex -14.7899 2.50153 -10
      vertex -14.6722 3.11868 -10
    endloop
  endfacet
  facet normal 0 0 -1
    outer loop
      vertex -14.8817 -1.88 -10
      vertex -14.7899 2.50153 -10
      vertex -14.7899 -2.50153 -10
    endloop
  endfacet
  facet normal 0 0 -1
    outer loop
      vertex -14.8817 -1.88 -10
      vertex -14.8817 1.88 -10
      vertex -14.7899 2.50153 -10
    endloop
  endfacet
  facet normal 0 0 -1
    outer loop
      vertex -14.9474 -1.25517 -10
      vertex -14.8817 1.88 -10
      vertex -14.8817 -1.88 -10
    endloop
  endfacet
  facet normal 0 0 -1
    outer loop
      vertex -14.9474 -1.25517 -10
      vertex -14.9474 1.25517 -10
      vertex -14.8817 1.88 -10
    endloop
  endfacet
  facet normal 0 0 -1
    outer loop
      vertex -14.9868 -0.628135 -10
      vertex -14.9474 1.25517 -10
      vertex -14.9474 -1.25517 -10
    endloop
  endfacet
  facet normal 0 0 -1
    outer loop
      vertex -14.9868 -0.628135 -10
      vertex -14.9868 0.628135 -10
      vertex -14.9474 1.25517 -10
    endloop
  endfacet
  facet normal 0 -0 -1
    outer loop
      vertex -14.9868 0.628135 -10
      vertex -14.9868 -0.628135 -10
      vertex -15 0 -10
    endloop
  endfacet
  facet normal 0 0 1
    outer loop
      vertex 14.9868 0.628135 10
      vertex 14.9868 -0.628135 10
      vertex 15 0 10
    endloop
  endfacet
  facet normal 0 0 1
    outer loop
      vertex 14.9474 1.25517 10
      vertex 14.9868 -0.628135 10
      vertex 14.9868 0.628135 10
    endloop
  endfacet
  facet normal 0 0 1
    outer loop
      vertex 14.9474 1.25517 10
      vertex 14.9474 -1.25517 10
      vertex 14.9868 -0.628135 10
    endloop
  endfacet
  facet normal 0 0 1
    outer loop
      vertex 14.8817 1.88 10
      vertex 14.9474 -1.25517 10
      vertex 14.9474 1.25517 10
    endloop
  endfacet
  facet normal 0 0 1
    outer loop
      vertex 14.8817 1.88 10
      vertex 14.8817 -1.88 10
      vertex 14.9474 -1.25517 10
    endloop
  endfacet
  facet normal 0 0 1
    outer loop
      vertex 14.7899 2.50153 10
      vertex 14.8817 -1.88 10
      vertex 14.8817 1.88 10
    endloop
  endfacet
  facet normal 0 0 1
    outer loop
      vertex 14.7899 2.50153 10
      vertex 14.7899 -2.50153 10
      vertex 14.8817 -1.88 10
    endloop
  endfacet
  facet normal 0 0 1
    outer loop
      vertex 14.6722 3.11868 10
      vertex 14.7899 -2.50153 10
      vertex 14.7899 2.50153 10
    endloop
  endfacet
  facet normal 0 0 1
    outer loop
      vertex 14.6722 3.11868 10
      vertex 14.6722 -3.11868 10
      vertex 14.7899 -2.50153 10
    endloop
  endfacet
  facet normal 0 0 1
    outer loop
      vertex 14.5287 3.73035 10
      vertex 14.6722 -3.11868 10
      vertex 14.6722 3.11868 10
    endloop
  endfacet
  facet normal 0 0 1
    outer loop
      vertex 14.5287 3.73035 10
      vertex 14.5287 -3.73035 10
      vertex 14.6722 -3.11868 10
    endloop
  endfacet
  facet normal 0 0 1
    outer loop
      vertex 14.3598 4.33548 10
      vertex 14.5287 -3.73035 10
      vertex 14.5287 3.73035 10
    endloop
  endfacet
  facet normal 0 0 1
    outer loop
      vertex 14.3598 4.33548 10
      vertex 14.3598 -4.33548 10
      vertex 14.5287 -3.73035 10
    endloop
  endfacet
  facet normal 0 0 1
    outer loop
      vertex 14.1656 4.933 10
      vertex 14.3598 -4.33548 10
      vertex 14.3598 4.33548 10
    endloop
  endfacet
  facet normal 0 0 1
    outer loop
      vertex 14.1656 4.933 10
      vertex 14.1656 -4.933 10
      vertex 14.3598 -4.33548 10
    endloop
  endfacet
  facet normal 0 0 1
    outer loop
      vertex 13.9466 5.52187 10
      vertex 14.1656 -4.933 10
      vertex 14.1656 4.933 10
    endloop
  endfacet
  facet normal 0 0 1
    outer loop
      vertex 13.9466 5.52187 10
      vertex 13.9466 -5.52187 10
      vertex 14.1656 -4.933 10
    endloop
  endfacet
  facet normal 0 0 1
    outer loop
      vertex 13.7032 6.10105 10
      vertex 13.9466 -5.52187 10
      vertex 13.9466 5.52187 10
    endloop
  endfacet
  facet normal 0 0 1
    outer loop
      vertex 13.7032 6.10105 10
      vertex 13.7032 -6.10105 10
      vertex 13.9466 -5.52187 10
    endloop
  endfacet
  facet normal 0 0 1
    outer loop
      vertex 13.4357 6.66953 10
      vertex 13.7032 -6.10105 10
      vertex 13.7032 6.10105 10
    endloop
  endfacet
  facet normal 0 0 1
    outer loop
      vertex 13.4357 6.66953 10
      vertex 13.4357 -6.66953 10
      vertex 13.7032 -6.10105 10
    endloop
  endfacet
  facet normal 0 0 1
    outer loop
      vertex 13.1446 7.22631 10
      vertex 13.4357 -6.66953 10
      vertex 13.4357 6.66953 10
    endloop
  endfacet
  facet normal 0 0 1
    outer loop
      vertex 13.1446 7.22631 10
      vertex 13.1446 -7.22631 10
      vertex 13.4357 -6.66953 10
    endloop
  endfacet
  facet normal 0 0 1
    outer loop
      vertex 12.8305 7.77041 10
      vertex 13.1446 -7.22631 10
      vertex 13.1446 7.22631 10
    endloop
  endfacet
  facet normal 0 0 1
    outer loop
      vertex 12.8305 7.77041 10
      vertex 12.8305 -7.77041 10
      vertex 13.1446 -7.22631 10
    endloop
  endfacet
  facet normal 0 0 1
    outer loop
      vertex 12.4938 8.30087 10
      vertex 12.8305 -7.77041 10
      vertex 12.8305 7.77041 10
    endloop
  endfacet
  facet normal 0 0 1
    outer loop
      vertex 12.4938 8.30087 10
      vertex 12.4938 -8.30087 10
      vertex 12.8305 -7.77041 10
    endloop
  endfacet
  facet normal 0 0 1
    outer loop
      vertex 12.1353 8.81678 10
      vertex 12.4938 -8.30087 10
      vertex 12.4938 8.30087 10
    endloop
  endfacet
  facet normal 0 0 1
    outer loop
      vertex 12.1353 8.81678 10
      vertex 12.1353 -8.81678 10
      vertex 12.4938 -8.30087 10
    endloop
  endfacet
  facet normal 0 0 1
    outer loop
      vertex 11.7554 9.31722 10
      vertex 12.1353 -8.81678 10
      vertex 12.1353 8.81678 10
    endloop
  endfacet
  facet normal 0 0 1
    outer loop
      vertex 11.7554 9.31722 10
      vertex 11.7554 -9.31722 10
      vertex 12.1353 -8.81678 10
    endloop
  endfacet
  facet normal 0 0 1
    outer loop
      vertex 11.3549 9.80131 10
      vertex 11.7554 -9.31722 10
      vertex 11.7554 9.31722 10
    endloop
  endfacet
  facet normal 0 0 1
    outer loop
      vertex 11.3549 9.80131 10
      vertex 11.3549 -9.80131 10
      vertex 11.7554 -9.31722 10
    endloop
  endfacet
  facet normal 0 0 1
    outer loop
      vertex 10.9345 10.2682 10
      vertex 11.3549 -9.80131 10
      vertex 11.3549 9.80131 10
    endloop
  endfacet
  facet normal 0 0 1
    outer loop
      vertex 10.9345 10.2682 10
      vertex 10.9345 -10.2682 10
      vertex 11.3549 -9.80131 10
    endloop
  endfacet
  facet normal 0 0 1
    outer loop
      vertex 10.495 10.7171 10
      vertex 10.9345 -10.2682 10
      vertex 10.9345 10.2682 10
    endloop
  endfacet
  facet normal 0 0 1
    outer loop
      vertex 10.495 10.7171 10
      vertex 10.495 -10.7171 10
      vertex 10.9345 -10.2682 10
    endloop
  endfacet
  facet normal 0 0 1
    outer loop
      vertex 10.037 11.1472 10
      vertex 10.495 -10.7171 10
      vertex 10.495 10.7171 10
    endloop
  endfacet
  facet normal 0 0 1
    outer loop
      vertex 10.037 11.1472 10
      vertex 10.037 -11.1472 10
      vertex 10.495 -10.7171 10
    endloop
  endfacet
  facet normal 0 0 1
    outer loop
      vertex 9.56136 11.5577 10
      vertex 10.037 -11.1472 10
      vertex 10.037 11.1472 10
    endloop
  endfacet
  facet normal 0 0 1
    outer loop
      vertex 9.56136 11.5577 10
      vertex 9.56136 -11.5577 10
      vertex 10.037 -11.1472 10
    endloop
  endfacet
  facet normal 0 0 1
    outer loop
      vertex 9.06899 11.9479 10
      vertex 9.56136 -11.5577 10
      vertex 9.56136 11.5577 10
    endloop
  endfacet
  facet normal 0 0 1
    outer loop
      vertex 9.06899 11.9479 10
      vertex 9.06899 -11.9479 10
      vertex 9.56136 -11.5577 10
    endloop
  endfacet
  facet normal 0 0 1
    outer loop
      vertex 8.5607 12.3172 10
      vertex 9.06899 -11.9479 10
      vertex 9.06899 11.9479 10
    endloop
  endfacet
  facet normal 0 0 1
    outer loop
      vertex 8.5607 12.3172 10
      vertex 8.5607 -12.3172 10
      vertex 9.06899 -11.9479 10
    endloop
  endfacet
  facet normal 0 0 1
    outer loop
      vertex 8.0374 12.6649 10
      vertex 8.5607 -12.3172 10
      vertex 8.5607 12.3172 10
    endloop
  endfacet
  facet normal 0 0 1
    outer loop
      vertex 8.0374 12.6649 10
      vertex 8.0374 -12.6649 10
      vertex 8.5607 -12.3172 10
    endloop
  endfacet
  facet normal 0 0 1
    outer loop
      vertex 7.5 12.9904 10
      vertex 8.0374 -12.6649 10
      vertex 8.0374 12.6649 10
    endloop
  endfacet
  facet normal 0 0 1
    outer loop
      vertex 7.5 12.9904 10
      vertex 7.5 -12.9904 10
      vertex 8.0374 -12.6649 10
    endloop
  endfacet
  facet normal 0 0 1
    outer loop
      vertex 6.94944 13.2931 10
      vertex 7.5 -12.9904 10
      vertex 7.5 12.9904 10
    endloop
  endfacet
  facet normal 0 0 1
    outer loop
      vertex 6.94944 13.2931 10
      vertex 6.94944 -13.2931 10
      vertex 7.5 -12.9904 10
    endloop
  endfacet
  facet normal 0 0 1
    outer loop
      vertex 6.38669 13.5724 10
      vertex 6.94944 -13.2931 10
      vertex 6.94944 13.2931 10
    endloop
  endfacet
  facet normal 0 0 1
    outer loop
      vertex 6.38669 13.5724 10
      vertex 6.38669 -13.5724 10
      vertex 6.94944 -13.2931 10
    endloop
  endfacet
  facet normal 0 0 1
    outer loop
      vertex 5.81273 13.8279 10
      vertex 6.38669 -13.5724 10
      vertex 6.38669 13.5724 10
    endloop
  endfacet
  facet normal 0 0 1
    outer loop
      vertex 5.81273 13.8279 10
      vertex 5.81273 -13.8279 10
      vertex 6.38669 -13.5724 10
    endloop
  endfacet
  facet normal 0 0 1
    outer loop
      vertex 5.22858 14.0592 10
      vertex 5.81273 -13.8279 10
      vertex 5.81273 13.8279 10
    endloop
  endfacet
  facet normal 0 0 1
    outer loop
      vertex 5.22858 14.0592 10
      vertex 5.22858 -14.0592 10
      vertex 5.81273 -13.8279 10
    endloop
  endfacet
  facet normal 0 0 1
    outer loop
      vertex 4.63525 14.2658 10
      vertex 5.22858 -14.0592 10
      vertex 5.22858 14.0592 10
    endloop
  endfacet
  facet normal 0 0 1
    outer loop
      vertex 4.63525 14.2658 10
      vertex 4.63525 -14.2658 10
      vertex 5.22858 -14.0592 10
    endloop
  endfacet
  facet normal 0 0 1
    outer loop
      vertex 4.0338 14.4474 10
      vertex 4.63525 -14.2658 10
      vertex 4.63525 14.2658 10
    endloop
  endfacet
  facet normal 0 0 1
    outer loop
      vertex 4.0338 14.4474 10
      vertex 4.0338 -14.4474 10
      vertex 4.63525 -14.2658 10
    endloop
  endfacet
  facet normal 0 0 1
    outer loop
      vertex 3.42526 14.6037 10
      vertex 4.0338 -14.4474 10
      vertex 4.0338 14.4474 10
    endloop
  endfacet
  facet normal 0 0 1
    outer loop
      vertex 3.42526 14.6037 10
      vertex 3.42526 -14.6037 10
      vertex 4.0338 -14.4474 10
    endloop
  endfacet
  facet normal 0 0 1
    outer loop
      vertex 2.81072 14.7343 10
      vertex 3.42526 -14.6037 10
      vertex 3.42526 14.6037 10
    endloop
  endfacet
  facet normal 0 0 1
    outer loop
      vertex 2.81072 14.7343 10
      vertex 2.81072 -14.7343 10
      vertex 3.42526 -14.6037 10
    endloop
  endfacet
  facet normal 0 0 1
    outer loop
      vertex 2.19125 14.8391 10
      vertex 2.81072 -14.7343 10
      vertex 2.81072 14.7343 10
    endloop
  endfacet
  facet normal 0 0 1
    outer loop
      vertex 2.19125 14.8391 10
      vertex 2.19125 -14.8391 10
      vertex 2.81072 -14.7343 10
    endloop
  endfacet
  facet normal 0 0 1
    outer loop
      vertex 1.56793 14.9178 10
      vertex 2.19125 -14.8391 10
      vertex 2.19125 14.8391 10
    endloop
  endfacet
  facet normal 0 0 1
    outer loop
      vertex 1.56793 14.9178 10
      vertex 1.56793 -14.9178 10
      vertex 2.19125 -14.8391 10
    endloop
  endfacet
  facet normal 0 0 1
    outer loop
      vertex 0.941858 14.9704 10
      vertex 1.56793 -14.9178 10
      vertex 1.56793 14.9178 10
    endloop
  endfacet
  facet normal 0 0 1
    outer loop
      vertex 0.941858 14.9704 10
      vertex 0.941858 -14.9704 10
      vertex 1.56793 -14.9178 10
    endloop
  endfacet
  facet normal 0 0 1
    outer loop
      vertex 0.314136 14.9967 10
      vertex 0.941858 -14.9704 10
      vertex 0.941858 14.9704 10
    endloop
  endfacet
  facet normal 0 0 1
    outer loop
      vertex 0.314136 14.9967 10
      vertex 0.314136 -14.9967 10
      vertex 0.941858 -14.9704 10
    endloop
  endfacet
  facet normal -0 0 1
    outer loop
      vertex -0.314136 14.9967 10
      vertex 0.314136 -14.9967 10
      vertex 0.314136 14.9967 10
    endloop
  endfacet
  facet normal 0 0 1
    outer loop
      vertex -0.314136 14.9967 10
      vertex -0.314136 -14.9967 10
      vertex 0.314136 -14.9967 10
    endloop
  endfacet
  facet normal -0 0 1
    outer loop
      vertex -0.941858 14.9704 10
      vertex -0.314136 -14.9967 10
      vertex -0.314136 14.9967 10
    endloop
  endfacet
  facet normal 0 0 1
    outer loop
      vertex -0.941858 14.9704 10
      vertex -0.941858 -14.9704 10
      vertex -0.314136 -14.9967 10
    endloop
  endfacet
  facet normal -0 0 1
    outer loop
      vertex -1.56793 14.9178 10
      vertex -0.941858 -14.9704 10
      vertex -0.941858 14.9704 10
    endloop
  endfacet
  facet normal 0 0 1
    outer loop
      vertex -1.56793 14.9178 10
      vertex -1.56793 -14.9178 10
      vertex -0.941858 -14.9704 10
    endloop
  endfacet
  facet normal -0 0 1
    outer loop
      vertex -2.19125 14.8391 10
      vertex -1.56793 -14.9178 10
      vertex -1.56793 14.9178 10
    endloop
  endfacet
  facet normal 0 0 1
    outer loop
      vertex -2.19125 14.8391 10
      vertex -2.19125 -14.8391 10
      vertex -1.56793 -14.9178 10
    endloop
  endfacet
  facet normal -0 0 1
    outer loop
      vertex -2.81072 14.7343 10
      vertex -2.19125 -14.8391 10
      vertex -2.19125 14.8391 10
    endloop
  endfacet
  facet normal 0 0 1
    outer loop
      vertex -2.81072 14.7343 10
      vertex -2.81072 -14.7343 10
      vertex -2.19125 -14.8391 10
    endloop
  endfacet
  facet normal -0 0 1
    outer loop
      vertex -3.42526 14.6037 10
      vertex -2.81072 -14.7343 10
      vertex -2.81072 14.7343 10
    endloop
  endfacet
  facet normal 0 0 1
    outer loop
      vertex -3.42526 14.6037 10
      vertex -3.42526 -14.6037 10
      vertex -2.81072 -14.7343 10
    endloop
  endfacet
  facet normal -0 0 1
    outer loop
      vertex -4.0338 14.4474 10
      vertex -3.42526 -14.6037 10
      vertex -3.42526 14.6037 10
    endloop
  endfacet
  facet normal 0 0 1
    outer loop
      vertex -4.0338 14.4474 10
      vertex -4.0338 -14.4474 10
      vertex -3.42526 -14.6037 10
    endloop
  endfacet
  facet normal -0 0 1
    outer loop
      vertex -4.63525 14.2658 10
      vertex -4.0338 -14.4474 10
      vertex -4.0338 14.4474 10
    endloop
  endfacet
  facet normal 0 0 1
    outer loop
      vertex -4.63525 14.2658 10
      vertex -4.63525 -14.2658 10
      vertex -4.0338 -14.4474 10
    endloop
  endfacet
  facet normal -0 0 1
    outer loop
      vertex -5.22858 14.0592 10
      vertex -4.63525 -14.2658 10
      vertex -4.63525 14.2658 10
    endloop
  endfacet
  facet normal 0 0 1
    outer loop
      vertex -5.22858 14.0592 10
      vertex -5.22858 -14.0592 10
      vertex -4.63525 -14.2658 10
    endloop
  endfacet
  facet normal -0 0 1
    outer loop
      vertex -5.81273 13.8279 10
      vertex -5.22858 -14.0592 10
      vertex -5.22858 14.0592 10
    endloop
  endfacet
  facet normal 0 0 1
    outer loop
      vertex -5.81273 13.8279 10
      vertex -5.81273 -13.8279 10
      vertex -5.22858 -14.0592 10
    endloop
  endfacet
  facet normal -0 0 1
    outer loop
      vertex -6.38669 13.5724 10
      vertex -5.81273 -13.8279 10
      vertex -5.81273 13.8279 10
    endloop
  endfacet
  facet normal 0 0 1
    outer loop
      vertex -6.38669 13.5724 10
      vertex -6.38669 -13.5724 10
      vertex -5.81273 -13.8279 10
    endloop
  endfacet
  facet normal -0 0 1
    outer loop
      vertex -6.94944 13.2931 10
      vertex -6.38669 -13.5724 10
      vertex -6.38669 13.5724 10
    endloop
  endfacet
  facet normal 0 0 1
    outer loop
      vertex -6.94944 13.2931 10
      vertex -6.94944 -13.2931 10
      vertex -6.38669 -13.5724 10
    endloop
  endfacet
  facet normal -0 0 1
    outer loop
      vertex -7.5 12.9904 10
      vertex -6.94944 -13.2931 10
      vertex -6.94944 13.2931 10
    endloop
  endfacet
  facet normal 0 0 1
    outer loop
      vertex -7.5 12.9904 10
      vertex -7.5 -12.9904 10
      vertex -6.94944 -13.2931 10
    endloop
  endfacet
  facet normal -0 0 1
    outer loop
      vertex -8.0374 12.6649 10
      vertex -7.5 -12.9904 10
      vertex -7.5 12.9904 10
    endloop
  endfacet
  facet normal 0 0 1
    outer loop
      vertex -8.0374 12.6649 10
      vertex -8.0374 -12.6649 10
      vertex -7.5 -12.9904 10
    endloop
  endfacet
  facet normal -0 0 1
    outer loop
      vertex -8.5607 12.3172 10
      vertex -8.0374 -12.6649 10
      vertex -8.0374 12.6649 10
    endloop
  endfacet
  facet normal 0 0 1
    outer loop
      vertex -8.5607 12.3172 10
      vertex -8.5607 -12.3172 10
      vertex -8.0374 -12.6649 10
    endloop
  endfacet
  facet normal -0 0 1
    outer loop
      vertex -9.06899 11.9479 10
      vertex -8.5607 -12.3172 10
      vertex -8.5607 12.3172 10
    endloop
  endfacet
  facet normal 0 0 1
    outer loop
      vertex -9.06899 11.9479 10
      vertex -9.06899 -11.9479 10
      vertex -8.5607 -12.3172 10
    endloop
  endfacet
  facet normal -0 0 1
    outer loop
      vertex -9.56136 11.5577 10
      vertex -9.06899 -11.9479 10
      vertex -9.06899 11.9479 10
    endloop
  endfacet
  facet normal 0 0 1
    outer loop
      vertex -9.56136 11.5577 10
      vertex -9.56136 -11.5577 10
      vertex -9.06899 -11.9479 10
    endloop
  endfacet
  facet normal -0 0 1
    outer loop
      vertex -10.037 11.1472 10
      vertex -9.56136 -11.5577 10
      vertex -9.56136 11.5577 10
    endloop
  endfacet
  facet normal 0 0 1
    outer loop
      vertex -10.037 11.1472 10
      vertex -10.037 -11.1472 10
      vertex -9.56136 -11.5577 10
    endloop
  endfacet
  facet normal -0 0 1
    outer loop
      vertex -10.495 10.7171 10
      vertex -10.037 -11.1472 10
      vertex -10.037 11.1472 10
    endloop
  endfacet
  facet normal 0 0 1
    outer loop
      vertex -10.495 10.7171 10
      vertex -10.495 -10.7171 10
      vertex -10.037 -11.1472 10
    endloop
  endfacet
  facet normal -0 0 1
    outer loop
      vertex -10.9345 10.2682 10
      vertex -10.495 -10.7171 10
      vertex -10.495 10.7171 10
    endloop
  endfacet
  facet normal 0 0 1
    outer loop
      vertex -10.9345 10.2682 10
      vertex -10.9345 -10.2682 10
      vertex -10.495 -10.7171 10
    endloop
  endfacet
  facet normal -0 0 1
    outer loop
      vertex -11.3549 9.80131 10
      vertex -10.9345 -10.2682 10
      vertex -10.9345 10.2682 10
    endloop
  endfacet
  facet normal 0 0 1
    outer loop
      vertex -11.3549 9.80131 10
      vertex -11.3549 -9.80131 10
      vertex -10.9345 -10.2682 10
    endloop
  endfacet
  facet normal -0 0 1
    outer loop
      vertex -11.7554 9.31722 10
      vertex -11.3549 -9.80131 10
      vertex -11.3549 9.80131 10
    endloop
  endfacet
  facet normal 0 0 1
    outer loop
      vertex -11.7554 9.31722 10
      vertex -11.7554 -9.31722 10
      vertex -11.3549 -9.80131 10
    endloop
  endfacet
  facet normal -0 0 1
    outer loop
      vertex -12.1353 8.81678 10
      vertex -11.7554 -9.31722 10
      vertex -11.7554 9.31722 10
    endloop
  endfacet
  facet normal 0 0 1
    outer loop
      vertex -12.1353 8.81678 10
      vertex -12.1353 -8.81678 10
      vertex -11.7554 -9.31722 10
    endloop
  endfacet
  facet normal -0 0 1
    outer loop
      vertex -12.4938 8.30087 10
      vertex -12.1353 -8.81678 10
      vertex -12.1353 8.81678 10
    endloop
  endfacet
  facet normal 0 0 1
    outer loop
      vertex -12.4938 8.30087 10
      vertex -12.4938 -8.30087 10
      vertex -12.1353 -8.81678 10
    endloop
  endfacet
  facet normal -0 0 1
    outer loop
      vertex -12.8305 7.77041 10
      vertex -12.4938 -8.30087 10
      vertex -12.4938 8.30087 10
    endloop
  endfacet
  facet normal 0 0 1
    outer loop
      vertex -12.8305 7.77041 10
      vertex -12.8305 -7.77041 10
      vertex -12.4938 -8.30087 10
    endloop
  endfacet
  facet normal -0 0 1
    outer loop
      vertex -13.1446 7.22631 10
      vertex -12.8305 -7.77041 10
      vertex -12.8305 7.77041 10
    endloop
  endfacet
  facet normal 0 0 1
    outer loop
      vertex -13.1446 7.22631 10
      vertex -13.1446 -7.22631 10
      vertex -12.8305 -7.77041 10
    endloop
  endfacet
  facet normal -0 0 1
    outer loop
      vertex -13.4357 6.66953 10
      vertex -13.1446 -7.22631 10
      vertex -13.1446 7.22631 10
    endloop
  endfacet
  facet normal 0 0 1
    outer loop
      vertex -13.4357 6.66953 10
      vertex -13.4357 -6.66953 10
      vertex -13.1446 -7.22631 10
    endloop
  endfacet
  facet normal -0 0 1
    outer loop
      vertex -13.7032 6.10105 10
      vertex -13.4357 -6.66953 10
      vertex -13.4357 6.66953 10
    endloop
  endfacet
  facet normal 0 0 1
    outer loop
      vertex -13.7032 6.10105 10
      vertex -13.7032 -6.10105 10
      vertex -13.4357 -6.66953 10
    endloop
  endfacet
  facet normal -0 0 1
    outer loop
      vertex -13.9466 5.52187 10
      vertex -13.7032 -6.10105 10
      vertex -13.7032 6.10105 10
    endloop
  endfacet
  facet normal 0 0 1
    outer loop
      vertex -13.9466 5.52187 10
      vertex -13.9466 -5.52187 10
      vertex -13.7032 -6.10105 10
    endloop
  endfacet
  facet normal -0 0 1
    outer loop
      vertex -14.1656 4.933 10
      vertex -13.9466 -5.52187 10
      vertex -13.9466 5.52187 10
    endloop
  endfacet
  facet normal 0 0 1
    outer loop
      vertex -14.1656 4.933 10
      vertex -14.1656 -4.933 10
      vertex -13.9466 -5.52187 10
    endloop
  endfacet
  facet normal -0 0 1
    outer loop
      vertex -14.3598 4.33548 10
      vertex -14.1656 -4.933 10
      vertex -14.1656 4.933 10
    endloop
  endfacet
  facet normal 0 0 1
    outer loop
      vertex -14.3598 4.33548 10
      vertex -14.3598 -4.33548 10
      vertex -14.1656 -4.933 10
    endloop
  endfacet
  facet normal -0 0 1
    outer loop
      vertex -14.5287 3.73035 10
      vertex -14.3598 -4.33548 10
      vertex -14.3598 4.33548 10
    endloop
  endfacet
  facet normal 0 0 1
    outer loop
      vertex -14.5287 3.73035 10
      vertex -14.5287 -3.73035 10
      vertex -14.3598 -4.33548 10
    endloop
  endfacet
  facet normal -0 0 1
    outer loop
      vertex -14.6722 3.11868 10
      vertex -14.5287 -3.73035 10
      vertex -14.5287 3.73035 10
    endloop
  endfacet
  facet normal 0 0 1
    outer loop
      vertex -14.6722 3.11868 10
      vertex -14.6722 -3.11868 10
      vertex -14.5287 -3.73035 10
    endloop
  endfacet
  facet normal -0 0 1
    outer loop
      vertex -14.7899 2.50153 10
      vertex -14.6722 -3.11868 10
      vertex -14.6722 3.11868 10
    endloop
  endfacet
  facet normal 0 0 1
    outer loop
      vertex -14.7899 2.50153 10
      vertex -14.7899 -2.50153 10
      vertex -14.6722 -3.11868 10
    endloop
  endfacet
  facet normal -0 0 1
    outer loop
      vertex -14.8817 1.88 10
      vertex -14.7899 -2.50153 10
      vertex -14.7899 2.50153 10
    endloop
  endfacet
  facet normal 0 0 1
    outer loop
      vertex -14.8817 1.88 10
      vertex -14.8817 -1.88 10
      vertex -14.7899 -2.50153 10
    endloop
  endfacet
  facet normal -0 0 1
    outer loop
      vertex -14.9474 1.25517 10
      vertex -14.8817 -1.88 10
      vertex -14.8817 1.88 10
    endloop
  endfacet
  facet normal 0 0 1
    outer loop
      vertex -14.9474 1.25517 10
      vertex -14.9474 -1.25517 10
      vertex -14.8817 -1.88 10
    endloop
  endfacet
  facet normal -0 0 1
    outer loop
      vertex -14.9868 0.628135 10
      vertex -14.9474 -1.25517 10
      vertex -14.9474 1.25517 10
    endloop
  endfacet
  facet normal 0 0 1
    outer loop
      vertex -14.9868 0.628135 10
      vertex -14.9868 -0.628135 10
      vertex -14.9474 -1.25517 10
    endloop
  endfacet
  facet normal 0 -0 1
    outer loop
      vertex -14.9868 -0.628135 10
      vertex -14.9868 0.628135 10
      vertex -15 0 10
    endloop
  endfacet
endsolid OpenSCAD_Model
