solid OpenSCAD_Model
  facet normal 0.999779 0.0210111 0
    outer loop
      vertex 63 31 10
      vertex 62.9868 31.6281 -10
      vertex 62.9868 31.6281 10
    endloop
  endfacet
  facet normal 0.999779 0.0210111 0
    outer loop
      vertex 62.9868 31.6281 -10
      vertex 63 31 10
      vertex 63 31 -10
    endloop
  endfacet
  facet normal 0.998032 0.0627053 0
    outer loop
      vertex 62.9868 31.6281 10
      vertex 62.9474 32.2552 -10
      vertex 62.9474 32.2552 10
    endloop
  endfacet
  facet normal 0.998032 0.0627053 0
    outer loop
      vertex 62.9474 32.2552 -10
      vertex 62.9868 31.6281 10
      vertex 62.9868 31.6281 -10
    endloop
  endfacet
  facet normal 0.994517 0.104577 0
    outer loop
      vertex 62.9474 32.2552 10
      vertex 62.8817 32.88 -10
      vertex 62.8817 32.88 10
    endloop
  endfacet
  facet normal 0.994517 0.104577 0
    outer loop
      vertex 62.8817 32.88 -10
      vertex 62.9474 32.2552 10
      vertex 62.9474 32.2552 -10
    endloop
  endfacet
  facet normal 0.989267 0.146122 0
    outer loop
      vertex 62.8817 32.88 10
      vertex 62.7899 33.5015 -10
      vertex 62.7899 33.5015 10
    endloop
  endfacet
  facet normal 0.989267 0.146122 0
    outer loop
      vertex 62.7899 33.5015 -10
      vertex 62.8817 32.88 10
      vertex 62.8817 32.88 -10
    endloop
  endfacet
  facet normal 0.982298 0.187324 0
    outer loop
      vertex 62.7899 33.5015 10
      vertex 62.6722 34.1187 -10
      vertex 62.6722 34.1187 10
    endloop
  endfacet
  facet normal 0.982298 0.187324 0
    outer loop
      vertex 62.6722 34.1187 -10
      vertex 62.7899 33.5015 10
      vertex 62.7899 33.5015 -10
    endloop
  endfacet
  facet normal 0.973561 0.228427 0
    outer loop
      vertex 62.6722 34.1187 10
      vertex 62.5287 34.7303 -10
      vertex 62.5287 34.7303 10
    endloop
  endfacet
  facet normal 0.973561 0.228427 0
    outer loop
      vertex 62.5287 34.7303 -10
      vertex 62.6722 34.1187 10
      vertex 62.6722 34.1187 -10
    endloop
  endfacet
  facet normal 0.963193 0.268809 0
    outer loop
      vertex 62.5287 34.7303 10
      vertex 62.3598 35.3355 -10
      vertex 62.3598 35.3355 10
    endloop
  endfacet
  facet normal 0.963193 0.268809 0
    outer loop
      vertex 62.3598 35.3355 -10
      vertex 62.5287 34.7303 10
      vertex 62.5287 34.7303 -10
    endloop
  endfacet
  facet normal 0.951028 0.309104 0
    outer loop
      vertex 62.3598 35.3355 10
      vertex 62.1656 35.933 -10
      vertex 62.1656 35.933 10
    endloop
  endfacet
  facet normal 0.951028 0.309104 0
    outer loop
      vertex 62.1656 35.933 -10
      vertex 62.3598 35.3355 10
      vertex 62.3598 35.3355 -10
    endloop
  endfacet
  facet normal 0.937287 0.348558 0
    outer loop
      vertex 62.1656 35.933 10
      vertex 61.9466 36.5219 -10
      vertex 61.9466 36.5219 10
    endloop
  endfacet
  facet normal 0.937287 0.348558 0
    outer loop
      vertex 61.9466 36.5219 -10
      vertex 62.1656 35.933 10
      vertex 62.1656 35.933 -10
    endloop
  endfacet
  facet normal 0.921905 0.387416 0
    outer loop
      vertex 61.9466 36.5219 10
      vertex 61.7032 37.1011 -10
      vertex 61.7032 37.1011 10
    endloop
  endfacet
  facet normal 0.921905 0.387416 0
    outer loop
      vertex 61.7032 37.1011 -10
      vertex 61.9466 36.5219 10
      vertex 61.9466 36.5219 -10
    endloop
  endfacet
  facet normal 0.904808 0.42582 0
    outer loop
      vertex 61.7032 37.1011 10
      vertex 61.4357 37.6695 -10
      vertex 61.4357 37.6695 10
    endloop
  endfacet
  facet normal 0.904808 0.42582 0
    outer loop
      vertex 61.4357 37.6695 -10
      vertex 61.7032 37.1011 10
      vertex 61.7032 37.1011 -10
    endloop
  endfacet
  facet normal 0.886196 0.463311 0
    outer loop
      vertex 61.4357 37.6695 10
      vertex 61.1446 38.2263 -10
      vertex 61.1446 38.2263 10
    endloop
  endfacet
  facet normal 0.886196 0.463311 0
    outer loop
      vertex 61.1446 38.2263 -10
      vertex 61.4357 37.6695 10
      vertex 61.4357 37.6695 -10
    endloop
  endfacet
  facet normal 0.86605 0.499957 0
    outer loop
      vertex 61.1446 38.2263 10
      vertex 60.8305 38.7704 -10
      vertex 60.8305 38.7704 10
    endloop
  endfacet
  facet normal 0.86605 0.499957 0
    outer loop
      vertex 60.8305 38.7704 -10
      vertex 61.1446 38.2263 10
      vertex 61.1446 38.2263 -10
    endloop
  endfacet
  facet normal 0.844303 0.535866 0
    outer loop
      vertex 60.8305 38.7704 10
      vertex 60.4938 39.3009 -10
      vertex 60.4938 39.3009 10
    endloop
  endfacet
  facet normal 0.844303 0.535866 0
    outer loop
      vertex 60.4938 39.3009 -10
      vertex 60.8305 38.7704 10
      vertex 60.8305 38.7704 -10
    endloop
  endfacet
  facet normal 0.821194 0.570649 0
    outer loop
      vertex 60.4938 39.3009 10
      vertex 60.1353 39.8168 -10
      vertex 60.1353 39.8168 10
    endloop
  endfacet
  facet normal 0.821194 0.570649 0
    outer loop
      vertex 60.1353 39.8168 -10
      vertex 60.4938 39.3009 10
      vertex 60.4938 39.3009 -10
    endloop
  endfacet
  facet normal 0.796472 0.604676 0
    outer loop
      vertex 60.1353 39.8168 10
      vertex 59.7554 40.3172 -10
      vertex 59.7554 40.3172 10
    endloop
  endfacet
  facet normal 0.796472 0.604676 0
    outer loop
      vertex 59.7554 40.3172 -10
      vertex 60.1353 39.8168 10
      vertex 60.1353 39.8168 -10
    endloop
  endfacet
  facet normal 0.770499 0.637441 0
    outer loop
      vertex 59.7554 40.3172 10
      vertex 59.3549 40.8013 -10
      vertex 59.3549 40.8013 10
    endloop
  endfacet
  facet normal 0.770499 0.637441 0
    outer loop
      vertex 59.3549 40.8013 -10
      vertex 59.7554 40.3172 10
      vertex 59.7554 40.3172 -10
    endloop
  endfacet
  facet normal 0.743144 0.669132 0
    outer loop
      vertex 59.3549 40.8013 10
      vertex 58.9345 41.2682 -10
      vertex 58.9345 41.2682 10
    endloop
  endfacet
  facet normal 0.743144 0.669132 0
    outer loop
      vertex 58.9345 41.2682 -10
      vertex 59.3549 40.8013 10
      vertex 59.3549 40.8013 -10
    endloop
  endfacet
  facet normal 0.714469 0.699667 0
    outer loop
      vertex 58.9345 41.2682 10
      vertex 58.4949 41.7171 -10
      vertex 58.4949 41.7171 10
    endloop
  endfacet
  facet normal 0.714469 0.699667 0
    outer loop
      vertex 58.4949 41.7171 -10
      vertex 58.9345 41.2682 10
      vertex 58.9345 41.2682 -10
    endloop
  endfacet
  facet normal 0.684634 0.728887 -0
    outer loop
      vertex 58.4949 41.7171 -10
      vertex 58.037 42.1472 10
      vertex 58.4949 41.7171 10
    endloop
  endfacet
  facet normal 0.684634 0.728887 0
    outer loop
      vertex 58.037 42.1472 10
      vertex 58.4949 41.7171 -10
      vertex 58.037 42.1472 -10
    endloop
  endfacet
  facet normal 0.653396 0.757016 -0
    outer loop
      vertex 58.037 42.1472 -10
      vertex 57.5614 42.5577 10
      vertex 58.037 42.1472 10
    endloop
  endfacet
  facet normal 0.653396 0.757016 0
    outer loop
      vertex 57.5614 42.5577 10
      vertex 58.037 42.1472 -10
      vertex 57.5614 42.5577 -10
    endloop
  endfacet
  facet normal 0.621078 0.783749 -0
    outer loop
      vertex 57.5614 42.5577 -10
      vertex 57.069 42.9479 10
      vertex 57.5614 42.5577 10
    endloop
  endfacet
  facet normal 0.621078 0.783749 0
    outer loop
      vertex 57.069 42.9479 10
      vertex 57.5614 42.5577 -10
      vertex 57.069 42.9479 -10
    endloop
  endfacet
  facet normal 0.587784 0.809018 -0
    outer loop
      vertex 57.069 42.9479 -10
      vertex 56.5607 43.3172 10
      vertex 57.069 42.9479 10
    endloop
  endfacet
  facet normal 0.587784 0.809018 0
    outer loop
      vertex 56.5607 43.3172 10
      vertex 57.069 42.9479 -10
      vertex 56.5607 43.3172 -10
    endloop
  endfacet
  facet normal 0.553414 0.832906 -0
    outer loop
      vertex 56.5607 43.3172 -10
      vertex 56.0374 43.6649 10
      vertex 56.5607 43.3172 10
    endloop
  endfacet
  facet normal 0.553414 0.832906 0
    outer loop
      vertex 56.0374 43.6649 10
      vertex 56.5607 43.3172 -10
      vertex 56.0374 43.6649 -10
    endloop
  endfacet
  facet normal 0.518072 0.855337 -0
    outer loop
      vertex 56.0374 43.6649 -10
      vertex 55.5 43.9904 10
      vertex 56.0374 43.6649 10
    endloop
  endfacet
  facet normal 0.518072 0.855337 0
    outer loop
      vertex 55.5 43.9904 10
      vertex 56.0374 43.6649 -10
      vertex 55.5 43.9904 -10
    endloop
  endfacet
  facet normal 0.48176 0.876303 -0
    outer loop
      vertex 55.5 43.9904 -10
      vertex 54.9494 44.2931 10
      vertex 55.5 43.9904 10
    endloop
  endfacet
  facet normal 0.48176 0.876303 0
    outer loop
      vertex 54.9494 44.2931 10
      vertex 55.5 43.9904 -10
      vertex 54.9494 44.2931 -10
    endloop
  endfacet
  facet normal 0.444601 0.895729 -0
    outer loop
      vertex 54.9494 44.2931 -10
      vertex 54.3867 44.5724 10
      vertex 54.9494 44.2931 10
    endloop
  endfacet
  facet normal 0.444601 0.895729 0
    outer loop
      vertex 54.3867 44.5724 10
      vertex 54.9494 44.2931 -10
      vertex 54.3867 44.5724 -10
    endloop
  endfacet
  facet normal 0.406655 0.913582 -0
    outer loop
      vertex 54.3867 44.5724 -10
      vertex 53.8127 44.8279 10
      vertex 54.3867 44.5724 10
    endloop
  endfacet
  facet normal 0.406655 0.913582 0
    outer loop
      vertex 53.8127 44.8279 10
      vertex 54.3867 44.5724 -10
      vertex 53.8127 44.8279 -10
    endloop
  endfacet
  facet normal 0.368177 0.929756 -0
    outer loop
      vertex 53.8127 44.8279 -10
      vertex 53.2286 45.0592 10
      vertex 53.8127 44.8279 10
    endloop
  endfacet
  facet normal 0.368177 0.929756 0
    outer loop
      vertex 53.2286 45.0592 10
      vertex 53.8127 44.8279 -10
      vertex 53.2286 45.0592 -10
    endloop
  endfacet
  facet normal 0.328854 0.944381 -0
    outer loop
      vertex 53.2286 45.0592 -10
      vertex 52.6353 45.2658 10
      vertex 53.2286 45.0592 10
    endloop
  endfacet
  facet normal 0.328854 0.944381 0
    outer loop
      vertex 52.6353 45.2658 10
      vertex 53.2286 45.0592 -10
      vertex 52.6353 45.2658 -10
    endloop
  endfacet
  facet normal 0.289027 0.957321 -0
    outer loop
      vertex 52.6353 45.2658 -10
      vertex 52.0338 45.4474 10
      vertex 52.6353 45.2658 10
    endloop
  endfacet
  facet normal 0.289027 0.957321 0
    outer loop
      vertex 52.0338 45.4474 10
      vertex 52.6353 45.2658 -10
      vertex 52.0338 45.4474 -10
    endloop
  endfacet
  facet normal 0.248785 0.968559 -0
    outer loop
      vertex 52.0338 45.4474 -10
      vertex 51.4253 45.6037 10
      vertex 52.0338 45.4474 10
    endloop
  endfacet
  facet normal 0.248785 0.968559 0
    outer loop
      vertex 51.4253 45.6037 10
      vertex 52.0338 45.4474 -10
      vertex 51.4253 45.6037 -10
    endloop
  endfacet
  facet normal 0.207855 0.97816 -0
    outer loop
      vertex 51.4253 45.6037 -10
      vertex 50.8107 45.7343 10
      vertex 51.4253 45.6037 10
    endloop
  endfacet
  facet normal 0.207855 0.97816 0
    outer loop
      vertex 50.8107 45.7343 10
      vertex 51.4253 45.6037 -10
      vertex 50.8107 45.7343 -10
    endloop
  endfacet
  facet normal 0.166799 0.985991 -0
    outer loop
      vertex 50.8107 45.7343 -10
      vertex 50.1912 45.8391 10
      vertex 50.8107 45.7343 10
    endloop
  endfacet
  facet normal 0.166799 0.985991 0
    outer loop
      vertex 50.1912 45.8391 10
      vertex 50.8107 45.7343 -10
      vertex 50.1912 45.8391 -10
    endloop
  endfacet
  facet normal 0.125269 0.992123 -0
    outer loop
      vertex 50.1912 45.8391 -10
      vertex 49.5679 45.9178 10
      vertex 50.1912 45.8391 10
    endloop
  endfacet
  facet normal 0.125269 0.992123 0
    outer loop
      vertex 49.5679 45.9178 10
      vertex 50.1912 45.8391 -10
      vertex 49.5679 45.9178 -10
    endloop
  endfacet
  facet normal 0.0837305 0.996488 -0
    outer loop
      vertex 49.5679 45.9178 -10
      vertex 48.9419 45.9704 10
      vertex 49.5679 45.9178 10
    endloop
  endfacet
  facet normal 0.0837305 0.996488 0
    outer loop
      vertex 48.9419 45.9704 10
      vertex 49.5679 45.9178 -10
      vertex 48.9419 45.9704 -10
    endloop
  endfacet
  facet normal 0.0418556 0.999124 -0
    outer loop
      vertex 48.9419 45.9704 -10
      vertex 48.3141 45.9967 10
      vertex 48.9419 45.9704 10
    endloop
  endfacet
  facet normal 0.0418556 0.999124 0
    outer loop
      vertex 48.3141 45.9967 10
      vertex 48.9419 45.9704 -10
      vertex 48.3141 45.9967 -10
    endloop
  endfacet
  facet normal 0 1 -0
    outer loop
      vertex 48.3141 45.9967 -10
      vertex 47.6859 45.9967 10
      vertex 48.3141 45.9967 10
    endloop
  endfacet
  facet normal 0 1 0
    outer loop
      vertex 47.6859 45.9967 10
      vertex 48.3141 45.9967 -10
      vertex 47.6859 45.9967 -10
    endloop
  endfacet
  facet normal -0.0418556 0.999124 0
    outer loop
      vertex 47.6859 45.9967 -10
      vertex 47.0581 45.9704 10
      vertex 47.6859 45.9967 10
    endloop
  endfacet
  facet normal -0.0418556 0.999124 0
    outer loop
      vertex 47.0581 45.9704 10
      vertex 47.6859 45.9967 -10
      vertex 47.0581 45.9704 -10
    endloop
  endfacet
  facet normal -0.0837305 0.996488 0
    outer loop
      vertex 47.0581 45.9704 -10
      vertex 46.4321 45.9178 10
      vertex 47.0581 45.9704 10
    endloop
  endfacet
  facet normal -0.0837305 0.996488 0
    outer loop
      vertex 46.4321 45.9178 10
      vertex 47.0581 45.9704 -10
      vertex 46.4321 45.9178 -10
    endloop
  endfacet
  facet normal -0.125269 0.992123 0
    outer loop
      vertex 46.4321 45.9178 -10
      vertex 45.8088 45.8391 10
      vertex 46.4321 45.9178 10
    endloop
  endfacet
  facet normal -0.125269 0.992123 0
    outer loop
      vertex 45.8088 45.8391 10
      vertex 46.4321 45.9178 -10
      vertex 45.8088 45.8391 -10
    endloop
  endfacet
  facet normal -0.166799 0.985991 0
    outer loop
      vertex 45.8088 45.8391 -10
      vertex 45.1893 45.7343 10
      vertex 45.8088 45.8391 10
    endloop
  endfacet
  facet normal -0.166799 0.985991 0
    outer loop
      vertex 45.1893 45.7343 10
      vertex 45.8088 45.8391 -10
      vertex 45.1893 45.7343 -10
    endloop
  endfacet
  facet normal -0.207855 0.97816 0
    outer loop
      vertex 45.1893 45.7343 -10
      vertex 44.5747 45.6037 10
      vertex 45.1893 45.7343 10
    endloop
  endfacet
  facet normal -0.207855 0.97816 0
    outer loop
      vertex 44.5747 45.6037 10
      vertex 45.1893 45.7343 -10
      vertex 44.5747 45.6037 -10
    endloop
  endfacet
  facet normal -0.248785 0.968559 0
    outer loop
      vertex 44.5747 45.6037 -10
      vertex 43.9662 45.4474 10
      vertex 44.5747 45.6037 10
    endloop
  endfacet
  facet normal -0.248785 0.968559 0
    outer loop
      vertex 43.9662 45.4474 10
      vertex 44.5747 45.6037 -10
      vertex 43.9662 45.4474 -10
    endloop
  endfacet
  facet normal -0.289027 0.957321 0
    outer loop
      vertex 43.9662 45.4474 -10
      vertex 43.3647 45.2658 10
      vertex 43.9662 45.4474 10
    endloop
  endfacet
  facet normal -0.289027 0.957321 0
    outer loop
      vertex 43.3647 45.2658 10
      vertex 43.9662 45.4474 -10
      vertex 43.3647 45.2658 -10
    endloop
  endfacet
  facet normal -0.328854 0.944381 0
    outer loop
      vertex 43.3647 45.2658 -10
      vertex 42.7714 45.0592 10
      vertex 43.3647 45.2658 10
    endloop
  endfacet
  facet normal -0.328854 0.944381 0
    outer loop
      vertex 42.7714 45.0592 10
      vertex 43.3647 45.2658 -10
      vertex 42.7714 45.0592 -10
    endloop
  endfacet
  facet normal -0.368177 0.929756 0
    outer loop
      vertex 42.7714 45.0592 -10
      vertex 42.1873 44.8279 10
      vertex 42.7714 45.0592 10
    endloop
  endfacet
  facet normal -0.368177 0.929756 0
    outer loop
      vertex 42.1873 44.8279 10
      vertex 42.7714 45.0592 -10
      vertex 42.1873 44.8279 -10
    endloop
  endfacet
  facet normal -0.406655 0.913582 0
    outer loop
      vertex 42.1873 44.8279 -10
      vertex 41.6133 44.5724 10
      vertex 42.1873 44.8279 10
    endloop
  endfacet
  facet normal -0.406655 0.913582 0
    outer loop
      vertex 41.6133 44.5724 10
      vertex 42.1873 44.8279 -10
      vertex 41.6133 44.5724 -10
    endloop
  endfacet
  facet normal -0.444601 0.895729 0
    outer loop
      vertex 41.6133 44.5724 -10
      vertex 41.0506 44.2931 10
      vertex 41.6133 44.5724 10
    endloop
  endfacet
  facet normal -0.444601 0.895729 0
    outer loop
      vertex 41.0506 44.2931 10
      vertex 41.6133 44.5724 -10
      vertex 41.0506 44.2931 -10
    endloop
  endfacet
  facet normal -0.48176 0.876303 0
    outer loop
      vertex 41.0506 44.2931 -10
      vertex 40.5 43.9904 10
      vertex 41.0506 44.2931 10
    endloop
  endfacet
  facet normal -0.48176 0.876303 0
    outer loop
      vertex 40.5 43.9904 10
      vertex 41.0506 44.2931 -10
      vertex 40.5 43.9904 -10
    endloop
  endfacet
  facet normal -0.518072 0.855337 0
    outer loop
      vertex 40.5 43.9904 -10
      vertex 39.9626 43.6649 10
      vertex 40.5 43.9904 10
    endloop
  endfacet
  facet normal -0.518072 0.855337 0
    outer loop
      vertex 39.9626 43.6649 10
      vertex 40.5 43.9904 -10
      vertex 39.9626 43.6649 -10
    endloop
  endfacet
  facet normal -0.553414 0.832906 0
    outer loop
      vertex 39.9626 43.6649 -10
      vertex 39.4393 43.3172 10
      vertex 39.9626 43.6649 10
    endloop
  endfacet
  facet normal -0.553414 0.832906 0
    outer loop
      vertex 39.4393 43.3172 10
      vertex 39.9626 43.6649 -10
      vertex 39.4393 43.3172 -10
    endloop
  endfacet
  facet normal -0.587784 0.809018 0
    outer loop
      vertex 39.4393 43.3172 -10
      vertex 38.931 42.9479 10
      vertex 39.4393 43.3172 10
    endloop
  endfacet
  facet normal -0.587784 0.809018 0
    outer loop
      vertex 38.931 42.9479 10
      vertex 39.4393 43.3172 -10
      vertex 38.931 42.9479 -10
    endloop
  endfacet
  facet normal -0.621078 0.783749 0
    outer loop
      vertex 38.931 42.9479 -10
      vertex 38.4386 42.5577 10
      vertex 38.931 42.9479 10
    endloop
  endfacet
  facet normal -0.621078 0.783749 0
    outer loop
      vertex 38.4386 42.5577 10
      vertex 38.931 42.9479 -10
      vertex 38.4386 42.5577 -10
    endloop
  endfacet
  facet normal -0.653396 0.757016 0
    outer loop
      vertex 38.4386 42.5577 -10
      vertex 37.963 42.1472 10
      vertex 38.4386 42.5577 10
    endloop
  endfacet
  facet normal -0.653396 0.757016 0
    outer loop
      vertex 37.963 42.1472 10
      vertex 38.4386 42.5577 -10
      vertex 37.963 42.1472 -10
    endloop
  endfacet
  facet normal -0.684634 0.728887 0
    outer loop
      vertex 37.963 42.1472 -10
      vertex 37.5051 41.7171 10
      vertex 37.963 42.1472 10
    endloop
  endfacet
  facet normal -0.684634 0.728887 0
    outer loop
      vertex 37.5051 41.7171 10
      vertex 37.963 42.1472 -10
      vertex 37.5051 41.7171 -10
    endloop
  endfacet
  facet normal -0.714469 0.699667 0
    outer loop
      vertex 37.0655 41.2682 -10
      vertex 37.5051 41.7171 10
      vertex 37.5051 41.7171 -10
    endloop
  endfacet
  facet normal -0.714469 0.699667 0
    outer loop
      vertex 37.5051 41.7171 10
      vertex 37.0655 41.2682 -10
      vertex 37.0655 41.2682 10
    endloop
  endfacet
  facet normal -0.743144 0.669132 0
    outer loop
      vertex 36.6451 40.8013 -10
      vertex 37.0655 41.2682 10
      vertex 37.0655 41.2682 -10
    endloop
  endfacet
  facet normal -0.743144 0.669132 0
    outer loop
      vertex 37.0655 41.2682 10
      vertex 36.6451 40.8013 -10
      vertex 36.6451 40.8013 10
    endloop
  endfacet
  facet normal -0.770499 0.637441 0
    outer loop
      vertex 36.2446 40.3172 -10
      vertex 36.6451 40.8013 10
      vertex 36.6451 40.8013 -10
    endloop
  endfacet
  facet normal -0.770499 0.637441 0
    outer loop
      vertex 36.6451 40.8013 10
      vertex 36.2446 40.3172 -10
      vertex 36.2446 40.3172 10
    endloop
  endfacet
  facet normal -0.796472 0.604676 0
    outer loop
      vertex 35.8647 39.8168 -10
      vertex 36.2446 40.3172 10
      vertex 36.2446 40.3172 -10
    endloop
  endfacet
  facet normal -0.796472 0.604676 0
    outer loop
      vertex 36.2446 40.3172 10
      vertex 35.8647 39.8168 -10
      vertex 35.8647 39.8168 10
    endloop
  endfacet
  facet normal -0.821194 0.570649 0
    outer loop
      vertex 35.5062 39.3009 -10
      vertex 35.8647 39.8168 10
      vertex 35.8647 39.8168 -10
    endloop
  endfacet
  facet normal -0.821194 0.570649 0
    outer loop
      vertex 35.8647 39.8168 10
      vertex 35.5062 39.3009 -10
      vertex 35.5062 39.3009 10
    endloop
  endfacet
  facet normal -0.844303 0.535866 0
    outer loop
      vertex 35.1695 38.7704 -10
      vertex 35.5062 39.3009 10
      vertex 35.5062 39.3009 -10
    endloop
  endfacet
  facet normal -0.844303 0.535866 0
    outer loop
      vertex 35.5062 39.3009 10
      vertex 35.1695 38.7704 -10
      vertex 35.1695 38.7704 10
    endloop
  endfacet
  facet normal -0.86605 0.499957 0
    outer loop
      vertex 34.8554 38.2263 -10
      vertex 35.1695 38.7704 10
      vertex 35.1695 38.7704 -10
    endloop
  endfacet
  facet normal -0.86605 0.499957 0
    outer loop
      vertex 35.1695 38.7704 10
      vertex 34.8554 38.2263 -10
      vertex 34.8554 38.2263 10
    endloop
  endfacet
  facet normal -0.886196 0.463311 0
    outer loop
      vertex 34.5643 37.6695 -10
      vertex 34.8554 38.2263 10
      vertex 34.8554 38.2263 -10
    endloop
  endfacet
  facet normal -0.886196 0.463311 0
    outer loop
      vertex 34.8554 38.2263 10
      vertex 34.5643 37.6695 -10
      vertex 34.5643 37.6695 10
    endloop
  endfacet
  facet normal -0.904808 0.42582 0
    outer loop
      vertex 34.2968 37.1011 -10
      vertex 34.5643 37.6695 10
      vertex 34.5643 37.6695 -10
    endloop
  endfacet
  facet normal -0.904808 0.42582 0
    outer loop
      vertex 34.5643 37.6695 10
      vertex 34.2968 37.1011 -10
      vertex 34.2968 37.1011 10
    endloop
  endfacet
  facet normal -0.921905 0.387416 0
    outer loop
      vertex 34.0534 36.5219 -10
      vertex 34.2968 37.1011 10
      vertex 34.2968 37.1011 -10
    endloop
  endfacet
  facet normal -0.921905 0.387416 0
    outer loop
      vertex 34.2968 37.1011 10
      vertex 34.0534 36.5219 -10
      vertex 34.0534 36.5219 10
    endloop
  endfacet
  facet normal -0.937287 0.348558 0
    outer loop
      vertex 33.8344 35.933 -10
      vertex 34.0534 36.5219 10
      vertex 34.0534 36.5219 -10
    endloop
  endfacet
  facet normal -0.937287 0.348558 0
    outer loop
      vertex 34.0534 36.5219 10
      vertex 33.8344 35.933 -10
      vertex 33.8344 35.933 10
    endloop
  endfacet
  facet normal -0.951028 0.309104 0
    outer loop
      vertex 33.6402 35.3355 -10
      vertex 33.8344 35.933 10
      vertex 33.8344 35.933 -10
    endloop
  endfacet
  facet normal -0.951028 0.309104 0
    outer loop
      vertex 33.8344 35.933 10
      vertex 33.6402 35.3355 -10
      vertex 33.6402 35.3355 10
    endloop
  endfacet
  facet normal -0.963193 0.268809 0
    outer loop
      vertex 33.4713 34.7303 -10
      vertex 33.6402 35.3355 10
      vertex 33.6402 35.3355 -10
    endloop
  endfacet
  facet normal -0.963193 0.268809 0
    outer loop
      vertex 33.6402 35.3355 10
      vertex 33.4713 34.7303 -10
      vertex 33.4713 34.7303 10
    endloop
  endfacet
  facet normal -0.973561 0.228427 0
    outer loop
      vertex 33.3278 34.1187 -10
      vertex 33.4713 34.7303 10
      vertex 33.4713 34.7303 -10
    endloop
  endfacet
  facet normal -0.973561 0.228427 0
    outer loop
      vertex 33.4713 34.7303 10
      vertex 33.3278 34.1187 -10
      vertex 33.3278 34.1187 10
    endloop
  endfacet
  facet normal -0.982298 0.187324 0
    outer loop
      vertex 33.2101 33.5015 -10
      vertex 33.3278 34.1187 10
      vertex 33.3278 34.1187 -10
    endloop
  endfacet
  facet normal -0.982298 0.187324 0
    outer loop
      vertex 33.3278 34.1187 10
      vertex 33.2101 33.5015 -10
      vertex 33.2101 33.5015 10
    endloop
  endfacet
  facet normal -0.989267 0.146122 0
    outer loop
      vertex 33.1183 32.88 -10
      vertex 33.2101 33.5015 10
      vertex 33.2101 33.5015 -10
    endloop
  endfacet
  facet normal -0.989267 0.146122 0
    outer loop
      vertex 33.2101 33.5015 10
      vertex 33.1183 32.88 -10
      vertex 33.1183 32.88 10
    endloop
  endfacet
  facet normal -0.994517 0.104577 0
    outer loop
      vertex 33.0526 32.2552 -10
      vertex 33.1183 32.88 10
      vertex 33.1183 32.88 -10
    endloop
  endfacet
  facet normal -0.994517 0.104577 0
    outer loop
      vertex 33.1183 32.88 10
      vertex 33.0526 32.2552 -10
      vertex 33.0526 32.2552 10
    endloop
  endfacet
  facet normal -0.998032 0.0627053 0
    outer loop
      vertex 33.0132 31.6281 -10
      vertex 33.0526 32.2552 10
      vertex 33.0526 32.2552 -10
    endloop
  endfacet
  facet normal -0.998032 0.0627053 0
    outer loop
      vertex 33.0526 32.2552 10
      vertex 33.0132 31.6281 -10
      vertex 33.0132 31.6281 10
    endloop
  endfacet
  facet normal -0.999779 0.0210111 0
    outer loop
      vertex 33 31 -10
      vertex 33.0132 31.6281 10
      vertex 33.0132 31.6281 -10
    endloop
  endfacet
  facet normal -0.999779 0.0210111 0
    outer loop
      vertex 33.0132 31.6281 10
      vertex 33 31 -10
      vertex 33 31 10
    endloop
  endfacet
  facet normal -0.999779 -0.0210111 0
    outer loop
      vertex 33.0132 30.3719 -10
      vertex 33 31 10
      vertex 33 31 -10
    endloop
  endfacet
  facet normal -0.999779 -0.0210111 0
    outer loop
      vertex 33 31 10
      vertex 33.0132 30.3719 -10
      vertex 33.0132 30.3719 10
    endloop
  endfacet
  facet normal -0.998032 -0.0627053 0
    outer loop
      vertex 33.0526 29.7448 -10
      vertex 33.0132 30.3719 10
      vertex 33.0132 30.3719 -10
    endloop
  endfacet
  facet normal -0.998032 -0.0627053 0
    outer loop
      vertex 33.0132 30.3719 10
      vertex 33.0526 29.7448 -10
      vertex 33.0526 29.7448 10
    endloop
  endfacet
  facet normal -0.994517 -0.104577 0
    outer loop
      vertex 33.1183 29.12 -10
      vertex 33.0526 29.7448 10
      vertex 33.0526 29.7448 -10
    endloop
  endfacet
  facet normal -0.994517 -0.104577 0
    outer loop
      vertex 33.0526 29.7448 10
      vertex 33.1183 29.12 -10
      vertex 33.1183 29.12 10
    endloop
  endfacet
  facet normal -0.989267 -0.146122 0
    outer loop
      vertex 33.2101 28.4985 -10
      vertex 33.1183 29.12 10
      vertex 33.1183 29.12 -10
    endloop
  endfacet
  facet normal -0.989267 -0.146122 0
    outer loop
      vertex 33.1183 29.12 10
      vertex 33.2101 28.4985 -10
      vertex 33.2101 28.4985 10
    endloop
  endfacet
  facet normal -0.982298 -0.187324 0
    outer loop
      vertex 33.3278 27.8813 -10
      vertex 33.2101 28.4985 10
      vertex 33.2101 28.4985 -10
    endloop
  endfacet
  facet normal -0.982298 -0.187324 0
    outer loop
      vertex 33.2101 28.4985 10
      vertex 33.3278 27.8813 -10
      vertex 33.3278 27.8813 10
    endloop
  endfacet
  facet normal -0.973561 -0.228427 0
    outer loop
      vertex 33.4713 27.2697 -10
      vertex 33.3278 27.8813 10
      vertex 33.3278 27.8813 -10
    endloop
  endfacet
  facet normal -0.973561 -0.228427 0
    outer loop
      vertex 33.3278 27.8813 10
      vertex 33.4713 27.2697 -10
      vertex 33.4713 27.2697 10
    endloop
  endfacet
  facet normal -0.963193 -0.268809 0
    outer loop
      vertex 33.6402 26.6645 -10
      vertex 33.4713 27.2697 10
      vertex 33.4713 27.2697 -10
    endloop
  endfacet
  facet normal -0.963193 -0.268809 0
    outer loop
      vertex 33.4713 27.2697 10
      vertex 33.6402 26.6645 -10
      vertex 33.6402 26.6645 10
    endloop
  endfacet
  facet normal -0.951028 -0.309104 0
    outer loop
      vertex 33.8344 26.067 -10
      vertex 33.6402 26.6645 10
      vertex 33.6402 26.6645 -10
    endloop
  endfacet
  facet normal -0.951028 -0.309104 0
    outer loop
      vertex 33.6402 26.6645 10
      vertex 33.8344 26.067 -10
      vertex 33.8344 26.067 10
    endloop
  endfacet
  facet normal -0.937287 -0.348558 0
    outer loop
      vertex 34.0534 25.4781 -10
      vertex 33.8344 26.067 10
      vertex 33.8344 26.067 -10
    endloop
  endfacet
  facet normal -0.937287 -0.348558 0
    outer loop
      vertex 33.8344 26.067 10
      vertex 34.0534 25.4781 -10
      vertex 34.0534 25.4781 10
    endloop
  endfacet
  facet normal -0.921881 -0.387473 0
    outer loop
      vertex 34.2968 24.899 -10
      vertex 34.0534 25.4781 10
      vertex 34.0534 25.4781 -10
    endloop
  endfacet
  facet normal -0.921881 -0.387473 0
    outer loop
      vertex 34.0534 25.4781 10
      vertex 34.2968 24.899 -10
      vertex 34.2968 24.899 10
    endloop
  endfacet
  facet normal -0.904837 -0.425759 0
    outer loop
      vertex 34.5643 24.3305 -10
      vertex 34.2968 24.899 10
      vertex 34.2968 24.899 -10
    endloop
  endfacet
  facet normal -0.904837 -0.425759 0
    outer loop
      vertex 34.2968 24.899 10
      vertex 34.5643 24.3305 -10
      vertex 34.5643 24.3305 10
    endloop
  endfacet
  facet normal -0.886196 -0.463311 0
    outer loop
      vertex 34.8554 23.7737 -10
      vertex 34.5643 24.3305 10
      vertex 34.5643 24.3305 -10
    endloop
  endfacet
  facet normal -0.886196 -0.463311 0
    outer loop
      vertex 34.5643 24.3305 10
      vertex 34.8554 23.7737 -10
      vertex 34.8554 23.7737 10
    endloop
  endfacet
  facet normal -0.86605 -0.499957 0
    outer loop
      vertex 35.1695 23.2296 -10
      vertex 34.8554 23.7737 10
      vertex 34.8554 23.7737 -10
    endloop
  endfacet
  facet normal -0.86605 -0.499957 0
    outer loop
      vertex 34.8554 23.7737 10
      vertex 35.1695 23.2296 -10
      vertex 35.1695 23.2296 10
    endloop
  endfacet
  facet normal -0.844303 -0.535866 0
    outer loop
      vertex 35.5062 22.6991 -10
      vertex 35.1695 23.2296 10
      vertex 35.1695 23.2296 -10
    endloop
  endfacet
  facet normal -0.844303 -0.535866 0
    outer loop
      vertex 35.1695 23.2296 10
      vertex 35.5062 22.6991 -10
      vertex 35.5062 22.6991 10
    endloop
  endfacet
  facet normal -0.821194 -0.570649 0
    outer loop
      vertex 35.8647 22.1832 -10
      vertex 35.5062 22.6991 10
      vertex 35.5062 22.6991 -10
    endloop
  endfacet
  facet normal -0.821194 -0.570649 0
    outer loop
      vertex 35.5062 22.6991 10
      vertex 35.8647 22.1832 -10
      vertex 35.8647 22.1832 10
    endloop
  endfacet
  facet normal -0.796472 -0.604676 0
    outer loop
      vertex 36.2446 21.6828 -10
      vertex 35.8647 22.1832 10
      vertex 35.8647 22.1832 -10
    endloop
  endfacet
  facet normal -0.796472 -0.604676 0
    outer loop
      vertex 35.8647 22.1832 10
      vertex 36.2446 21.6828 -10
      vertex 36.2446 21.6828 10
    endloop
  endfacet
  facet normal -0.770499 -0.637441 0
    outer loop
      vertex 36.6451 21.1987 -10
      vertex 36.2446 21.6828 10
      vertex 36.2446 21.6828 -10
    endloop
  endfacet
  facet normal -0.770499 -0.637441 0
    outer loop
      vertex 36.2446 21.6828 10
      vertex 36.6451 21.1987 -10
      vertex 36.6451 21.1987 10
    endloop
  endfacet
  facet normal -0.743144 -0.669132 0
    outer loop
      vertex 37.0655 20.7318 -10
      vertex 36.6451 21.1987 10
      vertex 36.6451 21.1987 -10
    endloop
  endfacet
  facet normal -0.743144 -0.669132 0
    outer loop
      vertex 36.6451 21.1987 10
      vertex 37.0655 20.7318 -10
      vertex 37.0655 20.7318 10
    endloop
  endfacet
  facet normal -0.714469 -0.699667 0
    outer loop
      vertex 37.5051 20.2829 -10
      vertex 37.0655 20.7318 10
      vertex 37.0655 20.7318 -10
    endloop
  endfacet
  facet normal -0.714469 -0.699667 0
    outer loop
      vertex 37.0655 20.7318 10
      vertex 37.5051 20.2829 -10
      vertex 37.5051 20.2829 10
    endloop
  endfacet
  facet normal -0.684634 -0.728887 0
    outer loop
      vertex 37.5051 20.2829 -10
      vertex 37.963 19.8528 10
      vertex 37.5051 20.2829 10
    endloop
  endfacet
  facet normal -0.684634 -0.728887 -0
    outer loop
      vertex 37.963 19.8528 10
      vertex 37.5051 20.2829 -10
      vertex 37.963 19.8528 -10
    endloop
  endfacet
  facet normal -0.653396 -0.757016 0
    outer loop
      vertex 37.963 19.8528 -10
      vertex 38.4386 19.4423 10
      vertex 37.963 19.8528 10
    endloop
  endfacet
  facet normal -0.653396 -0.757016 -0
    outer loop
      vertex 38.4386 19.4423 10
      vertex 37.963 19.8528 -10
      vertex 38.4386 19.4423 -10
    endloop
  endfacet
  facet normal -0.621078 -0.783749 0
    outer loop
      vertex 38.4386 19.4423 -10
      vertex 38.931 19.0521 10
      vertex 38.4386 19.4423 10
    endloop
  endfacet
  facet normal -0.621078 -0.783749 -0
    outer loop
      vertex 38.931 19.0521 10
      vertex 38.4386 19.4423 -10
      vertex 38.931 19.0521 -10
    endloop
  endfacet
  facet normal -0.587784 -0.809018 0
    outer loop
      vertex 38.931 19.0521 -10
      vertex 39.4393 18.6828 10
      vertex 38.931 19.0521 10
    endloop
  endfacet
  facet normal -0.587784 -0.809018 -0
    outer loop
      vertex 39.4393 18.6828 10
      vertex 38.931 19.0521 -10
      vertex 39.4393 18.6828 -10
    endloop
  endfacet
  facet normal -0.553414 -0.832906 0
    outer loop
      vertex 39.4393 18.6828 -10
      vertex 39.9626 18.3351 10
      vertex 39.4393 18.6828 10
    endloop
  endfacet
  facet normal -0.553414 -0.832906 -0
    outer loop
      vertex 39.9626 18.3351 10
      vertex 39.4393 18.6828 -10
      vertex 39.9626 18.3351 -10
    endloop
  endfacet
  facet normal -0.518072 -0.855337 0
    outer loop
      vertex 39.9626 18.3351 -10
      vertex 40.5 18.0096 10
      vertex 39.9626 18.3351 10
    endloop
  endfacet
  facet normal -0.518072 -0.855337 -0
    outer loop
      vertex 40.5 18.0096 10
      vertex 39.9626 18.3351 -10
      vertex 40.5 18.0096 -10
    endloop
  endfacet
  facet normal -0.48176 -0.876303 0
    outer loop
      vertex 40.5 18.0096 -10
      vertex 41.0506 17.7069 10
      vertex 40.5 18.0096 10
    endloop
  endfacet
  facet normal -0.48176 -0.876303 -0
    outer loop
      vertex 41.0506 17.7069 10
      vertex 40.5 18.0096 -10
      vertex 41.0506 17.7069 -10
    endloop
  endfacet
  facet normal -0.444601 -0.895729 0
    outer loop
      vertex 41.0506 17.7069 -10
      vertex 41.6133 17.4276 10
      vertex 41.0506 17.7069 10
    endloop
  endfacet
  facet normal -0.444601 -0.895729 -0
    outer loop
      vertex 41.6133 17.4276 10
      vertex 41.0506 17.7069 -10
      vertex 41.6133 17.4276 -10
    endloop
  endfacet
  facet normal -0.406655 -0.913582 0
    outer loop
      vertex 41.6133 17.4276 -10
      vertex 42.1873 17.1721 10
      vertex 41.6133 17.4276 10
    endloop
  endfacet
  facet normal -0.406655 -0.913582 -0
    outer loop
      vertex 42.1873 17.1721 10
      vertex 41.6133 17.4276 -10
      vertex 42.1873 17.1721 -10
    endloop
  endfacet
  facet normal -0.368177 -0.929756 0
    outer loop
      vertex 42.1873 17.1721 -10
      vertex 42.7714 16.9408 10
      vertex 42.1873 17.1721 10
    endloop
  endfacet
  facet normal -0.368177 -0.929756 -0
    outer loop
      vertex 42.7714 16.9408 10
      vertex 42.1873 17.1721 -10
      vertex 42.7714 16.9408 -10
    endloop
  endfacet
  facet normal -0.328854 -0.944381 0
    outer loop
      vertex 42.7714 16.9408 -10
      vertex 43.3647 16.7342 10
      vertex 42.7714 16.9408 10
    endloop
  endfacet
  facet normal -0.328854 -0.944381 -0
    outer loop
      vertex 43.3647 16.7342 10
      vertex 42.7714 16.9408 -10
      vertex 43.3647 16.7342 -10
    endloop
  endfacet
  facet normal -0.289027 -0.957321 0
    outer loop
      vertex 43.3647 16.7342 -10
      vertex 43.9662 16.5526 10
      vertex 43.3647 16.7342 10
    endloop
  endfacet
  facet normal -0.289027 -0.957321 -0
    outer loop
      vertex 43.9662 16.5526 10
      vertex 43.3647 16.7342 -10
      vertex 43.9662 16.5526 -10
    endloop
  endfacet
  facet normal -0.248785 -0.968559 0
    outer loop
      vertex 43.9662 16.5526 -10
      vertex 44.5747 16.3963 10
      vertex 43.9662 16.5526 10
    endloop
  endfacet
  facet normal -0.248785 -0.968559 -0
    outer loop
      vertex 44.5747 16.3963 10
      vertex 43.9662 16.5526 -10
      vertex 44.5747 16.3963 -10
    endloop
  endfacet
  facet normal -0.207855 -0.97816 0
    outer loop
      vertex 44.5747 16.3963 -10
      vertex 45.1893 16.2657 10
      vertex 44.5747 16.3963 10
    endloop
  endfacet
  facet normal -0.207855 -0.97816 -0
    outer loop
      vertex 45.1893 16.2657 10
      vertex 44.5747 16.3963 -10
      vertex 45.1893 16.2657 -10
    endloop
  endfacet
  facet normal -0.166799 -0.985991 0
    outer loop
      vertex 45.1893 16.2657 -10
      vertex 45.8088 16.1609 10
      vertex 45.1893 16.2657 10
    endloop
  endfacet
  facet normal -0.166799 -0.985991 -0
    outer loop
      vertex 45.8088 16.1609 10
      vertex 45.1893 16.2657 -10
      vertex 45.8088 16.1609 -10
    endloop
  endfacet
  facet normal -0.125269 -0.992123 0
    outer loop
      vertex 45.8088 16.1609 -10
      vertex 46.4321 16.0822 10
      vertex 45.8088 16.1609 10
    endloop
  endfacet
  facet normal -0.125269 -0.992123 -0
    outer loop
      vertex 46.4321 16.0822 10
      vertex 45.8088 16.1609 -10
      vertex 46.4321 16.0822 -10
    endloop
  endfacet
  facet normal -0.0837305 -0.996488 0
    outer loop
      vertex 46.4321 16.0822 -10
      vertex 47.0581 16.0296 10
      vertex 46.4321 16.0822 10
    endloop
  endfacet
  facet normal -0.0837305 -0.996488 -0
    outer loop
      vertex 47.0581 16.0296 10
      vertex 46.4321 16.0822 -10
      vertex 47.0581 16.0296 -10
    endloop
  endfacet
  facet normal -0.0418556 -0.999124 0
    outer loop
      vertex 47.0581 16.0296 -10
      vertex 47.6859 16.0033 10
      vertex 47.0581 16.0296 10
    endloop
  endfacet
  facet normal -0.0418556 -0.999124 -0
    outer loop
      vertex 47.6859 16.0033 10
      vertex 47.0581 16.0296 -10
      vertex 47.6859 16.0033 -10
    endloop
  endfacet
  facet normal 0 -1 0
    outer loop
      vertex 47.6859 16.0033 -10
      vertex 48.3141 16.0033 10
      vertex 47.6859 16.0033 10
    endloop
  endfacet
  facet normal 0 -1 -0
    outer loop
      vertex 48.3141 16.0033 10
      vertex 47.6859 16.0033 -10
      vertex 48.3141 16.0033 -10
    endloop
  endfacet
  facet normal 0.0418556 -0.999124 0
    outer loop
      vertex 48.3141 16.0033 -10
      vertex 48.9419 16.0296 10
      vertex 48.3141 16.0033 10
    endloop
  endfacet
  facet normal 0.0418556 -0.999124 0
    outer loop
      vertex 48.9419 16.0296 10
      vertex 48.3141 16.0033 -10
      vertex 48.9419 16.0296 -10
    endloop
  endfacet
  facet normal 0.0837305 -0.996488 0
    outer loop
      vertex 48.9419 16.0296 -10
      vertex 49.5679 16.0822 10
      vertex 48.9419 16.0296 10
    endloop
  endfacet
  facet normal 0.0837305 -0.996488 0
    outer loop
      vertex 49.5679 16.0822 10
      vertex 48.9419 16.0296 -10
      vertex 49.5679 16.0822 -10
    endloop
  endfacet
  facet normal 0.125269 -0.992123 0
    outer loop
      vertex 49.5679 16.0822 -10
      vertex 50.1912 16.1609 10
      vertex 49.5679 16.0822 10
    endloop
  endfacet
  facet normal 0.125269 -0.992123 0
    outer loop
      vertex 50.1912 16.1609 10
      vertex 49.5679 16.0822 -10
      vertex 50.1912 16.1609 -10
    endloop
  endfacet
  facet normal 0.166799 -0.985991 0
    outer loop
      vertex 50.1912 16.1609 -10
      vertex 50.8107 16.2657 10
      vertex 50.1912 16.1609 10
    endloop
  endfacet
  facet normal 0.166799 -0.985991 0
    outer loop
      vertex 50.8107 16.2657 10
      vertex 50.1912 16.1609 -10
      vertex 50.8107 16.2657 -10
    endloop
  endfacet
  facet normal 0.207855 -0.97816 0
    outer loop
      vertex 50.8107 16.2657 -10
      vertex 51.4253 16.3963 10
      vertex 50.8107 16.2657 10
    endloop
  endfacet
  facet normal 0.207855 -0.97816 0
    outer loop
      vertex 51.4253 16.3963 10
      vertex 50.8107 16.2657 -10
      vertex 51.4253 16.3963 -10
    endloop
  endfacet
  facet normal 0.248785 -0.968559 0
    outer loop
      vertex 51.4253 16.3963 -10
      vertex 52.0338 16.5526 10
      vertex 51.4253 16.3963 10
    endloop
  endfacet
  facet normal 0.248785 -0.968559 0
    outer loop
      vertex 52.0338 16.5526 10
      vertex 51.4253 16.3963 -10
      vertex 52.0338 16.5526 -10
    endloop
  endfacet
  facet normal 0.289027 -0.957321 0
    outer loop
      vertex 52.0338 16.5526 -10
      vertex 52.6353 16.7342 10
      vertex 52.0338 16.5526 10
    endloop
  endfacet
  facet normal 0.289027 -0.957321 0
    outer loop
      vertex 52.6353 16.7342 10
      vertex 52.0338 16.5526 -10
      vertex 52.6353 16.7342 -10
    endloop
  endfacet
  facet normal 0.328854 -0.944381 0
    outer loop
      vertex 52.6353 16.7342 -10
      vertex 53.2286 16.9408 10
      vertex 52.6353 16.7342 10
    endloop
  endfacet
  facet normal 0.328854 -0.944381 0
    outer loop
      vertex 53.2286 16.9408 10
      vertex 52.6353 16.7342 -10
      vertex 53.2286 16.9408 -10
    endloop
  endfacet
  facet normal 0.368177 -0.929756 0
    outer loop
      vertex 53.2286 16.9408 -10
      vertex 53.8127 17.1721 10
      vertex 53.2286 16.9408 10
    endloop
  endfacet
  facet normal 0.368177 -0.929756 0
    outer loop
      vertex 53.8127 17.1721 10
      vertex 53.2286 16.9408 -10
      vertex 53.8127 17.1721 -10
    endloop
  endfacet
  facet normal 0.406655 -0.913582 0
    outer loop
      vertex 53.8127 17.1721 -10
      vertex 54.3867 17.4276 10
      vertex 53.8127 17.1721 10
    endloop
  endfacet
  facet normal 0.406655 -0.913582 0
    outer loop
      vertex 54.3867 17.4276 10
      vertex 53.8127 17.1721 -10
      vertex 54.3867 17.4276 -10
    endloop
  endfacet
  facet normal 0.444601 -0.895729 0
    outer loop
      vertex 54.3867 17.4276 -10
      vertex 54.9494 17.7069 10
      vertex 54.3867 17.4276 10
    endloop
  endfacet
  facet normal 0.444601 -0.895729 0
    outer loop
      vertex 54.9494 17.7069 10
      vertex 54.3867 17.4276 -10
      vertex 54.9494 17.7069 -10
    endloop
  endfacet
  facet normal 0.48176 -0.876303 0
    outer loop
      vertex 54.9494 17.7069 -10
      vertex 55.5 18.0096 10
      vertex 54.9494 17.7069 10
    endloop
  endfacet
  facet normal 0.48176 -0.876303 0
    outer loop
      vertex 55.5 18.0096 10
      vertex 54.9494 17.7069 -10
      vertex 55.5 18.0096 -10
    endloop
  endfacet
  facet normal 0.518072 -0.855337 0
    outer loop
      vertex 55.5 18.0096 -10
      vertex 56.0374 18.3351 10
      vertex 55.5 18.0096 10
    endloop
  endfacet
  facet normal 0.518072 -0.855337 0
    outer loop
      vertex 56.0374 18.3351 10
      vertex 55.5 18.0096 -10
      vertex 56.0374 18.3351 -10
    endloop
  endfacet
  facet normal 0.553414 -0.832906 0
    outer loop
      vertex 56.0374 18.3351 -10
      vertex 56.5607 18.6828 10
      vertex 56.0374 18.3351 10
    endloop
  endfacet
  facet normal 0.553414 -0.832906 0
    outer loop
      vertex 56.5607 18.6828 10
      vertex 56.0374 18.3351 -10
      vertex 56.5607 18.6828 -10
    endloop
  endfacet
  facet normal 0.587784 -0.809018 0
    outer loop
      vertex 56.5607 18.6828 -10
      vertex 57.069 19.0521 10
      vertex 56.5607 18.6828 10
    endloop
  endfacet
  facet normal 0.587784 -0.809018 0
    outer loop
      vertex 57.069 19.0521 10
      vertex 56.5607 18.6828 -10
      vertex 57.069 19.0521 -10
    endloop
  endfacet
  facet normal 0.621078 -0.783749 0
    outer loop
      vertex 57.069 19.0521 -10
      vertex 57.5614 19.4423 10
      vertex 57.069 19.0521 10
    endloop
  endfacet
  facet normal 0.621078 -0.783749 0
    outer loop
      vertex 57.5614 19.4423 10
      vertex 57.069 19.0521 -10
      vertex 57.5614 19.4423 -10
    endloop
  endfacet
  facet normal 0.653396 -0.757016 0
    outer loop
      vertex 57.5614 19.4423 -10
      vertex 58.037 19.8528 10
      vertex 57.5614 19.4423 10
    endloop
  endfacet
  facet normal 0.653396 -0.757016 0
    outer loop
      vertex 58.037 19.8528 10
      vertex 57.5614 19.4423 -10
      vertex 58.037 19.8528 -10
    endloop
  endfacet
  facet normal 0.684634 -0.728887 0
    outer loop
      vertex 58.037 19.8528 -10
      vertex 58.4949 20.2829 10
      vertex 58.037 19.8528 10
    endloop
  endfacet
  facet normal 0.684634 -0.728887 0
    outer loop
      vertex 58.4949 20.2829 10
      vertex 58.037 19.8528 -10
      vertex 58.4949 20.2829 -10
    endloop
  endfacet
  facet normal 0.714469 -0.699667 0
    outer loop
      vertex 58.4949 20.2829 10
      vertex 58.9345 20.7318 -10
      vertex 58.9345 20.7318 10
    endloop
  endfacet
  facet normal 0.714469 -0.699667 0
    outer loop
      vertex 58.9345 20.7318 -10
      vertex 58.4949 20.2829 10
      vertex 58.4949 20.2829 -10
    endloop
  endfacet
  facet normal 0.743144 -0.669132 0
    outer loop
      vertex 58.9345 20.7318 10
      vertex 59.3549 21.1987 -10
      vertex 59.3549 21.1987 10
    endloop
  endfacet
  facet normal 0.743144 -0.669132 0
    outer loop
      vertex 59.3549 21.1987 -10
      vertex 58.9345 20.7318 10
      vertex 58.9345 20.7318 -10
    endloop
  endfacet
  facet normal 0.770499 -0.637441 0
    outer loop
      vertex 59.3549 21.1987 10
      vertex 59.7554 21.6828 -10
      vertex 59.7554 21.6828 10
    endloop
  endfacet
  facet normal 0.770499 -0.637441 0
    outer loop
      vertex 59.7554 21.6828 -10
      vertex 59.3549 21.1987 10
      vertex 59.3549 21.1987 -10
    endloop
  endfacet
  facet normal 0.796472 -0.604676 0
    outer loop
      vertex 59.7554 21.6828 10
      vertex 60.1353 22.1832 -10
      vertex 60.1353 22.1832 10
    endloop
  endfacet
  facet normal 0.796472 -0.604676 0
    outer loop
      vertex 60.1353 22.1832 -10
      vertex 59.7554 21.6828 10
      vertex 59.7554 21.6828 -10
    endloop
  endfacet
  facet normal 0.821194 -0.570649 0
    outer loop
      vertex 60.1353 22.1832 10
      vertex 60.4938 22.6991 -10
      vertex 60.4938 22.6991 10
    endloop
  endfacet
  facet normal 0.821194 -0.570649 0
    outer loop
      vertex 60.4938 22.6991 -10
      vertex 60.1353 22.1832 10
      vertex 60.1353 22.1832 -10
    endloop
  endfacet
  facet normal 0.844303 -0.535866 0
    outer loop
      vertex 60.4938 22.6991 10
      vertex 60.8305 23.2296 -10
      vertex 60.8305 23.2296 10
    endloop
  endfacet
  facet normal 0.844303 -0.535866 0
    outer loop
      vertex 60.8305 23.2296 -10
      vertex 60.4938 22.6991 10
      vertex 60.4938 22.6991 -10
    endloop
  endfacet
  facet normal 0.86605 -0.499957 0
    outer loop
      vertex 60.8305 23.2296 10
      vertex 61.1446 23.7737 -10
      vertex 61.1446 23.7737 10
    endloop
  endfacet
  facet normal 0.86605 -0.499957 0
    outer loop
      vertex 61.1446 23.7737 -10
      vertex 60.8305 23.2296 10
      vertex 60.8305 23.2296 -10
    endloop
  endfacet
  facet normal 0.886196 -0.463311 0
    outer loop
      vertex 61.1446 23.7737 10
      vertex 61.4357 24.3305 -10
      vertex 61.4357 24.3305 10
    endloop
  endfacet
  facet normal 0.886196 -0.463311 0
    outer loop
      vertex 61.4357 24.3305 -10
      vertex 61.1446 23.7737 10
      vertex 61.1446 23.7737 -10
    endloop
  endfacet
  facet normal 0.904837 -0.425759 0
    outer loop
      vertex 61.4357 24.3305 10
      vertex 61.7032 24.899 -10
      vertex 61.7032 24.899 10
    endloop
  endfacet
  facet normal 0.904837 -0.425759 0
    outer loop
      vertex 61.7032 24.899 -10
      vertex 61.4357 24.3305 10
      vertex 61.4357 24.3305 -10
    endloop
  endfacet
  facet normal 0.921881 -0.387473 0
    outer loop
      vertex 61.7032 24.899 10
      vertex 61.9466 25.4781 -10
      vertex 61.9466 25.4781 10
    endloop
  endfacet
  facet normal 0.921881 -0.387473 0
    outer loop
      vertex 61.9466 25.4781 -10
      vertex 61.7032 24.899 10
      vertex 61.7032 24.899 -10
    endloop
  endfacet
  facet normal 0.937287 -0.348558 0
    outer loop
      vertex 61.9466 25.4781 10
      vertex 62.1656 26.067 -10
      vertex 62.1656 26.067 10
    endloop
  endfacet
  facet normal 0.937287 -0.348558 0
    outer loop
      vertex 62.1656 26.067 -10
      vertex 61.9466 25.4781 10
      vertex 61.9466 25.4781 -10
    endloop
  endfacet
  facet normal 0.951028 -0.309104 0
    outer loop
      vertex 62.1656 26.067 10
      vertex 62.3598 26.6645 -10
      vertex 62.3598 26.6645 10
    endloop
  endfacet
  facet normal 0.951028 -0.309104 0
    outer loop
      vertex 62.3598 26.6645 -10
      vertex 62.1656 26.067 10
      vertex 62.1656 26.067 -10
    endloop
  endfacet
  facet normal 0.963193 -0.268809 0
    outer loop
      vertex 62.3598 26.6645 10
      vertex 62.5287 27.2697 -10
      vertex 62.5287 27.2697 10
    endloop
  endfacet
  facet normal 0.963193 -0.268809 0
    outer loop
      vertex 62.5287 27.2697 -10
      vertex 62.3598 26.6645 10
      vertex 62.3598 26.6645 -10
    endloop
  endfacet
  facet normal 0.973561 -0.228427 0
    outer loop
      vertex 62.5287 27.2697 10
      vertex 62.6722 27.8813 -10
      vertex 62.6722 27.8813 10
    endloop
  endfacet
  facet normal 0.973561 -0.228427 0
    outer loop
      vertex 62.6722 27.8813 -10
      vertex 62.5287 27.2697 10
      vertex 62.5287 27.2697 -10
    endloop
  endfacet
  facet normal 0.982298 -0.187324 0
    outer loop
      vertex 62.6722 27.8813 10
      vertex 62.7899 28.4985 -10
      vertex 62.7899 28.4985 10
    endloop
  endfacet
  facet normal 0.982298 -0.187324 0
    outer loop
      vertex 62.7899 28.4985 -10
      vertex 62.6722 27.8813 10
      vertex 62.6722 27.8813 -10
    endloop
  endfacet
  facet normal 0.989267 -0.146122 0
    outer loop
      vertex 62.7899 28.4985 10
      vertex 62.8817 29.12 -10
      vertex 62.8817 29.12 10
    endloop
  endfacet
  facet normal 0.989267 -0.146122 0
    outer loop
      vertex 62.8817 29.12 -10
      vertex 62.7899 28.4985 10
      vertex 62.7899 28.4985 -10
    endloop
  endfacet
  facet normal 0.994517 -0.104577 0
    outer loop
      vertex 62.8817 29.12 10
      vertex 62.9474 29.7448 -10
      vertex 62.9474 29.7448 10
    endloop
  endfacet
  facet normal 0.994517 -0.104577 0
    outer loop
      vertex 62.9474 29.7448 -10
      vertex 62.8817 29.12 10
      vertex 62.8817 29.12 -10
    endloop
  endfacet
  facet normal 0.998032 -0.0627053 0
    outer loop
      vertex 62.9474 29.7448 10
      vertex 62.9868 30.3719 -10
      vertex 62.9868 30.3719 10
    endloop
  endfacet
  facet normal 0.998032 -0.0627053 0
    outer loop
      vertex 62.9868 30.3719 -10
      vertex 62.9474 29.7448 10
      vertex 62.9474 29.7448 -10
    endloop
  endfacet
  facet normal 0.999779 -0.0210111 0
    outer loop
      vertex 62.9868 30.3719 10
      vertex 63 31 -10
      vertex 63 31 10
    endloop
  endfacet
  facet normal 0.999779 -0.0210111 0
    outer loop
      vertex 63 31 -10
      vertex 62.9868 30.3719 10
      vertex 62.9868 30.3719 -10
    endloop
  endfacet
  facet normal 0 0 -1
    outer loop
      vertex 62.9868 30.3719 -10
      vertex 62.9868 31.6281 -10
      vertex 63 31 -10
    endloop
  endfacet
  facet normal 0 0 -1
    outer loop
      vertex 62.9474 29.7448 -10
      vertex 62.9868 31.6281 -10
      vertex 62.9868 30.3719 -10
    endloop
  endfacet
  facet normal 0 0 -1
    outer loop
      vertex 62.9474 29.7448 -10
      vertex 62.9474 32.2552 -10
      vertex 62.9868 31.6281 -10
    endloop
  endfacet
  facet normal 0 0 -1
    outer loop
      vertex 62.8817 29.12 -10
      vertex 62.9474 32.2552 -10
      vertex 62.9474 29.7448 -10
    endloop
  endfacet
  facet normal 0 0 -1
    outer loop
      vertex 62.8817 29.12 -10
      vertex 62.8817 32.88 -10
      vertex 62.9474 32.2552 -10
    endloop
  endfacet
  facet normal 0 0 -1
    outer loop
      vertex 62.7899 28.4985 -10
      vertex 62.8817 32.88 -10
      vertex 62.8817 29.12 -10
    endloop
  endfacet
  facet normal 0 0 -1
    outer loop
      vertex 62.7899 28.4985 -10
      vertex 62.7899 33.5015 -10
      vertex 62.8817 32.88 -10
    endloop
  endfacet
  facet normal 0 0 -1
    outer loop
      vertex 62.6722 27.8813 -10
      vertex 62.7899 33.5015 -10
      vertex 62.7899 28.4985 -10
    endloop
  endfacet
  facet normal 0 0 -1
    outer loop
      vertex 62.6722 27.8813 -10
      vertex 62.6722 34.1187 -10
      vertex 62.7899 33.5015 -10
    endloop
  endfacet
  facet normal 0 0 -1
    outer loop
      vertex 62.5287 27.2697 -10
      vertex 62.6722 34.1187 -10
      vertex 62.6722 27.8813 -10
    endloop
  endfacet
  facet normal 0 0 -1
    outer loop
      vertex 62.5287 27.2697 -10
      vertex 62.5287 34.7303 -10
      vertex 62.6722 34.1187 -10
    endloop
  endfacet
  facet normal 0 0 -1
    outer loop
      vertex 62.3598 26.6645 -10
      vertex 62.5287 34.7303 -10
      vertex 62.5287 27.2697 -10
    endloop
  endfacet
  facet normal 0 0 -1
    outer loop
      vertex 62.3598 26.6645 -10
      vertex 62.3598 35.3355 -10
      vertex 62.5287 34.7303 -10
    endloop
  endfacet
  facet normal 0 0 -1
    outer loop
      vertex 62.1656 26.067 -10
      vertex 62.3598 35.3355 -10
      vertex 62.3598 26.6645 -10
    endloop
  endfacet
  facet normal 0 0 -1
    outer loop
      vertex 62.1656 26.067 -10
      vertex 62.1656 35.933 -10
      vertex 62.3598 35.3355 -10
    endloop
  endfacet
  facet normal 0 0 -1
    outer loop
      vertex 61.9466 25.4781 -10
      vertex 62.1656 35.933 -10
      vertex 62.1656 26.067 -10
    endloop
  endfacet
  facet normal 0 0 -1
    outer loop
      vertex 61.9466 25.4781 -10
      vertex 61.9466 36.5219 -10
      vertex 62.1656 35.933 -10
    endloop
  endfacet
  facet normal 0 0 -1
    outer loop
      vertex 61.7032 24.899 -10
      vertex 61.9466 36.5219 -10
      vertex 61.9466 25.4781 -10
    endloop
  endfacet
  facet normal 0 0 -1
    outer loop
      vertex 61.7032 24.899 -10
      vertex 61.7032 37.1011 -10
      vertex 61.9466 36.5219 -10
    endloop
  endfacet
  facet normal 0 0 -1
    outer loop
      vertex 61.4357 24.3305 -10
      vertex 61.7032 37.1011 -10
      vertex 61.7032 24.899 -10
    endloop
  endfacet
  facet normal 0 0 -1
    outer loop
      vertex 61.4357 24.3305 -10
      vertex 61.4357 37.6695 -10
      vertex 61.7032 37.1011 -10
    endloop
  endfacet
  facet normal 0 0 -1
    outer loop
      vertex 61.1446 23.7737 -10
      vertex 61.4357 37.6695 -10
      vertex 61.4357 24.3305 -10
    endloop
  endfacet
  facet normal 0 0 -1
    outer loop
      vertex 61.1446 23.7737 -10
      vertex 61.1446 38.2263 -10
      vertex 61.4357 37.6695 -10
    endloop
  endfacet
  facet normal 0 0 -1
    outer loop
      vertex 60.8305 23.2296 -10
      vertex 61.1446 38.2263 -10
      vertex 61.1446 23.7737 -10
    endloop
  endfacet
  facet normal 0 0 -1
    outer loop
      vertex 60.8305 23.2296 -10
      vertex 60.8305 38.7704 -10
      vertex 61.1446 38.2263 -10
    endloop
  endfacet
  facet normal 0 0 -1
    outer loop
      vertex 60.4938 22.6991 -10
      vertex 60.8305 38.7704 -10
      vertex 60.8305 23.2296 -10
    endloop
  endfacet
  facet normal 0 0 -1
    outer loop
      vertex 60.4938 22.6991 -10
      vertex 60.4938 39.3009 -10
      vertex 60.8305 38.7704 -10
    endloop
  endfacet
  facet normal 0 0 -1
    outer loop
      vertex 60.1353 22.1832 -10
      vertex 60.4938 39.3009 -10
      vertex 60.4938 22.6991 -10
    endloop
  endfacet
  facet normal 0 0 -1
    outer loop
      vertex 60.1353 22.1832 -10
      vertex 60.1353 39.8168 -10
      vertex 60.4938 39.3009 -10
    endloop
  endfacet
  facet normal 0 0 -1
    outer loop
      vertex 59.7554 21.6828 -10
      vertex 60.1353 39.8168 -10
      vertex 60.1353 22.1832 -10
    endloop
  endfacet
  facet normal 0 0 -1
    outer loop
      vertex 59.7554 21.6828 -10
      vertex 59.7554 40.3172 -10
      vertex 60.1353 39.8168 -10
    endloop
  endfacet
  facet normal 0 0 -1
    outer loop
      vertex 59.3549 21.1987 -10
      vertex 59.7554 40.3172 -10
      vertex 59.7554 21.6828 -10
    endloop
  endfacet
  facet normal 0 0 -1
    outer loop
      vertex 59.3549 21.1987 -10
      vertex 59.3549 40.8013 -10
      vertex 59.7554 40.3172 -10
    endloop
  endfacet
  facet normal 0 0 -1
    outer loop
      vertex 58.9345 20.7318 -10
      vertex 59.3549 40.8013 -10
      vertex 59.3549 21.1987 -10
    endloop
  endfacet
  facet normal 0 0 -1
    outer loop
      vertex 58.9345 20.7318 -10
      vertex 58.9345 41.2682 -10
      vertex 59.3549 40.8013 -10
    endloop
  endfacet
  facet normal 0 0 -1
    outer loop
      vertex 58.4949 20.2829 -10
      vertex 58.9345 41.2682 -10
      vertex 58.9345 20.7318 -10
    endloop
  endfacet
  facet normal 0 0 -1
    outer loop
      vertex 58.4949 20.2829 -10
      vertex 58.4949 41.7171 -10
      vertex 58.9345 41.2682 -10
    endloop
  endfacet
  facet normal 0 0 -1
    outer loop
      vertex 58.037 19.8528 -10
      vertex 58.4949 41.7171 -10
      vertex 58.4949 20.2829 -10
    endloop
  endfacet
  facet normal 0 0 -1
    outer loop
      vertex 58.037 19.8528 -10
      vertex 58.037 42.1472 -10
      vertex 58.4949 41.7171 -10
    endloop
  endfacet
  facet normal 0 0 -1
    outer loop
      vertex 57.5614 19.4423 -10
      vertex 58.037 42.1472 -10
      vertex 58.037 19.8528 -10
    endloop
  endfacet
  facet normal 0 0 -1
    outer loop
      vertex 57.5614 19.4423 -10
      vertex 57.5614 42.5577 -10
      vertex 58.037 42.1472 -10
    endloop
  endfacet
  facet normal 0 0 -1
    outer loop
      vertex 57.069 19.0521 -10
      vertex 57.5614 42.5577 -10
      vertex 57.5614 19.4423 -10
    endloop
  endfacet
  facet normal 0 0 -1
    outer loop
      vertex 57.069 19.0521 -10
      vertex 57.069 42.9479 -10
      vertex 57.5614 42.5577 -10
    endloop
  endfacet
  facet normal 0 0 -1
    outer loop
      vertex 56.5607 18.6828 -10
      vertex 57.069 42.9479 -10
      vertex 57.069 19.0521 -10
    endloop
  endfacet
  facet normal 0 0 -1
    outer loop
      vertex 56.5607 18.6828 -10
      vertex 56.5607 43.3172 -10
      vertex 57.069 42.9479 -10
    endloop
  endfacet
  facet normal 0 0 -1
    outer loop
      vertex 56.0374 18.3351 -10
      vertex 56.5607 43.3172 -10
      vertex 56.5607 18.6828 -10
    endloop
  endfacet
  facet normal 0 0 -1
    outer loop
      vertex 56.0374 18.3351 -10
      vertex 56.0374 43.6649 -10
      vertex 56.5607 43.3172 -10
    endloop
  endfacet
  facet normal 0 0 -1
    outer loop
      vertex 55.5 18.0096 -10
      vertex 56.0374 43.6649 -10
      vertex 56.0374 18.3351 -10
    endloop
  endfacet
  facet normal 0 0 -1
    outer loop
      vertex 55.5 18.0096 -10
      vertex 55.5 43.9904 -10
      vertex 56.0374 43.6649 -10
    endloop
  endfacet
  facet normal 0 0 -1
    outer loop
      vertex 54.9494 17.7069 -10
      vertex 55.5 43.9904 -10
      vertex 55.5 18.0096 -10
    endloop
  endfacet
  facet normal 0 0 -1
    outer loop
      vertex 54.9494 17.7069 -10
      vertex 54.9494 44.2931 -10
      vertex 55.5 43.9904 -10
    endloop
  endfacet
  facet normal 0 0 -1
    outer loop
      vertex 54.3867 17.4276 -10
      vertex 54.9494 44.2931 -10
      vertex 54.9494 17.7069 -10
    endloop
  endfacet
  facet normal 0 0 -1
    outer loop
      vertex 54.3867 17.4276 -10
      vertex 54.3867 44.5724 -10
      vertex 54.9494 44.2931 -10
    endloop
  endfacet
  facet normal 0 0 -1
    outer loop
      vertex 53.8127 17.1721 -10
      vertex 54.3867 44.5724 -10
      vertex 54.3867 17.4276 -10
    endloop
  endfacet
  facet normal 0 0 -1
    outer loop
      vertex 53.8127 17.1721 -10
      vertex 53.8127 44.8279 -10
      vertex 54.3867 44.5724 -10
    endloop
  endfacet
  facet normal 0 0 -1
    outer loop
      vertex 53.2286 16.9408 -10
      vertex 53.8127 44.8279 -10
      vertex 53.8127 17.1721 -10
    endloop
  endfacet
  facet normal 0 0 -1
    outer loop
      vertex 53.2286 16.9408 -10
      vertex 53.2286 45.0592 -10
      vertex 53.8127 44.8279 -10
    endloop
  endfacet
  facet normal 0 0 -1
    outer loop
      vertex 52.6353 16.7342 -10
      vertex 53.2286 45.0592 -10
      vertex 53.2286 16.9408 -10
    endloop
  endfacet
  facet normal 0 0 -1
    outer loop
      vertex 52.6353 16.7342 -10
      vertex 52.6353 45.2658 -10
      vertex 53.2286 45.0592 -10
    endloop
  endfacet
  facet normal 0 0 -1
    outer loop
      vertex 52.0338 16.5526 -10
      vertex 52.6353 45.2658 -10
      vertex 52.6353 16.7342 -10
    endloop
  endfacet
  facet normal 0 0 -1
    outer loop
      vertex 52.0338 16.5526 -10
      vertex 52.0338 45.4474 -10
      vertex 52.6353 45.2658 -10
    endloop
  endfacet
  facet normal 0 0 -1
    outer loop
      vertex 51.4253 16.3963 -10
      vertex 52.0338 45.4474 -10
      vertex 52.0338 16.5526 -10
    endloop
  endfacet
  facet normal 0 0 -1
    outer loop
      vertex 51.4253 16.3963 -10
      vertex 51.4253 45.6037 -10
      vertex 52.0338 45.4474 -10
    endloop
  endfacet
  facet normal 0 0 -1
    outer loop
      vertex 50.8107 16.2657 -10
      vertex 51.4253 45.6037 -10
      vertex 51.4253 16.3963 -10
    endloop
  endfacet
  facet normal 0 0 -1
    outer loop
      vertex 50.8107 16.2657 -10
      vertex 50.8107 45.7343 -10
      vertex 51.4253 45.6037 -10
    endloop
  endfacet
  facet normal 0 0 -1
    outer loop
      vertex 50.1912 16.1609 -10
      vertex 50.8107 45.7343 -10
      vertex 50.8107 16.2657 -10
    endloop
  endfacet
  facet normal 0 0 -1
    outer loop
      vertex 50.1912 16.1609 -10
      vertex 50.1912 45.8391 -10
      vertex 50.8107 45.7343 -10
    endloop
  endfacet
  facet normal 0 0 -1
    outer loop
      vertex 49.5679 16.0822 -10
      vertex 50.1912 45.8391 -10
      vertex 50.1912 16.1609 -10
    endloop
  endfacet
  facet normal 0 0 -1
    outer loop
      vertex 49.5679 16.0822 -10
      vertex 49.5679 45.9178 -10
      vertex 50.1912 45.8391 -10
    endloop
  endfacet
  facet normal 0 0 -1
    outer loop
      vertex 48.9419 16.0296 -10
      vertex 49.5679 45.9178 -10
      vertex 49.5679 16.0822 -10
    endloop
  endfacet
  facet normal 0 0 -1
    outer loop
      vertex 48.9419 16.0296 -10
      vertex 48.9419 45.9704 -10
      vertex 49.5679 45.9178 -10
    endloop
  endfacet
  facet normal 0 0 -1
    outer loop
      vertex 48.3141 16.0033 -10
      vertex 48.9419 45.9704 -10
      vertex 48.9419 16.0296 -10
    endloop
  endfacet
  facet normal 0 0 -1
    outer loop
      vertex 48.3141 16.0033 -10
      vertex 48.3141 45.9967 -10
      vertex 48.9419 45.9704 -10
    endloop
  endfacet
  facet normal 0 0 -1
    outer loop
      vertex 47.6859 16.0033 -10
      vertex 48.3141 45.9967 -10
      vertex 48.3141 16.0033 -10
    endloop
  endfacet
  facet normal 0 0 -1
    outer loop
      vertex 47.6859 16.0033 -10
      vertex 47.6859 45.9967 -10
      vertex 48.3141 45.9967 -10
    endloop
  endfacet
  facet normal 0 0 -1
    outer loop
      vertex 47.0581 16.0296 -10
      vertex 47.6859 45.9967 -10
      vertex 47.6859 16.0033 -10
    endloop
  endfacet
  facet normal 0 0 -1
    outer loop
      vertex 47.0581 16.0296 -10
      vertex 47.0581 45.9704 -10
      vertex 47.6859 45.9967 -10
    endloop
  endfacet
  facet normal 0 0 -1
    outer loop
      vertex 46.4321 16.0822 -10
      vertex 47.0581 45.9704 -10
      vertex 47.0581 16.0296 -10
    endloop
  endfacet
  facet normal 0 0 -1
    outer loop
      vertex 46.4321 16.0822 -10
      vertex 46.4321 45.9178 -10
      vertex 47.0581 45.9704 -10
    endloop
  endfacet
  facet normal 0 0 -1
    outer loop
      vertex 45.8088 16.1609 -10
      vertex 46.4321 45.9178 -10
      vertex 46.4321 16.0822 -10
    endloop
  endfacet
  facet normal 0 0 -1
    outer loop
      vertex 45.8088 16.1609 -10
      vertex 45.8088 45.8391 -10
      vertex 46.4321 45.9178 -10
    endloop
  endfacet
  facet normal 0 0 -1
    outer loop
      vertex 45.1893 16.2657 -10
      vertex 45.8088 45.8391 -10
      vertex 45.8088 16.1609 -10
    endloop
  endfacet
  facet normal 0 0 -1
    outer loop
      vertex 45.1893 16.2657 -10
      vertex 45.1893 45.7343 -10
      vertex 45.8088 45.8391 -10
    endloop
  endfacet
  facet normal 0 0 -1
    outer loop
      vertex 44.5747 16.3963 -10
      vertex 45.1893 45.7343 -10
      vertex 45.1893 16.2657 -10
    endloop
  endfacet
  facet normal 0 0 -1
    outer loop
      vertex 44.5747 16.3963 -10
      vertex 44.5747 45.6037 -10
      vertex 45.1893 45.7343 -10
    endloop
  endfacet
  facet normal 0 0 -1
    outer loop
      vertex 43.9662 16.5526 -10
      vertex 44.5747 45.6037 -10
      vertex 44.5747 16.3963 -10
    endloop
  endfacet
  facet normal 0 0 -1
    outer loop
      vertex 43.9662 16.5526 -10
      vertex 43.9662 45.4474 -10
      vertex 44.5747 45.6037 -10
    endloop
  endfacet
  facet normal 0 0 -1
    outer loop
      vertex 43.3647 16.7342 -10
      vertex 43.9662 45.4474 -10
      vertex 43.9662 16.5526 -10
    endloop
  endfacet
  facet normal 0 0 -1
    outer loop
      vertex 43.3647 16.7342 -10
      vertex 43.3647 45.2658 -10
      vertex 43.9662 45.4474 -10
    endloop
  endfacet
  facet normal 0 0 -1
    outer loop
      vertex 42.7714 16.9408 -10
      vertex 43.3647 45.2658 -10
      vertex 43.3647 16.7342 -10
    endloop
  endfacet
  facet normal 0 0 -1
    outer loop
      vertex 42.7714 16.9408 -10
      vertex 42.7714 45.0592 -10
      vertex 43.3647 45.2658 -10
    endloop
  endfacet
  facet normal 0 0 -1
    outer loop
      vertex 42.1873 17.1721 -10
      vertex 42.7714 45.0592 -10
      vertex 42.7714 16.9408 -10
    endloop
  endfacet
  facet normal 0 0 -1
    outer loop
      vertex 42.1873 17.1721 -10
      vertex 42.1873 44.8279 -10
      vertex 42.7714 45.0592 -10
    endloop
  endfacet
  facet normal 0 0 -1
    outer loop
      vertex 41.6133 17.4276 -10
      vertex 42.1873 44.8279 -10
      vertex 42.1873 17.1721 -10
    endloop
  endfacet
  facet normal 0 0 -1
    outer loop
      vertex 41.6133 17.4276 -10
      vertex 41.6133 44.5724 -10
      vertex 42.1873 44.8279 -10
    endloop
  endfacet
  facet normal 0 0 -1
    outer loop
      vertex 41.0506 17.7069 -10
      vertex 41.6133 44.5724 -10
      vertex 41.6133 17.4276 -10
    endloop
  endfacet
  facet normal 0 0 -1
    outer loop
      vertex 41.0506 17.7069 -10
      vertex 41.0506 44.2931 -10
      vertex 41.6133 44.5724 -10
    endloop
  endfacet
  facet normal 0 0 -1
    outer loop
      vertex 40.5 18.0096 -10
      vertex 41.0506 44.2931 -10
      vertex 41.0506 17.7069 -10
    endloop
  endfacet
  facet normal 0 0 -1
    outer loop
      vertex 40.5 18.0096 -10
      vertex 40.5 43.9904 -10
      vertex 41.0506 44.2931 -10
    endloop
  endfacet
  facet normal 0 0 -1
    outer loop
      vertex 39.9626 18.3351 -10
      vertex 40.5 43.9904 -10
      vertex 40.5 18.0096 -10
    endloop
  endfacet
  facet normal 0 0 -1
    outer loop
      vertex 39.9626 18.3351 -10
      vertex 39.9626 43.6649 -10
      vertex 40.5 43.9904 -10
    endloop
  endfacet
  facet normal 0 0 -1
    outer loop
      vertex 39.4393 18.6828 -10
      vertex 39.9626 43.6649 -10
      vertex 39.9626 18.3351 -10
    endloop
  endfacet
  facet normal 0 0 -1
    outer loop
      vertex 39.4393 18.6828 -10
      vertex 39.4393 43.3172 -10
      vertex 39.9626 43.6649 -10
    endloop
  endfacet
  facet normal 0 0 -1
    outer loop
      vertex 38.931 19.0521 -10
      vertex 39.4393 43.3172 -10
      vertex 39.4393 18.6828 -10
    endloop
  endfacet
  facet normal 0 0 -1
    outer loop
      vertex 38.931 19.0521 -10
      vertex 38.931 42.9479 -10
      vertex 39.4393 43.3172 -10
    endloop
  endfacet
  facet normal 0 0 -1
    outer loop
      vertex 38.4386 19.4423 -10
      vertex 38.931 42.9479 -10
      vertex 38.931 19.0521 -10
    endloop
  endfacet
  facet normal 0 0 -1
    outer loop
      vertex 38.4386 19.4423 -10
      vertex 38.4386 42.5577 -10
      vertex 38.931 42.9479 -10
    endloop
  endfacet
  facet normal 0 0 -1
    outer loop
      vertex 37.963 19.8528 -10
      vertex 38.4386 42.5577 -10
      vertex 38.4386 19.4423 -10
    endloop
  endfacet
  facet normal 0 0 -1
    outer loop
      vertex 37.963 19.8528 -10
      vertex 37.963 42.1472 -10
      vertex 38.4386 42.5577 -10
    endloop
  endfacet
  facet normal 0 0 -1
    outer loop
      vertex 37.5051 20.2829 -10
      vertex 37.963 42.1472 -10
      vertex 37.963 19.8528 -10
    endloop
  endfacet
  facet normal 0 0 -1
    outer loop
      vertex 37.5051 20.2829 -10
      vertex 37.5051 41.7171 -10
      vertex 37.963 42.1472 -10
    endloop
  endfacet
  facet normal 0 0 -1
    outer loop
      vertex 37.0655 20.7318 -10
      vertex 37.5051 41.7171 -10
      vertex 37.5051 20.2829 -10
    endloop
  endfacet
  facet normal 0 0 -1
    outer loop
      vertex 37.0655 20.7318 -10
      vertex 37.0655 41.2682 -10
      vertex 37.5051 41.7171 -10
    endloop
  endfacet
  facet normal 0 0 -1
    outer loop
      vertex 36.6451 21.1987 -10
      vertex 37.0655 41.2682 -10
      vertex 37.0655 20.7318 -10
    endloop
  endfacet
  facet normal 0 0 -1
    outer loop
      vertex 36.6451 21.1987 -10
      vertex 36.6451 40.8013 -10
      vertex 37.0655 41.2682 -10
    endloop
  endfacet
  facet normal 0 0 -1
    outer loop
      vertex 36.2446 21.6828 -10
      vertex 36.6451 40.8013 -10
      vertex 36.6451 21.1987 -10
    endloop
  endfacet
  facet normal 0 0 -1
    outer loop
      vertex 36.2446 21.6828 -10
      vertex 36.2446 40.3172 -10
      vertex 36.6451 40.8013 -10
    endloop
  endfacet
  facet normal 0 0 -1
    outer loop
      vertex 35.8647 22.1832 -10
      vertex 36.2446 40.3172 -10
      vertex 36.2446 21.6828 -10
    endloop
  endfacet
  facet normal 0 0 -1
    outer loop
      vertex 35.8647 22.1832 -10
      vertex 35.8647 39.8168 -10
      vertex 36.2446 40.3172 -10
    endloop
  endfacet
  facet normal 0 0 -1
    outer loop
      vertex 35.5062 22.6991 -10
      vertex 35.8647 39.8168 -10
      vertex 35.8647 22.1832 -10
    endloop
  endfacet
  facet normal 0 0 -1
    outer loop
      vertex 35.5062 22.6991 -10
      vertex 35.5062 39.3009 -10
      vertex 35.8647 39.8168 -10
    endloop
  endfacet
  facet normal 0 0 -1
    outer loop
      vertex 35.1695 23.2296 -10
      vertex 35.5062 39.3009 -10
      vertex 35.5062 22.6991 -10
    endloop
  endfacet
  facet normal 0 0 -1
    outer loop
      vertex 35.1695 23.2296 -10
      vertex 35.1695 38.7704 -10
      vertex 35.5062 39.3009 -10
    endloop
  endfacet
  facet normal 0 0 -1
    outer loop
      vertex 34.8554 23.7737 -10
      vertex 35.1695 38.7704 -10
      vertex 35.1695 23.2296 -10
    endloop
  endfacet
  facet normal 0 0 -1
    outer loop
      vertex 34.8554 23.7737 -10
      vertex 34.8554 38.2263 -10
      vertex 35.1695 38.7704 -10
    endloop
  endfacet
  facet normal 0 0 -1
    outer loop
      vertex 34.5643 24.3305 -10
      vertex 34.8554 38.2263 -10
      vertex 34.8554 23.7737 -10
    endloop
  endfacet
  facet normal 0 0 -1
    outer loop
      vertex 34.5643 24.3305 -10
      vertex 34.5643 37.6695 -10
      vertex 34.8554 38.2263 -10
    endloop
  endfacet
  facet normal 0 0 -1
    outer loop
      vertex 34.2968 24.899 -10
      vertex 34.5643 37.6695 -10
      vertex 34.5643 24.3305 -10
    endloop
  endfacet
  facet normal 0 0 -1
    outer loop
      vertex 34.2968 24.899 -10
      vertex 34.2968 37.1011 -10
      vertex 34.5643 37.6695 -10
    endloop
  endfacet
  facet normal 0 0 -1
    outer loop
      vertex 34.0534 25.4781 -10
      vertex 34.2968 37.1011 -10
      vertex 34.2968 24.899 -10
    endloop
  endfacet
  facet normal 0 0 -1
    outer loop
      vertex 34.0534 25.4781 -10
      vertex 34.0534 36.5219 -10
      vertex 34.2968 37.1011 -10
    endloop
  endfacet
  facet normal 0 0 -1
    outer loop
      vertex 33.8344 26.067 -10
      vertex 34.0534 36.5219 -10
      vertex 34.0534 25.4781 -10
    endloop
  endfacet
  facet normal 0 0 -1
    outer loop
      vertex 33.8344 26.067 -10
      vertex 33.8344 35.933 -10
      vertex 34.0534 36.5219 -10
    endloop
  endfacet
  facet normal 0 0 -1
    outer loop
      vertex 33.6402 26.6645 -10
      vertex 33.8344 35.933 -10
      vertex 33.8344 26.067 -10
    endloop
  endfacet
  facet normal 0 0 -1
    outer loop
      vertex 33.6402 26.6645 -10
      vertex 33.6402 35.3355 -10
      vertex 33.8344 35.933 -10
    endloop
  endfacet
  facet normal 0 0 -1
    outer loop
      vertex 33.4713 27.2697 -10
      vertex 33.6402 35.3355 -10
      vertex 33.6402 26.6645 -10
    endloop
  endfacet
  facet normal 0 0 -1
    outer loop
      vertex 33.4713 27.2697 -10
      vertex 33.4713 34.7303 -10
      vertex 33.6402 35.3355 -10
    endloop
  endfacet
  facet normal 0 0 -1
    outer loop
      vertex 33.3278 27.8813 -10
      vertex 33.4713 34.7303 -10
      vertex 33.4713 27.2697 -10
    endloop
  endfacet
  facet normal 0 0 -1
    outer loop
      vertex 33.3278 27.8813 -10
      vertex 33.3278 34.1187 -10
      vertex 33.4713 34.7303 -10
    endloop
  endfacet
  facet normal 0 0 -1
    outer loop
      vertex 33.2101 28.4985 -10
      vertex 33.3278 34.1187 -10
      vertex 33.3278 27.8813 -10
    endloop
  endfacet
  facet normal 0 0 -1
    outer loop
      vertex 33.2101 28.4985 -10
      vertex 33.2101 33.5015 -10
      vertex 33.3278 34.1187 -10
    endloop
  endfacet
  facet normal 0 0 -1
    outer loop
      vertex 33.1183 29.12 -10
      vertex 33.2101 33.5015 -10
      vertex 33.2101 28.4985 -10
    endloop
  endfacet
  facet normal 0 0 -1
    outer loop
      vertex 33.1183 29.12 -10
      vertex 33.1183 32.88 -10
      vertex 33.2101 33.5015 -10
    endloop
  endfacet
  facet normal 0 0 -1
    outer loop
      vertex 33.0526 29.7448 -10
      vertex 33.1183 32.88 -10
      vertex 33.1183 29.12 -10
    endloop
  endfacet
  facet normal 0 0 -1
    outer loop
      vertex 33.0526 29.7448 -10
      vertex 33.0526 32.2552 -10
      vertex 33.1183 32.88 -10
    endloop
  endfacet
  facet normal 0 0 -1
    outer loop
      vertex 33.0132 30.3719 -10
      vertex 33.0526 32.2552 -10
      vertex 33.0526 29.7448 -10
    endloop
  endfacet
  facet normal 0 0 -1
    outer loop
      vertex 33.0132 30.3719 -10
      vertex 33.0132 31.6281 -10
      vertex 33.0526 32.2552 -10
    endloop
  endfacet
  facet normal 0 -0 -1
    outer loop
      vertex 33.0132 31.6281 -10
      vertex 33.0132 30.3719 -10
      vertex 33 31 -10
    endloop
  endfacet
  facet normal 0 0 1
    outer loop
      vertex 62.9868 31.6281 10
      vertex 62.9868 30.3719 10
      vertex 63 31 10
    endloop
  endfacet
  facet normal 0 0 1
    outer loop
      vertex 62.9474 32.2552 10
      vertex 62.9868 30.3719 10
      vertex 62.9868 31.6281 10
    endloop
  endfacet
  facet normal 0 0 1
    outer loop
      vertex 62.9474 32.2552 10
      vertex 62.9474 29.7448 10
      vertex 62.9868 30.3719 10
    endloop
  endfacet
  facet normal 0 0 1
    outer loop
      vertex 62.8817 32.88 10
      vertex 62.9474 29.7448 10
      vertex 62.9474 32.2552 10
    endloop
  endfacet
  facet normal 0 0 1
    outer loop
      vertex 62.8817 32.88 10
      vertex 62.8817 29.12 10
      vertex 62.9474 29.7448 10
    endloop
  endfacet
  facet normal 0 0 1
    outer loop
      vertex 62.7899 33.5015 10
      vertex 62.8817 29.12 10
      vertex 62.8817 32.88 10
    endloop
  endfacet
  facet normal 0 0 1
    outer loop
      vertex 62.7899 33.5015 10
      vertex 62.7899 28.4985 10
      vertex 62.8817 29.12 10
    endloop
  endfacet
  facet normal 0 0 1
    outer loop
      vertex 62.6722 34.1187 10
      vertex 62.7899 28.4985 10
      vertex 62.7899 33.5015 10
    endloop
  endfacet
  facet normal 0 0 1
    outer loop
      vertex 62.6722 34.1187 10
      vertex 62.6722 27.8813 10
      vertex 62.7899 28.4985 10
    endloop
  endfacet
  facet normal 0 0 1
    outer loop
      vertex 62.5287 34.7303 10
      vertex 62.6722 27.8813 10
      vertex 62.6722 34.1187 10
    endloop
  endfacet
  facet normal 0 0 1
    outer loop
      vertex 62.5287 34.7303 10
      vertex 62.5287 27.2697 10
      vertex 62.6722 27.8813 10
    endloop
  endfacet
  facet normal 0 0 1
    outer loop
      vertex 62.3598 35.3355 10
      vertex 62.5287 27.2697 10
      vertex 62.5287 34.7303 10
    endloop
  endfacet
  facet normal 0 0 1
    outer loop
      vertex 62.3598 35.3355 10
      vertex 62.3598 26.6645 10
      vertex 62.5287 27.2697 10
    endloop
  endfacet
  facet normal 0 0 1
    outer loop
      vertex 62.1656 35.933 10
      vertex 62.3598 26.6645 10
      vertex 62.3598 35.3355 10
    endloop
  endfacet
  facet normal 0 0 1
    outer loop
      vertex 62.1656 35.933 10
      vertex 62.1656 26.067 10
      vertex 62.3598 26.6645 10
    endloop
  endfacet
  facet normal 0 0 1
    outer loop
      vertex 61.9466 36.5219 10
      vertex 62.1656 26.067 10
      vertex 62.1656 35.933 10
    endloop
  endfacet
  facet normal 0 0 1
    outer loop
      vertex 61.9466 36.5219 10
      vertex 61.9466 25.4781 10
      vertex 62.1656 26.067 10
    endloop
  endfacet
  facet normal 0 0 1
    outer loop
      vertex 61.7032 37.1011 10
      vertex 61.9466 25.4781 10
      vertex 61.9466 36.5219 10
    endloop
  endfacet
  facet normal 0 0 1
    outer loop
      vertex 61.7032 37.1011 10
      vertex 61.7032 24.899 10
      vertex 61.9466 25.4781 10
    endloop
  endfacet
  facet normal 0 0 1
    outer loop
      vertex 61.4357 37.6695 10
      vertex 61.7032 24.899 10
      vertex 61.7032 37.1011 10
    endloop
  endfacet
  facet normal 0 0 1
    outer loop
      vertex 61.4357 37.6695 10
      vertex 61.4357 24.3305 10
      vertex 61.7032 24.899 10
    endloop
  endfacet
  facet normal 0 0 1
    outer loop
      vertex 61.1446 38.2263 10
      vertex 61.4357 24.3305 10
      vertex 61.4357 37.6695 10
    endloop
  endfacet
  facet normal 0 0 1
    outer loop
      vertex 61.1446 38.2263 10
      vertex 61.1446 23.7737 10
      vertex 61.4357 24.3305 10
    endloop
  endfacet
  facet normal 0 0 1
    outer loop
      vertex 60.8305 38.7704 10
      vertex 61.1446 23.7737 10
      vertex 61.1446 38.2263 10
    endloop
  endfacet
  facet normal 0 0 1
    outer loop
      vertex 60.8305 38.7704 10
      vertex 60.8305 23.2296 10
      vertex 61.1446 23.7737 10
    endloop
  endfacet
  facet normal 0 0 1
    outer loop
      vertex 60.4938 39.3009 10
      vertex 60.8305 23.2296 10
      vertex 60.8305 38.7704 10
    endloop
  endfacet
  facet normal 0 0 1
    outer loop
      vertex 60.4938 39.3009 10
      vertex 60.4938 22.6991 10
      vertex 60.8305 23.2296 10
    endloop
  endfacet
  facet normal 0 0 1
    outer loop
      vertex 60.1353 39.8168 10
      vertex 60.4938 22.6991 10
      vertex 60.4938 39.3009 10
    endloop
  endfacet
  facet normal 0 0 1
    outer loop
      vertex 60.1353 39.8168 10
      vertex 60.1353 22.1832 10
      vertex 60.4938 22.6991 10
    endloop
  endfacet
  facet normal 0 0 1
    outer loop
      vertex 59.7554 40.3172 10
      vertex 60.1353 22.1832 10
      vertex 60.1353 39.8168 10
    endloop
  endfacet
  facet normal 0 0 1
    outer loop
      vertex 59.7554 40.3172 10
      vertex 59.7554 21.6828 10
      vertex 60.1353 22.1832 10
    endloop
  endfacet
  facet normal 0 0 1
    outer loop
      vertex 59.3549 40.8013 10
      vertex 59.7554 21.6828 10
      vertex 59.7554 40.3172 10
    endloop
  endfacet
  facet normal 0 0 1
    outer loop
      vertex 59.3549 40.8013 10
      vertex 59.3549 21.1987 10
      vertex 59.7554 21.6828 10
    endloop
  endfacet
  facet normal 0 0 1
    outer loop
      vertex 58.9345 41.2682 10
      vertex 59.3549 21.1987 10
      vertex 59.3549 40.8013 10
    endloop
  endfacet
  facet normal 0 0 1
    outer loop
      vertex 58.9345 41.2682 10
      vertex 58.9345 20.7318 10
      vertex 59.3549 21.1987 10
    endloop
  endfacet
  facet normal 0 0 1
    outer loop
      vertex 58.4949 41.7171 10
      vertex 58.9345 20.7318 10
      vertex 58.9345 41.2682 10
    endloop
  endfacet
  facet normal 0 0 1
    outer loop
      vertex 58.4949 41.7171 10
      vertex 58.4949 20.2829 10
      vertex 58.9345 20.7318 10
    endloop
  endfacet
  facet normal 0 0 1
    outer loop
      vertex 58.037 42.1472 10
      vertex 58.4949 20.2829 10
      vertex 58.4949 41.7171 10
    endloop
  endfacet
  facet normal 0 0 1
    outer loop
      vertex 58.037 42.1472 10
      vertex 58.037 19.8528 10
      vertex 58.4949 20.2829 10
    endloop
  endfacet
  facet normal 0 0 1
    outer loop
      vertex 57.5614 42.5577 10
      vertex 58.037 19.8528 10
      vertex 58.037 42.1472 10
    endloop
  endfacet
  facet normal 0 0 1
    outer loop
      vertex 57.5614 42.5577 10
      vertex 57.5614 19.4423 10
      vertex 58.037 19.8528 10
    endloop
  endfacet
  facet normal 0 0 1
    outer loop
      vertex 57.069 42.9479 10
      vertex 57.5614 19.4423 10
      vertex 57.5614 42.5577 10
    endloop
  endfacet
  facet normal 0 0 1
    outer loop
      vertex 57.069 42.9479 10
      vertex 57.069 19.0521 10
      vertex 57.5614 19.4423 10
    endloop
  endfacet
  facet normal 0 0 1
    outer loop
      vertex 56.5607 43.3172 10
      vertex 57.069 19.0521 10
      vertex 57.069 42.9479 10
    endloop
  endfacet
  facet normal 0 0 1
    outer loop
      vertex 56.5607 43.3172 10
      vertex 56.5607 18.6828 10
      vertex 57.069 19.0521 10
    endloop
  endfacet
  facet normal 0 0 1
    outer loop
      vertex 56.0374 43.6649 10
      vertex 56.5607 18.6828 10
      vertex 56.5607 43.3172 10
    endloop
  endfacet
  facet normal 0 0 1
    outer loop
      vertex 56.0374 43.6649 10
      vertex 56.0374 18.3351 10
      vertex 56.5607 18.6828 10
    endloop
  endfacet
  facet normal 0 0 1
    outer loop
      vertex 55.5 43.9904 10
      vertex 56.0374 18.3351 10
      vertex 56.0374 43.6649 10
    endloop
  endfacet
  facet normal 0 0 1
    outer loop
      vertex 55.5 43.9904 10
      vertex 55.5 18.0096 10
      vertex 56.0374 18.3351 10
    endloop
  endfacet
  facet normal 0 0 1
    outer loop
      vertex 54.9494 44.2931 10
      vertex 55.5 18.0096 10
      vertex 55.5 43.9904 10
    endloop
  endfacet
  facet normal 0 0 1
    outer loop
      vertex 54.9494 44.2931 10
      vertex 54.9494 17.7069 10
      vertex 55.5 18.0096 10
    endloop
  endfacet
  facet normal 0 0 1
    outer loop
      vertex 54.3867 44.5724 10
      vertex 54.9494 17.7069 10
      vertex 54.9494 44.2931 10
    endloop
  endfacet
  facet normal 0 0 1
    outer loop
      vertex 54.3867 44.5724 10
      vertex 54.3867 17.4276 10
      vertex 54.9494 17.7069 10
    endloop
  endfacet
  facet normal 0 0 1
    outer loop
      vertex 53.8127 44.8279 10
      vertex 54.3867 17.4276 10
      vertex 54.3867 44.5724 10
    endloop
  endfacet
  facet normal 0 0 1
    outer loop
      vertex 53.8127 44.8279 10
      vertex 53.8127 17.1721 10
      vertex 54.3867 17.4276 10
    endloop
  endfacet
  facet normal 0 0 1
    outer loop
      vertex 53.2286 45.0592 10
      vertex 53.8127 17.1721 10
      vertex 53.8127 44.8279 10
    endloop
  endfacet
  facet normal 0 0 1
    outer loop
      vertex 53.2286 45.0592 10
      vertex 53.2286 16.9408 10
      vertex 53.8127 17.1721 10
    endloop
  endfacet
  facet normal 0 0 1
    outer loop
      vertex 52.6353 45.2658 10
      vertex 53.2286 16.9408 10
      vertex 53.2286 45.0592 10
    endloop
  endfacet
  facet normal 0 0 1
    outer loop
      vertex 52.6353 45.2658 10
      vertex 52.6353 16.7342 10
      vertex 53.2286 16.9408 10
    endloop
  endfacet
  facet normal 0 0 1
    outer loop
      vertex 52.0338 45.4474 10
      vertex 52.6353 16.7342 10
      vertex 52.6353 45.2658 10
    endloop
  endfacet
  facet normal 0 0 1
    outer loop
      vertex 52.0338 45.4474 10
      vertex 52.0338 16.5526 10
      vertex 52.6353 16.7342 10
    endloop
  endfacet
  facet normal 0 0 1
    outer loop
      vertex 51.4253 45.6037 10
      vertex 52.0338 16.5526 10
      vertex 52.0338 45.4474 10
    endloop
  endfacet
  facet normal 0 0 1
    outer loop
      vertex 51.4253 45.6037 10
      vertex 51.4253 16.3963 10
      vertex 52.0338 16.5526 10
    endloop
  endfacet
  facet normal 0 0 1
    outer loop
      vertex 50.8107 45.7343 10
      vertex 51.4253 16.3963 10
      vertex 51.4253 45.6037 10
    endloop
  endfacet
  facet normal 0 0 1
    outer loop
      vertex 50.8107 45.7343 10
      vertex 50.8107 16.2657 10
      vertex 51.4253 16.3963 10
    endloop
  endfacet
  facet normal 0 0 1
    outer loop
      vertex 50.1912 45.8391 10
      vertex 50.8107 16.2657 10
      vertex 50.8107 45.7343 10
    endloop
  endfacet
  facet normal 0 0 1
    outer loop
      vertex 50.1912 45.8391 10
      vertex 50.1912 16.1609 10
      vertex 50.8107 16.2657 10
    endloop
  endfacet
  facet normal 0 0 1
    outer loop
      vertex 49.5679 45.9178 10
      vertex 50.1912 16.1609 10
      vertex 50.1912 45.8391 10
    endloop
  endfacet
  facet normal 0 0 1
    outer loop
      vertex 49.5679 45.9178 10
      vertex 49.5679 16.0822 10
      vertex 50.1912 16.1609 10
    endloop
  endfacet
  facet normal 0 0 1
    outer loop
      vertex 48.9419 45.9704 10
      vertex 49.5679 16.0822 10
      vertex 49.5679 45.9178 10
    endloop
  endfacet
  facet normal 0 0 1
    outer loop
      vertex 48.9419 45.9704 10
      vertex 48.9419 16.0296 10
      vertex 49.5679 16.0822 10
    endloop
  endfacet
  facet normal 0 0 1
    outer loop
      vertex 48.3141 45.9967 10
      vertex 48.9419 16.0296 10
      vertex 48.9419 45.9704 10
    endloop
  endfacet
  facet normal 0 0 1
    outer loop
      vertex 48.3141 45.9967 10
      vertex 48.3141 16.0033 10
      vertex 48.9419 16.0296 10
    endloop
  endfacet
  facet normal -0 0 1
    outer loop
      vertex 47.6859 45.9967 10
      vertex 48.3141 16.0033 10
      vertex 48.3141 45.9967 10
    endloop
  endfacet
  facet normal 0 0 1
    outer loop
      vertex 47.6859 45.9967 10
      vertex 47.6859 16.0033 10
      vertex 48.3141 16.0033 10
    endloop
  endfacet
  facet normal -0 0 1
    outer loop
      vertex 47.0581 45.9704 10
      vertex 47.6859 16.0033 10
      vertex 47.6859 45.9967 10
    endloop
  endfacet
  facet normal 0 0 1
    outer loop
      vertex 47.0581 45.9704 10
      vertex 47.0581 16.0296 10
      vertex 47.6859 16.0033 10
    endloop
  endfacet
  facet normal -0 0 1
    outer loop
      vertex 46.4321 45.9178 10
      vertex 47.0581 16.0296 10
      vertex 47.0581 45.9704 10
    endloop
  endfacet
  facet normal 0 0 1
    outer loop
      vertex 46.4321 45.9178 10
      vertex 46.4321 16.0822 10
      vertex 47.0581 16.0296 10
    endloop
  endfacet
  facet normal -0 0 1
    outer loop
      vertex 45.8088 45.8391 10
      vertex 46.4321 16.0822 10
      vertex 46.4321 45.9178 10
    endloop
  endfacet
  facet normal 0 0 1
    outer loop
      vertex 45.8088 45.8391 10
      vertex 45.8088 16.1609 10
      vertex 46.4321 16.0822 10
    endloop
  endfacet
  facet normal -0 0 1
    outer loop
      vertex 45.1893 45.7343 10
      vertex 45.8088 16.1609 10
      vertex 45.8088 45.8391 10
    endloop
  endfacet
  facet normal 0 0 1
    outer loop
      vertex 45.1893 45.7343 10
      vertex 45.1893 16.2657 10
      vertex 45.8088 16.1609 10
    endloop
  endfacet
  facet normal -0 0 1
    outer loop
      vertex 44.5747 45.6037 10
      vertex 45.1893 16.2657 10
      vertex 45.1893 45.7343 10
    endloop
  endfacet
  facet normal 0 0 1
    outer loop
      vertex 44.5747 45.6037 10
      vertex 44.5747 16.3963 10
      vertex 45.1893 16.2657 10
    endloop
  endfacet
  facet normal -0 0 1
    outer loop
      vertex 43.9662 45.4474 10
      vertex 44.5747 16.3963 10
      vertex 44.5747 45.6037 10
    endloop
  endfacet
  facet normal 0 0 1
    outer loop
      vertex 43.9662 45.4474 10
      vertex 43.9662 16.5526 10
      vertex 44.5747 16.3963 10
    endloop
  endfacet
  facet normal -0 0 1
    outer loop
      vertex 43.3647 45.2658 10
      vertex 43.9662 16.5526 10
      vertex 43.9662 45.4474 10
    endloop
  endfacet
  facet normal 0 0 1
    outer loop
      vertex 43.3647 45.2658 10
      vertex 43.3647 16.7342 10
      vertex 43.9662 16.5526 10
    endloop
  endfacet
  facet normal -0 0 1
    outer loop
      vertex 42.7714 45.0592 10
      vertex 43.3647 16.7342 10
      vertex 43.3647 45.2658 10
    endloop
  endfacet
  facet normal 0 0 1
    outer loop
      vertex 42.7714 45.0592 10
      vertex 42.7714 16.9408 10
      vertex 43.3647 16.7342 10
    endloop
  endfacet
  facet normal -0 0 1
    outer loop
      vertex 42.1873 44.8279 10
      vertex 42.7714 16.9408 10
      vertex 42.7714 45.0592 10
    endloop
  endfacet
  facet normal 0 0 1
    outer loop
      vertex 42.1873 44.8279 10
      vertex 42.1873 17.1721 10
      vertex 42.7714 16.9408 10
    endloop
  endfacet
  facet normal -0 0 1
    outer loop
      vertex 41.6133 44.5724 10
      vertex 42.1873 17.1721 10
      vertex 42.1873 44.8279 10
    endloop
  endfacet
  facet normal 0 0 1
    outer loop
      vertex 41.6133 44.5724 10
      vertex 41.6133 17.4276 10
      vertex 42.1873 17.1721 10
    endloop
  endfacet
  facet normal -0 0 1
    outer loop
      vertex 41.0506 44.2931 10
      vertex 41.6133 17.4276 10
      vertex 41.6133 44.5724 10
    endloop
  endfacet
  facet normal 0 0 1
    outer loop
      vertex 41.0506 44.2931 10
      vertex 41.0506 17.7069 10
      vertex 41.6133 17.4276 10
    endloop
  endfacet
  facet normal -0 0 1
    outer loop
      vertex 40.5 43.9904 10
      vertex 41.0506 17.7069 10
      vertex 41.0506 44.2931 10
    endloop
  endfacet
  facet normal 0 0 1
    outer loop
      vertex 40.5 43.9904 10
      vertex 40.5 18.0096 10
      vertex 41.0506 17.7069 10
    endloop
  endfacet
  facet normal -0 0 1
    outer loop
      vertex 39.9626 43.6649 10
      vertex 40.5 18.0096 10
      vertex 40.5 43.9904 10
    endloop
  endfacet
  facet normal 0 0 1
    outer loop
      vertex 39.9626 43.6649 10
      vertex 39.9626 18.3351 10
      vertex 40.5 18.0096 10
    endloop
  endfacet
  facet normal -0 0 1
    outer loop
      vertex 39.4393 43.3172 10
      vertex 39.9626 18.3351 10
      vertex 39.9626 43.6649 10
    endloop
  endfacet
  facet normal 0 0 1
    outer loop
      vertex 39.4393 43.3172 10
      vertex 39.4393 18.6828 10
      vertex 39.9626 18.3351 10
    endloop
  endfacet
  facet normal -0 0 1
    outer loop
      vertex 38.931 42.9479 10
      vertex 39.4393 18.6828 10
      vertex 39.4393 43.3172 10
    endloop
  endfacet
  facet normal 0 0 1
    outer loop
      vertex 38.931 42.9479 10
      vertex 38.931 19.0521 10
      vertex 39.4393 18.6828 10
    endloop
  endfacet
  facet normal -0 0 1
    outer loop
      vertex 38.4386 42.5577 10
      vertex 38.931 19.0521 10
      vertex 38.931 42.9479 10
    endloop
  endfacet
  facet normal 0 0 1
    outer loop
      vertex 38.4386 42.5577 10
      vertex 38.4386 19.4423 10
      vertex 38.931 19.0521 10
    endloop
  endfacet
  facet normal -0 0 1
    outer loop
      vertex 37.963 42.1472 10
      vertex 38.4386 19.4423 10
      vertex 38.4386 42.5577 10
    endloop
  endfacet
  facet normal 0 0 1
    outer loop
      vertex 37.963 42.1472 10
      vertex 37.963 19.8528 10
      vertex 38.4386 19.4423 10
    endloop
  endfacet
  facet normal -0 0 1
    outer loop
      vertex 37.5051 41.7171 10
      vertex 37.963 19.8528 10
      vertex 37.963 42.1472 10
    endloop
  endfacet
  facet normal 0 0 1
    outer loop
      vertex 37.5051 41.7171 10
      vertex 37.5051 20.2829 10
      vertex 37.963 19.8528 10
    endloop
  endfacet
  facet normal -0 0 1
    outer loop
      vertex 37.0655 41.2682 10
      vertex 37.5051 20.2829 10
      vertex 37.5051 41.7171 10
    endloop
  endfacet
  facet normal 0 0 1
    outer loop
      vertex 37.0655 41.2682 10
      vertex 37.0655 20.7318 10
      vertex 37.5051 20.2829 10
    endloop
  endfacet
  facet normal -0 0 1
    outer loop
      vertex 36.6451 40.8013 10
      vertex 37.0655 20.7318 10
      vertex 37.0655 41.2682 10
    endloop
  endfacet
  facet normal 0 0 1
    outer loop
      vertex 36.6451 40.8013 10
      vertex 36.6451 21.1987 10
      vertex 37.0655 20.7318 10
    endloop
  endfacet
  facet normal -0 0 1
    outer loop
      vertex 36.2446 40.3172 10
      vertex 36.6451 21.1987 10
      vertex 36.6451 40.8013 10
    endloop
  endfacet
  facet normal 0 0 1
    outer loop
      vertex 36.2446 40.3172 10
      vertex 36.2446 21.6828 10
      vertex 36.6451 21.1987 10
    endloop
  endfacet
  facet normal -0 0 1
    outer loop
      vertex 35.8647 39.8168 10
      vertex 36.2446 21.6828 10
      vertex 36.2446 40.3172 10
    endloop
  endfacet
  facet normal 0 0 1
    outer loop
      vertex 35.8647 39.8168 10
      vertex 35.8647 22.1832 10
      vertex 36.2446 21.6828 10
    endloop
  endfacet
  facet normal -0 0 1
    outer loop
      vertex 35.5062 39.3009 10
      vertex 35.8647 22.1832 10
      vertex 35.8647 39.8168 10
    endloop
  endfacet
  facet normal 0 0 1
    outer loop
      vertex 35.5062 39.3009 10
      vertex 35.5062 22.6991 10
      vertex 35.8647 22.1832 10
    endloop
  endfacet
  facet normal -0 0 1
    outer loop
      vertex 35.1695 38.7704 10
      vertex 35.5062 22.6991 10
      vertex 35.5062 39.3009 10
    endloop
  endfacet
  facet normal 0 0 1
    outer loop
      vertex 35.1695 38.7704 10
      vertex 35.1695 23.2296 10
      vertex 35.5062 22.6991 10
    endloop
  endfacet
  facet normal -0 0 1
    outer loop
      vertex 34.8554 38.2263 10
      vertex 35.1695 23.2296 10
      vertex 35.1695 38.7704 10
    endloop
  endfacet
  facet normal 0 0 1
    outer loop
      vertex 34.8554 38.2263 10
      vertex 34.8554 23.7737 10
      vertex 35.1695 23.2296 10
    endloop
  endfacet
  facet normal -0 0 1
    outer loop
      vertex 34.5643 37.6695 10
      vertex 34.8554 23.7737 10
      vertex 34.8554 38.2263 10
    endloop
  endfacet
  facet normal 0 0 1
    outer loop
      vertex 34.5643 37.6695 10
      vertex 34.5643 24.3305 10
      vertex 34.8554 23.7737 10
    endloop
  endfacet
  facet normal -0 0 1
    outer loop
      vertex 34.2968 37.1011 10
      vertex 34.5643 24.3305 10
      vertex 34.5643 37.6695 10
    endloop
  endfacet
  facet normal 0 0 1
    outer loop
      vertex 34.2968 37.1011 10
      vertex 34.2968 24.899 10
      vertex 34.5643 24.3305 10
    endloop
  endfacet
  facet normal -0 0 1
    outer loop
      vertex 34.0534 36.5219 10
      vertex 34.2968 24.899 10
      vertex 34.2968 37.1011 10
    endloop
  endfacet
  facet normal 0 0 1
    outer loop
      vertex 34.0534 36.5219 10
      vertex 34.0534 25.4781 10
      vertex 34.2968 24.899 10
    endloop
  endfacet
  facet normal -0 0 1
    outer loop
      vertex 33.8344 35.933 10
      vertex 34.0534 25.4781 10
      vertex 34.0534 36.5219 10
    endloop
  endfacet
  facet normal 0 0 1
    outer loop
      vertex 33.8344 35.933 10
      vertex 33.8344 26.067 10
      vertex 34.0534 25.4781 10
    endloop
  endfacet
  facet normal -0 0 1
    outer loop
      vertex 33.6402 35.3355 10
      vertex 33.8344 26.067 10
      vertex 33.8344 35.933 10
    endloop
  endfacet
  facet normal 0 0 1
    outer loop
      vertex 33.6402 35.3355 10
      vertex 33.6402 26.6645 10
      vertex 33.8344 26.067 10
    endloop
  endfacet
  facet normal -0 0 1
    outer loop
      vertex 33.4713 34.7303 10
      vertex 33.6402 26.6645 10
      vertex 33.6402 35.3355 10
    endloop
  endfacet
  facet normal 0 0 1
    outer loop
      vertex 33.4713 34.7303 10
      vertex 33.4713 27.2697 10
      vertex 33.6402 26.6645 10
    endloop
  endfacet
  facet normal -0 0 1
    outer loop
      vertex 33.3278 34.1187 10
      vertex 33.4713 27.2697 10
      vertex 33.4713 34.7303 10
    endloop
  endfacet
  facet normal 0 0 1
    outer loop
      vertex 33.3278 34.1187 10
      vertex 33.3278 27.8813 10
      vertex 33.4713 27.2697 10
    endloop
  endfacet
  facet normal -0 0 1
    outer loop
      vertex 33.2101 33.5015 10
      vertex 33.3278 27.8813 10
      vertex 33.3278 34.1187 10
    endloop
  endfacet
  facet normal 0 0 1
    outer loop
      vertex 33.2101 33.5015 10
      vertex 33.2101 28.4985 10
      vertex 33.3278 27.8813 10
    endloop
  endfacet
  facet normal -0 0 1
    outer loop
      vertex 33.1183 32.88 10
      vertex 33.2101 28.4985 10
      vertex 33.2101 33.5015 10
    endloop
  endfacet
  facet normal 0 0 1
    outer loop
      vertex 33.1183 32.88 10
      vertex 33.1183 29.12 10
      vertex 33.2101 28.4985 10
    endloop
  endfacet
  facet normal -0 0 1
    outer loop
      vertex 33.0526 32.2552 10
      vertex 33.1183 29.12 10
      vertex 33.1183 32.88 10
    endloop
  endfacet
  facet normal 0 0 1
    outer loop
      vertex 33.0526 32.2552 10
      vertex 33.0526 29.7448 10
      vertex 33.1183 29.12 10
    endloop
  endfacet
  facet normal -0 0 1
    outer loop
      vertex 33.0132 31.6281 10
      vertex 33.0526 29.7448 10
      vertex 33.0526 32.2552 10
    endloop
  endfacet
  facet normal 0 0 1
    outer loop
      vertex 33.0132 31.6281 10
      vertex 33.0132 30.3719 10
      vertex 33.0526 29.7448 10
    endloop
  endfacet
  facet normal 0 -0 1
    outer loop
      vertex 33.0132 30.3719 10
      vertex 33.0132 31.6281 10
      vertex 33 31 10
    endloop
  endfacet
endsolid OpenSCAD_Model
