solid OpenSCAD_Model
  facet normal 0.499949 0.0157115 0.865912
    outer loop
      vertex 158.347 9.96234 -5
      vertex 150 0 0
      vertex 158.66 0 -5
    endloop
  endfacet
  facet normal 0.499949 0.0157115 0.865912
    outer loop
      vertex 158.347 9.96234 -5
      vertex 149.704 9.41858 0
      vertex 150 0 0
    endloop
  endfacet
  facet normal 0.497976 0.0470726 0.865912
    outer loop
      vertex 157.409 19.8854 -5
      vertex 149.704 9.41858 0
      vertex 158.347 9.96234 -5
    endloop
  endfacet
  facet normal 0.497976 0.0470726 0.865912
    outer loop
      vertex 157.409 19.8854 -5
      vertex 148.817 18.8 0
      vertex 149.704 9.41858 0
    endloop
  endfacet
  facet normal 0.494038 0.0782479 0.865912
    outer loop
      vertex 155.85 29.7299 -5
      vertex 148.817 18.8 0
      vertex 157.409 19.8854 -5
    endloop
  endfacet
  facet normal 0.494038 0.0782479 0.865912
    outer loop
      vertex 155.85 29.7299 -5
      vertex 147.343 28.1072 0
      vertex 148.817 18.8 0
    endloop
  endfacet
  facet normal 0.48815 0.109114 0.865912
    outer loop
      vertex 153.675 39.4571 -5
      vertex 147.343 28.1072 0
      vertex 155.85 29.7299 -5
    endloop
  endfacet
  facet normal 0.48815 0.109114 0.865912
    outer loop
      vertex 153.675 39.4571 -5
      vertex 145.287 37.3035 0
      vertex 147.343 28.1072 0
    endloop
  endfacet
  facet normal 0.480335 0.13955 0.865912
    outer loop
      vertex 150.895 49.0286 -5
      vertex 145.287 37.3035 0
      vertex 153.675 39.4571 -5
    endloop
  endfacet
  facet normal 0.480335 0.13955 0.865912
    outer loop
      vertex 150.895 49.0286 -5
      vertex 142.658 46.3525 0
      vertex 145.287 37.3035 0
    endloop
  endfacet
  facet normal 0.470625 0.169435 0.865912
    outer loop
      vertex 147.518 58.4066 -5
      vertex 142.658 46.3525 0
      vertex 150.895 49.0286 -5
    endloop
  endfacet
  facet normal 0.470625 0.169435 0.865912
    outer loop
      vertex 147.518 58.4066 -5
      vertex 139.466 55.2187 0
      vertex 142.658 46.3525 0
    endloop
  endfacet
  facet normal 0.459057 0.198652 0.865912
    outer loop
      vertex 143.56 67.5541 -5
      vertex 139.466 55.2187 0
      vertex 147.518 58.4066 -5
    endloop
  endfacet
  facet normal 0.459057 0.198652 0.865912
    outer loop
      vertex 143.56 67.5541 -5
      vertex 135.724 63.8669 0
      vertex 139.466 55.2187 0
    endloop
  endfacet
  facet normal 0.445678 0.227084 0.865912
    outer loop
      vertex 139.035 76.435 -5
      vertex 135.724 63.8669 0
      vertex 143.56 67.5541 -5
    endloop
  endfacet
  facet normal 0.445678 0.227084 0.865912
    outer loop
      vertex 139.035 76.435 -5
      vertex 131.446 72.2631 0
      vertex 135.724 63.8669 0
    endloop
  endfacet
  facet normal 0.43054 0.254621 0.865912
    outer loop
      vertex 133.961 85.0143 -5
      vertex 131.446 72.2631 0
      vertex 139.035 76.435 -5
    endloop
  endfacet
  facet normal 0.43054 0.254621 0.865912
    outer loop
      vertex 133.961 85.0143 -5
      vertex 126.649 80.374 0
      vertex 131.446 72.2631 0
    endloop
  endfacet
  facet normal 0.413702 0.281152 0.865912
    outer loop
      vertex 128.359 93.258 -5
      vertex 126.649 80.374 0
      vertex 133.961 85.0143 -5
    endloop
  endfacet
  facet normal 0.413702 0.281152 0.865912
    outer loop
      vertex 128.359 93.258 -5
      vertex 121.353 88.1678 0
      vertex 126.649 80.374 0
    endloop
  endfacet
  facet normal 0.395232 0.306574 0.865912
    outer loop
      vertex 122.25 101.134 -5
      vertex 121.353 88.1678 0
      vertex 128.359 93.258 -5
    endloop
  endfacet
  facet normal 0.395232 0.306574 0.865912
    outer loop
      vertex 122.25 101.134 -5
      vertex 115.577 95.6136 0
      vertex 121.353 88.1678 0
    endloop
  endfacet
  facet normal 0.375203 0.330786 0.865912
    outer loop
      vertex 115.658 108.61 -5
      vertex 115.577 95.6136 0
      vertex 122.25 101.134 -5
    endloop
  endfacet
  facet normal 0.375203 0.330786 0.865912
    outer loop
      vertex 115.658 108.61 -5
      vertex 109.345 102.682 0
      vertex 115.577 95.6136 0
    endloop
  endfacet
  facet normal 0.353692 0.353692 0.865912
    outer loop
      vertex 108.61 115.658 -5
      vertex 109.345 102.682 0
      vertex 115.658 108.61 -5
    endloop
  endfacet
  facet normal 0.353692 0.353692 0.865912
    outer loop
      vertex 108.61 115.658 -5
      vertex 102.682 109.345 0
      vertex 109.345 102.682 0
    endloop
  endfacet
  facet normal 0.330786 0.375203 0.865912
    outer loop
      vertex 101.134 122.25 -5
      vertex 102.682 109.345 0
      vertex 108.61 115.658 -5
    endloop
  endfacet
  facet normal 0.330786 0.375203 0.865912
    outer loop
      vertex 101.134 122.25 -5
      vertex 95.6136 115.577 0
      vertex 102.682 109.345 0
    endloop
  endfacet
  facet normal 0.306574 0.395232 0.865912
    outer loop
      vertex 93.258 128.359 -5
      vertex 95.6136 115.577 0
      vertex 101.134 122.25 -5
    endloop
  endfacet
  facet normal 0.306574 0.395232 0.865912
    outer loop
      vertex 93.258 128.359 -5
      vertex 88.1678 121.353 0
      vertex 95.6136 115.577 0
    endloop
  endfacet
  facet normal 0.281152 0.413702 0.865912
    outer loop
      vertex 85.0143 133.961 -5
      vertex 88.1678 121.353 0
      vertex 93.258 128.359 -5
    endloop
  endfacet
  facet normal 0.281152 0.413702 0.865912
    outer loop
      vertex 85.0143 133.961 -5
      vertex 80.374 126.649 0
      vertex 88.1678 121.353 0
    endloop
  endfacet
  facet normal 0.254621 0.43054 0.865912
    outer loop
      vertex 76.435 139.035 -5
      vertex 80.374 126.649 0
      vertex 85.0143 133.961 -5
    endloop
  endfacet
  facet normal 0.254621 0.43054 0.865912
    outer loop
      vertex 76.435 139.035 -5
      vertex 72.2631 131.446 0
      vertex 80.374 126.649 0
    endloop
  endfacet
  facet normal 0.227084 0.445678 0.865912
    outer loop
      vertex 67.5541 143.56 -5
      vertex 72.2631 131.446 0
      vertex 76.435 139.035 -5
    endloop
  endfacet
  facet normal 0.227084 0.445678 0.865912
    outer loop
      vertex 67.5541 143.56 -5
      vertex 63.8669 135.724 0
      vertex 72.2631 131.446 0
    endloop
  endfacet
  facet normal 0.198652 0.459057 0.865912
    outer loop
      vertex 58.4066 147.518 -5
      vertex 63.8669 135.724 0
      vertex 67.5541 143.56 -5
    endloop
  endfacet
  facet normal 0.198652 0.459057 0.865912
    outer loop
      vertex 58.4066 147.518 -5
      vertex 55.2187 139.466 0
      vertex 63.8669 135.724 0
    endloop
  endfacet
  facet normal 0.169435 0.470625 0.865912
    outer loop
      vertex 49.0286 150.895 -5
      vertex 55.2187 139.466 0
      vertex 58.4066 147.518 -5
    endloop
  endfacet
  facet normal 0.169435 0.470625 0.865912
    outer loop
      vertex 49.0286 150.895 -5
      vertex 46.3525 142.658 0
      vertex 55.2187 139.466 0
    endloop
  endfacet
  facet normal 0.13955 0.480335 0.865912
    outer loop
      vertex 39.4571 153.675 -5
      vertex 46.3525 142.658 0
      vertex 49.0286 150.895 -5
    endloop
  endfacet
  facet normal 0.13955 0.480335 0.865912
    outer loop
      vertex 39.4571 153.675 -5
      vertex 37.3035 145.287 0
      vertex 46.3525 142.658 0
    endloop
  endfacet
  facet normal 0.109114 0.48815 0.865912
    outer loop
      vertex 29.7299 155.85 -5
      vertex 37.3035 145.287 0
      vertex 39.4571 153.675 -5
    endloop
  endfacet
  facet normal 0.109114 0.48815 0.865912
    outer loop
      vertex 29.7299 155.85 -5
      vertex 28.1072 147.343 0
      vertex 37.3035 145.287 0
    endloop
  endfacet
  facet normal 0.0782479 0.494038 0.865912
    outer loop
      vertex 19.8854 157.409 -5
      vertex 28.1072 147.343 0
      vertex 29.7299 155.85 -5
    endloop
  endfacet
  facet normal 0.0782479 0.494038 0.865912
    outer loop
      vertex 19.8854 157.409 -5
      vertex 18.8 148.817 0
      vertex 28.1072 147.343 0
    endloop
  endfacet
  facet normal 0.0470726 0.497976 0.865912
    outer loop
      vertex 9.96234 158.347 -5
      vertex 18.8 148.817 0
      vertex 19.8854 157.409 -5
    endloop
  endfacet
  facet normal 0.0470726 0.497976 0.865912
    outer loop
      vertex 9.96234 158.347 -5
      vertex 9.41858 149.704 0
      vertex 18.8 148.817 0
    endloop
  endfacet
  facet normal 0.0157115 0.499949 0.865912
    outer loop
      vertex 9.71512e-15 158.66 -5
      vertex 9.41858 149.704 0
      vertex 9.96234 158.347 -5
    endloop
  endfacet
  facet normal 0.0157115 0.499949 0.865912
    outer loop
      vertex 9.71512e-15 158.66 -5
      vertex 9.18485e-15 150 0
      vertex 9.41858 149.704 0
    endloop
  endfacet
  facet normal -0.0157115 0.499949 0.865912
    outer loop
      vertex -9.96234 158.347 -5
      vertex 9.18485e-15 150 0
      vertex 9.71512e-15 158.66 -5
    endloop
  endfacet
  facet normal -0.0157115 0.499949 0.865912
    outer loop
      vertex -9.96234 158.347 -5
      vertex -9.41858 149.704 0
      vertex 9.18485e-15 150 0
    endloop
  endfacet
  facet normal -0.0470726 0.497976 0.865912
    outer loop
      vertex -19.8854 157.409 -5
      vertex -9.41858 149.704 0
      vertex -9.96234 158.347 -5
    endloop
  endfacet
  facet normal -0.0470726 0.497976 0.865912
    outer loop
      vertex -19.8854 157.409 -5
      vertex -18.8 148.817 0
      vertex -9.41858 149.704 0
    endloop
  endfacet
  facet normal -0.0782479 0.494038 0.865912
    outer loop
      vertex -29.7299 155.85 -5
      vertex -18.8 148.817 0
      vertex -19.8854 157.409 -5
    endloop
  endfacet
  facet normal -0.0782479 0.494038 0.865912
    outer loop
      vertex -29.7299 155.85 -5
      vertex -28.1072 147.343 0
      vertex -18.8 148.817 0
    endloop
  endfacet
  facet normal -0.109114 0.48815 0.865912
    outer loop
      vertex -39.4571 153.675 -5
      vertex -28.1072 147.343 0
      vertex -29.7299 155.85 -5
    endloop
  endfacet
  facet normal -0.109114 0.48815 0.865912
    outer loop
      vertex -39.4571 153.675 -5
      vertex -37.3035 145.287 0
      vertex -28.1072 147.343 0
    endloop
  endfacet
  facet normal -0.13955 0.480335 0.865912
    outer loop
      vertex -49.0286 150.895 -5
      vertex -37.3035 145.287 0
      vertex -39.4571 153.675 -5
    endloop
  endfacet
  facet normal -0.13955 0.480335 0.865912
    outer loop
      vertex -49.0286 150.895 -5
      vertex -46.3525 142.658 0
      vertex -37.3035 145.287 0
    endloop
  endfacet
  facet normal -0.169435 0.470625 0.865912
    outer loop
      vertex -58.4066 147.518 -5
      vertex -46.3525 142.658 0
      vertex -49.0286 150.895 -5
    endloop
  endfacet
  facet normal -0.169435 0.470625 0.865912
    outer loop
      vertex -58.4066 147.518 -5
      vertex -55.2187 139.466 0
      vertex -46.3525 142.658 0
    endloop
  endfacet
  facet normal -0.198652 0.459057 0.865912
    outer loop
      vertex -67.5541 143.56 -5
      vertex -55.2187 139.466 0
      vertex -58.4066 147.518 -5
    endloop
  endfacet
  facet normal -0.198652 0.459057 0.865912
    outer loop
      vertex -67.5541 143.56 -5
      vertex -63.8669 135.724 0
      vertex -55.2187 139.466 0
    endloop
  endfacet
  facet normal -0.227084 0.445678 0.865912
    outer loop
      vertex -76.435 139.035 -5
      vertex -63.8669 135.724 0
      vertex -67.5541 143.56 -5
    endloop
  endfacet
  facet normal -0.227084 0.445678 0.865912
    outer loop
      vertex -76.435 139.035 -5
      vertex -72.2631 131.446 0
      vertex -63.8669 135.724 0
    endloop
  endfacet
  facet normal -0.254621 0.43054 0.865912
    outer loop
      vertex -85.0143 133.961 -5
      vertex -72.2631 131.446 0
      vertex -76.435 139.035 -5
    endloop
  endfacet
  facet normal -0.254621 0.43054 0.865912
    outer loop
      vertex -85.0143 133.961 -5
      vertex -80.374 126.649 0
      vertex -72.2631 131.446 0
    endloop
  endfacet
  facet normal -0.281152 0.413702 0.865912
    outer loop
      vertex -93.258 128.359 -5
      vertex -80.374 126.649 0
      vertex -85.0143 133.961 -5
    endloop
  endfacet
  facet normal -0.281152 0.413702 0.865912
    outer loop
      vertex -93.258 128.359 -5
      vertex -88.1678 121.353 0
      vertex -80.374 126.649 0
    endloop
  endfacet
  facet normal -0.306574 0.395232 0.865912
    outer loop
      vertex -101.134 122.25 -5
      vertex -88.1678 121.353 0
      vertex -93.258 128.359 -5
    endloop
  endfacet
  facet normal -0.306574 0.395232 0.865912
    outer loop
      vertex -101.134 122.25 -5
      vertex -95.6136 115.577 0
      vertex -88.1678 121.353 0
    endloop
  endfacet
  facet normal -0.330786 0.375203 0.865912
    outer loop
      vertex -108.61 115.658 -5
      vertex -95.6136 115.577 0
      vertex -101.134 122.25 -5
    endloop
  endfacet
  facet normal -0.330786 0.375203 0.865912
    outer loop
      vertex -108.61 115.658 -5
      vertex -102.682 109.345 0
      vertex -95.6136 115.577 0
    endloop
  endfacet
  facet normal -0.353692 0.353692 0.865912
    outer loop
      vertex -115.658 108.61 -5
      vertex -102.682 109.345 0
      vertex -108.61 115.658 -5
    endloop
  endfacet
  facet normal -0.353692 0.353692 0.865912
    outer loop
      vertex -115.658 108.61 -5
      vertex -109.345 102.682 0
      vertex -102.682 109.345 0
    endloop
  endfacet
  facet normal -0.375203 0.330786 0.865912
    outer loop
      vertex -122.25 101.134 -5
      vertex -109.345 102.682 0
      vertex -115.658 108.61 -5
    endloop
  endfacet
  facet normal -0.375203 0.330786 0.865912
    outer loop
      vertex -122.25 101.134 -5
      vertex -115.577 95.6136 0
      vertex -109.345 102.682 0
    endloop
  endfacet
  facet normal -0.395232 0.306574 0.865912
    outer loop
      vertex -128.359 93.258 -5
      vertex -115.577 95.6136 0
      vertex -122.25 101.134 -5
    endloop
  endfacet
  facet normal -0.395232 0.306574 0.865912
    outer loop
      vertex -128.359 93.258 -5
      vertex -121.353 88.1678 0
      vertex -115.577 95.6136 0
    endloop
  endfacet
  facet normal -0.413702 0.281152 0.865912
    outer loop
      vertex -133.961 85.0143 -5
      vertex -121.353 88.1678 0
      vertex -128.359 93.258 -5
    endloop
  endfacet
  facet normal -0.413702 0.281152 0.865912
    outer loop
      vertex -133.961 85.0143 -5
      vertex -126.649 80.374 0
      vertex -121.353 88.1678 0
    endloop
  endfacet
  facet normal -0.43054 0.254621 0.865912
    outer loop
      vertex -139.035 76.435 -5
      vertex -126.649 80.374 0
      vertex -133.961 85.0143 -5
    endloop
  endfacet
  facet normal -0.43054 0.254621 0.865912
    outer loop
      vertex -139.035 76.435 -5
      vertex -131.446 72.2631 0
      vertex -126.649 80.374 0
    endloop
  endfacet
  facet normal -0.445678 0.227084 0.865912
    outer loop
      vertex -143.56 67.5541 -5
      vertex -131.446 72.2631 0
      vertex -139.035 76.435 -5
    endloop
  endfacet
  facet normal -0.445678 0.227084 0.865912
    outer loop
      vertex -143.56 67.5541 -5
      vertex -135.724 63.8669 0
      vertex -131.446 72.2631 0
    endloop
  endfacet
  facet normal -0.459057 0.198652 0.865912
    outer loop
      vertex -147.518 58.4066 -5
      vertex -135.724 63.8669 0
      vertex -143.56 67.5541 -5
    endloop
  endfacet
  facet normal -0.459057 0.198652 0.865912
    outer loop
      vertex -147.518 58.4066 -5
      vertex -139.466 55.2187 0
      vertex -135.724 63.8669 0
    endloop
  endfacet
  facet normal -0.470625 0.169435 0.865912
    outer loop
      vertex -150.895 49.0286 -5
      vertex -139.466 55.2187 0
      vertex -147.518 58.4066 -5
    endloop
  endfacet
  facet normal -0.470625 0.169435 0.865912
    outer loop
      vertex -150.895 49.0286 -5
      vertex -142.658 46.3525 0
      vertex -139.466 55.2187 0
    endloop
  endfacet
  facet normal -0.480335 0.13955 0.865912
    outer loop
      vertex -153.675 39.4571 -5
      vertex -142.658 46.3525 0
      vertex -150.895 49.0286 -5
    endloop
  endfacet
  facet normal -0.480335 0.13955 0.865912
    outer loop
      vertex -153.675 39.4571 -5
      vertex -145.287 37.3035 0
      vertex -142.658 46.3525 0
    endloop
  endfacet
  facet normal -0.48815 0.109114 0.865912
    outer loop
      vertex -155.85 29.7299 -5
      vertex -145.287 37.3035 0
      vertex -153.675 39.4571 -5
    endloop
  endfacet
  facet normal -0.48815 0.109114 0.865912
    outer loop
      vertex -155.85 29.7299 -5
      vertex -147.343 28.1072 0
      vertex -145.287 37.3035 0
    endloop
  endfacet
  facet normal -0.494038 0.0782479 0.865912
    outer loop
      vertex -157.409 19.8854 -5
      vertex -147.343 28.1072 0
      vertex -155.85 29.7299 -5
    endloop
  endfacet
  facet normal -0.494038 0.0782479 0.865912
    outer loop
      vertex -157.409 19.8854 -5
      vertex -148.817 18.8 0
      vertex -147.343 28.1072 0
    endloop
  endfacet
  facet normal -0.497976 0.0470726 0.865912
    outer loop
      vertex -158.347 9.96234 -5
      vertex -148.817 18.8 0
      vertex -157.409 19.8854 -5
    endloop
  endfacet
  facet normal -0.497976 0.0470726 0.865912
    outer loop
      vertex -158.347 9.96234 -5
      vertex -149.704 9.41858 0
      vertex -148.817 18.8 0
    endloop
  endfacet
  facet normal -0.499949 0.0157115 0.865912
    outer loop
      vertex -158.66 1.94302e-14 -5
      vertex -149.704 9.41858 0
      vertex -158.347 9.96234 -5
    endloop
  endfacet
  facet normal -0.499949 0.0157115 0.865912
    outer loop
      vertex -158.66 1.94302e-14 -5
      vertex -150 1.83697e-14 0
      vertex -149.704 9.41858 0
    endloop
  endfacet
  facet normal -0.499949 -0.0157115 0.865912
    outer loop
      vertex -158.347 -9.96234 -5
      vertex -150 1.83697e-14 0
      vertex -158.66 1.94302e-14 -5
    endloop
  endfacet
  facet normal -0.499949 -0.0157115 0.865912
    outer loop
      vertex -158.347 -9.96234 -5
      vertex -149.704 -9.41858 0
      vertex -150 1.83697e-14 0
    endloop
  endfacet
  facet normal -0.497976 -0.0470726 0.865912
    outer loop
      vertex -157.409 -19.8854 -5
      vertex -149.704 -9.41858 0
      vertex -158.347 -9.96234 -5
    endloop
  endfacet
  facet normal -0.497976 -0.0470726 0.865912
    outer loop
      vertex -157.409 -19.8854 -5
      vertex -148.817 -18.8 0
      vertex -149.704 -9.41858 0
    endloop
  endfacet
  facet normal -0.494038 -0.0782479 0.865912
    outer loop
      vertex -155.85 -29.7299 -5
      vertex -148.817 -18.8 0
      vertex -157.409 -19.8854 -5
    endloop
  endfacet
  facet normal -0.494038 -0.0782479 0.865912
    outer loop
      vertex -155.85 -29.7299 -5
      vertex -147.343 -28.1072 0
      vertex -148.817 -18.8 0
    endloop
  endfacet
  facet normal -0.48815 -0.109114 0.865912
    outer loop
      vertex -153.675 -39.4571 -5
      vertex -147.343 -28.1072 0
      vertex -155.85 -29.7299 -5
    endloop
  endfacet
  facet normal -0.48815 -0.109114 0.865912
    outer loop
      vertex -153.675 -39.4571 -5
      vertex -145.287 -37.3035 0
      vertex -147.343 -28.1072 0
    endloop
  endfacet
  facet normal -0.480335 -0.13955 0.865912
    outer loop
      vertex -150.895 -49.0286 -5
      vertex -145.287 -37.3035 0
      vertex -153.675 -39.4571 -5
    endloop
  endfacet
  facet normal -0.480335 -0.13955 0.865912
    outer loop
      vertex -150.895 -49.0286 -5
      vertex -142.658 -46.3525 0
      vertex -145.287 -37.3035 0
    endloop
  endfacet
  facet normal -0.470625 -0.169435 0.865912
    outer loop
      vertex -147.518 -58.4066 -5
      vertex -142.658 -46.3525 0
      vertex -150.895 -49.0286 -5
    endloop
  endfacet
  facet normal -0.470625 -0.169435 0.865912
    outer loop
      vertex -147.518 -58.4066 -5
      vertex -139.466 -55.2187 0
      vertex -142.658 -46.3525 0
    endloop
  endfacet
  facet normal -0.459057 -0.198652 0.865912
    outer loop
      vertex -143.56 -67.5541 -5
      vertex -139.466 -55.2187 0
      vertex -147.518 -58.4066 -5
    endloop
  endfacet
  facet normal -0.459057 -0.198652 0.865912
    outer loop
      vertex -143.56 -67.5541 -5
      vertex -135.724 -63.8669 0
      vertex -139.466 -55.2187 0
    endloop
  endfacet
  facet normal -0.445678 -0.227084 0.865912
    outer loop
      vertex -139.035 -76.435 -5
      vertex -135.724 -63.8669 0
      vertex -143.56 -67.5541 -5
    endloop
  endfacet
  facet normal -0.445678 -0.227084 0.865912
    outer loop
      vertex -139.035 -76.435 -5
      vertex -131.446 -72.2631 0
      vertex -135.724 -63.8669 0
    endloop
  endfacet
  facet normal -0.43054 -0.254621 0.865912
    outer loop
      vertex -133.961 -85.0143 -5
      vertex -131.446 -72.2631 0
      vertex -139.035 -76.435 -5
    endloop
  endfacet
  facet normal -0.43054 -0.254621 0.865912
    outer loop
      vertex -133.961 -85.0143 -5
      vertex -126.649 -80.374 0
      vertex -131.446 -72.2631 0
    endloop
  endfacet
  facet normal -0.413702 -0.281152 0.865912
    outer loop
      vertex -128.359 -93.258 -5
      vertex -126.649 -80.374 0
      vertex -133.961 -85.0143 -5
    endloop
  endfacet
  facet normal -0.413702 -0.281152 0.865912
    outer loop
      vertex -128.359 -93.258 -5
      vertex -121.353 -88.1678 0
      vertex -126.649 -80.374 0
    endloop
  endfacet
  facet normal -0.395232 -0.306574 0.865912
    outer loop
      vertex -122.25 -101.134 -5
      vertex -121.353 -88.1678 0
      vertex -128.359 -93.258 -5
    endloop
  endfacet
  facet normal -0.395232 -0.306574 0.865912
    outer loop
      vertex -122.25 -101.134 -5
      vertex -115.577 -95.6136 0
      vertex -121.353 -88.1678 0
    endloop
  endfacet
  facet normal -0.375203 -0.330786 0.865912
    outer loop
      vertex -115.658 -108.61 -5
      vertex -115.577 -95.6136 0
      vertex -122.25 -101.134 -5
    endloop
  endfacet
  facet normal -0.375203 -0.330786 0.865912
    outer loop
      vertex -115.658 -108.61 -5
      vertex -109.345 -102.682 0
      vertex -115.577 -95.6136 0
    endloop
  endfacet
  facet normal -0.353692 -0.353692 0.865912
    outer loop
      vertex -108.61 -115.658 -5
      vertex -109.345 -102.682 0
      vertex -115.658 -108.61 -5
    endloop
  endfacet
  facet normal -0.353692 -0.353692 0.865912
    outer loop
      vertex -108.61 -115.658 -5
      vertex -102.682 -109.345 0
      vertex -109.345 -102.682 0
    endloop
  endfacet
  facet normal -0.330786 -0.375203 0.865912
    outer loop
      vertex -101.134 -122.25 -5
      vertex -102.682 -109.345 0
      vertex -108.61 -115.658 -5
    endloop
  endfacet
  facet normal -0.330786 -0.375203 0.865912
    outer loop
      vertex -101.134 -122.25 -5
      vertex -95.6136 -115.577 0
      vertex -102.682 -109.345 0
    endloop
  endfacet
  facet normal -0.306574 -0.395232 0.865912
    outer loop
      vertex -93.258 -128.359 -5
      vertex -95.6136 -115.577 0
      vertex -101.134 -122.25 -5
    endloop
  endfacet
  facet normal -0.306574 -0.395232 0.865912
    outer loop
      vertex -93.258 -128.359 -5
      vertex -88.1678 -121.353 0
      vertex -95.6136 -115.577 0
    endloop
  endfacet
  facet normal -0.281152 -0.413702 0.865912
    outer loop
      vertex -85.0143 -133.961 -5
      vertex -88.1678 -121.353 0
      vertex -93.258 -128.359 -5
    endloop
  endfacet
  facet normal -0.281152 -0.413702 0.865912
    outer loop
      vertex -85.0143 -133.961 -5
      vertex -80.374 -126.649 0
      vertex -88.1678 -121.353 0
    endloop
  endfacet
  facet normal -0.254621 -0.43054 0.865912
    outer loop
      vertex -76.435 -139.035 -5
      vertex -80.374 -126.649 0
      vertex -85.0143 -133.961 -5
    endloop
  endfacet
  facet normal -0.254621 -0.43054 0.865912
    outer loop
      vertex -76.435 -139.035 -5
      vertex -72.2631 -131.446 0
      vertex -80.374 -126.649 0
    endloop
  endfacet
  facet normal -0.227084 -0.445678 0.865912
    outer loop
      vertex -67.5541 -143.56 -5
      vertex -72.2631 -131.446 0
      vertex -76.435 -139.035 -5
    endloop
  endfacet
  facet normal -0.227084 -0.445678 0.865912
    outer loop
      vertex -67.5541 -143.56 -5
      vertex -63.8669 -135.724 0
      vertex -72.2631 -131.446 0
    endloop
  endfacet
  facet normal -0.198652 -0.459057 0.865912
    outer loop
      vertex -58.4066 -147.518 -5
      vertex -63.8669 -135.724 0
      vertex -67.5541 -143.56 -5
    endloop
  endfacet
  facet normal -0.198652 -0.459057 0.865912
    outer loop
      vertex -58.4066 -147.518 -5
      vertex -55.2187 -139.466 0
      vertex -63.8669 -135.724 0
    endloop
  endfacet
  facet normal -0.169435 -0.470625 0.865912
    outer loop
      vertex -49.0286 -150.895 -5
      vertex -55.2187 -139.466 0
      vertex -58.4066 -147.518 -5
    endloop
  endfacet
  facet normal -0.169435 -0.470625 0.865912
    outer loop
      vertex -49.0286 -150.895 -5
      vertex -46.3525 -142.658 0
      vertex -55.2187 -139.466 0
    endloop
  endfacet
  facet normal -0.13955 -0.480335 0.865912
    outer loop
      vertex -39.4571 -153.675 -5
      vertex -46.3525 -142.658 0
      vertex -49.0286 -150.895 -5
    endloop
  endfacet
  facet normal -0.13955 -0.480335 0.865912
    outer loop
      vertex -39.4571 -153.675 -5
      vertex -37.3035 -145.287 0
      vertex -46.3525 -142.658 0
    endloop
  endfacet
  facet normal -0.109114 -0.48815 0.865912
    outer loop
      vertex -29.7299 -155.85 -5
      vertex -37.3035 -145.287 0
      vertex -39.4571 -153.675 -5
    endloop
  endfacet
  facet normal -0.109114 -0.48815 0.865912
    outer loop
      vertex -29.7299 -155.85 -5
      vertex -28.1072 -147.343 0
      vertex -37.3035 -145.287 0
    endloop
  endfacet
  facet normal -0.0782479 -0.494038 0.865912
    outer loop
      vertex -19.8854 -157.409 -5
      vertex -28.1072 -147.343 0
      vertex -29.7299 -155.85 -5
    endloop
  endfacet
  facet normal -0.0782479 -0.494038 0.865912
    outer loop
      vertex -19.8854 -157.409 -5
      vertex -18.8 -148.817 0
      vertex -28.1072 -147.343 0
    endloop
  endfacet
  facet normal -0.0470726 -0.497976 0.865912
    outer loop
      vertex -9.96234 -158.347 -5
      vertex -18.8 -148.817 0
      vertex -19.8854 -157.409 -5
    endloop
  endfacet
  facet normal -0.0470726 -0.497976 0.865912
    outer loop
      vertex -9.96234 -158.347 -5
      vertex -9.41858 -149.704 0
      vertex -18.8 -148.817 0
    endloop
  endfacet
  facet normal -0.0157115 -0.499949 0.865912
    outer loop
      vertex -2.91454e-14 -158.66 -5
      vertex -9.41858 -149.704 0
      vertex -9.96234 -158.347 -5
    endloop
  endfacet
  facet normal -0.0157115 -0.499949 0.865912
    outer loop
      vertex -2.91454e-14 -158.66 -5
      vertex -2.75546e-14 -150 0
      vertex -9.41858 -149.704 0
    endloop
  endfacet
  facet normal 0.0157115 -0.499949 0.865912
    outer loop
      vertex 9.96234 -158.347 -5
      vertex -2.75546e-14 -150 0
      vertex -2.91454e-14 -158.66 -5
    endloop
  endfacet
  facet normal 0.0157115 -0.499949 0.865912
    outer loop
      vertex 9.96234 -158.347 -5
      vertex 9.41858 -149.704 0
      vertex -2.75546e-14 -150 0
    endloop
  endfacet
  facet normal 0.0470726 -0.497976 0.865912
    outer loop
      vertex 19.8854 -157.409 -5
      vertex 9.41858 -149.704 0
      vertex 9.96234 -158.347 -5
    endloop
  endfacet
  facet normal 0.0470726 -0.497976 0.865912
    outer loop
      vertex 19.8854 -157.409 -5
      vertex 18.8 -148.817 0
      vertex 9.41858 -149.704 0
    endloop
  endfacet
  facet normal 0.0782479 -0.494038 0.865912
    outer loop
      vertex 29.7299 -155.85 -5
      vertex 18.8 -148.817 0
      vertex 19.8854 -157.409 -5
    endloop
  endfacet
  facet normal 0.0782479 -0.494038 0.865912
    outer loop
      vertex 29.7299 -155.85 -5
      vertex 28.1072 -147.343 0
      vertex 18.8 -148.817 0
    endloop
  endfacet
  facet normal 0.109114 -0.48815 0.865912
    outer loop
      vertex 39.4571 -153.675 -5
      vertex 28.1072 -147.343 0
      vertex 29.7299 -155.85 -5
    endloop
  endfacet
  facet normal 0.109114 -0.48815 0.865912
    outer loop
      vertex 39.4571 -153.675 -5
      vertex 37.3035 -145.287 0
      vertex 28.1072 -147.343 0
    endloop
  endfacet
  facet normal 0.13955 -0.480335 0.865912
    outer loop
      vertex 49.0286 -150.895 -5
      vertex 37.3035 -145.287 0
      vertex 39.4571 -153.675 -5
    endloop
  endfacet
  facet normal 0.13955 -0.480335 0.865912
    outer loop
      vertex 49.0286 -150.895 -5
      vertex 46.3525 -142.658 0
      vertex 37.3035 -145.287 0
    endloop
  endfacet
  facet normal 0.169435 -0.470625 0.865912
    outer loop
      vertex 58.4066 -147.518 -5
      vertex 46.3525 -142.658 0
      vertex 49.0286 -150.895 -5
    endloop
  endfacet
  facet normal 0.169435 -0.470625 0.865912
    outer loop
      vertex 58.4066 -147.518 -5
      vertex 55.2187 -139.466 0
      vertex 46.3525 -142.658 0
    endloop
  endfacet
  facet normal 0.198652 -0.459057 0.865912
    outer loop
      vertex 67.5541 -143.56 -5
      vertex 55.2187 -139.466 0
      vertex 58.4066 -147.518 -5
    endloop
  endfacet
  facet normal 0.198652 -0.459057 0.865912
    outer loop
      vertex 67.5541 -143.56 -5
      vertex 63.8669 -135.724 0
      vertex 55.2187 -139.466 0
    endloop
  endfacet
  facet normal 0.227084 -0.445678 0.865912
    outer loop
      vertex 76.435 -139.035 -5
      vertex 63.8669 -135.724 0
      vertex 67.5541 -143.56 -5
    endloop
  endfacet
  facet normal 0.227084 -0.445678 0.865912
    outer loop
      vertex 76.435 -139.035 -5
      vertex 72.2631 -131.446 0
      vertex 63.8669 -135.724 0
    endloop
  endfacet
  facet normal 0.254621 -0.43054 0.865912
    outer loop
      vertex 85.0143 -133.961 -5
      vertex 72.2631 -131.446 0
      vertex 76.435 -139.035 -5
    endloop
  endfacet
  facet normal 0.254621 -0.43054 0.865912
    outer loop
      vertex 85.0143 -133.961 -5
      vertex 80.374 -126.649 0
      vertex 72.2631 -131.446 0
    endloop
  endfacet
  facet normal 0.281152 -0.413702 0.865912
    outer loop
      vertex 93.258 -128.359 -5
      vertex 80.374 -126.649 0
      vertex 85.0143 -133.961 -5
    endloop
  endfacet
  facet normal 0.281152 -0.413702 0.865912
    outer loop
      vertex 93.258 -128.359 -5
      vertex 88.1678 -121.353 0
      vertex 80.374 -126.649 0
    endloop
  endfacet
  facet normal 0.306574 -0.395232 0.865912
    outer loop
      vertex 101.134 -122.25 -5
      vertex 88.1678 -121.353 0
      vertex 93.258 -128.359 -5
    endloop
  endfacet
  facet normal 0.306574 -0.395232 0.865912
    outer loop
      vertex 101.134 -122.25 -5
      vertex 95.6136 -115.577 0
      vertex 88.1678 -121.353 0
    endloop
  endfacet
  facet normal 0.330786 -0.375203 0.865912
    outer loop
      vertex 108.61 -115.658 -5
      vertex 95.6136 -115.577 0
      vertex 101.134 -122.25 -5
    endloop
  endfacet
  facet normal 0.330786 -0.375203 0.865912
    outer loop
      vertex 108.61 -115.658 -5
      vertex 102.682 -109.345 0
      vertex 95.6136 -115.577 0
    endloop
  endfacet
  facet normal 0.353692 -0.353692 0.865912
    outer loop
      vertex 115.658 -108.61 -5
      vertex 102.682 -109.345 0
      vertex 108.61 -115.658 -5
    endloop
  endfacet
  facet normal 0.353692 -0.353692 0.865912
    outer loop
      vertex 115.658 -108.61 -5
      vertex 109.345 -102.682 0
      vertex 102.682 -109.345 0
    endloop
  endfacet
  facet normal 0.375203 -0.330786 0.865912
    outer loop
      vertex 122.25 -101.134 -5
      vertex 109.345 -102.682 0
      vertex 115.658 -108.61 -5
    endloop
  endfacet
  facet normal 0.375203 -0.330786 0.865912
    outer loop
      vertex 122.25 -101.134 -5
      vertex 115.577 -95.6136 0
      vertex 109.345 -102.682 0
    endloop
  endfacet
  facet normal 0.395232 -0.306574 0.865912
    outer loop
      vertex 128.359 -93.258 -5
      vertex 115.577 -95.6136 0
      vertex 122.25 -101.134 -5
    endloop
  endfacet
  facet normal 0.395232 -0.306574 0.865912
    outer loop
      vertex 128.359 -93.258 -5
      vertex 121.353 -88.1678 0
      vertex 115.577 -95.6136 0
    endloop
  endfacet
  facet normal 0.413702 -0.281152 0.865912
    outer loop
      vertex 133.961 -85.0143 -5
      vertex 121.353 -88.1678 0
      vertex 128.359 -93.258 -5
    endloop
  endfacet
  facet normal 0.413702 -0.281152 0.865912
    outer loop
      vertex 133.961 -85.0143 -5
      vertex 126.649 -80.374 0
      vertex 121.353 -88.1678 0
    endloop
  endfacet
  facet normal 0.43054 -0.254621 0.865912
    outer loop
      vertex 139.035 -76.435 -5
      vertex 126.649 -80.374 0
      vertex 133.961 -85.0143 -5
    endloop
  endfacet
  facet normal 0.43054 -0.254621 0.865912
    outer loop
      vertex 139.035 -76.435 -5
      vertex 131.446 -72.2631 0
      vertex 126.649 -80.374 0
    endloop
  endfacet
  facet normal 0.445678 -0.227084 0.865912
    outer loop
      vertex 143.56 -67.5541 -5
      vertex 131.446 -72.2631 0
      vertex 139.035 -76.435 -5
    endloop
  endfacet
  facet normal 0.445678 -0.227084 0.865912
    outer loop
      vertex 143.56 -67.5541 -5
      vertex 135.724 -63.8669 0
      vertex 131.446 -72.2631 0
    endloop
  endfacet
  facet normal 0.459057 -0.198652 0.865912
    outer loop
      vertex 147.518 -58.4066 -5
      vertex 135.724 -63.8669 0
      vertex 143.56 -67.5541 -5
    endloop
  endfacet
  facet normal 0.459057 -0.198652 0.865912
    outer loop
      vertex 147.518 -58.4066 -5
      vertex 139.466 -55.2187 0
      vertex 135.724 -63.8669 0
    endloop
  endfacet
  facet normal 0.470625 -0.169435 0.865912
    outer loop
      vertex 150.895 -49.0286 -5
      vertex 139.466 -55.2187 0
      vertex 147.518 -58.4066 -5
    endloop
  endfacet
  facet normal 0.470625 -0.169435 0.865912
    outer loop
      vertex 150.895 -49.0286 -5
      vertex 142.658 -46.3525 0
      vertex 139.466 -55.2187 0
    endloop
  endfacet
  facet normal 0.480335 -0.13955 0.865912
    outer loop
      vertex 153.675 -39.4571 -5
      vertex 142.658 -46.3525 0
      vertex 150.895 -49.0286 -5
    endloop
  endfacet
  facet normal 0.480335 -0.13955 0.865912
    outer loop
      vertex 153.675 -39.4571 -5
      vertex 145.287 -37.3035 0
      vertex 142.658 -46.3525 0
    endloop
  endfacet
  facet normal 0.48815 -0.109114 0.865912
    outer loop
      vertex 155.85 -29.7299 -5
      vertex 145.287 -37.3035 0
      vertex 153.675 -39.4571 -5
    endloop
  endfacet
  facet normal 0.48815 -0.109114 0.865912
    outer loop
      vertex 155.85 -29.7299 -5
      vertex 147.343 -28.1072 0
      vertex 145.287 -37.3035 0
    endloop
  endfacet
  facet normal 0.494038 -0.0782479 0.865912
    outer loop
      vertex 157.409 -19.8854 -5
      vertex 147.343 -28.1072 0
      vertex 155.85 -29.7299 -5
    endloop
  endfacet
  facet normal 0.494038 -0.0782479 0.865912
    outer loop
      vertex 157.409 -19.8854 -5
      vertex 148.817 -18.8 0
      vertex 147.343 -28.1072 0
    endloop
  endfacet
  facet normal 0.497976 -0.0470726 0.865912
    outer loop
      vertex 158.347 -9.96234 -5
      vertex 148.817 -18.8 0
      vertex 157.409 -19.8854 -5
    endloop
  endfacet
  facet normal 0.497976 -0.0470726 0.865912
    outer loop
      vertex 158.347 -9.96234 -5
      vertex 149.704 -9.41858 0
      vertex 148.817 -18.8 0
    endloop
  endfacet
  facet normal 0.499949 -0.0157115 0.865912
    outer loop
      vertex 158.66 0 -5
      vertex 149.704 -9.41858 0
      vertex 158.347 -9.96234 -5
    endloop
  endfacet
  facet normal 0.499949 -0.0157115 0.865912
    outer loop
      vertex 158.66 0 -5
      vertex 150 0 0
      vertex 149.704 -9.41858 0
    endloop
  endfacet
  facet normal 0 0 -1
    outer loop
      vertex 158.347 -9.96234 -5
      vertex 158.347 9.96234 -5
      vertex 158.66 0 -5
    endloop
  endfacet
  facet normal 0 0 -1
    outer loop
      vertex 157.409 -19.8854 -5
      vertex 158.347 9.96234 -5
      vertex 158.347 -9.96234 -5
    endloop
  endfacet
  facet normal 0 0 -1
    outer loop
      vertex 157.409 -19.8854 -5
      vertex 157.409 19.8854 -5
      vertex 158.347 9.96234 -5
    endloop
  endfacet
  facet normal 0 0 -1
    outer loop
      vertex 155.85 -29.7299 -5
      vertex 157.409 19.8854 -5
      vertex 157.409 -19.8854 -5
    endloop
  endfacet
  facet normal 0 0 -1
    outer loop
      vertex 155.85 -29.7299 -5
      vertex 155.85 29.7299 -5
      vertex 157.409 19.8854 -5
    endloop
  endfacet
  facet normal 0 0 -1
    outer loop
      vertex 153.675 -39.4571 -5
      vertex 155.85 29.7299 -5
      vertex 155.85 -29.7299 -5
    endloop
  endfacet
  facet normal 0 0 -1
    outer loop
      vertex 153.675 -39.4571 -5
      vertex 153.675 39.4571 -5
      vertex 155.85 29.7299 -5
    endloop
  endfacet
  facet normal 0 0 -1
    outer loop
      vertex 150.895 -49.0286 -5
      vertex 153.675 39.4571 -5
      vertex 153.675 -39.4571 -5
    endloop
  endfacet
  facet normal 0 0 -1
    outer loop
      vertex 150.895 -49.0286 -5
      vertex 150.895 49.0286 -5
      vertex 153.675 39.4571 -5
    endloop
  endfacet
  facet normal 0 0 -1
    outer loop
      vertex 147.518 -58.4066 -5
      vertex 150.895 49.0286 -5
      vertex 150.895 -49.0286 -5
    endloop
  endfacet
  facet normal 0 0 -1
    outer loop
      vertex 147.518 -58.4066 -5
      vertex 147.518 58.4066 -5
      vertex 150.895 49.0286 -5
    endloop
  endfacet
  facet normal 0 0 -1
    outer loop
      vertex 143.56 -67.5541 -5
      vertex 147.518 58.4066 -5
      vertex 147.518 -58.4066 -5
    endloop
  endfacet
  facet normal 0 0 -1
    outer loop
      vertex 143.56 -67.5541 -5
      vertex 143.56 67.5541 -5
      vertex 147.518 58.4066 -5
    endloop
  endfacet
  facet normal 0 0 -1
    outer loop
      vertex 139.035 -76.435 -5
      vertex 143.56 67.5541 -5
      vertex 143.56 -67.5541 -5
    endloop
  endfacet
  facet normal 0 0 -1
    outer loop
      vertex 139.035 -76.435 -5
      vertex 139.035 76.435 -5
      vertex 143.56 67.5541 -5
    endloop
  endfacet
  facet normal 0 0 -1
    outer loop
      vertex 133.961 -85.0143 -5
      vertex 139.035 76.435 -5
      vertex 139.035 -76.435 -5
    endloop
  endfacet
  facet normal 0 0 -1
    outer loop
      vertex 133.961 -85.0143 -5
      vertex 133.961 85.0143 -5
      vertex 139.035 76.435 -5
    endloop
  endfacet
  facet normal 0 0 -1
    outer loop
      vertex 128.359 -93.258 -5
      vertex 133.961 85.0143 -5
      vertex 133.961 -85.0143 -5
    endloop
  endfacet
  facet normal 0 0 -1
    outer loop
      vertex 128.359 -93.258 -5
      vertex 128.359 93.258 -5
      vertex 133.961 85.0143 -5
    endloop
  endfacet
  facet normal 0 0 -1
    outer loop
      vertex 122.25 -101.134 -5
      vertex 128.359 93.258 -5
      vertex 128.359 -93.258 -5
    endloop
  endfacet
  facet normal 0 0 -1
    outer loop
      vertex 122.25 -101.134 -5
      vertex 122.25 101.134 -5
      vertex 128.359 93.258 -5
    endloop
  endfacet
  facet normal 0 0 -1
    outer loop
      vertex 115.658 -108.61 -5
      vertex 122.25 101.134 -5
      vertex 122.25 -101.134 -5
    endloop
  endfacet
  facet normal 0 0 -1
    outer loop
      vertex 115.658 -108.61 -5
      vertex 115.658 108.61 -5
      vertex 122.25 101.134 -5
    endloop
  endfacet
  facet normal 0 0 -1
    outer loop
      vertex 108.61 -115.658 -5
      vertex 115.658 108.61 -5
      vertex 115.658 -108.61 -5
    endloop
  endfacet
  facet normal 0 0 -1
    outer loop
      vertex 108.61 -115.658 -5
      vertex 108.61 115.658 -5
      vertex 115.658 108.61 -5
    endloop
  endfacet
  facet normal 0 0 -1
    outer loop
      vertex 101.134 -122.25 -5
      vertex 108.61 115.658 -5
      vertex 108.61 -115.658 -5
    endloop
  endfacet
  facet normal 0 0 -1
    outer loop
      vertex 101.134 -122.25 -5
      vertex 101.134 122.25 -5
      vertex 108.61 115.658 -5
    endloop
  endfacet
  facet normal 0 0 -1
    outer loop
      vertex 93.258 -128.359 -5
      vertex 101.134 122.25 -5
      vertex 101.134 -122.25 -5
    endloop
  endfacet
  facet normal 0 0 -1
    outer loop
      vertex 93.258 -128.359 -5
      vertex 93.258 128.359 -5
      vertex 101.134 122.25 -5
    endloop
  endfacet
  facet normal 0 0 -1
    outer loop
      vertex 85.0143 -133.961 -5
      vertex 93.258 128.359 -5
      vertex 93.258 -128.359 -5
    endloop
  endfacet
  facet normal 0 0 -1
    outer loop
      vertex 85.0143 -133.961 -5
      vertex 85.0143 133.961 -5
      vertex 93.258 128.359 -5
    endloop
  endfacet
  facet normal 0 0 -1
    outer loop
      vertex 76.435 -139.035 -5
      vertex 85.0143 133.961 -5
      vertex 85.0143 -133.961 -5
    endloop
  endfacet
  facet normal 0 0 -1
    outer loop
      vertex 76.435 -139.035 -5
      vertex 76.435 139.035 -5
      vertex 85.0143 133.961 -5
    endloop
  endfacet
  facet normal 0 0 -1
    outer loop
      vertex 67.5541 -143.56 -5
      vertex 76.435 139.035 -5
      vertex 76.435 -139.035 -5
    endloop
  endfacet
  facet normal 0 0 -1
    outer loop
      vertex 67.5541 -143.56 -5
      vertex 67.5541 143.56 -5
      vertex 76.435 139.035 -5
    endloop
  endfacet
  facet normal 0 0 -1
    outer loop
      vertex 58.4066 -147.518 -5
      vertex 67.5541 143.56 -5
      vertex 67.5541 -143.56 -5
    endloop
  endfacet
  facet normal 0 0 -1
    outer loop
      vertex 58.4066 -147.518 -5
      vertex 58.4066 147.518 -5
      vertex 67.5541 143.56 -5
    endloop
  endfacet
  facet normal 0 0 -1
    outer loop
      vertex 49.0286 -150.895 -5
      vertex 58.4066 147.518 -5
      vertex 58.4066 -147.518 -5
    endloop
  endfacet
  facet normal 0 0 -1
    outer loop
      vertex 49.0286 -150.895 -5
      vertex 49.0286 150.895 -5
      vertex 58.4066 147.518 -5
    endloop
  endfacet
  facet normal 0 0 -1
    outer loop
      vertex 39.4571 -153.675 -5
      vertex 49.0286 150.895 -5
      vertex 49.0286 -150.895 -5
    endloop
  endfacet
  facet normal 0 0 -1
    outer loop
      vertex 39.4571 -153.675 -5
      vertex 39.4571 153.675 -5
      vertex 49.0286 150.895 -5
    endloop
  endfacet
  facet normal 0 0 -1
    outer loop
      vertex 29.7299 -155.85 -5
      vertex 39.4571 153.675 -5
      vertex 39.4571 -153.675 -5
    endloop
  endfacet
  facet normal 0 0 -1
    outer loop
      vertex 29.7299 -155.85 -5
      vertex 29.7299 155.85 -5
      vertex 39.4571 153.675 -5
    endloop
  endfacet
  facet normal 0 0 -1
    outer loop
      vertex 19.8854 -157.409 -5
      vertex 29.7299 155.85 -5
      vertex 29.7299 -155.85 -5
    endloop
  endfacet
  facet normal 0 0 -1
    outer loop
      vertex 19.8854 -157.409 -5
      vertex 19.8854 157.409 -5
      vertex 29.7299 155.85 -5
    endloop
  endfacet
  facet normal 0 0 -1
    outer loop
      vertex 9.96234 -158.347 -5
      vertex 19.8854 157.409 -5
      vertex 19.8854 -157.409 -5
    endloop
  endfacet
  facet normal 0 0 -1
    outer loop
      vertex 9.96234 -158.347 -5
      vertex 9.96234 158.347 -5
      vertex 19.8854 157.409 -5
    endloop
  endfacet
  facet normal 0 0 -1
    outer loop
      vertex 9.96234 -158.347 -5
      vertex 9.71512e-15 158.66 -5
      vertex 9.96234 158.347 -5
    endloop
  endfacet
  facet normal 0 0 -1
    outer loop
      vertex -2.91454e-14 -158.66 -5
      vertex 9.71512e-15 158.66 -5
      vertex 9.96234 -158.347 -5
    endloop
  endfacet
  facet normal 0 0 -1
    outer loop
      vertex -9.96234 -158.347 -5
      vertex 9.71512e-15 158.66 -5
      vertex -2.91454e-14 -158.66 -5
    endloop
  endfacet
  facet normal 0 0 -1
    outer loop
      vertex -9.96234 -158.347 -5
      vertex -9.96234 158.347 -5
      vertex 9.71512e-15 158.66 -5
    endloop
  endfacet
  facet normal 0 0 -1
    outer loop
      vertex -19.8854 -157.409 -5
      vertex -9.96234 158.347 -5
      vertex -9.96234 -158.347 -5
    endloop
  endfacet
  facet normal 0 0 -1
    outer loop
      vertex -19.8854 -157.409 -5
      vertex -19.8854 157.409 -5
      vertex -9.96234 158.347 -5
    endloop
  endfacet
  facet normal 0 0 -1
    outer loop
      vertex -29.7299 -155.85 -5
      vertex -19.8854 157.409 -5
      vertex -19.8854 -157.409 -5
    endloop
  endfacet
  facet normal 0 0 -1
    outer loop
      vertex -29.7299 -155.85 -5
      vertex -29.7299 155.85 -5
      vertex -19.8854 157.409 -5
    endloop
  endfacet
  facet normal 0 0 -1
    outer loop
      vertex -39.4571 -153.675 -5
      vertex -29.7299 155.85 -5
      vertex -29.7299 -155.85 -5
    endloop
  endfacet
  facet normal 0 0 -1
    outer loop
      vertex -39.4571 -153.675 -5
      vertex -39.4571 153.675 -5
      vertex -29.7299 155.85 -5
    endloop
  endfacet
  facet normal 0 0 -1
    outer loop
      vertex -49.0286 -150.895 -5
      vertex -39.4571 153.675 -5
      vertex -39.4571 -153.675 -5
    endloop
  endfacet
  facet normal 0 0 -1
    outer loop
      vertex -49.0286 -150.895 -5
      vertex -49.0286 150.895 -5
      vertex -39.4571 153.675 -5
    endloop
  endfacet
  facet normal 0 0 -1
    outer loop
      vertex -58.4066 -147.518 -5
      vertex -49.0286 150.895 -5
      vertex -49.0286 -150.895 -5
    endloop
  endfacet
  facet normal 0 0 -1
    outer loop
      vertex -58.4066 -147.518 -5
      vertex -58.4066 147.518 -5
      vertex -49.0286 150.895 -5
    endloop
  endfacet
  facet normal 0 0 -1
    outer loop
      vertex -67.5541 -143.56 -5
      vertex -58.4066 147.518 -5
      vertex -58.4066 -147.518 -5
    endloop
  endfacet
  facet normal 0 0 -1
    outer loop
      vertex -67.5541 -143.56 -5
      vertex -67.5541 143.56 -5
      vertex -58.4066 147.518 -5
    endloop
  endfacet
  facet normal 0 0 -1
    outer loop
      vertex -76.435 -139.035 -5
      vertex -67.5541 143.56 -5
      vertex -67.5541 -143.56 -5
    endloop
  endfacet
  facet normal 0 0 -1
    outer loop
      vertex -76.435 -139.035 -5
      vertex -76.435 139.035 -5
      vertex -67.5541 143.56 -5
    endloop
  endfacet
  facet normal 0 0 -1
    outer loop
      vertex -85.0143 -133.961 -5
      vertex -76.435 139.035 -5
      vertex -76.435 -139.035 -5
    endloop
  endfacet
  facet normal 0 0 -1
    outer loop
      vertex -85.0143 -133.961 -5
      vertex -85.0143 133.961 -5
      vertex -76.435 139.035 -5
    endloop
  endfacet
  facet normal 0 0 -1
    outer loop
      vertex -93.258 -128.359 -5
      vertex -85.0143 133.961 -5
      vertex -85.0143 -133.961 -5
    endloop
  endfacet
  facet normal 0 0 -1
    outer loop
      vertex -93.258 -128.359 -5
      vertex -93.258 128.359 -5
      vertex -85.0143 133.961 -5
    endloop
  endfacet
  facet normal 0 0 -1
    outer loop
      vertex -101.134 -122.25 -5
      vertex -93.258 128.359 -5
      vertex -93.258 -128.359 -5
    endloop
  endfacet
  facet normal 0 0 -1
    outer loop
      vertex -101.134 -122.25 -5
      vertex -101.134 122.25 -5
      vertex -93.258 128.359 -5
    endloop
  endfacet
  facet normal 0 0 -1
    outer loop
      vertex -108.61 -115.658 -5
      vertex -101.134 122.25 -5
      vertex -101.134 -122.25 -5
    endloop
  endfacet
  facet normal 0 0 -1
    outer loop
      vertex -108.61 -115.658 -5
      vertex -108.61 115.658 -5
      vertex -101.134 122.25 -5
    endloop
  endfacet
  facet normal 0 0 -1
    outer loop
      vertex -115.658 -108.61 -5
      vertex -108.61 115.658 -5
      vertex -108.61 -115.658 -5
    endloop
  endfacet
  facet normal 0 0 -1
    outer loop
      vertex -115.658 -108.61 -5
      vertex -115.658 108.61 -5
      vertex -108.61 115.658 -5
    endloop
  endfacet
  facet normal 0 0 -1
    outer loop
      vertex -122.25 -101.134 -5
      vertex -115.658 108.61 -5
      vertex -115.658 -108.61 -5
    endloop
  endfacet
  facet normal 0 0 -1
    outer loop
      vertex -122.25 -101.134 -5
      vertex -122.25 101.134 -5
      vertex -115.658 108.61 -5
    endloop
  endfacet
  facet normal 0 0 -1
    outer loop
      vertex -128.359 -93.258 -5
      vertex -122.25 101.134 -5
      vertex -122.25 -101.134 -5
    endloop
  endfacet
  facet normal 0 0 -1
    outer loop
      vertex -128.359 -93.258 -5
      vertex -128.359 93.258 -5
      vertex -122.25 101.134 -5
    endloop
  endfacet
  facet normal 0 0 -1
    outer loop
      vertex -133.961 -85.0143 -5
      vertex -128.359 93.258 -5
      vertex -128.359 -93.258 -5
    endloop
  endfacet
  facet normal 0 0 -1
    outer loop
      vertex -133.961 -85.0143 -5
      vertex -133.961 85.0143 -5
      vertex -128.359 93.258 -5
    endloop
  endfacet
  facet normal 0 0 -1
    outer loop
      vertex -139.035 -76.435 -5
      vertex -133.961 85.0143 -5
      vertex -133.961 -85.0143 -5
    endloop
  endfacet
  facet normal 0 0 -1
    outer loop
      vertex -139.035 -76.435 -5
      vertex -139.035 76.435 -5
      vertex -133.961 85.0143 -5
    endloop
  endfacet
  facet normal 0 0 -1
    outer loop
      vertex -143.56 -67.5541 -5
      vertex -139.035 76.435 -5
      vertex -139.035 -76.435 -5
    endloop
  endfacet
  facet normal 0 0 -1
    outer loop
      vertex -143.56 -67.5541 -5
      vertex -143.56 67.5541 -5
      vertex -139.035 76.435 -5
    endloop
  endfacet
  facet normal 0 0 -1
    outer loop
      vertex -147.518 -58.4066 -5
      vertex -143.56 67.5541 -5
      vertex -143.56 -67.5541 -5
    endloop
  endfacet
  facet normal 0 0 -1
    outer loop
      vertex -147.518 -58.4066 -5
      vertex -147.518 58.4066 -5
      vertex -143.56 67.5541 -5
    endloop
  endfacet
  facet normal 0 0 -1
    outer loop
      vertex -150.895 -49.0286 -5
      vertex -147.518 58.4066 -5
      vertex -147.518 -58.4066 -5
    endloop
  endfacet
  facet normal 0 0 -1
    outer loop
      vertex -150.895 -49.0286 -5
      vertex -150.895 49.0286 -5
      vertex -147.518 58.4066 -5
    endloop
  endfacet
  facet normal 0 0 -1
    outer loop
      vertex -153.675 -39.4571 -5
      vertex -150.895 49.0286 -5
      vertex -150.895 -49.0286 -5
    endloop
  endfacet
  facet normal 0 0 -1
    outer loop
      vertex -153.675 -39.4571 -5
      vertex -153.675 39.4571 -5
      vertex -150.895 49.0286 -5
    endloop
  endfacet
  facet normal 0 0 -1
    outer loop
      vertex -155.85 -29.7299 -5
      vertex -153.675 39.4571 -5
      vertex -153.675 -39.4571 -5
    endloop
  endfacet
  facet normal 0 0 -1
    outer loop
      vertex -155.85 -29.7299 -5
      vertex -155.85 29.7299 -5
      vertex -153.675 39.4571 -5
    endloop
  endfacet
  facet normal 0 0 -1
    outer loop
      vertex -157.409 -19.8854 -5
      vertex -155.85 29.7299 -5
      vertex -155.85 -29.7299 -5
    endloop
  endfacet
  facet normal 0 0 -1
    outer loop
      vertex -157.409 -19.8854 -5
      vertex -157.409 19.8854 -5
      vertex -155.85 29.7299 -5
    endloop
  endfacet
  facet normal 0 0 -1
    outer loop
      vertex -158.347 -9.96234 -5
      vertex -157.409 19.8854 -5
      vertex -157.409 -19.8854 -5
    endloop
  endfacet
  facet normal 0 0 -1
    outer loop
      vertex -158.347 -9.96234 -5
      vertex -158.347 9.96234 -5
      vertex -157.409 19.8854 -5
    endloop
  endfacet
  facet normal 0 -0 -1
    outer loop
      vertex -158.347 9.96234 -5
      vertex -158.347 -9.96234 -5
      vertex -158.66 1.94302e-14 -5
    endloop
  endfacet
  facet normal 0 0 1
    outer loop
      vertex 149.704 9.41858 0
      vertex 149.704 -9.41858 0
      vertex 150 0 0
    endloop
  endfacet
  facet normal 0 0 1
    outer loop
      vertex 148.817 18.8 0
      vertex 149.704 -9.41858 0
      vertex 149.704 9.41858 0
    endloop
  endfacet
  facet normal 0 0 1
    outer loop
      vertex 148.817 18.8 0
      vertex 148.817 -18.8 0
      vertex 149.704 -9.41858 0
    endloop
  endfacet
  facet normal 0 0 1
    outer loop
      vertex 147.343 28.1072 0
      vertex 148.817 -18.8 0
      vertex 148.817 18.8 0
    endloop
  endfacet
  facet normal 0 0 1
    outer loop
      vertex 147.343 28.1072 0
      vertex 147.343 -28.1072 0
      vertex 148.817 -18.8 0
    endloop
  endfacet
  facet normal 0 0 1
    outer loop
      vertex 145.287 37.3035 0
      vertex 147.343 -28.1072 0
      vertex 147.343 28.1072 0
    endloop
  endfacet
  facet normal 0 0 1
    outer loop
      vertex 145.287 37.3035 0
      vertex 145.287 -37.3035 0
      vertex 147.343 -28.1072 0
    endloop
  endfacet
  facet normal 0 0 1
    outer loop
      vertex 142.658 46.3526 0
      vertex 145.287 -37.3035 0
      vertex 145.287 37.3035 0
    endloop
  endfacet
  facet normal 0 0 1
    outer loop
      vertex 142.658 46.3526 0
      vertex 142.658 -46.3526 0
      vertex 145.287 -37.3035 0
    endloop
  endfacet
  facet normal 0 0 1
    outer loop
      vertex 139.466 55.2187 0
      vertex 142.658 -46.3526 0
      vertex 142.658 46.3526 0
    endloop
  endfacet
  facet normal 0 0 1
    outer loop
      vertex 139.466 55.2187 0
      vertex 139.466 -55.2187 0
      vertex 142.658 -46.3526 0
    endloop
  endfacet
  facet normal 0 0 1
    outer loop
      vertex 135.724 63.8669 0
      vertex 139.466 -55.2187 0
      vertex 139.466 55.2187 0
    endloop
  endfacet
  facet normal 0 0 1
    outer loop
      vertex 135.724 63.8669 0
      vertex 135.724 -63.8669 0
      vertex 139.466 -55.2187 0
    endloop
  endfacet
  facet normal 0 0 1
    outer loop
      vertex 131.446 72.2631 0
      vertex 135.724 -63.8669 0
      vertex 135.724 63.8669 0
    endloop
  endfacet
  facet normal 0 0 1
    outer loop
      vertex 131.446 72.2631 0
      vertex 131.446 -72.2631 0
      vertex 135.724 -63.8669 0
    endloop
  endfacet
  facet normal 0 0 1
    outer loop
      vertex 126.649 80.374 0
      vertex 131.446 -72.2631 0
      vertex 131.446 72.2631 0
    endloop
  endfacet
  facet normal 0 0 1
    outer loop
      vertex 126.649 80.374 0
      vertex 126.649 -80.374 0
      vertex 131.446 -72.2631 0
    endloop
  endfacet
  facet normal 0 0 1
    outer loop
      vertex 121.353 88.1678 0
      vertex 126.649 -80.374 0
      vertex 126.649 80.374 0
    endloop
  endfacet
  facet normal 0 0 1
    outer loop
      vertex 121.353 88.1678 0
      vertex 121.353 -88.1678 0
      vertex 126.649 -80.374 0
    endloop
  endfacet
  facet normal 0 0 1
    outer loop
      vertex 115.577 95.6136 0
      vertex 121.353 -88.1678 0
      vertex 121.353 88.1678 0
    endloop
  endfacet
  facet normal 0 0 1
    outer loop
      vertex 115.577 95.6136 0
      vertex 115.577 -95.6136 0
      vertex 121.353 -88.1678 0
    endloop
  endfacet
  facet normal 0 0 1
    outer loop
      vertex 109.345 102.682 0
      vertex 115.577 -95.6136 0
      vertex 115.577 95.6136 0
    endloop
  endfacet
  facet normal 0 0 1
    outer loop
      vertex 109.345 102.682 0
      vertex 109.345 -102.682 0
      vertex 115.577 -95.6136 0
    endloop
  endfacet
  facet normal 0 0 1
    outer loop
      vertex 102.682 109.345 0
      vertex 109.345 -102.682 0
      vertex 109.345 102.682 0
    endloop
  endfacet
  facet normal 0 0 1
    outer loop
      vertex 102.682 109.345 0
      vertex 102.682 -109.345 0
      vertex 109.345 -102.682 0
    endloop
  endfacet
  facet normal 0 0 1
    outer loop
      vertex 95.6136 115.577 0
      vertex 102.682 -109.345 0
      vertex 102.682 109.345 0
    endloop
  endfacet
  facet normal 0 0 1
    outer loop
      vertex 95.6136 115.577 0
      vertex 95.6136 -115.577 0
      vertex 102.682 -109.345 0
    endloop
  endfacet
  facet normal 0 0 1
    outer loop
      vertex 88.1678 121.353 0
      vertex 95.6136 -115.577 0
      vertex 95.6136 115.577 0
    endloop
  endfacet
  facet normal 0 0 1
    outer loop
      vertex 88.1678 121.353 0
      vertex 88.1678 -121.353 0
      vertex 95.6136 -115.577 0
    endloop
  endfacet
  facet normal 0 0 1
    outer loop
      vertex 80.374 126.649 0
      vertex 88.1678 -121.353 0
      vertex 88.1678 121.353 0
    endloop
  endfacet
  facet normal 0 0 1
    outer loop
      vertex 80.374 126.649 0
      vertex 80.374 -126.649 0
      vertex 88.1678 -121.353 0
    endloop
  endfacet
  facet normal 0 0 1
    outer loop
      vertex 72.2631 131.446 0
      vertex 80.374 -126.649 0
      vertex 80.374 126.649 0
    endloop
  endfacet
  facet normal 0 0 1
    outer loop
      vertex 72.2631 131.446 0
      vertex 72.2631 -131.446 0
      vertex 80.374 -126.649 0
    endloop
  endfacet
  facet normal 0 0 1
    outer loop
      vertex 63.8669 135.724 0
      vertex 72.2631 -131.446 0
      vertex 72.2631 131.446 0
    endloop
  endfacet
  facet normal 0 0 1
    outer loop
      vertex 63.8669 135.724 0
      vertex 63.8669 -135.724 0
      vertex 72.2631 -131.446 0
    endloop
  endfacet
  facet normal 0 0 1
    outer loop
      vertex 55.2187 139.466 0
      vertex 63.8669 -135.724 0
      vertex 63.8669 135.724 0
    endloop
  endfacet
  facet normal 0 0 1
    outer loop
      vertex 55.2187 139.466 0
      vertex 55.2187 -139.466 0
      vertex 63.8669 -135.724 0
    endloop
  endfacet
  facet normal 0 0 1
    outer loop
      vertex 46.3526 142.658 0
      vertex 55.2187 -139.466 0
      vertex 55.2187 139.466 0
    endloop
  endfacet
  facet normal 0 0 1
    outer loop
      vertex 46.3526 142.658 0
      vertex 46.3526 -142.658 0
      vertex 55.2187 -139.466 0
    endloop
  endfacet
  facet normal 0 0 1
    outer loop
      vertex 37.3035 145.287 0
      vertex 46.3526 -142.658 0
      vertex 46.3526 142.658 0
    endloop
  endfacet
  facet normal 0 0 1
    outer loop
      vertex 37.3035 145.287 0
      vertex 37.3035 -145.287 0
      vertex 46.3526 -142.658 0
    endloop
  endfacet
  facet normal 0 0 1
    outer loop
      vertex 28.1072 147.343 0
      vertex 37.3035 -145.287 0
      vertex 37.3035 145.287 0
    endloop
  endfacet
  facet normal 0 0 1
    outer loop
      vertex 28.1072 147.343 0
      vertex 28.1072 -147.343 0
      vertex 37.3035 -145.287 0
    endloop
  endfacet
  facet normal 0 0 1
    outer loop
      vertex 18.8 148.817 0
      vertex 28.1072 -147.343 0
      vertex 28.1072 147.343 0
    endloop
  endfacet
  facet normal 0 0 1
    outer loop
      vertex 18.8 148.817 0
      vertex 18.8 -148.817 0
      vertex 28.1072 -147.343 0
    endloop
  endfacet
  facet normal 0 0 1
    outer loop
      vertex 9.41858 149.704 0
      vertex 18.8 -148.817 0
      vertex 18.8 148.817 0
    endloop
  endfacet
  facet normal 0 0 1
    outer loop
      vertex 9.41858 149.704 0
      vertex 9.41858 -149.704 0
      vertex 18.8 -148.817 0
    endloop
  endfacet
  facet normal 0 0 1
    outer loop
      vertex 9.18485e-15 150 0
      vertex 9.41858 -149.704 0
      vertex 9.41858 149.704 0
    endloop
  endfacet
  facet normal 0 0 1
    outer loop
      vertex 9.18485e-15 150 0
      vertex -2.75546e-14 -150 0
      vertex 9.41858 -149.704 0
    endloop
  endfacet
  facet normal -0 0 1
    outer loop
      vertex -9.41858 149.704 0
      vertex -2.75546e-14 -150 0
      vertex 9.18485e-15 150 0
    endloop
  endfacet
  facet normal 0 0 1
    outer loop
      vertex -9.41858 149.704 0
      vertex -9.41858 -149.704 0
      vertex -2.75546e-14 -150 0
    endloop
  endfacet
  facet normal -0 0 1
    outer loop
      vertex -18.8 148.817 0
      vertex -9.41858 -149.704 0
      vertex -9.41858 149.704 0
    endloop
  endfacet
  facet normal 0 0 1
    outer loop
      vertex -18.8 148.817 0
      vertex -18.8 -148.817 0
      vertex -9.41858 -149.704 0
    endloop
  endfacet
  facet normal -0 0 1
    outer loop
      vertex -28.1072 147.343 0
      vertex -18.8 -148.817 0
      vertex -18.8 148.817 0
    endloop
  endfacet
  facet normal 0 0 1
    outer loop
      vertex -28.1072 147.343 0
      vertex -28.1072 -147.343 0
      vertex -18.8 -148.817 0
    endloop
  endfacet
  facet normal -0 0 1
    outer loop
      vertex -37.3035 145.287 0
      vertex -28.1072 -147.343 0
      vertex -28.1072 147.343 0
    endloop
  endfacet
  facet normal 0 0 1
    outer loop
      vertex -37.3035 145.287 0
      vertex -37.3035 -145.287 0
      vertex -28.1072 -147.343 0
    endloop
  endfacet
  facet normal -0 0 1
    outer loop
      vertex -46.3526 142.658 0
      vertex -37.3035 -145.287 0
      vertex -37.3035 145.287 0
    endloop
  endfacet
  facet normal 0 0 1
    outer loop
      vertex -46.3526 142.658 0
      vertex -46.3526 -142.658 0
      vertex -37.3035 -145.287 0
    endloop
  endfacet
  facet normal -0 0 1
    outer loop
      vertex -55.2187 139.466 0
      vertex -46.3526 -142.658 0
      vertex -46.3526 142.658 0
    endloop
  endfacet
  facet normal 0 0 1
    outer loop
      vertex -55.2187 139.466 0
      vertex -55.2187 -139.466 0
      vertex -46.3526 -142.658 0
    endloop
  endfacet
  facet normal -0 0 1
    outer loop
      vertex -63.8669 135.724 0
      vertex -55.2187 -139.466 0
      vertex -55.2187 139.466 0
    endloop
  endfacet
  facet normal 0 0 1
    outer loop
      vertex -63.8669 135.724 0
      vertex -63.8669 -135.724 0
      vertex -55.2187 -139.466 0
    endloop
  endfacet
  facet normal -0 0 1
    outer loop
      vertex -72.2631 131.446 0
      vertex -63.8669 -135.724 0
      vertex -63.8669 135.724 0
    endloop
  endfacet
  facet normal 0 0 1
    outer loop
      vertex -72.2631 131.446 0
      vertex -72.2631 -131.446 0
      vertex -63.8669 -135.724 0
    endloop
  endfacet
  facet normal -0 0 1
    outer loop
      vertex -80.374 126.649 0
      vertex -72.2631 -131.446 0
      vertex -72.2631 131.446 0
    endloop
  endfacet
  facet normal 0 0 1
    outer loop
      vertex -80.374 126.649 0
      vertex -80.374 -126.649 0
      vertex -72.2631 -131.446 0
    endloop
  endfacet
  facet normal -0 0 1
    outer loop
      vertex -88.1678 121.353 0
      vertex -80.374 -126.649 0
      vertex -80.374 126.649 0
    endloop
  endfacet
  facet normal 0 0 1
    outer loop
      vertex -88.1678 121.353 0
      vertex -88.1678 -121.353 0
      vertex -80.374 -126.649 0
    endloop
  endfacet
  facet normal -0 0 1
    outer loop
      vertex -95.6136 115.577 0
      vertex -88.1678 -121.353 0
      vertex -88.1678 121.353 0
    endloop
  endfacet
  facet normal 0 0 1
    outer loop
      vertex -95.6136 115.577 0
      vertex -95.6136 -115.577 0
      vertex -88.1678 -121.353 0
    endloop
  endfacet
  facet normal -0 0 1
    outer loop
      vertex -102.682 109.345 0
      vertex -95.6136 -115.577 0
      vertex -95.6136 115.577 0
    endloop
  endfacet
  facet normal 0 0 1
    outer loop
      vertex -102.682 109.345 0
      vertex -102.682 -109.345 0
      vertex -95.6136 -115.577 0
    endloop
  endfacet
  facet normal -0 0 1
    outer loop
      vertex -109.345 102.682 0
      vertex -102.682 -109.345 0
      vertex -102.682 109.345 0
    endloop
  endfacet
  facet normal 0 0 1
    outer loop
      vertex -109.345 102.682 0
      vertex -109.345 -102.682 0
      vertex -102.682 -109.345 0
    endloop
  endfacet
  facet normal -0 0 1
    outer loop
      vertex -115.577 95.6136 0
      vertex -109.345 -102.682 0
      vertex -109.345 102.682 0
    endloop
  endfacet
  facet normal 0 0 1
    outer loop
      vertex -115.577 95.6136 0
      vertex -115.577 -95.6136 0
      vertex -109.345 -102.682 0
    endloop
  endfacet
  facet normal -0 0 1
    outer loop
      vertex -121.353 88.1678 0
      vertex -115.577 -95.6136 0
      vertex -115.577 95.6136 0
    endloop
  endfacet
  facet normal 0 0 1
    outer loop
      vertex -121.353 88.1678 0
      vertex -121.353 -88.1678 0
      vertex -115.577 -95.6136 0
    endloop
  endfacet
  facet normal -0 0 1
    outer loop
      vertex -126.649 80.374 0
      vertex -121.353 -88.1678 0
      vertex -121.353 88.1678 0
    endloop
  endfacet
  facet normal 0 0 1
    outer loop
      vertex -126.649 80.374 0
      vertex -126.649 -80.374 0
      vertex -121.353 -88.1678 0
    endloop
  endfacet
  facet normal -0 0 1
    outer loop
      vertex -131.446 72.2631 0
      vertex -126.649 -80.374 0
      vertex -126.649 80.374 0
    endloop
  endfacet
  facet normal 0 0 1
    outer loop
      vertex -131.446 72.2631 0
      vertex -131.446 -72.2631 0
      vertex -126.649 -80.374 0
    endloop
  endfacet
  facet normal -0 0 1
    outer loop
      vertex -135.724 63.8669 0
      vertex -131.446 -72.2631 0
      vertex -131.446 72.2631 0
    endloop
  endfacet
  facet normal 0 0 1
    outer loop
      vertex -135.724 63.8669 0
      vertex -135.724 -63.8669 0
      vertex -131.446 -72.2631 0
    endloop
  endfacet
  facet normal -0 0 1
    outer loop
      vertex -139.466 55.2187 0
      vertex -135.724 -63.8669 0
      vertex -135.724 63.8669 0
    endloop
  endfacet
  facet normal 0 0 1
    outer loop
      vertex -139.466 55.2187 0
      vertex -139.466 -55.2187 0
      vertex -135.724 -63.8669 0
    endloop
  endfacet
  facet normal -0 0 1
    outer loop
      vertex -142.658 46.3526 0
      vertex -139.466 -55.2187 0
      vertex -139.466 55.2187 0
    endloop
  endfacet
  facet normal 0 0 1
    outer loop
      vertex -142.658 46.3526 0
      vertex -142.658 -46.3526 0
      vertex -139.466 -55.2187 0
    endloop
  endfacet
  facet normal -0 0 1
    outer loop
      vertex -145.287 37.3035 0
      vertex -142.658 -46.3526 0
      vertex -142.658 46.3526 0
    endloop
  endfacet
  facet normal 0 0 1
    outer loop
      vertex -145.287 37.3035 0
      vertex -145.287 -37.3035 0
      vertex -142.658 -46.3526 0
    endloop
  endfacet
  facet normal -0 0 1
    outer loop
      vertex -147.343 28.1072 0
      vertex -145.287 -37.3035 0
      vertex -145.287 37.3035 0
    endloop
  endfacet
  facet normal 0 0 1
    outer loop
      vertex -147.343 28.1072 0
      vertex -147.343 -28.1072 0
      vertex -145.287 -37.3035 0
    endloop
  endfacet
  facet normal -0 0 1
    outer loop
      vertex -148.817 18.8 0
      vertex -147.343 -28.1072 0
      vertex -147.343 28.1072 0
    endloop
  endfacet
  facet normal 0 0 1
    outer loop
      vertex -148.817 18.8 0
      vertex -148.817 -18.8 0
      vertex -147.343 -28.1072 0
    endloop
  endfacet
  facet normal -0 0 1
    outer loop
      vertex -149.704 9.41858 0
      vertex -148.817 -18.8 0
      vertex -148.817 18.8 0
    endloop
  endfacet
  facet normal 0 0 1
    outer loop
      vertex -149.704 9.41858 0
      vertex -149.704 -9.41858 0
      vertex -148.817 -18.8 0
    endloop
  endfacet
  facet normal 0 -0 1
    outer loop
      vertex -149.704 -9.41858 0
      vertex -149.704 9.41858 0
      vertex -150 1.83697e-14 0
    endloop
  endfacet
endsolid OpenSCAD_Model
