solid OpenSCAD_Model
  facet normal 0.999786 0.0206918 0
    outer loop
      vertex 303 0 10
      vertex 302.987 0.628135 -10
      vertex 302.987 0.628135 10
    endloop
  endfacet
  facet normal 0.999786 0.0206918 0
    outer loop
      vertex 302.987 0.628135 -10
      vertex 303 0 10
      vertex 303 0 -10
    endloop
  endfacet
  facet normal 0.997971 0.0636629 0
    outer loop
      vertex 302.987 0.628135 10
      vertex 302.947 1.25517 -10
      vertex 302.947 1.25517 10
    endloop
  endfacet
  facet normal 0.997971 0.0636629 0
    outer loop
      vertex 302.947 1.25517 -10
      vertex 302.987 0.628135 10
      vertex 302.987 0.628135 -10
    endloop
  endfacet
  facet normal 0.994633 0.10347 0
    outer loop
      vertex 302.947 1.25517 10
      vertex 302.882 1.88 -10
      vertex 302.882 1.88 10
    endloop
  endfacet
  facet normal 0.994633 0.10347 0
    outer loop
      vertex 302.882 1.88 -10
      vertex 302.947 1.25517 10
      vertex 302.947 1.25517 -10
    endloop
  endfacet
  facet normal 0.989222 0.146426 0
    outer loop
      vertex 302.882 1.88 10
      vertex 302.79 2.50153 -10
      vertex 302.79 2.50153 10
    endloop
  endfacet
  facet normal 0.989222 0.146426 0
    outer loop
      vertex 302.79 2.50153 -10
      vertex 302.882 1.88 10
      vertex 302.882 1.88 -10
    endloop
  endfacet
  facet normal 0.982207 0.1878 0
    outer loop
      vertex 302.79 2.50153 10
      vertex 302.672 3.11868 -10
      vertex 302.672 3.11868 10
    endloop
  endfacet
  facet normal 0.982207 0.1878 0
    outer loop
      vertex 302.672 3.11868 -10
      vertex 302.79 2.50153 10
      vertex 302.79 2.50153 -10
    endloop
  endfacet
  facet normal 0.973744 0.227648 0
    outer loop
      vertex 302.672 3.11868 10
      vertex 302.529 3.73035 -10
      vertex 302.529 3.73035 10
    endloop
  endfacet
  facet normal 0.973744 0.227648 0
    outer loop
      vertex 302.529 3.73035 -10
      vertex 302.672 3.11868 10
      vertex 302.672 3.11868 -10
    endloop
  endfacet
  facet normal 0.963144 0.268986 0
    outer loop
      vertex 302.529 3.73035 10
      vertex 302.36 4.33548 -10
      vertex 302.36 4.33548 10
    endloop
  endfacet
  facet normal 0.963144 0.268986 0
    outer loop
      vertex 302.36 4.33548 -10
      vertex 302.529 3.73035 10
      vertex 302.529 3.73035 -10
    endloop
  endfacet
  facet normal 0.951125 0.308807 0
    outer loop
      vertex 302.36 4.33548 10
      vertex 302.166 4.933 -10
      vertex 302.166 4.933 10
    endloop
  endfacet
  facet normal 0.951125 0.308807 0
    outer loop
      vertex 302.166 4.933 -10
      vertex 302.36 4.33548 10
      vertex 302.36 4.33548 -10
    endloop
  endfacet
  facet normal 0.937281 0.348574 0
    outer loop
      vertex 302.166 4.933 10
      vertex 301.947 5.52187 -10
      vertex 301.947 5.52187 10
    endloop
  endfacet
  facet normal 0.937281 0.348574 0
    outer loop
      vertex 301.947 5.52187 -10
      vertex 302.166 4.933 10
      vertex 302.166 4.933 -10
    endloop
  endfacet
  facet normal 0.921559 0.388239 0
    outer loop
      vertex 301.947 5.52187 10
      vertex 301.703 6.10105 -10
      vertex 301.703 6.10105 10
    endloop
  endfacet
  facet normal 0.921559 0.388239 0
    outer loop
      vertex 301.703 6.10105 -10
      vertex 301.947 5.52187 10
      vertex 301.947 5.52187 -10
    endloop
  endfacet
  facet normal 0.905137 0.425119 0
    outer loop
      vertex 301.703 6.10105 10
      vertex 301.436 6.66953 -10
      vertex 301.436 6.66953 10
    endloop
  endfacet
  facet normal 0.905137 0.425119 0
    outer loop
      vertex 301.436 6.66953 -10
      vertex 301.703 6.10105 10
      vertex 301.703 6.10105 -10
    endloop
  endfacet
  facet normal 0.886254 0.463199 0
    outer loop
      vertex 301.436 6.66953 10
      vertex 301.145 7.22631 -10
      vertex 301.145 7.22631 10
    endloop
  endfacet
  facet normal 0.886254 0.463199 0
    outer loop
      vertex 301.145 7.22631 -10
      vertex 301.436 6.66953 10
      vertex 301.436 6.66953 -10
    endloop
  endfacet
  facet normal 0.86543 0.50103 0
    outer loop
      vertex 301.145 7.22631 10
      vertex 300.83 7.77041 -10
      vertex 300.83 7.77041 10
    endloop
  endfacet
  facet normal 0.86543 0.50103 0
    outer loop
      vertex 300.83 7.77041 -10
      vertex 301.145 7.22631 10
      vertex 301.145 7.22631 -10
    endloop
  endfacet
  facet normal 0.844789 0.5351 0
    outer loop
      vertex 300.83 7.77041 10
      vertex 300.494 8.30087 -10
      vertex 300.494 8.30087 10
    endloop
  endfacet
  facet normal 0.844789 0.5351 0
    outer loop
      vertex 300.494 8.30087 -10
      vertex 300.83 7.77041 10
      vertex 300.83 7.77041 -10
    endloop
  endfacet
  facet normal 0.820826 0.571178 0
    outer loop
      vertex 300.494 8.30087 10
      vertex 300.135 8.81678 -10
      vertex 300.135 8.81678 10
    endloop
  endfacet
  facet normal 0.820826 0.571178 0
    outer loop
      vertex 300.135 8.81678 -10
      vertex 300.494 8.30087 10
      vertex 300.494 8.30087 -10
    endloop
  endfacet
  facet normal 0.796418 0.604746 0
    outer loop
      vertex 300.135 8.81678 10
      vertex 299.755 9.31722 -10
      vertex 299.755 9.31722 10
    endloop
  endfacet
  facet normal 0.796418 0.604746 0
    outer loop
      vertex 299.755 9.31722 -10
      vertex 300.135 8.81678 10
      vertex 300.135 8.81678 -10
    endloop
  endfacet
  facet normal 0.770884 0.636976 0
    outer loop
      vertex 299.755 9.31722 10
      vertex 299.355 9.80131 -10
      vertex 299.355 9.80131 10
    endloop
  endfacet
  facet normal 0.770884 0.636976 0
    outer loop
      vertex 299.355 9.80131 -10
      vertex 299.755 9.31722 10
      vertex 299.755 9.31722 -10
    endloop
  endfacet
  facet normal 0.743453 0.668788 0
    outer loop
      vertex 299.355 9.80131 10
      vertex 298.935 10.2682 -10
      vertex 298.935 10.2682 10
    endloop
  endfacet
  facet normal 0.743453 0.668788 0
    outer loop
      vertex 298.935 10.2682 -10
      vertex 299.355 9.80131 10
      vertex 299.355 9.80131 -10
    endloop
  endfacet
  facet normal 0.714151 0.699992 0
    outer loop
      vertex 298.935 10.2682 10
      vertex 298.495 10.7171 -10
      vertex 298.495 10.7171 10
    endloop
  endfacet
  facet normal 0.714151 0.699992 0
    outer loop
      vertex 298.495 10.7171 -10
      vertex 298.935 10.2682 10
      vertex 298.935 10.2682 -10
    endloop
  endfacet
  facet normal 0.684555 0.728961 -0
    outer loop
      vertex 298.495 10.7171 -10
      vertex 298.037 11.1472 10
      vertex 298.495 10.7171 10
    endloop
  endfacet
  facet normal 0.684555 0.728961 0
    outer loop
      vertex 298.037 11.1472 10
      vertex 298.495 10.7171 -10
      vertex 298.037 11.1472 -10
    endloop
  endfacet
  facet normal 0.653081 0.757288 -0
    outer loop
      vertex 298.037 11.1472 -10
      vertex 297.561 11.5577 10
      vertex 298.037 11.1472 10
    endloop
  endfacet
  facet normal 0.653081 0.757288 0
    outer loop
      vertex 297.561 11.5577 10
      vertex 298.037 11.1472 -10
      vertex 297.561 11.5577 -10
    endloop
  endfacet
  facet normal 0.621388 0.783503 -0
    outer loop
      vertex 297.561 11.5577 -10
      vertex 297.069 11.9479 10
      vertex 297.561 11.5577 10
    endloop
  endfacet
  facet normal 0.621388 0.783503 0
    outer loop
      vertex 297.069 11.9479 10
      vertex 297.561 11.5577 -10
      vertex 297.069 11.9479 -10
    endloop
  endfacet
  facet normal 0.588011 0.808853 -0
    outer loop
      vertex 297.069 11.9479 -10
      vertex 296.561 12.3172 10
      vertex 297.069 11.9479 10
    endloop
  endfacet
  facet normal 0.588011 0.808853 0
    outer loop
      vertex 296.561 12.3172 10
      vertex 297.069 11.9479 -10
      vertex 296.561 12.3172 -10
    endloop
  endfacet
  facet normal 0.552901 0.833247 -0
    outer loop
      vertex 296.561 12.3172 -10
      vertex 296.037 12.6649 10
      vertex 296.561 12.3172 10
    endloop
  endfacet
  facet normal 0.552901 0.833247 0
    outer loop
      vertex 296.037 12.6649 10
      vertex 296.561 12.3172 -10
      vertex 296.037 12.6649 -10
    endloop
  endfacet
  facet normal 0.518355 0.855166 -0
    outer loop
      vertex 296.037 12.6649 -10
      vertex 295.5 12.9904 10
      vertex 296.037 12.6649 10
    endloop
  endfacet
  facet normal 0.518355 0.855166 0
    outer loop
      vertex 295.5 12.9904 10
      vertex 296.037 12.6649 -10
      vertex 295.5 12.9904 -10
    endloop
  endfacet
  facet normal 0.481491 0.876451 -0
    outer loop
      vertex 295.5 12.9904 -10
      vertex 294.949 13.2931 10
      vertex 295.5 12.9904 10
    endloop
  endfacet
  facet normal 0.481491 0.876451 0
    outer loop
      vertex 294.949 13.2931 10
      vertex 295.5 12.9904 -10
      vertex 294.949 13.2931 -10
    endloop
  endfacet
  facet normal 0.445045 0.895508 -0
    outer loop
      vertex 294.949 13.2931 -10
      vertex 294.387 13.5724 10
      vertex 294.949 13.2931 10
    endloop
  endfacet
  facet normal 0.445045 0.895508 0
    outer loop
      vertex 294.387 13.5724 10
      vertex 294.949 13.2931 -10
      vertex 294.387 13.5724 -10
    endloop
  endfacet
  facet normal 0.406655 0.913582 -0
    outer loop
      vertex 294.387 13.5724 -10
      vertex 293.813 13.8279 10
      vertex 294.387 13.5724 10
    endloop
  endfacet
  facet normal 0.406655 0.913582 0
    outer loop
      vertex 293.813 13.8279 10
      vertex 294.387 13.5724 -10
      vertex 293.813 13.8279 -10
    endloop
  endfacet
  facet normal 0.368232 0.929734 -0
    outer loop
      vertex 293.813 13.8279 -10
      vertex 293.229 14.0592 10
      vertex 293.813 13.8279 10
    endloop
  endfacet
  facet normal 0.368232 0.929734 0
    outer loop
      vertex 293.229 14.0592 10
      vertex 293.813 13.8279 -10
      vertex 293.229 14.0592 -10
    endloop
  endfacet
  facet normal 0.328508 0.944501 -0
    outer loop
      vertex 293.229 14.0592 -10
      vertex 292.635 14.2658 10
      vertex 293.229 14.0592 10
    endloop
  endfacet
  facet normal 0.328508 0.944501 0
    outer loop
      vertex 292.635 14.2658 10
      vertex 293.229 14.0592 -10
      vertex 292.635 14.2658 -10
    endloop
  endfacet
  facet normal 0.289247 0.957255 -0
    outer loop
      vertex 292.635 14.2658 -10
      vertex 292.034 14.4474 10
      vertex 292.635 14.2658 10
    endloop
  endfacet
  facet normal 0.289247 0.957255 0
    outer loop
      vertex 292.034 14.4474 10
      vertex 292.635 14.2658 -10
      vertex 292.034 14.4474 -10
    endloop
  endfacet
  facet normal 0.248593 0.968608 -0
    outer loop
      vertex 292.034 14.4474 -10
      vertex 291.425 14.6037 10
      vertex 292.034 14.4474 10
    endloop
  endfacet
  facet normal 0.248593 0.968608 0
    outer loop
      vertex 291.425 14.6037 10
      vertex 292.034 14.4474 -10
      vertex 291.425 14.6037 -10
    endloop
  endfacet
  facet normal 0.208049 0.978118 -0
    outer loop
      vertex 291.425 14.6037 -10
      vertex 290.811 14.7343 10
      vertex 291.425 14.6037 10
    endloop
  endfacet
  facet normal 0.208049 0.978118 0
    outer loop
      vertex 290.811 14.7343 10
      vertex 291.425 14.6037 -10
      vertex 290.811 14.7343 -10
    endloop
  endfacet
  facet normal 0.166668 0.986013 -0
    outer loop
      vertex 290.811 14.7343 -10
      vertex 290.191 14.8391 10
      vertex 290.811 14.7343 10
    endloop
  endfacet
  facet normal 0.166668 0.986013 0
    outer loop
      vertex 290.191 14.8391 10
      vertex 290.811 14.7343 -10
      vertex 290.191 14.8391 -10
    endloop
  endfacet
  facet normal 0.125328 0.992115 -0
    outer loop
      vertex 290.191 14.8391 -10
      vertex 289.568 14.9178 10
      vertex 290.191 14.8391 10
    endloop
  endfacet
  facet normal 0.125328 0.992115 0
    outer loop
      vertex 289.568 14.9178 10
      vertex 290.191 14.8391 -10
      vertex 289.568 14.9178 -10
    endloop
  endfacet
  facet normal 0.0837305 0.996488 -0
    outer loop
      vertex 289.568 14.9178 -10
      vertex 288.942 14.9704 10
      vertex 289.568 14.9178 10
    endloop
  endfacet
  facet normal 0.0837305 0.996488 0
    outer loop
      vertex 288.942 14.9704 10
      vertex 289.568 14.9178 -10
      vertex 288.942 14.9704 -10
    endloop
  endfacet
  facet normal 0.0418423 0.999124 -0
    outer loop
      vertex 288.942 14.9704 -10
      vertex 288.314 14.9967 10
      vertex 288.942 14.9704 10
    endloop
  endfacet
  facet normal 0.0418423 0.999124 0
    outer loop
      vertex 288.314 14.9967 10
      vertex 288.942 14.9704 -10
      vertex 288.314 14.9967 -10
    endloop
  endfacet
  facet normal 0 1 -0
    outer loop
      vertex 288.314 14.9967 -10
      vertex 287.686 14.9967 10
      vertex 288.314 14.9967 10
    endloop
  endfacet
  facet normal 0 1 0
    outer loop
      vertex 287.686 14.9967 10
      vertex 288.314 14.9967 -10
      vertex 287.686 14.9967 -10
    endloop
  endfacet
  facet normal -0.0418423 0.999124 0
    outer loop
      vertex 287.686 14.9967 -10
      vertex 287.058 14.9704 10
      vertex 287.686 14.9967 10
    endloop
  endfacet
  facet normal -0.0418423 0.999124 0
    outer loop
      vertex 287.058 14.9704 10
      vertex 287.686 14.9967 -10
      vertex 287.058 14.9704 -10
    endloop
  endfacet
  facet normal -0.0837305 0.996488 0
    outer loop
      vertex 287.058 14.9704 -10
      vertex 286.432 14.9178 10
      vertex 287.058 14.9704 10
    endloop
  endfacet
  facet normal -0.0837305 0.996488 0
    outer loop
      vertex 286.432 14.9178 10
      vertex 287.058 14.9704 -10
      vertex 286.432 14.9178 -10
    endloop
  endfacet
  facet normal -0.125328 0.992115 0
    outer loop
      vertex 286.432 14.9178 -10
      vertex 285.809 14.8391 10
      vertex 286.432 14.9178 10
    endloop
  endfacet
  facet normal -0.125328 0.992115 0
    outer loop
      vertex 285.809 14.8391 10
      vertex 286.432 14.9178 -10
      vertex 285.809 14.8391 -10
    endloop
  endfacet
  facet normal -0.166668 0.986013 0
    outer loop
      vertex 285.809 14.8391 -10
      vertex 285.189 14.7343 10
      vertex 285.809 14.8391 10
    endloop
  endfacet
  facet normal -0.166668 0.986013 0
    outer loop
      vertex 285.189 14.7343 10
      vertex 285.809 14.8391 -10
      vertex 285.189 14.7343 -10
    endloop
  endfacet
  facet normal -0.208049 0.978118 0
    outer loop
      vertex 285.189 14.7343 -10
      vertex 284.575 14.6037 10
      vertex 285.189 14.7343 10
    endloop
  endfacet
  facet normal -0.208049 0.978118 0
    outer loop
      vertex 284.575 14.6037 10
      vertex 285.189 14.7343 -10
      vertex 284.575 14.6037 -10
    endloop
  endfacet
  facet normal -0.248593 0.968608 0
    outer loop
      vertex 284.575 14.6037 -10
      vertex 283.966 14.4474 10
      vertex 284.575 14.6037 10
    endloop
  endfacet
  facet normal -0.248593 0.968608 0
    outer loop
      vertex 283.966 14.4474 10
      vertex 284.575 14.6037 -10
      vertex 283.966 14.4474 -10
    endloop
  endfacet
  facet normal -0.289247 0.957255 0
    outer loop
      vertex 283.966 14.4474 -10
      vertex 283.365 14.2658 10
      vertex 283.966 14.4474 10
    endloop
  endfacet
  facet normal -0.289247 0.957255 0
    outer loop
      vertex 283.365 14.2658 10
      vertex 283.966 14.4474 -10
      vertex 283.365 14.2658 -10
    endloop
  endfacet
  facet normal -0.328508 0.944501 0
    outer loop
      vertex 283.365 14.2658 -10
      vertex 282.771 14.0592 10
      vertex 283.365 14.2658 10
    endloop
  endfacet
  facet normal -0.328508 0.944501 0
    outer loop
      vertex 282.771 14.0592 10
      vertex 283.365 14.2658 -10
      vertex 282.771 14.0592 -10
    endloop
  endfacet
  facet normal -0.368232 0.929734 0
    outer loop
      vertex 282.771 14.0592 -10
      vertex 282.187 13.8279 10
      vertex 282.771 14.0592 10
    endloop
  endfacet
  facet normal -0.368232 0.929734 0
    outer loop
      vertex 282.187 13.8279 10
      vertex 282.771 14.0592 -10
      vertex 282.187 13.8279 -10
    endloop
  endfacet
  facet normal -0.406655 0.913582 0
    outer loop
      vertex 282.187 13.8279 -10
      vertex 281.613 13.5724 10
      vertex 282.187 13.8279 10
    endloop
  endfacet
  facet normal -0.406655 0.913582 0
    outer loop
      vertex 281.613 13.5724 10
      vertex 282.187 13.8279 -10
      vertex 281.613 13.5724 -10
    endloop
  endfacet
  facet normal -0.445045 0.895508 0
    outer loop
      vertex 281.613 13.5724 -10
      vertex 281.051 13.2931 10
      vertex 281.613 13.5724 10
    endloop
  endfacet
  facet normal -0.445045 0.895508 0
    outer loop
      vertex 281.051 13.2931 10
      vertex 281.613 13.5724 -10
      vertex 281.051 13.2931 -10
    endloop
  endfacet
  facet normal -0.481491 0.876451 0
    outer loop
      vertex 281.051 13.2931 -10
      vertex 280.5 12.9904 10
      vertex 281.051 13.2931 10
    endloop
  endfacet
  facet normal -0.481491 0.876451 0
    outer loop
      vertex 280.5 12.9904 10
      vertex 281.051 13.2931 -10
      vertex 280.5 12.9904 -10
    endloop
  endfacet
  facet normal -0.518355 0.855166 0
    outer loop
      vertex 280.5 12.9904 -10
      vertex 279.963 12.6649 10
      vertex 280.5 12.9904 10
    endloop
  endfacet
  facet normal -0.518355 0.855166 0
    outer loop
      vertex 279.963 12.6649 10
      vertex 280.5 12.9904 -10
      vertex 279.963 12.6649 -10
    endloop
  endfacet
  facet normal -0.552901 0.833247 0
    outer loop
      vertex 279.963 12.6649 -10
      vertex 279.439 12.3172 10
      vertex 279.963 12.6649 10
    endloop
  endfacet
  facet normal -0.552901 0.833247 0
    outer loop
      vertex 279.439 12.3172 10
      vertex 279.963 12.6649 -10
      vertex 279.439 12.3172 -10
    endloop
  endfacet
  facet normal -0.588011 0.808853 0
    outer loop
      vertex 279.439 12.3172 -10
      vertex 278.931 11.9479 10
      vertex 279.439 12.3172 10
    endloop
  endfacet
  facet normal -0.588011 0.808853 0
    outer loop
      vertex 278.931 11.9479 10
      vertex 279.439 12.3172 -10
      vertex 278.931 11.9479 -10
    endloop
  endfacet
  facet normal -0.621388 0.783503 0
    outer loop
      vertex 278.931 11.9479 -10
      vertex 278.439 11.5577 10
      vertex 278.931 11.9479 10
    endloop
  endfacet
  facet normal -0.621388 0.783503 0
    outer loop
      vertex 278.439 11.5577 10
      vertex 278.931 11.9479 -10
      vertex 278.439 11.5577 -10
    endloop
  endfacet
  facet normal -0.653081 0.757288 0
    outer loop
      vertex 278.439 11.5577 -10
      vertex 277.963 11.1472 10
      vertex 278.439 11.5577 10
    endloop
  endfacet
  facet normal -0.653081 0.757288 0
    outer loop
      vertex 277.963 11.1472 10
      vertex 278.439 11.5577 -10
      vertex 277.963 11.1472 -10
    endloop
  endfacet
  facet normal -0.684555 0.728961 0
    outer loop
      vertex 277.963 11.1472 -10
      vertex 277.505 10.7171 10
      vertex 277.963 11.1472 10
    endloop
  endfacet
  facet normal -0.684555 0.728961 0
    outer loop
      vertex 277.505 10.7171 10
      vertex 277.963 11.1472 -10
      vertex 277.505 10.7171 -10
    endloop
  endfacet
  facet normal -0.714151 0.699992 0
    outer loop
      vertex 277.065 10.2682 -10
      vertex 277.505 10.7171 10
      vertex 277.505 10.7171 -10
    endloop
  endfacet
  facet normal -0.714151 0.699992 0
    outer loop
      vertex 277.505 10.7171 10
      vertex 277.065 10.2682 -10
      vertex 277.065 10.2682 10
    endloop
  endfacet
  facet normal -0.743453 0.668788 0
    outer loop
      vertex 276.645 9.80131 -10
      vertex 277.065 10.2682 10
      vertex 277.065 10.2682 -10
    endloop
  endfacet
  facet normal -0.743453 0.668788 0
    outer loop
      vertex 277.065 10.2682 10
      vertex 276.645 9.80131 -10
      vertex 276.645 9.80131 10
    endloop
  endfacet
  facet normal -0.770884 0.636976 0
    outer loop
      vertex 276.245 9.31722 -10
      vertex 276.645 9.80131 10
      vertex 276.645 9.80131 -10
    endloop
  endfacet
  facet normal -0.770884 0.636976 0
    outer loop
      vertex 276.645 9.80131 10
      vertex 276.245 9.31722 -10
      vertex 276.245 9.31722 10
    endloop
  endfacet
  facet normal -0.796418 0.604746 0
    outer loop
      vertex 275.865 8.81678 -10
      vertex 276.245 9.31722 10
      vertex 276.245 9.31722 -10
    endloop
  endfacet
  facet normal -0.796418 0.604746 0
    outer loop
      vertex 276.245 9.31722 10
      vertex 275.865 8.81678 -10
      vertex 275.865 8.81678 10
    endloop
  endfacet
  facet normal -0.820826 0.571178 0
    outer loop
      vertex 275.506 8.30087 -10
      vertex 275.865 8.81678 10
      vertex 275.865 8.81678 -10
    endloop
  endfacet
  facet normal -0.820826 0.571178 0
    outer loop
      vertex 275.865 8.81678 10
      vertex 275.506 8.30087 -10
      vertex 275.506 8.30087 10
    endloop
  endfacet
  facet normal -0.844789 0.5351 0
    outer loop
      vertex 275.17 7.77041 -10
      vertex 275.506 8.30087 10
      vertex 275.506 8.30087 -10
    endloop
  endfacet
  facet normal -0.844789 0.5351 0
    outer loop
      vertex 275.506 8.30087 10
      vertex 275.17 7.77041 -10
      vertex 275.17 7.77041 10
    endloop
  endfacet
  facet normal -0.86543 0.50103 0
    outer loop
      vertex 274.855 7.22631 -10
      vertex 275.17 7.77041 10
      vertex 275.17 7.77041 -10
    endloop
  endfacet
  facet normal -0.86543 0.50103 0
    outer loop
      vertex 275.17 7.77041 10
      vertex 274.855 7.22631 -10
      vertex 274.855 7.22631 10
    endloop
  endfacet
  facet normal -0.886254 0.463199 0
    outer loop
      vertex 274.564 6.66953 -10
      vertex 274.855 7.22631 10
      vertex 274.855 7.22631 -10
    endloop
  endfacet
  facet normal -0.886254 0.463199 0
    outer loop
      vertex 274.855 7.22631 10
      vertex 274.564 6.66953 -10
      vertex 274.564 6.66953 10
    endloop
  endfacet
  facet normal -0.905137 0.425119 0
    outer loop
      vertex 274.297 6.10105 -10
      vertex 274.564 6.66953 10
      vertex 274.564 6.66953 -10
    endloop
  endfacet
  facet normal -0.905137 0.425119 0
    outer loop
      vertex 274.564 6.66953 10
      vertex 274.297 6.10105 -10
      vertex 274.297 6.10105 10
    endloop
  endfacet
  facet normal -0.921559 0.388239 0
    outer loop
      vertex 274.053 5.52187 -10
      vertex 274.297 6.10105 10
      vertex 274.297 6.10105 -10
    endloop
  endfacet
  facet normal -0.921559 0.388239 0
    outer loop
      vertex 274.297 6.10105 10
      vertex 274.053 5.52187 -10
      vertex 274.053 5.52187 10
    endloop
  endfacet
  facet normal -0.937281 0.348574 0
    outer loop
      vertex 273.834 4.933 -10
      vertex 274.053 5.52187 10
      vertex 274.053 5.52187 -10
    endloop
  endfacet
  facet normal -0.937281 0.348574 0
    outer loop
      vertex 274.053 5.52187 10
      vertex 273.834 4.933 -10
      vertex 273.834 4.933 10
    endloop
  endfacet
  facet normal -0.951125 0.308807 0
    outer loop
      vertex 273.64 4.33548 -10
      vertex 273.834 4.933 10
      vertex 273.834 4.933 -10
    endloop
  endfacet
  facet normal -0.951125 0.308807 0
    outer loop
      vertex 273.834 4.933 10
      vertex 273.64 4.33548 -10
      vertex 273.64 4.33548 10
    endloop
  endfacet
  facet normal -0.963144 0.268986 0
    outer loop
      vertex 273.471 3.73035 -10
      vertex 273.64 4.33548 10
      vertex 273.64 4.33548 -10
    endloop
  endfacet
  facet normal -0.963144 0.268986 0
    outer loop
      vertex 273.64 4.33548 10
      vertex 273.471 3.73035 -10
      vertex 273.471 3.73035 10
    endloop
  endfacet
  facet normal -0.973744 0.227648 0
    outer loop
      vertex 273.328 3.11868 -10
      vertex 273.471 3.73035 10
      vertex 273.471 3.73035 -10
    endloop
  endfacet
  facet normal -0.973744 0.227648 0
    outer loop
      vertex 273.471 3.73035 10
      vertex 273.328 3.11868 -10
      vertex 273.328 3.11868 10
    endloop
  endfacet
  facet normal -0.982207 0.1878 0
    outer loop
      vertex 273.21 2.50153 -10
      vertex 273.328 3.11868 10
      vertex 273.328 3.11868 -10
    endloop
  endfacet
  facet normal -0.982207 0.1878 0
    outer loop
      vertex 273.328 3.11868 10
      vertex 273.21 2.50153 -10
      vertex 273.21 2.50153 10
    endloop
  endfacet
  facet normal -0.989222 0.146426 0
    outer loop
      vertex 273.118 1.88 -10
      vertex 273.21 2.50153 10
      vertex 273.21 2.50153 -10
    endloop
  endfacet
  facet normal -0.989222 0.146426 0
    outer loop
      vertex 273.21 2.50153 10
      vertex 273.118 1.88 -10
      vertex 273.118 1.88 10
    endloop
  endfacet
  facet normal -0.994633 0.10347 0
    outer loop
      vertex 273.053 1.25517 -10
      vertex 273.118 1.88 10
      vertex 273.118 1.88 -10
    endloop
  endfacet
  facet normal -0.994633 0.10347 0
    outer loop
      vertex 273.118 1.88 10
      vertex 273.053 1.25517 -10
      vertex 273.053 1.25517 10
    endloop
  endfacet
  facet normal -0.997971 0.0636629 0
    outer loop
      vertex 273.013 0.628135 -10
      vertex 273.053 1.25517 10
      vertex 273.053 1.25517 -10
    endloop
  endfacet
  facet normal -0.997971 0.0636629 0
    outer loop
      vertex 273.053 1.25517 10
      vertex 273.013 0.628135 -10
      vertex 273.013 0.628135 10
    endloop
  endfacet
  facet normal -0.999786 0.0206918 0
    outer loop
      vertex 273 0 -10
      vertex 273.013 0.628135 10
      vertex 273.013 0.628135 -10
    endloop
  endfacet
  facet normal -0.999786 0.0206918 0
    outer loop
      vertex 273.013 0.628135 10
      vertex 273 0 -10
      vertex 273 0 10
    endloop
  endfacet
  facet normal -0.999786 -0.0206918 0
    outer loop
      vertex 273.013 -0.628135 -10
      vertex 273 0 10
      vertex 273 0 -10
    endloop
  endfacet
  facet normal -0.999786 -0.0206918 0
    outer loop
      vertex 273 0 10
      vertex 273.013 -0.628135 -10
      vertex 273.013 -0.628135 10
    endloop
  endfacet
  facet normal -0.997971 -0.0636629 0
    outer loop
      vertex 273.053 -1.25517 -10
      vertex 273.013 -0.628135 10
      vertex 273.013 -0.628135 -10
    endloop
  endfacet
  facet normal -0.997971 -0.0636629 0
    outer loop
      vertex 273.013 -0.628135 10
      vertex 273.053 -1.25517 -10
      vertex 273.053 -1.25517 10
    endloop
  endfacet
  facet normal -0.994633 -0.10347 0
    outer loop
      vertex 273.118 -1.88 -10
      vertex 273.053 -1.25517 10
      vertex 273.053 -1.25517 -10
    endloop
  endfacet
  facet normal -0.994633 -0.10347 0
    outer loop
      vertex 273.053 -1.25517 10
      vertex 273.118 -1.88 -10
      vertex 273.118 -1.88 10
    endloop
  endfacet
  facet normal -0.989222 -0.146426 0
    outer loop
      vertex 273.21 -2.50153 -10
      vertex 273.118 -1.88 10
      vertex 273.118 -1.88 -10
    endloop
  endfacet
  facet normal -0.989222 -0.146426 0
    outer loop
      vertex 273.118 -1.88 10
      vertex 273.21 -2.50153 -10
      vertex 273.21 -2.50153 10
    endloop
  endfacet
  facet normal -0.982207 -0.1878 0
    outer loop
      vertex 273.328 -3.11868 -10
      vertex 273.21 -2.50153 10
      vertex 273.21 -2.50153 -10
    endloop
  endfacet
  facet normal -0.982207 -0.1878 0
    outer loop
      vertex 273.21 -2.50153 10
      vertex 273.328 -3.11868 -10
      vertex 273.328 -3.11868 10
    endloop
  endfacet
  facet normal -0.973744 -0.227648 0
    outer loop
      vertex 273.471 -3.73035 -10
      vertex 273.328 -3.11868 10
      vertex 273.328 -3.11868 -10
    endloop
  endfacet
  facet normal -0.973744 -0.227648 0
    outer loop
      vertex 273.328 -3.11868 10
      vertex 273.471 -3.73035 -10
      vertex 273.471 -3.73035 10
    endloop
  endfacet
  facet normal -0.963144 -0.268986 0
    outer loop
      vertex 273.64 -4.33548 -10
      vertex 273.471 -3.73035 10
      vertex 273.471 -3.73035 -10
    endloop
  endfacet
  facet normal -0.963144 -0.268986 0
    outer loop
      vertex 273.471 -3.73035 10
      vertex 273.64 -4.33548 -10
      vertex 273.64 -4.33548 10
    endloop
  endfacet
  facet normal -0.951125 -0.308807 0
    outer loop
      vertex 273.834 -4.933 -10
      vertex 273.64 -4.33548 10
      vertex 273.64 -4.33548 -10
    endloop
  endfacet
  facet normal -0.951125 -0.308807 0
    outer loop
      vertex 273.64 -4.33548 10
      vertex 273.834 -4.933 -10
      vertex 273.834 -4.933 10
    endloop
  endfacet
  facet normal -0.937281 -0.348574 0
    outer loop
      vertex 274.053 -5.52187 -10
      vertex 273.834 -4.933 10
      vertex 273.834 -4.933 -10
    endloop
  endfacet
  facet normal -0.937281 -0.348574 0
    outer loop
      vertex 273.834 -4.933 10
      vertex 274.053 -5.52187 -10
      vertex 274.053 -5.52187 10
    endloop
  endfacet
  facet normal -0.921559 -0.388239 0
    outer loop
      vertex 274.297 -6.10105 -10
      vertex 274.053 -5.52187 10
      vertex 274.053 -5.52187 -10
    endloop
  endfacet
  facet normal -0.921559 -0.388239 0
    outer loop
      vertex 274.053 -5.52187 10
      vertex 274.297 -6.10105 -10
      vertex 274.297 -6.10105 10
    endloop
  endfacet
  facet normal -0.905137 -0.425119 0
    outer loop
      vertex 274.564 -6.66953 -10
      vertex 274.297 -6.10105 10
      vertex 274.297 -6.10105 -10
    endloop
  endfacet
  facet normal -0.905137 -0.425119 0
    outer loop
      vertex 274.297 -6.10105 10
      vertex 274.564 -6.66953 -10
      vertex 274.564 -6.66953 10
    endloop
  endfacet
  facet normal -0.886254 -0.463199 0
    outer loop
      vertex 274.855 -7.22631 -10
      vertex 274.564 -6.66953 10
      vertex 274.564 -6.66953 -10
    endloop
  endfacet
  facet normal -0.886254 -0.463199 0
    outer loop
      vertex 274.564 -6.66953 10
      vertex 274.855 -7.22631 -10
      vertex 274.855 -7.22631 10
    endloop
  endfacet
  facet normal -0.86543 -0.50103 0
    outer loop
      vertex 275.17 -7.77041 -10
      vertex 274.855 -7.22631 10
      vertex 274.855 -7.22631 -10
    endloop
  endfacet
  facet normal -0.86543 -0.50103 0
    outer loop
      vertex 274.855 -7.22631 10
      vertex 275.17 -7.77041 -10
      vertex 275.17 -7.77041 10
    endloop
  endfacet
  facet normal -0.844789 -0.5351 0
    outer loop
      vertex 275.506 -8.30087 -10
      vertex 275.17 -7.77041 10
      vertex 275.17 -7.77041 -10
    endloop
  endfacet
  facet normal -0.844789 -0.5351 0
    outer loop
      vertex 275.17 -7.77041 10
      vertex 275.506 -8.30087 -10
      vertex 275.506 -8.30087 10
    endloop
  endfacet
  facet normal -0.820826 -0.571178 0
    outer loop
      vertex 275.865 -8.81678 -10
      vertex 275.506 -8.30087 10
      vertex 275.506 -8.30087 -10
    endloop
  endfacet
  facet normal -0.820826 -0.571178 0
    outer loop
      vertex 275.506 -8.30087 10
      vertex 275.865 -8.81678 -10
      vertex 275.865 -8.81678 10
    endloop
  endfacet
  facet normal -0.796418 -0.604746 0
    outer loop
      vertex 276.245 -9.31722 -10
      vertex 275.865 -8.81678 10
      vertex 275.865 -8.81678 -10
    endloop
  endfacet
  facet normal -0.796418 -0.604746 0
    outer loop
      vertex 275.865 -8.81678 10
      vertex 276.245 -9.31722 -10
      vertex 276.245 -9.31722 10
    endloop
  endfacet
  facet normal -0.770884 -0.636976 0
    outer loop
      vertex 276.645 -9.80131 -10
      vertex 276.245 -9.31722 10
      vertex 276.245 -9.31722 -10
    endloop
  endfacet
  facet normal -0.770884 -0.636976 0
    outer loop
      vertex 276.245 -9.31722 10
      vertex 276.645 -9.80131 -10
      vertex 276.645 -9.80131 10
    endloop
  endfacet
  facet normal -0.743453 -0.668788 0
    outer loop
      vertex 277.065 -10.2682 -10
      vertex 276.645 -9.80131 10
      vertex 276.645 -9.80131 -10
    endloop
  endfacet
  facet normal -0.743453 -0.668788 0
    outer loop
      vertex 276.645 -9.80131 10
      vertex 277.065 -10.2682 -10
      vertex 277.065 -10.2682 10
    endloop
  endfacet
  facet normal -0.714151 -0.699992 0
    outer loop
      vertex 277.505 -10.7171 -10
      vertex 277.065 -10.2682 10
      vertex 277.065 -10.2682 -10
    endloop
  endfacet
  facet normal -0.714151 -0.699992 0
    outer loop
      vertex 277.065 -10.2682 10
      vertex 277.505 -10.7171 -10
      vertex 277.505 -10.7171 10
    endloop
  endfacet
  facet normal -0.684555 -0.728961 0
    outer loop
      vertex 277.505 -10.7171 -10
      vertex 277.963 -11.1472 10
      vertex 277.505 -10.7171 10
    endloop
  endfacet
  facet normal -0.684555 -0.728961 -0
    outer loop
      vertex 277.963 -11.1472 10
      vertex 277.505 -10.7171 -10
      vertex 277.963 -11.1472 -10
    endloop
  endfacet
  facet normal -0.653081 -0.757288 0
    outer loop
      vertex 277.963 -11.1472 -10
      vertex 278.439 -11.5577 10
      vertex 277.963 -11.1472 10
    endloop
  endfacet
  facet normal -0.653081 -0.757288 -0
    outer loop
      vertex 278.439 -11.5577 10
      vertex 277.963 -11.1472 -10
      vertex 278.439 -11.5577 -10
    endloop
  endfacet
  facet normal -0.621388 -0.783503 0
    outer loop
      vertex 278.439 -11.5577 -10
      vertex 278.931 -11.9479 10
      vertex 278.439 -11.5577 10
    endloop
  endfacet
  facet normal -0.621388 -0.783503 -0
    outer loop
      vertex 278.931 -11.9479 10
      vertex 278.439 -11.5577 -10
      vertex 278.931 -11.9479 -10
    endloop
  endfacet
  facet normal -0.588011 -0.808853 0
    outer loop
      vertex 278.931 -11.9479 -10
      vertex 279.439 -12.3172 10
      vertex 278.931 -11.9479 10
    endloop
  endfacet
  facet normal -0.588011 -0.808853 -0
    outer loop
      vertex 279.439 -12.3172 10
      vertex 278.931 -11.9479 -10
      vertex 279.439 -12.3172 -10
    endloop
  endfacet
  facet normal -0.552901 -0.833247 0
    outer loop
      vertex 279.439 -12.3172 -10
      vertex 279.963 -12.6649 10
      vertex 279.439 -12.3172 10
    endloop
  endfacet
  facet normal -0.552901 -0.833247 -0
    outer loop
      vertex 279.963 -12.6649 10
      vertex 279.439 -12.3172 -10
      vertex 279.963 -12.6649 -10
    endloop
  endfacet
  facet normal -0.518355 -0.855166 0
    outer loop
      vertex 279.963 -12.6649 -10
      vertex 280.5 -12.9904 10
      vertex 279.963 -12.6649 10
    endloop
  endfacet
  facet normal -0.518355 -0.855166 -0
    outer loop
      vertex 280.5 -12.9904 10
      vertex 279.963 -12.6649 -10
      vertex 280.5 -12.9904 -10
    endloop
  endfacet
  facet normal -0.481491 -0.876451 0
    outer loop
      vertex 280.5 -12.9904 -10
      vertex 281.051 -13.2931 10
      vertex 280.5 -12.9904 10
    endloop
  endfacet
  facet normal -0.481491 -0.876451 -0
    outer loop
      vertex 281.051 -13.2931 10
      vertex 280.5 -12.9904 -10
      vertex 281.051 -13.2931 -10
    endloop
  endfacet
  facet normal -0.445045 -0.895508 0
    outer loop
      vertex 281.051 -13.2931 -10
      vertex 281.613 -13.5724 10
      vertex 281.051 -13.2931 10
    endloop
  endfacet
  facet normal -0.445045 -0.895508 -0
    outer loop
      vertex 281.613 -13.5724 10
      vertex 281.051 -13.2931 -10
      vertex 281.613 -13.5724 -10
    endloop
  endfacet
  facet normal -0.406655 -0.913582 0
    outer loop
      vertex 281.613 -13.5724 -10
      vertex 282.187 -13.8279 10
      vertex 281.613 -13.5724 10
    endloop
  endfacet
  facet normal -0.406655 -0.913582 -0
    outer loop
      vertex 282.187 -13.8279 10
      vertex 281.613 -13.5724 -10
      vertex 282.187 -13.8279 -10
    endloop
  endfacet
  facet normal -0.368232 -0.929734 0
    outer loop
      vertex 282.187 -13.8279 -10
      vertex 282.771 -14.0592 10
      vertex 282.187 -13.8279 10
    endloop
  endfacet
  facet normal -0.368232 -0.929734 -0
    outer loop
      vertex 282.771 -14.0592 10
      vertex 282.187 -13.8279 -10
      vertex 282.771 -14.0592 -10
    endloop
  endfacet
  facet normal -0.328508 -0.944501 0
    outer loop
      vertex 282.771 -14.0592 -10
      vertex 283.365 -14.2658 10
      vertex 282.771 -14.0592 10
    endloop
  endfacet
  facet normal -0.328508 -0.944501 -0
    outer loop
      vertex 283.365 -14.2658 10
      vertex 282.771 -14.0592 -10
      vertex 283.365 -14.2658 -10
    endloop
  endfacet
  facet normal -0.289247 -0.957255 0
    outer loop
      vertex 283.365 -14.2658 -10
      vertex 283.966 -14.4474 10
      vertex 283.365 -14.2658 10
    endloop
  endfacet
  facet normal -0.289247 -0.957255 -0
    outer loop
      vertex 283.966 -14.4474 10
      vertex 283.365 -14.2658 -10
      vertex 283.966 -14.4474 -10
    endloop
  endfacet
  facet normal -0.248593 -0.968608 0
    outer loop
      vertex 283.966 -14.4474 -10
      vertex 284.575 -14.6037 10
      vertex 283.966 -14.4474 10
    endloop
  endfacet
  facet normal -0.248593 -0.968608 -0
    outer loop
      vertex 284.575 -14.6037 10
      vertex 283.966 -14.4474 -10
      vertex 284.575 -14.6037 -10
    endloop
  endfacet
  facet normal -0.208049 -0.978118 0
    outer loop
      vertex 284.575 -14.6037 -10
      vertex 285.189 -14.7343 10
      vertex 284.575 -14.6037 10
    endloop
  endfacet
  facet normal -0.208049 -0.978118 -0
    outer loop
      vertex 285.189 -14.7343 10
      vertex 284.575 -14.6037 -10
      vertex 285.189 -14.7343 -10
    endloop
  endfacet
  facet normal -0.166668 -0.986013 0
    outer loop
      vertex 285.189 -14.7343 -10
      vertex 285.809 -14.8391 10
      vertex 285.189 -14.7343 10
    endloop
  endfacet
  facet normal -0.166668 -0.986013 -0
    outer loop
      vertex 285.809 -14.8391 10
      vertex 285.189 -14.7343 -10
      vertex 285.809 -14.8391 -10
    endloop
  endfacet
  facet normal -0.125328 -0.992115 0
    outer loop
      vertex 285.809 -14.8391 -10
      vertex 286.432 -14.9178 10
      vertex 285.809 -14.8391 10
    endloop
  endfacet
  facet normal -0.125328 -0.992115 -0
    outer loop
      vertex 286.432 -14.9178 10
      vertex 285.809 -14.8391 -10
      vertex 286.432 -14.9178 -10
    endloop
  endfacet
  facet normal -0.0837305 -0.996488 0
    outer loop
      vertex 286.432 -14.9178 -10
      vertex 287.058 -14.9704 10
      vertex 286.432 -14.9178 10
    endloop
  endfacet
  facet normal -0.0837305 -0.996488 -0
    outer loop
      vertex 287.058 -14.9704 10
      vertex 286.432 -14.9178 -10
      vertex 287.058 -14.9704 -10
    endloop
  endfacet
  facet normal -0.0418423 -0.999124 0
    outer loop
      vertex 287.058 -14.9704 -10
      vertex 287.686 -14.9967 10
      vertex 287.058 -14.9704 10
    endloop
  endfacet
  facet normal -0.0418423 -0.999124 -0
    outer loop
      vertex 287.686 -14.9967 10
      vertex 287.058 -14.9704 -10
      vertex 287.686 -14.9967 -10
    endloop
  endfacet
  facet normal 0 -1 0
    outer loop
      vertex 287.686 -14.9967 -10
      vertex 288.314 -14.9967 10
      vertex 287.686 -14.9967 10
    endloop
  endfacet
  facet normal 0 -1 -0
    outer loop
      vertex 288.314 -14.9967 10
      vertex 287.686 -14.9967 -10
      vertex 288.314 -14.9967 -10
    endloop
  endfacet
  facet normal 0.0418423 -0.999124 0
    outer loop
      vertex 288.314 -14.9967 -10
      vertex 288.942 -14.9704 10
      vertex 288.314 -14.9967 10
    endloop
  endfacet
  facet normal 0.0418423 -0.999124 0
    outer loop
      vertex 288.942 -14.9704 10
      vertex 288.314 -14.9967 -10
      vertex 288.942 -14.9704 -10
    endloop
  endfacet
  facet normal 0.0837305 -0.996488 0
    outer loop
      vertex 288.942 -14.9704 -10
      vertex 289.568 -14.9178 10
      vertex 288.942 -14.9704 10
    endloop
  endfacet
  facet normal 0.0837305 -0.996488 0
    outer loop
      vertex 289.568 -14.9178 10
      vertex 288.942 -14.9704 -10
      vertex 289.568 -14.9178 -10
    endloop
  endfacet
  facet normal 0.125328 -0.992115 0
    outer loop
      vertex 289.568 -14.9178 -10
      vertex 290.191 -14.8391 10
      vertex 289.568 -14.9178 10
    endloop
  endfacet
  facet normal 0.125328 -0.992115 0
    outer loop
      vertex 290.191 -14.8391 10
      vertex 289.568 -14.9178 -10
      vertex 290.191 -14.8391 -10
    endloop
  endfacet
  facet normal 0.166668 -0.986013 0
    outer loop
      vertex 290.191 -14.8391 -10
      vertex 290.811 -14.7343 10
      vertex 290.191 -14.8391 10
    endloop
  endfacet
  facet normal 0.166668 -0.986013 0
    outer loop
      vertex 290.811 -14.7343 10
      vertex 290.191 -14.8391 -10
      vertex 290.811 -14.7343 -10
    endloop
  endfacet
  facet normal 0.208049 -0.978118 0
    outer loop
      vertex 290.811 -14.7343 -10
      vertex 291.425 -14.6037 10
      vertex 290.811 -14.7343 10
    endloop
  endfacet
  facet normal 0.208049 -0.978118 0
    outer loop
      vertex 291.425 -14.6037 10
      vertex 290.811 -14.7343 -10
      vertex 291.425 -14.6037 -10
    endloop
  endfacet
  facet normal 0.248593 -0.968608 0
    outer loop
      vertex 291.425 -14.6037 -10
      vertex 292.034 -14.4474 10
      vertex 291.425 -14.6037 10
    endloop
  endfacet
  facet normal 0.248593 -0.968608 0
    outer loop
      vertex 292.034 -14.4474 10
      vertex 291.425 -14.6037 -10
      vertex 292.034 -14.4474 -10
    endloop
  endfacet
  facet normal 0.289247 -0.957255 0
    outer loop
      vertex 292.034 -14.4474 -10
      vertex 292.635 -14.2658 10
      vertex 292.034 -14.4474 10
    endloop
  endfacet
  facet normal 0.289247 -0.957255 0
    outer loop
      vertex 292.635 -14.2658 10
      vertex 292.034 -14.4474 -10
      vertex 292.635 -14.2658 -10
    endloop
  endfacet
  facet normal 0.328508 -0.944501 0
    outer loop
      vertex 292.635 -14.2658 -10
      vertex 293.229 -14.0592 10
      vertex 292.635 -14.2658 10
    endloop
  endfacet
  facet normal 0.328508 -0.944501 0
    outer loop
      vertex 293.229 -14.0592 10
      vertex 292.635 -14.2658 -10
      vertex 293.229 -14.0592 -10
    endloop
  endfacet
  facet normal 0.368232 -0.929734 0
    outer loop
      vertex 293.229 -14.0592 -10
      vertex 293.813 -13.8279 10
      vertex 293.229 -14.0592 10
    endloop
  endfacet
  facet normal 0.368232 -0.929734 0
    outer loop
      vertex 293.813 -13.8279 10
      vertex 293.229 -14.0592 -10
      vertex 293.813 -13.8279 -10
    endloop
  endfacet
  facet normal 0.406655 -0.913582 0
    outer loop
      vertex 293.813 -13.8279 -10
      vertex 294.387 -13.5724 10
      vertex 293.813 -13.8279 10
    endloop
  endfacet
  facet normal 0.406655 -0.913582 0
    outer loop
      vertex 294.387 -13.5724 10
      vertex 293.813 -13.8279 -10
      vertex 294.387 -13.5724 -10
    endloop
  endfacet
  facet normal 0.445045 -0.895508 0
    outer loop
      vertex 294.387 -13.5724 -10
      vertex 294.949 -13.2931 10
      vertex 294.387 -13.5724 10
    endloop
  endfacet
  facet normal 0.445045 -0.895508 0
    outer loop
      vertex 294.949 -13.2931 10
      vertex 294.387 -13.5724 -10
      vertex 294.949 -13.2931 -10
    endloop
  endfacet
  facet normal 0.481491 -0.876451 0
    outer loop
      vertex 294.949 -13.2931 -10
      vertex 295.5 -12.9904 10
      vertex 294.949 -13.2931 10
    endloop
  endfacet
  facet normal 0.481491 -0.876451 0
    outer loop
      vertex 295.5 -12.9904 10
      vertex 294.949 -13.2931 -10
      vertex 295.5 -12.9904 -10
    endloop
  endfacet
  facet normal 0.518355 -0.855166 0
    outer loop
      vertex 295.5 -12.9904 -10
      vertex 296.037 -12.6649 10
      vertex 295.5 -12.9904 10
    endloop
  endfacet
  facet normal 0.518355 -0.855166 0
    outer loop
      vertex 296.037 -12.6649 10
      vertex 295.5 -12.9904 -10
      vertex 296.037 -12.6649 -10
    endloop
  endfacet
  facet normal 0.552901 -0.833247 0
    outer loop
      vertex 296.037 -12.6649 -10
      vertex 296.561 -12.3172 10
      vertex 296.037 -12.6649 10
    endloop
  endfacet
  facet normal 0.552901 -0.833247 0
    outer loop
      vertex 296.561 -12.3172 10
      vertex 296.037 -12.6649 -10
      vertex 296.561 -12.3172 -10
    endloop
  endfacet
  facet normal 0.588011 -0.808853 0
    outer loop
      vertex 296.561 -12.3172 -10
      vertex 297.069 -11.9479 10
      vertex 296.561 -12.3172 10
    endloop
  endfacet
  facet normal 0.588011 -0.808853 0
    outer loop
      vertex 297.069 -11.9479 10
      vertex 296.561 -12.3172 -10
      vertex 297.069 -11.9479 -10
    endloop
  endfacet
  facet normal 0.621388 -0.783503 0
    outer loop
      vertex 297.069 -11.9479 -10
      vertex 297.561 -11.5577 10
      vertex 297.069 -11.9479 10
    endloop
  endfacet
  facet normal 0.621388 -0.783503 0
    outer loop
      vertex 297.561 -11.5577 10
      vertex 297.069 -11.9479 -10
      vertex 297.561 -11.5577 -10
    endloop
  endfacet
  facet normal 0.653081 -0.757288 0
    outer loop
      vertex 297.561 -11.5577 -10
      vertex 298.037 -11.1472 10
      vertex 297.561 -11.5577 10
    endloop
  endfacet
  facet normal 0.653081 -0.757288 0
    outer loop
      vertex 298.037 -11.1472 10
      vertex 297.561 -11.5577 -10
      vertex 298.037 -11.1472 -10
    endloop
  endfacet
  facet normal 0.684555 -0.728961 0
    outer loop
      vertex 298.037 -11.1472 -10
      vertex 298.495 -10.7171 10
      vertex 298.037 -11.1472 10
    endloop
  endfacet
  facet normal 0.684555 -0.728961 0
    outer loop
      vertex 298.495 -10.7171 10
      vertex 298.037 -11.1472 -10
      vertex 298.495 -10.7171 -10
    endloop
  endfacet
  facet normal 0.714151 -0.699992 0
    outer loop
      vertex 298.495 -10.7171 10
      vertex 298.935 -10.2682 -10
      vertex 298.935 -10.2682 10
    endloop
  endfacet
  facet normal 0.714151 -0.699992 0
    outer loop
      vertex 298.935 -10.2682 -10
      vertex 298.495 -10.7171 10
      vertex 298.495 -10.7171 -10
    endloop
  endfacet
  facet normal 0.743453 -0.668788 0
    outer loop
      vertex 298.935 -10.2682 10
      vertex 299.355 -9.80131 -10
      vertex 299.355 -9.80131 10
    endloop
  endfacet
  facet normal 0.743453 -0.668788 0
    outer loop
      vertex 299.355 -9.80131 -10
      vertex 298.935 -10.2682 10
      vertex 298.935 -10.2682 -10
    endloop
  endfacet
  facet normal 0.770884 -0.636976 0
    outer loop
      vertex 299.355 -9.80131 10
      vertex 299.755 -9.31722 -10
      vertex 299.755 -9.31722 10
    endloop
  endfacet
  facet normal 0.770884 -0.636976 0
    outer loop
      vertex 299.755 -9.31722 -10
      vertex 299.355 -9.80131 10
      vertex 299.355 -9.80131 -10
    endloop
  endfacet
  facet normal 0.796418 -0.604746 0
    outer loop
      vertex 299.755 -9.31722 10
      vertex 300.135 -8.81678 -10
      vertex 300.135 -8.81678 10
    endloop
  endfacet
  facet normal 0.796418 -0.604746 0
    outer loop
      vertex 300.135 -8.81678 -10
      vertex 299.755 -9.31722 10
      vertex 299.755 -9.31722 -10
    endloop
  endfacet
  facet normal 0.820826 -0.571178 0
    outer loop
      vertex 300.135 -8.81678 10
      vertex 300.494 -8.30087 -10
      vertex 300.494 -8.30087 10
    endloop
  endfacet
  facet normal 0.820826 -0.571178 0
    outer loop
      vertex 300.494 -8.30087 -10
      vertex 300.135 -8.81678 10
      vertex 300.135 -8.81678 -10
    endloop
  endfacet
  facet normal 0.844789 -0.5351 0
    outer loop
      vertex 300.494 -8.30087 10
      vertex 300.83 -7.77041 -10
      vertex 300.83 -7.77041 10
    endloop
  endfacet
  facet normal 0.844789 -0.5351 0
    outer loop
      vertex 300.83 -7.77041 -10
      vertex 300.494 -8.30087 10
      vertex 300.494 -8.30087 -10
    endloop
  endfacet
  facet normal 0.86543 -0.50103 0
    outer loop
      vertex 300.83 -7.77041 10
      vertex 301.145 -7.22631 -10
      vertex 301.145 -7.22631 10
    endloop
  endfacet
  facet normal 0.86543 -0.50103 0
    outer loop
      vertex 301.145 -7.22631 -10
      vertex 300.83 -7.77041 10
      vertex 300.83 -7.77041 -10
    endloop
  endfacet
  facet normal 0.886254 -0.463199 0
    outer loop
      vertex 301.145 -7.22631 10
      vertex 301.436 -6.66953 -10
      vertex 301.436 -6.66953 10
    endloop
  endfacet
  facet normal 0.886254 -0.463199 0
    outer loop
      vertex 301.436 -6.66953 -10
      vertex 301.145 -7.22631 10
      vertex 301.145 -7.22631 -10
    endloop
  endfacet
  facet normal 0.905137 -0.425119 0
    outer loop
      vertex 301.436 -6.66953 10
      vertex 301.703 -6.10105 -10
      vertex 301.703 -6.10105 10
    endloop
  endfacet
  facet normal 0.905137 -0.425119 0
    outer loop
      vertex 301.703 -6.10105 -10
      vertex 301.436 -6.66953 10
      vertex 301.436 -6.66953 -10
    endloop
  endfacet
  facet normal 0.921559 -0.388239 0
    outer loop
      vertex 301.703 -6.10105 10
      vertex 301.947 -5.52187 -10
      vertex 301.947 -5.52187 10
    endloop
  endfacet
  facet normal 0.921559 -0.388239 0
    outer loop
      vertex 301.947 -5.52187 -10
      vertex 301.703 -6.10105 10
      vertex 301.703 -6.10105 -10
    endloop
  endfacet
  facet normal 0.937281 -0.348574 0
    outer loop
      vertex 301.947 -5.52187 10
      vertex 302.166 -4.933 -10
      vertex 302.166 -4.933 10
    endloop
  endfacet
  facet normal 0.937281 -0.348574 0
    outer loop
      vertex 302.166 -4.933 -10
      vertex 301.947 -5.52187 10
      vertex 301.947 -5.52187 -10
    endloop
  endfacet
  facet normal 0.951125 -0.308807 0
    outer loop
      vertex 302.166 -4.933 10
      vertex 302.36 -4.33548 -10
      vertex 302.36 -4.33548 10
    endloop
  endfacet
  facet normal 0.951125 -0.308807 0
    outer loop
      vertex 302.36 -4.33548 -10
      vertex 302.166 -4.933 10
      vertex 302.166 -4.933 -10
    endloop
  endfacet
  facet normal 0.963144 -0.268986 0
    outer loop
      vertex 302.36 -4.33548 10
      vertex 302.529 -3.73035 -10
      vertex 302.529 -3.73035 10
    endloop
  endfacet
  facet normal 0.963144 -0.268986 0
    outer loop
      vertex 302.529 -3.73035 -10
      vertex 302.36 -4.33548 10
      vertex 302.36 -4.33548 -10
    endloop
  endfacet
  facet normal 0.973744 -0.227648 0
    outer loop
      vertex 302.529 -3.73035 10
      vertex 302.672 -3.11868 -10
      vertex 302.672 -3.11868 10
    endloop
  endfacet
  facet normal 0.973744 -0.227648 0
    outer loop
      vertex 302.672 -3.11868 -10
      vertex 302.529 -3.73035 10
      vertex 302.529 -3.73035 -10
    endloop
  endfacet
  facet normal 0.982207 -0.1878 0
    outer loop
      vertex 302.672 -3.11868 10
      vertex 302.79 -2.50153 -10
      vertex 302.79 -2.50153 10
    endloop
  endfacet
  facet normal 0.982207 -0.1878 0
    outer loop
      vertex 302.79 -2.50153 -10
      vertex 302.672 -3.11868 10
      vertex 302.672 -3.11868 -10
    endloop
  endfacet
  facet normal 0.989222 -0.146426 0
    outer loop
      vertex 302.79 -2.50153 10
      vertex 302.882 -1.88 -10
      vertex 302.882 -1.88 10
    endloop
  endfacet
  facet normal 0.989222 -0.146426 0
    outer loop
      vertex 302.882 -1.88 -10
      vertex 302.79 -2.50153 10
      vertex 302.79 -2.50153 -10
    endloop
  endfacet
  facet normal 0.994633 -0.10347 0
    outer loop
      vertex 302.882 -1.88 10
      vertex 302.947 -1.25517 -10
      vertex 302.947 -1.25517 10
    endloop
  endfacet
  facet normal 0.994633 -0.10347 0
    outer loop
      vertex 302.947 -1.25517 -10
      vertex 302.882 -1.88 10
      vertex 302.882 -1.88 -10
    endloop
  endfacet
  facet normal 0.997971 -0.0636629 0
    outer loop
      vertex 302.947 -1.25517 10
      vertex 302.987 -0.628135 -10
      vertex 302.987 -0.628135 10
    endloop
  endfacet
  facet normal 0.997971 -0.0636629 0
    outer loop
      vertex 302.987 -0.628135 -10
      vertex 302.947 -1.25517 10
      vertex 302.947 -1.25517 -10
    endloop
  endfacet
  facet normal 0.999786 -0.0206918 0
    outer loop
      vertex 302.987 -0.628135 10
      vertex 303 0 -10
      vertex 303 0 10
    endloop
  endfacet
  facet normal 0.999786 -0.0206918 0
    outer loop
      vertex 303 0 -10
      vertex 302.987 -0.628135 10
      vertex 302.987 -0.628135 -10
    endloop
  endfacet
  facet normal 0 0 -1
    outer loop
      vertex 302.987 -0.628135 -10
      vertex 302.987 0.628135 -10
      vertex 303 0 -10
    endloop
  endfacet
  facet normal 0 0 -1
    outer loop
      vertex 302.947 -1.25517 -10
      vertex 302.987 0.628135 -10
      vertex 302.987 -0.628135 -10
    endloop
  endfacet
  facet normal 0 0 -1
    outer loop
      vertex 302.947 -1.25517 -10
      vertex 302.947 1.25517 -10
      vertex 302.987 0.628135 -10
    endloop
  endfacet
  facet normal 0 0 -1
    outer loop
      vertex 302.882 -1.88 -10
      vertex 302.947 1.25517 -10
      vertex 302.947 -1.25517 -10
    endloop
  endfacet
  facet normal 0 0 -1
    outer loop
      vertex 302.882 -1.88 -10
      vertex 302.882 1.88 -10
      vertex 302.947 1.25517 -10
    endloop
  endfacet
  facet normal 0 0 -1
    outer loop
      vertex 302.79 -2.50153 -10
      vertex 302.882 1.88 -10
      vertex 302.882 -1.88 -10
    endloop
  endfacet
  facet normal 0 0 -1
    outer loop
      vertex 302.79 -2.50153 -10
      vertex 302.79 2.50153 -10
      vertex 302.882 1.88 -10
    endloop
  endfacet
  facet normal 0 0 -1
    outer loop
      vertex 302.672 -3.11868 -10
      vertex 302.79 2.50153 -10
      vertex 302.79 -2.50153 -10
    endloop
  endfacet
  facet normal 0 0 -1
    outer loop
      vertex 302.672 -3.11868 -10
      vertex 302.672 3.11868 -10
      vertex 302.79 2.50153 -10
    endloop
  endfacet
  facet normal 0 0 -1
    outer loop
      vertex 302.529 -3.73035 -10
      vertex 302.672 3.11868 -10
      vertex 302.672 -3.11868 -10
    endloop
  endfacet
  facet normal 0 0 -1
    outer loop
      vertex 302.529 -3.73035 -10
      vertex 302.529 3.73035 -10
      vertex 302.672 3.11868 -10
    endloop
  endfacet
  facet normal 0 0 -1
    outer loop
      vertex 302.36 -4.33548 -10
      vertex 302.529 3.73035 -10
      vertex 302.529 -3.73035 -10
    endloop
  endfacet
  facet normal 0 0 -1
    outer loop
      vertex 302.36 -4.33548 -10
      vertex 302.36 4.33548 -10
      vertex 302.529 3.73035 -10
    endloop
  endfacet
  facet normal 0 0 -1
    outer loop
      vertex 302.166 -4.933 -10
      vertex 302.36 4.33548 -10
      vertex 302.36 -4.33548 -10
    endloop
  endfacet
  facet normal 0 0 -1
    outer loop
      vertex 302.166 -4.933 -10
      vertex 302.166 4.933 -10
      vertex 302.36 4.33548 -10
    endloop
  endfacet
  facet normal 0 0 -1
    outer loop
      vertex 301.947 -5.52187 -10
      vertex 302.166 4.933 -10
      vertex 302.166 -4.933 -10
    endloop
  endfacet
  facet normal 0 0 -1
    outer loop
      vertex 301.947 -5.52187 -10
      vertex 301.947 5.52187 -10
      vertex 302.166 4.933 -10
    endloop
  endfacet
  facet normal 0 0 -1
    outer loop
      vertex 301.703 -6.10105 -10
      vertex 301.947 5.52187 -10
      vertex 301.947 -5.52187 -10
    endloop
  endfacet
  facet normal 0 0 -1
    outer loop
      vertex 301.703 -6.10105 -10
      vertex 301.703 6.10105 -10
      vertex 301.947 5.52187 -10
    endloop
  endfacet
  facet normal 0 0 -1
    outer loop
      vertex 301.436 -6.66953 -10
      vertex 301.703 6.10105 -10
      vertex 301.703 -6.10105 -10
    endloop
  endfacet
  facet normal 0 0 -1
    outer loop
      vertex 301.436 -6.66953 -10
      vertex 301.436 6.66953 -10
      vertex 301.703 6.10105 -10
    endloop
  endfacet
  facet normal 0 0 -1
    outer loop
      vertex 301.145 -7.22631 -10
      vertex 301.436 6.66953 -10
      vertex 301.436 -6.66953 -10
    endloop
  endfacet
  facet normal 0 0 -1
    outer loop
      vertex 301.145 -7.22631 -10
      vertex 301.145 7.22631 -10
      vertex 301.436 6.66953 -10
    endloop
  endfacet
  facet normal 0 0 -1
    outer loop
      vertex 300.83 -7.77041 -10
      vertex 301.145 7.22631 -10
      vertex 301.145 -7.22631 -10
    endloop
  endfacet
  facet normal 0 0 -1
    outer loop
      vertex 300.83 -7.77041 -10
      vertex 300.83 7.77041 -10
      vertex 301.145 7.22631 -10
    endloop
  endfacet
  facet normal 0 0 -1
    outer loop
      vertex 300.494 -8.30087 -10
      vertex 300.83 7.77041 -10
      vertex 300.83 -7.77041 -10
    endloop
  endfacet
  facet normal 0 0 -1
    outer loop
      vertex 300.494 -8.30087 -10
      vertex 300.494 8.30087 -10
      vertex 300.83 7.77041 -10
    endloop
  endfacet
  facet normal 0 0 -1
    outer loop
      vertex 300.135 -8.81678 -10
      vertex 300.494 8.30087 -10
      vertex 300.494 -8.30087 -10
    endloop
  endfacet
  facet normal 0 0 -1
    outer loop
      vertex 300.135 -8.81678 -10
      vertex 300.135 8.81678 -10
      vertex 300.494 8.30087 -10
    endloop
  endfacet
  facet normal 0 0 -1
    outer loop
      vertex 299.755 -9.31722 -10
      vertex 300.135 8.81678 -10
      vertex 300.135 -8.81678 -10
    endloop
  endfacet
  facet normal 0 0 -1
    outer loop
      vertex 299.755 -9.31722 -10
      vertex 299.755 9.31722 -10
      vertex 300.135 8.81678 -10
    endloop
  endfacet
  facet normal 0 0 -1
    outer loop
      vertex 299.355 -9.80131 -10
      vertex 299.755 9.31722 -10
      vertex 299.755 -9.31722 -10
    endloop
  endfacet
  facet normal 0 0 -1
    outer loop
      vertex 299.355 -9.80131 -10
      vertex 299.355 9.80131 -10
      vertex 299.755 9.31722 -10
    endloop
  endfacet
  facet normal 0 0 -1
    outer loop
      vertex 298.935 -10.2682 -10
      vertex 299.355 9.80131 -10
      vertex 299.355 -9.80131 -10
    endloop
  endfacet
  facet normal 0 0 -1
    outer loop
      vertex 298.935 -10.2682 -10
      vertex 298.935 10.2682 -10
      vertex 299.355 9.80131 -10
    endloop
  endfacet
  facet normal 0 0 -1
    outer loop
      vertex 298.495 -10.7171 -10
      vertex 298.935 10.2682 -10
      vertex 298.935 -10.2682 -10
    endloop
  endfacet
  facet normal 0 0 -1
    outer loop
      vertex 298.495 -10.7171 -10
      vertex 298.495 10.7171 -10
      vertex 298.935 10.2682 -10
    endloop
  endfacet
  facet normal 0 0 -1
    outer loop
      vertex 298.037 -11.1472 -10
      vertex 298.495 10.7171 -10
      vertex 298.495 -10.7171 -10
    endloop
  endfacet
  facet normal 0 0 -1
    outer loop
      vertex 298.037 -11.1472 -10
      vertex 298.037 11.1472 -10
      vertex 298.495 10.7171 -10
    endloop
  endfacet
  facet normal 0 0 -1
    outer loop
      vertex 297.561 -11.5577 -10
      vertex 298.037 11.1472 -10
      vertex 298.037 -11.1472 -10
    endloop
  endfacet
  facet normal 0 0 -1
    outer loop
      vertex 297.561 -11.5577 -10
      vertex 297.561 11.5577 -10
      vertex 298.037 11.1472 -10
    endloop
  endfacet
  facet normal 0 0 -1
    outer loop
      vertex 297.069 -11.9479 -10
      vertex 297.561 11.5577 -10
      vertex 297.561 -11.5577 -10
    endloop
  endfacet
  facet normal 0 0 -1
    outer loop
      vertex 297.069 -11.9479 -10
      vertex 297.069 11.9479 -10
      vertex 297.561 11.5577 -10
    endloop
  endfacet
  facet normal 0 0 -1
    outer loop
      vertex 296.561 -12.3172 -10
      vertex 297.069 11.9479 -10
      vertex 297.069 -11.9479 -10
    endloop
  endfacet
  facet normal 0 0 -1
    outer loop
      vertex 296.561 -12.3172 -10
      vertex 296.561 12.3172 -10
      vertex 297.069 11.9479 -10
    endloop
  endfacet
  facet normal 0 0 -1
    outer loop
      vertex 296.037 -12.6649 -10
      vertex 296.561 12.3172 -10
      vertex 296.561 -12.3172 -10
    endloop
  endfacet
  facet normal 0 0 -1
    outer loop
      vertex 296.037 -12.6649 -10
      vertex 296.037 12.6649 -10
      vertex 296.561 12.3172 -10
    endloop
  endfacet
  facet normal 0 0 -1
    outer loop
      vertex 295.5 -12.9904 -10
      vertex 296.037 12.6649 -10
      vertex 296.037 -12.6649 -10
    endloop
  endfacet
  facet normal 0 0 -1
    outer loop
      vertex 295.5 -12.9904 -10
      vertex 295.5 12.9904 -10
      vertex 296.037 12.6649 -10
    endloop
  endfacet
  facet normal 0 0 -1
    outer loop
      vertex 294.949 -13.2931 -10
      vertex 295.5 12.9904 -10
      vertex 295.5 -12.9904 -10
    endloop
  endfacet
  facet normal 0 0 -1
    outer loop
      vertex 294.949 -13.2931 -10
      vertex 294.949 13.2931 -10
      vertex 295.5 12.9904 -10
    endloop
  endfacet
  facet normal 0 0 -1
    outer loop
      vertex 294.387 -13.5724 -10
      vertex 294.949 13.2931 -10
      vertex 294.949 -13.2931 -10
    endloop
  endfacet
  facet normal 0 0 -1
    outer loop
      vertex 294.387 -13.5724 -10
      vertex 294.387 13.5724 -10
      vertex 294.949 13.2931 -10
    endloop
  endfacet
  facet normal 0 0 -1
    outer loop
      vertex 293.813 -13.8279 -10
      vertex 294.387 13.5724 -10
      vertex 294.387 -13.5724 -10
    endloop
  endfacet
  facet normal 0 0 -1
    outer loop
      vertex 293.813 -13.8279 -10
      vertex 293.813 13.8279 -10
      vertex 294.387 13.5724 -10
    endloop
  endfacet
  facet normal 0 0 -1
    outer loop
      vertex 293.229 -14.0592 -10
      vertex 293.813 13.8279 -10
      vertex 293.813 -13.8279 -10
    endloop
  endfacet
  facet normal 0 0 -1
    outer loop
      vertex 293.229 -14.0592 -10
      vertex 293.229 14.0592 -10
      vertex 293.813 13.8279 -10
    endloop
  endfacet
  facet normal 0 0 -1
    outer loop
      vertex 292.635 -14.2658 -10
      vertex 293.229 14.0592 -10
      vertex 293.229 -14.0592 -10
    endloop
  endfacet
  facet normal 0 0 -1
    outer loop
      vertex 292.635 -14.2658 -10
      vertex 292.635 14.2658 -10
      vertex 293.229 14.0592 -10
    endloop
  endfacet
  facet normal 0 0 -1
    outer loop
      vertex 292.034 -14.4474 -10
      vertex 292.635 14.2658 -10
      vertex 292.635 -14.2658 -10
    endloop
  endfacet
  facet normal 0 0 -1
    outer loop
      vertex 292.034 -14.4474 -10
      vertex 292.034 14.4474 -10
      vertex 292.635 14.2658 -10
    endloop
  endfacet
  facet normal 0 0 -1
    outer loop
      vertex 291.425 -14.6037 -10
      vertex 292.034 14.4474 -10
      vertex 292.034 -14.4474 -10
    endloop
  endfacet
  facet normal 0 0 -1
    outer loop
      vertex 291.425 -14.6037 -10
      vertex 291.425 14.6037 -10
      vertex 292.034 14.4474 -10
    endloop
  endfacet
  facet normal 0 0 -1
    outer loop
      vertex 290.811 -14.7343 -10
      vertex 291.425 14.6037 -10
      vertex 291.425 -14.6037 -10
    endloop
  endfacet
  facet normal 0 0 -1
    outer loop
      vertex 290.811 -14.7343 -10
      vertex 290.811 14.7343 -10
      vertex 291.425 14.6037 -10
    endloop
  endfacet
  facet normal 0 0 -1
    outer loop
      vertex 290.191 -14.8391 -10
      vertex 290.811 14.7343 -10
      vertex 290.811 -14.7343 -10
    endloop
  endfacet
  facet normal 0 0 -1
    outer loop
      vertex 290.191 -14.8391 -10
      vertex 290.191 14.8391 -10
      vertex 290.811 14.7343 -10
    endloop
  endfacet
  facet normal 0 0 -1
    outer loop
      vertex 289.568 -14.9178 -10
      vertex 290.191 14.8391 -10
      vertex 290.191 -14.8391 -10
    endloop
  endfacet
  facet normal 0 0 -1
    outer loop
      vertex 289.568 -14.9178 -10
      vertex 289.568 14.9178 -10
      vertex 290.191 14.8391 -10
    endloop
  endfacet
  facet normal 0 0 -1
    outer loop
      vertex 288.942 -14.9704 -10
      vertex 289.568 14.9178 -10
      vertex 289.568 -14.9178 -10
    endloop
  endfacet
  facet normal 0 0 -1
    outer loop
      vertex 288.942 -14.9704 -10
      vertex 288.942 14.9704 -10
      vertex 289.568 14.9178 -10
    endloop
  endfacet
  facet normal 0 0 -1
    outer loop
      vertex 288.314 -14.9967 -10
      vertex 288.942 14.9704 -10
      vertex 288.942 -14.9704 -10
    endloop
  endfacet
  facet normal 0 0 -1
    outer loop
      vertex 288.314 -14.9967 -10
      vertex 288.314 14.9967 -10
      vertex 288.942 14.9704 -10
    endloop
  endfacet
  facet normal 0 0 -1
    outer loop
      vertex 287.686 -14.9967 -10
      vertex 288.314 14.9967 -10
      vertex 288.314 -14.9967 -10
    endloop
  endfacet
  facet normal 0 0 -1
    outer loop
      vertex 287.686 -14.9967 -10
      vertex 287.686 14.9967 -10
      vertex 288.314 14.9967 -10
    endloop
  endfacet
  facet normal 0 0 -1
    outer loop
      vertex 287.058 -14.9704 -10
      vertex 287.686 14.9967 -10
      vertex 287.686 -14.9967 -10
    endloop
  endfacet
  facet normal 0 0 -1
    outer loop
      vertex 287.058 -14.9704 -10
      vertex 287.058 14.9704 -10
      vertex 287.686 14.9967 -10
    endloop
  endfacet
  facet normal 0 0 -1
    outer loop
      vertex 286.432 -14.9178 -10
      vertex 287.058 14.9704 -10
      vertex 287.058 -14.9704 -10
    endloop
  endfacet
  facet normal 0 0 -1
    outer loop
      vertex 286.432 -14.9178 -10
      vertex 286.432 14.9178 -10
      vertex 287.058 14.9704 -10
    endloop
  endfacet
  facet normal 0 0 -1
    outer loop
      vertex 285.809 -14.8391 -10
      vertex 286.432 14.9178 -10
      vertex 286.432 -14.9178 -10
    endloop
  endfacet
  facet normal 0 0 -1
    outer loop
      vertex 285.809 -14.8391 -10
      vertex 285.809 14.8391 -10
      vertex 286.432 14.9178 -10
    endloop
  endfacet
  facet normal 0 0 -1
    outer loop
      vertex 285.189 -14.7343 -10
      vertex 285.809 14.8391 -10
      vertex 285.809 -14.8391 -10
    endloop
  endfacet
  facet normal 0 0 -1
    outer loop
      vertex 285.189 -14.7343 -10
      vertex 285.189 14.7343 -10
      vertex 285.809 14.8391 -10
    endloop
  endfacet
  facet normal 0 0 -1
    outer loop
      vertex 284.575 -14.6037 -10
      vertex 285.189 14.7343 -10
      vertex 285.189 -14.7343 -10
    endloop
  endfacet
  facet normal 0 0 -1
    outer loop
      vertex 284.575 -14.6037 -10
      vertex 284.575 14.6037 -10
      vertex 285.189 14.7343 -10
    endloop
  endfacet
  facet normal 0 0 -1
    outer loop
      vertex 283.966 -14.4474 -10
      vertex 284.575 14.6037 -10
      vertex 284.575 -14.6037 -10
    endloop
  endfacet
  facet normal 0 0 -1
    outer loop
      vertex 283.966 -14.4474 -10
      vertex 283.966 14.4474 -10
      vertex 284.575 14.6037 -10
    endloop
  endfacet
  facet normal 0 0 -1
    outer loop
      vertex 283.365 -14.2658 -10
      vertex 283.966 14.4474 -10
      vertex 283.966 -14.4474 -10
    endloop
  endfacet
  facet normal 0 0 -1
    outer loop
      vertex 283.365 -14.2658 -10
      vertex 283.365 14.2658 -10
      vertex 283.966 14.4474 -10
    endloop
  endfacet
  facet normal 0 0 -1
    outer loop
      vertex 282.771 -14.0592 -10
      vertex 283.365 14.2658 -10
      vertex 283.365 -14.2658 -10
    endloop
  endfacet
  facet normal 0 0 -1
    outer loop
      vertex 282.771 -14.0592 -10
      vertex 282.771 14.0592 -10
      vertex 283.365 14.2658 -10
    endloop
  endfacet
  facet normal 0 0 -1
    outer loop
      vertex 282.187 -13.8279 -10
      vertex 282.771 14.0592 -10
      vertex 282.771 -14.0592 -10
    endloop
  endfacet
  facet normal 0 0 -1
    outer loop
      vertex 282.187 -13.8279 -10
      vertex 282.187 13.8279 -10
      vertex 282.771 14.0592 -10
    endloop
  endfacet
  facet normal 0 0 -1
    outer loop
      vertex 281.613 -13.5724 -10
      vertex 282.187 13.8279 -10
      vertex 282.187 -13.8279 -10
    endloop
  endfacet
  facet normal 0 0 -1
    outer loop
      vertex 281.613 -13.5724 -10
      vertex 281.613 13.5724 -10
      vertex 282.187 13.8279 -10
    endloop
  endfacet
  facet normal 0 0 -1
    outer loop
      vertex 281.051 -13.2931 -10
      vertex 281.613 13.5724 -10
      vertex 281.613 -13.5724 -10
    endloop
  endfacet
  facet normal 0 0 -1
    outer loop
      vertex 281.051 -13.2931 -10
      vertex 281.051 13.2931 -10
      vertex 281.613 13.5724 -10
    endloop
  endfacet
  facet normal 0 0 -1
    outer loop
      vertex 280.5 -12.9904 -10
      vertex 281.051 13.2931 -10
      vertex 281.051 -13.2931 -10
    endloop
  endfacet
  facet normal 0 0 -1
    outer loop
      vertex 280.5 -12.9904 -10
      vertex 280.5 12.9904 -10
      vertex 281.051 13.2931 -10
    endloop
  endfacet
  facet normal 0 0 -1
    outer loop
      vertex 279.963 -12.6649 -10
      vertex 280.5 12.9904 -10
      vertex 280.5 -12.9904 -10
    endloop
  endfacet
  facet normal 0 0 -1
    outer loop
      vertex 279.963 -12.6649 -10
      vertex 279.963 12.6649 -10
      vertex 280.5 12.9904 -10
    endloop
  endfacet
  facet normal 0 0 -1
    outer loop
      vertex 279.439 -12.3172 -10
      vertex 279.963 12.6649 -10
      vertex 279.963 -12.6649 -10
    endloop
  endfacet
  facet normal 0 0 -1
    outer loop
      vertex 279.439 -12.3172 -10
      vertex 279.439 12.3172 -10
      vertex 279.963 12.6649 -10
    endloop
  endfacet
  facet normal 0 0 -1
    outer loop
      vertex 278.931 -11.9479 -10
      vertex 279.439 12.3172 -10
      vertex 279.439 -12.3172 -10
    endloop
  endfacet
  facet normal 0 0 -1
    outer loop
      vertex 278.931 -11.9479 -10
      vertex 278.931 11.9479 -10
      vertex 279.439 12.3172 -10
    endloop
  endfacet
  facet normal 0 0 -1
    outer loop
      vertex 278.439 -11.5577 -10
      vertex 278.931 11.9479 -10
      vertex 278.931 -11.9479 -10
    endloop
  endfacet
  facet normal 0 0 -1
    outer loop
      vertex 278.439 -11.5577 -10
      vertex 278.439 11.5577 -10
      vertex 278.931 11.9479 -10
    endloop
  endfacet
  facet normal 0 0 -1
    outer loop
      vertex 277.963 -11.1472 -10
      vertex 278.439 11.5577 -10
      vertex 278.439 -11.5577 -10
    endloop
  endfacet
  facet normal 0 0 -1
    outer loop
      vertex 277.963 -11.1472 -10
      vertex 277.963 11.1472 -10
      vertex 278.439 11.5577 -10
    endloop
  endfacet
  facet normal 0 0 -1
    outer loop
      vertex 277.505 -10.7171 -10
      vertex 277.963 11.1472 -10
      vertex 277.963 -11.1472 -10
    endloop
  endfacet
  facet normal 0 0 -1
    outer loop
      vertex 277.505 -10.7171 -10
      vertex 277.505 10.7171 -10
      vertex 277.963 11.1472 -10
    endloop
  endfacet
  facet normal 0 0 -1
    outer loop
      vertex 277.065 -10.2682 -10
      vertex 277.505 10.7171 -10
      vertex 277.505 -10.7171 -10
    endloop
  endfacet
  facet normal 0 0 -1
    outer loop
      vertex 277.065 -10.2682 -10
      vertex 277.065 10.2682 -10
      vertex 277.505 10.7171 -10
    endloop
  endfacet
  facet normal 0 0 -1
    outer loop
      vertex 276.645 -9.80131 -10
      vertex 277.065 10.2682 -10
      vertex 277.065 -10.2682 -10
    endloop
  endfacet
  facet normal 0 0 -1
    outer loop
      vertex 276.645 -9.80131 -10
      vertex 276.645 9.80131 -10
      vertex 277.065 10.2682 -10
    endloop
  endfacet
  facet normal 0 0 -1
    outer loop
      vertex 276.245 -9.31722 -10
      vertex 276.645 9.80131 -10
      vertex 276.645 -9.80131 -10
    endloop
  endfacet
  facet normal 0 0 -1
    outer loop
      vertex 276.245 -9.31722 -10
      vertex 276.245 9.31722 -10
      vertex 276.645 9.80131 -10
    endloop
  endfacet
  facet normal 0 0 -1
    outer loop
      vertex 275.865 -8.81678 -10
      vertex 276.245 9.31722 -10
      vertex 276.245 -9.31722 -10
    endloop
  endfacet
  facet normal 0 0 -1
    outer loop
      vertex 275.865 -8.81678 -10
      vertex 275.865 8.81678 -10
      vertex 276.245 9.31722 -10
    endloop
  endfacet
  facet normal 0 0 -1
    outer loop
      vertex 275.506 -8.30087 -10
      vertex 275.865 8.81678 -10
      vertex 275.865 -8.81678 -10
    endloop
  endfacet
  facet normal 0 0 -1
    outer loop
      vertex 275.506 -8.30087 -10
      vertex 275.506 8.30087 -10
      vertex 275.865 8.81678 -10
    endloop
  endfacet
  facet normal 0 0 -1
    outer loop
      vertex 275.17 -7.77041 -10
      vertex 275.506 8.30087 -10
      vertex 275.506 -8.30087 -10
    endloop
  endfacet
  facet normal 0 0 -1
    outer loop
      vertex 275.17 -7.77041 -10
      vertex 275.17 7.77041 -10
      vertex 275.506 8.30087 -10
    endloop
  endfacet
  facet normal 0 0 -1
    outer loop
      vertex 274.855 -7.22631 -10
      vertex 275.17 7.77041 -10
      vertex 275.17 -7.77041 -10
    endloop
  endfacet
  facet normal 0 0 -1
    outer loop
      vertex 274.855 -7.22631 -10
      vertex 274.855 7.22631 -10
      vertex 275.17 7.77041 -10
    endloop
  endfacet
  facet normal 0 0 -1
    outer loop
      vertex 274.564 -6.66953 -10
      vertex 274.855 7.22631 -10
      vertex 274.855 -7.22631 -10
    endloop
  endfacet
  facet normal 0 0 -1
    outer loop
      vertex 274.564 -6.66953 -10
      vertex 274.564 6.66953 -10
      vertex 274.855 7.22631 -10
    endloop
  endfacet
  facet normal 0 0 -1
    outer loop
      vertex 274.297 -6.10105 -10
      vertex 274.564 6.66953 -10
      vertex 274.564 -6.66953 -10
    endloop
  endfacet
  facet normal 0 0 -1
    outer loop
      vertex 274.297 -6.10105 -10
      vertex 274.297 6.10105 -10
      vertex 274.564 6.66953 -10
    endloop
  endfacet
  facet normal 0 0 -1
    outer loop
      vertex 274.053 -5.52187 -10
      vertex 274.297 6.10105 -10
      vertex 274.297 -6.10105 -10
    endloop
  endfacet
  facet normal 0 0 -1
    outer loop
      vertex 274.053 -5.52187 -10
      vertex 274.053 5.52187 -10
      vertex 274.297 6.10105 -10
    endloop
  endfacet
  facet normal 0 0 -1
    outer loop
      vertex 273.834 -4.933 -10
      vertex 274.053 5.52187 -10
      vertex 274.053 -5.52187 -10
    endloop
  endfacet
  facet normal 0 0 -1
    outer loop
      vertex 273.834 -4.933 -10
      vertex 273.834 4.933 -10
      vertex 274.053 5.52187 -10
    endloop
  endfacet
  facet normal 0 0 -1
    outer loop
      vertex 273.64 -4.33548 -10
      vertex 273.834 4.933 -10
      vertex 273.834 -4.933 -10
    endloop
  endfacet
  facet normal 0 0 -1
    outer loop
      vertex 273.64 -4.33548 -10
      vertex 273.64 4.33548 -10
      vertex 273.834 4.933 -10
    endloop
  endfacet
  facet normal 0 0 -1
    outer loop
      vertex 273.471 -3.73035 -10
      vertex 273.64 4.33548 -10
      vertex 273.64 -4.33548 -10
    endloop
  endfacet
  facet normal 0 0 -1
    outer loop
      vertex 273.471 -3.73035 -10
      vertex 273.471 3.73035 -10
      vertex 273.64 4.33548 -10
    endloop
  endfacet
  facet normal 0 0 -1
    outer loop
      vertex 273.328 -3.11868 -10
      vertex 273.471 3.73035 -10
      vertex 273.471 -3.73035 -10
    endloop
  endfacet
  facet normal 0 0 -1
    outer loop
      vertex 273.328 -3.11868 -10
      vertex 273.328 3.11868 -10
      vertex 273.471 3.73035 -10
    endloop
  endfacet
  facet normal 0 0 -1
    outer loop
      vertex 273.21 -2.50153 -10
      vertex 273.328 3.11868 -10
      vertex 273.328 -3.11868 -10
    endloop
  endfacet
  facet normal 0 0 -1
    outer loop
      vertex 273.21 -2.50153 -10
      vertex 273.21 2.50153 -10
      vertex 273.328 3.11868 -10
    endloop
  endfacet
  facet normal 0 0 -1
    outer loop
      vertex 273.118 -1.88 -10
      vertex 273.21 2.50153 -10
      vertex 273.21 -2.50153 -10
    endloop
  endfacet
  facet normal 0 0 -1
    outer loop
      vertex 273.118 -1.88 -10
      vertex 273.118 1.88 -10
      vertex 273.21 2.50153 -10
    endloop
  endfacet
  facet normal 0 0 -1
    outer loop
      vertex 273.053 -1.25517 -10
      vertex 273.118 1.88 -10
      vertex 273.118 -1.88 -10
    endloop
  endfacet
  facet normal 0 0 -1
    outer loop
      vertex 273.053 -1.25517 -10
      vertex 273.053 1.25517 -10
      vertex 273.118 1.88 -10
    endloop
  endfacet
  facet normal 0 0 -1
    outer loop
      vertex 273.013 -0.628135 -10
      vertex 273.053 1.25517 -10
      vertex 273.053 -1.25517 -10
    endloop
  endfacet
  facet normal 0 0 -1
    outer loop
      vertex 273.013 -0.628135 -10
      vertex 273.013 0.628135 -10
      vertex 273.053 1.25517 -10
    endloop
  endfacet
  facet normal 0 -0 -1
    outer loop
      vertex 273.013 0.628135 -10
      vertex 273.013 -0.628135 -10
      vertex 273 0 -10
    endloop
  endfacet
  facet normal 0 0 1
    outer loop
      vertex 302.987 0.628135 10
      vertex 302.987 -0.628135 10
      vertex 303 0 10
    endloop
  endfacet
  facet normal 0 0 1
    outer loop
      vertex 302.947 1.25517 10
      vertex 302.987 -0.628135 10
      vertex 302.987 0.628135 10
    endloop
  endfacet
  facet normal 0 0 1
    outer loop
      vertex 302.947 1.25517 10
      vertex 302.947 -1.25517 10
      vertex 302.987 -0.628135 10
    endloop
  endfacet
  facet normal 0 0 1
    outer loop
      vertex 302.882 1.88 10
      vertex 302.947 -1.25517 10
      vertex 302.947 1.25517 10
    endloop
  endfacet
  facet normal 0 0 1
    outer loop
      vertex 302.882 1.88 10
      vertex 302.882 -1.88 10
      vertex 302.947 -1.25517 10
    endloop
  endfacet
  facet normal 0 0 1
    outer loop
      vertex 302.79 2.50153 10
      vertex 302.882 -1.88 10
      vertex 302.882 1.88 10
    endloop
  endfacet
  facet normal 0 0 1
    outer loop
      vertex 302.79 2.50153 10
      vertex 302.79 -2.50153 10
      vertex 302.882 -1.88 10
    endloop
  endfacet
  facet normal 0 0 1
    outer loop
      vertex 302.672 3.11868 10
      vertex 302.79 -2.50153 10
      vertex 302.79 2.50153 10
    endloop
  endfacet
  facet normal 0 0 1
    outer loop
      vertex 302.672 3.11868 10
      vertex 302.672 -3.11868 10
      vertex 302.79 -2.50153 10
    endloop
  endfacet
  facet normal 0 0 1
    outer loop
      vertex 302.529 3.73035 10
      vertex 302.672 -3.11868 10
      vertex 302.672 3.11868 10
    endloop
  endfacet
  facet normal 0 0 1
    outer loop
      vertex 302.529 3.73035 10
      vertex 302.529 -3.73035 10
      vertex 302.672 -3.11868 10
    endloop
  endfacet
  facet normal 0 0 1
    outer loop
      vertex 302.36 4.33548 10
      vertex 302.529 -3.73035 10
      vertex 302.529 3.73035 10
    endloop
  endfacet
  facet normal 0 0 1
    outer loop
      vertex 302.36 4.33548 10
      vertex 302.36 -4.33548 10
      vertex 302.529 -3.73035 10
    endloop
  endfacet
  facet normal 0 0 1
    outer loop
      vertex 302.166 4.933 10
      vertex 302.36 -4.33548 10
      vertex 302.36 4.33548 10
    endloop
  endfacet
  facet normal 0 0 1
    outer loop
      vertex 302.166 4.933 10
      vertex 302.166 -4.933 10
      vertex 302.36 -4.33548 10
    endloop
  endfacet
  facet normal 0 0 1
    outer loop
      vertex 301.947 5.52187 10
      vertex 302.166 -4.933 10
      vertex 302.166 4.933 10
    endloop
  endfacet
  facet normal 0 0 1
    outer loop
      vertex 301.947 5.52187 10
      vertex 301.947 -5.52187 10
      vertex 302.166 -4.933 10
    endloop
  endfacet
  facet normal 0 0 1
    outer loop
      vertex 301.703 6.10105 10
      vertex 301.947 -5.52187 10
      vertex 301.947 5.52187 10
    endloop
  endfacet
  facet normal 0 0 1
    outer loop
      vertex 301.703 6.10105 10
      vertex 301.703 -6.10105 10
      vertex 301.947 -5.52187 10
    endloop
  endfacet
  facet normal 0 0 1
    outer loop
      vertex 301.436 6.66953 10
      vertex 301.703 -6.10105 10
      vertex 301.703 6.10105 10
    endloop
  endfacet
  facet normal 0 0 1
    outer loop
      vertex 301.436 6.66953 10
      vertex 301.436 -6.66953 10
      vertex 301.703 -6.10105 10
    endloop
  endfacet
  facet normal 0 0 1
    outer loop
      vertex 301.145 7.22631 10
      vertex 301.436 -6.66953 10
      vertex 301.436 6.66953 10
    endloop
  endfacet
  facet normal 0 0 1
    outer loop
      vertex 301.145 7.22631 10
      vertex 301.145 -7.22631 10
      vertex 301.436 -6.66953 10
    endloop
  endfacet
  facet normal 0 0 1
    outer loop
      vertex 300.83 7.77041 10
      vertex 301.145 -7.22631 10
      vertex 301.145 7.22631 10
    endloop
  endfacet
  facet normal 0 0 1
    outer loop
      vertex 300.83 7.77041 10
      vertex 300.83 -7.77041 10
      vertex 301.145 -7.22631 10
    endloop
  endfacet
  facet normal 0 0 1
    outer loop
      vertex 300.494 8.30087 10
      vertex 300.83 -7.77041 10
      vertex 300.83 7.77041 10
    endloop
  endfacet
  facet normal 0 0 1
    outer loop
      vertex 300.494 8.30087 10
      vertex 300.494 -8.30087 10
      vertex 300.83 -7.77041 10
    endloop
  endfacet
  facet normal 0 0 1
    outer loop
      vertex 300.135 8.81678 10
      vertex 300.494 -8.30087 10
      vertex 300.494 8.30087 10
    endloop
  endfacet
  facet normal 0 0 1
    outer loop
      vertex 300.135 8.81678 10
      vertex 300.135 -8.81678 10
      vertex 300.494 -8.30087 10
    endloop
  endfacet
  facet normal 0 0 1
    outer loop
      vertex 299.755 9.31722 10
      vertex 300.135 -8.81678 10
      vertex 300.135 8.81678 10
    endloop
  endfacet
  facet normal 0 0 1
    outer loop
      vertex 299.755 9.31722 10
      vertex 299.755 -9.31722 10
      vertex 300.135 -8.81678 10
    endloop
  endfacet
  facet normal 0 0 1
    outer loop
      vertex 299.355 9.80131 10
      vertex 299.755 -9.31722 10
      vertex 299.755 9.31722 10
    endloop
  endfacet
  facet normal 0 0 1
    outer loop
      vertex 299.355 9.80131 10
      vertex 299.355 -9.80131 10
      vertex 299.755 -9.31722 10
    endloop
  endfacet
  facet normal 0 0 1
    outer loop
      vertex 298.935 10.2682 10
      vertex 299.355 -9.80131 10
      vertex 299.355 9.80131 10
    endloop
  endfacet
  facet normal 0 0 1
    outer loop
      vertex 298.935 10.2682 10
      vertex 298.935 -10.2682 10
      vertex 299.355 -9.80131 10
    endloop
  endfacet
  facet normal 0 0 1
    outer loop
      vertex 298.495 10.7171 10
      vertex 298.935 -10.2682 10
      vertex 298.935 10.2682 10
    endloop
  endfacet
  facet normal 0 0 1
    outer loop
      vertex 298.495 10.7171 10
      vertex 298.495 -10.7171 10
      vertex 298.935 -10.2682 10
    endloop
  endfacet
  facet normal 0 0 1
    outer loop
      vertex 298.037 11.1472 10
      vertex 298.495 -10.7171 10
      vertex 298.495 10.7171 10
    endloop
  endfacet
  facet normal 0 0 1
    outer loop
      vertex 298.037 11.1472 10
      vertex 298.037 -11.1472 10
      vertex 298.495 -10.7171 10
    endloop
  endfacet
  facet normal 0 0 1
    outer loop
      vertex 297.561 11.5577 10
      vertex 298.037 -11.1472 10
      vertex 298.037 11.1472 10
    endloop
  endfacet
  facet normal 0 0 1
    outer loop
      vertex 297.561 11.5577 10
      vertex 297.561 -11.5577 10
      vertex 298.037 -11.1472 10
    endloop
  endfacet
  facet normal 0 0 1
    outer loop
      vertex 297.069 11.9479 10
      vertex 297.561 -11.5577 10
      vertex 297.561 11.5577 10
    endloop
  endfacet
  facet normal 0 0 1
    outer loop
      vertex 297.069 11.9479 10
      vertex 297.069 -11.9479 10
      vertex 297.561 -11.5577 10
    endloop
  endfacet
  facet normal 0 0 1
    outer loop
      vertex 296.561 12.3172 10
      vertex 297.069 -11.9479 10
      vertex 297.069 11.9479 10
    endloop
  endfacet
  facet normal 0 0 1
    outer loop
      vertex 296.561 12.3172 10
      vertex 296.561 -12.3172 10
      vertex 297.069 -11.9479 10
    endloop
  endfacet
  facet normal 0 0 1
    outer loop
      vertex 296.037 12.6649 10
      vertex 296.561 -12.3172 10
      vertex 296.561 12.3172 10
    endloop
  endfacet
  facet normal 0 0 1
    outer loop
      vertex 296.037 12.6649 10
      vertex 296.037 -12.6649 10
      vertex 296.561 -12.3172 10
    endloop
  endfacet
  facet normal 0 0 1
    outer loop
      vertex 295.5 12.9904 10
      vertex 296.037 -12.6649 10
      vertex 296.037 12.6649 10
    endloop
  endfacet
  facet normal 0 0 1
    outer loop
      vertex 295.5 12.9904 10
      vertex 295.5 -12.9904 10
      vertex 296.037 -12.6649 10
    endloop
  endfacet
  facet normal 0 0 1
    outer loop
      vertex 294.949 13.2931 10
      vertex 295.5 -12.9904 10
      vertex 295.5 12.9904 10
    endloop
  endfacet
  facet normal 0 0 1
    outer loop
      vertex 294.949 13.2931 10
      vertex 294.949 -13.2931 10
      vertex 295.5 -12.9904 10
    endloop
  endfacet
  facet normal 0 0 1
    outer loop
      vertex 294.387 13.5724 10
      vertex 294.949 -13.2931 10
      vertex 294.949 13.2931 10
    endloop
  endfacet
  facet normal 0 0 1
    outer loop
      vertex 294.387 13.5724 10
      vertex 294.387 -13.5724 10
      vertex 294.949 -13.2931 10
    endloop
  endfacet
  facet normal 0 0 1
    outer loop
      vertex 293.813 13.8279 10
      vertex 294.387 -13.5724 10
      vertex 294.387 13.5724 10
    endloop
  endfacet
  facet normal 0 0 1
    outer loop
      vertex 293.813 13.8279 10
      vertex 293.813 -13.8279 10
      vertex 294.387 -13.5724 10
    endloop
  endfacet
  facet normal 0 0 1
    outer loop
      vertex 293.229 14.0592 10
      vertex 293.813 -13.8279 10
      vertex 293.813 13.8279 10
    endloop
  endfacet
  facet normal 0 0 1
    outer loop
      vertex 293.229 14.0592 10
      vertex 293.229 -14.0592 10
      vertex 293.813 -13.8279 10
    endloop
  endfacet
  facet normal 0 0 1
    outer loop
      vertex 292.635 14.2658 10
      vertex 293.229 -14.0592 10
      vertex 293.229 14.0592 10
    endloop
  endfacet
  facet normal 0 0 1
    outer loop
      vertex 292.635 14.2658 10
      vertex 292.635 -14.2658 10
      vertex 293.229 -14.0592 10
    endloop
  endfacet
  facet normal 0 0 1
    outer loop
      vertex 292.034 14.4474 10
      vertex 292.635 -14.2658 10
      vertex 292.635 14.2658 10
    endloop
  endfacet
  facet normal 0 0 1
    outer loop
      vertex 292.034 14.4474 10
      vertex 292.034 -14.4474 10
      vertex 292.635 -14.2658 10
    endloop
  endfacet
  facet normal 0 0 1
    outer loop
      vertex 291.425 14.6037 10
      vertex 292.034 -14.4474 10
      vertex 292.034 14.4474 10
    endloop
  endfacet
  facet normal 0 0 1
    outer loop
      vertex 291.425 14.6037 10
      vertex 291.425 -14.6037 10
      vertex 292.034 -14.4474 10
    endloop
  endfacet
  facet normal 0 0 1
    outer loop
      vertex 290.811 14.7343 10
      vertex 291.425 -14.6037 10
      vertex 291.425 14.6037 10
    endloop
  endfacet
  facet normal 0 0 1
    outer loop
      vertex 290.811 14.7343 10
      vertex 290.811 -14.7343 10
      vertex 291.425 -14.6037 10
    endloop
  endfacet
  facet normal 0 0 1
    outer loop
      vertex 290.191 14.8391 10
      vertex 290.811 -14.7343 10
      vertex 290.811 14.7343 10
    endloop
  endfacet
  facet normal 0 0 1
    outer loop
      vertex 290.191 14.8391 10
      vertex 290.191 -14.8391 10
      vertex 290.811 -14.7343 10
    endloop
  endfacet
  facet normal 0 0 1
    outer loop
      vertex 289.568 14.9178 10
      vertex 290.191 -14.8391 10
      vertex 290.191 14.8391 10
    endloop
  endfacet
  facet normal 0 0 1
    outer loop
      vertex 289.568 14.9178 10
      vertex 289.568 -14.9178 10
      vertex 290.191 -14.8391 10
    endloop
  endfacet
  facet normal 0 0 1
    outer loop
      vertex 288.942 14.9704 10
      vertex 289.568 -14.9178 10
      vertex 289.568 14.9178 10
    endloop
  endfacet
  facet normal 0 0 1
    outer loop
      vertex 288.942 14.9704 10
      vertex 288.942 -14.9704 10
      vertex 289.568 -14.9178 10
    endloop
  endfacet
  facet normal 0 0 1
    outer loop
      vertex 288.314 14.9967 10
      vertex 288.942 -14.9704 10
      vertex 288.942 14.9704 10
    endloop
  endfacet
  facet normal 0 0 1
    outer loop
      vertex 288.314 14.9967 10
      vertex 288.314 -14.9967 10
      vertex 288.942 -14.9704 10
    endloop
  endfacet
  facet normal -0 0 1
    outer loop
      vertex 287.686 14.9967 10
      vertex 288.314 -14.9967 10
      vertex 288.314 14.9967 10
    endloop
  endfacet
  facet normal 0 0 1
    outer loop
      vertex 287.686 14.9967 10
      vertex 287.686 -14.9967 10
      vertex 288.314 -14.9967 10
    endloop
  endfacet
  facet normal -0 0 1
    outer loop
      vertex 287.058 14.9704 10
      vertex 287.686 -14.9967 10
      vertex 287.686 14.9967 10
    endloop
  endfacet
  facet normal 0 0 1
    outer loop
      vertex 287.058 14.9704 10
      vertex 287.058 -14.9704 10
      vertex 287.686 -14.9967 10
    endloop
  endfacet
  facet normal -0 0 1
    outer loop
      vertex 286.432 14.9178 10
      vertex 287.058 -14.9704 10
      vertex 287.058 14.9704 10
    endloop
  endfacet
  facet normal 0 0 1
    outer loop
      vertex 286.432 14.9178 10
      vertex 286.432 -14.9178 10
      vertex 287.058 -14.9704 10
    endloop
  endfacet
  facet normal -0 0 1
    outer loop
      vertex 285.809 14.8391 10
      vertex 286.432 -14.9178 10
      vertex 286.432 14.9178 10
    endloop
  endfacet
  facet normal 0 0 1
    outer loop
      vertex 285.809 14.8391 10
      vertex 285.809 -14.8391 10
      vertex 286.432 -14.9178 10
    endloop
  endfacet
  facet normal -0 0 1
    outer loop
      vertex 285.189 14.7343 10
      vertex 285.809 -14.8391 10
      vertex 285.809 14.8391 10
    endloop
  endfacet
  facet normal 0 0 1
    outer loop
      vertex 285.189 14.7343 10
      vertex 285.189 -14.7343 10
      vertex 285.809 -14.8391 10
    endloop
  endfacet
  facet normal -0 0 1
    outer loop
      vertex 284.575 14.6037 10
      vertex 285.189 -14.7343 10
      vertex 285.189 14.7343 10
    endloop
  endfacet
  facet normal 0 0 1
    outer loop
      vertex 284.575 14.6037 10
      vertex 284.575 -14.6037 10
      vertex 285.189 -14.7343 10
    endloop
  endfacet
  facet normal -0 0 1
    outer loop
      vertex 283.966 14.4474 10
      vertex 284.575 -14.6037 10
      vertex 284.575 14.6037 10
    endloop
  endfacet
  facet normal 0 0 1
    outer loop
      vertex 283.966 14.4474 10
      vertex 283.966 -14.4474 10
      vertex 284.575 -14.6037 10
    endloop
  endfacet
  facet normal -0 0 1
    outer loop
      vertex 283.365 14.2658 10
      vertex 283.966 -14.4474 10
      vertex 283.966 14.4474 10
    endloop
  endfacet
  facet normal 0 0 1
    outer loop
      vertex 283.365 14.2658 10
      vertex 283.365 -14.2658 10
      vertex 283.966 -14.4474 10
    endloop
  endfacet
  facet normal -0 0 1
    outer loop
      vertex 282.771 14.0592 10
      vertex 283.365 -14.2658 10
      vertex 283.365 14.2658 10
    endloop
  endfacet
  facet normal 0 0 1
    outer loop
      vertex 282.771 14.0592 10
      vertex 282.771 -14.0592 10
      vertex 283.365 -14.2658 10
    endloop
  endfacet
  facet normal -0 0 1
    outer loop
      vertex 282.187 13.8279 10
      vertex 282.771 -14.0592 10
      vertex 282.771 14.0592 10
    endloop
  endfacet
  facet normal 0 0 1
    outer loop
      vertex 282.187 13.8279 10
      vertex 282.187 -13.8279 10
      vertex 282.771 -14.0592 10
    endloop
  endfacet
  facet normal -0 0 1
    outer loop
      vertex 281.613 13.5724 10
      vertex 282.187 -13.8279 10
      vertex 282.187 13.8279 10
    endloop
  endfacet
  facet normal 0 0 1
    outer loop
      vertex 281.613 13.5724 10
      vertex 281.613 -13.5724 10
      vertex 282.187 -13.8279 10
    endloop
  endfacet
  facet normal -0 0 1
    outer loop
      vertex 281.051 13.2931 10
      vertex 281.613 -13.5724 10
      vertex 281.613 13.5724 10
    endloop
  endfacet
  facet normal 0 0 1
    outer loop
      vertex 281.051 13.2931 10
      vertex 281.051 -13.2931 10
      vertex 281.613 -13.5724 10
    endloop
  endfacet
  facet normal -0 0 1
    outer loop
      vertex 280.5 12.9904 10
      vertex 281.051 -13.2931 10
      vertex 281.051 13.2931 10
    endloop
  endfacet
  facet normal 0 0 1
    outer loop
      vertex 280.5 12.9904 10
      vertex 280.5 -12.9904 10
      vertex 281.051 -13.2931 10
    endloop
  endfacet
  facet normal -0 0 1
    outer loop
      vertex 279.963 12.6649 10
      vertex 280.5 -12.9904 10
      vertex 280.5 12.9904 10
    endloop
  endfacet
  facet normal 0 0 1
    outer loop
      vertex 279.963 12.6649 10
      vertex 279.963 -12.6649 10
      vertex 280.5 -12.9904 10
    endloop
  endfacet
  facet normal -0 0 1
    outer loop
      vertex 279.439 12.3172 10
      vertex 279.963 -12.6649 10
      vertex 279.963 12.6649 10
    endloop
  endfacet
  facet normal 0 0 1
    outer loop
      vertex 279.439 12.3172 10
      vertex 279.439 -12.3172 10
      vertex 279.963 -12.6649 10
    endloop
  endfacet
  facet normal -0 0 1
    outer loop
      vertex 278.931 11.9479 10
      vertex 279.439 -12.3172 10
      vertex 279.439 12.3172 10
    endloop
  endfacet
  facet normal 0 0 1
    outer loop
      vertex 278.931 11.9479 10
      vertex 278.931 -11.9479 10
      vertex 279.439 -12.3172 10
    endloop
  endfacet
  facet normal -0 0 1
    outer loop
      vertex 278.439 11.5577 10
      vertex 278.931 -11.9479 10
      vertex 278.931 11.9479 10
    endloop
  endfacet
  facet normal 0 0 1
    outer loop
      vertex 278.439 11.5577 10
      vertex 278.439 -11.5577 10
      vertex 278.931 -11.9479 10
    endloop
  endfacet
  facet normal -0 0 1
    outer loop
      vertex 277.963 11.1472 10
      vertex 278.439 -11.5577 10
      vertex 278.439 11.5577 10
    endloop
  endfacet
  facet normal 0 0 1
    outer loop
      vertex 277.963 11.1472 10
      vertex 277.963 -11.1472 10
      vertex 278.439 -11.5577 10
    endloop
  endfacet
  facet normal -0 0 1
    outer loop
      vertex 277.505 10.7171 10
      vertex 277.963 -11.1472 10
      vertex 277.963 11.1472 10
    endloop
  endfacet
  facet normal 0 0 1
    outer loop
      vertex 277.505 10.7171 10
      vertex 277.505 -10.7171 10
      vertex 277.963 -11.1472 10
    endloop
  endfacet
  facet normal -0 0 1
    outer loop
      vertex 277.065 10.2682 10
      vertex 277.505 -10.7171 10
      vertex 277.505 10.7171 10
    endloop
  endfacet
  facet normal 0 0 1
    outer loop
      vertex 277.065 10.2682 10
      vertex 277.065 -10.2682 10
      vertex 277.505 -10.7171 10
    endloop
  endfacet
  facet normal -0 0 1
    outer loop
      vertex 276.645 9.80131 10
      vertex 277.065 -10.2682 10
      vertex 277.065 10.2682 10
    endloop
  endfacet
  facet normal 0 0 1
    outer loop
      vertex 276.645 9.80131 10
      vertex 276.645 -9.80131 10
      vertex 277.065 -10.2682 10
    endloop
  endfacet
  facet normal -0 0 1
    outer loop
      vertex 276.245 9.31722 10
      vertex 276.645 -9.80131 10
      vertex 276.645 9.80131 10
    endloop
  endfacet
  facet normal 0 0 1
    outer loop
      vertex 276.245 9.31722 10
      vertex 276.245 -9.31722 10
      vertex 276.645 -9.80131 10
    endloop
  endfacet
  facet normal -0 0 1
    outer loop
      vertex 275.865 8.81678 10
      vertex 276.245 -9.31722 10
      vertex 276.245 9.31722 10
    endloop
  endfacet
  facet normal 0 0 1
    outer loop
      vertex 275.865 8.81678 10
      vertex 275.865 -8.81678 10
      vertex 276.245 -9.31722 10
    endloop
  endfacet
  facet normal -0 0 1
    outer loop
      vertex 275.506 8.30087 10
      vertex 275.865 -8.81678 10
      vertex 275.865 8.81678 10
    endloop
  endfacet
  facet normal 0 0 1
    outer loop
      vertex 275.506 8.30087 10
      vertex 275.506 -8.30087 10
      vertex 275.865 -8.81678 10
    endloop
  endfacet
  facet normal -0 0 1
    outer loop
      vertex 275.17 7.77041 10
      vertex 275.506 -8.30087 10
      vertex 275.506 8.30087 10
    endloop
  endfacet
  facet normal 0 0 1
    outer loop
      vertex 275.17 7.77041 10
      vertex 275.17 -7.77041 10
      vertex 275.506 -8.30087 10
    endloop
  endfacet
  facet normal -0 0 1
    outer loop
      vertex 274.855 7.22631 10
      vertex 275.17 -7.77041 10
      vertex 275.17 7.77041 10
    endloop
  endfacet
  facet normal 0 0 1
    outer loop
      vertex 274.855 7.22631 10
      vertex 274.855 -7.22631 10
      vertex 275.17 -7.77041 10
    endloop
  endfacet
  facet normal -0 0 1
    outer loop
      vertex 274.564 6.66953 10
      vertex 274.855 -7.22631 10
      vertex 274.855 7.22631 10
    endloop
  endfacet
  facet normal 0 0 1
    outer loop
      vertex 274.564 6.66953 10
      vertex 274.564 -6.66953 10
      vertex 274.855 -7.22631 10
    endloop
  endfacet
  facet normal -0 0 1
    outer loop
      vertex 274.297 6.10105 10
      vertex 274.564 -6.66953 10
      vertex 274.564 6.66953 10
    endloop
  endfacet
  facet normal 0 0 1
    outer loop
      vertex 274.297 6.10105 10
      vertex 274.297 -6.10105 10
      vertex 274.564 -6.66953 10
    endloop
  endfacet
  facet normal -0 0 1
    outer loop
      vertex 274.053 5.52187 10
      vertex 274.297 -6.10105 10
      vertex 274.297 6.10105 10
    endloop
  endfacet
  facet normal 0 0 1
    outer loop
      vertex 274.053 5.52187 10
      vertex 274.053 -5.52187 10
      vertex 274.297 -6.10105 10
    endloop
  endfacet
  facet normal -0 0 1
    outer loop
      vertex 273.834 4.933 10
      vertex 274.053 -5.52187 10
      vertex 274.053 5.52187 10
    endloop
  endfacet
  facet normal 0 0 1
    outer loop
      vertex 273.834 4.933 10
      vertex 273.834 -4.933 10
      vertex 274.053 -5.52187 10
    endloop
  endfacet
  facet normal -0 0 1
    outer loop
      vertex 273.64 4.33548 10
      vertex 273.834 -4.933 10
      vertex 273.834 4.933 10
    endloop
  endfacet
  facet normal 0 0 1
    outer loop
      vertex 273.64 4.33548 10
      vertex 273.64 -4.33548 10
      vertex 273.834 -4.933 10
    endloop
  endfacet
  facet normal -0 0 1
    outer loop
      vertex 273.471 3.73035 10
      vertex 273.64 -4.33548 10
      vertex 273.64 4.33548 10
    endloop
  endfacet
  facet normal 0 0 1
    outer loop
      vertex 273.471 3.73035 10
      vertex 273.471 -3.73035 10
      vertex 273.64 -4.33548 10
    endloop
  endfacet
  facet normal -0 0 1
    outer loop
      vertex 273.328 3.11868 10
      vertex 273.471 -3.73035 10
      vertex 273.471 3.73035 10
    endloop
  endfacet
  facet normal 0 0 1
    outer loop
      vertex 273.328 3.11868 10
      vertex 273.328 -3.11868 10
      vertex 273.471 -3.73035 10
    endloop
  endfacet
  facet normal -0 0 1
    outer loop
      vertex 273.21 2.50153 10
      vertex 273.328 -3.11868 10
      vertex 273.328 3.11868 10
    endloop
  endfacet
  facet normal 0 0 1
    outer loop
      vertex 273.21 2.50153 10
      vertex 273.21 -2.50153 10
      vertex 273.328 -3.11868 10
    endloop
  endfacet
  facet normal -0 0 1
    outer loop
      vertex 273.118 1.88 10
      vertex 273.21 -2.50153 10
      vertex 273.21 2.50153 10
    endloop
  endfacet
  facet normal 0 0 1
    outer loop
      vertex 273.118 1.88 10
      vertex 273.118 -1.88 10
      vertex 273.21 -2.50153 10
    endloop
  endfacet
  facet normal -0 0 1
    outer loop
      vertex 273.053 1.25517 10
      vertex 273.118 -1.88 10
      vertex 273.118 1.88 10
    endloop
  endfacet
  facet normal 0 0 1
    outer loop
      vertex 273.053 1.25517 10
      vertex 273.053 -1.25517 10
      vertex 273.118 -1.88 10
    endloop
  endfacet
  facet normal -0 0 1
    outer loop
      vertex 273.013 0.628135 10
      vertex 273.053 -1.25517 10
      vertex 273.053 1.25517 10
    endloop
  endfacet
  facet normal 0 0 1
    outer loop
      vertex 273.013 0.628135 10
      vertex 273.013 -0.628135 10
      vertex 273.053 -1.25517 10
    endloop
  endfacet
  facet normal 0 -0 1
    outer loop
      vertex 273.013 -0.628135 10
      vertex 273.013 0.628135 10
      vertex 273 0 10
    endloop
  endfacet
endsolid OpenSCAD_Model
