solid OpenSCAD_Model
  facet normal 0.999786 0.0206918 0
    outer loop
      vertex 239 0 10
      vertex 238.987 0.628135 -10
      vertex 238.987 0.628135 10
    endloop
  endfacet
  facet normal 0.999786 0.0206918 0
    outer loop
      vertex 238.987 0.628135 -10
      vertex 239 0 10
      vertex 239 0 -10
    endloop
  endfacet
  facet normal 0.997971 0.0636629 0
    outer loop
      vertex 238.987 0.628135 10
      vertex 238.947 1.25517 -10
      vertex 238.947 1.25517 10
    endloop
  endfacet
  facet normal 0.997971 0.0636629 0
    outer loop
      vertex 238.947 1.25517 -10
      vertex 238.987 0.628135 10
      vertex 238.987 0.628135 -10
    endloop
  endfacet
  facet normal 0.994633 0.10347 0
    outer loop
      vertex 238.947 1.25517 10
      vertex 238.882 1.88 -10
      vertex 238.882 1.88 10
    endloop
  endfacet
  facet normal 0.994633 0.10347 0
    outer loop
      vertex 238.882 1.88 -10
      vertex 238.947 1.25517 10
      vertex 238.947 1.25517 -10
    endloop
  endfacet
  facet normal 0.989222 0.146426 0
    outer loop
      vertex 238.882 1.88 10
      vertex 238.79 2.50153 -10
      vertex 238.79 2.50153 10
    endloop
  endfacet
  facet normal 0.989222 0.146426 0
    outer loop
      vertex 238.79 2.50153 -10
      vertex 238.882 1.88 10
      vertex 238.882 1.88 -10
    endloop
  endfacet
  facet normal 0.982207 0.1878 0
    outer loop
      vertex 238.79 2.50153 10
      vertex 238.672 3.11868 -10
      vertex 238.672 3.11868 10
    endloop
  endfacet
  facet normal 0.982207 0.1878 0
    outer loop
      vertex 238.672 3.11868 -10
      vertex 238.79 2.50153 10
      vertex 238.79 2.50153 -10
    endloop
  endfacet
  facet normal 0.973744 0.227648 0
    outer loop
      vertex 238.672 3.11868 10
      vertex 238.529 3.73035 -10
      vertex 238.529 3.73035 10
    endloop
  endfacet
  facet normal 0.973744 0.227648 0
    outer loop
      vertex 238.529 3.73035 -10
      vertex 238.672 3.11868 10
      vertex 238.672 3.11868 -10
    endloop
  endfacet
  facet normal 0.963144 0.268986 0
    outer loop
      vertex 238.529 3.73035 10
      vertex 238.36 4.33548 -10
      vertex 238.36 4.33548 10
    endloop
  endfacet
  facet normal 0.963144 0.268986 0
    outer loop
      vertex 238.36 4.33548 -10
      vertex 238.529 3.73035 10
      vertex 238.529 3.73035 -10
    endloop
  endfacet
  facet normal 0.951125 0.308807 0
    outer loop
      vertex 238.36 4.33548 10
      vertex 238.166 4.933 -10
      vertex 238.166 4.933 10
    endloop
  endfacet
  facet normal 0.951125 0.308807 0
    outer loop
      vertex 238.166 4.933 -10
      vertex 238.36 4.33548 10
      vertex 238.36 4.33548 -10
    endloop
  endfacet
  facet normal 0.937281 0.348574 0
    outer loop
      vertex 238.166 4.933 10
      vertex 237.947 5.52187 -10
      vertex 237.947 5.52187 10
    endloop
  endfacet
  facet normal 0.937281 0.348574 0
    outer loop
      vertex 237.947 5.52187 -10
      vertex 238.166 4.933 10
      vertex 238.166 4.933 -10
    endloop
  endfacet
  facet normal 0.921559 0.388239 0
    outer loop
      vertex 237.947 5.52187 10
      vertex 237.703 6.10105 -10
      vertex 237.703 6.10105 10
    endloop
  endfacet
  facet normal 0.921559 0.388239 0
    outer loop
      vertex 237.703 6.10105 -10
      vertex 237.947 5.52187 10
      vertex 237.947 5.52187 -10
    endloop
  endfacet
  facet normal 0.905137 0.425119 0
    outer loop
      vertex 237.703 6.10105 10
      vertex 237.436 6.66953 -10
      vertex 237.436 6.66953 10
    endloop
  endfacet
  facet normal 0.905137 0.425119 0
    outer loop
      vertex 237.436 6.66953 -10
      vertex 237.703 6.10105 10
      vertex 237.703 6.10105 -10
    endloop
  endfacet
  facet normal 0.886254 0.463199 0
    outer loop
      vertex 237.436 6.66953 10
      vertex 237.145 7.22631 -10
      vertex 237.145 7.22631 10
    endloop
  endfacet
  facet normal 0.886254 0.463199 0
    outer loop
      vertex 237.145 7.22631 -10
      vertex 237.436 6.66953 10
      vertex 237.436 6.66953 -10
    endloop
  endfacet
  facet normal 0.86543 0.50103 0
    outer loop
      vertex 237.145 7.22631 10
      vertex 236.83 7.77041 -10
      vertex 236.83 7.77041 10
    endloop
  endfacet
  facet normal 0.86543 0.50103 0
    outer loop
      vertex 236.83 7.77041 -10
      vertex 237.145 7.22631 10
      vertex 237.145 7.22631 -10
    endloop
  endfacet
  facet normal 0.844789 0.5351 0
    outer loop
      vertex 236.83 7.77041 10
      vertex 236.494 8.30087 -10
      vertex 236.494 8.30087 10
    endloop
  endfacet
  facet normal 0.844789 0.5351 0
    outer loop
      vertex 236.494 8.30087 -10
      vertex 236.83 7.77041 10
      vertex 236.83 7.77041 -10
    endloop
  endfacet
  facet normal 0.820826 0.571178 0
    outer loop
      vertex 236.494 8.30087 10
      vertex 236.135 8.81678 -10
      vertex 236.135 8.81678 10
    endloop
  endfacet
  facet normal 0.820826 0.571178 0
    outer loop
      vertex 236.135 8.81678 -10
      vertex 236.494 8.30087 10
      vertex 236.494 8.30087 -10
    endloop
  endfacet
  facet normal 0.796418 0.604746 0
    outer loop
      vertex 236.135 8.81678 10
      vertex 235.755 9.31722 -10
      vertex 235.755 9.31722 10
    endloop
  endfacet
  facet normal 0.796418 0.604746 0
    outer loop
      vertex 235.755 9.31722 -10
      vertex 236.135 8.81678 10
      vertex 236.135 8.81678 -10
    endloop
  endfacet
  facet normal 0.770884 0.636976 0
    outer loop
      vertex 235.755 9.31722 10
      vertex 235.355 9.80131 -10
      vertex 235.355 9.80131 10
    endloop
  endfacet
  facet normal 0.770884 0.636976 0
    outer loop
      vertex 235.355 9.80131 -10
      vertex 235.755 9.31722 10
      vertex 235.755 9.31722 -10
    endloop
  endfacet
  facet normal 0.743453 0.668788 0
    outer loop
      vertex 235.355 9.80131 10
      vertex 234.935 10.2682 -10
      vertex 234.935 10.2682 10
    endloop
  endfacet
  facet normal 0.743453 0.668788 0
    outer loop
      vertex 234.935 10.2682 -10
      vertex 235.355 9.80131 10
      vertex 235.355 9.80131 -10
    endloop
  endfacet
  facet normal 0.714151 0.699992 0
    outer loop
      vertex 234.935 10.2682 10
      vertex 234.495 10.7171 -10
      vertex 234.495 10.7171 10
    endloop
  endfacet
  facet normal 0.714151 0.699992 0
    outer loop
      vertex 234.495 10.7171 -10
      vertex 234.935 10.2682 10
      vertex 234.935 10.2682 -10
    endloop
  endfacet
  facet normal 0.684555 0.728961 -0
    outer loop
      vertex 234.495 10.7171 -10
      vertex 234.037 11.1472 10
      vertex 234.495 10.7171 10
    endloop
  endfacet
  facet normal 0.684555 0.728961 0
    outer loop
      vertex 234.037 11.1472 10
      vertex 234.495 10.7171 -10
      vertex 234.037 11.1472 -10
    endloop
  endfacet
  facet normal 0.653081 0.757288 -0
    outer loop
      vertex 234.037 11.1472 -10
      vertex 233.561 11.5577 10
      vertex 234.037 11.1472 10
    endloop
  endfacet
  facet normal 0.653081 0.757288 0
    outer loop
      vertex 233.561 11.5577 10
      vertex 234.037 11.1472 -10
      vertex 233.561 11.5577 -10
    endloop
  endfacet
  facet normal 0.621388 0.783503 -0
    outer loop
      vertex 233.561 11.5577 -10
      vertex 233.069 11.9479 10
      vertex 233.561 11.5577 10
    endloop
  endfacet
  facet normal 0.621388 0.783503 0
    outer loop
      vertex 233.069 11.9479 10
      vertex 233.561 11.5577 -10
      vertex 233.069 11.9479 -10
    endloop
  endfacet
  facet normal 0.588011 0.808853 -0
    outer loop
      vertex 233.069 11.9479 -10
      vertex 232.561 12.3172 10
      vertex 233.069 11.9479 10
    endloop
  endfacet
  facet normal 0.588011 0.808853 0
    outer loop
      vertex 232.561 12.3172 10
      vertex 233.069 11.9479 -10
      vertex 232.561 12.3172 -10
    endloop
  endfacet
  facet normal 0.552901 0.833247 -0
    outer loop
      vertex 232.561 12.3172 -10
      vertex 232.037 12.6649 10
      vertex 232.561 12.3172 10
    endloop
  endfacet
  facet normal 0.552901 0.833247 0
    outer loop
      vertex 232.037 12.6649 10
      vertex 232.561 12.3172 -10
      vertex 232.037 12.6649 -10
    endloop
  endfacet
  facet normal 0.518355 0.855166 -0
    outer loop
      vertex 232.037 12.6649 -10
      vertex 231.5 12.9904 10
      vertex 232.037 12.6649 10
    endloop
  endfacet
  facet normal 0.518355 0.855166 0
    outer loop
      vertex 231.5 12.9904 10
      vertex 232.037 12.6649 -10
      vertex 231.5 12.9904 -10
    endloop
  endfacet
  facet normal 0.481491 0.876451 -0
    outer loop
      vertex 231.5 12.9904 -10
      vertex 230.949 13.2931 10
      vertex 231.5 12.9904 10
    endloop
  endfacet
  facet normal 0.481491 0.876451 0
    outer loop
      vertex 230.949 13.2931 10
      vertex 231.5 12.9904 -10
      vertex 230.949 13.2931 -10
    endloop
  endfacet
  facet normal 0.445045 0.895508 -0
    outer loop
      vertex 230.949 13.2931 -10
      vertex 230.387 13.5724 10
      vertex 230.949 13.2931 10
    endloop
  endfacet
  facet normal 0.445045 0.895508 0
    outer loop
      vertex 230.387 13.5724 10
      vertex 230.949 13.2931 -10
      vertex 230.387 13.5724 -10
    endloop
  endfacet
  facet normal 0.406655 0.913582 -0
    outer loop
      vertex 230.387 13.5724 -10
      vertex 229.813 13.8279 10
      vertex 230.387 13.5724 10
    endloop
  endfacet
  facet normal 0.406655 0.913582 0
    outer loop
      vertex 229.813 13.8279 10
      vertex 230.387 13.5724 -10
      vertex 229.813 13.8279 -10
    endloop
  endfacet
  facet normal 0.368232 0.929734 -0
    outer loop
      vertex 229.813 13.8279 -10
      vertex 229.229 14.0592 10
      vertex 229.813 13.8279 10
    endloop
  endfacet
  facet normal 0.368232 0.929734 0
    outer loop
      vertex 229.229 14.0592 10
      vertex 229.813 13.8279 -10
      vertex 229.229 14.0592 -10
    endloop
  endfacet
  facet normal 0.328508 0.944501 -0
    outer loop
      vertex 229.229 14.0592 -10
      vertex 228.635 14.2658 10
      vertex 229.229 14.0592 10
    endloop
  endfacet
  facet normal 0.328508 0.944501 0
    outer loop
      vertex 228.635 14.2658 10
      vertex 229.229 14.0592 -10
      vertex 228.635 14.2658 -10
    endloop
  endfacet
  facet normal 0.289247 0.957255 -0
    outer loop
      vertex 228.635 14.2658 -10
      vertex 228.034 14.4474 10
      vertex 228.635 14.2658 10
    endloop
  endfacet
  facet normal 0.289247 0.957255 0
    outer loop
      vertex 228.034 14.4474 10
      vertex 228.635 14.2658 -10
      vertex 228.034 14.4474 -10
    endloop
  endfacet
  facet normal 0.248593 0.968608 -0
    outer loop
      vertex 228.034 14.4474 -10
      vertex 227.425 14.6037 10
      vertex 228.034 14.4474 10
    endloop
  endfacet
  facet normal 0.248593 0.968608 0
    outer loop
      vertex 227.425 14.6037 10
      vertex 228.034 14.4474 -10
      vertex 227.425 14.6037 -10
    endloop
  endfacet
  facet normal 0.208049 0.978118 -0
    outer loop
      vertex 227.425 14.6037 -10
      vertex 226.811 14.7343 10
      vertex 227.425 14.6037 10
    endloop
  endfacet
  facet normal 0.208049 0.978118 0
    outer loop
      vertex 226.811 14.7343 10
      vertex 227.425 14.6037 -10
      vertex 226.811 14.7343 -10
    endloop
  endfacet
  facet normal 0.166668 0.986013 -0
    outer loop
      vertex 226.811 14.7343 -10
      vertex 226.191 14.8391 10
      vertex 226.811 14.7343 10
    endloop
  endfacet
  facet normal 0.166668 0.986013 0
    outer loop
      vertex 226.191 14.8391 10
      vertex 226.811 14.7343 -10
      vertex 226.191 14.8391 -10
    endloop
  endfacet
  facet normal 0.125328 0.992115 -0
    outer loop
      vertex 226.191 14.8391 -10
      vertex 225.568 14.9178 10
      vertex 226.191 14.8391 10
    endloop
  endfacet
  facet normal 0.125328 0.992115 0
    outer loop
      vertex 225.568 14.9178 10
      vertex 226.191 14.8391 -10
      vertex 225.568 14.9178 -10
    endloop
  endfacet
  facet normal 0.0837305 0.996488 -0
    outer loop
      vertex 225.568 14.9178 -10
      vertex 224.942 14.9704 10
      vertex 225.568 14.9178 10
    endloop
  endfacet
  facet normal 0.0837305 0.996488 0
    outer loop
      vertex 224.942 14.9704 10
      vertex 225.568 14.9178 -10
      vertex 224.942 14.9704 -10
    endloop
  endfacet
  facet normal 0.0418423 0.999124 -0
    outer loop
      vertex 224.942 14.9704 -10
      vertex 224.314 14.9967 10
      vertex 224.942 14.9704 10
    endloop
  endfacet
  facet normal 0.0418423 0.999124 0
    outer loop
      vertex 224.314 14.9967 10
      vertex 224.942 14.9704 -10
      vertex 224.314 14.9967 -10
    endloop
  endfacet
  facet normal 0 1 -0
    outer loop
      vertex 224.314 14.9967 -10
      vertex 223.686 14.9967 10
      vertex 224.314 14.9967 10
    endloop
  endfacet
  facet normal 0 1 0
    outer loop
      vertex 223.686 14.9967 10
      vertex 224.314 14.9967 -10
      vertex 223.686 14.9967 -10
    endloop
  endfacet
  facet normal -0.0418423 0.999124 0
    outer loop
      vertex 223.686 14.9967 -10
      vertex 223.058 14.9704 10
      vertex 223.686 14.9967 10
    endloop
  endfacet
  facet normal -0.0418423 0.999124 0
    outer loop
      vertex 223.058 14.9704 10
      vertex 223.686 14.9967 -10
      vertex 223.058 14.9704 -10
    endloop
  endfacet
  facet normal -0.0837305 0.996488 0
    outer loop
      vertex 223.058 14.9704 -10
      vertex 222.432 14.9178 10
      vertex 223.058 14.9704 10
    endloop
  endfacet
  facet normal -0.0837305 0.996488 0
    outer loop
      vertex 222.432 14.9178 10
      vertex 223.058 14.9704 -10
      vertex 222.432 14.9178 -10
    endloop
  endfacet
  facet normal -0.125328 0.992115 0
    outer loop
      vertex 222.432 14.9178 -10
      vertex 221.809 14.8391 10
      vertex 222.432 14.9178 10
    endloop
  endfacet
  facet normal -0.125328 0.992115 0
    outer loop
      vertex 221.809 14.8391 10
      vertex 222.432 14.9178 -10
      vertex 221.809 14.8391 -10
    endloop
  endfacet
  facet normal -0.166668 0.986013 0
    outer loop
      vertex 221.809 14.8391 -10
      vertex 221.189 14.7343 10
      vertex 221.809 14.8391 10
    endloop
  endfacet
  facet normal -0.166668 0.986013 0
    outer loop
      vertex 221.189 14.7343 10
      vertex 221.809 14.8391 -10
      vertex 221.189 14.7343 -10
    endloop
  endfacet
  facet normal -0.208049 0.978118 0
    outer loop
      vertex 221.189 14.7343 -10
      vertex 220.575 14.6037 10
      vertex 221.189 14.7343 10
    endloop
  endfacet
  facet normal -0.208049 0.978118 0
    outer loop
      vertex 220.575 14.6037 10
      vertex 221.189 14.7343 -10
      vertex 220.575 14.6037 -10
    endloop
  endfacet
  facet normal -0.248593 0.968608 0
    outer loop
      vertex 220.575 14.6037 -10
      vertex 219.966 14.4474 10
      vertex 220.575 14.6037 10
    endloop
  endfacet
  facet normal -0.248593 0.968608 0
    outer loop
      vertex 219.966 14.4474 10
      vertex 220.575 14.6037 -10
      vertex 219.966 14.4474 -10
    endloop
  endfacet
  facet normal -0.289247 0.957255 0
    outer loop
      vertex 219.966 14.4474 -10
      vertex 219.365 14.2658 10
      vertex 219.966 14.4474 10
    endloop
  endfacet
  facet normal -0.289247 0.957255 0
    outer loop
      vertex 219.365 14.2658 10
      vertex 219.966 14.4474 -10
      vertex 219.365 14.2658 -10
    endloop
  endfacet
  facet normal -0.328508 0.944501 0
    outer loop
      vertex 219.365 14.2658 -10
      vertex 218.771 14.0592 10
      vertex 219.365 14.2658 10
    endloop
  endfacet
  facet normal -0.328508 0.944501 0
    outer loop
      vertex 218.771 14.0592 10
      vertex 219.365 14.2658 -10
      vertex 218.771 14.0592 -10
    endloop
  endfacet
  facet normal -0.368232 0.929734 0
    outer loop
      vertex 218.771 14.0592 -10
      vertex 218.187 13.8279 10
      vertex 218.771 14.0592 10
    endloop
  endfacet
  facet normal -0.368232 0.929734 0
    outer loop
      vertex 218.187 13.8279 10
      vertex 218.771 14.0592 -10
      vertex 218.187 13.8279 -10
    endloop
  endfacet
  facet normal -0.406655 0.913582 0
    outer loop
      vertex 218.187 13.8279 -10
      vertex 217.613 13.5724 10
      vertex 218.187 13.8279 10
    endloop
  endfacet
  facet normal -0.406655 0.913582 0
    outer loop
      vertex 217.613 13.5724 10
      vertex 218.187 13.8279 -10
      vertex 217.613 13.5724 -10
    endloop
  endfacet
  facet normal -0.445045 0.895508 0
    outer loop
      vertex 217.613 13.5724 -10
      vertex 217.051 13.2931 10
      vertex 217.613 13.5724 10
    endloop
  endfacet
  facet normal -0.445045 0.895508 0
    outer loop
      vertex 217.051 13.2931 10
      vertex 217.613 13.5724 -10
      vertex 217.051 13.2931 -10
    endloop
  endfacet
  facet normal -0.481491 0.876451 0
    outer loop
      vertex 217.051 13.2931 -10
      vertex 216.5 12.9904 10
      vertex 217.051 13.2931 10
    endloop
  endfacet
  facet normal -0.481491 0.876451 0
    outer loop
      vertex 216.5 12.9904 10
      vertex 217.051 13.2931 -10
      vertex 216.5 12.9904 -10
    endloop
  endfacet
  facet normal -0.518355 0.855166 0
    outer loop
      vertex 216.5 12.9904 -10
      vertex 215.963 12.6649 10
      vertex 216.5 12.9904 10
    endloop
  endfacet
  facet normal -0.518355 0.855166 0
    outer loop
      vertex 215.963 12.6649 10
      vertex 216.5 12.9904 -10
      vertex 215.963 12.6649 -10
    endloop
  endfacet
  facet normal -0.552901 0.833247 0
    outer loop
      vertex 215.963 12.6649 -10
      vertex 215.439 12.3172 10
      vertex 215.963 12.6649 10
    endloop
  endfacet
  facet normal -0.552901 0.833247 0
    outer loop
      vertex 215.439 12.3172 10
      vertex 215.963 12.6649 -10
      vertex 215.439 12.3172 -10
    endloop
  endfacet
  facet normal -0.588011 0.808853 0
    outer loop
      vertex 215.439 12.3172 -10
      vertex 214.931 11.9479 10
      vertex 215.439 12.3172 10
    endloop
  endfacet
  facet normal -0.588011 0.808853 0
    outer loop
      vertex 214.931 11.9479 10
      vertex 215.439 12.3172 -10
      vertex 214.931 11.9479 -10
    endloop
  endfacet
  facet normal -0.621388 0.783503 0
    outer loop
      vertex 214.931 11.9479 -10
      vertex 214.439 11.5577 10
      vertex 214.931 11.9479 10
    endloop
  endfacet
  facet normal -0.621388 0.783503 0
    outer loop
      vertex 214.439 11.5577 10
      vertex 214.931 11.9479 -10
      vertex 214.439 11.5577 -10
    endloop
  endfacet
  facet normal -0.653081 0.757288 0
    outer loop
      vertex 214.439 11.5577 -10
      vertex 213.963 11.1472 10
      vertex 214.439 11.5577 10
    endloop
  endfacet
  facet normal -0.653081 0.757288 0
    outer loop
      vertex 213.963 11.1472 10
      vertex 214.439 11.5577 -10
      vertex 213.963 11.1472 -10
    endloop
  endfacet
  facet normal -0.684555 0.728961 0
    outer loop
      vertex 213.963 11.1472 -10
      vertex 213.505 10.7171 10
      vertex 213.963 11.1472 10
    endloop
  endfacet
  facet normal -0.684555 0.728961 0
    outer loop
      vertex 213.505 10.7171 10
      vertex 213.963 11.1472 -10
      vertex 213.505 10.7171 -10
    endloop
  endfacet
  facet normal -0.714151 0.699992 0
    outer loop
      vertex 213.065 10.2682 -10
      vertex 213.505 10.7171 10
      vertex 213.505 10.7171 -10
    endloop
  endfacet
  facet normal -0.714151 0.699992 0
    outer loop
      vertex 213.505 10.7171 10
      vertex 213.065 10.2682 -10
      vertex 213.065 10.2682 10
    endloop
  endfacet
  facet normal -0.743453 0.668788 0
    outer loop
      vertex 212.645 9.80131 -10
      vertex 213.065 10.2682 10
      vertex 213.065 10.2682 -10
    endloop
  endfacet
  facet normal -0.743453 0.668788 0
    outer loop
      vertex 213.065 10.2682 10
      vertex 212.645 9.80131 -10
      vertex 212.645 9.80131 10
    endloop
  endfacet
  facet normal -0.770884 0.636976 0
    outer loop
      vertex 212.245 9.31722 -10
      vertex 212.645 9.80131 10
      vertex 212.645 9.80131 -10
    endloop
  endfacet
  facet normal -0.770884 0.636976 0
    outer loop
      vertex 212.645 9.80131 10
      vertex 212.245 9.31722 -10
      vertex 212.245 9.31722 10
    endloop
  endfacet
  facet normal -0.796418 0.604746 0
    outer loop
      vertex 211.865 8.81678 -10
      vertex 212.245 9.31722 10
      vertex 212.245 9.31722 -10
    endloop
  endfacet
  facet normal -0.796418 0.604746 0
    outer loop
      vertex 212.245 9.31722 10
      vertex 211.865 8.81678 -10
      vertex 211.865 8.81678 10
    endloop
  endfacet
  facet normal -0.820826 0.571178 0
    outer loop
      vertex 211.506 8.30087 -10
      vertex 211.865 8.81678 10
      vertex 211.865 8.81678 -10
    endloop
  endfacet
  facet normal -0.820826 0.571178 0
    outer loop
      vertex 211.865 8.81678 10
      vertex 211.506 8.30087 -10
      vertex 211.506 8.30087 10
    endloop
  endfacet
  facet normal -0.844789 0.5351 0
    outer loop
      vertex 211.17 7.77041 -10
      vertex 211.506 8.30087 10
      vertex 211.506 8.30087 -10
    endloop
  endfacet
  facet normal -0.844789 0.5351 0
    outer loop
      vertex 211.506 8.30087 10
      vertex 211.17 7.77041 -10
      vertex 211.17 7.77041 10
    endloop
  endfacet
  facet normal -0.86543 0.50103 0
    outer loop
      vertex 210.855 7.22631 -10
      vertex 211.17 7.77041 10
      vertex 211.17 7.77041 -10
    endloop
  endfacet
  facet normal -0.86543 0.50103 0
    outer loop
      vertex 211.17 7.77041 10
      vertex 210.855 7.22631 -10
      vertex 210.855 7.22631 10
    endloop
  endfacet
  facet normal -0.886254 0.463199 0
    outer loop
      vertex 210.564 6.66953 -10
      vertex 210.855 7.22631 10
      vertex 210.855 7.22631 -10
    endloop
  endfacet
  facet normal -0.886254 0.463199 0
    outer loop
      vertex 210.855 7.22631 10
      vertex 210.564 6.66953 -10
      vertex 210.564 6.66953 10
    endloop
  endfacet
  facet normal -0.905137 0.425119 0
    outer loop
      vertex 210.297 6.10105 -10
      vertex 210.564 6.66953 10
      vertex 210.564 6.66953 -10
    endloop
  endfacet
  facet normal -0.905137 0.425119 0
    outer loop
      vertex 210.564 6.66953 10
      vertex 210.297 6.10105 -10
      vertex 210.297 6.10105 10
    endloop
  endfacet
  facet normal -0.921559 0.388239 0
    outer loop
      vertex 210.053 5.52187 -10
      vertex 210.297 6.10105 10
      vertex 210.297 6.10105 -10
    endloop
  endfacet
  facet normal -0.921559 0.388239 0
    outer loop
      vertex 210.297 6.10105 10
      vertex 210.053 5.52187 -10
      vertex 210.053 5.52187 10
    endloop
  endfacet
  facet normal -0.937281 0.348574 0
    outer loop
      vertex 209.834 4.933 -10
      vertex 210.053 5.52187 10
      vertex 210.053 5.52187 -10
    endloop
  endfacet
  facet normal -0.937281 0.348574 0
    outer loop
      vertex 210.053 5.52187 10
      vertex 209.834 4.933 -10
      vertex 209.834 4.933 10
    endloop
  endfacet
  facet normal -0.951125 0.308807 0
    outer loop
      vertex 209.64 4.33548 -10
      vertex 209.834 4.933 10
      vertex 209.834 4.933 -10
    endloop
  endfacet
  facet normal -0.951125 0.308807 0
    outer loop
      vertex 209.834 4.933 10
      vertex 209.64 4.33548 -10
      vertex 209.64 4.33548 10
    endloop
  endfacet
  facet normal -0.963144 0.268986 0
    outer loop
      vertex 209.471 3.73035 -10
      vertex 209.64 4.33548 10
      vertex 209.64 4.33548 -10
    endloop
  endfacet
  facet normal -0.963144 0.268986 0
    outer loop
      vertex 209.64 4.33548 10
      vertex 209.471 3.73035 -10
      vertex 209.471 3.73035 10
    endloop
  endfacet
  facet normal -0.973744 0.227648 0
    outer loop
      vertex 209.328 3.11868 -10
      vertex 209.471 3.73035 10
      vertex 209.471 3.73035 -10
    endloop
  endfacet
  facet normal -0.973744 0.227648 0
    outer loop
      vertex 209.471 3.73035 10
      vertex 209.328 3.11868 -10
      vertex 209.328 3.11868 10
    endloop
  endfacet
  facet normal -0.982207 0.1878 0
    outer loop
      vertex 209.21 2.50153 -10
      vertex 209.328 3.11868 10
      vertex 209.328 3.11868 -10
    endloop
  endfacet
  facet normal -0.982207 0.1878 0
    outer loop
      vertex 209.328 3.11868 10
      vertex 209.21 2.50153 -10
      vertex 209.21 2.50153 10
    endloop
  endfacet
  facet normal -0.989222 0.146426 0
    outer loop
      vertex 209.118 1.88 -10
      vertex 209.21 2.50153 10
      vertex 209.21 2.50153 -10
    endloop
  endfacet
  facet normal -0.989222 0.146426 0
    outer loop
      vertex 209.21 2.50153 10
      vertex 209.118 1.88 -10
      vertex 209.118 1.88 10
    endloop
  endfacet
  facet normal -0.994633 0.10347 0
    outer loop
      vertex 209.053 1.25517 -10
      vertex 209.118 1.88 10
      vertex 209.118 1.88 -10
    endloop
  endfacet
  facet normal -0.994633 0.10347 0
    outer loop
      vertex 209.118 1.88 10
      vertex 209.053 1.25517 -10
      vertex 209.053 1.25517 10
    endloop
  endfacet
  facet normal -0.997971 0.0636629 0
    outer loop
      vertex 209.013 0.628135 -10
      vertex 209.053 1.25517 10
      vertex 209.053 1.25517 -10
    endloop
  endfacet
  facet normal -0.997971 0.0636629 0
    outer loop
      vertex 209.053 1.25517 10
      vertex 209.013 0.628135 -10
      vertex 209.013 0.628135 10
    endloop
  endfacet
  facet normal -0.999786 0.0206918 0
    outer loop
      vertex 209 0 -10
      vertex 209.013 0.628135 10
      vertex 209.013 0.628135 -10
    endloop
  endfacet
  facet normal -0.999786 0.0206918 0
    outer loop
      vertex 209.013 0.628135 10
      vertex 209 0 -10
      vertex 209 0 10
    endloop
  endfacet
  facet normal -0.999786 -0.0206918 0
    outer loop
      vertex 209.013 -0.628135 -10
      vertex 209 0 10
      vertex 209 0 -10
    endloop
  endfacet
  facet normal -0.999786 -0.0206918 0
    outer loop
      vertex 209 0 10
      vertex 209.013 -0.628135 -10
      vertex 209.013 -0.628135 10
    endloop
  endfacet
  facet normal -0.997971 -0.0636629 0
    outer loop
      vertex 209.053 -1.25517 -10
      vertex 209.013 -0.628135 10
      vertex 209.013 -0.628135 -10
    endloop
  endfacet
  facet normal -0.997971 -0.0636629 0
    outer loop
      vertex 209.013 -0.628135 10
      vertex 209.053 -1.25517 -10
      vertex 209.053 -1.25517 10
    endloop
  endfacet
  facet normal -0.994633 -0.10347 0
    outer loop
      vertex 209.118 -1.88 -10
      vertex 209.053 -1.25517 10
      vertex 209.053 -1.25517 -10
    endloop
  endfacet
  facet normal -0.994633 -0.10347 0
    outer loop
      vertex 209.053 -1.25517 10
      vertex 209.118 -1.88 -10
      vertex 209.118 -1.88 10
    endloop
  endfacet
  facet normal -0.989222 -0.146426 0
    outer loop
      vertex 209.21 -2.50153 -10
      vertex 209.118 -1.88 10
      vertex 209.118 -1.88 -10
    endloop
  endfacet
  facet normal -0.989222 -0.146426 0
    outer loop
      vertex 209.118 -1.88 10
      vertex 209.21 -2.50153 -10
      vertex 209.21 -2.50153 10
    endloop
  endfacet
  facet normal -0.982207 -0.1878 0
    outer loop
      vertex 209.328 -3.11868 -10
      vertex 209.21 -2.50153 10
      vertex 209.21 -2.50153 -10
    endloop
  endfacet
  facet normal -0.982207 -0.1878 0
    outer loop
      vertex 209.21 -2.50153 10
      vertex 209.328 -3.11868 -10
      vertex 209.328 -3.11868 10
    endloop
  endfacet
  facet normal -0.973744 -0.227648 0
    outer loop
      vertex 209.471 -3.73035 -10
      vertex 209.328 -3.11868 10
      vertex 209.328 -3.11868 -10
    endloop
  endfacet
  facet normal -0.973744 -0.227648 0
    outer loop
      vertex 209.328 -3.11868 10
      vertex 209.471 -3.73035 -10
      vertex 209.471 -3.73035 10
    endloop
  endfacet
  facet normal -0.963144 -0.268986 0
    outer loop
      vertex 209.64 -4.33548 -10
      vertex 209.471 -3.73035 10
      vertex 209.471 -3.73035 -10
    endloop
  endfacet
  facet normal -0.963144 -0.268986 0
    outer loop
      vertex 209.471 -3.73035 10
      vertex 209.64 -4.33548 -10
      vertex 209.64 -4.33548 10
    endloop
  endfacet
  facet normal -0.951125 -0.308807 0
    outer loop
      vertex 209.834 -4.933 -10
      vertex 209.64 -4.33548 10
      vertex 209.64 -4.33548 -10
    endloop
  endfacet
  facet normal -0.951125 -0.308807 0
    outer loop
      vertex 209.64 -4.33548 10
      vertex 209.834 -4.933 -10
      vertex 209.834 -4.933 10
    endloop
  endfacet
  facet normal -0.937281 -0.348574 0
    outer loop
      vertex 210.053 -5.52187 -10
      vertex 209.834 -4.933 10
      vertex 209.834 -4.933 -10
    endloop
  endfacet
  facet normal -0.937281 -0.348574 0
    outer loop
      vertex 209.834 -4.933 10
      vertex 210.053 -5.52187 -10
      vertex 210.053 -5.52187 10
    endloop
  endfacet
  facet normal -0.921559 -0.388239 0
    outer loop
      vertex 210.297 -6.10105 -10
      vertex 210.053 -5.52187 10
      vertex 210.053 -5.52187 -10
    endloop
  endfacet
  facet normal -0.921559 -0.388239 0
    outer loop
      vertex 210.053 -5.52187 10
      vertex 210.297 -6.10105 -10
      vertex 210.297 -6.10105 10
    endloop
  endfacet
  facet normal -0.905137 -0.425119 0
    outer loop
      vertex 210.564 -6.66953 -10
      vertex 210.297 -6.10105 10
      vertex 210.297 -6.10105 -10
    endloop
  endfacet
  facet normal -0.905137 -0.425119 0
    outer loop
      vertex 210.297 -6.10105 10
      vertex 210.564 -6.66953 -10
      vertex 210.564 -6.66953 10
    endloop
  endfacet
  facet normal -0.886254 -0.463199 0
    outer loop
      vertex 210.855 -7.22631 -10
      vertex 210.564 -6.66953 10
      vertex 210.564 -6.66953 -10
    endloop
  endfacet
  facet normal -0.886254 -0.463199 0
    outer loop
      vertex 210.564 -6.66953 10
      vertex 210.855 -7.22631 -10
      vertex 210.855 -7.22631 10
    endloop
  endfacet
  facet normal -0.86543 -0.50103 0
    outer loop
      vertex 211.17 -7.77041 -10
      vertex 210.855 -7.22631 10
      vertex 210.855 -7.22631 -10
    endloop
  endfacet
  facet normal -0.86543 -0.50103 0
    outer loop
      vertex 210.855 -7.22631 10
      vertex 211.17 -7.77041 -10
      vertex 211.17 -7.77041 10
    endloop
  endfacet
  facet normal -0.844789 -0.5351 0
    outer loop
      vertex 211.506 -8.30087 -10
      vertex 211.17 -7.77041 10
      vertex 211.17 -7.77041 -10
    endloop
  endfacet
  facet normal -0.844789 -0.5351 0
    outer loop
      vertex 211.17 -7.77041 10
      vertex 211.506 -8.30087 -10
      vertex 211.506 -8.30087 10
    endloop
  endfacet
  facet normal -0.820826 -0.571178 0
    outer loop
      vertex 211.865 -8.81678 -10
      vertex 211.506 -8.30087 10
      vertex 211.506 -8.30087 -10
    endloop
  endfacet
  facet normal -0.820826 -0.571178 0
    outer loop
      vertex 211.506 -8.30087 10
      vertex 211.865 -8.81678 -10
      vertex 211.865 -8.81678 10
    endloop
  endfacet
  facet normal -0.796418 -0.604746 0
    outer loop
      vertex 212.245 -9.31722 -10
      vertex 211.865 -8.81678 10
      vertex 211.865 -8.81678 -10
    endloop
  endfacet
  facet normal -0.796418 -0.604746 0
    outer loop
      vertex 211.865 -8.81678 10
      vertex 212.245 -9.31722 -10
      vertex 212.245 -9.31722 10
    endloop
  endfacet
  facet normal -0.770884 -0.636976 0
    outer loop
      vertex 212.645 -9.80131 -10
      vertex 212.245 -9.31722 10
      vertex 212.245 -9.31722 -10
    endloop
  endfacet
  facet normal -0.770884 -0.636976 0
    outer loop
      vertex 212.245 -9.31722 10
      vertex 212.645 -9.80131 -10
      vertex 212.645 -9.80131 10
    endloop
  endfacet
  facet normal -0.743453 -0.668788 0
    outer loop
      vertex 213.065 -10.2682 -10
      vertex 212.645 -9.80131 10
      vertex 212.645 -9.80131 -10
    endloop
  endfacet
  facet normal -0.743453 -0.668788 0
    outer loop
      vertex 212.645 -9.80131 10
      vertex 213.065 -10.2682 -10
      vertex 213.065 -10.2682 10
    endloop
  endfacet
  facet normal -0.714151 -0.699992 0
    outer loop
      vertex 213.505 -10.7171 -10
      vertex 213.065 -10.2682 10
      vertex 213.065 -10.2682 -10
    endloop
  endfacet
  facet normal -0.714151 -0.699992 0
    outer loop
      vertex 213.065 -10.2682 10
      vertex 213.505 -10.7171 -10
      vertex 213.505 -10.7171 10
    endloop
  endfacet
  facet normal -0.684555 -0.728961 0
    outer loop
      vertex 213.505 -10.7171 -10
      vertex 213.963 -11.1472 10
      vertex 213.505 -10.7171 10
    endloop
  endfacet
  facet normal -0.684555 -0.728961 -0
    outer loop
      vertex 213.963 -11.1472 10
      vertex 213.505 -10.7171 -10
      vertex 213.963 -11.1472 -10
    endloop
  endfacet
  facet normal -0.653081 -0.757288 0
    outer loop
      vertex 213.963 -11.1472 -10
      vertex 214.439 -11.5577 10
      vertex 213.963 -11.1472 10
    endloop
  endfacet
  facet normal -0.653081 -0.757288 -0
    outer loop
      vertex 214.439 -11.5577 10
      vertex 213.963 -11.1472 -10
      vertex 214.439 -11.5577 -10
    endloop
  endfacet
  facet normal -0.621388 -0.783503 0
    outer loop
      vertex 214.439 -11.5577 -10
      vertex 214.931 -11.9479 10
      vertex 214.439 -11.5577 10
    endloop
  endfacet
  facet normal -0.621388 -0.783503 -0
    outer loop
      vertex 214.931 -11.9479 10
      vertex 214.439 -11.5577 -10
      vertex 214.931 -11.9479 -10
    endloop
  endfacet
  facet normal -0.588011 -0.808853 0
    outer loop
      vertex 214.931 -11.9479 -10
      vertex 215.439 -12.3172 10
      vertex 214.931 -11.9479 10
    endloop
  endfacet
  facet normal -0.588011 -0.808853 -0
    outer loop
      vertex 215.439 -12.3172 10
      vertex 214.931 -11.9479 -10
      vertex 215.439 -12.3172 -10
    endloop
  endfacet
  facet normal -0.552901 -0.833247 0
    outer loop
      vertex 215.439 -12.3172 -10
      vertex 215.963 -12.6649 10
      vertex 215.439 -12.3172 10
    endloop
  endfacet
  facet normal -0.552901 -0.833247 -0
    outer loop
      vertex 215.963 -12.6649 10
      vertex 215.439 -12.3172 -10
      vertex 215.963 -12.6649 -10
    endloop
  endfacet
  facet normal -0.518355 -0.855166 0
    outer loop
      vertex 215.963 -12.6649 -10
      vertex 216.5 -12.9904 10
      vertex 215.963 -12.6649 10
    endloop
  endfacet
  facet normal -0.518355 -0.855166 -0
    outer loop
      vertex 216.5 -12.9904 10
      vertex 215.963 -12.6649 -10
      vertex 216.5 -12.9904 -10
    endloop
  endfacet
  facet normal -0.481491 -0.876451 0
    outer loop
      vertex 216.5 -12.9904 -10
      vertex 217.051 -13.2931 10
      vertex 216.5 -12.9904 10
    endloop
  endfacet
  facet normal -0.481491 -0.876451 -0
    outer loop
      vertex 217.051 -13.2931 10
      vertex 216.5 -12.9904 -10
      vertex 217.051 -13.2931 -10
    endloop
  endfacet
  facet normal -0.445045 -0.895508 0
    outer loop
      vertex 217.051 -13.2931 -10
      vertex 217.613 -13.5724 10
      vertex 217.051 -13.2931 10
    endloop
  endfacet
  facet normal -0.445045 -0.895508 -0
    outer loop
      vertex 217.613 -13.5724 10
      vertex 217.051 -13.2931 -10
      vertex 217.613 -13.5724 -10
    endloop
  endfacet
  facet normal -0.406655 -0.913582 0
    outer loop
      vertex 217.613 -13.5724 -10
      vertex 218.187 -13.8279 10
      vertex 217.613 -13.5724 10
    endloop
  endfacet
  facet normal -0.406655 -0.913582 -0
    outer loop
      vertex 218.187 -13.8279 10
      vertex 217.613 -13.5724 -10
      vertex 218.187 -13.8279 -10
    endloop
  endfacet
  facet normal -0.368232 -0.929734 0
    outer loop
      vertex 218.187 -13.8279 -10
      vertex 218.771 -14.0592 10
      vertex 218.187 -13.8279 10
    endloop
  endfacet
  facet normal -0.368232 -0.929734 -0
    outer loop
      vertex 218.771 -14.0592 10
      vertex 218.187 -13.8279 -10
      vertex 218.771 -14.0592 -10
    endloop
  endfacet
  facet normal -0.328508 -0.944501 0
    outer loop
      vertex 218.771 -14.0592 -10
      vertex 219.365 -14.2658 10
      vertex 218.771 -14.0592 10
    endloop
  endfacet
  facet normal -0.328508 -0.944501 -0
    outer loop
      vertex 219.365 -14.2658 10
      vertex 218.771 -14.0592 -10
      vertex 219.365 -14.2658 -10
    endloop
  endfacet
  facet normal -0.289247 -0.957255 0
    outer loop
      vertex 219.365 -14.2658 -10
      vertex 219.966 -14.4474 10
      vertex 219.365 -14.2658 10
    endloop
  endfacet
  facet normal -0.289247 -0.957255 -0
    outer loop
      vertex 219.966 -14.4474 10
      vertex 219.365 -14.2658 -10
      vertex 219.966 -14.4474 -10
    endloop
  endfacet
  facet normal -0.248593 -0.968608 0
    outer loop
      vertex 219.966 -14.4474 -10
      vertex 220.575 -14.6037 10
      vertex 219.966 -14.4474 10
    endloop
  endfacet
  facet normal -0.248593 -0.968608 -0
    outer loop
      vertex 220.575 -14.6037 10
      vertex 219.966 -14.4474 -10
      vertex 220.575 -14.6037 -10
    endloop
  endfacet
  facet normal -0.208049 -0.978118 0
    outer loop
      vertex 220.575 -14.6037 -10
      vertex 221.189 -14.7343 10
      vertex 220.575 -14.6037 10
    endloop
  endfacet
  facet normal -0.208049 -0.978118 -0
    outer loop
      vertex 221.189 -14.7343 10
      vertex 220.575 -14.6037 -10
      vertex 221.189 -14.7343 -10
    endloop
  endfacet
  facet normal -0.166668 -0.986013 0
    outer loop
      vertex 221.189 -14.7343 -10
      vertex 221.809 -14.8391 10
      vertex 221.189 -14.7343 10
    endloop
  endfacet
  facet normal -0.166668 -0.986013 -0
    outer loop
      vertex 221.809 -14.8391 10
      vertex 221.189 -14.7343 -10
      vertex 221.809 -14.8391 -10
    endloop
  endfacet
  facet normal -0.125328 -0.992115 0
    outer loop
      vertex 221.809 -14.8391 -10
      vertex 222.432 -14.9178 10
      vertex 221.809 -14.8391 10
    endloop
  endfacet
  facet normal -0.125328 -0.992115 -0
    outer loop
      vertex 222.432 -14.9178 10
      vertex 221.809 -14.8391 -10
      vertex 222.432 -14.9178 -10
    endloop
  endfacet
  facet normal -0.0837305 -0.996488 0
    outer loop
      vertex 222.432 -14.9178 -10
      vertex 223.058 -14.9704 10
      vertex 222.432 -14.9178 10
    endloop
  endfacet
  facet normal -0.0837305 -0.996488 -0
    outer loop
      vertex 223.058 -14.9704 10
      vertex 222.432 -14.9178 -10
      vertex 223.058 -14.9704 -10
    endloop
  endfacet
  facet normal -0.0418423 -0.999124 0
    outer loop
      vertex 223.058 -14.9704 -10
      vertex 223.686 -14.9967 10
      vertex 223.058 -14.9704 10
    endloop
  endfacet
  facet normal -0.0418423 -0.999124 -0
    outer loop
      vertex 223.686 -14.9967 10
      vertex 223.058 -14.9704 -10
      vertex 223.686 -14.9967 -10
    endloop
  endfacet
  facet normal 0 -1 0
    outer loop
      vertex 223.686 -14.9967 -10
      vertex 224.314 -14.9967 10
      vertex 223.686 -14.9967 10
    endloop
  endfacet
  facet normal 0 -1 -0
    outer loop
      vertex 224.314 -14.9967 10
      vertex 223.686 -14.9967 -10
      vertex 224.314 -14.9967 -10
    endloop
  endfacet
  facet normal 0.0418423 -0.999124 0
    outer loop
      vertex 224.314 -14.9967 -10
      vertex 224.942 -14.9704 10
      vertex 224.314 -14.9967 10
    endloop
  endfacet
  facet normal 0.0418423 -0.999124 0
    outer loop
      vertex 224.942 -14.9704 10
      vertex 224.314 -14.9967 -10
      vertex 224.942 -14.9704 -10
    endloop
  endfacet
  facet normal 0.0837305 -0.996488 0
    outer loop
      vertex 224.942 -14.9704 -10
      vertex 225.568 -14.9178 10
      vertex 224.942 -14.9704 10
    endloop
  endfacet
  facet normal 0.0837305 -0.996488 0
    outer loop
      vertex 225.568 -14.9178 10
      vertex 224.942 -14.9704 -10
      vertex 225.568 -14.9178 -10
    endloop
  endfacet
  facet normal 0.125328 -0.992115 0
    outer loop
      vertex 225.568 -14.9178 -10
      vertex 226.191 -14.8391 10
      vertex 225.568 -14.9178 10
    endloop
  endfacet
  facet normal 0.125328 -0.992115 0
    outer loop
      vertex 226.191 -14.8391 10
      vertex 225.568 -14.9178 -10
      vertex 226.191 -14.8391 -10
    endloop
  endfacet
  facet normal 0.166668 -0.986013 0
    outer loop
      vertex 226.191 -14.8391 -10
      vertex 226.811 -14.7343 10
      vertex 226.191 -14.8391 10
    endloop
  endfacet
  facet normal 0.166668 -0.986013 0
    outer loop
      vertex 226.811 -14.7343 10
      vertex 226.191 -14.8391 -10
      vertex 226.811 -14.7343 -10
    endloop
  endfacet
  facet normal 0.208049 -0.978118 0
    outer loop
      vertex 226.811 -14.7343 -10
      vertex 227.425 -14.6037 10
      vertex 226.811 -14.7343 10
    endloop
  endfacet
  facet normal 0.208049 -0.978118 0
    outer loop
      vertex 227.425 -14.6037 10
      vertex 226.811 -14.7343 -10
      vertex 227.425 -14.6037 -10
    endloop
  endfacet
  facet normal 0.248593 -0.968608 0
    outer loop
      vertex 227.425 -14.6037 -10
      vertex 228.034 -14.4474 10
      vertex 227.425 -14.6037 10
    endloop
  endfacet
  facet normal 0.248593 -0.968608 0
    outer loop
      vertex 228.034 -14.4474 10
      vertex 227.425 -14.6037 -10
      vertex 228.034 -14.4474 -10
    endloop
  endfacet
  facet normal 0.289247 -0.957255 0
    outer loop
      vertex 228.034 -14.4474 -10
      vertex 228.635 -14.2658 10
      vertex 228.034 -14.4474 10
    endloop
  endfacet
  facet normal 0.289247 -0.957255 0
    outer loop
      vertex 228.635 -14.2658 10
      vertex 228.034 -14.4474 -10
      vertex 228.635 -14.2658 -10
    endloop
  endfacet
  facet normal 0.328508 -0.944501 0
    outer loop
      vertex 228.635 -14.2658 -10
      vertex 229.229 -14.0592 10
      vertex 228.635 -14.2658 10
    endloop
  endfacet
  facet normal 0.328508 -0.944501 0
    outer loop
      vertex 229.229 -14.0592 10
      vertex 228.635 -14.2658 -10
      vertex 229.229 -14.0592 -10
    endloop
  endfacet
  facet normal 0.368232 -0.929734 0
    outer loop
      vertex 229.229 -14.0592 -10
      vertex 229.813 -13.8279 10
      vertex 229.229 -14.0592 10
    endloop
  endfacet
  facet normal 0.368232 -0.929734 0
    outer loop
      vertex 229.813 -13.8279 10
      vertex 229.229 -14.0592 -10
      vertex 229.813 -13.8279 -10
    endloop
  endfacet
  facet normal 0.406655 -0.913582 0
    outer loop
      vertex 229.813 -13.8279 -10
      vertex 230.387 -13.5724 10
      vertex 229.813 -13.8279 10
    endloop
  endfacet
  facet normal 0.406655 -0.913582 0
    outer loop
      vertex 230.387 -13.5724 10
      vertex 229.813 -13.8279 -10
      vertex 230.387 -13.5724 -10
    endloop
  endfacet
  facet normal 0.445045 -0.895508 0
    outer loop
      vertex 230.387 -13.5724 -10
      vertex 230.949 -13.2931 10
      vertex 230.387 -13.5724 10
    endloop
  endfacet
  facet normal 0.445045 -0.895508 0
    outer loop
      vertex 230.949 -13.2931 10
      vertex 230.387 -13.5724 -10
      vertex 230.949 -13.2931 -10
    endloop
  endfacet
  facet normal 0.481491 -0.876451 0
    outer loop
      vertex 230.949 -13.2931 -10
      vertex 231.5 -12.9904 10
      vertex 230.949 -13.2931 10
    endloop
  endfacet
  facet normal 0.481491 -0.876451 0
    outer loop
      vertex 231.5 -12.9904 10
      vertex 230.949 -13.2931 -10
      vertex 231.5 -12.9904 -10
    endloop
  endfacet
  facet normal 0.518355 -0.855166 0
    outer loop
      vertex 231.5 -12.9904 -10
      vertex 232.037 -12.6649 10
      vertex 231.5 -12.9904 10
    endloop
  endfacet
  facet normal 0.518355 -0.855166 0
    outer loop
      vertex 232.037 -12.6649 10
      vertex 231.5 -12.9904 -10
      vertex 232.037 -12.6649 -10
    endloop
  endfacet
  facet normal 0.552901 -0.833247 0
    outer loop
      vertex 232.037 -12.6649 -10
      vertex 232.561 -12.3172 10
      vertex 232.037 -12.6649 10
    endloop
  endfacet
  facet normal 0.552901 -0.833247 0
    outer loop
      vertex 232.561 -12.3172 10
      vertex 232.037 -12.6649 -10
      vertex 232.561 -12.3172 -10
    endloop
  endfacet
  facet normal 0.588011 -0.808853 0
    outer loop
      vertex 232.561 -12.3172 -10
      vertex 233.069 -11.9479 10
      vertex 232.561 -12.3172 10
    endloop
  endfacet
  facet normal 0.588011 -0.808853 0
    outer loop
      vertex 233.069 -11.9479 10
      vertex 232.561 -12.3172 -10
      vertex 233.069 -11.9479 -10
    endloop
  endfacet
  facet normal 0.621388 -0.783503 0
    outer loop
      vertex 233.069 -11.9479 -10
      vertex 233.561 -11.5577 10
      vertex 233.069 -11.9479 10
    endloop
  endfacet
  facet normal 0.621388 -0.783503 0
    outer loop
      vertex 233.561 -11.5577 10
      vertex 233.069 -11.9479 -10
      vertex 233.561 -11.5577 -10
    endloop
  endfacet
  facet normal 0.653081 -0.757288 0
    outer loop
      vertex 233.561 -11.5577 -10
      vertex 234.037 -11.1472 10
      vertex 233.561 -11.5577 10
    endloop
  endfacet
  facet normal 0.653081 -0.757288 0
    outer loop
      vertex 234.037 -11.1472 10
      vertex 233.561 -11.5577 -10
      vertex 234.037 -11.1472 -10
    endloop
  endfacet
  facet normal 0.684555 -0.728961 0
    outer loop
      vertex 234.037 -11.1472 -10
      vertex 234.495 -10.7171 10
      vertex 234.037 -11.1472 10
    endloop
  endfacet
  facet normal 0.684555 -0.728961 0
    outer loop
      vertex 234.495 -10.7171 10
      vertex 234.037 -11.1472 -10
      vertex 234.495 -10.7171 -10
    endloop
  endfacet
  facet normal 0.714151 -0.699992 0
    outer loop
      vertex 234.495 -10.7171 10
      vertex 234.935 -10.2682 -10
      vertex 234.935 -10.2682 10
    endloop
  endfacet
  facet normal 0.714151 -0.699992 0
    outer loop
      vertex 234.935 -10.2682 -10
      vertex 234.495 -10.7171 10
      vertex 234.495 -10.7171 -10
    endloop
  endfacet
  facet normal 0.743453 -0.668788 0
    outer loop
      vertex 234.935 -10.2682 10
      vertex 235.355 -9.80131 -10
      vertex 235.355 -9.80131 10
    endloop
  endfacet
  facet normal 0.743453 -0.668788 0
    outer loop
      vertex 235.355 -9.80131 -10
      vertex 234.935 -10.2682 10
      vertex 234.935 -10.2682 -10
    endloop
  endfacet
  facet normal 0.770884 -0.636976 0
    outer loop
      vertex 235.355 -9.80131 10
      vertex 235.755 -9.31722 -10
      vertex 235.755 -9.31722 10
    endloop
  endfacet
  facet normal 0.770884 -0.636976 0
    outer loop
      vertex 235.755 -9.31722 -10
      vertex 235.355 -9.80131 10
      vertex 235.355 -9.80131 -10
    endloop
  endfacet
  facet normal 0.796418 -0.604746 0
    outer loop
      vertex 235.755 -9.31722 10
      vertex 236.135 -8.81678 -10
      vertex 236.135 -8.81678 10
    endloop
  endfacet
  facet normal 0.796418 -0.604746 0
    outer loop
      vertex 236.135 -8.81678 -10
      vertex 235.755 -9.31722 10
      vertex 235.755 -9.31722 -10
    endloop
  endfacet
  facet normal 0.820826 -0.571178 0
    outer loop
      vertex 236.135 -8.81678 10
      vertex 236.494 -8.30087 -10
      vertex 236.494 -8.30087 10
    endloop
  endfacet
  facet normal 0.820826 -0.571178 0
    outer loop
      vertex 236.494 -8.30087 -10
      vertex 236.135 -8.81678 10
      vertex 236.135 -8.81678 -10
    endloop
  endfacet
  facet normal 0.844789 -0.5351 0
    outer loop
      vertex 236.494 -8.30087 10
      vertex 236.83 -7.77041 -10
      vertex 236.83 -7.77041 10
    endloop
  endfacet
  facet normal 0.844789 -0.5351 0
    outer loop
      vertex 236.83 -7.77041 -10
      vertex 236.494 -8.30087 10
      vertex 236.494 -8.30087 -10
    endloop
  endfacet
  facet normal 0.86543 -0.50103 0
    outer loop
      vertex 236.83 -7.77041 10
      vertex 237.145 -7.22631 -10
      vertex 237.145 -7.22631 10
    endloop
  endfacet
  facet normal 0.86543 -0.50103 0
    outer loop
      vertex 237.145 -7.22631 -10
      vertex 236.83 -7.77041 10
      vertex 236.83 -7.77041 -10
    endloop
  endfacet
  facet normal 0.886254 -0.463199 0
    outer loop
      vertex 237.145 -7.22631 10
      vertex 237.436 -6.66953 -10
      vertex 237.436 -6.66953 10
    endloop
  endfacet
  facet normal 0.886254 -0.463199 0
    outer loop
      vertex 237.436 -6.66953 -10
      vertex 237.145 -7.22631 10
      vertex 237.145 -7.22631 -10
    endloop
  endfacet
  facet normal 0.905137 -0.425119 0
    outer loop
      vertex 237.436 -6.66953 10
      vertex 237.703 -6.10105 -10
      vertex 237.703 -6.10105 10
    endloop
  endfacet
  facet normal 0.905137 -0.425119 0
    outer loop
      vertex 237.703 -6.10105 -10
      vertex 237.436 -6.66953 10
      vertex 237.436 -6.66953 -10
    endloop
  endfacet
  facet normal 0.921559 -0.388239 0
    outer loop
      vertex 237.703 -6.10105 10
      vertex 237.947 -5.52187 -10
      vertex 237.947 -5.52187 10
    endloop
  endfacet
  facet normal 0.921559 -0.388239 0
    outer loop
      vertex 237.947 -5.52187 -10
      vertex 237.703 -6.10105 10
      vertex 237.703 -6.10105 -10
    endloop
  endfacet
  facet normal 0.937281 -0.348574 0
    outer loop
      vertex 237.947 -5.52187 10
      vertex 238.166 -4.933 -10
      vertex 238.166 -4.933 10
    endloop
  endfacet
  facet normal 0.937281 -0.348574 0
    outer loop
      vertex 238.166 -4.933 -10
      vertex 237.947 -5.52187 10
      vertex 237.947 -5.52187 -10
    endloop
  endfacet
  facet normal 0.951125 -0.308807 0
    outer loop
      vertex 238.166 -4.933 10
      vertex 238.36 -4.33548 -10
      vertex 238.36 -4.33548 10
    endloop
  endfacet
  facet normal 0.951125 -0.308807 0
    outer loop
      vertex 238.36 -4.33548 -10
      vertex 238.166 -4.933 10
      vertex 238.166 -4.933 -10
    endloop
  endfacet
  facet normal 0.963144 -0.268986 0
    outer loop
      vertex 238.36 -4.33548 10
      vertex 238.529 -3.73035 -10
      vertex 238.529 -3.73035 10
    endloop
  endfacet
  facet normal 0.963144 -0.268986 0
    outer loop
      vertex 238.529 -3.73035 -10
      vertex 238.36 -4.33548 10
      vertex 238.36 -4.33548 -10
    endloop
  endfacet
  facet normal 0.973744 -0.227648 0
    outer loop
      vertex 238.529 -3.73035 10
      vertex 238.672 -3.11868 -10
      vertex 238.672 -3.11868 10
    endloop
  endfacet
  facet normal 0.973744 -0.227648 0
    outer loop
      vertex 238.672 -3.11868 -10
      vertex 238.529 -3.73035 10
      vertex 238.529 -3.73035 -10
    endloop
  endfacet
  facet normal 0.982207 -0.1878 0
    outer loop
      vertex 238.672 -3.11868 10
      vertex 238.79 -2.50153 -10
      vertex 238.79 -2.50153 10
    endloop
  endfacet
  facet normal 0.982207 -0.1878 0
    outer loop
      vertex 238.79 -2.50153 -10
      vertex 238.672 -3.11868 10
      vertex 238.672 -3.11868 -10
    endloop
  endfacet
  facet normal 0.989222 -0.146426 0
    outer loop
      vertex 238.79 -2.50153 10
      vertex 238.882 -1.88 -10
      vertex 238.882 -1.88 10
    endloop
  endfacet
  facet normal 0.989222 -0.146426 0
    outer loop
      vertex 238.882 -1.88 -10
      vertex 238.79 -2.50153 10
      vertex 238.79 -2.50153 -10
    endloop
  endfacet
  facet normal 0.994633 -0.10347 0
    outer loop
      vertex 238.882 -1.88 10
      vertex 238.947 -1.25517 -10
      vertex 238.947 -1.25517 10
    endloop
  endfacet
  facet normal 0.994633 -0.10347 0
    outer loop
      vertex 238.947 -1.25517 -10
      vertex 238.882 -1.88 10
      vertex 238.882 -1.88 -10
    endloop
  endfacet
  facet normal 0.997971 -0.0636629 0
    outer loop
      vertex 238.947 -1.25517 10
      vertex 238.987 -0.628135 -10
      vertex 238.987 -0.628135 10
    endloop
  endfacet
  facet normal 0.997971 -0.0636629 0
    outer loop
      vertex 238.987 -0.628135 -10
      vertex 238.947 -1.25517 10
      vertex 238.947 -1.25517 -10
    endloop
  endfacet
  facet normal 0.999786 -0.0206918 0
    outer loop
      vertex 238.987 -0.628135 10
      vertex 239 0 -10
      vertex 239 0 10
    endloop
  endfacet
  facet normal 0.999786 -0.0206918 0
    outer loop
      vertex 239 0 -10
      vertex 238.987 -0.628135 10
      vertex 238.987 -0.628135 -10
    endloop
  endfacet
  facet normal 0 0 -1
    outer loop
      vertex 238.987 -0.628135 -10
      vertex 238.987 0.628135 -10
      vertex 239 0 -10
    endloop
  endfacet
  facet normal 0 0 -1
    outer loop
      vertex 238.947 -1.25517 -10
      vertex 238.987 0.628135 -10
      vertex 238.987 -0.628135 -10
    endloop
  endfacet
  facet normal 0 0 -1
    outer loop
      vertex 238.947 -1.25517 -10
      vertex 238.947 1.25517 -10
      vertex 238.987 0.628135 -10
    endloop
  endfacet
  facet normal 0 0 -1
    outer loop
      vertex 238.882 -1.88 -10
      vertex 238.947 1.25517 -10
      vertex 238.947 -1.25517 -10
    endloop
  endfacet
  facet normal 0 0 -1
    outer loop
      vertex 238.882 -1.88 -10
      vertex 238.882 1.88 -10
      vertex 238.947 1.25517 -10
    endloop
  endfacet
  facet normal 0 0 -1
    outer loop
      vertex 238.79 -2.50153 -10
      vertex 238.882 1.88 -10
      vertex 238.882 -1.88 -10
    endloop
  endfacet
  facet normal 0 0 -1
    outer loop
      vertex 238.79 -2.50153 -10
      vertex 238.79 2.50153 -10
      vertex 238.882 1.88 -10
    endloop
  endfacet
  facet normal 0 0 -1
    outer loop
      vertex 238.672 -3.11868 -10
      vertex 238.79 2.50153 -10
      vertex 238.79 -2.50153 -10
    endloop
  endfacet
  facet normal 0 0 -1
    outer loop
      vertex 238.672 -3.11868 -10
      vertex 238.672 3.11868 -10
      vertex 238.79 2.50153 -10
    endloop
  endfacet
  facet normal 0 0 -1
    outer loop
      vertex 238.529 -3.73035 -10
      vertex 238.672 3.11868 -10
      vertex 238.672 -3.11868 -10
    endloop
  endfacet
  facet normal 0 0 -1
    outer loop
      vertex 238.529 -3.73035 -10
      vertex 238.529 3.73035 -10
      vertex 238.672 3.11868 -10
    endloop
  endfacet
  facet normal 0 0 -1
    outer loop
      vertex 238.36 -4.33548 -10
      vertex 238.529 3.73035 -10
      vertex 238.529 -3.73035 -10
    endloop
  endfacet
  facet normal 0 0 -1
    outer loop
      vertex 238.36 -4.33548 -10
      vertex 238.36 4.33548 -10
      vertex 238.529 3.73035 -10
    endloop
  endfacet
  facet normal 0 0 -1
    outer loop
      vertex 238.166 -4.933 -10
      vertex 238.36 4.33548 -10
      vertex 238.36 -4.33548 -10
    endloop
  endfacet
  facet normal 0 0 -1
    outer loop
      vertex 238.166 -4.933 -10
      vertex 238.166 4.933 -10
      vertex 238.36 4.33548 -10
    endloop
  endfacet
  facet normal 0 0 -1
    outer loop
      vertex 237.947 -5.52187 -10
      vertex 238.166 4.933 -10
      vertex 238.166 -4.933 -10
    endloop
  endfacet
  facet normal 0 0 -1
    outer loop
      vertex 237.947 -5.52187 -10
      vertex 237.947 5.52187 -10
      vertex 238.166 4.933 -10
    endloop
  endfacet
  facet normal 0 0 -1
    outer loop
      vertex 237.703 -6.10105 -10
      vertex 237.947 5.52187 -10
      vertex 237.947 -5.52187 -10
    endloop
  endfacet
  facet normal 0 0 -1
    outer loop
      vertex 237.703 -6.10105 -10
      vertex 237.703 6.10105 -10
      vertex 237.947 5.52187 -10
    endloop
  endfacet
  facet normal 0 0 -1
    outer loop
      vertex 237.436 -6.66953 -10
      vertex 237.703 6.10105 -10
      vertex 237.703 -6.10105 -10
    endloop
  endfacet
  facet normal 0 0 -1
    outer loop
      vertex 237.436 -6.66953 -10
      vertex 237.436 6.66953 -10
      vertex 237.703 6.10105 -10
    endloop
  endfacet
  facet normal 0 0 -1
    outer loop
      vertex 237.145 -7.22631 -10
      vertex 237.436 6.66953 -10
      vertex 237.436 -6.66953 -10
    endloop
  endfacet
  facet normal 0 0 -1
    outer loop
      vertex 237.145 -7.22631 -10
      vertex 237.145 7.22631 -10
      vertex 237.436 6.66953 -10
    endloop
  endfacet
  facet normal 0 0 -1
    outer loop
      vertex 236.83 -7.77041 -10
      vertex 237.145 7.22631 -10
      vertex 237.145 -7.22631 -10
    endloop
  endfacet
  facet normal 0 0 -1
    outer loop
      vertex 236.83 -7.77041 -10
      vertex 236.83 7.77041 -10
      vertex 237.145 7.22631 -10
    endloop
  endfacet
  facet normal 0 0 -1
    outer loop
      vertex 236.494 -8.30087 -10
      vertex 236.83 7.77041 -10
      vertex 236.83 -7.77041 -10
    endloop
  endfacet
  facet normal 0 0 -1
    outer loop
      vertex 236.494 -8.30087 -10
      vertex 236.494 8.30087 -10
      vertex 236.83 7.77041 -10
    endloop
  endfacet
  facet normal 0 0 -1
    outer loop
      vertex 236.135 -8.81678 -10
      vertex 236.494 8.30087 -10
      vertex 236.494 -8.30087 -10
    endloop
  endfacet
  facet normal 0 0 -1
    outer loop
      vertex 236.135 -8.81678 -10
      vertex 236.135 8.81678 -10
      vertex 236.494 8.30087 -10
    endloop
  endfacet
  facet normal 0 0 -1
    outer loop
      vertex 235.755 -9.31722 -10
      vertex 236.135 8.81678 -10
      vertex 236.135 -8.81678 -10
    endloop
  endfacet
  facet normal 0 0 -1
    outer loop
      vertex 235.755 -9.31722 -10
      vertex 235.755 9.31722 -10
      vertex 236.135 8.81678 -10
    endloop
  endfacet
  facet normal 0 0 -1
    outer loop
      vertex 235.355 -9.80131 -10
      vertex 235.755 9.31722 -10
      vertex 235.755 -9.31722 -10
    endloop
  endfacet
  facet normal 0 0 -1
    outer loop
      vertex 235.355 -9.80131 -10
      vertex 235.355 9.80131 -10
      vertex 235.755 9.31722 -10
    endloop
  endfacet
  facet normal 0 0 -1
    outer loop
      vertex 234.935 -10.2682 -10
      vertex 235.355 9.80131 -10
      vertex 235.355 -9.80131 -10
    endloop
  endfacet
  facet normal 0 0 -1
    outer loop
      vertex 234.935 -10.2682 -10
      vertex 234.935 10.2682 -10
      vertex 235.355 9.80131 -10
    endloop
  endfacet
  facet normal 0 0 -1
    outer loop
      vertex 234.495 -10.7171 -10
      vertex 234.935 10.2682 -10
      vertex 234.935 -10.2682 -10
    endloop
  endfacet
  facet normal 0 0 -1
    outer loop
      vertex 234.495 -10.7171 -10
      vertex 234.495 10.7171 -10
      vertex 234.935 10.2682 -10
    endloop
  endfacet
  facet normal 0 0 -1
    outer loop
      vertex 234.037 -11.1472 -10
      vertex 234.495 10.7171 -10
      vertex 234.495 -10.7171 -10
    endloop
  endfacet
  facet normal 0 0 -1
    outer loop
      vertex 234.037 -11.1472 -10
      vertex 234.037 11.1472 -10
      vertex 234.495 10.7171 -10
    endloop
  endfacet
  facet normal 0 0 -1
    outer loop
      vertex 233.561 -11.5577 -10
      vertex 234.037 11.1472 -10
      vertex 234.037 -11.1472 -10
    endloop
  endfacet
  facet normal 0 0 -1
    outer loop
      vertex 233.561 -11.5577 -10
      vertex 233.561 11.5577 -10
      vertex 234.037 11.1472 -10
    endloop
  endfacet
  facet normal 0 0 -1
    outer loop
      vertex 233.069 -11.9479 -10
      vertex 233.561 11.5577 -10
      vertex 233.561 -11.5577 -10
    endloop
  endfacet
  facet normal 0 0 -1
    outer loop
      vertex 233.069 -11.9479 -10
      vertex 233.069 11.9479 -10
      vertex 233.561 11.5577 -10
    endloop
  endfacet
  facet normal 0 0 -1
    outer loop
      vertex 232.561 -12.3172 -10
      vertex 233.069 11.9479 -10
      vertex 233.069 -11.9479 -10
    endloop
  endfacet
  facet normal 0 0 -1
    outer loop
      vertex 232.561 -12.3172 -10
      vertex 232.561 12.3172 -10
      vertex 233.069 11.9479 -10
    endloop
  endfacet
  facet normal 0 0 -1
    outer loop
      vertex 232.037 -12.6649 -10
      vertex 232.561 12.3172 -10
      vertex 232.561 -12.3172 -10
    endloop
  endfacet
  facet normal 0 0 -1
    outer loop
      vertex 232.037 -12.6649 -10
      vertex 232.037 12.6649 -10
      vertex 232.561 12.3172 -10
    endloop
  endfacet
  facet normal 0 0 -1
    outer loop
      vertex 231.5 -12.9904 -10
      vertex 232.037 12.6649 -10
      vertex 232.037 -12.6649 -10
    endloop
  endfacet
  facet normal 0 0 -1
    outer loop
      vertex 231.5 -12.9904 -10
      vertex 231.5 12.9904 -10
      vertex 232.037 12.6649 -10
    endloop
  endfacet
  facet normal 0 0 -1
    outer loop
      vertex 230.949 -13.2931 -10
      vertex 231.5 12.9904 -10
      vertex 231.5 -12.9904 -10
    endloop
  endfacet
  facet normal 0 0 -1
    outer loop
      vertex 230.949 -13.2931 -10
      vertex 230.949 13.2931 -10
      vertex 231.5 12.9904 -10
    endloop
  endfacet
  facet normal 0 0 -1
    outer loop
      vertex 230.387 -13.5724 -10
      vertex 230.949 13.2931 -10
      vertex 230.949 -13.2931 -10
    endloop
  endfacet
  facet normal 0 0 -1
    outer loop
      vertex 230.387 -13.5724 -10
      vertex 230.387 13.5724 -10
      vertex 230.949 13.2931 -10
    endloop
  endfacet
  facet normal 0 0 -1
    outer loop
      vertex 229.813 -13.8279 -10
      vertex 230.387 13.5724 -10
      vertex 230.387 -13.5724 -10
    endloop
  endfacet
  facet normal 0 0 -1
    outer loop
      vertex 229.813 -13.8279 -10
      vertex 229.813 13.8279 -10
      vertex 230.387 13.5724 -10
    endloop
  endfacet
  facet normal 0 0 -1
    outer loop
      vertex 229.229 -14.0592 -10
      vertex 229.813 13.8279 -10
      vertex 229.813 -13.8279 -10
    endloop
  endfacet
  facet normal 0 0 -1
    outer loop
      vertex 229.229 -14.0592 -10
      vertex 229.229 14.0592 -10
      vertex 229.813 13.8279 -10
    endloop
  endfacet
  facet normal 0 0 -1
    outer loop
      vertex 228.635 -14.2658 -10
      vertex 229.229 14.0592 -10
      vertex 229.229 -14.0592 -10
    endloop
  endfacet
  facet normal 0 0 -1
    outer loop
      vertex 228.635 -14.2658 -10
      vertex 228.635 14.2658 -10
      vertex 229.229 14.0592 -10
    endloop
  endfacet
  facet normal 0 0 -1
    outer loop
      vertex 228.034 -14.4474 -10
      vertex 228.635 14.2658 -10
      vertex 228.635 -14.2658 -10
    endloop
  endfacet
  facet normal 0 0 -1
    outer loop
      vertex 228.034 -14.4474 -10
      vertex 228.034 14.4474 -10
      vertex 228.635 14.2658 -10
    endloop
  endfacet
  facet normal 0 0 -1
    outer loop
      vertex 227.425 -14.6037 -10
      vertex 228.034 14.4474 -10
      vertex 228.034 -14.4474 -10
    endloop
  endfacet
  facet normal 0 0 -1
    outer loop
      vertex 227.425 -14.6037 -10
      vertex 227.425 14.6037 -10
      vertex 228.034 14.4474 -10
    endloop
  endfacet
  facet normal 0 0 -1
    outer loop
      vertex 226.811 -14.7343 -10
      vertex 227.425 14.6037 -10
      vertex 227.425 -14.6037 -10
    endloop
  endfacet
  facet normal 0 0 -1
    outer loop
      vertex 226.811 -14.7343 -10
      vertex 226.811 14.7343 -10
      vertex 227.425 14.6037 -10
    endloop
  endfacet
  facet normal 0 0 -1
    outer loop
      vertex 226.191 -14.8391 -10
      vertex 226.811 14.7343 -10
      vertex 226.811 -14.7343 -10
    endloop
  endfacet
  facet normal 0 0 -1
    outer loop
      vertex 226.191 -14.8391 -10
      vertex 226.191 14.8391 -10
      vertex 226.811 14.7343 -10
    endloop
  endfacet
  facet normal 0 0 -1
    outer loop
      vertex 225.568 -14.9178 -10
      vertex 226.191 14.8391 -10
      vertex 226.191 -14.8391 -10
    endloop
  endfacet
  facet normal 0 0 -1
    outer loop
      vertex 225.568 -14.9178 -10
      vertex 225.568 14.9178 -10
      vertex 226.191 14.8391 -10
    endloop
  endfacet
  facet normal 0 0 -1
    outer loop
      vertex 224.942 -14.9704 -10
      vertex 225.568 14.9178 -10
      vertex 225.568 -14.9178 -10
    endloop
  endfacet
  facet normal 0 0 -1
    outer loop
      vertex 224.942 -14.9704 -10
      vertex 224.942 14.9704 -10
      vertex 225.568 14.9178 -10
    endloop
  endfacet
  facet normal 0 0 -1
    outer loop
      vertex 224.314 -14.9967 -10
      vertex 224.942 14.9704 -10
      vertex 224.942 -14.9704 -10
    endloop
  endfacet
  facet normal 0 0 -1
    outer loop
      vertex 224.314 -14.9967 -10
      vertex 224.314 14.9967 -10
      vertex 224.942 14.9704 -10
    endloop
  endfacet
  facet normal 0 0 -1
    outer loop
      vertex 223.686 -14.9967 -10
      vertex 224.314 14.9967 -10
      vertex 224.314 -14.9967 -10
    endloop
  endfacet
  facet normal 0 0 -1
    outer loop
      vertex 223.686 -14.9967 -10
      vertex 223.686 14.9967 -10
      vertex 224.314 14.9967 -10
    endloop
  endfacet
  facet normal 0 0 -1
    outer loop
      vertex 223.058 -14.9704 -10
      vertex 223.686 14.9967 -10
      vertex 223.686 -14.9967 -10
    endloop
  endfacet
  facet normal 0 0 -1
    outer loop
      vertex 223.058 -14.9704 -10
      vertex 223.058 14.9704 -10
      vertex 223.686 14.9967 -10
    endloop
  endfacet
  facet normal 0 0 -1
    outer loop
      vertex 222.432 -14.9178 -10
      vertex 223.058 14.9704 -10
      vertex 223.058 -14.9704 -10
    endloop
  endfacet
  facet normal 0 0 -1
    outer loop
      vertex 222.432 -14.9178 -10
      vertex 222.432 14.9178 -10
      vertex 223.058 14.9704 -10
    endloop
  endfacet
  facet normal 0 0 -1
    outer loop
      vertex 221.809 -14.8391 -10
      vertex 222.432 14.9178 -10
      vertex 222.432 -14.9178 -10
    endloop
  endfacet
  facet normal 0 0 -1
    outer loop
      vertex 221.809 -14.8391 -10
      vertex 221.809 14.8391 -10
      vertex 222.432 14.9178 -10
    endloop
  endfacet
  facet normal 0 0 -1
    outer loop
      vertex 221.189 -14.7343 -10
      vertex 221.809 14.8391 -10
      vertex 221.809 -14.8391 -10
    endloop
  endfacet
  facet normal 0 0 -1
    outer loop
      vertex 221.189 -14.7343 -10
      vertex 221.189 14.7343 -10
      vertex 221.809 14.8391 -10
    endloop
  endfacet
  facet normal 0 0 -1
    outer loop
      vertex 220.575 -14.6037 -10
      vertex 221.189 14.7343 -10
      vertex 221.189 -14.7343 -10
    endloop
  endfacet
  facet normal 0 0 -1
    outer loop
      vertex 220.575 -14.6037 -10
      vertex 220.575 14.6037 -10
      vertex 221.189 14.7343 -10
    endloop
  endfacet
  facet normal 0 0 -1
    outer loop
      vertex 219.966 -14.4474 -10
      vertex 220.575 14.6037 -10
      vertex 220.575 -14.6037 -10
    endloop
  endfacet
  facet normal 0 0 -1
    outer loop
      vertex 219.966 -14.4474 -10
      vertex 219.966 14.4474 -10
      vertex 220.575 14.6037 -10
    endloop
  endfacet
  facet normal 0 0 -1
    outer loop
      vertex 219.365 -14.2658 -10
      vertex 219.966 14.4474 -10
      vertex 219.966 -14.4474 -10
    endloop
  endfacet
  facet normal 0 0 -1
    outer loop
      vertex 219.365 -14.2658 -10
      vertex 219.365 14.2658 -10
      vertex 219.966 14.4474 -10
    endloop
  endfacet
  facet normal 0 0 -1
    outer loop
      vertex 218.771 -14.0592 -10
      vertex 219.365 14.2658 -10
      vertex 219.365 -14.2658 -10
    endloop
  endfacet
  facet normal 0 0 -1
    outer loop
      vertex 218.771 -14.0592 -10
      vertex 218.771 14.0592 -10
      vertex 219.365 14.2658 -10
    endloop
  endfacet
  facet normal 0 0 -1
    outer loop
      vertex 218.187 -13.8279 -10
      vertex 218.771 14.0592 -10
      vertex 218.771 -14.0592 -10
    endloop
  endfacet
  facet normal 0 0 -1
    outer loop
      vertex 218.187 -13.8279 -10
      vertex 218.187 13.8279 -10
      vertex 218.771 14.0592 -10
    endloop
  endfacet
  facet normal 0 0 -1
    outer loop
      vertex 217.613 -13.5724 -10
      vertex 218.187 13.8279 -10
      vertex 218.187 -13.8279 -10
    endloop
  endfacet
  facet normal 0 0 -1
    outer loop
      vertex 217.613 -13.5724 -10
      vertex 217.613 13.5724 -10
      vertex 218.187 13.8279 -10
    endloop
  endfacet
  facet normal 0 0 -1
    outer loop
      vertex 217.051 -13.2931 -10
      vertex 217.613 13.5724 -10
      vertex 217.613 -13.5724 -10
    endloop
  endfacet
  facet normal 0 0 -1
    outer loop
      vertex 217.051 -13.2931 -10
      vertex 217.051 13.2931 -10
      vertex 217.613 13.5724 -10
    endloop
  endfacet
  facet normal 0 0 -1
    outer loop
      vertex 216.5 -12.9904 -10
      vertex 217.051 13.2931 -10
      vertex 217.051 -13.2931 -10
    endloop
  endfacet
  facet normal 0 0 -1
    outer loop
      vertex 216.5 -12.9904 -10
      vertex 216.5 12.9904 -10
      vertex 217.051 13.2931 -10
    endloop
  endfacet
  facet normal 0 0 -1
    outer loop
      vertex 215.963 -12.6649 -10
      vertex 216.5 12.9904 -10
      vertex 216.5 -12.9904 -10
    endloop
  endfacet
  facet normal 0 0 -1
    outer loop
      vertex 215.963 -12.6649 -10
      vertex 215.963 12.6649 -10
      vertex 216.5 12.9904 -10
    endloop
  endfacet
  facet normal 0 0 -1
    outer loop
      vertex 215.439 -12.3172 -10
      vertex 215.963 12.6649 -10
      vertex 215.963 -12.6649 -10
    endloop
  endfacet
  facet normal 0 0 -1
    outer loop
      vertex 215.439 -12.3172 -10
      vertex 215.439 12.3172 -10
      vertex 215.963 12.6649 -10
    endloop
  endfacet
  facet normal 0 0 -1
    outer loop
      vertex 214.931 -11.9479 -10
      vertex 215.439 12.3172 -10
      vertex 215.439 -12.3172 -10
    endloop
  endfacet
  facet normal 0 0 -1
    outer loop
      vertex 214.931 -11.9479 -10
      vertex 214.931 11.9479 -10
      vertex 215.439 12.3172 -10
    endloop
  endfacet
  facet normal 0 0 -1
    outer loop
      vertex 214.439 -11.5577 -10
      vertex 214.931 11.9479 -10
      vertex 214.931 -11.9479 -10
    endloop
  endfacet
  facet normal 0 0 -1
    outer loop
      vertex 214.439 -11.5577 -10
      vertex 214.439 11.5577 -10
      vertex 214.931 11.9479 -10
    endloop
  endfacet
  facet normal 0 0 -1
    outer loop
      vertex 213.963 -11.1472 -10
      vertex 214.439 11.5577 -10
      vertex 214.439 -11.5577 -10
    endloop
  endfacet
  facet normal 0 0 -1
    outer loop
      vertex 213.963 -11.1472 -10
      vertex 213.963 11.1472 -10
      vertex 214.439 11.5577 -10
    endloop
  endfacet
  facet normal 0 0 -1
    outer loop
      vertex 213.505 -10.7171 -10
      vertex 213.963 11.1472 -10
      vertex 213.963 -11.1472 -10
    endloop
  endfacet
  facet normal 0 0 -1
    outer loop
      vertex 213.505 -10.7171 -10
      vertex 213.505 10.7171 -10
      vertex 213.963 11.1472 -10
    endloop
  endfacet
  facet normal 0 0 -1
    outer loop
      vertex 213.065 -10.2682 -10
      vertex 213.505 10.7171 -10
      vertex 213.505 -10.7171 -10
    endloop
  endfacet
  facet normal 0 0 -1
    outer loop
      vertex 213.065 -10.2682 -10
      vertex 213.065 10.2682 -10
      vertex 213.505 10.7171 -10
    endloop
  endfacet
  facet normal 0 0 -1
    outer loop
      vertex 212.645 -9.80131 -10
      vertex 213.065 10.2682 -10
      vertex 213.065 -10.2682 -10
    endloop
  endfacet
  facet normal 0 0 -1
    outer loop
      vertex 212.645 -9.80131 -10
      vertex 212.645 9.80131 -10
      vertex 213.065 10.2682 -10
    endloop
  endfacet
  facet normal 0 0 -1
    outer loop
      vertex 212.245 -9.31722 -10
      vertex 212.645 9.80131 -10
      vertex 212.645 -9.80131 -10
    endloop
  endfacet
  facet normal 0 0 -1
    outer loop
      vertex 212.245 -9.31722 -10
      vertex 212.245 9.31722 -10
      vertex 212.645 9.80131 -10
    endloop
  endfacet
  facet normal 0 0 -1
    outer loop
      vertex 211.865 -8.81678 -10
      vertex 212.245 9.31722 -10
      vertex 212.245 -9.31722 -10
    endloop
  endfacet
  facet normal 0 0 -1
    outer loop
      vertex 211.865 -8.81678 -10
      vertex 211.865 8.81678 -10
      vertex 212.245 9.31722 -10
    endloop
  endfacet
  facet normal 0 0 -1
    outer loop
      vertex 211.506 -8.30087 -10
      vertex 211.865 8.81678 -10
      vertex 211.865 -8.81678 -10
    endloop
  endfacet
  facet normal 0 0 -1
    outer loop
      vertex 211.506 -8.30087 -10
      vertex 211.506 8.30087 -10
      vertex 211.865 8.81678 -10
    endloop
  endfacet
  facet normal 0 0 -1
    outer loop
      vertex 211.17 -7.77041 -10
      vertex 211.506 8.30087 -10
      vertex 211.506 -8.30087 -10
    endloop
  endfacet
  facet normal 0 0 -1
    outer loop
      vertex 211.17 -7.77041 -10
      vertex 211.17 7.77041 -10
      vertex 211.506 8.30087 -10
    endloop
  endfacet
  facet normal 0 0 -1
    outer loop
      vertex 210.855 -7.22631 -10
      vertex 211.17 7.77041 -10
      vertex 211.17 -7.77041 -10
    endloop
  endfacet
  facet normal 0 0 -1
    outer loop
      vertex 210.855 -7.22631 -10
      vertex 210.855 7.22631 -10
      vertex 211.17 7.77041 -10
    endloop
  endfacet
  facet normal 0 0 -1
    outer loop
      vertex 210.564 -6.66953 -10
      vertex 210.855 7.22631 -10
      vertex 210.855 -7.22631 -10
    endloop
  endfacet
  facet normal 0 0 -1
    outer loop
      vertex 210.564 -6.66953 -10
      vertex 210.564 6.66953 -10
      vertex 210.855 7.22631 -10
    endloop
  endfacet
  facet normal 0 0 -1
    outer loop
      vertex 210.297 -6.10105 -10
      vertex 210.564 6.66953 -10
      vertex 210.564 -6.66953 -10
    endloop
  endfacet
  facet normal 0 0 -1
    outer loop
      vertex 210.297 -6.10105 -10
      vertex 210.297 6.10105 -10
      vertex 210.564 6.66953 -10
    endloop
  endfacet
  facet normal 0 0 -1
    outer loop
      vertex 210.053 -5.52187 -10
      vertex 210.297 6.10105 -10
      vertex 210.297 -6.10105 -10
    endloop
  endfacet
  facet normal 0 0 -1
    outer loop
      vertex 210.053 -5.52187 -10
      vertex 210.053 5.52187 -10
      vertex 210.297 6.10105 -10
    endloop
  endfacet
  facet normal 0 0 -1
    outer loop
      vertex 209.834 -4.933 -10
      vertex 210.053 5.52187 -10
      vertex 210.053 -5.52187 -10
    endloop
  endfacet
  facet normal 0 0 -1
    outer loop
      vertex 209.834 -4.933 -10
      vertex 209.834 4.933 -10
      vertex 210.053 5.52187 -10
    endloop
  endfacet
  facet normal 0 0 -1
    outer loop
      vertex 209.64 -4.33548 -10
      vertex 209.834 4.933 -10
      vertex 209.834 -4.933 -10
    endloop
  endfacet
  facet normal 0 0 -1
    outer loop
      vertex 209.64 -4.33548 -10
      vertex 209.64 4.33548 -10
      vertex 209.834 4.933 -10
    endloop
  endfacet
  facet normal 0 0 -1
    outer loop
      vertex 209.471 -3.73035 -10
      vertex 209.64 4.33548 -10
      vertex 209.64 -4.33548 -10
    endloop
  endfacet
  facet normal 0 0 -1
    outer loop
      vertex 209.471 -3.73035 -10
      vertex 209.471 3.73035 -10
      vertex 209.64 4.33548 -10
    endloop
  endfacet
  facet normal 0 0 -1
    outer loop
      vertex 209.328 -3.11868 -10
      vertex 209.471 3.73035 -10
      vertex 209.471 -3.73035 -10
    endloop
  endfacet
  facet normal 0 0 -1
    outer loop
      vertex 209.328 -3.11868 -10
      vertex 209.328 3.11868 -10
      vertex 209.471 3.73035 -10
    endloop
  endfacet
  facet normal 0 0 -1
    outer loop
      vertex 209.21 -2.50153 -10
      vertex 209.328 3.11868 -10
      vertex 209.328 -3.11868 -10
    endloop
  endfacet
  facet normal 0 0 -1
    outer loop
      vertex 209.21 -2.50153 -10
      vertex 209.21 2.50153 -10
      vertex 209.328 3.11868 -10
    endloop
  endfacet
  facet normal 0 0 -1
    outer loop
      vertex 209.118 -1.88 -10
      vertex 209.21 2.50153 -10
      vertex 209.21 -2.50153 -10
    endloop
  endfacet
  facet normal 0 0 -1
    outer loop
      vertex 209.118 -1.88 -10
      vertex 209.118 1.88 -10
      vertex 209.21 2.50153 -10
    endloop
  endfacet
  facet normal 0 0 -1
    outer loop
      vertex 209.053 -1.25517 -10
      vertex 209.118 1.88 -10
      vertex 209.118 -1.88 -10
    endloop
  endfacet
  facet normal 0 0 -1
    outer loop
      vertex 209.053 -1.25517 -10
      vertex 209.053 1.25517 -10
      vertex 209.118 1.88 -10
    endloop
  endfacet
  facet normal 0 0 -1
    outer loop
      vertex 209.013 -0.628135 -10
      vertex 209.053 1.25517 -10
      vertex 209.053 -1.25517 -10
    endloop
  endfacet
  facet normal 0 0 -1
    outer loop
      vertex 209.013 -0.628135 -10
      vertex 209.013 0.628135 -10
      vertex 209.053 1.25517 -10
    endloop
  endfacet
  facet normal 0 -0 -1
    outer loop
      vertex 209.013 0.628135 -10
      vertex 209.013 -0.628135 -10
      vertex 209 0 -10
    endloop
  endfacet
  facet normal 0 0 1
    outer loop
      vertex 238.987 0.628135 10
      vertex 238.987 -0.628135 10
      vertex 239 0 10
    endloop
  endfacet
  facet normal 0 0 1
    outer loop
      vertex 238.947 1.25517 10
      vertex 238.987 -0.628135 10
      vertex 238.987 0.628135 10
    endloop
  endfacet
  facet normal 0 0 1
    outer loop
      vertex 238.947 1.25517 10
      vertex 238.947 -1.25517 10
      vertex 238.987 -0.628135 10
    endloop
  endfacet
  facet normal 0 0 1
    outer loop
      vertex 238.882 1.88 10
      vertex 238.947 -1.25517 10
      vertex 238.947 1.25517 10
    endloop
  endfacet
  facet normal 0 0 1
    outer loop
      vertex 238.882 1.88 10
      vertex 238.882 -1.88 10
      vertex 238.947 -1.25517 10
    endloop
  endfacet
  facet normal 0 0 1
    outer loop
      vertex 238.79 2.50153 10
      vertex 238.882 -1.88 10
      vertex 238.882 1.88 10
    endloop
  endfacet
  facet normal 0 0 1
    outer loop
      vertex 238.79 2.50153 10
      vertex 238.79 -2.50153 10
      vertex 238.882 -1.88 10
    endloop
  endfacet
  facet normal 0 0 1
    outer loop
      vertex 238.672 3.11868 10
      vertex 238.79 -2.50153 10
      vertex 238.79 2.50153 10
    endloop
  endfacet
  facet normal 0 0 1
    outer loop
      vertex 238.672 3.11868 10
      vertex 238.672 -3.11868 10
      vertex 238.79 -2.50153 10
    endloop
  endfacet
  facet normal 0 0 1
    outer loop
      vertex 238.529 3.73035 10
      vertex 238.672 -3.11868 10
      vertex 238.672 3.11868 10
    endloop
  endfacet
  facet normal 0 0 1
    outer loop
      vertex 238.529 3.73035 10
      vertex 238.529 -3.73035 10
      vertex 238.672 -3.11868 10
    endloop
  endfacet
  facet normal 0 0 1
    outer loop
      vertex 238.36 4.33548 10
      vertex 238.529 -3.73035 10
      vertex 238.529 3.73035 10
    endloop
  endfacet
  facet normal 0 0 1
    outer loop
      vertex 238.36 4.33548 10
      vertex 238.36 -4.33548 10
      vertex 238.529 -3.73035 10
    endloop
  endfacet
  facet normal 0 0 1
    outer loop
      vertex 238.166 4.933 10
      vertex 238.36 -4.33548 10
      vertex 238.36 4.33548 10
    endloop
  endfacet
  facet normal 0 0 1
    outer loop
      vertex 238.166 4.933 10
      vertex 238.166 -4.933 10
      vertex 238.36 -4.33548 10
    endloop
  endfacet
  facet normal 0 0 1
    outer loop
      vertex 237.947 5.52187 10
      vertex 238.166 -4.933 10
      vertex 238.166 4.933 10
    endloop
  endfacet
  facet normal 0 0 1
    outer loop
      vertex 237.947 5.52187 10
      vertex 237.947 -5.52187 10
      vertex 238.166 -4.933 10
    endloop
  endfacet
  facet normal 0 0 1
    outer loop
      vertex 237.703 6.10105 10
      vertex 237.947 -5.52187 10
      vertex 237.947 5.52187 10
    endloop
  endfacet
  facet normal 0 0 1
    outer loop
      vertex 237.703 6.10105 10
      vertex 237.703 -6.10105 10
      vertex 237.947 -5.52187 10
    endloop
  endfacet
  facet normal 0 0 1
    outer loop
      vertex 237.436 6.66953 10
      vertex 237.703 -6.10105 10
      vertex 237.703 6.10105 10
    endloop
  endfacet
  facet normal 0 0 1
    outer loop
      vertex 237.436 6.66953 10
      vertex 237.436 -6.66953 10
      vertex 237.703 -6.10105 10
    endloop
  endfacet
  facet normal 0 0 1
    outer loop
      vertex 237.145 7.22631 10
      vertex 237.436 -6.66953 10
      vertex 237.436 6.66953 10
    endloop
  endfacet
  facet normal 0 0 1
    outer loop
      vertex 237.145 7.22631 10
      vertex 237.145 -7.22631 10
      vertex 237.436 -6.66953 10
    endloop
  endfacet
  facet normal 0 0 1
    outer loop
      vertex 236.83 7.77041 10
      vertex 237.145 -7.22631 10
      vertex 237.145 7.22631 10
    endloop
  endfacet
  facet normal 0 0 1
    outer loop
      vertex 236.83 7.77041 10
      vertex 236.83 -7.77041 10
      vertex 237.145 -7.22631 10
    endloop
  endfacet
  facet normal 0 0 1
    outer loop
      vertex 236.494 8.30087 10
      vertex 236.83 -7.77041 10
      vertex 236.83 7.77041 10
    endloop
  endfacet
  facet normal 0 0 1
    outer loop
      vertex 236.494 8.30087 10
      vertex 236.494 -8.30087 10
      vertex 236.83 -7.77041 10
    endloop
  endfacet
  facet normal 0 0 1
    outer loop
      vertex 236.135 8.81678 10
      vertex 236.494 -8.30087 10
      vertex 236.494 8.30087 10
    endloop
  endfacet
  facet normal 0 0 1
    outer loop
      vertex 236.135 8.81678 10
      vertex 236.135 -8.81678 10
      vertex 236.494 -8.30087 10
    endloop
  endfacet
  facet normal 0 0 1
    outer loop
      vertex 235.755 9.31722 10
      vertex 236.135 -8.81678 10
      vertex 236.135 8.81678 10
    endloop
  endfacet
  facet normal 0 0 1
    outer loop
      vertex 235.755 9.31722 10
      vertex 235.755 -9.31722 10
      vertex 236.135 -8.81678 10
    endloop
  endfacet
  facet normal 0 0 1
    outer loop
      vertex 235.355 9.80131 10
      vertex 235.755 -9.31722 10
      vertex 235.755 9.31722 10
    endloop
  endfacet
  facet normal 0 0 1
    outer loop
      vertex 235.355 9.80131 10
      vertex 235.355 -9.80131 10
      vertex 235.755 -9.31722 10
    endloop
  endfacet
  facet normal 0 0 1
    outer loop
      vertex 234.935 10.2682 10
      vertex 235.355 -9.80131 10
      vertex 235.355 9.80131 10
    endloop
  endfacet
  facet normal 0 0 1
    outer loop
      vertex 234.935 10.2682 10
      vertex 234.935 -10.2682 10
      vertex 235.355 -9.80131 10
    endloop
  endfacet
  facet normal 0 0 1
    outer loop
      vertex 234.495 10.7171 10
      vertex 234.935 -10.2682 10
      vertex 234.935 10.2682 10
    endloop
  endfacet
  facet normal 0 0 1
    outer loop
      vertex 234.495 10.7171 10
      vertex 234.495 -10.7171 10
      vertex 234.935 -10.2682 10
    endloop
  endfacet
  facet normal 0 0 1
    outer loop
      vertex 234.037 11.1472 10
      vertex 234.495 -10.7171 10
      vertex 234.495 10.7171 10
    endloop
  endfacet
  facet normal 0 0 1
    outer loop
      vertex 234.037 11.1472 10
      vertex 234.037 -11.1472 10
      vertex 234.495 -10.7171 10
    endloop
  endfacet
  facet normal 0 0 1
    outer loop
      vertex 233.561 11.5577 10
      vertex 234.037 -11.1472 10
      vertex 234.037 11.1472 10
    endloop
  endfacet
  facet normal 0 0 1
    outer loop
      vertex 233.561 11.5577 10
      vertex 233.561 -11.5577 10
      vertex 234.037 -11.1472 10
    endloop
  endfacet
  facet normal 0 0 1
    outer loop
      vertex 233.069 11.9479 10
      vertex 233.561 -11.5577 10
      vertex 233.561 11.5577 10
    endloop
  endfacet
  facet normal 0 0 1
    outer loop
      vertex 233.069 11.9479 10
      vertex 233.069 -11.9479 10
      vertex 233.561 -11.5577 10
    endloop
  endfacet
  facet normal 0 0 1
    outer loop
      vertex 232.561 12.3172 10
      vertex 233.069 -11.9479 10
      vertex 233.069 11.9479 10
    endloop
  endfacet
  facet normal 0 0 1
    outer loop
      vertex 232.561 12.3172 10
      vertex 232.561 -12.3172 10
      vertex 233.069 -11.9479 10
    endloop
  endfacet
  facet normal 0 0 1
    outer loop
      vertex 232.037 12.6649 10
      vertex 232.561 -12.3172 10
      vertex 232.561 12.3172 10
    endloop
  endfacet
  facet normal 0 0 1
    outer loop
      vertex 232.037 12.6649 10
      vertex 232.037 -12.6649 10
      vertex 232.561 -12.3172 10
    endloop
  endfacet
  facet normal 0 0 1
    outer loop
      vertex 231.5 12.9904 10
      vertex 232.037 -12.6649 10
      vertex 232.037 12.6649 10
    endloop
  endfacet
  facet normal 0 0 1
    outer loop
      vertex 231.5 12.9904 10
      vertex 231.5 -12.9904 10
      vertex 232.037 -12.6649 10
    endloop
  endfacet
  facet normal 0 0 1
    outer loop
      vertex 230.949 13.2931 10
      vertex 231.5 -12.9904 10
      vertex 231.5 12.9904 10
    endloop
  endfacet
  facet normal 0 0 1
    outer loop
      vertex 230.949 13.2931 10
      vertex 230.949 -13.2931 10
      vertex 231.5 -12.9904 10
    endloop
  endfacet
  facet normal 0 0 1
    outer loop
      vertex 230.387 13.5724 10
      vertex 230.949 -13.2931 10
      vertex 230.949 13.2931 10
    endloop
  endfacet
  facet normal 0 0 1
    outer loop
      vertex 230.387 13.5724 10
      vertex 230.387 -13.5724 10
      vertex 230.949 -13.2931 10
    endloop
  endfacet
  facet normal 0 0 1
    outer loop
      vertex 229.813 13.8279 10
      vertex 230.387 -13.5724 10
      vertex 230.387 13.5724 10
    endloop
  endfacet
  facet normal 0 0 1
    outer loop
      vertex 229.813 13.8279 10
      vertex 229.813 -13.8279 10
      vertex 230.387 -13.5724 10
    endloop
  endfacet
  facet normal 0 0 1
    outer loop
      vertex 229.229 14.0592 10
      vertex 229.813 -13.8279 10
      vertex 229.813 13.8279 10
    endloop
  endfacet
  facet normal 0 0 1
    outer loop
      vertex 229.229 14.0592 10
      vertex 229.229 -14.0592 10
      vertex 229.813 -13.8279 10
    endloop
  endfacet
  facet normal 0 0 1
    outer loop
      vertex 228.635 14.2658 10
      vertex 229.229 -14.0592 10
      vertex 229.229 14.0592 10
    endloop
  endfacet
  facet normal 0 0 1
    outer loop
      vertex 228.635 14.2658 10
      vertex 228.635 -14.2658 10
      vertex 229.229 -14.0592 10
    endloop
  endfacet
  facet normal 0 0 1
    outer loop
      vertex 228.034 14.4474 10
      vertex 228.635 -14.2658 10
      vertex 228.635 14.2658 10
    endloop
  endfacet
  facet normal 0 0 1
    outer loop
      vertex 228.034 14.4474 10
      vertex 228.034 -14.4474 10
      vertex 228.635 -14.2658 10
    endloop
  endfacet
  facet normal 0 0 1
    outer loop
      vertex 227.425 14.6037 10
      vertex 228.034 -14.4474 10
      vertex 228.034 14.4474 10
    endloop
  endfacet
  facet normal 0 0 1
    outer loop
      vertex 227.425 14.6037 10
      vertex 227.425 -14.6037 10
      vertex 228.034 -14.4474 10
    endloop
  endfacet
  facet normal 0 0 1
    outer loop
      vertex 226.811 14.7343 10
      vertex 227.425 -14.6037 10
      vertex 227.425 14.6037 10
    endloop
  endfacet
  facet normal 0 0 1
    outer loop
      vertex 226.811 14.7343 10
      vertex 226.811 -14.7343 10
      vertex 227.425 -14.6037 10
    endloop
  endfacet
  facet normal 0 0 1
    outer loop
      vertex 226.191 14.8391 10
      vertex 226.811 -14.7343 10
      vertex 226.811 14.7343 10
    endloop
  endfacet
  facet normal 0 0 1
    outer loop
      vertex 226.191 14.8391 10
      vertex 226.191 -14.8391 10
      vertex 226.811 -14.7343 10
    endloop
  endfacet
  facet normal 0 0 1
    outer loop
      vertex 225.568 14.9178 10
      vertex 226.191 -14.8391 10
      vertex 226.191 14.8391 10
    endloop
  endfacet
  facet normal 0 0 1
    outer loop
      vertex 225.568 14.9178 10
      vertex 225.568 -14.9178 10
      vertex 226.191 -14.8391 10
    endloop
  endfacet
  facet normal 0 0 1
    outer loop
      vertex 224.942 14.9704 10
      vertex 225.568 -14.9178 10
      vertex 225.568 14.9178 10
    endloop
  endfacet
  facet normal 0 0 1
    outer loop
      vertex 224.942 14.9704 10
      vertex 224.942 -14.9704 10
      vertex 225.568 -14.9178 10
    endloop
  endfacet
  facet normal 0 0 1
    outer loop
      vertex 224.314 14.9967 10
      vertex 224.942 -14.9704 10
      vertex 224.942 14.9704 10
    endloop
  endfacet
  facet normal 0 0 1
    outer loop
      vertex 224.314 14.9967 10
      vertex 224.314 -14.9967 10
      vertex 224.942 -14.9704 10
    endloop
  endfacet
  facet normal -0 0 1
    outer loop
      vertex 223.686 14.9967 10
      vertex 224.314 -14.9967 10
      vertex 224.314 14.9967 10
    endloop
  endfacet
  facet normal 0 0 1
    outer loop
      vertex 223.686 14.9967 10
      vertex 223.686 -14.9967 10
      vertex 224.314 -14.9967 10
    endloop
  endfacet
  facet normal -0 0 1
    outer loop
      vertex 223.058 14.9704 10
      vertex 223.686 -14.9967 10
      vertex 223.686 14.9967 10
    endloop
  endfacet
  facet normal 0 0 1
    outer loop
      vertex 223.058 14.9704 10
      vertex 223.058 -14.9704 10
      vertex 223.686 -14.9967 10
    endloop
  endfacet
  facet normal -0 0 1
    outer loop
      vertex 222.432 14.9178 10
      vertex 223.058 -14.9704 10
      vertex 223.058 14.9704 10
    endloop
  endfacet
  facet normal 0 0 1
    outer loop
      vertex 222.432 14.9178 10
      vertex 222.432 -14.9178 10
      vertex 223.058 -14.9704 10
    endloop
  endfacet
  facet normal -0 0 1
    outer loop
      vertex 221.809 14.8391 10
      vertex 222.432 -14.9178 10
      vertex 222.432 14.9178 10
    endloop
  endfacet
  facet normal 0 0 1
    outer loop
      vertex 221.809 14.8391 10
      vertex 221.809 -14.8391 10
      vertex 222.432 -14.9178 10
    endloop
  endfacet
  facet normal -0 0 1
    outer loop
      vertex 221.189 14.7343 10
      vertex 221.809 -14.8391 10
      vertex 221.809 14.8391 10
    endloop
  endfacet
  facet normal 0 0 1
    outer loop
      vertex 221.189 14.7343 10
      vertex 221.189 -14.7343 10
      vertex 221.809 -14.8391 10
    endloop
  endfacet
  facet normal -0 0 1
    outer loop
      vertex 220.575 14.6037 10
      vertex 221.189 -14.7343 10
      vertex 221.189 14.7343 10
    endloop
  endfacet
  facet normal 0 0 1
    outer loop
      vertex 220.575 14.6037 10
      vertex 220.575 -14.6037 10
      vertex 221.189 -14.7343 10
    endloop
  endfacet
  facet normal -0 0 1
    outer loop
      vertex 219.966 14.4474 10
      vertex 220.575 -14.6037 10
      vertex 220.575 14.6037 10
    endloop
  endfacet
  facet normal 0 0 1
    outer loop
      vertex 219.966 14.4474 10
      vertex 219.966 -14.4474 10
      vertex 220.575 -14.6037 10
    endloop
  endfacet
  facet normal -0 0 1
    outer loop
      vertex 219.365 14.2658 10
      vertex 219.966 -14.4474 10
      vertex 219.966 14.4474 10
    endloop
  endfacet
  facet normal 0 0 1
    outer loop
      vertex 219.365 14.2658 10
      vertex 219.365 -14.2658 10
      vertex 219.966 -14.4474 10
    endloop
  endfacet
  facet normal -0 0 1
    outer loop
      vertex 218.771 14.0592 10
      vertex 219.365 -14.2658 10
      vertex 219.365 14.2658 10
    endloop
  endfacet
  facet normal 0 0 1
    outer loop
      vertex 218.771 14.0592 10
      vertex 218.771 -14.0592 10
      vertex 219.365 -14.2658 10
    endloop
  endfacet
  facet normal -0 0 1
    outer loop
      vertex 218.187 13.8279 10
      vertex 218.771 -14.0592 10
      vertex 218.771 14.0592 10
    endloop
  endfacet
  facet normal 0 0 1
    outer loop
      vertex 218.187 13.8279 10
      vertex 218.187 -13.8279 10
      vertex 218.771 -14.0592 10
    endloop
  endfacet
  facet normal -0 0 1
    outer loop
      vertex 217.613 13.5724 10
      vertex 218.187 -13.8279 10
      vertex 218.187 13.8279 10
    endloop
  endfacet
  facet normal 0 0 1
    outer loop
      vertex 217.613 13.5724 10
      vertex 217.613 -13.5724 10
      vertex 218.187 -13.8279 10
    endloop
  endfacet
  facet normal -0 0 1
    outer loop
      vertex 217.051 13.2931 10
      vertex 217.613 -13.5724 10
      vertex 217.613 13.5724 10
    endloop
  endfacet
  facet normal 0 0 1
    outer loop
      vertex 217.051 13.2931 10
      vertex 217.051 -13.2931 10
      vertex 217.613 -13.5724 10
    endloop
  endfacet
  facet normal -0 0 1
    outer loop
      vertex 216.5 12.9904 10
      vertex 217.051 -13.2931 10
      vertex 217.051 13.2931 10
    endloop
  endfacet
  facet normal 0 0 1
    outer loop
      vertex 216.5 12.9904 10
      vertex 216.5 -12.9904 10
      vertex 217.051 -13.2931 10
    endloop
  endfacet
  facet normal -0 0 1
    outer loop
      vertex 215.963 12.6649 10
      vertex 216.5 -12.9904 10
      vertex 216.5 12.9904 10
    endloop
  endfacet
  facet normal 0 0 1
    outer loop
      vertex 215.963 12.6649 10
      vertex 215.963 -12.6649 10
      vertex 216.5 -12.9904 10
    endloop
  endfacet
  facet normal -0 0 1
    outer loop
      vertex 215.439 12.3172 10
      vertex 215.963 -12.6649 10
      vertex 215.963 12.6649 10
    endloop
  endfacet
  facet normal 0 0 1
    outer loop
      vertex 215.439 12.3172 10
      vertex 215.439 -12.3172 10
      vertex 215.963 -12.6649 10
    endloop
  endfacet
  facet normal -0 0 1
    outer loop
      vertex 214.931 11.9479 10
      vertex 215.439 -12.3172 10
      vertex 215.439 12.3172 10
    endloop
  endfacet
  facet normal 0 0 1
    outer loop
      vertex 214.931 11.9479 10
      vertex 214.931 -11.9479 10
      vertex 215.439 -12.3172 10
    endloop
  endfacet
  facet normal -0 0 1
    outer loop
      vertex 214.439 11.5577 10
      vertex 214.931 -11.9479 10
      vertex 214.931 11.9479 10
    endloop
  endfacet
  facet normal 0 0 1
    outer loop
      vertex 214.439 11.5577 10
      vertex 214.439 -11.5577 10
      vertex 214.931 -11.9479 10
    endloop
  endfacet
  facet normal -0 0 1
    outer loop
      vertex 213.963 11.1472 10
      vertex 214.439 -11.5577 10
      vertex 214.439 11.5577 10
    endloop
  endfacet
  facet normal 0 0 1
    outer loop
      vertex 213.963 11.1472 10
      vertex 213.963 -11.1472 10
      vertex 214.439 -11.5577 10
    endloop
  endfacet
  facet normal -0 0 1
    outer loop
      vertex 213.505 10.7171 10
      vertex 213.963 -11.1472 10
      vertex 213.963 11.1472 10
    endloop
  endfacet
  facet normal 0 0 1
    outer loop
      vertex 213.505 10.7171 10
      vertex 213.505 -10.7171 10
      vertex 213.963 -11.1472 10
    endloop
  endfacet
  facet normal -0 0 1
    outer loop
      vertex 213.065 10.2682 10
      vertex 213.505 -10.7171 10
      vertex 213.505 10.7171 10
    endloop
  endfacet
  facet normal 0 0 1
    outer loop
      vertex 213.065 10.2682 10
      vertex 213.065 -10.2682 10
      vertex 213.505 -10.7171 10
    endloop
  endfacet
  facet normal -0 0 1
    outer loop
      vertex 212.645 9.80131 10
      vertex 213.065 -10.2682 10
      vertex 213.065 10.2682 10
    endloop
  endfacet
  facet normal 0 0 1
    outer loop
      vertex 212.645 9.80131 10
      vertex 212.645 -9.80131 10
      vertex 213.065 -10.2682 10
    endloop
  endfacet
  facet normal -0 0 1
    outer loop
      vertex 212.245 9.31722 10
      vertex 212.645 -9.80131 10
      vertex 212.645 9.80131 10
    endloop
  endfacet
  facet normal 0 0 1
    outer loop
      vertex 212.245 9.31722 10
      vertex 212.245 -9.31722 10
      vertex 212.645 -9.80131 10
    endloop
  endfacet
  facet normal -0 0 1
    outer loop
      vertex 211.865 8.81678 10
      vertex 212.245 -9.31722 10
      vertex 212.245 9.31722 10
    endloop
  endfacet
  facet normal 0 0 1
    outer loop
      vertex 211.865 8.81678 10
      vertex 211.865 -8.81678 10
      vertex 212.245 -9.31722 10
    endloop
  endfacet
  facet normal -0 0 1
    outer loop
      vertex 211.506 8.30087 10
      vertex 211.865 -8.81678 10
      vertex 211.865 8.81678 10
    endloop
  endfacet
  facet normal 0 0 1
    outer loop
      vertex 211.506 8.30087 10
      vertex 211.506 -8.30087 10
      vertex 211.865 -8.81678 10
    endloop
  endfacet
  facet normal -0 0 1
    outer loop
      vertex 211.17 7.77041 10
      vertex 211.506 -8.30087 10
      vertex 211.506 8.30087 10
    endloop
  endfacet
  facet normal 0 0 1
    outer loop
      vertex 211.17 7.77041 10
      vertex 211.17 -7.77041 10
      vertex 211.506 -8.30087 10
    endloop
  endfacet
  facet normal -0 0 1
    outer loop
      vertex 210.855 7.22631 10
      vertex 211.17 -7.77041 10
      vertex 211.17 7.77041 10
    endloop
  endfacet
  facet normal 0 0 1
    outer loop
      vertex 210.855 7.22631 10
      vertex 210.855 -7.22631 10
      vertex 211.17 -7.77041 10
    endloop
  endfacet
  facet normal -0 0 1
    outer loop
      vertex 210.564 6.66953 10
      vertex 210.855 -7.22631 10
      vertex 210.855 7.22631 10
    endloop
  endfacet
  facet normal 0 0 1
    outer loop
      vertex 210.564 6.66953 10
      vertex 210.564 -6.66953 10
      vertex 210.855 -7.22631 10
    endloop
  endfacet
  facet normal -0 0 1
    outer loop
      vertex 210.297 6.10105 10
      vertex 210.564 -6.66953 10
      vertex 210.564 6.66953 10
    endloop
  endfacet
  facet normal 0 0 1
    outer loop
      vertex 210.297 6.10105 10
      vertex 210.297 -6.10105 10
      vertex 210.564 -6.66953 10
    endloop
  endfacet
  facet normal -0 0 1
    outer loop
      vertex 210.053 5.52187 10
      vertex 210.297 -6.10105 10
      vertex 210.297 6.10105 10
    endloop
  endfacet
  facet normal 0 0 1
    outer loop
      vertex 210.053 5.52187 10
      vertex 210.053 -5.52187 10
      vertex 210.297 -6.10105 10
    endloop
  endfacet
  facet normal -0 0 1
    outer loop
      vertex 209.834 4.933 10
      vertex 210.053 -5.52187 10
      vertex 210.053 5.52187 10
    endloop
  endfacet
  facet normal 0 0 1
    outer loop
      vertex 209.834 4.933 10
      vertex 209.834 -4.933 10
      vertex 210.053 -5.52187 10
    endloop
  endfacet
  facet normal -0 0 1
    outer loop
      vertex 209.64 4.33548 10
      vertex 209.834 -4.933 10
      vertex 209.834 4.933 10
    endloop
  endfacet
  facet normal 0 0 1
    outer loop
      vertex 209.64 4.33548 10
      vertex 209.64 -4.33548 10
      vertex 209.834 -4.933 10
    endloop
  endfacet
  facet normal -0 0 1
    outer loop
      vertex 209.471 3.73035 10
      vertex 209.64 -4.33548 10
      vertex 209.64 4.33548 10
    endloop
  endfacet
  facet normal 0 0 1
    outer loop
      vertex 209.471 3.73035 10
      vertex 209.471 -3.73035 10
      vertex 209.64 -4.33548 10
    endloop
  endfacet
  facet normal -0 0 1
    outer loop
      vertex 209.328 3.11868 10
      vertex 209.471 -3.73035 10
      vertex 209.471 3.73035 10
    endloop
  endfacet
  facet normal 0 0 1
    outer loop
      vertex 209.328 3.11868 10
      vertex 209.328 -3.11868 10
      vertex 209.471 -3.73035 10
    endloop
  endfacet
  facet normal -0 0 1
    outer loop
      vertex 209.21 2.50153 10
      vertex 209.328 -3.11868 10
      vertex 209.328 3.11868 10
    endloop
  endfacet
  facet normal 0 0 1
    outer loop
      vertex 209.21 2.50153 10
      vertex 209.21 -2.50153 10
      vertex 209.328 -3.11868 10
    endloop
  endfacet
  facet normal -0 0 1
    outer loop
      vertex 209.118 1.88 10
      vertex 209.21 -2.50153 10
      vertex 209.21 2.50153 10
    endloop
  endfacet
  facet normal 0 0 1
    outer loop
      vertex 209.118 1.88 10
      vertex 209.118 -1.88 10
      vertex 209.21 -2.50153 10
    endloop
  endfacet
  facet normal -0 0 1
    outer loop
      vertex 209.053 1.25517 10
      vertex 209.118 -1.88 10
      vertex 209.118 1.88 10
    endloop
  endfacet
  facet normal 0 0 1
    outer loop
      vertex 209.053 1.25517 10
      vertex 209.053 -1.25517 10
      vertex 209.118 -1.88 10
    endloop
  endfacet
  facet normal -0 0 1
    outer loop
      vertex 209.013 0.628135 10
      vertex 209.053 -1.25517 10
      vertex 209.053 1.25517 10
    endloop
  endfacet
  facet normal 0 0 1
    outer loop
      vertex 209.013 0.628135 10
      vertex 209.013 -0.628135 10
      vertex 209.053 -1.25517 10
    endloop
  endfacet
  facet normal 0 -0 1
    outer loop
      vertex 209.013 -0.628135 10
      vertex 209.013 0.628135 10
      vertex 209 0 10
    endloop
  endfacet
endsolid OpenSCAD_Model
