solid OpenSCAD_Model
  facet normal 0.999786 0.0206918 0
    outer loop
      vertex 207 0 10
      vertex 206.987 0.628135 -10
      vertex 206.987 0.628135 10
    endloop
  endfacet
  facet normal 0.999786 0.0206918 0
    outer loop
      vertex 206.987 0.628135 -10
      vertex 207 0 10
      vertex 207 0 -10
    endloop
  endfacet
  facet normal 0.997971 0.0636629 0
    outer loop
      vertex 206.987 0.628135 10
      vertex 206.947 1.25517 -10
      vertex 206.947 1.25517 10
    endloop
  endfacet
  facet normal 0.997971 0.0636629 0
    outer loop
      vertex 206.947 1.25517 -10
      vertex 206.987 0.628135 10
      vertex 206.987 0.628135 -10
    endloop
  endfacet
  facet normal 0.994633 0.10347 0
    outer loop
      vertex 206.947 1.25517 10
      vertex 206.882 1.88 -10
      vertex 206.882 1.88 10
    endloop
  endfacet
  facet normal 0.994633 0.10347 0
    outer loop
      vertex 206.882 1.88 -10
      vertex 206.947 1.25517 10
      vertex 206.947 1.25517 -10
    endloop
  endfacet
  facet normal 0.989222 0.146426 0
    outer loop
      vertex 206.882 1.88 10
      vertex 206.79 2.50153 -10
      vertex 206.79 2.50153 10
    endloop
  endfacet
  facet normal 0.989222 0.146426 0
    outer loop
      vertex 206.79 2.50153 -10
      vertex 206.882 1.88 10
      vertex 206.882 1.88 -10
    endloop
  endfacet
  facet normal 0.982207 0.1878 0
    outer loop
      vertex 206.79 2.50153 10
      vertex 206.672 3.11868 -10
      vertex 206.672 3.11868 10
    endloop
  endfacet
  facet normal 0.982207 0.1878 0
    outer loop
      vertex 206.672 3.11868 -10
      vertex 206.79 2.50153 10
      vertex 206.79 2.50153 -10
    endloop
  endfacet
  facet normal 0.973744 0.227648 0
    outer loop
      vertex 206.672 3.11868 10
      vertex 206.529 3.73035 -10
      vertex 206.529 3.73035 10
    endloop
  endfacet
  facet normal 0.973744 0.227648 0
    outer loop
      vertex 206.529 3.73035 -10
      vertex 206.672 3.11868 10
      vertex 206.672 3.11868 -10
    endloop
  endfacet
  facet normal 0.963144 0.268986 0
    outer loop
      vertex 206.529 3.73035 10
      vertex 206.36 4.33548 -10
      vertex 206.36 4.33548 10
    endloop
  endfacet
  facet normal 0.963144 0.268986 0
    outer loop
      vertex 206.36 4.33548 -10
      vertex 206.529 3.73035 10
      vertex 206.529 3.73035 -10
    endloop
  endfacet
  facet normal 0.951125 0.308807 0
    outer loop
      vertex 206.36 4.33548 10
      vertex 206.166 4.933 -10
      vertex 206.166 4.933 10
    endloop
  endfacet
  facet normal 0.951125 0.308807 0
    outer loop
      vertex 206.166 4.933 -10
      vertex 206.36 4.33548 10
      vertex 206.36 4.33548 -10
    endloop
  endfacet
  facet normal 0.937281 0.348574 0
    outer loop
      vertex 206.166 4.933 10
      vertex 205.947 5.52187 -10
      vertex 205.947 5.52187 10
    endloop
  endfacet
  facet normal 0.937281 0.348574 0
    outer loop
      vertex 205.947 5.52187 -10
      vertex 206.166 4.933 10
      vertex 206.166 4.933 -10
    endloop
  endfacet
  facet normal 0.921559 0.388239 0
    outer loop
      vertex 205.947 5.52187 10
      vertex 205.703 6.10105 -10
      vertex 205.703 6.10105 10
    endloop
  endfacet
  facet normal 0.921559 0.388239 0
    outer loop
      vertex 205.703 6.10105 -10
      vertex 205.947 5.52187 10
      vertex 205.947 5.52187 -10
    endloop
  endfacet
  facet normal 0.905137 0.425119 0
    outer loop
      vertex 205.703 6.10105 10
      vertex 205.436 6.66953 -10
      vertex 205.436 6.66953 10
    endloop
  endfacet
  facet normal 0.905137 0.425119 0
    outer loop
      vertex 205.436 6.66953 -10
      vertex 205.703 6.10105 10
      vertex 205.703 6.10105 -10
    endloop
  endfacet
  facet normal 0.886254 0.463199 0
    outer loop
      vertex 205.436 6.66953 10
      vertex 205.145 7.22631 -10
      vertex 205.145 7.22631 10
    endloop
  endfacet
  facet normal 0.886254 0.463199 0
    outer loop
      vertex 205.145 7.22631 -10
      vertex 205.436 6.66953 10
      vertex 205.436 6.66953 -10
    endloop
  endfacet
  facet normal 0.86543 0.50103 0
    outer loop
      vertex 205.145 7.22631 10
      vertex 204.83 7.77041 -10
      vertex 204.83 7.77041 10
    endloop
  endfacet
  facet normal 0.86543 0.50103 0
    outer loop
      vertex 204.83 7.77041 -10
      vertex 205.145 7.22631 10
      vertex 205.145 7.22631 -10
    endloop
  endfacet
  facet normal 0.844789 0.5351 0
    outer loop
      vertex 204.83 7.77041 10
      vertex 204.494 8.30087 -10
      vertex 204.494 8.30087 10
    endloop
  endfacet
  facet normal 0.844789 0.5351 0
    outer loop
      vertex 204.494 8.30087 -10
      vertex 204.83 7.77041 10
      vertex 204.83 7.77041 -10
    endloop
  endfacet
  facet normal 0.820826 0.571178 0
    outer loop
      vertex 204.494 8.30087 10
      vertex 204.135 8.81678 -10
      vertex 204.135 8.81678 10
    endloop
  endfacet
  facet normal 0.820826 0.571178 0
    outer loop
      vertex 204.135 8.81678 -10
      vertex 204.494 8.30087 10
      vertex 204.494 8.30087 -10
    endloop
  endfacet
  facet normal 0.796418 0.604746 0
    outer loop
      vertex 204.135 8.81678 10
      vertex 203.755 9.31722 -10
      vertex 203.755 9.31722 10
    endloop
  endfacet
  facet normal 0.796418 0.604746 0
    outer loop
      vertex 203.755 9.31722 -10
      vertex 204.135 8.81678 10
      vertex 204.135 8.81678 -10
    endloop
  endfacet
  facet normal 0.770884 0.636976 0
    outer loop
      vertex 203.755 9.31722 10
      vertex 203.355 9.80131 -10
      vertex 203.355 9.80131 10
    endloop
  endfacet
  facet normal 0.770884 0.636976 0
    outer loop
      vertex 203.355 9.80131 -10
      vertex 203.755 9.31722 10
      vertex 203.755 9.31722 -10
    endloop
  endfacet
  facet normal 0.743453 0.668788 0
    outer loop
      vertex 203.355 9.80131 10
      vertex 202.935 10.2682 -10
      vertex 202.935 10.2682 10
    endloop
  endfacet
  facet normal 0.743453 0.668788 0
    outer loop
      vertex 202.935 10.2682 -10
      vertex 203.355 9.80131 10
      vertex 203.355 9.80131 -10
    endloop
  endfacet
  facet normal 0.714151 0.699992 0
    outer loop
      vertex 202.935 10.2682 10
      vertex 202.495 10.7171 -10
      vertex 202.495 10.7171 10
    endloop
  endfacet
  facet normal 0.714151 0.699992 0
    outer loop
      vertex 202.495 10.7171 -10
      vertex 202.935 10.2682 10
      vertex 202.935 10.2682 -10
    endloop
  endfacet
  facet normal 0.684555 0.728961 -0
    outer loop
      vertex 202.495 10.7171 -10
      vertex 202.037 11.1472 10
      vertex 202.495 10.7171 10
    endloop
  endfacet
  facet normal 0.684555 0.728961 0
    outer loop
      vertex 202.037 11.1472 10
      vertex 202.495 10.7171 -10
      vertex 202.037 11.1472 -10
    endloop
  endfacet
  facet normal 0.653081 0.757288 -0
    outer loop
      vertex 202.037 11.1472 -10
      vertex 201.561 11.5577 10
      vertex 202.037 11.1472 10
    endloop
  endfacet
  facet normal 0.653081 0.757288 0
    outer loop
      vertex 201.561 11.5577 10
      vertex 202.037 11.1472 -10
      vertex 201.561 11.5577 -10
    endloop
  endfacet
  facet normal 0.621388 0.783503 -0
    outer loop
      vertex 201.561 11.5577 -10
      vertex 201.069 11.9479 10
      vertex 201.561 11.5577 10
    endloop
  endfacet
  facet normal 0.621388 0.783503 0
    outer loop
      vertex 201.069 11.9479 10
      vertex 201.561 11.5577 -10
      vertex 201.069 11.9479 -10
    endloop
  endfacet
  facet normal 0.588011 0.808853 -0
    outer loop
      vertex 201.069 11.9479 -10
      vertex 200.561 12.3172 10
      vertex 201.069 11.9479 10
    endloop
  endfacet
  facet normal 0.588011 0.808853 0
    outer loop
      vertex 200.561 12.3172 10
      vertex 201.069 11.9479 -10
      vertex 200.561 12.3172 -10
    endloop
  endfacet
  facet normal 0.552901 0.833247 -0
    outer loop
      vertex 200.561 12.3172 -10
      vertex 200.037 12.6649 10
      vertex 200.561 12.3172 10
    endloop
  endfacet
  facet normal 0.552901 0.833247 0
    outer loop
      vertex 200.037 12.6649 10
      vertex 200.561 12.3172 -10
      vertex 200.037 12.6649 -10
    endloop
  endfacet
  facet normal 0.518355 0.855166 -0
    outer loop
      vertex 200.037 12.6649 -10
      vertex 199.5 12.9904 10
      vertex 200.037 12.6649 10
    endloop
  endfacet
  facet normal 0.518355 0.855166 0
    outer loop
      vertex 199.5 12.9904 10
      vertex 200.037 12.6649 -10
      vertex 199.5 12.9904 -10
    endloop
  endfacet
  facet normal 0.481491 0.876451 -0
    outer loop
      vertex 199.5 12.9904 -10
      vertex 198.949 13.2931 10
      vertex 199.5 12.9904 10
    endloop
  endfacet
  facet normal 0.481491 0.876451 0
    outer loop
      vertex 198.949 13.2931 10
      vertex 199.5 12.9904 -10
      vertex 198.949 13.2931 -10
    endloop
  endfacet
  facet normal 0.445045 0.895508 -0
    outer loop
      vertex 198.949 13.2931 -10
      vertex 198.387 13.5724 10
      vertex 198.949 13.2931 10
    endloop
  endfacet
  facet normal 0.445045 0.895508 0
    outer loop
      vertex 198.387 13.5724 10
      vertex 198.949 13.2931 -10
      vertex 198.387 13.5724 -10
    endloop
  endfacet
  facet normal 0.406655 0.913582 -0
    outer loop
      vertex 198.387 13.5724 -10
      vertex 197.813 13.8279 10
      vertex 198.387 13.5724 10
    endloop
  endfacet
  facet normal 0.406655 0.913582 0
    outer loop
      vertex 197.813 13.8279 10
      vertex 198.387 13.5724 -10
      vertex 197.813 13.8279 -10
    endloop
  endfacet
  facet normal 0.368232 0.929734 -0
    outer loop
      vertex 197.813 13.8279 -10
      vertex 197.229 14.0592 10
      vertex 197.813 13.8279 10
    endloop
  endfacet
  facet normal 0.368232 0.929734 0
    outer loop
      vertex 197.229 14.0592 10
      vertex 197.813 13.8279 -10
      vertex 197.229 14.0592 -10
    endloop
  endfacet
  facet normal 0.328508 0.944501 -0
    outer loop
      vertex 197.229 14.0592 -10
      vertex 196.635 14.2658 10
      vertex 197.229 14.0592 10
    endloop
  endfacet
  facet normal 0.328508 0.944501 0
    outer loop
      vertex 196.635 14.2658 10
      vertex 197.229 14.0592 -10
      vertex 196.635 14.2658 -10
    endloop
  endfacet
  facet normal 0.289247 0.957255 -0
    outer loop
      vertex 196.635 14.2658 -10
      vertex 196.034 14.4474 10
      vertex 196.635 14.2658 10
    endloop
  endfacet
  facet normal 0.289247 0.957255 0
    outer loop
      vertex 196.034 14.4474 10
      vertex 196.635 14.2658 -10
      vertex 196.034 14.4474 -10
    endloop
  endfacet
  facet normal 0.248593 0.968608 -0
    outer loop
      vertex 196.034 14.4474 -10
      vertex 195.425 14.6037 10
      vertex 196.034 14.4474 10
    endloop
  endfacet
  facet normal 0.248593 0.968608 0
    outer loop
      vertex 195.425 14.6037 10
      vertex 196.034 14.4474 -10
      vertex 195.425 14.6037 -10
    endloop
  endfacet
  facet normal 0.208049 0.978118 -0
    outer loop
      vertex 195.425 14.6037 -10
      vertex 194.811 14.7343 10
      vertex 195.425 14.6037 10
    endloop
  endfacet
  facet normal 0.208049 0.978118 0
    outer loop
      vertex 194.811 14.7343 10
      vertex 195.425 14.6037 -10
      vertex 194.811 14.7343 -10
    endloop
  endfacet
  facet normal 0.166668 0.986013 -0
    outer loop
      vertex 194.811 14.7343 -10
      vertex 194.191 14.8391 10
      vertex 194.811 14.7343 10
    endloop
  endfacet
  facet normal 0.166668 0.986013 0
    outer loop
      vertex 194.191 14.8391 10
      vertex 194.811 14.7343 -10
      vertex 194.191 14.8391 -10
    endloop
  endfacet
  facet normal 0.125328 0.992115 -0
    outer loop
      vertex 194.191 14.8391 -10
      vertex 193.568 14.9178 10
      vertex 194.191 14.8391 10
    endloop
  endfacet
  facet normal 0.125328 0.992115 0
    outer loop
      vertex 193.568 14.9178 10
      vertex 194.191 14.8391 -10
      vertex 193.568 14.9178 -10
    endloop
  endfacet
  facet normal 0.0837305 0.996488 -0
    outer loop
      vertex 193.568 14.9178 -10
      vertex 192.942 14.9704 10
      vertex 193.568 14.9178 10
    endloop
  endfacet
  facet normal 0.0837305 0.996488 0
    outer loop
      vertex 192.942 14.9704 10
      vertex 193.568 14.9178 -10
      vertex 192.942 14.9704 -10
    endloop
  endfacet
  facet normal 0.0418423 0.999124 -0
    outer loop
      vertex 192.942 14.9704 -10
      vertex 192.314 14.9967 10
      vertex 192.942 14.9704 10
    endloop
  endfacet
  facet normal 0.0418423 0.999124 0
    outer loop
      vertex 192.314 14.9967 10
      vertex 192.942 14.9704 -10
      vertex 192.314 14.9967 -10
    endloop
  endfacet
  facet normal 0 1 -0
    outer loop
      vertex 192.314 14.9967 -10
      vertex 191.686 14.9967 10
      vertex 192.314 14.9967 10
    endloop
  endfacet
  facet normal 0 1 0
    outer loop
      vertex 191.686 14.9967 10
      vertex 192.314 14.9967 -10
      vertex 191.686 14.9967 -10
    endloop
  endfacet
  facet normal -0.0418423 0.999124 0
    outer loop
      vertex 191.686 14.9967 -10
      vertex 191.058 14.9704 10
      vertex 191.686 14.9967 10
    endloop
  endfacet
  facet normal -0.0418423 0.999124 0
    outer loop
      vertex 191.058 14.9704 10
      vertex 191.686 14.9967 -10
      vertex 191.058 14.9704 -10
    endloop
  endfacet
  facet normal -0.0837305 0.996488 0
    outer loop
      vertex 191.058 14.9704 -10
      vertex 190.432 14.9178 10
      vertex 191.058 14.9704 10
    endloop
  endfacet
  facet normal -0.0837305 0.996488 0
    outer loop
      vertex 190.432 14.9178 10
      vertex 191.058 14.9704 -10
      vertex 190.432 14.9178 -10
    endloop
  endfacet
  facet normal -0.125328 0.992115 0
    outer loop
      vertex 190.432 14.9178 -10
      vertex 189.809 14.8391 10
      vertex 190.432 14.9178 10
    endloop
  endfacet
  facet normal -0.125328 0.992115 0
    outer loop
      vertex 189.809 14.8391 10
      vertex 190.432 14.9178 -10
      vertex 189.809 14.8391 -10
    endloop
  endfacet
  facet normal -0.166668 0.986013 0
    outer loop
      vertex 189.809 14.8391 -10
      vertex 189.189 14.7343 10
      vertex 189.809 14.8391 10
    endloop
  endfacet
  facet normal -0.166668 0.986013 0
    outer loop
      vertex 189.189 14.7343 10
      vertex 189.809 14.8391 -10
      vertex 189.189 14.7343 -10
    endloop
  endfacet
  facet normal -0.208049 0.978118 0
    outer loop
      vertex 189.189 14.7343 -10
      vertex 188.575 14.6037 10
      vertex 189.189 14.7343 10
    endloop
  endfacet
  facet normal -0.208049 0.978118 0
    outer loop
      vertex 188.575 14.6037 10
      vertex 189.189 14.7343 -10
      vertex 188.575 14.6037 -10
    endloop
  endfacet
  facet normal -0.248593 0.968608 0
    outer loop
      vertex 188.575 14.6037 -10
      vertex 187.966 14.4474 10
      vertex 188.575 14.6037 10
    endloop
  endfacet
  facet normal -0.248593 0.968608 0
    outer loop
      vertex 187.966 14.4474 10
      vertex 188.575 14.6037 -10
      vertex 187.966 14.4474 -10
    endloop
  endfacet
  facet normal -0.289247 0.957255 0
    outer loop
      vertex 187.966 14.4474 -10
      vertex 187.365 14.2658 10
      vertex 187.966 14.4474 10
    endloop
  endfacet
  facet normal -0.289247 0.957255 0
    outer loop
      vertex 187.365 14.2658 10
      vertex 187.966 14.4474 -10
      vertex 187.365 14.2658 -10
    endloop
  endfacet
  facet normal -0.328508 0.944501 0
    outer loop
      vertex 187.365 14.2658 -10
      vertex 186.771 14.0592 10
      vertex 187.365 14.2658 10
    endloop
  endfacet
  facet normal -0.328508 0.944501 0
    outer loop
      vertex 186.771 14.0592 10
      vertex 187.365 14.2658 -10
      vertex 186.771 14.0592 -10
    endloop
  endfacet
  facet normal -0.368232 0.929734 0
    outer loop
      vertex 186.771 14.0592 -10
      vertex 186.187 13.8279 10
      vertex 186.771 14.0592 10
    endloop
  endfacet
  facet normal -0.368232 0.929734 0
    outer loop
      vertex 186.187 13.8279 10
      vertex 186.771 14.0592 -10
      vertex 186.187 13.8279 -10
    endloop
  endfacet
  facet normal -0.406655 0.913582 0
    outer loop
      vertex 186.187 13.8279 -10
      vertex 185.613 13.5724 10
      vertex 186.187 13.8279 10
    endloop
  endfacet
  facet normal -0.406655 0.913582 0
    outer loop
      vertex 185.613 13.5724 10
      vertex 186.187 13.8279 -10
      vertex 185.613 13.5724 -10
    endloop
  endfacet
  facet normal -0.445045 0.895508 0
    outer loop
      vertex 185.613 13.5724 -10
      vertex 185.051 13.2931 10
      vertex 185.613 13.5724 10
    endloop
  endfacet
  facet normal -0.445045 0.895508 0
    outer loop
      vertex 185.051 13.2931 10
      vertex 185.613 13.5724 -10
      vertex 185.051 13.2931 -10
    endloop
  endfacet
  facet normal -0.481491 0.876451 0
    outer loop
      vertex 185.051 13.2931 -10
      vertex 184.5 12.9904 10
      vertex 185.051 13.2931 10
    endloop
  endfacet
  facet normal -0.481491 0.876451 0
    outer loop
      vertex 184.5 12.9904 10
      vertex 185.051 13.2931 -10
      vertex 184.5 12.9904 -10
    endloop
  endfacet
  facet normal -0.518355 0.855166 0
    outer loop
      vertex 184.5 12.9904 -10
      vertex 183.963 12.6649 10
      vertex 184.5 12.9904 10
    endloop
  endfacet
  facet normal -0.518355 0.855166 0
    outer loop
      vertex 183.963 12.6649 10
      vertex 184.5 12.9904 -10
      vertex 183.963 12.6649 -10
    endloop
  endfacet
  facet normal -0.552901 0.833247 0
    outer loop
      vertex 183.963 12.6649 -10
      vertex 183.439 12.3172 10
      vertex 183.963 12.6649 10
    endloop
  endfacet
  facet normal -0.552901 0.833247 0
    outer loop
      vertex 183.439 12.3172 10
      vertex 183.963 12.6649 -10
      vertex 183.439 12.3172 -10
    endloop
  endfacet
  facet normal -0.588011 0.808853 0
    outer loop
      vertex 183.439 12.3172 -10
      vertex 182.931 11.9479 10
      vertex 183.439 12.3172 10
    endloop
  endfacet
  facet normal -0.588011 0.808853 0
    outer loop
      vertex 182.931 11.9479 10
      vertex 183.439 12.3172 -10
      vertex 182.931 11.9479 -10
    endloop
  endfacet
  facet normal -0.621388 0.783503 0
    outer loop
      vertex 182.931 11.9479 -10
      vertex 182.439 11.5577 10
      vertex 182.931 11.9479 10
    endloop
  endfacet
  facet normal -0.621388 0.783503 0
    outer loop
      vertex 182.439 11.5577 10
      vertex 182.931 11.9479 -10
      vertex 182.439 11.5577 -10
    endloop
  endfacet
  facet normal -0.653081 0.757288 0
    outer loop
      vertex 182.439 11.5577 -10
      vertex 181.963 11.1472 10
      vertex 182.439 11.5577 10
    endloop
  endfacet
  facet normal -0.653081 0.757288 0
    outer loop
      vertex 181.963 11.1472 10
      vertex 182.439 11.5577 -10
      vertex 181.963 11.1472 -10
    endloop
  endfacet
  facet normal -0.684555 0.728961 0
    outer loop
      vertex 181.963 11.1472 -10
      vertex 181.505 10.7171 10
      vertex 181.963 11.1472 10
    endloop
  endfacet
  facet normal -0.684555 0.728961 0
    outer loop
      vertex 181.505 10.7171 10
      vertex 181.963 11.1472 -10
      vertex 181.505 10.7171 -10
    endloop
  endfacet
  facet normal -0.714151 0.699992 0
    outer loop
      vertex 181.065 10.2682 -10
      vertex 181.505 10.7171 10
      vertex 181.505 10.7171 -10
    endloop
  endfacet
  facet normal -0.714151 0.699992 0
    outer loop
      vertex 181.505 10.7171 10
      vertex 181.065 10.2682 -10
      vertex 181.065 10.2682 10
    endloop
  endfacet
  facet normal -0.743453 0.668788 0
    outer loop
      vertex 180.645 9.80131 -10
      vertex 181.065 10.2682 10
      vertex 181.065 10.2682 -10
    endloop
  endfacet
  facet normal -0.743453 0.668788 0
    outer loop
      vertex 181.065 10.2682 10
      vertex 180.645 9.80131 -10
      vertex 180.645 9.80131 10
    endloop
  endfacet
  facet normal -0.770884 0.636976 0
    outer loop
      vertex 180.245 9.31722 -10
      vertex 180.645 9.80131 10
      vertex 180.645 9.80131 -10
    endloop
  endfacet
  facet normal -0.770884 0.636976 0
    outer loop
      vertex 180.645 9.80131 10
      vertex 180.245 9.31722 -10
      vertex 180.245 9.31722 10
    endloop
  endfacet
  facet normal -0.796418 0.604746 0
    outer loop
      vertex 179.865 8.81678 -10
      vertex 180.245 9.31722 10
      vertex 180.245 9.31722 -10
    endloop
  endfacet
  facet normal -0.796418 0.604746 0
    outer loop
      vertex 180.245 9.31722 10
      vertex 179.865 8.81678 -10
      vertex 179.865 8.81678 10
    endloop
  endfacet
  facet normal -0.820826 0.571178 0
    outer loop
      vertex 179.506 8.30087 -10
      vertex 179.865 8.81678 10
      vertex 179.865 8.81678 -10
    endloop
  endfacet
  facet normal -0.820826 0.571178 0
    outer loop
      vertex 179.865 8.81678 10
      vertex 179.506 8.30087 -10
      vertex 179.506 8.30087 10
    endloop
  endfacet
  facet normal -0.844789 0.5351 0
    outer loop
      vertex 179.17 7.77041 -10
      vertex 179.506 8.30087 10
      vertex 179.506 8.30087 -10
    endloop
  endfacet
  facet normal -0.844789 0.5351 0
    outer loop
      vertex 179.506 8.30087 10
      vertex 179.17 7.77041 -10
      vertex 179.17 7.77041 10
    endloop
  endfacet
  facet normal -0.86543 0.50103 0
    outer loop
      vertex 178.855 7.22631 -10
      vertex 179.17 7.77041 10
      vertex 179.17 7.77041 -10
    endloop
  endfacet
  facet normal -0.86543 0.50103 0
    outer loop
      vertex 179.17 7.77041 10
      vertex 178.855 7.22631 -10
      vertex 178.855 7.22631 10
    endloop
  endfacet
  facet normal -0.886254 0.463199 0
    outer loop
      vertex 178.564 6.66953 -10
      vertex 178.855 7.22631 10
      vertex 178.855 7.22631 -10
    endloop
  endfacet
  facet normal -0.886254 0.463199 0
    outer loop
      vertex 178.855 7.22631 10
      vertex 178.564 6.66953 -10
      vertex 178.564 6.66953 10
    endloop
  endfacet
  facet normal -0.905137 0.425119 0
    outer loop
      vertex 178.297 6.10105 -10
      vertex 178.564 6.66953 10
      vertex 178.564 6.66953 -10
    endloop
  endfacet
  facet normal -0.905137 0.425119 0
    outer loop
      vertex 178.564 6.66953 10
      vertex 178.297 6.10105 -10
      vertex 178.297 6.10105 10
    endloop
  endfacet
  facet normal -0.921559 0.388239 0
    outer loop
      vertex 178.053 5.52187 -10
      vertex 178.297 6.10105 10
      vertex 178.297 6.10105 -10
    endloop
  endfacet
  facet normal -0.921559 0.388239 0
    outer loop
      vertex 178.297 6.10105 10
      vertex 178.053 5.52187 -10
      vertex 178.053 5.52187 10
    endloop
  endfacet
  facet normal -0.937281 0.348574 0
    outer loop
      vertex 177.834 4.933 -10
      vertex 178.053 5.52187 10
      vertex 178.053 5.52187 -10
    endloop
  endfacet
  facet normal -0.937281 0.348574 0
    outer loop
      vertex 178.053 5.52187 10
      vertex 177.834 4.933 -10
      vertex 177.834 4.933 10
    endloop
  endfacet
  facet normal -0.951125 0.308807 0
    outer loop
      vertex 177.64 4.33548 -10
      vertex 177.834 4.933 10
      vertex 177.834 4.933 -10
    endloop
  endfacet
  facet normal -0.951125 0.308807 0
    outer loop
      vertex 177.834 4.933 10
      vertex 177.64 4.33548 -10
      vertex 177.64 4.33548 10
    endloop
  endfacet
  facet normal -0.963144 0.268986 0
    outer loop
      vertex 177.471 3.73035 -10
      vertex 177.64 4.33548 10
      vertex 177.64 4.33548 -10
    endloop
  endfacet
  facet normal -0.963144 0.268986 0
    outer loop
      vertex 177.64 4.33548 10
      vertex 177.471 3.73035 -10
      vertex 177.471 3.73035 10
    endloop
  endfacet
  facet normal -0.973744 0.227648 0
    outer loop
      vertex 177.328 3.11868 -10
      vertex 177.471 3.73035 10
      vertex 177.471 3.73035 -10
    endloop
  endfacet
  facet normal -0.973744 0.227648 0
    outer loop
      vertex 177.471 3.73035 10
      vertex 177.328 3.11868 -10
      vertex 177.328 3.11868 10
    endloop
  endfacet
  facet normal -0.982207 0.1878 0
    outer loop
      vertex 177.21 2.50153 -10
      vertex 177.328 3.11868 10
      vertex 177.328 3.11868 -10
    endloop
  endfacet
  facet normal -0.982207 0.1878 0
    outer loop
      vertex 177.328 3.11868 10
      vertex 177.21 2.50153 -10
      vertex 177.21 2.50153 10
    endloop
  endfacet
  facet normal -0.989222 0.146426 0
    outer loop
      vertex 177.118 1.88 -10
      vertex 177.21 2.50153 10
      vertex 177.21 2.50153 -10
    endloop
  endfacet
  facet normal -0.989222 0.146426 0
    outer loop
      vertex 177.21 2.50153 10
      vertex 177.118 1.88 -10
      vertex 177.118 1.88 10
    endloop
  endfacet
  facet normal -0.994633 0.10347 0
    outer loop
      vertex 177.053 1.25517 -10
      vertex 177.118 1.88 10
      vertex 177.118 1.88 -10
    endloop
  endfacet
  facet normal -0.994633 0.10347 0
    outer loop
      vertex 177.118 1.88 10
      vertex 177.053 1.25517 -10
      vertex 177.053 1.25517 10
    endloop
  endfacet
  facet normal -0.997971 0.0636629 0
    outer loop
      vertex 177.013 0.628135 -10
      vertex 177.053 1.25517 10
      vertex 177.053 1.25517 -10
    endloop
  endfacet
  facet normal -0.997971 0.0636629 0
    outer loop
      vertex 177.053 1.25517 10
      vertex 177.013 0.628135 -10
      vertex 177.013 0.628135 10
    endloop
  endfacet
  facet normal -0.999786 0.0206918 0
    outer loop
      vertex 177 0 -10
      vertex 177.013 0.628135 10
      vertex 177.013 0.628135 -10
    endloop
  endfacet
  facet normal -0.999786 0.0206918 0
    outer loop
      vertex 177.013 0.628135 10
      vertex 177 0 -10
      vertex 177 0 10
    endloop
  endfacet
  facet normal -0.999786 -0.0206918 0
    outer loop
      vertex 177.013 -0.628135 -10
      vertex 177 0 10
      vertex 177 0 -10
    endloop
  endfacet
  facet normal -0.999786 -0.0206918 0
    outer loop
      vertex 177 0 10
      vertex 177.013 -0.628135 -10
      vertex 177.013 -0.628135 10
    endloop
  endfacet
  facet normal -0.997971 -0.0636629 0
    outer loop
      vertex 177.053 -1.25517 -10
      vertex 177.013 -0.628135 10
      vertex 177.013 -0.628135 -10
    endloop
  endfacet
  facet normal -0.997971 -0.0636629 0
    outer loop
      vertex 177.013 -0.628135 10
      vertex 177.053 -1.25517 -10
      vertex 177.053 -1.25517 10
    endloop
  endfacet
  facet normal -0.994633 -0.10347 0
    outer loop
      vertex 177.118 -1.88 -10
      vertex 177.053 -1.25517 10
      vertex 177.053 -1.25517 -10
    endloop
  endfacet
  facet normal -0.994633 -0.10347 0
    outer loop
      vertex 177.053 -1.25517 10
      vertex 177.118 -1.88 -10
      vertex 177.118 -1.88 10
    endloop
  endfacet
  facet normal -0.989222 -0.146426 0
    outer loop
      vertex 177.21 -2.50153 -10
      vertex 177.118 -1.88 10
      vertex 177.118 -1.88 -10
    endloop
  endfacet
  facet normal -0.989222 -0.146426 0
    outer loop
      vertex 177.118 -1.88 10
      vertex 177.21 -2.50153 -10
      vertex 177.21 -2.50153 10
    endloop
  endfacet
  facet normal -0.982207 -0.1878 0
    outer loop
      vertex 177.328 -3.11868 -10
      vertex 177.21 -2.50153 10
      vertex 177.21 -2.50153 -10
    endloop
  endfacet
  facet normal -0.982207 -0.1878 0
    outer loop
      vertex 177.21 -2.50153 10
      vertex 177.328 -3.11868 -10
      vertex 177.328 -3.11868 10
    endloop
  endfacet
  facet normal -0.973744 -0.227648 0
    outer loop
      vertex 177.471 -3.73035 -10
      vertex 177.328 -3.11868 10
      vertex 177.328 -3.11868 -10
    endloop
  endfacet
  facet normal -0.973744 -0.227648 0
    outer loop
      vertex 177.328 -3.11868 10
      vertex 177.471 -3.73035 -10
      vertex 177.471 -3.73035 10
    endloop
  endfacet
  facet normal -0.963144 -0.268986 0
    outer loop
      vertex 177.64 -4.33548 -10
      vertex 177.471 -3.73035 10
      vertex 177.471 -3.73035 -10
    endloop
  endfacet
  facet normal -0.963144 -0.268986 0
    outer loop
      vertex 177.471 -3.73035 10
      vertex 177.64 -4.33548 -10
      vertex 177.64 -4.33548 10
    endloop
  endfacet
  facet normal -0.951125 -0.308807 0
    outer loop
      vertex 177.834 -4.933 -10
      vertex 177.64 -4.33548 10
      vertex 177.64 -4.33548 -10
    endloop
  endfacet
  facet normal -0.951125 -0.308807 0
    outer loop
      vertex 177.64 -4.33548 10
      vertex 177.834 -4.933 -10
      vertex 177.834 -4.933 10
    endloop
  endfacet
  facet normal -0.937281 -0.348574 0
    outer loop
      vertex 178.053 -5.52187 -10
      vertex 177.834 -4.933 10
      vertex 177.834 -4.933 -10
    endloop
  endfacet
  facet normal -0.937281 -0.348574 0
    outer loop
      vertex 177.834 -4.933 10
      vertex 178.053 -5.52187 -10
      vertex 178.053 -5.52187 10
    endloop
  endfacet
  facet normal -0.921559 -0.388239 0
    outer loop
      vertex 178.297 -6.10105 -10
      vertex 178.053 -5.52187 10
      vertex 178.053 -5.52187 -10
    endloop
  endfacet
  facet normal -0.921559 -0.388239 0
    outer loop
      vertex 178.053 -5.52187 10
      vertex 178.297 -6.10105 -10
      vertex 178.297 -6.10105 10
    endloop
  endfacet
  facet normal -0.905137 -0.425119 0
    outer loop
      vertex 178.564 -6.66953 -10
      vertex 178.297 -6.10105 10
      vertex 178.297 -6.10105 -10
    endloop
  endfacet
  facet normal -0.905137 -0.425119 0
    outer loop
      vertex 178.297 -6.10105 10
      vertex 178.564 -6.66953 -10
      vertex 178.564 -6.66953 10
    endloop
  endfacet
  facet normal -0.886254 -0.463199 0
    outer loop
      vertex 178.855 -7.22631 -10
      vertex 178.564 -6.66953 10
      vertex 178.564 -6.66953 -10
    endloop
  endfacet
  facet normal -0.886254 -0.463199 0
    outer loop
      vertex 178.564 -6.66953 10
      vertex 178.855 -7.22631 -10
      vertex 178.855 -7.22631 10
    endloop
  endfacet
  facet normal -0.86543 -0.50103 0
    outer loop
      vertex 179.17 -7.77041 -10
      vertex 178.855 -7.22631 10
      vertex 178.855 -7.22631 -10
    endloop
  endfacet
  facet normal -0.86543 -0.50103 0
    outer loop
      vertex 178.855 -7.22631 10
      vertex 179.17 -7.77041 -10
      vertex 179.17 -7.77041 10
    endloop
  endfacet
  facet normal -0.844789 -0.5351 0
    outer loop
      vertex 179.506 -8.30087 -10
      vertex 179.17 -7.77041 10
      vertex 179.17 -7.77041 -10
    endloop
  endfacet
  facet normal -0.844789 -0.5351 0
    outer loop
      vertex 179.17 -7.77041 10
      vertex 179.506 -8.30087 -10
      vertex 179.506 -8.30087 10
    endloop
  endfacet
  facet normal -0.820826 -0.571178 0
    outer loop
      vertex 179.865 -8.81678 -10
      vertex 179.506 -8.30087 10
      vertex 179.506 -8.30087 -10
    endloop
  endfacet
  facet normal -0.820826 -0.571178 0
    outer loop
      vertex 179.506 -8.30087 10
      vertex 179.865 -8.81678 -10
      vertex 179.865 -8.81678 10
    endloop
  endfacet
  facet normal -0.796418 -0.604746 0
    outer loop
      vertex 180.245 -9.31722 -10
      vertex 179.865 -8.81678 10
      vertex 179.865 -8.81678 -10
    endloop
  endfacet
  facet normal -0.796418 -0.604746 0
    outer loop
      vertex 179.865 -8.81678 10
      vertex 180.245 -9.31722 -10
      vertex 180.245 -9.31722 10
    endloop
  endfacet
  facet normal -0.770884 -0.636976 0
    outer loop
      vertex 180.645 -9.80131 -10
      vertex 180.245 -9.31722 10
      vertex 180.245 -9.31722 -10
    endloop
  endfacet
  facet normal -0.770884 -0.636976 0
    outer loop
      vertex 180.245 -9.31722 10
      vertex 180.645 -9.80131 -10
      vertex 180.645 -9.80131 10
    endloop
  endfacet
  facet normal -0.743453 -0.668788 0
    outer loop
      vertex 181.065 -10.2682 -10
      vertex 180.645 -9.80131 10
      vertex 180.645 -9.80131 -10
    endloop
  endfacet
  facet normal -0.743453 -0.668788 0
    outer loop
      vertex 180.645 -9.80131 10
      vertex 181.065 -10.2682 -10
      vertex 181.065 -10.2682 10
    endloop
  endfacet
  facet normal -0.714151 -0.699992 0
    outer loop
      vertex 181.505 -10.7171 -10
      vertex 181.065 -10.2682 10
      vertex 181.065 -10.2682 -10
    endloop
  endfacet
  facet normal -0.714151 -0.699992 0
    outer loop
      vertex 181.065 -10.2682 10
      vertex 181.505 -10.7171 -10
      vertex 181.505 -10.7171 10
    endloop
  endfacet
  facet normal -0.684555 -0.728961 0
    outer loop
      vertex 181.505 -10.7171 -10
      vertex 181.963 -11.1472 10
      vertex 181.505 -10.7171 10
    endloop
  endfacet
  facet normal -0.684555 -0.728961 -0
    outer loop
      vertex 181.963 -11.1472 10
      vertex 181.505 -10.7171 -10
      vertex 181.963 -11.1472 -10
    endloop
  endfacet
  facet normal -0.653081 -0.757288 0
    outer loop
      vertex 181.963 -11.1472 -10
      vertex 182.439 -11.5577 10
      vertex 181.963 -11.1472 10
    endloop
  endfacet
  facet normal -0.653081 -0.757288 -0
    outer loop
      vertex 182.439 -11.5577 10
      vertex 181.963 -11.1472 -10
      vertex 182.439 -11.5577 -10
    endloop
  endfacet
  facet normal -0.621388 -0.783503 0
    outer loop
      vertex 182.439 -11.5577 -10
      vertex 182.931 -11.9479 10
      vertex 182.439 -11.5577 10
    endloop
  endfacet
  facet normal -0.621388 -0.783503 -0
    outer loop
      vertex 182.931 -11.9479 10
      vertex 182.439 -11.5577 -10
      vertex 182.931 -11.9479 -10
    endloop
  endfacet
  facet normal -0.588011 -0.808853 0
    outer loop
      vertex 182.931 -11.9479 -10
      vertex 183.439 -12.3172 10
      vertex 182.931 -11.9479 10
    endloop
  endfacet
  facet normal -0.588011 -0.808853 -0
    outer loop
      vertex 183.439 -12.3172 10
      vertex 182.931 -11.9479 -10
      vertex 183.439 -12.3172 -10
    endloop
  endfacet
  facet normal -0.552901 -0.833247 0
    outer loop
      vertex 183.439 -12.3172 -10
      vertex 183.963 -12.6649 10
      vertex 183.439 -12.3172 10
    endloop
  endfacet
  facet normal -0.552901 -0.833247 -0
    outer loop
      vertex 183.963 -12.6649 10
      vertex 183.439 -12.3172 -10
      vertex 183.963 -12.6649 -10
    endloop
  endfacet
  facet normal -0.518355 -0.855166 0
    outer loop
      vertex 183.963 -12.6649 -10
      vertex 184.5 -12.9904 10
      vertex 183.963 -12.6649 10
    endloop
  endfacet
  facet normal -0.518355 -0.855166 -0
    outer loop
      vertex 184.5 -12.9904 10
      vertex 183.963 -12.6649 -10
      vertex 184.5 -12.9904 -10
    endloop
  endfacet
  facet normal -0.481491 -0.876451 0
    outer loop
      vertex 184.5 -12.9904 -10
      vertex 185.051 -13.2931 10
      vertex 184.5 -12.9904 10
    endloop
  endfacet
  facet normal -0.481491 -0.876451 -0
    outer loop
      vertex 185.051 -13.2931 10
      vertex 184.5 -12.9904 -10
      vertex 185.051 -13.2931 -10
    endloop
  endfacet
  facet normal -0.445045 -0.895508 0
    outer loop
      vertex 185.051 -13.2931 -10
      vertex 185.613 -13.5724 10
      vertex 185.051 -13.2931 10
    endloop
  endfacet
  facet normal -0.445045 -0.895508 -0
    outer loop
      vertex 185.613 -13.5724 10
      vertex 185.051 -13.2931 -10
      vertex 185.613 -13.5724 -10
    endloop
  endfacet
  facet normal -0.406655 -0.913582 0
    outer loop
      vertex 185.613 -13.5724 -10
      vertex 186.187 -13.8279 10
      vertex 185.613 -13.5724 10
    endloop
  endfacet
  facet normal -0.406655 -0.913582 -0
    outer loop
      vertex 186.187 -13.8279 10
      vertex 185.613 -13.5724 -10
      vertex 186.187 -13.8279 -10
    endloop
  endfacet
  facet normal -0.368232 -0.929734 0
    outer loop
      vertex 186.187 -13.8279 -10
      vertex 186.771 -14.0592 10
      vertex 186.187 -13.8279 10
    endloop
  endfacet
  facet normal -0.368232 -0.929734 -0
    outer loop
      vertex 186.771 -14.0592 10
      vertex 186.187 -13.8279 -10
      vertex 186.771 -14.0592 -10
    endloop
  endfacet
  facet normal -0.328508 -0.944501 0
    outer loop
      vertex 186.771 -14.0592 -10
      vertex 187.365 -14.2658 10
      vertex 186.771 -14.0592 10
    endloop
  endfacet
  facet normal -0.328508 -0.944501 -0
    outer loop
      vertex 187.365 -14.2658 10
      vertex 186.771 -14.0592 -10
      vertex 187.365 -14.2658 -10
    endloop
  endfacet
  facet normal -0.289247 -0.957255 0
    outer loop
      vertex 187.365 -14.2658 -10
      vertex 187.966 -14.4474 10
      vertex 187.365 -14.2658 10
    endloop
  endfacet
  facet normal -0.289247 -0.957255 -0
    outer loop
      vertex 187.966 -14.4474 10
      vertex 187.365 -14.2658 -10
      vertex 187.966 -14.4474 -10
    endloop
  endfacet
  facet normal -0.248593 -0.968608 0
    outer loop
      vertex 187.966 -14.4474 -10
      vertex 188.575 -14.6037 10
      vertex 187.966 -14.4474 10
    endloop
  endfacet
  facet normal -0.248593 -0.968608 -0
    outer loop
      vertex 188.575 -14.6037 10
      vertex 187.966 -14.4474 -10
      vertex 188.575 -14.6037 -10
    endloop
  endfacet
  facet normal -0.208049 -0.978118 0
    outer loop
      vertex 188.575 -14.6037 -10
      vertex 189.189 -14.7343 10
      vertex 188.575 -14.6037 10
    endloop
  endfacet
  facet normal -0.208049 -0.978118 -0
    outer loop
      vertex 189.189 -14.7343 10
      vertex 188.575 -14.6037 -10
      vertex 189.189 -14.7343 -10
    endloop
  endfacet
  facet normal -0.166668 -0.986013 0
    outer loop
      vertex 189.189 -14.7343 -10
      vertex 189.809 -14.8391 10
      vertex 189.189 -14.7343 10
    endloop
  endfacet
  facet normal -0.166668 -0.986013 -0
    outer loop
      vertex 189.809 -14.8391 10
      vertex 189.189 -14.7343 -10
      vertex 189.809 -14.8391 -10
    endloop
  endfacet
  facet normal -0.125328 -0.992115 0
    outer loop
      vertex 189.809 -14.8391 -10
      vertex 190.432 -14.9178 10
      vertex 189.809 -14.8391 10
    endloop
  endfacet
  facet normal -0.125328 -0.992115 -0
    outer loop
      vertex 190.432 -14.9178 10
      vertex 189.809 -14.8391 -10
      vertex 190.432 -14.9178 -10
    endloop
  endfacet
  facet normal -0.0837305 -0.996488 0
    outer loop
      vertex 190.432 -14.9178 -10
      vertex 191.058 -14.9704 10
      vertex 190.432 -14.9178 10
    endloop
  endfacet
  facet normal -0.0837305 -0.996488 -0
    outer loop
      vertex 191.058 -14.9704 10
      vertex 190.432 -14.9178 -10
      vertex 191.058 -14.9704 -10
    endloop
  endfacet
  facet normal -0.0418423 -0.999124 0
    outer loop
      vertex 191.058 -14.9704 -10
      vertex 191.686 -14.9967 10
      vertex 191.058 -14.9704 10
    endloop
  endfacet
  facet normal -0.0418423 -0.999124 -0
    outer loop
      vertex 191.686 -14.9967 10
      vertex 191.058 -14.9704 -10
      vertex 191.686 -14.9967 -10
    endloop
  endfacet
  facet normal 0 -1 0
    outer loop
      vertex 191.686 -14.9967 -10
      vertex 192.314 -14.9967 10
      vertex 191.686 -14.9967 10
    endloop
  endfacet
  facet normal 0 -1 -0
    outer loop
      vertex 192.314 -14.9967 10
      vertex 191.686 -14.9967 -10
      vertex 192.314 -14.9967 -10
    endloop
  endfacet
  facet normal 0.0418423 -0.999124 0
    outer loop
      vertex 192.314 -14.9967 -10
      vertex 192.942 -14.9704 10
      vertex 192.314 -14.9967 10
    endloop
  endfacet
  facet normal 0.0418423 -0.999124 0
    outer loop
      vertex 192.942 -14.9704 10
      vertex 192.314 -14.9967 -10
      vertex 192.942 -14.9704 -10
    endloop
  endfacet
  facet normal 0.0837305 -0.996488 0
    outer loop
      vertex 192.942 -14.9704 -10
      vertex 193.568 -14.9178 10
      vertex 192.942 -14.9704 10
    endloop
  endfacet
  facet normal 0.0837305 -0.996488 0
    outer loop
      vertex 193.568 -14.9178 10
      vertex 192.942 -14.9704 -10
      vertex 193.568 -14.9178 -10
    endloop
  endfacet
  facet normal 0.125328 -0.992115 0
    outer loop
      vertex 193.568 -14.9178 -10
      vertex 194.191 -14.8391 10
      vertex 193.568 -14.9178 10
    endloop
  endfacet
  facet normal 0.125328 -0.992115 0
    outer loop
      vertex 194.191 -14.8391 10
      vertex 193.568 -14.9178 -10
      vertex 194.191 -14.8391 -10
    endloop
  endfacet
  facet normal 0.166668 -0.986013 0
    outer loop
      vertex 194.191 -14.8391 -10
      vertex 194.811 -14.7343 10
      vertex 194.191 -14.8391 10
    endloop
  endfacet
  facet normal 0.166668 -0.986013 0
    outer loop
      vertex 194.811 -14.7343 10
      vertex 194.191 -14.8391 -10
      vertex 194.811 -14.7343 -10
    endloop
  endfacet
  facet normal 0.208049 -0.978118 0
    outer loop
      vertex 194.811 -14.7343 -10
      vertex 195.425 -14.6037 10
      vertex 194.811 -14.7343 10
    endloop
  endfacet
  facet normal 0.208049 -0.978118 0
    outer loop
      vertex 195.425 -14.6037 10
      vertex 194.811 -14.7343 -10
      vertex 195.425 -14.6037 -10
    endloop
  endfacet
  facet normal 0.248593 -0.968608 0
    outer loop
      vertex 195.425 -14.6037 -10
      vertex 196.034 -14.4474 10
      vertex 195.425 -14.6037 10
    endloop
  endfacet
  facet normal 0.248593 -0.968608 0
    outer loop
      vertex 196.034 -14.4474 10
      vertex 195.425 -14.6037 -10
      vertex 196.034 -14.4474 -10
    endloop
  endfacet
  facet normal 0.289247 -0.957255 0
    outer loop
      vertex 196.034 -14.4474 -10
      vertex 196.635 -14.2658 10
      vertex 196.034 -14.4474 10
    endloop
  endfacet
  facet normal 0.289247 -0.957255 0
    outer loop
      vertex 196.635 -14.2658 10
      vertex 196.034 -14.4474 -10
      vertex 196.635 -14.2658 -10
    endloop
  endfacet
  facet normal 0.328508 -0.944501 0
    outer loop
      vertex 196.635 -14.2658 -10
      vertex 197.229 -14.0592 10
      vertex 196.635 -14.2658 10
    endloop
  endfacet
  facet normal 0.328508 -0.944501 0
    outer loop
      vertex 197.229 -14.0592 10
      vertex 196.635 -14.2658 -10
      vertex 197.229 -14.0592 -10
    endloop
  endfacet
  facet normal 0.368232 -0.929734 0
    outer loop
      vertex 197.229 -14.0592 -10
      vertex 197.813 -13.8279 10
      vertex 197.229 -14.0592 10
    endloop
  endfacet
  facet normal 0.368232 -0.929734 0
    outer loop
      vertex 197.813 -13.8279 10
      vertex 197.229 -14.0592 -10
      vertex 197.813 -13.8279 -10
    endloop
  endfacet
  facet normal 0.406655 -0.913582 0
    outer loop
      vertex 197.813 -13.8279 -10
      vertex 198.387 -13.5724 10
      vertex 197.813 -13.8279 10
    endloop
  endfacet
  facet normal 0.406655 -0.913582 0
    outer loop
      vertex 198.387 -13.5724 10
      vertex 197.813 -13.8279 -10
      vertex 198.387 -13.5724 -10
    endloop
  endfacet
  facet normal 0.445045 -0.895508 0
    outer loop
      vertex 198.387 -13.5724 -10
      vertex 198.949 -13.2931 10
      vertex 198.387 -13.5724 10
    endloop
  endfacet
  facet normal 0.445045 -0.895508 0
    outer loop
      vertex 198.949 -13.2931 10
      vertex 198.387 -13.5724 -10
      vertex 198.949 -13.2931 -10
    endloop
  endfacet
  facet normal 0.481491 -0.876451 0
    outer loop
      vertex 198.949 -13.2931 -10
      vertex 199.5 -12.9904 10
      vertex 198.949 -13.2931 10
    endloop
  endfacet
  facet normal 0.481491 -0.876451 0
    outer loop
      vertex 199.5 -12.9904 10
      vertex 198.949 -13.2931 -10
      vertex 199.5 -12.9904 -10
    endloop
  endfacet
  facet normal 0.518355 -0.855166 0
    outer loop
      vertex 199.5 -12.9904 -10
      vertex 200.037 -12.6649 10
      vertex 199.5 -12.9904 10
    endloop
  endfacet
  facet normal 0.518355 -0.855166 0
    outer loop
      vertex 200.037 -12.6649 10
      vertex 199.5 -12.9904 -10
      vertex 200.037 -12.6649 -10
    endloop
  endfacet
  facet normal 0.552901 -0.833247 0
    outer loop
      vertex 200.037 -12.6649 -10
      vertex 200.561 -12.3172 10
      vertex 200.037 -12.6649 10
    endloop
  endfacet
  facet normal 0.552901 -0.833247 0
    outer loop
      vertex 200.561 -12.3172 10
      vertex 200.037 -12.6649 -10
      vertex 200.561 -12.3172 -10
    endloop
  endfacet
  facet normal 0.588011 -0.808853 0
    outer loop
      vertex 200.561 -12.3172 -10
      vertex 201.069 -11.9479 10
      vertex 200.561 -12.3172 10
    endloop
  endfacet
  facet normal 0.588011 -0.808853 0
    outer loop
      vertex 201.069 -11.9479 10
      vertex 200.561 -12.3172 -10
      vertex 201.069 -11.9479 -10
    endloop
  endfacet
  facet normal 0.621388 -0.783503 0
    outer loop
      vertex 201.069 -11.9479 -10
      vertex 201.561 -11.5577 10
      vertex 201.069 -11.9479 10
    endloop
  endfacet
  facet normal 0.621388 -0.783503 0
    outer loop
      vertex 201.561 -11.5577 10
      vertex 201.069 -11.9479 -10
      vertex 201.561 -11.5577 -10
    endloop
  endfacet
  facet normal 0.653081 -0.757288 0
    outer loop
      vertex 201.561 -11.5577 -10
      vertex 202.037 -11.1472 10
      vertex 201.561 -11.5577 10
    endloop
  endfacet
  facet normal 0.653081 -0.757288 0
    outer loop
      vertex 202.037 -11.1472 10
      vertex 201.561 -11.5577 -10
      vertex 202.037 -11.1472 -10
    endloop
  endfacet
  facet normal 0.684555 -0.728961 0
    outer loop
      vertex 202.037 -11.1472 -10
      vertex 202.495 -10.7171 10
      vertex 202.037 -11.1472 10
    endloop
  endfacet
  facet normal 0.684555 -0.728961 0
    outer loop
      vertex 202.495 -10.7171 10
      vertex 202.037 -11.1472 -10
      vertex 202.495 -10.7171 -10
    endloop
  endfacet
  facet normal 0.714151 -0.699992 0
    outer loop
      vertex 202.495 -10.7171 10
      vertex 202.935 -10.2682 -10
      vertex 202.935 -10.2682 10
    endloop
  endfacet
  facet normal 0.714151 -0.699992 0
    outer loop
      vertex 202.935 -10.2682 -10
      vertex 202.495 -10.7171 10
      vertex 202.495 -10.7171 -10
    endloop
  endfacet
  facet normal 0.743453 -0.668788 0
    outer loop
      vertex 202.935 -10.2682 10
      vertex 203.355 -9.80131 -10
      vertex 203.355 -9.80131 10
    endloop
  endfacet
  facet normal 0.743453 -0.668788 0
    outer loop
      vertex 203.355 -9.80131 -10
      vertex 202.935 -10.2682 10
      vertex 202.935 -10.2682 -10
    endloop
  endfacet
  facet normal 0.770884 -0.636976 0
    outer loop
      vertex 203.355 -9.80131 10
      vertex 203.755 -9.31722 -10
      vertex 203.755 -9.31722 10
    endloop
  endfacet
  facet normal 0.770884 -0.636976 0
    outer loop
      vertex 203.755 -9.31722 -10
      vertex 203.355 -9.80131 10
      vertex 203.355 -9.80131 -10
    endloop
  endfacet
  facet normal 0.796418 -0.604746 0
    outer loop
      vertex 203.755 -9.31722 10
      vertex 204.135 -8.81678 -10
      vertex 204.135 -8.81678 10
    endloop
  endfacet
  facet normal 0.796418 -0.604746 0
    outer loop
      vertex 204.135 -8.81678 -10
      vertex 203.755 -9.31722 10
      vertex 203.755 -9.31722 -10
    endloop
  endfacet
  facet normal 0.820826 -0.571178 0
    outer loop
      vertex 204.135 -8.81678 10
      vertex 204.494 -8.30087 -10
      vertex 204.494 -8.30087 10
    endloop
  endfacet
  facet normal 0.820826 -0.571178 0
    outer loop
      vertex 204.494 -8.30087 -10
      vertex 204.135 -8.81678 10
      vertex 204.135 -8.81678 -10
    endloop
  endfacet
  facet normal 0.844789 -0.5351 0
    outer loop
      vertex 204.494 -8.30087 10
      vertex 204.83 -7.77041 -10
      vertex 204.83 -7.77041 10
    endloop
  endfacet
  facet normal 0.844789 -0.5351 0
    outer loop
      vertex 204.83 -7.77041 -10
      vertex 204.494 -8.30087 10
      vertex 204.494 -8.30087 -10
    endloop
  endfacet
  facet normal 0.86543 -0.50103 0
    outer loop
      vertex 204.83 -7.77041 10
      vertex 205.145 -7.22631 -10
      vertex 205.145 -7.22631 10
    endloop
  endfacet
  facet normal 0.86543 -0.50103 0
    outer loop
      vertex 205.145 -7.22631 -10
      vertex 204.83 -7.77041 10
      vertex 204.83 -7.77041 -10
    endloop
  endfacet
  facet normal 0.886254 -0.463199 0
    outer loop
      vertex 205.145 -7.22631 10
      vertex 205.436 -6.66953 -10
      vertex 205.436 -6.66953 10
    endloop
  endfacet
  facet normal 0.886254 -0.463199 0
    outer loop
      vertex 205.436 -6.66953 -10
      vertex 205.145 -7.22631 10
      vertex 205.145 -7.22631 -10
    endloop
  endfacet
  facet normal 0.905137 -0.425119 0
    outer loop
      vertex 205.436 -6.66953 10
      vertex 205.703 -6.10105 -10
      vertex 205.703 -6.10105 10
    endloop
  endfacet
  facet normal 0.905137 -0.425119 0
    outer loop
      vertex 205.703 -6.10105 -10
      vertex 205.436 -6.66953 10
      vertex 205.436 -6.66953 -10
    endloop
  endfacet
  facet normal 0.921559 -0.388239 0
    outer loop
      vertex 205.703 -6.10105 10
      vertex 205.947 -5.52187 -10
      vertex 205.947 -5.52187 10
    endloop
  endfacet
  facet normal 0.921559 -0.388239 0
    outer loop
      vertex 205.947 -5.52187 -10
      vertex 205.703 -6.10105 10
      vertex 205.703 -6.10105 -10
    endloop
  endfacet
  facet normal 0.937281 -0.348574 0
    outer loop
      vertex 205.947 -5.52187 10
      vertex 206.166 -4.933 -10
      vertex 206.166 -4.933 10
    endloop
  endfacet
  facet normal 0.937281 -0.348574 0
    outer loop
      vertex 206.166 -4.933 -10
      vertex 205.947 -5.52187 10
      vertex 205.947 -5.52187 -10
    endloop
  endfacet
  facet normal 0.951125 -0.308807 0
    outer loop
      vertex 206.166 -4.933 10
      vertex 206.36 -4.33548 -10
      vertex 206.36 -4.33548 10
    endloop
  endfacet
  facet normal 0.951125 -0.308807 0
    outer loop
      vertex 206.36 -4.33548 -10
      vertex 206.166 -4.933 10
      vertex 206.166 -4.933 -10
    endloop
  endfacet
  facet normal 0.963144 -0.268986 0
    outer loop
      vertex 206.36 -4.33548 10
      vertex 206.529 -3.73035 -10
      vertex 206.529 -3.73035 10
    endloop
  endfacet
  facet normal 0.963144 -0.268986 0
    outer loop
      vertex 206.529 -3.73035 -10
      vertex 206.36 -4.33548 10
      vertex 206.36 -4.33548 -10
    endloop
  endfacet
  facet normal 0.973744 -0.227648 0
    outer loop
      vertex 206.529 -3.73035 10
      vertex 206.672 -3.11868 -10
      vertex 206.672 -3.11868 10
    endloop
  endfacet
  facet normal 0.973744 -0.227648 0
    outer loop
      vertex 206.672 -3.11868 -10
      vertex 206.529 -3.73035 10
      vertex 206.529 -3.73035 -10
    endloop
  endfacet
  facet normal 0.982207 -0.1878 0
    outer loop
      vertex 206.672 -3.11868 10
      vertex 206.79 -2.50153 -10
      vertex 206.79 -2.50153 10
    endloop
  endfacet
  facet normal 0.982207 -0.1878 0
    outer loop
      vertex 206.79 -2.50153 -10
      vertex 206.672 -3.11868 10
      vertex 206.672 -3.11868 -10
    endloop
  endfacet
  facet normal 0.989222 -0.146426 0
    outer loop
      vertex 206.79 -2.50153 10
      vertex 206.882 -1.88 -10
      vertex 206.882 -1.88 10
    endloop
  endfacet
  facet normal 0.989222 -0.146426 0
    outer loop
      vertex 206.882 -1.88 -10
      vertex 206.79 -2.50153 10
      vertex 206.79 -2.50153 -10
    endloop
  endfacet
  facet normal 0.994633 -0.10347 0
    outer loop
      vertex 206.882 -1.88 10
      vertex 206.947 -1.25517 -10
      vertex 206.947 -1.25517 10
    endloop
  endfacet
  facet normal 0.994633 -0.10347 0
    outer loop
      vertex 206.947 -1.25517 -10
      vertex 206.882 -1.88 10
      vertex 206.882 -1.88 -10
    endloop
  endfacet
  facet normal 0.997971 -0.0636629 0
    outer loop
      vertex 206.947 -1.25517 10
      vertex 206.987 -0.628135 -10
      vertex 206.987 -0.628135 10
    endloop
  endfacet
  facet normal 0.997971 -0.0636629 0
    outer loop
      vertex 206.987 -0.628135 -10
      vertex 206.947 -1.25517 10
      vertex 206.947 -1.25517 -10
    endloop
  endfacet
  facet normal 0.999786 -0.0206918 0
    outer loop
      vertex 206.987 -0.628135 10
      vertex 207 0 -10
      vertex 207 0 10
    endloop
  endfacet
  facet normal 0.999786 -0.0206918 0
    outer loop
      vertex 207 0 -10
      vertex 206.987 -0.628135 10
      vertex 206.987 -0.628135 -10
    endloop
  endfacet
  facet normal 0 0 -1
    outer loop
      vertex 206.987 -0.628135 -10
      vertex 206.987 0.628135 -10
      vertex 207 0 -10
    endloop
  endfacet
  facet normal 0 0 -1
    outer loop
      vertex 206.947 -1.25517 -10
      vertex 206.987 0.628135 -10
      vertex 206.987 -0.628135 -10
    endloop
  endfacet
  facet normal 0 0 -1
    outer loop
      vertex 206.947 -1.25517 -10
      vertex 206.947 1.25517 -10
      vertex 206.987 0.628135 -10
    endloop
  endfacet
  facet normal 0 0 -1
    outer loop
      vertex 206.882 -1.88 -10
      vertex 206.947 1.25517 -10
      vertex 206.947 -1.25517 -10
    endloop
  endfacet
  facet normal 0 0 -1
    outer loop
      vertex 206.882 -1.88 -10
      vertex 206.882 1.88 -10
      vertex 206.947 1.25517 -10
    endloop
  endfacet
  facet normal 0 0 -1
    outer loop
      vertex 206.79 -2.50153 -10
      vertex 206.882 1.88 -10
      vertex 206.882 -1.88 -10
    endloop
  endfacet
  facet normal 0 0 -1
    outer loop
      vertex 206.79 -2.50153 -10
      vertex 206.79 2.50153 -10
      vertex 206.882 1.88 -10
    endloop
  endfacet
  facet normal 0 0 -1
    outer loop
      vertex 206.672 -3.11868 -10
      vertex 206.79 2.50153 -10
      vertex 206.79 -2.50153 -10
    endloop
  endfacet
  facet normal 0 0 -1
    outer loop
      vertex 206.672 -3.11868 -10
      vertex 206.672 3.11868 -10
      vertex 206.79 2.50153 -10
    endloop
  endfacet
  facet normal 0 0 -1
    outer loop
      vertex 206.529 -3.73035 -10
      vertex 206.672 3.11868 -10
      vertex 206.672 -3.11868 -10
    endloop
  endfacet
  facet normal 0 0 -1
    outer loop
      vertex 206.529 -3.73035 -10
      vertex 206.529 3.73035 -10
      vertex 206.672 3.11868 -10
    endloop
  endfacet
  facet normal 0 0 -1
    outer loop
      vertex 206.36 -4.33548 -10
      vertex 206.529 3.73035 -10
      vertex 206.529 -3.73035 -10
    endloop
  endfacet
  facet normal 0 0 -1
    outer loop
      vertex 206.36 -4.33548 -10
      vertex 206.36 4.33548 -10
      vertex 206.529 3.73035 -10
    endloop
  endfacet
  facet normal 0 0 -1
    outer loop
      vertex 206.166 -4.933 -10
      vertex 206.36 4.33548 -10
      vertex 206.36 -4.33548 -10
    endloop
  endfacet
  facet normal 0 0 -1
    outer loop
      vertex 206.166 -4.933 -10
      vertex 206.166 4.933 -10
      vertex 206.36 4.33548 -10
    endloop
  endfacet
  facet normal 0 0 -1
    outer loop
      vertex 205.947 -5.52187 -10
      vertex 206.166 4.933 -10
      vertex 206.166 -4.933 -10
    endloop
  endfacet
  facet normal 0 0 -1
    outer loop
      vertex 205.947 -5.52187 -10
      vertex 205.947 5.52187 -10
      vertex 206.166 4.933 -10
    endloop
  endfacet
  facet normal 0 0 -1
    outer loop
      vertex 205.703 -6.10105 -10
      vertex 205.947 5.52187 -10
      vertex 205.947 -5.52187 -10
    endloop
  endfacet
  facet normal 0 0 -1
    outer loop
      vertex 205.703 -6.10105 -10
      vertex 205.703 6.10105 -10
      vertex 205.947 5.52187 -10
    endloop
  endfacet
  facet normal 0 0 -1
    outer loop
      vertex 205.436 -6.66953 -10
      vertex 205.703 6.10105 -10
      vertex 205.703 -6.10105 -10
    endloop
  endfacet
  facet normal 0 0 -1
    outer loop
      vertex 205.436 -6.66953 -10
      vertex 205.436 6.66953 -10
      vertex 205.703 6.10105 -10
    endloop
  endfacet
  facet normal 0 0 -1
    outer loop
      vertex 205.145 -7.22631 -10
      vertex 205.436 6.66953 -10
      vertex 205.436 -6.66953 -10
    endloop
  endfacet
  facet normal 0 0 -1
    outer loop
      vertex 205.145 -7.22631 -10
      vertex 205.145 7.22631 -10
      vertex 205.436 6.66953 -10
    endloop
  endfacet
  facet normal 0 0 -1
    outer loop
      vertex 204.83 -7.77041 -10
      vertex 205.145 7.22631 -10
      vertex 205.145 -7.22631 -10
    endloop
  endfacet
  facet normal 0 0 -1
    outer loop
      vertex 204.83 -7.77041 -10
      vertex 204.83 7.77041 -10
      vertex 205.145 7.22631 -10
    endloop
  endfacet
  facet normal 0 0 -1
    outer loop
      vertex 204.494 -8.30087 -10
      vertex 204.83 7.77041 -10
      vertex 204.83 -7.77041 -10
    endloop
  endfacet
  facet normal 0 0 -1
    outer loop
      vertex 204.494 -8.30087 -10
      vertex 204.494 8.30087 -10
      vertex 204.83 7.77041 -10
    endloop
  endfacet
  facet normal 0 0 -1
    outer loop
      vertex 204.135 -8.81678 -10
      vertex 204.494 8.30087 -10
      vertex 204.494 -8.30087 -10
    endloop
  endfacet
  facet normal 0 0 -1
    outer loop
      vertex 204.135 -8.81678 -10
      vertex 204.135 8.81678 -10
      vertex 204.494 8.30087 -10
    endloop
  endfacet
  facet normal 0 0 -1
    outer loop
      vertex 203.755 -9.31722 -10
      vertex 204.135 8.81678 -10
      vertex 204.135 -8.81678 -10
    endloop
  endfacet
  facet normal 0 0 -1
    outer loop
      vertex 203.755 -9.31722 -10
      vertex 203.755 9.31722 -10
      vertex 204.135 8.81678 -10
    endloop
  endfacet
  facet normal 0 0 -1
    outer loop
      vertex 203.355 -9.80131 -10
      vertex 203.755 9.31722 -10
      vertex 203.755 -9.31722 -10
    endloop
  endfacet
  facet normal 0 0 -1
    outer loop
      vertex 203.355 -9.80131 -10
      vertex 203.355 9.80131 -10
      vertex 203.755 9.31722 -10
    endloop
  endfacet
  facet normal 0 0 -1
    outer loop
      vertex 202.935 -10.2682 -10
      vertex 203.355 9.80131 -10
      vertex 203.355 -9.80131 -10
    endloop
  endfacet
  facet normal 0 0 -1
    outer loop
      vertex 202.935 -10.2682 -10
      vertex 202.935 10.2682 -10
      vertex 203.355 9.80131 -10
    endloop
  endfacet
  facet normal 0 0 -1
    outer loop
      vertex 202.495 -10.7171 -10
      vertex 202.935 10.2682 -10
      vertex 202.935 -10.2682 -10
    endloop
  endfacet
  facet normal 0 0 -1
    outer loop
      vertex 202.495 -10.7171 -10
      vertex 202.495 10.7171 -10
      vertex 202.935 10.2682 -10
    endloop
  endfacet
  facet normal 0 0 -1
    outer loop
      vertex 202.037 -11.1472 -10
      vertex 202.495 10.7171 -10
      vertex 202.495 -10.7171 -10
    endloop
  endfacet
  facet normal 0 0 -1
    outer loop
      vertex 202.037 -11.1472 -10
      vertex 202.037 11.1472 -10
      vertex 202.495 10.7171 -10
    endloop
  endfacet
  facet normal 0 0 -1
    outer loop
      vertex 201.561 -11.5577 -10
      vertex 202.037 11.1472 -10
      vertex 202.037 -11.1472 -10
    endloop
  endfacet
  facet normal 0 0 -1
    outer loop
      vertex 201.561 -11.5577 -10
      vertex 201.561 11.5577 -10
      vertex 202.037 11.1472 -10
    endloop
  endfacet
  facet normal 0 0 -1
    outer loop
      vertex 201.069 -11.9479 -10
      vertex 201.561 11.5577 -10
      vertex 201.561 -11.5577 -10
    endloop
  endfacet
  facet normal 0 0 -1
    outer loop
      vertex 201.069 -11.9479 -10
      vertex 201.069 11.9479 -10
      vertex 201.561 11.5577 -10
    endloop
  endfacet
  facet normal 0 0 -1
    outer loop
      vertex 200.561 -12.3172 -10
      vertex 201.069 11.9479 -10
      vertex 201.069 -11.9479 -10
    endloop
  endfacet
  facet normal 0 0 -1
    outer loop
      vertex 200.561 -12.3172 -10
      vertex 200.561 12.3172 -10
      vertex 201.069 11.9479 -10
    endloop
  endfacet
  facet normal 0 0 -1
    outer loop
      vertex 200.037 -12.6649 -10
      vertex 200.561 12.3172 -10
      vertex 200.561 -12.3172 -10
    endloop
  endfacet
  facet normal 0 0 -1
    outer loop
      vertex 200.037 -12.6649 -10
      vertex 200.037 12.6649 -10
      vertex 200.561 12.3172 -10
    endloop
  endfacet
  facet normal 0 0 -1
    outer loop
      vertex 199.5 -12.9904 -10
      vertex 200.037 12.6649 -10
      vertex 200.037 -12.6649 -10
    endloop
  endfacet
  facet normal 0 0 -1
    outer loop
      vertex 199.5 -12.9904 -10
      vertex 199.5 12.9904 -10
      vertex 200.037 12.6649 -10
    endloop
  endfacet
  facet normal 0 0 -1
    outer loop
      vertex 198.949 -13.2931 -10
      vertex 199.5 12.9904 -10
      vertex 199.5 -12.9904 -10
    endloop
  endfacet
  facet normal 0 0 -1
    outer loop
      vertex 198.949 -13.2931 -10
      vertex 198.949 13.2931 -10
      vertex 199.5 12.9904 -10
    endloop
  endfacet
  facet normal 0 0 -1
    outer loop
      vertex 198.387 -13.5724 -10
      vertex 198.949 13.2931 -10
      vertex 198.949 -13.2931 -10
    endloop
  endfacet
  facet normal 0 0 -1
    outer loop
      vertex 198.387 -13.5724 -10
      vertex 198.387 13.5724 -10
      vertex 198.949 13.2931 -10
    endloop
  endfacet
  facet normal 0 0 -1
    outer loop
      vertex 197.813 -13.8279 -10
      vertex 198.387 13.5724 -10
      vertex 198.387 -13.5724 -10
    endloop
  endfacet
  facet normal 0 0 -1
    outer loop
      vertex 197.813 -13.8279 -10
      vertex 197.813 13.8279 -10
      vertex 198.387 13.5724 -10
    endloop
  endfacet
  facet normal 0 0 -1
    outer loop
      vertex 197.229 -14.0592 -10
      vertex 197.813 13.8279 -10
      vertex 197.813 -13.8279 -10
    endloop
  endfacet
  facet normal 0 0 -1
    outer loop
      vertex 197.229 -14.0592 -10
      vertex 197.229 14.0592 -10
      vertex 197.813 13.8279 -10
    endloop
  endfacet
  facet normal 0 0 -1
    outer loop
      vertex 196.635 -14.2658 -10
      vertex 197.229 14.0592 -10
      vertex 197.229 -14.0592 -10
    endloop
  endfacet
  facet normal 0 0 -1
    outer loop
      vertex 196.635 -14.2658 -10
      vertex 196.635 14.2658 -10
      vertex 197.229 14.0592 -10
    endloop
  endfacet
  facet normal 0 0 -1
    outer loop
      vertex 196.034 -14.4474 -10
      vertex 196.635 14.2658 -10
      vertex 196.635 -14.2658 -10
    endloop
  endfacet
  facet normal 0 0 -1
    outer loop
      vertex 196.034 -14.4474 -10
      vertex 196.034 14.4474 -10
      vertex 196.635 14.2658 -10
    endloop
  endfacet
  facet normal 0 0 -1
    outer loop
      vertex 195.425 -14.6037 -10
      vertex 196.034 14.4474 -10
      vertex 196.034 -14.4474 -10
    endloop
  endfacet
  facet normal 0 0 -1
    outer loop
      vertex 195.425 -14.6037 -10
      vertex 195.425 14.6037 -10
      vertex 196.034 14.4474 -10
    endloop
  endfacet
  facet normal 0 0 -1
    outer loop
      vertex 194.811 -14.7343 -10
      vertex 195.425 14.6037 -10
      vertex 195.425 -14.6037 -10
    endloop
  endfacet
  facet normal 0 0 -1
    outer loop
      vertex 194.811 -14.7343 -10
      vertex 194.811 14.7343 -10
      vertex 195.425 14.6037 -10
    endloop
  endfacet
  facet normal 0 0 -1
    outer loop
      vertex 194.191 -14.8391 -10
      vertex 194.811 14.7343 -10
      vertex 194.811 -14.7343 -10
    endloop
  endfacet
  facet normal 0 0 -1
    outer loop
      vertex 194.191 -14.8391 -10
      vertex 194.191 14.8391 -10
      vertex 194.811 14.7343 -10
    endloop
  endfacet
  facet normal 0 0 -1
    outer loop
      vertex 193.568 -14.9178 -10
      vertex 194.191 14.8391 -10
      vertex 194.191 -14.8391 -10
    endloop
  endfacet
  facet normal 0 0 -1
    outer loop
      vertex 193.568 -14.9178 -10
      vertex 193.568 14.9178 -10
      vertex 194.191 14.8391 -10
    endloop
  endfacet
  facet normal 0 0 -1
    outer loop
      vertex 192.942 -14.9704 -10
      vertex 193.568 14.9178 -10
      vertex 193.568 -14.9178 -10
    endloop
  endfacet
  facet normal 0 0 -1
    outer loop
      vertex 192.942 -14.9704 -10
      vertex 192.942 14.9704 -10
      vertex 193.568 14.9178 -10
    endloop
  endfacet
  facet normal 0 0 -1
    outer loop
      vertex 192.314 -14.9967 -10
      vertex 192.942 14.9704 -10
      vertex 192.942 -14.9704 -10
    endloop
  endfacet
  facet normal 0 0 -1
    outer loop
      vertex 192.314 -14.9967 -10
      vertex 192.314 14.9967 -10
      vertex 192.942 14.9704 -10
    endloop
  endfacet
  facet normal 0 0 -1
    outer loop
      vertex 191.686 -14.9967 -10
      vertex 192.314 14.9967 -10
      vertex 192.314 -14.9967 -10
    endloop
  endfacet
  facet normal 0 0 -1
    outer loop
      vertex 191.686 -14.9967 -10
      vertex 191.686 14.9967 -10
      vertex 192.314 14.9967 -10
    endloop
  endfacet
  facet normal 0 0 -1
    outer loop
      vertex 191.058 -14.9704 -10
      vertex 191.686 14.9967 -10
      vertex 191.686 -14.9967 -10
    endloop
  endfacet
  facet normal 0 0 -1
    outer loop
      vertex 191.058 -14.9704 -10
      vertex 191.058 14.9704 -10
      vertex 191.686 14.9967 -10
    endloop
  endfacet
  facet normal 0 0 -1
    outer loop
      vertex 190.432 -14.9178 -10
      vertex 191.058 14.9704 -10
      vertex 191.058 -14.9704 -10
    endloop
  endfacet
  facet normal 0 0 -1
    outer loop
      vertex 190.432 -14.9178 -10
      vertex 190.432 14.9178 -10
      vertex 191.058 14.9704 -10
    endloop
  endfacet
  facet normal 0 0 -1
    outer loop
      vertex 189.809 -14.8391 -10
      vertex 190.432 14.9178 -10
      vertex 190.432 -14.9178 -10
    endloop
  endfacet
  facet normal 0 0 -1
    outer loop
      vertex 189.809 -14.8391 -10
      vertex 189.809 14.8391 -10
      vertex 190.432 14.9178 -10
    endloop
  endfacet
  facet normal 0 0 -1
    outer loop
      vertex 189.189 -14.7343 -10
      vertex 189.809 14.8391 -10
      vertex 189.809 -14.8391 -10
    endloop
  endfacet
  facet normal 0 0 -1
    outer loop
      vertex 189.189 -14.7343 -10
      vertex 189.189 14.7343 -10
      vertex 189.809 14.8391 -10
    endloop
  endfacet
  facet normal 0 0 -1
    outer loop
      vertex 188.575 -14.6037 -10
      vertex 189.189 14.7343 -10
      vertex 189.189 -14.7343 -10
    endloop
  endfacet
  facet normal 0 0 -1
    outer loop
      vertex 188.575 -14.6037 -10
      vertex 188.575 14.6037 -10
      vertex 189.189 14.7343 -10
    endloop
  endfacet
  facet normal 0 0 -1
    outer loop
      vertex 187.966 -14.4474 -10
      vertex 188.575 14.6037 -10
      vertex 188.575 -14.6037 -10
    endloop
  endfacet
  facet normal 0 0 -1
    outer loop
      vertex 187.966 -14.4474 -10
      vertex 187.966 14.4474 -10
      vertex 188.575 14.6037 -10
    endloop
  endfacet
  facet normal 0 0 -1
    outer loop
      vertex 187.365 -14.2658 -10
      vertex 187.966 14.4474 -10
      vertex 187.966 -14.4474 -10
    endloop
  endfacet
  facet normal 0 0 -1
    outer loop
      vertex 187.365 -14.2658 -10
      vertex 187.365 14.2658 -10
      vertex 187.966 14.4474 -10
    endloop
  endfacet
  facet normal 0 0 -1
    outer loop
      vertex 186.771 -14.0592 -10
      vertex 187.365 14.2658 -10
      vertex 187.365 -14.2658 -10
    endloop
  endfacet
  facet normal 0 0 -1
    outer loop
      vertex 186.771 -14.0592 -10
      vertex 186.771 14.0592 -10
      vertex 187.365 14.2658 -10
    endloop
  endfacet
  facet normal 0 0 -1
    outer loop
      vertex 186.187 -13.8279 -10
      vertex 186.771 14.0592 -10
      vertex 186.771 -14.0592 -10
    endloop
  endfacet
  facet normal 0 0 -1
    outer loop
      vertex 186.187 -13.8279 -10
      vertex 186.187 13.8279 -10
      vertex 186.771 14.0592 -10
    endloop
  endfacet
  facet normal 0 0 -1
    outer loop
      vertex 185.613 -13.5724 -10
      vertex 186.187 13.8279 -10
      vertex 186.187 -13.8279 -10
    endloop
  endfacet
  facet normal 0 0 -1
    outer loop
      vertex 185.613 -13.5724 -10
      vertex 185.613 13.5724 -10
      vertex 186.187 13.8279 -10
    endloop
  endfacet
  facet normal 0 0 -1
    outer loop
      vertex 185.051 -13.2931 -10
      vertex 185.613 13.5724 -10
      vertex 185.613 -13.5724 -10
    endloop
  endfacet
  facet normal 0 0 -1
    outer loop
      vertex 185.051 -13.2931 -10
      vertex 185.051 13.2931 -10
      vertex 185.613 13.5724 -10
    endloop
  endfacet
  facet normal 0 0 -1
    outer loop
      vertex 184.5 -12.9904 -10
      vertex 185.051 13.2931 -10
      vertex 185.051 -13.2931 -10
    endloop
  endfacet
  facet normal 0 0 -1
    outer loop
      vertex 184.5 -12.9904 -10
      vertex 184.5 12.9904 -10
      vertex 185.051 13.2931 -10
    endloop
  endfacet
  facet normal 0 0 -1
    outer loop
      vertex 183.963 -12.6649 -10
      vertex 184.5 12.9904 -10
      vertex 184.5 -12.9904 -10
    endloop
  endfacet
  facet normal 0 0 -1
    outer loop
      vertex 183.963 -12.6649 -10
      vertex 183.963 12.6649 -10
      vertex 184.5 12.9904 -10
    endloop
  endfacet
  facet normal 0 0 -1
    outer loop
      vertex 183.439 -12.3172 -10
      vertex 183.963 12.6649 -10
      vertex 183.963 -12.6649 -10
    endloop
  endfacet
  facet normal 0 0 -1
    outer loop
      vertex 183.439 -12.3172 -10
      vertex 183.439 12.3172 -10
      vertex 183.963 12.6649 -10
    endloop
  endfacet
  facet normal 0 0 -1
    outer loop
      vertex 182.931 -11.9479 -10
      vertex 183.439 12.3172 -10
      vertex 183.439 -12.3172 -10
    endloop
  endfacet
  facet normal 0 0 -1
    outer loop
      vertex 182.931 -11.9479 -10
      vertex 182.931 11.9479 -10
      vertex 183.439 12.3172 -10
    endloop
  endfacet
  facet normal 0 0 -1
    outer loop
      vertex 182.439 -11.5577 -10
      vertex 182.931 11.9479 -10
      vertex 182.931 -11.9479 -10
    endloop
  endfacet
  facet normal 0 0 -1
    outer loop
      vertex 182.439 -11.5577 -10
      vertex 182.439 11.5577 -10
      vertex 182.931 11.9479 -10
    endloop
  endfacet
  facet normal 0 0 -1
    outer loop
      vertex 181.963 -11.1472 -10
      vertex 182.439 11.5577 -10
      vertex 182.439 -11.5577 -10
    endloop
  endfacet
  facet normal 0 0 -1
    outer loop
      vertex 181.963 -11.1472 -10
      vertex 181.963 11.1472 -10
      vertex 182.439 11.5577 -10
    endloop
  endfacet
  facet normal 0 0 -1
    outer loop
      vertex 181.505 -10.7171 -10
      vertex 181.963 11.1472 -10
      vertex 181.963 -11.1472 -10
    endloop
  endfacet
  facet normal 0 0 -1
    outer loop
      vertex 181.505 -10.7171 -10
      vertex 181.505 10.7171 -10
      vertex 181.963 11.1472 -10
    endloop
  endfacet
  facet normal 0 0 -1
    outer loop
      vertex 181.065 -10.2682 -10
      vertex 181.505 10.7171 -10
      vertex 181.505 -10.7171 -10
    endloop
  endfacet
  facet normal 0 0 -1
    outer loop
      vertex 181.065 -10.2682 -10
      vertex 181.065 10.2682 -10
      vertex 181.505 10.7171 -10
    endloop
  endfacet
  facet normal 0 0 -1
    outer loop
      vertex 180.645 -9.80131 -10
      vertex 181.065 10.2682 -10
      vertex 181.065 -10.2682 -10
    endloop
  endfacet
  facet normal 0 0 -1
    outer loop
      vertex 180.645 -9.80131 -10
      vertex 180.645 9.80131 -10
      vertex 181.065 10.2682 -10
    endloop
  endfacet
  facet normal 0 0 -1
    outer loop
      vertex 180.245 -9.31722 -10
      vertex 180.645 9.80131 -10
      vertex 180.645 -9.80131 -10
    endloop
  endfacet
  facet normal 0 0 -1
    outer loop
      vertex 180.245 -9.31722 -10
      vertex 180.245 9.31722 -10
      vertex 180.645 9.80131 -10
    endloop
  endfacet
  facet normal 0 0 -1
    outer loop
      vertex 179.865 -8.81678 -10
      vertex 180.245 9.31722 -10
      vertex 180.245 -9.31722 -10
    endloop
  endfacet
  facet normal 0 0 -1
    outer loop
      vertex 179.865 -8.81678 -10
      vertex 179.865 8.81678 -10
      vertex 180.245 9.31722 -10
    endloop
  endfacet
  facet normal 0 0 -1
    outer loop
      vertex 179.506 -8.30087 -10
      vertex 179.865 8.81678 -10
      vertex 179.865 -8.81678 -10
    endloop
  endfacet
  facet normal 0 0 -1
    outer loop
      vertex 179.506 -8.30087 -10
      vertex 179.506 8.30087 -10
      vertex 179.865 8.81678 -10
    endloop
  endfacet
  facet normal 0 0 -1
    outer loop
      vertex 179.17 -7.77041 -10
      vertex 179.506 8.30087 -10
      vertex 179.506 -8.30087 -10
    endloop
  endfacet
  facet normal 0 0 -1
    outer loop
      vertex 179.17 -7.77041 -10
      vertex 179.17 7.77041 -10
      vertex 179.506 8.30087 -10
    endloop
  endfacet
  facet normal 0 0 -1
    outer loop
      vertex 178.855 -7.22631 -10
      vertex 179.17 7.77041 -10
      vertex 179.17 -7.77041 -10
    endloop
  endfacet
  facet normal 0 0 -1
    outer loop
      vertex 178.855 -7.22631 -10
      vertex 178.855 7.22631 -10
      vertex 179.17 7.77041 -10
    endloop
  endfacet
  facet normal 0 0 -1
    outer loop
      vertex 178.564 -6.66953 -10
      vertex 178.855 7.22631 -10
      vertex 178.855 -7.22631 -10
    endloop
  endfacet
  facet normal 0 0 -1
    outer loop
      vertex 178.564 -6.66953 -10
      vertex 178.564 6.66953 -10
      vertex 178.855 7.22631 -10
    endloop
  endfacet
  facet normal 0 0 -1
    outer loop
      vertex 178.297 -6.10105 -10
      vertex 178.564 6.66953 -10
      vertex 178.564 -6.66953 -10
    endloop
  endfacet
  facet normal 0 0 -1
    outer loop
      vertex 178.297 -6.10105 -10
      vertex 178.297 6.10105 -10
      vertex 178.564 6.66953 -10
    endloop
  endfacet
  facet normal 0 0 -1
    outer loop
      vertex 178.053 -5.52187 -10
      vertex 178.297 6.10105 -10
      vertex 178.297 -6.10105 -10
    endloop
  endfacet
  facet normal 0 0 -1
    outer loop
      vertex 178.053 -5.52187 -10
      vertex 178.053 5.52187 -10
      vertex 178.297 6.10105 -10
    endloop
  endfacet
  facet normal 0 0 -1
    outer loop
      vertex 177.834 -4.933 -10
      vertex 178.053 5.52187 -10
      vertex 178.053 -5.52187 -10
    endloop
  endfacet
  facet normal 0 0 -1
    outer loop
      vertex 177.834 -4.933 -10
      vertex 177.834 4.933 -10
      vertex 178.053 5.52187 -10
    endloop
  endfacet
  facet normal 0 0 -1
    outer loop
      vertex 177.64 -4.33548 -10
      vertex 177.834 4.933 -10
      vertex 177.834 -4.933 -10
    endloop
  endfacet
  facet normal 0 0 -1
    outer loop
      vertex 177.64 -4.33548 -10
      vertex 177.64 4.33548 -10
      vertex 177.834 4.933 -10
    endloop
  endfacet
  facet normal 0 0 -1
    outer loop
      vertex 177.471 -3.73035 -10
      vertex 177.64 4.33548 -10
      vertex 177.64 -4.33548 -10
    endloop
  endfacet
  facet normal 0 0 -1
    outer loop
      vertex 177.471 -3.73035 -10
      vertex 177.471 3.73035 -10
      vertex 177.64 4.33548 -10
    endloop
  endfacet
  facet normal 0 0 -1
    outer loop
      vertex 177.328 -3.11868 -10
      vertex 177.471 3.73035 -10
      vertex 177.471 -3.73035 -10
    endloop
  endfacet
  facet normal 0 0 -1
    outer loop
      vertex 177.328 -3.11868 -10
      vertex 177.328 3.11868 -10
      vertex 177.471 3.73035 -10
    endloop
  endfacet
  facet normal 0 0 -1
    outer loop
      vertex 177.21 -2.50153 -10
      vertex 177.328 3.11868 -10
      vertex 177.328 -3.11868 -10
    endloop
  endfacet
  facet normal 0 0 -1
    outer loop
      vertex 177.21 -2.50153 -10
      vertex 177.21 2.50153 -10
      vertex 177.328 3.11868 -10
    endloop
  endfacet
  facet normal 0 0 -1
    outer loop
      vertex 177.118 -1.88 -10
      vertex 177.21 2.50153 -10
      vertex 177.21 -2.50153 -10
    endloop
  endfacet
  facet normal 0 0 -1
    outer loop
      vertex 177.118 -1.88 -10
      vertex 177.118 1.88 -10
      vertex 177.21 2.50153 -10
    endloop
  endfacet
  facet normal 0 0 -1
    outer loop
      vertex 177.053 -1.25517 -10
      vertex 177.118 1.88 -10
      vertex 177.118 -1.88 -10
    endloop
  endfacet
  facet normal 0 0 -1
    outer loop
      vertex 177.053 -1.25517 -10
      vertex 177.053 1.25517 -10
      vertex 177.118 1.88 -10
    endloop
  endfacet
  facet normal 0 0 -1
    outer loop
      vertex 177.013 -0.628135 -10
      vertex 177.053 1.25517 -10
      vertex 177.053 -1.25517 -10
    endloop
  endfacet
  facet normal 0 0 -1
    outer loop
      vertex 177.013 -0.628135 -10
      vertex 177.013 0.628135 -10
      vertex 177.053 1.25517 -10
    endloop
  endfacet
  facet normal 0 -0 -1
    outer loop
      vertex 177.013 0.628135 -10
      vertex 177.013 -0.628135 -10
      vertex 177 0 -10
    endloop
  endfacet
  facet normal 0 0 1
    outer loop
      vertex 206.987 0.628135 10
      vertex 206.987 -0.628135 10
      vertex 207 0 10
    endloop
  endfacet
  facet normal 0 0 1
    outer loop
      vertex 206.947 1.25517 10
      vertex 206.987 -0.628135 10
      vertex 206.987 0.628135 10
    endloop
  endfacet
  facet normal 0 0 1
    outer loop
      vertex 206.947 1.25517 10
      vertex 206.947 -1.25517 10
      vertex 206.987 -0.628135 10
    endloop
  endfacet
  facet normal 0 0 1
    outer loop
      vertex 206.882 1.88 10
      vertex 206.947 -1.25517 10
      vertex 206.947 1.25517 10
    endloop
  endfacet
  facet normal 0 0 1
    outer loop
      vertex 206.882 1.88 10
      vertex 206.882 -1.88 10
      vertex 206.947 -1.25517 10
    endloop
  endfacet
  facet normal 0 0 1
    outer loop
      vertex 206.79 2.50153 10
      vertex 206.882 -1.88 10
      vertex 206.882 1.88 10
    endloop
  endfacet
  facet normal 0 0 1
    outer loop
      vertex 206.79 2.50153 10
      vertex 206.79 -2.50153 10
      vertex 206.882 -1.88 10
    endloop
  endfacet
  facet normal 0 0 1
    outer loop
      vertex 206.672 3.11868 10
      vertex 206.79 -2.50153 10
      vertex 206.79 2.50153 10
    endloop
  endfacet
  facet normal 0 0 1
    outer loop
      vertex 206.672 3.11868 10
      vertex 206.672 -3.11868 10
      vertex 206.79 -2.50153 10
    endloop
  endfacet
  facet normal 0 0 1
    outer loop
      vertex 206.529 3.73035 10
      vertex 206.672 -3.11868 10
      vertex 206.672 3.11868 10
    endloop
  endfacet
  facet normal 0 0 1
    outer loop
      vertex 206.529 3.73035 10
      vertex 206.529 -3.73035 10
      vertex 206.672 -3.11868 10
    endloop
  endfacet
  facet normal 0 0 1
    outer loop
      vertex 206.36 4.33548 10
      vertex 206.529 -3.73035 10
      vertex 206.529 3.73035 10
    endloop
  endfacet
  facet normal 0 0 1
    outer loop
      vertex 206.36 4.33548 10
      vertex 206.36 -4.33548 10
      vertex 206.529 -3.73035 10
    endloop
  endfacet
  facet normal 0 0 1
    outer loop
      vertex 206.166 4.933 10
      vertex 206.36 -4.33548 10
      vertex 206.36 4.33548 10
    endloop
  endfacet
  facet normal 0 0 1
    outer loop
      vertex 206.166 4.933 10
      vertex 206.166 -4.933 10
      vertex 206.36 -4.33548 10
    endloop
  endfacet
  facet normal 0 0 1
    outer loop
      vertex 205.947 5.52187 10
      vertex 206.166 -4.933 10
      vertex 206.166 4.933 10
    endloop
  endfacet
  facet normal 0 0 1
    outer loop
      vertex 205.947 5.52187 10
      vertex 205.947 -5.52187 10
      vertex 206.166 -4.933 10
    endloop
  endfacet
  facet normal 0 0 1
    outer loop
      vertex 205.703 6.10105 10
      vertex 205.947 -5.52187 10
      vertex 205.947 5.52187 10
    endloop
  endfacet
  facet normal 0 0 1
    outer loop
      vertex 205.703 6.10105 10
      vertex 205.703 -6.10105 10
      vertex 205.947 -5.52187 10
    endloop
  endfacet
  facet normal 0 0 1
    outer loop
      vertex 205.436 6.66953 10
      vertex 205.703 -6.10105 10
      vertex 205.703 6.10105 10
    endloop
  endfacet
  facet normal 0 0 1
    outer loop
      vertex 205.436 6.66953 10
      vertex 205.436 -6.66953 10
      vertex 205.703 -6.10105 10
    endloop
  endfacet
  facet normal 0 0 1
    outer loop
      vertex 205.145 7.22631 10
      vertex 205.436 -6.66953 10
      vertex 205.436 6.66953 10
    endloop
  endfacet
  facet normal 0 0 1
    outer loop
      vertex 205.145 7.22631 10
      vertex 205.145 -7.22631 10
      vertex 205.436 -6.66953 10
    endloop
  endfacet
  facet normal 0 0 1
    outer loop
      vertex 204.83 7.77041 10
      vertex 205.145 -7.22631 10
      vertex 205.145 7.22631 10
    endloop
  endfacet
  facet normal 0 0 1
    outer loop
      vertex 204.83 7.77041 10
      vertex 204.83 -7.77041 10
      vertex 205.145 -7.22631 10
    endloop
  endfacet
  facet normal 0 0 1
    outer loop
      vertex 204.494 8.30087 10
      vertex 204.83 -7.77041 10
      vertex 204.83 7.77041 10
    endloop
  endfacet
  facet normal 0 0 1
    outer loop
      vertex 204.494 8.30087 10
      vertex 204.494 -8.30087 10
      vertex 204.83 -7.77041 10
    endloop
  endfacet
  facet normal 0 0 1
    outer loop
      vertex 204.135 8.81678 10
      vertex 204.494 -8.30087 10
      vertex 204.494 8.30087 10
    endloop
  endfacet
  facet normal 0 0 1
    outer loop
      vertex 204.135 8.81678 10
      vertex 204.135 -8.81678 10
      vertex 204.494 -8.30087 10
    endloop
  endfacet
  facet normal 0 0 1
    outer loop
      vertex 203.755 9.31722 10
      vertex 204.135 -8.81678 10
      vertex 204.135 8.81678 10
    endloop
  endfacet
  facet normal 0 0 1
    outer loop
      vertex 203.755 9.31722 10
      vertex 203.755 -9.31722 10
      vertex 204.135 -8.81678 10
    endloop
  endfacet
  facet normal 0 0 1
    outer loop
      vertex 203.355 9.80131 10
      vertex 203.755 -9.31722 10
      vertex 203.755 9.31722 10
    endloop
  endfacet
  facet normal 0 0 1
    outer loop
      vertex 203.355 9.80131 10
      vertex 203.355 -9.80131 10
      vertex 203.755 -9.31722 10
    endloop
  endfacet
  facet normal 0 0 1
    outer loop
      vertex 202.935 10.2682 10
      vertex 203.355 -9.80131 10
      vertex 203.355 9.80131 10
    endloop
  endfacet
  facet normal 0 0 1
    outer loop
      vertex 202.935 10.2682 10
      vertex 202.935 -10.2682 10
      vertex 203.355 -9.80131 10
    endloop
  endfacet
  facet normal 0 0 1
    outer loop
      vertex 202.495 10.7171 10
      vertex 202.935 -10.2682 10
      vertex 202.935 10.2682 10
    endloop
  endfacet
  facet normal 0 0 1
    outer loop
      vertex 202.495 10.7171 10
      vertex 202.495 -10.7171 10
      vertex 202.935 -10.2682 10
    endloop
  endfacet
  facet normal 0 0 1
    outer loop
      vertex 202.037 11.1472 10
      vertex 202.495 -10.7171 10
      vertex 202.495 10.7171 10
    endloop
  endfacet
  facet normal 0 0 1
    outer loop
      vertex 202.037 11.1472 10
      vertex 202.037 -11.1472 10
      vertex 202.495 -10.7171 10
    endloop
  endfacet
  facet normal 0 0 1
    outer loop
      vertex 201.561 11.5577 10
      vertex 202.037 -11.1472 10
      vertex 202.037 11.1472 10
    endloop
  endfacet
  facet normal 0 0 1
    outer loop
      vertex 201.561 11.5577 10
      vertex 201.561 -11.5577 10
      vertex 202.037 -11.1472 10
    endloop
  endfacet
  facet normal 0 0 1
    outer loop
      vertex 201.069 11.9479 10
      vertex 201.561 -11.5577 10
      vertex 201.561 11.5577 10
    endloop
  endfacet
  facet normal 0 0 1
    outer loop
      vertex 201.069 11.9479 10
      vertex 201.069 -11.9479 10
      vertex 201.561 -11.5577 10
    endloop
  endfacet
  facet normal 0 0 1
    outer loop
      vertex 200.561 12.3172 10
      vertex 201.069 -11.9479 10
      vertex 201.069 11.9479 10
    endloop
  endfacet
  facet normal 0 0 1
    outer loop
      vertex 200.561 12.3172 10
      vertex 200.561 -12.3172 10
      vertex 201.069 -11.9479 10
    endloop
  endfacet
  facet normal 0 0 1
    outer loop
      vertex 200.037 12.6649 10
      vertex 200.561 -12.3172 10
      vertex 200.561 12.3172 10
    endloop
  endfacet
  facet normal 0 0 1
    outer loop
      vertex 200.037 12.6649 10
      vertex 200.037 -12.6649 10
      vertex 200.561 -12.3172 10
    endloop
  endfacet
  facet normal 0 0 1
    outer loop
      vertex 199.5 12.9904 10
      vertex 200.037 -12.6649 10
      vertex 200.037 12.6649 10
    endloop
  endfacet
  facet normal 0 0 1
    outer loop
      vertex 199.5 12.9904 10
      vertex 199.5 -12.9904 10
      vertex 200.037 -12.6649 10
    endloop
  endfacet
  facet normal 0 0 1
    outer loop
      vertex 198.949 13.2931 10
      vertex 199.5 -12.9904 10
      vertex 199.5 12.9904 10
    endloop
  endfacet
  facet normal 0 0 1
    outer loop
      vertex 198.949 13.2931 10
      vertex 198.949 -13.2931 10
      vertex 199.5 -12.9904 10
    endloop
  endfacet
  facet normal 0 0 1
    outer loop
      vertex 198.387 13.5724 10
      vertex 198.949 -13.2931 10
      vertex 198.949 13.2931 10
    endloop
  endfacet
  facet normal 0 0 1
    outer loop
      vertex 198.387 13.5724 10
      vertex 198.387 -13.5724 10
      vertex 198.949 -13.2931 10
    endloop
  endfacet
  facet normal 0 0 1
    outer loop
      vertex 197.813 13.8279 10
      vertex 198.387 -13.5724 10
      vertex 198.387 13.5724 10
    endloop
  endfacet
  facet normal 0 0 1
    outer loop
      vertex 197.813 13.8279 10
      vertex 197.813 -13.8279 10
      vertex 198.387 -13.5724 10
    endloop
  endfacet
  facet normal 0 0 1
    outer loop
      vertex 197.229 14.0592 10
      vertex 197.813 -13.8279 10
      vertex 197.813 13.8279 10
    endloop
  endfacet
  facet normal 0 0 1
    outer loop
      vertex 197.229 14.0592 10
      vertex 197.229 -14.0592 10
      vertex 197.813 -13.8279 10
    endloop
  endfacet
  facet normal 0 0 1
    outer loop
      vertex 196.635 14.2658 10
      vertex 197.229 -14.0592 10
      vertex 197.229 14.0592 10
    endloop
  endfacet
  facet normal 0 0 1
    outer loop
      vertex 196.635 14.2658 10
      vertex 196.635 -14.2658 10
      vertex 197.229 -14.0592 10
    endloop
  endfacet
  facet normal 0 0 1
    outer loop
      vertex 196.034 14.4474 10
      vertex 196.635 -14.2658 10
      vertex 196.635 14.2658 10
    endloop
  endfacet
  facet normal 0 0 1
    outer loop
      vertex 196.034 14.4474 10
      vertex 196.034 -14.4474 10
      vertex 196.635 -14.2658 10
    endloop
  endfacet
  facet normal 0 0 1
    outer loop
      vertex 195.425 14.6037 10
      vertex 196.034 -14.4474 10
      vertex 196.034 14.4474 10
    endloop
  endfacet
  facet normal 0 0 1
    outer loop
      vertex 195.425 14.6037 10
      vertex 195.425 -14.6037 10
      vertex 196.034 -14.4474 10
    endloop
  endfacet
  facet normal 0 0 1
    outer loop
      vertex 194.811 14.7343 10
      vertex 195.425 -14.6037 10
      vertex 195.425 14.6037 10
    endloop
  endfacet
  facet normal 0 0 1
    outer loop
      vertex 194.811 14.7343 10
      vertex 194.811 -14.7343 10
      vertex 195.425 -14.6037 10
    endloop
  endfacet
  facet normal 0 0 1
    outer loop
      vertex 194.191 14.8391 10
      vertex 194.811 -14.7343 10
      vertex 194.811 14.7343 10
    endloop
  endfacet
  facet normal 0 0 1
    outer loop
      vertex 194.191 14.8391 10
      vertex 194.191 -14.8391 10
      vertex 194.811 -14.7343 10
    endloop
  endfacet
  facet normal 0 0 1
    outer loop
      vertex 193.568 14.9178 10
      vertex 194.191 -14.8391 10
      vertex 194.191 14.8391 10
    endloop
  endfacet
  facet normal 0 0 1
    outer loop
      vertex 193.568 14.9178 10
      vertex 193.568 -14.9178 10
      vertex 194.191 -14.8391 10
    endloop
  endfacet
  facet normal 0 0 1
    outer loop
      vertex 192.942 14.9704 10
      vertex 193.568 -14.9178 10
      vertex 193.568 14.9178 10
    endloop
  endfacet
  facet normal 0 0 1
    outer loop
      vertex 192.942 14.9704 10
      vertex 192.942 -14.9704 10
      vertex 193.568 -14.9178 10
    endloop
  endfacet
  facet normal 0 0 1
    outer loop
      vertex 192.314 14.9967 10
      vertex 192.942 -14.9704 10
      vertex 192.942 14.9704 10
    endloop
  endfacet
  facet normal 0 0 1
    outer loop
      vertex 192.314 14.9967 10
      vertex 192.314 -14.9967 10
      vertex 192.942 -14.9704 10
    endloop
  endfacet
  facet normal -0 0 1
    outer loop
      vertex 191.686 14.9967 10
      vertex 192.314 -14.9967 10
      vertex 192.314 14.9967 10
    endloop
  endfacet
  facet normal 0 0 1
    outer loop
      vertex 191.686 14.9967 10
      vertex 191.686 -14.9967 10
      vertex 192.314 -14.9967 10
    endloop
  endfacet
  facet normal -0 0 1
    outer loop
      vertex 191.058 14.9704 10
      vertex 191.686 -14.9967 10
      vertex 191.686 14.9967 10
    endloop
  endfacet
  facet normal 0 0 1
    outer loop
      vertex 191.058 14.9704 10
      vertex 191.058 -14.9704 10
      vertex 191.686 -14.9967 10
    endloop
  endfacet
  facet normal -0 0 1
    outer loop
      vertex 190.432 14.9178 10
      vertex 191.058 -14.9704 10
      vertex 191.058 14.9704 10
    endloop
  endfacet
  facet normal 0 0 1
    outer loop
      vertex 190.432 14.9178 10
      vertex 190.432 -14.9178 10
      vertex 191.058 -14.9704 10
    endloop
  endfacet
  facet normal -0 0 1
    outer loop
      vertex 189.809 14.8391 10
      vertex 190.432 -14.9178 10
      vertex 190.432 14.9178 10
    endloop
  endfacet
  facet normal 0 0 1
    outer loop
      vertex 189.809 14.8391 10
      vertex 189.809 -14.8391 10
      vertex 190.432 -14.9178 10
    endloop
  endfacet
  facet normal -0 0 1
    outer loop
      vertex 189.189 14.7343 10
      vertex 189.809 -14.8391 10
      vertex 189.809 14.8391 10
    endloop
  endfacet
  facet normal 0 0 1
    outer loop
      vertex 189.189 14.7343 10
      vertex 189.189 -14.7343 10
      vertex 189.809 -14.8391 10
    endloop
  endfacet
  facet normal -0 0 1
    outer loop
      vertex 188.575 14.6037 10
      vertex 189.189 -14.7343 10
      vertex 189.189 14.7343 10
    endloop
  endfacet
  facet normal 0 0 1
    outer loop
      vertex 188.575 14.6037 10
      vertex 188.575 -14.6037 10
      vertex 189.189 -14.7343 10
    endloop
  endfacet
  facet normal -0 0 1
    outer loop
      vertex 187.966 14.4474 10
      vertex 188.575 -14.6037 10
      vertex 188.575 14.6037 10
    endloop
  endfacet
  facet normal 0 0 1
    outer loop
      vertex 187.966 14.4474 10
      vertex 187.966 -14.4474 10
      vertex 188.575 -14.6037 10
    endloop
  endfacet
  facet normal -0 0 1
    outer loop
      vertex 187.365 14.2658 10
      vertex 187.966 -14.4474 10
      vertex 187.966 14.4474 10
    endloop
  endfacet
  facet normal 0 0 1
    outer loop
      vertex 187.365 14.2658 10
      vertex 187.365 -14.2658 10
      vertex 187.966 -14.4474 10
    endloop
  endfacet
  facet normal -0 0 1
    outer loop
      vertex 186.771 14.0592 10
      vertex 187.365 -14.2658 10
      vertex 187.365 14.2658 10
    endloop
  endfacet
  facet normal 0 0 1
    outer loop
      vertex 186.771 14.0592 10
      vertex 186.771 -14.0592 10
      vertex 187.365 -14.2658 10
    endloop
  endfacet
  facet normal -0 0 1
    outer loop
      vertex 186.187 13.8279 10
      vertex 186.771 -14.0592 10
      vertex 186.771 14.0592 10
    endloop
  endfacet
  facet normal 0 0 1
    outer loop
      vertex 186.187 13.8279 10
      vertex 186.187 -13.8279 10
      vertex 186.771 -14.0592 10
    endloop
  endfacet
  facet normal -0 0 1
    outer loop
      vertex 185.613 13.5724 10
      vertex 186.187 -13.8279 10
      vertex 186.187 13.8279 10
    endloop
  endfacet
  facet normal 0 0 1
    outer loop
      vertex 185.613 13.5724 10
      vertex 185.613 -13.5724 10
      vertex 186.187 -13.8279 10
    endloop
  endfacet
  facet normal -0 0 1
    outer loop
      vertex 185.051 13.2931 10
      vertex 185.613 -13.5724 10
      vertex 185.613 13.5724 10
    endloop
  endfacet
  facet normal 0 0 1
    outer loop
      vertex 185.051 13.2931 10
      vertex 185.051 -13.2931 10
      vertex 185.613 -13.5724 10
    endloop
  endfacet
  facet normal -0 0 1
    outer loop
      vertex 184.5 12.9904 10
      vertex 185.051 -13.2931 10
      vertex 185.051 13.2931 10
    endloop
  endfacet
  facet normal 0 0 1
    outer loop
      vertex 184.5 12.9904 10
      vertex 184.5 -12.9904 10
      vertex 185.051 -13.2931 10
    endloop
  endfacet
  facet normal -0 0 1
    outer loop
      vertex 183.963 12.6649 10
      vertex 184.5 -12.9904 10
      vertex 184.5 12.9904 10
    endloop
  endfacet
  facet normal 0 0 1
    outer loop
      vertex 183.963 12.6649 10
      vertex 183.963 -12.6649 10
      vertex 184.5 -12.9904 10
    endloop
  endfacet
  facet normal -0 0 1
    outer loop
      vertex 183.439 12.3172 10
      vertex 183.963 -12.6649 10
      vertex 183.963 12.6649 10
    endloop
  endfacet
  facet normal 0 0 1
    outer loop
      vertex 183.439 12.3172 10
      vertex 183.439 -12.3172 10
      vertex 183.963 -12.6649 10
    endloop
  endfacet
  facet normal -0 0 1
    outer loop
      vertex 182.931 11.9479 10
      vertex 183.439 -12.3172 10
      vertex 183.439 12.3172 10
    endloop
  endfacet
  facet normal 0 0 1
    outer loop
      vertex 182.931 11.9479 10
      vertex 182.931 -11.9479 10
      vertex 183.439 -12.3172 10
    endloop
  endfacet
  facet normal -0 0 1
    outer loop
      vertex 182.439 11.5577 10
      vertex 182.931 -11.9479 10
      vertex 182.931 11.9479 10
    endloop
  endfacet
  facet normal 0 0 1
    outer loop
      vertex 182.439 11.5577 10
      vertex 182.439 -11.5577 10
      vertex 182.931 -11.9479 10
    endloop
  endfacet
  facet normal -0 0 1
    outer loop
      vertex 181.963 11.1472 10
      vertex 182.439 -11.5577 10
      vertex 182.439 11.5577 10
    endloop
  endfacet
  facet normal 0 0 1
    outer loop
      vertex 181.963 11.1472 10
      vertex 181.963 -11.1472 10
      vertex 182.439 -11.5577 10
    endloop
  endfacet
  facet normal -0 0 1
    outer loop
      vertex 181.505 10.7171 10
      vertex 181.963 -11.1472 10
      vertex 181.963 11.1472 10
    endloop
  endfacet
  facet normal 0 0 1
    outer loop
      vertex 181.505 10.7171 10
      vertex 181.505 -10.7171 10
      vertex 181.963 -11.1472 10
    endloop
  endfacet
  facet normal -0 0 1
    outer loop
      vertex 181.065 10.2682 10
      vertex 181.505 -10.7171 10
      vertex 181.505 10.7171 10
    endloop
  endfacet
  facet normal 0 0 1
    outer loop
      vertex 181.065 10.2682 10
      vertex 181.065 -10.2682 10
      vertex 181.505 -10.7171 10
    endloop
  endfacet
  facet normal -0 0 1
    outer loop
      vertex 180.645 9.80131 10
      vertex 181.065 -10.2682 10
      vertex 181.065 10.2682 10
    endloop
  endfacet
  facet normal 0 0 1
    outer loop
      vertex 180.645 9.80131 10
      vertex 180.645 -9.80131 10
      vertex 181.065 -10.2682 10
    endloop
  endfacet
  facet normal -0 0 1
    outer loop
      vertex 180.245 9.31722 10
      vertex 180.645 -9.80131 10
      vertex 180.645 9.80131 10
    endloop
  endfacet
  facet normal 0 0 1
    outer loop
      vertex 180.245 9.31722 10
      vertex 180.245 -9.31722 10
      vertex 180.645 -9.80131 10
    endloop
  endfacet
  facet normal -0 0 1
    outer loop
      vertex 179.865 8.81678 10
      vertex 180.245 -9.31722 10
      vertex 180.245 9.31722 10
    endloop
  endfacet
  facet normal 0 0 1
    outer loop
      vertex 179.865 8.81678 10
      vertex 179.865 -8.81678 10
      vertex 180.245 -9.31722 10
    endloop
  endfacet
  facet normal -0 0 1
    outer loop
      vertex 179.506 8.30087 10
      vertex 179.865 -8.81678 10
      vertex 179.865 8.81678 10
    endloop
  endfacet
  facet normal 0 0 1
    outer loop
      vertex 179.506 8.30087 10
      vertex 179.506 -8.30087 10
      vertex 179.865 -8.81678 10
    endloop
  endfacet
  facet normal -0 0 1
    outer loop
      vertex 179.17 7.77041 10
      vertex 179.506 -8.30087 10
      vertex 179.506 8.30087 10
    endloop
  endfacet
  facet normal 0 0 1
    outer loop
      vertex 179.17 7.77041 10
      vertex 179.17 -7.77041 10
      vertex 179.506 -8.30087 10
    endloop
  endfacet
  facet normal -0 0 1
    outer loop
      vertex 178.855 7.22631 10
      vertex 179.17 -7.77041 10
      vertex 179.17 7.77041 10
    endloop
  endfacet
  facet normal 0 0 1
    outer loop
      vertex 178.855 7.22631 10
      vertex 178.855 -7.22631 10
      vertex 179.17 -7.77041 10
    endloop
  endfacet
  facet normal -0 0 1
    outer loop
      vertex 178.564 6.66953 10
      vertex 178.855 -7.22631 10
      vertex 178.855 7.22631 10
    endloop
  endfacet
  facet normal 0 0 1
    outer loop
      vertex 178.564 6.66953 10
      vertex 178.564 -6.66953 10
      vertex 178.855 -7.22631 10
    endloop
  endfacet
  facet normal -0 0 1
    outer loop
      vertex 178.297 6.10105 10
      vertex 178.564 -6.66953 10
      vertex 178.564 6.66953 10
    endloop
  endfacet
  facet normal 0 0 1
    outer loop
      vertex 178.297 6.10105 10
      vertex 178.297 -6.10105 10
      vertex 178.564 -6.66953 10
    endloop
  endfacet
  facet normal -0 0 1
    outer loop
      vertex 178.053 5.52187 10
      vertex 178.297 -6.10105 10
      vertex 178.297 6.10105 10
    endloop
  endfacet
  facet normal 0 0 1
    outer loop
      vertex 178.053 5.52187 10
      vertex 178.053 -5.52187 10
      vertex 178.297 -6.10105 10
    endloop
  endfacet
  facet normal -0 0 1
    outer loop
      vertex 177.834 4.933 10
      vertex 178.053 -5.52187 10
      vertex 178.053 5.52187 10
    endloop
  endfacet
  facet normal 0 0 1
    outer loop
      vertex 177.834 4.933 10
      vertex 177.834 -4.933 10
      vertex 178.053 -5.52187 10
    endloop
  endfacet
  facet normal -0 0 1
    outer loop
      vertex 177.64 4.33548 10
      vertex 177.834 -4.933 10
      vertex 177.834 4.933 10
    endloop
  endfacet
  facet normal 0 0 1
    outer loop
      vertex 177.64 4.33548 10
      vertex 177.64 -4.33548 10
      vertex 177.834 -4.933 10
    endloop
  endfacet
  facet normal -0 0 1
    outer loop
      vertex 177.471 3.73035 10
      vertex 177.64 -4.33548 10
      vertex 177.64 4.33548 10
    endloop
  endfacet
  facet normal 0 0 1
    outer loop
      vertex 177.471 3.73035 10
      vertex 177.471 -3.73035 10
      vertex 177.64 -4.33548 10
    endloop
  endfacet
  facet normal -0 0 1
    outer loop
      vertex 177.328 3.11868 10
      vertex 177.471 -3.73035 10
      vertex 177.471 3.73035 10
    endloop
  endfacet
  facet normal 0 0 1
    outer loop
      vertex 177.328 3.11868 10
      vertex 177.328 -3.11868 10
      vertex 177.471 -3.73035 10
    endloop
  endfacet
  facet normal -0 0 1
    outer loop
      vertex 177.21 2.50153 10
      vertex 177.328 -3.11868 10
      vertex 177.328 3.11868 10
    endloop
  endfacet
  facet normal 0 0 1
    outer loop
      vertex 177.21 2.50153 10
      vertex 177.21 -2.50153 10
      vertex 177.328 -3.11868 10
    endloop
  endfacet
  facet normal -0 0 1
    outer loop
      vertex 177.118 1.88 10
      vertex 177.21 -2.50153 10
      vertex 177.21 2.50153 10
    endloop
  endfacet
  facet normal 0 0 1
    outer loop
      vertex 177.118 1.88 10
      vertex 177.118 -1.88 10
      vertex 177.21 -2.50153 10
    endloop
  endfacet
  facet normal -0 0 1
    outer loop
      vertex 177.053 1.25517 10
      vertex 177.118 -1.88 10
      vertex 177.118 1.88 10
    endloop
  endfacet
  facet normal 0 0 1
    outer loop
      vertex 177.053 1.25517 10
      vertex 177.053 -1.25517 10
      vertex 177.118 -1.88 10
    endloop
  endfacet
  facet normal -0 0 1
    outer loop
      vertex 177.013 0.628135 10
      vertex 177.053 -1.25517 10
      vertex 177.053 1.25517 10
    endloop
  endfacet
  facet normal 0 0 1
    outer loop
      vertex 177.013 0.628135 10
      vertex 177.013 -0.628135 10
      vertex 177.053 -1.25517 10
    endloop
  endfacet
  facet normal 0 -0 1
    outer loop
      vertex 177.013 -0.628135 10
      vertex 177.013 0.628135 10
      vertex 177 0 10
    endloop
  endfacet
endsolid OpenSCAD_Model
