solid OpenSCAD_Model
  facet normal 0.999779 0.02101 0
    outer loop
      vertex 79 0 10
      vertex 78.9868 0.628135 -10
      vertex 78.9868 0.628135 10
    endloop
  endfacet
  facet normal 0.999779 0.02101 0
    outer loop
      vertex 78.9868 0.628135 -10
      vertex 79 0 10
      vertex 79 0 -10
    endloop
  endfacet
  facet normal 0.998032 0.0627117 0
    outer loop
      vertex 78.9868 0.628135 10
      vertex 78.9474 1.25517 -10
      vertex 78.9474 1.25517 10
    endloop
  endfacet
  facet normal 0.998032 0.0627117 0
    outer loop
      vertex 78.9474 1.25517 -10
      vertex 78.9868 0.628135 10
      vertex 78.9868 0.628135 -10
    endloop
  endfacet
  facet normal 0.994517 0.104572 0
    outer loop
      vertex 78.9474 1.25517 10
      vertex 78.8817 1.88 -10
      vertex 78.8817 1.88 10
    endloop
  endfacet
  facet normal 0.994517 0.104572 0
    outer loop
      vertex 78.8817 1.88 -10
      vertex 78.9474 1.25517 10
      vertex 78.9474 1.25517 -10
    endloop
  endfacet
  facet normal 0.989268 0.146115 0
    outer loop
      vertex 78.8817 1.88 10
      vertex 78.7899 2.50153 -10
      vertex 78.7899 2.50153 10
    endloop
  endfacet
  facet normal 0.989268 0.146115 0
    outer loop
      vertex 78.7899 2.50153 -10
      vertex 78.8817 1.88 10
      vertex 78.8817 1.88 -10
    endloop
  endfacet
  facet normal 0.982295 0.187339 0
    outer loop
      vertex 78.7899 2.50153 10
      vertex 78.6722 3.11868 -10
      vertex 78.6722 3.11868 10
    endloop
  endfacet
  facet normal 0.982295 0.187339 0
    outer loop
      vertex 78.6722 3.11868 -10
      vertex 78.7899 2.50153 10
      vertex 78.7899 2.50153 -10
    endloop
  endfacet
  facet normal 0.973567 0.228402 0
    outer loop
      vertex 78.6722 3.11868 10
      vertex 78.5287 3.73035 -10
      vertex 78.5287 3.73035 10
    endloop
  endfacet
  facet normal 0.973567 0.228402 0
    outer loop
      vertex 78.5287 3.73035 -10
      vertex 78.6722 3.11868 10
      vertex 78.6722 3.11868 -10
    endloop
  endfacet
  facet normal 0.963185 0.268838 0
    outer loop
      vertex 78.5287 3.73035 10
      vertex 78.3598 4.33548 -10
      vertex 78.3598 4.33548 10
    endloop
  endfacet
  facet normal 0.963185 0.268838 0
    outer loop
      vertex 78.3598 4.33548 -10
      vertex 78.5287 3.73035 10
      vertex 78.5287 3.73035 -10
    endloop
  endfacet
  facet normal 0.951031 0.309095 0
    outer loop
      vertex 78.3598 4.33548 10
      vertex 78.1656 4.933 -10
      vertex 78.1656 4.933 10
    endloop
  endfacet
  facet normal 0.951031 0.309095 0
    outer loop
      vertex 78.1656 4.933 -10
      vertex 78.3598 4.33548 10
      vertex 78.3598 4.33548 -10
    endloop
  endfacet
  facet normal 0.937281 0.348574 0
    outer loop
      vertex 78.1656 4.933 10
      vertex 77.9466 5.52187 -10
      vertex 77.9466 5.52187 10
    endloop
  endfacet
  facet normal 0.937281 0.348574 0
    outer loop
      vertex 77.9466 5.52187 -10
      vertex 78.1656 4.933 10
      vertex 78.1656 4.933 -10
    endloop
  endfacet
  facet normal 0.9219 0.387428 0
    outer loop
      vertex 77.9466 5.52187 10
      vertex 77.7032 6.10105 -10
      vertex 77.7032 6.10105 10
    endloop
  endfacet
  facet normal 0.9219 0.387428 0
    outer loop
      vertex 77.7032 6.10105 -10
      vertex 77.9466 5.52187 10
      vertex 77.9466 5.52187 -10
    endloop
  endfacet
  facet normal 0.904831 0.425771 0
    outer loop
      vertex 77.7032 6.10105 10
      vertex 77.4357 6.66953 -10
      vertex 77.4357 6.66953 10
    endloop
  endfacet
  facet normal 0.904831 0.425771 0
    outer loop
      vertex 77.4357 6.66953 -10
      vertex 77.7032 6.10105 10
      vertex 77.7032 6.10105 -10
    endloop
  endfacet
  facet normal 0.886189 0.463324 0
    outer loop
      vertex 77.4357 6.66953 10
      vertex 77.1446 7.22631 -10
      vertex 77.1446 7.22631 10
    endloop
  endfacet
  facet normal 0.886189 0.463324 0
    outer loop
      vertex 77.1446 7.22631 -10
      vertex 77.4357 6.66953 10
      vertex 77.4357 6.66953 -10
    endloop
  endfacet
  facet normal 0.86605 0.499957 0
    outer loop
      vertex 77.1446 7.22631 10
      vertex 76.8305 7.77041 -10
      vertex 76.8305 7.77041 10
    endloop
  endfacet
  facet normal 0.86605 0.499957 0
    outer loop
      vertex 76.8305 7.77041 -10
      vertex 77.1446 7.22631 10
      vertex 77.1446 7.22631 -10
    endloop
  endfacet
  facet normal 0.844285 0.535895 0
    outer loop
      vertex 76.8305 7.77041 10
      vertex 76.4938 8.30087 -10
      vertex 76.4938 8.30087 10
    endloop
  endfacet
  facet normal 0.844285 0.535895 0
    outer loop
      vertex 76.4938 8.30087 -10
      vertex 76.8305 7.77041 10
      vertex 76.8305 7.77041 -10
    endloop
  endfacet
  facet normal 0.821199 0.570642 0
    outer loop
      vertex 76.4938 8.30087 10
      vertex 76.1353 8.81678 -10
      vertex 76.1353 8.81678 10
    endloop
  endfacet
  facet normal 0.821199 0.570642 0
    outer loop
      vertex 76.1353 8.81678 -10
      vertex 76.4938 8.30087 10
      vertex 76.4938 8.30087 -10
    endloop
  endfacet
  facet normal 0.796495 0.604645 0
    outer loop
      vertex 76.1353 8.81678 10
      vertex 75.7554 9.31722 -10
      vertex 75.7554 9.31722 10
    endloop
  endfacet
  facet normal 0.796495 0.604645 0
    outer loop
      vertex 75.7554 9.31722 -10
      vertex 76.1353 8.81678 10
      vertex 76.1353 8.81678 -10
    endloop
  endfacet
  facet normal 0.770493 0.637448 0
    outer loop
      vertex 75.7554 9.31722 10
      vertex 75.3549 9.80131 -10
      vertex 75.3549 9.80131 10
    endloop
  endfacet
  facet normal 0.770493 0.637448 0
    outer loop
      vertex 75.3549 9.80131 -10
      vertex 75.7554 9.31722 10
      vertex 75.7554 9.31722 -10
    endloop
  endfacet
  facet normal 0.743137 0.66914 0
    outer loop
      vertex 75.3549 9.80131 10
      vertex 74.9345 10.2682 -10
      vertex 74.9345 10.2682 10
    endloop
  endfacet
  facet normal 0.743137 0.66914 0
    outer loop
      vertex 74.9345 10.2682 -10
      vertex 75.3549 9.80131 10
      vertex 75.3549 9.80131 -10
    endloop
  endfacet
  facet normal 0.714469 0.699667 0
    outer loop
      vertex 74.9345 10.2682 10
      vertex 74.4949 10.7171 -10
      vertex 74.4949 10.7171 10
    endloop
  endfacet
  facet normal 0.714469 0.699667 0
    outer loop
      vertex 74.4949 10.7171 -10
      vertex 74.9345 10.2682 10
      vertex 74.9345 10.2682 -10
    endloop
  endfacet
  facet normal 0.684634 0.728887 -0
    outer loop
      vertex 74.4949 10.7171 -10
      vertex 74.037 11.1472 10
      vertex 74.4949 10.7171 10
    endloop
  endfacet
  facet normal 0.684634 0.728887 0
    outer loop
      vertex 74.037 11.1472 10
      vertex 74.4949 10.7171 -10
      vertex 74.037 11.1472 -10
    endloop
  endfacet
  facet normal 0.653396 0.757016 -0
    outer loop
      vertex 74.037 11.1472 -10
      vertex 73.5614 11.5577 10
      vertex 74.037 11.1472 10
    endloop
  endfacet
  facet normal 0.653396 0.757016 0
    outer loop
      vertex 73.5614 11.5577 10
      vertex 74.037 11.1472 -10
      vertex 73.5614 11.5577 -10
    endloop
  endfacet
  facet normal 0.621078 0.783749 -0
    outer loop
      vertex 73.5614 11.5577 -10
      vertex 73.069 11.9479 10
      vertex 73.5614 11.5577 10
    endloop
  endfacet
  facet normal 0.621078 0.783749 0
    outer loop
      vertex 73.069 11.9479 10
      vertex 73.5614 11.5577 -10
      vertex 73.069 11.9479 -10
    endloop
  endfacet
  facet normal 0.587784 0.809018 -0
    outer loop
      vertex 73.069 11.9479 -10
      vertex 72.5607 12.3172 10
      vertex 73.069 11.9479 10
    endloop
  endfacet
  facet normal 0.587784 0.809018 0
    outer loop
      vertex 72.5607 12.3172 10
      vertex 73.069 11.9479 -10
      vertex 72.5607 12.3172 -10
    endloop
  endfacet
  facet normal 0.553414 0.832906 -0
    outer loop
      vertex 72.5607 12.3172 -10
      vertex 72.0374 12.6649 10
      vertex 72.5607 12.3172 10
    endloop
  endfacet
  facet normal 0.553414 0.832906 0
    outer loop
      vertex 72.0374 12.6649 10
      vertex 72.5607 12.3172 -10
      vertex 72.0374 12.6649 -10
    endloop
  endfacet
  facet normal 0.518072 0.855337 -0
    outer loop
      vertex 72.0374 12.6649 -10
      vertex 71.5 12.9904 10
      vertex 72.0374 12.6649 10
    endloop
  endfacet
  facet normal 0.518072 0.855337 0
    outer loop
      vertex 71.5 12.9904 10
      vertex 72.0374 12.6649 -10
      vertex 71.5 12.9904 -10
    endloop
  endfacet
  facet normal 0.48176 0.876303 -0
    outer loop
      vertex 71.5 12.9904 -10
      vertex 70.9494 13.2931 10
      vertex 71.5 12.9904 10
    endloop
  endfacet
  facet normal 0.48176 0.876303 0
    outer loop
      vertex 70.9494 13.2931 10
      vertex 71.5 12.9904 -10
      vertex 70.9494 13.2931 -10
    endloop
  endfacet
  facet normal 0.444601 0.895729 -0
    outer loop
      vertex 70.9494 13.2931 -10
      vertex 70.3867 13.5724 10
      vertex 70.9494 13.2931 10
    endloop
  endfacet
  facet normal 0.444601 0.895729 0
    outer loop
      vertex 70.3867 13.5724 10
      vertex 70.9494 13.2931 -10
      vertex 70.3867 13.5724 -10
    endloop
  endfacet
  facet normal 0.406655 0.913582 -0
    outer loop
      vertex 70.3867 13.5724 -10
      vertex 69.8127 13.8279 10
      vertex 70.3867 13.5724 10
    endloop
  endfacet
  facet normal 0.406655 0.913582 0
    outer loop
      vertex 69.8127 13.8279 10
      vertex 70.3867 13.5724 -10
      vertex 69.8127 13.8279 -10
    endloop
  endfacet
  facet normal 0.368177 0.929756 -0
    outer loop
      vertex 69.8127 13.8279 -10
      vertex 69.2286 14.0592 10
      vertex 69.8127 13.8279 10
    endloop
  endfacet
  facet normal 0.368177 0.929756 0
    outer loop
      vertex 69.2286 14.0592 10
      vertex 69.8127 13.8279 -10
      vertex 69.2286 14.0592 -10
    endloop
  endfacet
  facet normal 0.328854 0.944381 -0
    outer loop
      vertex 69.2286 14.0592 -10
      vertex 68.6353 14.2658 10
      vertex 69.2286 14.0592 10
    endloop
  endfacet
  facet normal 0.328854 0.944381 0
    outer loop
      vertex 68.6353 14.2658 10
      vertex 69.2286 14.0592 -10
      vertex 68.6353 14.2658 -10
    endloop
  endfacet
  facet normal 0.289027 0.957321 -0
    outer loop
      vertex 68.6353 14.2658 -10
      vertex 68.0338 14.4474 10
      vertex 68.6353 14.2658 10
    endloop
  endfacet
  facet normal 0.289027 0.957321 0
    outer loop
      vertex 68.0338 14.4474 10
      vertex 68.6353 14.2658 -10
      vertex 68.0338 14.4474 -10
    endloop
  endfacet
  facet normal 0.248785 0.968559 -0
    outer loop
      vertex 68.0338 14.4474 -10
      vertex 67.4253 14.6037 10
      vertex 68.0338 14.4474 10
    endloop
  endfacet
  facet normal 0.248785 0.968559 0
    outer loop
      vertex 67.4253 14.6037 10
      vertex 68.0338 14.4474 -10
      vertex 67.4253 14.6037 -10
    endloop
  endfacet
  facet normal 0.207855 0.97816 -0
    outer loop
      vertex 67.4253 14.6037 -10
      vertex 66.8107 14.7343 10
      vertex 67.4253 14.6037 10
    endloop
  endfacet
  facet normal 0.207855 0.97816 0
    outer loop
      vertex 66.8107 14.7343 10
      vertex 67.4253 14.6037 -10
      vertex 66.8107 14.7343 -10
    endloop
  endfacet
  facet normal 0.166799 0.985991 -0
    outer loop
      vertex 66.8107 14.7343 -10
      vertex 66.1912 14.8391 10
      vertex 66.8107 14.7343 10
    endloop
  endfacet
  facet normal 0.166799 0.985991 0
    outer loop
      vertex 66.1912 14.8391 10
      vertex 66.8107 14.7343 -10
      vertex 66.1912 14.8391 -10
    endloop
  endfacet
  facet normal 0.125269 0.992123 -0
    outer loop
      vertex 66.1912 14.8391 -10
      vertex 65.5679 14.9178 10
      vertex 66.1912 14.8391 10
    endloop
  endfacet
  facet normal 0.125269 0.992123 0
    outer loop
      vertex 65.5679 14.9178 10
      vertex 66.1912 14.8391 -10
      vertex 65.5679 14.9178 -10
    endloop
  endfacet
  facet normal 0.0837305 0.996488 -0
    outer loop
      vertex 65.5679 14.9178 -10
      vertex 64.9419 14.9704 10
      vertex 65.5679 14.9178 10
    endloop
  endfacet
  facet normal 0.0837305 0.996488 0
    outer loop
      vertex 64.9419 14.9704 10
      vertex 65.5679 14.9178 -10
      vertex 64.9419 14.9704 -10
    endloop
  endfacet
  facet normal 0.0418556 0.999124 -0
    outer loop
      vertex 64.9419 14.9704 -10
      vertex 64.3141 14.9967 10
      vertex 64.9419 14.9704 10
    endloop
  endfacet
  facet normal 0.0418556 0.999124 0
    outer loop
      vertex 64.3141 14.9967 10
      vertex 64.9419 14.9704 -10
      vertex 64.3141 14.9967 -10
    endloop
  endfacet
  facet normal 0 1 -0
    outer loop
      vertex 64.3141 14.9967 -10
      vertex 63.6859 14.9967 10
      vertex 64.3141 14.9967 10
    endloop
  endfacet
  facet normal 0 1 0
    outer loop
      vertex 63.6859 14.9967 10
      vertex 64.3141 14.9967 -10
      vertex 63.6859 14.9967 -10
    endloop
  endfacet
  facet normal -0.0418556 0.999124 0
    outer loop
      vertex 63.6859 14.9967 -10
      vertex 63.0581 14.9704 10
      vertex 63.6859 14.9967 10
    endloop
  endfacet
  facet normal -0.0418556 0.999124 0
    outer loop
      vertex 63.0581 14.9704 10
      vertex 63.6859 14.9967 -10
      vertex 63.0581 14.9704 -10
    endloop
  endfacet
  facet normal -0.0837305 0.996488 0
    outer loop
      vertex 63.0581 14.9704 -10
      vertex 62.4321 14.9178 10
      vertex 63.0581 14.9704 10
    endloop
  endfacet
  facet normal -0.0837305 0.996488 0
    outer loop
      vertex 62.4321 14.9178 10
      vertex 63.0581 14.9704 -10
      vertex 62.4321 14.9178 -10
    endloop
  endfacet
  facet normal -0.125269 0.992123 0
    outer loop
      vertex 62.4321 14.9178 -10
      vertex 61.8088 14.8391 10
      vertex 62.4321 14.9178 10
    endloop
  endfacet
  facet normal -0.125269 0.992123 0
    outer loop
      vertex 61.8088 14.8391 10
      vertex 62.4321 14.9178 -10
      vertex 61.8088 14.8391 -10
    endloop
  endfacet
  facet normal -0.166799 0.985991 0
    outer loop
      vertex 61.8088 14.8391 -10
      vertex 61.1893 14.7343 10
      vertex 61.8088 14.8391 10
    endloop
  endfacet
  facet normal -0.166799 0.985991 0
    outer loop
      vertex 61.1893 14.7343 10
      vertex 61.8088 14.8391 -10
      vertex 61.1893 14.7343 -10
    endloop
  endfacet
  facet normal -0.207855 0.97816 0
    outer loop
      vertex 61.1893 14.7343 -10
      vertex 60.5747 14.6037 10
      vertex 61.1893 14.7343 10
    endloop
  endfacet
  facet normal -0.207855 0.97816 0
    outer loop
      vertex 60.5747 14.6037 10
      vertex 61.1893 14.7343 -10
      vertex 60.5747 14.6037 -10
    endloop
  endfacet
  facet normal -0.248785 0.968559 0
    outer loop
      vertex 60.5747 14.6037 -10
      vertex 59.9662 14.4474 10
      vertex 60.5747 14.6037 10
    endloop
  endfacet
  facet normal -0.248785 0.968559 0
    outer loop
      vertex 59.9662 14.4474 10
      vertex 60.5747 14.6037 -10
      vertex 59.9662 14.4474 -10
    endloop
  endfacet
  facet normal -0.289027 0.957321 0
    outer loop
      vertex 59.9662 14.4474 -10
      vertex 59.3647 14.2658 10
      vertex 59.9662 14.4474 10
    endloop
  endfacet
  facet normal -0.289027 0.957321 0
    outer loop
      vertex 59.3647 14.2658 10
      vertex 59.9662 14.4474 -10
      vertex 59.3647 14.2658 -10
    endloop
  endfacet
  facet normal -0.328854 0.944381 0
    outer loop
      vertex 59.3647 14.2658 -10
      vertex 58.7714 14.0592 10
      vertex 59.3647 14.2658 10
    endloop
  endfacet
  facet normal -0.328854 0.944381 0
    outer loop
      vertex 58.7714 14.0592 10
      vertex 59.3647 14.2658 -10
      vertex 58.7714 14.0592 -10
    endloop
  endfacet
  facet normal -0.368177 0.929756 0
    outer loop
      vertex 58.7714 14.0592 -10
      vertex 58.1873 13.8279 10
      vertex 58.7714 14.0592 10
    endloop
  endfacet
  facet normal -0.368177 0.929756 0
    outer loop
      vertex 58.1873 13.8279 10
      vertex 58.7714 14.0592 -10
      vertex 58.1873 13.8279 -10
    endloop
  endfacet
  facet normal -0.406655 0.913582 0
    outer loop
      vertex 58.1873 13.8279 -10
      vertex 57.6133 13.5724 10
      vertex 58.1873 13.8279 10
    endloop
  endfacet
  facet normal -0.406655 0.913582 0
    outer loop
      vertex 57.6133 13.5724 10
      vertex 58.1873 13.8279 -10
      vertex 57.6133 13.5724 -10
    endloop
  endfacet
  facet normal -0.444601 0.895729 0
    outer loop
      vertex 57.6133 13.5724 -10
      vertex 57.0506 13.2931 10
      vertex 57.6133 13.5724 10
    endloop
  endfacet
  facet normal -0.444601 0.895729 0
    outer loop
      vertex 57.0506 13.2931 10
      vertex 57.6133 13.5724 -10
      vertex 57.0506 13.2931 -10
    endloop
  endfacet
  facet normal -0.48176 0.876303 0
    outer loop
      vertex 57.0506 13.2931 -10
      vertex 56.5 12.9904 10
      vertex 57.0506 13.2931 10
    endloop
  endfacet
  facet normal -0.48176 0.876303 0
    outer loop
      vertex 56.5 12.9904 10
      vertex 57.0506 13.2931 -10
      vertex 56.5 12.9904 -10
    endloop
  endfacet
  facet normal -0.518072 0.855337 0
    outer loop
      vertex 56.5 12.9904 -10
      vertex 55.9626 12.6649 10
      vertex 56.5 12.9904 10
    endloop
  endfacet
  facet normal -0.518072 0.855337 0
    outer loop
      vertex 55.9626 12.6649 10
      vertex 56.5 12.9904 -10
      vertex 55.9626 12.6649 -10
    endloop
  endfacet
  facet normal -0.553414 0.832906 0
    outer loop
      vertex 55.9626 12.6649 -10
      vertex 55.4393 12.3172 10
      vertex 55.9626 12.6649 10
    endloop
  endfacet
  facet normal -0.553414 0.832906 0
    outer loop
      vertex 55.4393 12.3172 10
      vertex 55.9626 12.6649 -10
      vertex 55.4393 12.3172 -10
    endloop
  endfacet
  facet normal -0.587784 0.809018 0
    outer loop
      vertex 55.4393 12.3172 -10
      vertex 54.931 11.9479 10
      vertex 55.4393 12.3172 10
    endloop
  endfacet
  facet normal -0.587784 0.809018 0
    outer loop
      vertex 54.931 11.9479 10
      vertex 55.4393 12.3172 -10
      vertex 54.931 11.9479 -10
    endloop
  endfacet
  facet normal -0.621078 0.783749 0
    outer loop
      vertex 54.931 11.9479 -10
      vertex 54.4386 11.5577 10
      vertex 54.931 11.9479 10
    endloop
  endfacet
  facet normal -0.621078 0.783749 0
    outer loop
      vertex 54.4386 11.5577 10
      vertex 54.931 11.9479 -10
      vertex 54.4386 11.5577 -10
    endloop
  endfacet
  facet normal -0.653396 0.757016 0
    outer loop
      vertex 54.4386 11.5577 -10
      vertex 53.963 11.1472 10
      vertex 54.4386 11.5577 10
    endloop
  endfacet
  facet normal -0.653396 0.757016 0
    outer loop
      vertex 53.963 11.1472 10
      vertex 54.4386 11.5577 -10
      vertex 53.963 11.1472 -10
    endloop
  endfacet
  facet normal -0.684634 0.728887 0
    outer loop
      vertex 53.963 11.1472 -10
      vertex 53.5051 10.7171 10
      vertex 53.963 11.1472 10
    endloop
  endfacet
  facet normal -0.684634 0.728887 0
    outer loop
      vertex 53.5051 10.7171 10
      vertex 53.963 11.1472 -10
      vertex 53.5051 10.7171 -10
    endloop
  endfacet
  facet normal -0.714469 0.699667 0
    outer loop
      vertex 53.0655 10.2682 -10
      vertex 53.5051 10.7171 10
      vertex 53.5051 10.7171 -10
    endloop
  endfacet
  facet normal -0.714469 0.699667 0
    outer loop
      vertex 53.5051 10.7171 10
      vertex 53.0655 10.2682 -10
      vertex 53.0655 10.2682 10
    endloop
  endfacet
  facet normal -0.743137 0.66914 0
    outer loop
      vertex 52.6451 9.80131 -10
      vertex 53.0655 10.2682 10
      vertex 53.0655 10.2682 -10
    endloop
  endfacet
  facet normal -0.743137 0.66914 0
    outer loop
      vertex 53.0655 10.2682 10
      vertex 52.6451 9.80131 -10
      vertex 52.6451 9.80131 10
    endloop
  endfacet
  facet normal -0.770493 0.637448 0
    outer loop
      vertex 52.2446 9.31722 -10
      vertex 52.6451 9.80131 10
      vertex 52.6451 9.80131 -10
    endloop
  endfacet
  facet normal -0.770493 0.637448 0
    outer loop
      vertex 52.6451 9.80131 10
      vertex 52.2446 9.31722 -10
      vertex 52.2446 9.31722 10
    endloop
  endfacet
  facet normal -0.796495 0.604645 0
    outer loop
      vertex 51.8647 8.81678 -10
      vertex 52.2446 9.31722 10
      vertex 52.2446 9.31722 -10
    endloop
  endfacet
  facet normal -0.796495 0.604645 0
    outer loop
      vertex 52.2446 9.31722 10
      vertex 51.8647 8.81678 -10
      vertex 51.8647 8.81678 10
    endloop
  endfacet
  facet normal -0.821199 0.570642 0
    outer loop
      vertex 51.5062 8.30087 -10
      vertex 51.8647 8.81678 10
      vertex 51.8647 8.81678 -10
    endloop
  endfacet
  facet normal -0.821199 0.570642 0
    outer loop
      vertex 51.8647 8.81678 10
      vertex 51.5062 8.30087 -10
      vertex 51.5062 8.30087 10
    endloop
  endfacet
  facet normal -0.844285 0.535895 0
    outer loop
      vertex 51.1695 7.77041 -10
      vertex 51.5062 8.30087 10
      vertex 51.5062 8.30087 -10
    endloop
  endfacet
  facet normal -0.844285 0.535895 0
    outer loop
      vertex 51.5062 8.30087 10
      vertex 51.1695 7.77041 -10
      vertex 51.1695 7.77041 10
    endloop
  endfacet
  facet normal -0.86605 0.499957 0
    outer loop
      vertex 50.8554 7.22631 -10
      vertex 51.1695 7.77041 10
      vertex 51.1695 7.77041 -10
    endloop
  endfacet
  facet normal -0.86605 0.499957 0
    outer loop
      vertex 51.1695 7.77041 10
      vertex 50.8554 7.22631 -10
      vertex 50.8554 7.22631 10
    endloop
  endfacet
  facet normal -0.886189 0.463324 0
    outer loop
      vertex 50.5643 6.66953 -10
      vertex 50.8554 7.22631 10
      vertex 50.8554 7.22631 -10
    endloop
  endfacet
  facet normal -0.886189 0.463324 0
    outer loop
      vertex 50.8554 7.22631 10
      vertex 50.5643 6.66953 -10
      vertex 50.5643 6.66953 10
    endloop
  endfacet
  facet normal -0.904831 0.425771 0
    outer loop
      vertex 50.2968 6.10105 -10
      vertex 50.5643 6.66953 10
      vertex 50.5643 6.66953 -10
    endloop
  endfacet
  facet normal -0.904831 0.425771 0
    outer loop
      vertex 50.5643 6.66953 10
      vertex 50.2968 6.10105 -10
      vertex 50.2968 6.10105 10
    endloop
  endfacet
  facet normal -0.9219 0.387428 0
    outer loop
      vertex 50.0534 5.52187 -10
      vertex 50.2968 6.10105 10
      vertex 50.2968 6.10105 -10
    endloop
  endfacet
  facet normal -0.9219 0.387428 0
    outer loop
      vertex 50.2968 6.10105 10
      vertex 50.0534 5.52187 -10
      vertex 50.0534 5.52187 10
    endloop
  endfacet
  facet normal -0.937281 0.348574 0
    outer loop
      vertex 49.8344 4.933 -10
      vertex 50.0534 5.52187 10
      vertex 50.0534 5.52187 -10
    endloop
  endfacet
  facet normal -0.937281 0.348574 0
    outer loop
      vertex 50.0534 5.52187 10
      vertex 49.8344 4.933 -10
      vertex 49.8344 4.933 10
    endloop
  endfacet
  facet normal -0.951031 0.309095 0
    outer loop
      vertex 49.6402 4.33548 -10
      vertex 49.8344 4.933 10
      vertex 49.8344 4.933 -10
    endloop
  endfacet
  facet normal -0.951031 0.309095 0
    outer loop
      vertex 49.8344 4.933 10
      vertex 49.6402 4.33548 -10
      vertex 49.6402 4.33548 10
    endloop
  endfacet
  facet normal -0.963185 0.268838 0
    outer loop
      vertex 49.4713 3.73035 -10
      vertex 49.6402 4.33548 10
      vertex 49.6402 4.33548 -10
    endloop
  endfacet
  facet normal -0.963185 0.268838 0
    outer loop
      vertex 49.6402 4.33548 10
      vertex 49.4713 3.73035 -10
      vertex 49.4713 3.73035 10
    endloop
  endfacet
  facet normal -0.973567 0.228402 0
    outer loop
      vertex 49.3278 3.11868 -10
      vertex 49.4713 3.73035 10
      vertex 49.4713 3.73035 -10
    endloop
  endfacet
  facet normal -0.973567 0.228402 0
    outer loop
      vertex 49.4713 3.73035 10
      vertex 49.3278 3.11868 -10
      vertex 49.3278 3.11868 10
    endloop
  endfacet
  facet normal -0.982295 0.187339 0
    outer loop
      vertex 49.2101 2.50153 -10
      vertex 49.3278 3.11868 10
      vertex 49.3278 3.11868 -10
    endloop
  endfacet
  facet normal -0.982295 0.187339 0
    outer loop
      vertex 49.3278 3.11868 10
      vertex 49.2101 2.50153 -10
      vertex 49.2101 2.50153 10
    endloop
  endfacet
  facet normal -0.989268 0.146115 0
    outer loop
      vertex 49.1183 1.88 -10
      vertex 49.2101 2.50153 10
      vertex 49.2101 2.50153 -10
    endloop
  endfacet
  facet normal -0.989268 0.146115 0
    outer loop
      vertex 49.2101 2.50153 10
      vertex 49.1183 1.88 -10
      vertex 49.1183 1.88 10
    endloop
  endfacet
  facet normal -0.994517 0.104572 0
    outer loop
      vertex 49.0526 1.25517 -10
      vertex 49.1183 1.88 10
      vertex 49.1183 1.88 -10
    endloop
  endfacet
  facet normal -0.994517 0.104572 0
    outer loop
      vertex 49.1183 1.88 10
      vertex 49.0526 1.25517 -10
      vertex 49.0526 1.25517 10
    endloop
  endfacet
  facet normal -0.998032 0.0627117 0
    outer loop
      vertex 49.0132 0.628135 -10
      vertex 49.0526 1.25517 10
      vertex 49.0526 1.25517 -10
    endloop
  endfacet
  facet normal -0.998032 0.0627117 0
    outer loop
      vertex 49.0526 1.25517 10
      vertex 49.0132 0.628135 -10
      vertex 49.0132 0.628135 10
    endloop
  endfacet
  facet normal -0.999779 0.02101 0
    outer loop
      vertex 49 0 -10
      vertex 49.0132 0.628135 10
      vertex 49.0132 0.628135 -10
    endloop
  endfacet
  facet normal -0.999779 0.02101 0
    outer loop
      vertex 49.0132 0.628135 10
      vertex 49 0 -10
      vertex 49 0 10
    endloop
  endfacet
  facet normal -0.999779 -0.02101 0
    outer loop
      vertex 49.0132 -0.628135 -10
      vertex 49 0 10
      vertex 49 0 -10
    endloop
  endfacet
  facet normal -0.999779 -0.02101 0
    outer loop
      vertex 49 0 10
      vertex 49.0132 -0.628135 -10
      vertex 49.0132 -0.628135 10
    endloop
  endfacet
  facet normal -0.998032 -0.0627117 0
    outer loop
      vertex 49.0526 -1.25517 -10
      vertex 49.0132 -0.628135 10
      vertex 49.0132 -0.628135 -10
    endloop
  endfacet
  facet normal -0.998032 -0.0627117 0
    outer loop
      vertex 49.0132 -0.628135 10
      vertex 49.0526 -1.25517 -10
      vertex 49.0526 -1.25517 10
    endloop
  endfacet
  facet normal -0.994517 -0.104572 0
    outer loop
      vertex 49.1183 -1.88 -10
      vertex 49.0526 -1.25517 10
      vertex 49.0526 -1.25517 -10
    endloop
  endfacet
  facet normal -0.994517 -0.104572 0
    outer loop
      vertex 49.0526 -1.25517 10
      vertex 49.1183 -1.88 -10
      vertex 49.1183 -1.88 10
    endloop
  endfacet
  facet normal -0.989268 -0.146115 0
    outer loop
      vertex 49.2101 -2.50153 -10
      vertex 49.1183 -1.88 10
      vertex 49.1183 -1.88 -10
    endloop
  endfacet
  facet normal -0.989268 -0.146115 0
    outer loop
      vertex 49.1183 -1.88 10
      vertex 49.2101 -2.50153 -10
      vertex 49.2101 -2.50153 10
    endloop
  endfacet
  facet normal -0.982295 -0.187339 0
    outer loop
      vertex 49.3278 -3.11868 -10
      vertex 49.2101 -2.50153 10
      vertex 49.2101 -2.50153 -10
    endloop
  endfacet
  facet normal -0.982295 -0.187339 0
    outer loop
      vertex 49.2101 -2.50153 10
      vertex 49.3278 -3.11868 -10
      vertex 49.3278 -3.11868 10
    endloop
  endfacet
  facet normal -0.973567 -0.228402 0
    outer loop
      vertex 49.4713 -3.73035 -10
      vertex 49.3278 -3.11868 10
      vertex 49.3278 -3.11868 -10
    endloop
  endfacet
  facet normal -0.973567 -0.228402 0
    outer loop
      vertex 49.3278 -3.11868 10
      vertex 49.4713 -3.73035 -10
      vertex 49.4713 -3.73035 10
    endloop
  endfacet
  facet normal -0.963185 -0.268838 0
    outer loop
      vertex 49.6402 -4.33548 -10
      vertex 49.4713 -3.73035 10
      vertex 49.4713 -3.73035 -10
    endloop
  endfacet
  facet normal -0.963185 -0.268838 0
    outer loop
      vertex 49.4713 -3.73035 10
      vertex 49.6402 -4.33548 -10
      vertex 49.6402 -4.33548 10
    endloop
  endfacet
  facet normal -0.951031 -0.309095 0
    outer loop
      vertex 49.8344 -4.933 -10
      vertex 49.6402 -4.33548 10
      vertex 49.6402 -4.33548 -10
    endloop
  endfacet
  facet normal -0.951031 -0.309095 0
    outer loop
      vertex 49.6402 -4.33548 10
      vertex 49.8344 -4.933 -10
      vertex 49.8344 -4.933 10
    endloop
  endfacet
  facet normal -0.937281 -0.348574 0
    outer loop
      vertex 50.0534 -5.52187 -10
      vertex 49.8344 -4.933 10
      vertex 49.8344 -4.933 -10
    endloop
  endfacet
  facet normal -0.937281 -0.348574 0
    outer loop
      vertex 49.8344 -4.933 10
      vertex 50.0534 -5.52187 -10
      vertex 50.0534 -5.52187 10
    endloop
  endfacet
  facet normal -0.9219 -0.387428 0
    outer loop
      vertex 50.2968 -6.10105 -10
      vertex 50.0534 -5.52187 10
      vertex 50.0534 -5.52187 -10
    endloop
  endfacet
  facet normal -0.9219 -0.387428 0
    outer loop
      vertex 50.0534 -5.52187 10
      vertex 50.2968 -6.10105 -10
      vertex 50.2968 -6.10105 10
    endloop
  endfacet
  facet normal -0.904831 -0.425771 0
    outer loop
      vertex 50.5643 -6.66953 -10
      vertex 50.2968 -6.10105 10
      vertex 50.2968 -6.10105 -10
    endloop
  endfacet
  facet normal -0.904831 -0.425771 0
    outer loop
      vertex 50.2968 -6.10105 10
      vertex 50.5643 -6.66953 -10
      vertex 50.5643 -6.66953 10
    endloop
  endfacet
  facet normal -0.886189 -0.463324 0
    outer loop
      vertex 50.8554 -7.22631 -10
      vertex 50.5643 -6.66953 10
      vertex 50.5643 -6.66953 -10
    endloop
  endfacet
  facet normal -0.886189 -0.463324 0
    outer loop
      vertex 50.5643 -6.66953 10
      vertex 50.8554 -7.22631 -10
      vertex 50.8554 -7.22631 10
    endloop
  endfacet
  facet normal -0.86605 -0.499957 0
    outer loop
      vertex 51.1695 -7.77041 -10
      vertex 50.8554 -7.22631 10
      vertex 50.8554 -7.22631 -10
    endloop
  endfacet
  facet normal -0.86605 -0.499957 0
    outer loop
      vertex 50.8554 -7.22631 10
      vertex 51.1695 -7.77041 -10
      vertex 51.1695 -7.77041 10
    endloop
  endfacet
  facet normal -0.844285 -0.535895 0
    outer loop
      vertex 51.5062 -8.30087 -10
      vertex 51.1695 -7.77041 10
      vertex 51.1695 -7.77041 -10
    endloop
  endfacet
  facet normal -0.844285 -0.535895 0
    outer loop
      vertex 51.1695 -7.77041 10
      vertex 51.5062 -8.30087 -10
      vertex 51.5062 -8.30087 10
    endloop
  endfacet
  facet normal -0.821199 -0.570642 0
    outer loop
      vertex 51.8647 -8.81678 -10
      vertex 51.5062 -8.30087 10
      vertex 51.5062 -8.30087 -10
    endloop
  endfacet
  facet normal -0.821199 -0.570642 0
    outer loop
      vertex 51.5062 -8.30087 10
      vertex 51.8647 -8.81678 -10
      vertex 51.8647 -8.81678 10
    endloop
  endfacet
  facet normal -0.796495 -0.604645 0
    outer loop
      vertex 52.2446 -9.31722 -10
      vertex 51.8647 -8.81678 10
      vertex 51.8647 -8.81678 -10
    endloop
  endfacet
  facet normal -0.796495 -0.604645 0
    outer loop
      vertex 51.8647 -8.81678 10
      vertex 52.2446 -9.31722 -10
      vertex 52.2446 -9.31722 10
    endloop
  endfacet
  facet normal -0.770493 -0.637448 0
    outer loop
      vertex 52.6451 -9.80131 -10
      vertex 52.2446 -9.31722 10
      vertex 52.2446 -9.31722 -10
    endloop
  endfacet
  facet normal -0.770493 -0.637448 0
    outer loop
      vertex 52.2446 -9.31722 10
      vertex 52.6451 -9.80131 -10
      vertex 52.6451 -9.80131 10
    endloop
  endfacet
  facet normal -0.743137 -0.66914 0
    outer loop
      vertex 53.0655 -10.2682 -10
      vertex 52.6451 -9.80131 10
      vertex 52.6451 -9.80131 -10
    endloop
  endfacet
  facet normal -0.743137 -0.66914 0
    outer loop
      vertex 52.6451 -9.80131 10
      vertex 53.0655 -10.2682 -10
      vertex 53.0655 -10.2682 10
    endloop
  endfacet
  facet normal -0.714469 -0.699667 0
    outer loop
      vertex 53.5051 -10.7171 -10
      vertex 53.0655 -10.2682 10
      vertex 53.0655 -10.2682 -10
    endloop
  endfacet
  facet normal -0.714469 -0.699667 0
    outer loop
      vertex 53.0655 -10.2682 10
      vertex 53.5051 -10.7171 -10
      vertex 53.5051 -10.7171 10
    endloop
  endfacet
  facet normal -0.684634 -0.728887 0
    outer loop
      vertex 53.5051 -10.7171 -10
      vertex 53.963 -11.1472 10
      vertex 53.5051 -10.7171 10
    endloop
  endfacet
  facet normal -0.684634 -0.728887 -0
    outer loop
      vertex 53.963 -11.1472 10
      vertex 53.5051 -10.7171 -10
      vertex 53.963 -11.1472 -10
    endloop
  endfacet
  facet normal -0.653396 -0.757016 0
    outer loop
      vertex 53.963 -11.1472 -10
      vertex 54.4386 -11.5577 10
      vertex 53.963 -11.1472 10
    endloop
  endfacet
  facet normal -0.653396 -0.757016 -0
    outer loop
      vertex 54.4386 -11.5577 10
      vertex 53.963 -11.1472 -10
      vertex 54.4386 -11.5577 -10
    endloop
  endfacet
  facet normal -0.621078 -0.783749 0
    outer loop
      vertex 54.4386 -11.5577 -10
      vertex 54.931 -11.9479 10
      vertex 54.4386 -11.5577 10
    endloop
  endfacet
  facet normal -0.621078 -0.783749 -0
    outer loop
      vertex 54.931 -11.9479 10
      vertex 54.4386 -11.5577 -10
      vertex 54.931 -11.9479 -10
    endloop
  endfacet
  facet normal -0.587784 -0.809018 0
    outer loop
      vertex 54.931 -11.9479 -10
      vertex 55.4393 -12.3172 10
      vertex 54.931 -11.9479 10
    endloop
  endfacet
  facet normal -0.587784 -0.809018 -0
    outer loop
      vertex 55.4393 -12.3172 10
      vertex 54.931 -11.9479 -10
      vertex 55.4393 -12.3172 -10
    endloop
  endfacet
  facet normal -0.553414 -0.832906 0
    outer loop
      vertex 55.4393 -12.3172 -10
      vertex 55.9626 -12.6649 10
      vertex 55.4393 -12.3172 10
    endloop
  endfacet
  facet normal -0.553414 -0.832906 -0
    outer loop
      vertex 55.9626 -12.6649 10
      vertex 55.4393 -12.3172 -10
      vertex 55.9626 -12.6649 -10
    endloop
  endfacet
  facet normal -0.518072 -0.855337 0
    outer loop
      vertex 55.9626 -12.6649 -10
      vertex 56.5 -12.9904 10
      vertex 55.9626 -12.6649 10
    endloop
  endfacet
  facet normal -0.518072 -0.855337 -0
    outer loop
      vertex 56.5 -12.9904 10
      vertex 55.9626 -12.6649 -10
      vertex 56.5 -12.9904 -10
    endloop
  endfacet
  facet normal -0.48176 -0.876303 0
    outer loop
      vertex 56.5 -12.9904 -10
      vertex 57.0506 -13.2931 10
      vertex 56.5 -12.9904 10
    endloop
  endfacet
  facet normal -0.48176 -0.876303 -0
    outer loop
      vertex 57.0506 -13.2931 10
      vertex 56.5 -12.9904 -10
      vertex 57.0506 -13.2931 -10
    endloop
  endfacet
  facet normal -0.444601 -0.895729 0
    outer loop
      vertex 57.0506 -13.2931 -10
      vertex 57.6133 -13.5724 10
      vertex 57.0506 -13.2931 10
    endloop
  endfacet
  facet normal -0.444601 -0.895729 -0
    outer loop
      vertex 57.6133 -13.5724 10
      vertex 57.0506 -13.2931 -10
      vertex 57.6133 -13.5724 -10
    endloop
  endfacet
  facet normal -0.406655 -0.913582 0
    outer loop
      vertex 57.6133 -13.5724 -10
      vertex 58.1873 -13.8279 10
      vertex 57.6133 -13.5724 10
    endloop
  endfacet
  facet normal -0.406655 -0.913582 -0
    outer loop
      vertex 58.1873 -13.8279 10
      vertex 57.6133 -13.5724 -10
      vertex 58.1873 -13.8279 -10
    endloop
  endfacet
  facet normal -0.368177 -0.929756 0
    outer loop
      vertex 58.1873 -13.8279 -10
      vertex 58.7714 -14.0592 10
      vertex 58.1873 -13.8279 10
    endloop
  endfacet
  facet normal -0.368177 -0.929756 -0
    outer loop
      vertex 58.7714 -14.0592 10
      vertex 58.1873 -13.8279 -10
      vertex 58.7714 -14.0592 -10
    endloop
  endfacet
  facet normal -0.328854 -0.944381 0
    outer loop
      vertex 58.7714 -14.0592 -10
      vertex 59.3647 -14.2658 10
      vertex 58.7714 -14.0592 10
    endloop
  endfacet
  facet normal -0.328854 -0.944381 -0
    outer loop
      vertex 59.3647 -14.2658 10
      vertex 58.7714 -14.0592 -10
      vertex 59.3647 -14.2658 -10
    endloop
  endfacet
  facet normal -0.289027 -0.957321 0
    outer loop
      vertex 59.3647 -14.2658 -10
      vertex 59.9662 -14.4474 10
      vertex 59.3647 -14.2658 10
    endloop
  endfacet
  facet normal -0.289027 -0.957321 -0
    outer loop
      vertex 59.9662 -14.4474 10
      vertex 59.3647 -14.2658 -10
      vertex 59.9662 -14.4474 -10
    endloop
  endfacet
  facet normal -0.248785 -0.968559 0
    outer loop
      vertex 59.9662 -14.4474 -10
      vertex 60.5747 -14.6037 10
      vertex 59.9662 -14.4474 10
    endloop
  endfacet
  facet normal -0.248785 -0.968559 -0
    outer loop
      vertex 60.5747 -14.6037 10
      vertex 59.9662 -14.4474 -10
      vertex 60.5747 -14.6037 -10
    endloop
  endfacet
  facet normal -0.207855 -0.97816 0
    outer loop
      vertex 60.5747 -14.6037 -10
      vertex 61.1893 -14.7343 10
      vertex 60.5747 -14.6037 10
    endloop
  endfacet
  facet normal -0.207855 -0.97816 -0
    outer loop
      vertex 61.1893 -14.7343 10
      vertex 60.5747 -14.6037 -10
      vertex 61.1893 -14.7343 -10
    endloop
  endfacet
  facet normal -0.166799 -0.985991 0
    outer loop
      vertex 61.1893 -14.7343 -10
      vertex 61.8088 -14.8391 10
      vertex 61.1893 -14.7343 10
    endloop
  endfacet
  facet normal -0.166799 -0.985991 -0
    outer loop
      vertex 61.8088 -14.8391 10
      vertex 61.1893 -14.7343 -10
      vertex 61.8088 -14.8391 -10
    endloop
  endfacet
  facet normal -0.125269 -0.992123 0
    outer loop
      vertex 61.8088 -14.8391 -10
      vertex 62.4321 -14.9178 10
      vertex 61.8088 -14.8391 10
    endloop
  endfacet
  facet normal -0.125269 -0.992123 -0
    outer loop
      vertex 62.4321 -14.9178 10
      vertex 61.8088 -14.8391 -10
      vertex 62.4321 -14.9178 -10
    endloop
  endfacet
  facet normal -0.0837305 -0.996488 0
    outer loop
      vertex 62.4321 -14.9178 -10
      vertex 63.0581 -14.9704 10
      vertex 62.4321 -14.9178 10
    endloop
  endfacet
  facet normal -0.0837305 -0.996488 -0
    outer loop
      vertex 63.0581 -14.9704 10
      vertex 62.4321 -14.9178 -10
      vertex 63.0581 -14.9704 -10
    endloop
  endfacet
  facet normal -0.0418556 -0.999124 0
    outer loop
      vertex 63.0581 -14.9704 -10
      vertex 63.6859 -14.9967 10
      vertex 63.0581 -14.9704 10
    endloop
  endfacet
  facet normal -0.0418556 -0.999124 -0
    outer loop
      vertex 63.6859 -14.9967 10
      vertex 63.0581 -14.9704 -10
      vertex 63.6859 -14.9967 -10
    endloop
  endfacet
  facet normal 0 -1 0
    outer loop
      vertex 63.6859 -14.9967 -10
      vertex 64.3141 -14.9967 10
      vertex 63.6859 -14.9967 10
    endloop
  endfacet
  facet normal 0 -1 -0
    outer loop
      vertex 64.3141 -14.9967 10
      vertex 63.6859 -14.9967 -10
      vertex 64.3141 -14.9967 -10
    endloop
  endfacet
  facet normal 0.0418556 -0.999124 0
    outer loop
      vertex 64.3141 -14.9967 -10
      vertex 64.9419 -14.9704 10
      vertex 64.3141 -14.9967 10
    endloop
  endfacet
  facet normal 0.0418556 -0.999124 0
    outer loop
      vertex 64.9419 -14.9704 10
      vertex 64.3141 -14.9967 -10
      vertex 64.9419 -14.9704 -10
    endloop
  endfacet
  facet normal 0.0837305 -0.996488 0
    outer loop
      vertex 64.9419 -14.9704 -10
      vertex 65.5679 -14.9178 10
      vertex 64.9419 -14.9704 10
    endloop
  endfacet
  facet normal 0.0837305 -0.996488 0
    outer loop
      vertex 65.5679 -14.9178 10
      vertex 64.9419 -14.9704 -10
      vertex 65.5679 -14.9178 -10
    endloop
  endfacet
  facet normal 0.125269 -0.992123 0
    outer loop
      vertex 65.5679 -14.9178 -10
      vertex 66.1912 -14.8391 10
      vertex 65.5679 -14.9178 10
    endloop
  endfacet
  facet normal 0.125269 -0.992123 0
    outer loop
      vertex 66.1912 -14.8391 10
      vertex 65.5679 -14.9178 -10
      vertex 66.1912 -14.8391 -10
    endloop
  endfacet
  facet normal 0.166799 -0.985991 0
    outer loop
      vertex 66.1912 -14.8391 -10
      vertex 66.8107 -14.7343 10
      vertex 66.1912 -14.8391 10
    endloop
  endfacet
  facet normal 0.166799 -0.985991 0
    outer loop
      vertex 66.8107 -14.7343 10
      vertex 66.1912 -14.8391 -10
      vertex 66.8107 -14.7343 -10
    endloop
  endfacet
  facet normal 0.207855 -0.97816 0
    outer loop
      vertex 66.8107 -14.7343 -10
      vertex 67.4253 -14.6037 10
      vertex 66.8107 -14.7343 10
    endloop
  endfacet
  facet normal 0.207855 -0.97816 0
    outer loop
      vertex 67.4253 -14.6037 10
      vertex 66.8107 -14.7343 -10
      vertex 67.4253 -14.6037 -10
    endloop
  endfacet
  facet normal 0.248785 -0.968559 0
    outer loop
      vertex 67.4253 -14.6037 -10
      vertex 68.0338 -14.4474 10
      vertex 67.4253 -14.6037 10
    endloop
  endfacet
  facet normal 0.248785 -0.968559 0
    outer loop
      vertex 68.0338 -14.4474 10
      vertex 67.4253 -14.6037 -10
      vertex 68.0338 -14.4474 -10
    endloop
  endfacet
  facet normal 0.289027 -0.957321 0
    outer loop
      vertex 68.0338 -14.4474 -10
      vertex 68.6353 -14.2658 10
      vertex 68.0338 -14.4474 10
    endloop
  endfacet
  facet normal 0.289027 -0.957321 0
    outer loop
      vertex 68.6353 -14.2658 10
      vertex 68.0338 -14.4474 -10
      vertex 68.6353 -14.2658 -10
    endloop
  endfacet
  facet normal 0.328854 -0.944381 0
    outer loop
      vertex 68.6353 -14.2658 -10
      vertex 69.2286 -14.0592 10
      vertex 68.6353 -14.2658 10
    endloop
  endfacet
  facet normal 0.328854 -0.944381 0
    outer loop
      vertex 69.2286 -14.0592 10
      vertex 68.6353 -14.2658 -10
      vertex 69.2286 -14.0592 -10
    endloop
  endfacet
  facet normal 0.368177 -0.929756 0
    outer loop
      vertex 69.2286 -14.0592 -10
      vertex 69.8127 -13.8279 10
      vertex 69.2286 -14.0592 10
    endloop
  endfacet
  facet normal 0.368177 -0.929756 0
    outer loop
      vertex 69.8127 -13.8279 10
      vertex 69.2286 -14.0592 -10
      vertex 69.8127 -13.8279 -10
    endloop
  endfacet
  facet normal 0.406655 -0.913582 0
    outer loop
      vertex 69.8127 -13.8279 -10
      vertex 70.3867 -13.5724 10
      vertex 69.8127 -13.8279 10
    endloop
  endfacet
  facet normal 0.406655 -0.913582 0
    outer loop
      vertex 70.3867 -13.5724 10
      vertex 69.8127 -13.8279 -10
      vertex 70.3867 -13.5724 -10
    endloop
  endfacet
  facet normal 0.444601 -0.895729 0
    outer loop
      vertex 70.3867 -13.5724 -10
      vertex 70.9494 -13.2931 10
      vertex 70.3867 -13.5724 10
    endloop
  endfacet
  facet normal 0.444601 -0.895729 0
    outer loop
      vertex 70.9494 -13.2931 10
      vertex 70.3867 -13.5724 -10
      vertex 70.9494 -13.2931 -10
    endloop
  endfacet
  facet normal 0.48176 -0.876303 0
    outer loop
      vertex 70.9494 -13.2931 -10
      vertex 71.5 -12.9904 10
      vertex 70.9494 -13.2931 10
    endloop
  endfacet
  facet normal 0.48176 -0.876303 0
    outer loop
      vertex 71.5 -12.9904 10
      vertex 70.9494 -13.2931 -10
      vertex 71.5 -12.9904 -10
    endloop
  endfacet
  facet normal 0.518072 -0.855337 0
    outer loop
      vertex 71.5 -12.9904 -10
      vertex 72.0374 -12.6649 10
      vertex 71.5 -12.9904 10
    endloop
  endfacet
  facet normal 0.518072 -0.855337 0
    outer loop
      vertex 72.0374 -12.6649 10
      vertex 71.5 -12.9904 -10
      vertex 72.0374 -12.6649 -10
    endloop
  endfacet
  facet normal 0.553414 -0.832906 0
    outer loop
      vertex 72.0374 -12.6649 -10
      vertex 72.5607 -12.3172 10
      vertex 72.0374 -12.6649 10
    endloop
  endfacet
  facet normal 0.553414 -0.832906 0
    outer loop
      vertex 72.5607 -12.3172 10
      vertex 72.0374 -12.6649 -10
      vertex 72.5607 -12.3172 -10
    endloop
  endfacet
  facet normal 0.587784 -0.809018 0
    outer loop
      vertex 72.5607 -12.3172 -10
      vertex 73.069 -11.9479 10
      vertex 72.5607 -12.3172 10
    endloop
  endfacet
  facet normal 0.587784 -0.809018 0
    outer loop
      vertex 73.069 -11.9479 10
      vertex 72.5607 -12.3172 -10
      vertex 73.069 -11.9479 -10
    endloop
  endfacet
  facet normal 0.621078 -0.783749 0
    outer loop
      vertex 73.069 -11.9479 -10
      vertex 73.5614 -11.5577 10
      vertex 73.069 -11.9479 10
    endloop
  endfacet
  facet normal 0.621078 -0.783749 0
    outer loop
      vertex 73.5614 -11.5577 10
      vertex 73.069 -11.9479 -10
      vertex 73.5614 -11.5577 -10
    endloop
  endfacet
  facet normal 0.653396 -0.757016 0
    outer loop
      vertex 73.5614 -11.5577 -10
      vertex 74.037 -11.1472 10
      vertex 73.5614 -11.5577 10
    endloop
  endfacet
  facet normal 0.653396 -0.757016 0
    outer loop
      vertex 74.037 -11.1472 10
      vertex 73.5614 -11.5577 -10
      vertex 74.037 -11.1472 -10
    endloop
  endfacet
  facet normal 0.684634 -0.728887 0
    outer loop
      vertex 74.037 -11.1472 -10
      vertex 74.4949 -10.7171 10
      vertex 74.037 -11.1472 10
    endloop
  endfacet
  facet normal 0.684634 -0.728887 0
    outer loop
      vertex 74.4949 -10.7171 10
      vertex 74.037 -11.1472 -10
      vertex 74.4949 -10.7171 -10
    endloop
  endfacet
  facet normal 0.714469 -0.699667 0
    outer loop
      vertex 74.4949 -10.7171 10
      vertex 74.9345 -10.2682 -10
      vertex 74.9345 -10.2682 10
    endloop
  endfacet
  facet normal 0.714469 -0.699667 0
    outer loop
      vertex 74.9345 -10.2682 -10
      vertex 74.4949 -10.7171 10
      vertex 74.4949 -10.7171 -10
    endloop
  endfacet
  facet normal 0.743137 -0.66914 0
    outer loop
      vertex 74.9345 -10.2682 10
      vertex 75.3549 -9.80131 -10
      vertex 75.3549 -9.80131 10
    endloop
  endfacet
  facet normal 0.743137 -0.66914 0
    outer loop
      vertex 75.3549 -9.80131 -10
      vertex 74.9345 -10.2682 10
      vertex 74.9345 -10.2682 -10
    endloop
  endfacet
  facet normal 0.770493 -0.637448 0
    outer loop
      vertex 75.3549 -9.80131 10
      vertex 75.7554 -9.31722 -10
      vertex 75.7554 -9.31722 10
    endloop
  endfacet
  facet normal 0.770493 -0.637448 0
    outer loop
      vertex 75.7554 -9.31722 -10
      vertex 75.3549 -9.80131 10
      vertex 75.3549 -9.80131 -10
    endloop
  endfacet
  facet normal 0.796495 -0.604645 0
    outer loop
      vertex 75.7554 -9.31722 10
      vertex 76.1353 -8.81678 -10
      vertex 76.1353 -8.81678 10
    endloop
  endfacet
  facet normal 0.796495 -0.604645 0
    outer loop
      vertex 76.1353 -8.81678 -10
      vertex 75.7554 -9.31722 10
      vertex 75.7554 -9.31722 -10
    endloop
  endfacet
  facet normal 0.821199 -0.570642 0
    outer loop
      vertex 76.1353 -8.81678 10
      vertex 76.4938 -8.30087 -10
      vertex 76.4938 -8.30087 10
    endloop
  endfacet
  facet normal 0.821199 -0.570642 0
    outer loop
      vertex 76.4938 -8.30087 -10
      vertex 76.1353 -8.81678 10
      vertex 76.1353 -8.81678 -10
    endloop
  endfacet
  facet normal 0.844285 -0.535895 0
    outer loop
      vertex 76.4938 -8.30087 10
      vertex 76.8305 -7.77041 -10
      vertex 76.8305 -7.77041 10
    endloop
  endfacet
  facet normal 0.844285 -0.535895 0
    outer loop
      vertex 76.8305 -7.77041 -10
      vertex 76.4938 -8.30087 10
      vertex 76.4938 -8.30087 -10
    endloop
  endfacet
  facet normal 0.86605 -0.499957 0
    outer loop
      vertex 76.8305 -7.77041 10
      vertex 77.1446 -7.22631 -10
      vertex 77.1446 -7.22631 10
    endloop
  endfacet
  facet normal 0.86605 -0.499957 0
    outer loop
      vertex 77.1446 -7.22631 -10
      vertex 76.8305 -7.77041 10
      vertex 76.8305 -7.77041 -10
    endloop
  endfacet
  facet normal 0.886189 -0.463324 0
    outer loop
      vertex 77.1446 -7.22631 10
      vertex 77.4357 -6.66953 -10
      vertex 77.4357 -6.66953 10
    endloop
  endfacet
  facet normal 0.886189 -0.463324 0
    outer loop
      vertex 77.4357 -6.66953 -10
      vertex 77.1446 -7.22631 10
      vertex 77.1446 -7.22631 -10
    endloop
  endfacet
  facet normal 0.904831 -0.425771 0
    outer loop
      vertex 77.4357 -6.66953 10
      vertex 77.7032 -6.10105 -10
      vertex 77.7032 -6.10105 10
    endloop
  endfacet
  facet normal 0.904831 -0.425771 0
    outer loop
      vertex 77.7032 -6.10105 -10
      vertex 77.4357 -6.66953 10
      vertex 77.4357 -6.66953 -10
    endloop
  endfacet
  facet normal 0.9219 -0.387428 0
    outer loop
      vertex 77.7032 -6.10105 10
      vertex 77.9466 -5.52187 -10
      vertex 77.9466 -5.52187 10
    endloop
  endfacet
  facet normal 0.9219 -0.387428 0
    outer loop
      vertex 77.9466 -5.52187 -10
      vertex 77.7032 -6.10105 10
      vertex 77.7032 -6.10105 -10
    endloop
  endfacet
  facet normal 0.937281 -0.348574 0
    outer loop
      vertex 77.9466 -5.52187 10
      vertex 78.1656 -4.933 -10
      vertex 78.1656 -4.933 10
    endloop
  endfacet
  facet normal 0.937281 -0.348574 0
    outer loop
      vertex 78.1656 -4.933 -10
      vertex 77.9466 -5.52187 10
      vertex 77.9466 -5.52187 -10
    endloop
  endfacet
  facet normal 0.951031 -0.309095 0
    outer loop
      vertex 78.1656 -4.933 10
      vertex 78.3598 -4.33548 -10
      vertex 78.3598 -4.33548 10
    endloop
  endfacet
  facet normal 0.951031 -0.309095 0
    outer loop
      vertex 78.3598 -4.33548 -10
      vertex 78.1656 -4.933 10
      vertex 78.1656 -4.933 -10
    endloop
  endfacet
  facet normal 0.963185 -0.268838 0
    outer loop
      vertex 78.3598 -4.33548 10
      vertex 78.5287 -3.73035 -10
      vertex 78.5287 -3.73035 10
    endloop
  endfacet
  facet normal 0.963185 -0.268838 0
    outer loop
      vertex 78.5287 -3.73035 -10
      vertex 78.3598 -4.33548 10
      vertex 78.3598 -4.33548 -10
    endloop
  endfacet
  facet normal 0.973567 -0.228402 0
    outer loop
      vertex 78.5287 -3.73035 10
      vertex 78.6722 -3.11868 -10
      vertex 78.6722 -3.11868 10
    endloop
  endfacet
  facet normal 0.973567 -0.228402 0
    outer loop
      vertex 78.6722 -3.11868 -10
      vertex 78.5287 -3.73035 10
      vertex 78.5287 -3.73035 -10
    endloop
  endfacet
  facet normal 0.982295 -0.187339 0
    outer loop
      vertex 78.6722 -3.11868 10
      vertex 78.7899 -2.50153 -10
      vertex 78.7899 -2.50153 10
    endloop
  endfacet
  facet normal 0.982295 -0.187339 0
    outer loop
      vertex 78.7899 -2.50153 -10
      vertex 78.6722 -3.11868 10
      vertex 78.6722 -3.11868 -10
    endloop
  endfacet
  facet normal 0.989268 -0.146115 0
    outer loop
      vertex 78.7899 -2.50153 10
      vertex 78.8817 -1.88 -10
      vertex 78.8817 -1.88 10
    endloop
  endfacet
  facet normal 0.989268 -0.146115 0
    outer loop
      vertex 78.8817 -1.88 -10
      vertex 78.7899 -2.50153 10
      vertex 78.7899 -2.50153 -10
    endloop
  endfacet
  facet normal 0.994517 -0.104572 0
    outer loop
      vertex 78.8817 -1.88 10
      vertex 78.9474 -1.25517 -10
      vertex 78.9474 -1.25517 10
    endloop
  endfacet
  facet normal 0.994517 -0.104572 0
    outer loop
      vertex 78.9474 -1.25517 -10
      vertex 78.8817 -1.88 10
      vertex 78.8817 -1.88 -10
    endloop
  endfacet
  facet normal 0.998032 -0.0627117 0
    outer loop
      vertex 78.9474 -1.25517 10
      vertex 78.9868 -0.628135 -10
      vertex 78.9868 -0.628135 10
    endloop
  endfacet
  facet normal 0.998032 -0.0627117 0
    outer loop
      vertex 78.9868 -0.628135 -10
      vertex 78.9474 -1.25517 10
      vertex 78.9474 -1.25517 -10
    endloop
  endfacet
  facet normal 0.999779 -0.02101 0
    outer loop
      vertex 78.9868 -0.628135 10
      vertex 79 0 -10
      vertex 79 0 10
    endloop
  endfacet
  facet normal 0.999779 -0.02101 0
    outer loop
      vertex 79 0 -10
      vertex 78.9868 -0.628135 10
      vertex 78.9868 -0.628135 -10
    endloop
  endfacet
  facet normal 0 0 -1
    outer loop
      vertex 78.9868 -0.628135 -10
      vertex 78.9868 0.628135 -10
      vertex 79 0 -10
    endloop
  endfacet
  facet normal 0 0 -1
    outer loop
      vertex 78.9474 -1.25517 -10
      vertex 78.9868 0.628135 -10
      vertex 78.9868 -0.628135 -10
    endloop
  endfacet
  facet normal 0 0 -1
    outer loop
      vertex 78.9474 -1.25517 -10
      vertex 78.9474 1.25517 -10
      vertex 78.9868 0.628135 -10
    endloop
  endfacet
  facet normal 0 0 -1
    outer loop
      vertex 78.8817 -1.88 -10
      vertex 78.9474 1.25517 -10
      vertex 78.9474 -1.25517 -10
    endloop
  endfacet
  facet normal 0 0 -1
    outer loop
      vertex 78.8817 -1.88 -10
      vertex 78.8817 1.88 -10
      vertex 78.9474 1.25517 -10
    endloop
  endfacet
  facet normal 0 0 -1
    outer loop
      vertex 78.7899 -2.50153 -10
      vertex 78.8817 1.88 -10
      vertex 78.8817 -1.88 -10
    endloop
  endfacet
  facet normal 0 0 -1
    outer loop
      vertex 78.7899 -2.50153 -10
      vertex 78.7899 2.50153 -10
      vertex 78.8817 1.88 -10
    endloop
  endfacet
  facet normal 0 0 -1
    outer loop
      vertex 78.6722 -3.11868 -10
      vertex 78.7899 2.50153 -10
      vertex 78.7899 -2.50153 -10
    endloop
  endfacet
  facet normal 0 0 -1
    outer loop
      vertex 78.6722 -3.11868 -10
      vertex 78.6722 3.11868 -10
      vertex 78.7899 2.50153 -10
    endloop
  endfacet
  facet normal 0 0 -1
    outer loop
      vertex 78.5287 -3.73035 -10
      vertex 78.6722 3.11868 -10
      vertex 78.6722 -3.11868 -10
    endloop
  endfacet
  facet normal 0 0 -1
    outer loop
      vertex 78.5287 -3.73035 -10
      vertex 78.5287 3.73035 -10
      vertex 78.6722 3.11868 -10
    endloop
  endfacet
  facet normal 0 0 -1
    outer loop
      vertex 78.3598 -4.33548 -10
      vertex 78.5287 3.73035 -10
      vertex 78.5287 -3.73035 -10
    endloop
  endfacet
  facet normal 0 0 -1
    outer loop
      vertex 78.3598 -4.33548 -10
      vertex 78.3598 4.33548 -10
      vertex 78.5287 3.73035 -10
    endloop
  endfacet
  facet normal 0 0 -1
    outer loop
      vertex 78.1656 -4.933 -10
      vertex 78.3598 4.33548 -10
      vertex 78.3598 -4.33548 -10
    endloop
  endfacet
  facet normal 0 0 -1
    outer loop
      vertex 78.1656 -4.933 -10
      vertex 78.1656 4.933 -10
      vertex 78.3598 4.33548 -10
    endloop
  endfacet
  facet normal 0 0 -1
    outer loop
      vertex 77.9466 -5.52187 -10
      vertex 78.1656 4.933 -10
      vertex 78.1656 -4.933 -10
    endloop
  endfacet
  facet normal 0 0 -1
    outer loop
      vertex 77.9466 -5.52187 -10
      vertex 77.9466 5.52187 -10
      vertex 78.1656 4.933 -10
    endloop
  endfacet
  facet normal 0 0 -1
    outer loop
      vertex 77.7032 -6.10105 -10
      vertex 77.9466 5.52187 -10
      vertex 77.9466 -5.52187 -10
    endloop
  endfacet
  facet normal 0 0 -1
    outer loop
      vertex 77.7032 -6.10105 -10
      vertex 77.7032 6.10105 -10
      vertex 77.9466 5.52187 -10
    endloop
  endfacet
  facet normal 0 0 -1
    outer loop
      vertex 77.4357 -6.66953 -10
      vertex 77.7032 6.10105 -10
      vertex 77.7032 -6.10105 -10
    endloop
  endfacet
  facet normal 0 0 -1
    outer loop
      vertex 77.4357 -6.66953 -10
      vertex 77.4357 6.66953 -10
      vertex 77.7032 6.10105 -10
    endloop
  endfacet
  facet normal 0 0 -1
    outer loop
      vertex 77.1446 -7.22631 -10
      vertex 77.4357 6.66953 -10
      vertex 77.4357 -6.66953 -10
    endloop
  endfacet
  facet normal 0 0 -1
    outer loop
      vertex 77.1446 -7.22631 -10
      vertex 77.1446 7.22631 -10
      vertex 77.4357 6.66953 -10
    endloop
  endfacet
  facet normal 0 0 -1
    outer loop
      vertex 76.8305 -7.77041 -10
      vertex 77.1446 7.22631 -10
      vertex 77.1446 -7.22631 -10
    endloop
  endfacet
  facet normal 0 0 -1
    outer loop
      vertex 76.8305 -7.77041 -10
      vertex 76.8305 7.77041 -10
      vertex 77.1446 7.22631 -10
    endloop
  endfacet
  facet normal 0 0 -1
    outer loop
      vertex 76.4938 -8.30087 -10
      vertex 76.8305 7.77041 -10
      vertex 76.8305 -7.77041 -10
    endloop
  endfacet
  facet normal 0 0 -1
    outer loop
      vertex 76.4938 -8.30087 -10
      vertex 76.4938 8.30087 -10
      vertex 76.8305 7.77041 -10
    endloop
  endfacet
  facet normal 0 0 -1
    outer loop
      vertex 76.1353 -8.81678 -10
      vertex 76.4938 8.30087 -10
      vertex 76.4938 -8.30087 -10
    endloop
  endfacet
  facet normal 0 0 -1
    outer loop
      vertex 76.1353 -8.81678 -10
      vertex 76.1353 8.81678 -10
      vertex 76.4938 8.30087 -10
    endloop
  endfacet
  facet normal 0 0 -1
    outer loop
      vertex 75.7554 -9.31722 -10
      vertex 76.1353 8.81678 -10
      vertex 76.1353 -8.81678 -10
    endloop
  endfacet
  facet normal 0 0 -1
    outer loop
      vertex 75.7554 -9.31722 -10
      vertex 75.7554 9.31722 -10
      vertex 76.1353 8.81678 -10
    endloop
  endfacet
  facet normal 0 0 -1
    outer loop
      vertex 75.3549 -9.80131 -10
      vertex 75.7554 9.31722 -10
      vertex 75.7554 -9.31722 -10
    endloop
  endfacet
  facet normal 0 0 -1
    outer loop
      vertex 75.3549 -9.80131 -10
      vertex 75.3549 9.80131 -10
      vertex 75.7554 9.31722 -10
    endloop
  endfacet
  facet normal 0 0 -1
    outer loop
      vertex 74.9345 -10.2682 -10
      vertex 75.3549 9.80131 -10
      vertex 75.3549 -9.80131 -10
    endloop
  endfacet
  facet normal 0 0 -1
    outer loop
      vertex 74.9345 -10.2682 -10
      vertex 74.9345 10.2682 -10
      vertex 75.3549 9.80131 -10
    endloop
  endfacet
  facet normal 0 0 -1
    outer loop
      vertex 74.4949 -10.7171 -10
      vertex 74.9345 10.2682 -10
      vertex 74.9345 -10.2682 -10
    endloop
  endfacet
  facet normal 0 0 -1
    outer loop
      vertex 74.4949 -10.7171 -10
      vertex 74.4949 10.7171 -10
      vertex 74.9345 10.2682 -10
    endloop
  endfacet
  facet normal 0 0 -1
    outer loop
      vertex 74.037 -11.1472 -10
      vertex 74.4949 10.7171 -10
      vertex 74.4949 -10.7171 -10
    endloop
  endfacet
  facet normal 0 0 -1
    outer loop
      vertex 74.037 -11.1472 -10
      vertex 74.037 11.1472 -10
      vertex 74.4949 10.7171 -10
    endloop
  endfacet
  facet normal 0 0 -1
    outer loop
      vertex 73.5614 -11.5577 -10
      vertex 74.037 11.1472 -10
      vertex 74.037 -11.1472 -10
    endloop
  endfacet
  facet normal 0 0 -1
    outer loop
      vertex 73.5614 -11.5577 -10
      vertex 73.5614 11.5577 -10
      vertex 74.037 11.1472 -10
    endloop
  endfacet
  facet normal 0 0 -1
    outer loop
      vertex 73.069 -11.9479 -10
      vertex 73.5614 11.5577 -10
      vertex 73.5614 -11.5577 -10
    endloop
  endfacet
  facet normal 0 0 -1
    outer loop
      vertex 73.069 -11.9479 -10
      vertex 73.069 11.9479 -10
      vertex 73.5614 11.5577 -10
    endloop
  endfacet
  facet normal 0 0 -1
    outer loop
      vertex 72.5607 -12.3172 -10
      vertex 73.069 11.9479 -10
      vertex 73.069 -11.9479 -10
    endloop
  endfacet
  facet normal 0 0 -1
    outer loop
      vertex 72.5607 -12.3172 -10
      vertex 72.5607 12.3172 -10
      vertex 73.069 11.9479 -10
    endloop
  endfacet
  facet normal 0 0 -1
    outer loop
      vertex 72.0374 -12.6649 -10
      vertex 72.5607 12.3172 -10
      vertex 72.5607 -12.3172 -10
    endloop
  endfacet
  facet normal 0 0 -1
    outer loop
      vertex 72.0374 -12.6649 -10
      vertex 72.0374 12.6649 -10
      vertex 72.5607 12.3172 -10
    endloop
  endfacet
  facet normal 0 0 -1
    outer loop
      vertex 71.5 -12.9904 -10
      vertex 72.0374 12.6649 -10
      vertex 72.0374 -12.6649 -10
    endloop
  endfacet
  facet normal 0 0 -1
    outer loop
      vertex 71.5 -12.9904 -10
      vertex 71.5 12.9904 -10
      vertex 72.0374 12.6649 -10
    endloop
  endfacet
  facet normal 0 0 -1
    outer loop
      vertex 70.9494 -13.2931 -10
      vertex 71.5 12.9904 -10
      vertex 71.5 -12.9904 -10
    endloop
  endfacet
  facet normal 0 0 -1
    outer loop
      vertex 70.9494 -13.2931 -10
      vertex 70.9494 13.2931 -10
      vertex 71.5 12.9904 -10
    endloop
  endfacet
  facet normal 0 0 -1
    outer loop
      vertex 70.3867 -13.5724 -10
      vertex 70.9494 13.2931 -10
      vertex 70.9494 -13.2931 -10
    endloop
  endfacet
  facet normal 0 0 -1
    outer loop
      vertex 70.3867 -13.5724 -10
      vertex 70.3867 13.5724 -10
      vertex 70.9494 13.2931 -10
    endloop
  endfacet
  facet normal 0 0 -1
    outer loop
      vertex 69.8127 -13.8279 -10
      vertex 70.3867 13.5724 -10
      vertex 70.3867 -13.5724 -10
    endloop
  endfacet
  facet normal 0 0 -1
    outer loop
      vertex 69.8127 -13.8279 -10
      vertex 69.8127 13.8279 -10
      vertex 70.3867 13.5724 -10
    endloop
  endfacet
  facet normal 0 0 -1
    outer loop
      vertex 69.2286 -14.0592 -10
      vertex 69.8127 13.8279 -10
      vertex 69.8127 -13.8279 -10
    endloop
  endfacet
  facet normal 0 0 -1
    outer loop
      vertex 69.2286 -14.0592 -10
      vertex 69.2286 14.0592 -10
      vertex 69.8127 13.8279 -10
    endloop
  endfacet
  facet normal 0 0 -1
    outer loop
      vertex 68.6353 -14.2658 -10
      vertex 69.2286 14.0592 -10
      vertex 69.2286 -14.0592 -10
    endloop
  endfacet
  facet normal 0 0 -1
    outer loop
      vertex 68.6353 -14.2658 -10
      vertex 68.6353 14.2658 -10
      vertex 69.2286 14.0592 -10
    endloop
  endfacet
  facet normal 0 0 -1
    outer loop
      vertex 68.0338 -14.4474 -10
      vertex 68.6353 14.2658 -10
      vertex 68.6353 -14.2658 -10
    endloop
  endfacet
  facet normal 0 0 -1
    outer loop
      vertex 68.0338 -14.4474 -10
      vertex 68.0338 14.4474 -10
      vertex 68.6353 14.2658 -10
    endloop
  endfacet
  facet normal 0 0 -1
    outer loop
      vertex 67.4253 -14.6037 -10
      vertex 68.0338 14.4474 -10
      vertex 68.0338 -14.4474 -10
    endloop
  endfacet
  facet normal 0 0 -1
    outer loop
      vertex 67.4253 -14.6037 -10
      vertex 67.4253 14.6037 -10
      vertex 68.0338 14.4474 -10
    endloop
  endfacet
  facet normal 0 0 -1
    outer loop
      vertex 66.8107 -14.7343 -10
      vertex 67.4253 14.6037 -10
      vertex 67.4253 -14.6037 -10
    endloop
  endfacet
  facet normal 0 0 -1
    outer loop
      vertex 66.8107 -14.7343 -10
      vertex 66.8107 14.7343 -10
      vertex 67.4253 14.6037 -10
    endloop
  endfacet
  facet normal 0 0 -1
    outer loop
      vertex 66.1912 -14.8391 -10
      vertex 66.8107 14.7343 -10
      vertex 66.8107 -14.7343 -10
    endloop
  endfacet
  facet normal 0 0 -1
    outer loop
      vertex 66.1912 -14.8391 -10
      vertex 66.1912 14.8391 -10
      vertex 66.8107 14.7343 -10
    endloop
  endfacet
  facet normal 0 0 -1
    outer loop
      vertex 65.5679 -14.9178 -10
      vertex 66.1912 14.8391 -10
      vertex 66.1912 -14.8391 -10
    endloop
  endfacet
  facet normal 0 0 -1
    outer loop
      vertex 65.5679 -14.9178 -10
      vertex 65.5679 14.9178 -10
      vertex 66.1912 14.8391 -10
    endloop
  endfacet
  facet normal 0 0 -1
    outer loop
      vertex 64.9419 -14.9704 -10
      vertex 65.5679 14.9178 -10
      vertex 65.5679 -14.9178 -10
    endloop
  endfacet
  facet normal 0 0 -1
    outer loop
      vertex 64.9419 -14.9704 -10
      vertex 64.9419 14.9704 -10
      vertex 65.5679 14.9178 -10
    endloop
  endfacet
  facet normal 0 0 -1
    outer loop
      vertex 64.3141 -14.9967 -10
      vertex 64.9419 14.9704 -10
      vertex 64.9419 -14.9704 -10
    endloop
  endfacet
  facet normal 0 0 -1
    outer loop
      vertex 64.3141 -14.9967 -10
      vertex 64.3141 14.9967 -10
      vertex 64.9419 14.9704 -10
    endloop
  endfacet
  facet normal 0 0 -1
    outer loop
      vertex 63.6859 -14.9967 -10
      vertex 64.3141 14.9967 -10
      vertex 64.3141 -14.9967 -10
    endloop
  endfacet
  facet normal 0 0 -1
    outer loop
      vertex 63.6859 -14.9967 -10
      vertex 63.6859 14.9967 -10
      vertex 64.3141 14.9967 -10
    endloop
  endfacet
  facet normal 0 0 -1
    outer loop
      vertex 63.0581 -14.9704 -10
      vertex 63.6859 14.9967 -10
      vertex 63.6859 -14.9967 -10
    endloop
  endfacet
  facet normal 0 0 -1
    outer loop
      vertex 63.0581 -14.9704 -10
      vertex 63.0581 14.9704 -10
      vertex 63.6859 14.9967 -10
    endloop
  endfacet
  facet normal 0 0 -1
    outer loop
      vertex 62.4321 -14.9178 -10
      vertex 63.0581 14.9704 -10
      vertex 63.0581 -14.9704 -10
    endloop
  endfacet
  facet normal 0 0 -1
    outer loop
      vertex 62.4321 -14.9178 -10
      vertex 62.4321 14.9178 -10
      vertex 63.0581 14.9704 -10
    endloop
  endfacet
  facet normal 0 0 -1
    outer loop
      vertex 61.8088 -14.8391 -10
      vertex 62.4321 14.9178 -10
      vertex 62.4321 -14.9178 -10
    endloop
  endfacet
  facet normal 0 0 -1
    outer loop
      vertex 61.8088 -14.8391 -10
      vertex 61.8088 14.8391 -10
      vertex 62.4321 14.9178 -10
    endloop
  endfacet
  facet normal 0 0 -1
    outer loop
      vertex 61.1893 -14.7343 -10
      vertex 61.8088 14.8391 -10
      vertex 61.8088 -14.8391 -10
    endloop
  endfacet
  facet normal 0 0 -1
    outer loop
      vertex 61.1893 -14.7343 -10
      vertex 61.1893 14.7343 -10
      vertex 61.8088 14.8391 -10
    endloop
  endfacet
  facet normal 0 0 -1
    outer loop
      vertex 60.5747 -14.6037 -10
      vertex 61.1893 14.7343 -10
      vertex 61.1893 -14.7343 -10
    endloop
  endfacet
  facet normal 0 0 -1
    outer loop
      vertex 60.5747 -14.6037 -10
      vertex 60.5747 14.6037 -10
      vertex 61.1893 14.7343 -10
    endloop
  endfacet
  facet normal 0 0 -1
    outer loop
      vertex 59.9662 -14.4474 -10
      vertex 60.5747 14.6037 -10
      vertex 60.5747 -14.6037 -10
    endloop
  endfacet
  facet normal 0 0 -1
    outer loop
      vertex 59.9662 -14.4474 -10
      vertex 59.9662 14.4474 -10
      vertex 60.5747 14.6037 -10
    endloop
  endfacet
  facet normal 0 0 -1
    outer loop
      vertex 59.3647 -14.2658 -10
      vertex 59.9662 14.4474 -10
      vertex 59.9662 -14.4474 -10
    endloop
  endfacet
  facet normal 0 0 -1
    outer loop
      vertex 59.3647 -14.2658 -10
      vertex 59.3647 14.2658 -10
      vertex 59.9662 14.4474 -10
    endloop
  endfacet
  facet normal 0 0 -1
    outer loop
      vertex 58.7714 -14.0592 -10
      vertex 59.3647 14.2658 -10
      vertex 59.3647 -14.2658 -10
    endloop
  endfacet
  facet normal 0 0 -1
    outer loop
      vertex 58.7714 -14.0592 -10
      vertex 58.7714 14.0592 -10
      vertex 59.3647 14.2658 -10
    endloop
  endfacet
  facet normal 0 0 -1
    outer loop
      vertex 58.1873 -13.8279 -10
      vertex 58.7714 14.0592 -10
      vertex 58.7714 -14.0592 -10
    endloop
  endfacet
  facet normal 0 0 -1
    outer loop
      vertex 58.1873 -13.8279 -10
      vertex 58.1873 13.8279 -10
      vertex 58.7714 14.0592 -10
    endloop
  endfacet
  facet normal 0 0 -1
    outer loop
      vertex 57.6133 -13.5724 -10
      vertex 58.1873 13.8279 -10
      vertex 58.1873 -13.8279 -10
    endloop
  endfacet
  facet normal 0 0 -1
    outer loop
      vertex 57.6133 -13.5724 -10
      vertex 57.6133 13.5724 -10
      vertex 58.1873 13.8279 -10
    endloop
  endfacet
  facet normal 0 0 -1
    outer loop
      vertex 57.0506 -13.2931 -10
      vertex 57.6133 13.5724 -10
      vertex 57.6133 -13.5724 -10
    endloop
  endfacet
  facet normal 0 0 -1
    outer loop
      vertex 57.0506 -13.2931 -10
      vertex 57.0506 13.2931 -10
      vertex 57.6133 13.5724 -10
    endloop
  endfacet
  facet normal 0 0 -1
    outer loop
      vertex 56.5 -12.9904 -10
      vertex 57.0506 13.2931 -10
      vertex 57.0506 -13.2931 -10
    endloop
  endfacet
  facet normal 0 0 -1
    outer loop
      vertex 56.5 -12.9904 -10
      vertex 56.5 12.9904 -10
      vertex 57.0506 13.2931 -10
    endloop
  endfacet
  facet normal 0 0 -1
    outer loop
      vertex 55.9626 -12.6649 -10
      vertex 56.5 12.9904 -10
      vertex 56.5 -12.9904 -10
    endloop
  endfacet
  facet normal 0 0 -1
    outer loop
      vertex 55.9626 -12.6649 -10
      vertex 55.9626 12.6649 -10
      vertex 56.5 12.9904 -10
    endloop
  endfacet
  facet normal 0 0 -1
    outer loop
      vertex 55.4393 -12.3172 -10
      vertex 55.9626 12.6649 -10
      vertex 55.9626 -12.6649 -10
    endloop
  endfacet
  facet normal 0 0 -1
    outer loop
      vertex 55.4393 -12.3172 -10
      vertex 55.4393 12.3172 -10
      vertex 55.9626 12.6649 -10
    endloop
  endfacet
  facet normal 0 0 -1
    outer loop
      vertex 54.931 -11.9479 -10
      vertex 55.4393 12.3172 -10
      vertex 55.4393 -12.3172 -10
    endloop
  endfacet
  facet normal 0 0 -1
    outer loop
      vertex 54.931 -11.9479 -10
      vertex 54.931 11.9479 -10
      vertex 55.4393 12.3172 -10
    endloop
  endfacet
  facet normal 0 0 -1
    outer loop
      vertex 54.4386 -11.5577 -10
      vertex 54.931 11.9479 -10
      vertex 54.931 -11.9479 -10
    endloop
  endfacet
  facet normal 0 0 -1
    outer loop
      vertex 54.4386 -11.5577 -10
      vertex 54.4386 11.5577 -10
      vertex 54.931 11.9479 -10
    endloop
  endfacet
  facet normal 0 0 -1
    outer loop
      vertex 53.963 -11.1472 -10
      vertex 54.4386 11.5577 -10
      vertex 54.4386 -11.5577 -10
    endloop
  endfacet
  facet normal 0 0 -1
    outer loop
      vertex 53.963 -11.1472 -10
      vertex 53.963 11.1472 -10
      vertex 54.4386 11.5577 -10
    endloop
  endfacet
  facet normal 0 0 -1
    outer loop
      vertex 53.5051 -10.7171 -10
      vertex 53.963 11.1472 -10
      vertex 53.963 -11.1472 -10
    endloop
  endfacet
  facet normal 0 0 -1
    outer loop
      vertex 53.5051 -10.7171 -10
      vertex 53.5051 10.7171 -10
      vertex 53.963 11.1472 -10
    endloop
  endfacet
  facet normal 0 0 -1
    outer loop
      vertex 53.0655 -10.2682 -10
      vertex 53.5051 10.7171 -10
      vertex 53.5051 -10.7171 -10
    endloop
  endfacet
  facet normal 0 0 -1
    outer loop
      vertex 53.0655 -10.2682 -10
      vertex 53.0655 10.2682 -10
      vertex 53.5051 10.7171 -10
    endloop
  endfacet
  facet normal 0 0 -1
    outer loop
      vertex 52.6451 -9.80131 -10
      vertex 53.0655 10.2682 -10
      vertex 53.0655 -10.2682 -10
    endloop
  endfacet
  facet normal 0 0 -1
    outer loop
      vertex 52.6451 -9.80131 -10
      vertex 52.6451 9.80131 -10
      vertex 53.0655 10.2682 -10
    endloop
  endfacet
  facet normal 0 0 -1
    outer loop
      vertex 52.2446 -9.31722 -10
      vertex 52.6451 9.80131 -10
      vertex 52.6451 -9.80131 -10
    endloop
  endfacet
  facet normal 0 0 -1
    outer loop
      vertex 52.2446 -9.31722 -10
      vertex 52.2446 9.31722 -10
      vertex 52.6451 9.80131 -10
    endloop
  endfacet
  facet normal 0 0 -1
    outer loop
      vertex 51.8647 -8.81678 -10
      vertex 52.2446 9.31722 -10
      vertex 52.2446 -9.31722 -10
    endloop
  endfacet
  facet normal 0 0 -1
    outer loop
      vertex 51.8647 -8.81678 -10
      vertex 51.8647 8.81678 -10
      vertex 52.2446 9.31722 -10
    endloop
  endfacet
  facet normal 0 0 -1
    outer loop
      vertex 51.5062 -8.30087 -10
      vertex 51.8647 8.81678 -10
      vertex 51.8647 -8.81678 -10
    endloop
  endfacet
  facet normal 0 0 -1
    outer loop
      vertex 51.5062 -8.30087 -10
      vertex 51.5062 8.30087 -10
      vertex 51.8647 8.81678 -10
    endloop
  endfacet
  facet normal 0 0 -1
    outer loop
      vertex 51.1695 -7.77041 -10
      vertex 51.5062 8.30087 -10
      vertex 51.5062 -8.30087 -10
    endloop
  endfacet
  facet normal 0 0 -1
    outer loop
      vertex 51.1695 -7.77041 -10
      vertex 51.1695 7.77041 -10
      vertex 51.5062 8.30087 -10
    endloop
  endfacet
  facet normal 0 0 -1
    outer loop
      vertex 50.8554 -7.22631 -10
      vertex 51.1695 7.77041 -10
      vertex 51.1695 -7.77041 -10
    endloop
  endfacet
  facet normal 0 0 -1
    outer loop
      vertex 50.8554 -7.22631 -10
      vertex 50.8554 7.22631 -10
      vertex 51.1695 7.77041 -10
    endloop
  endfacet
  facet normal 0 0 -1
    outer loop
      vertex 50.5643 -6.66953 -10
      vertex 50.8554 7.22631 -10
      vertex 50.8554 -7.22631 -10
    endloop
  endfacet
  facet normal 0 0 -1
    outer loop
      vertex 50.5643 -6.66953 -10
      vertex 50.5643 6.66953 -10
      vertex 50.8554 7.22631 -10
    endloop
  endfacet
  facet normal 0 0 -1
    outer loop
      vertex 50.2968 -6.10105 -10
      vertex 50.5643 6.66953 -10
      vertex 50.5643 -6.66953 -10
    endloop
  endfacet
  facet normal 0 0 -1
    outer loop
      vertex 50.2968 -6.10105 -10
      vertex 50.2968 6.10105 -10
      vertex 50.5643 6.66953 -10
    endloop
  endfacet
  facet normal 0 0 -1
    outer loop
      vertex 50.0534 -5.52187 -10
      vertex 50.2968 6.10105 -10
      vertex 50.2968 -6.10105 -10
    endloop
  endfacet
  facet normal 0 0 -1
    outer loop
      vertex 50.0534 -5.52187 -10
      vertex 50.0534 5.52187 -10
      vertex 50.2968 6.10105 -10
    endloop
  endfacet
  facet normal 0 0 -1
    outer loop
      vertex 49.8344 -4.933 -10
      vertex 50.0534 5.52187 -10
      vertex 50.0534 -5.52187 -10
    endloop
  endfacet
  facet normal 0 0 -1
    outer loop
      vertex 49.8344 -4.933 -10
      vertex 49.8344 4.933 -10
      vertex 50.0534 5.52187 -10
    endloop
  endfacet
  facet normal 0 0 -1
    outer loop
      vertex 49.6402 -4.33548 -10
      vertex 49.8344 4.933 -10
      vertex 49.8344 -4.933 -10
    endloop
  endfacet
  facet normal 0 0 -1
    outer loop
      vertex 49.6402 -4.33548 -10
      vertex 49.6402 4.33548 -10
      vertex 49.8344 4.933 -10
    endloop
  endfacet
  facet normal 0 0 -1
    outer loop
      vertex 49.4713 -3.73035 -10
      vertex 49.6402 4.33548 -10
      vertex 49.6402 -4.33548 -10
    endloop
  endfacet
  facet normal 0 0 -1
    outer loop
      vertex 49.4713 -3.73035 -10
      vertex 49.4713 3.73035 -10
      vertex 49.6402 4.33548 -10
    endloop
  endfacet
  facet normal 0 0 -1
    outer loop
      vertex 49.3278 -3.11868 -10
      vertex 49.4713 3.73035 -10
      vertex 49.4713 -3.73035 -10
    endloop
  endfacet
  facet normal 0 0 -1
    outer loop
      vertex 49.3278 -3.11868 -10
      vertex 49.3278 3.11868 -10
      vertex 49.4713 3.73035 -10
    endloop
  endfacet
  facet normal 0 0 -1
    outer loop
      vertex 49.2101 -2.50153 -10
      vertex 49.3278 3.11868 -10
      vertex 49.3278 -3.11868 -10
    endloop
  endfacet
  facet normal 0 0 -1
    outer loop
      vertex 49.2101 -2.50153 -10
      vertex 49.2101 2.50153 -10
      vertex 49.3278 3.11868 -10
    endloop
  endfacet
  facet normal 0 0 -1
    outer loop
      vertex 49.1183 -1.88 -10
      vertex 49.2101 2.50153 -10
      vertex 49.2101 -2.50153 -10
    endloop
  endfacet
  facet normal 0 0 -1
    outer loop
      vertex 49.1183 -1.88 -10
      vertex 49.1183 1.88 -10
      vertex 49.2101 2.50153 -10
    endloop
  endfacet
  facet normal 0 0 -1
    outer loop
      vertex 49.0526 -1.25517 -10
      vertex 49.1183 1.88 -10
      vertex 49.1183 -1.88 -10
    endloop
  endfacet
  facet normal 0 0 -1
    outer loop
      vertex 49.0526 -1.25517 -10
      vertex 49.0526 1.25517 -10
      vertex 49.1183 1.88 -10
    endloop
  endfacet
  facet normal 0 0 -1
    outer loop
      vertex 49.0132 -0.628135 -10
      vertex 49.0526 1.25517 -10
      vertex 49.0526 -1.25517 -10
    endloop
  endfacet
  facet normal 0 0 -1
    outer loop
      vertex 49.0132 -0.628135 -10
      vertex 49.0132 0.628135 -10
      vertex 49.0526 1.25517 -10
    endloop
  endfacet
  facet normal 0 -0 -1
    outer loop
      vertex 49.0132 0.628135 -10
      vertex 49.0132 -0.628135 -10
      vertex 49 0 -10
    endloop
  endfacet
  facet normal 0 0 1
    outer loop
      vertex 78.9868 0.628135 10
      vertex 78.9868 -0.628135 10
      vertex 79 0 10
    endloop
  endfacet
  facet normal 0 0 1
    outer loop
      vertex 78.9474 1.25517 10
      vertex 78.9868 -0.628135 10
      vertex 78.9868 0.628135 10
    endloop
  endfacet
  facet normal 0 0 1
    outer loop
      vertex 78.9474 1.25517 10
      vertex 78.9474 -1.25517 10
      vertex 78.9868 -0.628135 10
    endloop
  endfacet
  facet normal 0 0 1
    outer loop
      vertex 78.8817 1.88 10
      vertex 78.9474 -1.25517 10
      vertex 78.9474 1.25517 10
    endloop
  endfacet
  facet normal 0 0 1
    outer loop
      vertex 78.8817 1.88 10
      vertex 78.8817 -1.88 10
      vertex 78.9474 -1.25517 10
    endloop
  endfacet
  facet normal 0 0 1
    outer loop
      vertex 78.7899 2.50153 10
      vertex 78.8817 -1.88 10
      vertex 78.8817 1.88 10
    endloop
  endfacet
  facet normal 0 0 1
    outer loop
      vertex 78.7899 2.50153 10
      vertex 78.7899 -2.50153 10
      vertex 78.8817 -1.88 10
    endloop
  endfacet
  facet normal 0 0 1
    outer loop
      vertex 78.6722 3.11868 10
      vertex 78.7899 -2.50153 10
      vertex 78.7899 2.50153 10
    endloop
  endfacet
  facet normal 0 0 1
    outer loop
      vertex 78.6722 3.11868 10
      vertex 78.6722 -3.11868 10
      vertex 78.7899 -2.50153 10
    endloop
  endfacet
  facet normal 0 0 1
    outer loop
      vertex 78.5287 3.73035 10
      vertex 78.6722 -3.11868 10
      vertex 78.6722 3.11868 10
    endloop
  endfacet
  facet normal 0 0 1
    outer loop
      vertex 78.5287 3.73035 10
      vertex 78.5287 -3.73035 10
      vertex 78.6722 -3.11868 10
    endloop
  endfacet
  facet normal 0 0 1
    outer loop
      vertex 78.3598 4.33548 10
      vertex 78.5287 -3.73035 10
      vertex 78.5287 3.73035 10
    endloop
  endfacet
  facet normal 0 0 1
    outer loop
      vertex 78.3598 4.33548 10
      vertex 78.3598 -4.33548 10
      vertex 78.5287 -3.73035 10
    endloop
  endfacet
  facet normal 0 0 1
    outer loop
      vertex 78.1656 4.933 10
      vertex 78.3598 -4.33548 10
      vertex 78.3598 4.33548 10
    endloop
  endfacet
  facet normal 0 0 1
    outer loop
      vertex 78.1656 4.933 10
      vertex 78.1656 -4.933 10
      vertex 78.3598 -4.33548 10
    endloop
  endfacet
  facet normal 0 0 1
    outer loop
      vertex 77.9466 5.52187 10
      vertex 78.1656 -4.933 10
      vertex 78.1656 4.933 10
    endloop
  endfacet
  facet normal 0 0 1
    outer loop
      vertex 77.9466 5.52187 10
      vertex 77.9466 -5.52187 10
      vertex 78.1656 -4.933 10
    endloop
  endfacet
  facet normal 0 0 1
    outer loop
      vertex 77.7032 6.10105 10
      vertex 77.9466 -5.52187 10
      vertex 77.9466 5.52187 10
    endloop
  endfacet
  facet normal 0 0 1
    outer loop
      vertex 77.7032 6.10105 10
      vertex 77.7032 -6.10105 10
      vertex 77.9466 -5.52187 10
    endloop
  endfacet
  facet normal 0 0 1
    outer loop
      vertex 77.4357 6.66953 10
      vertex 77.7032 -6.10105 10
      vertex 77.7032 6.10105 10
    endloop
  endfacet
  facet normal 0 0 1
    outer loop
      vertex 77.4357 6.66953 10
      vertex 77.4357 -6.66953 10
      vertex 77.7032 -6.10105 10
    endloop
  endfacet
  facet normal 0 0 1
    outer loop
      vertex 77.1446 7.22631 10
      vertex 77.4357 -6.66953 10
      vertex 77.4357 6.66953 10
    endloop
  endfacet
  facet normal 0 0 1
    outer loop
      vertex 77.1446 7.22631 10
      vertex 77.1446 -7.22631 10
      vertex 77.4357 -6.66953 10
    endloop
  endfacet
  facet normal 0 0 1
    outer loop
      vertex 76.8305 7.77041 10
      vertex 77.1446 -7.22631 10
      vertex 77.1446 7.22631 10
    endloop
  endfacet
  facet normal 0 0 1
    outer loop
      vertex 76.8305 7.77041 10
      vertex 76.8305 -7.77041 10
      vertex 77.1446 -7.22631 10
    endloop
  endfacet
  facet normal 0 0 1
    outer loop
      vertex 76.4938 8.30087 10
      vertex 76.8305 -7.77041 10
      vertex 76.8305 7.77041 10
    endloop
  endfacet
  facet normal 0 0 1
    outer loop
      vertex 76.4938 8.30087 10
      vertex 76.4938 -8.30087 10
      vertex 76.8305 -7.77041 10
    endloop
  endfacet
  facet normal 0 0 1
    outer loop
      vertex 76.1353 8.81678 10
      vertex 76.4938 -8.30087 10
      vertex 76.4938 8.30087 10
    endloop
  endfacet
  facet normal 0 0 1
    outer loop
      vertex 76.1353 8.81678 10
      vertex 76.1353 -8.81678 10
      vertex 76.4938 -8.30087 10
    endloop
  endfacet
  facet normal 0 0 1
    outer loop
      vertex 75.7554 9.31722 10
      vertex 76.1353 -8.81678 10
      vertex 76.1353 8.81678 10
    endloop
  endfacet
  facet normal 0 0 1
    outer loop
      vertex 75.7554 9.31722 10
      vertex 75.7554 -9.31722 10
      vertex 76.1353 -8.81678 10
    endloop
  endfacet
  facet normal 0 0 1
    outer loop
      vertex 75.3549 9.80131 10
      vertex 75.7554 -9.31722 10
      vertex 75.7554 9.31722 10
    endloop
  endfacet
  facet normal 0 0 1
    outer loop
      vertex 75.3549 9.80131 10
      vertex 75.3549 -9.80131 10
      vertex 75.7554 -9.31722 10
    endloop
  endfacet
  facet normal 0 0 1
    outer loop
      vertex 74.9345 10.2682 10
      vertex 75.3549 -9.80131 10
      vertex 75.3549 9.80131 10
    endloop
  endfacet
  facet normal 0 0 1
    outer loop
      vertex 74.9345 10.2682 10
      vertex 74.9345 -10.2682 10
      vertex 75.3549 -9.80131 10
    endloop
  endfacet
  facet normal 0 0 1
    outer loop
      vertex 74.4949 10.7171 10
      vertex 74.9345 -10.2682 10
      vertex 74.9345 10.2682 10
    endloop
  endfacet
  facet normal 0 0 1
    outer loop
      vertex 74.4949 10.7171 10
      vertex 74.4949 -10.7171 10
      vertex 74.9345 -10.2682 10
    endloop
  endfacet
  facet normal 0 0 1
    outer loop
      vertex 74.037 11.1472 10
      vertex 74.4949 -10.7171 10
      vertex 74.4949 10.7171 10
    endloop
  endfacet
  facet normal 0 0 1
    outer loop
      vertex 74.037 11.1472 10
      vertex 74.037 -11.1472 10
      vertex 74.4949 -10.7171 10
    endloop
  endfacet
  facet normal 0 0 1
    outer loop
      vertex 73.5614 11.5577 10
      vertex 74.037 -11.1472 10
      vertex 74.037 11.1472 10
    endloop
  endfacet
  facet normal 0 0 1
    outer loop
      vertex 73.5614 11.5577 10
      vertex 73.5614 -11.5577 10
      vertex 74.037 -11.1472 10
    endloop
  endfacet
  facet normal 0 0 1
    outer loop
      vertex 73.069 11.9479 10
      vertex 73.5614 -11.5577 10
      vertex 73.5614 11.5577 10
    endloop
  endfacet
  facet normal 0 0 1
    outer loop
      vertex 73.069 11.9479 10
      vertex 73.069 -11.9479 10
      vertex 73.5614 -11.5577 10
    endloop
  endfacet
  facet normal 0 0 1
    outer loop
      vertex 72.5607 12.3172 10
      vertex 73.069 -11.9479 10
      vertex 73.069 11.9479 10
    endloop
  endfacet
  facet normal 0 0 1
    outer loop
      vertex 72.5607 12.3172 10
      vertex 72.5607 -12.3172 10
      vertex 73.069 -11.9479 10
    endloop
  endfacet
  facet normal 0 0 1
    outer loop
      vertex 72.0374 12.6649 10
      vertex 72.5607 -12.3172 10
      vertex 72.5607 12.3172 10
    endloop
  endfacet
  facet normal 0 0 1
    outer loop
      vertex 72.0374 12.6649 10
      vertex 72.0374 -12.6649 10
      vertex 72.5607 -12.3172 10
    endloop
  endfacet
  facet normal 0 0 1
    outer loop
      vertex 71.5 12.9904 10
      vertex 72.0374 -12.6649 10
      vertex 72.0374 12.6649 10
    endloop
  endfacet
  facet normal 0 0 1
    outer loop
      vertex 71.5 12.9904 10
      vertex 71.5 -12.9904 10
      vertex 72.0374 -12.6649 10
    endloop
  endfacet
  facet normal 0 0 1
    outer loop
      vertex 70.9494 13.2931 10
      vertex 71.5 -12.9904 10
      vertex 71.5 12.9904 10
    endloop
  endfacet
  facet normal 0 0 1
    outer loop
      vertex 70.9494 13.2931 10
      vertex 70.9494 -13.2931 10
      vertex 71.5 -12.9904 10
    endloop
  endfacet
  facet normal 0 0 1
    outer loop
      vertex 70.3867 13.5724 10
      vertex 70.9494 -13.2931 10
      vertex 70.9494 13.2931 10
    endloop
  endfacet
  facet normal 0 0 1
    outer loop
      vertex 70.3867 13.5724 10
      vertex 70.3867 -13.5724 10
      vertex 70.9494 -13.2931 10
    endloop
  endfacet
  facet normal 0 0 1
    outer loop
      vertex 69.8127 13.8279 10
      vertex 70.3867 -13.5724 10
      vertex 70.3867 13.5724 10
    endloop
  endfacet
  facet normal 0 0 1
    outer loop
      vertex 69.8127 13.8279 10
      vertex 69.8127 -13.8279 10
      vertex 70.3867 -13.5724 10
    endloop
  endfacet
  facet normal 0 0 1
    outer loop
      vertex 69.2286 14.0592 10
      vertex 69.8127 -13.8279 10
      vertex 69.8127 13.8279 10
    endloop
  endfacet
  facet normal 0 0 1
    outer loop
      vertex 69.2286 14.0592 10
      vertex 69.2286 -14.0592 10
      vertex 69.8127 -13.8279 10
    endloop
  endfacet
  facet normal 0 0 1
    outer loop
      vertex 68.6353 14.2658 10
      vertex 69.2286 -14.0592 10
      vertex 69.2286 14.0592 10
    endloop
  endfacet
  facet normal 0 0 1
    outer loop
      vertex 68.6353 14.2658 10
      vertex 68.6353 -14.2658 10
      vertex 69.2286 -14.0592 10
    endloop
  endfacet
  facet normal 0 0 1
    outer loop
      vertex 68.0338 14.4474 10
      vertex 68.6353 -14.2658 10
      vertex 68.6353 14.2658 10
    endloop
  endfacet
  facet normal 0 0 1
    outer loop
      vertex 68.0338 14.4474 10
      vertex 68.0338 -14.4474 10
      vertex 68.6353 -14.2658 10
    endloop
  endfacet
  facet normal 0 0 1
    outer loop
      vertex 67.4253 14.6037 10
      vertex 68.0338 -14.4474 10
      vertex 68.0338 14.4474 10
    endloop
  endfacet
  facet normal 0 0 1
    outer loop
      vertex 67.4253 14.6037 10
      vertex 67.4253 -14.6037 10
      vertex 68.0338 -14.4474 10
    endloop
  endfacet
  facet normal 0 0 1
    outer loop
      vertex 66.8107 14.7343 10
      vertex 67.4253 -14.6037 10
      vertex 67.4253 14.6037 10
    endloop
  endfacet
  facet normal 0 0 1
    outer loop
      vertex 66.8107 14.7343 10
      vertex 66.8107 -14.7343 10
      vertex 67.4253 -14.6037 10
    endloop
  endfacet
  facet normal 0 0 1
    outer loop
      vertex 66.1912 14.8391 10
      vertex 66.8107 -14.7343 10
      vertex 66.8107 14.7343 10
    endloop
  endfacet
  facet normal 0 0 1
    outer loop
      vertex 66.1912 14.8391 10
      vertex 66.1912 -14.8391 10
      vertex 66.8107 -14.7343 10
    endloop
  endfacet
  facet normal 0 0 1
    outer loop
      vertex 65.5679 14.9178 10
      vertex 66.1912 -14.8391 10
      vertex 66.1912 14.8391 10
    endloop
  endfacet
  facet normal 0 0 1
    outer loop
      vertex 65.5679 14.9178 10
      vertex 65.5679 -14.9178 10
      vertex 66.1912 -14.8391 10
    endloop
  endfacet
  facet normal 0 0 1
    outer loop
      vertex 64.9419 14.9704 10
      vertex 65.5679 -14.9178 10
      vertex 65.5679 14.9178 10
    endloop
  endfacet
  facet normal 0 0 1
    outer loop
      vertex 64.9419 14.9704 10
      vertex 64.9419 -14.9704 10
      vertex 65.5679 -14.9178 10
    endloop
  endfacet
  facet normal 0 0 1
    outer loop
      vertex 64.3141 14.9967 10
      vertex 64.9419 -14.9704 10
      vertex 64.9419 14.9704 10
    endloop
  endfacet
  facet normal 0 0 1
    outer loop
      vertex 64.3141 14.9967 10
      vertex 64.3141 -14.9967 10
      vertex 64.9419 -14.9704 10
    endloop
  endfacet
  facet normal -0 0 1
    outer loop
      vertex 63.6859 14.9967 10
      vertex 64.3141 -14.9967 10
      vertex 64.3141 14.9967 10
    endloop
  endfacet
  facet normal 0 0 1
    outer loop
      vertex 63.6859 14.9967 10
      vertex 63.6859 -14.9967 10
      vertex 64.3141 -14.9967 10
    endloop
  endfacet
  facet normal -0 0 1
    outer loop
      vertex 63.0581 14.9704 10
      vertex 63.6859 -14.9967 10
      vertex 63.6859 14.9967 10
    endloop
  endfacet
  facet normal 0 0 1
    outer loop
      vertex 63.0581 14.9704 10
      vertex 63.0581 -14.9704 10
      vertex 63.6859 -14.9967 10
    endloop
  endfacet
  facet normal -0 0 1
    outer loop
      vertex 62.4321 14.9178 10
      vertex 63.0581 -14.9704 10
      vertex 63.0581 14.9704 10
    endloop
  endfacet
  facet normal 0 0 1
    outer loop
      vertex 62.4321 14.9178 10
      vertex 62.4321 -14.9178 10
      vertex 63.0581 -14.9704 10
    endloop
  endfacet
  facet normal -0 0 1
    outer loop
      vertex 61.8088 14.8391 10
      vertex 62.4321 -14.9178 10
      vertex 62.4321 14.9178 10
    endloop
  endfacet
  facet normal 0 0 1
    outer loop
      vertex 61.8088 14.8391 10
      vertex 61.8088 -14.8391 10
      vertex 62.4321 -14.9178 10
    endloop
  endfacet
  facet normal -0 0 1
    outer loop
      vertex 61.1893 14.7343 10
      vertex 61.8088 -14.8391 10
      vertex 61.8088 14.8391 10
    endloop
  endfacet
  facet normal 0 0 1
    outer loop
      vertex 61.1893 14.7343 10
      vertex 61.1893 -14.7343 10
      vertex 61.8088 -14.8391 10
    endloop
  endfacet
  facet normal -0 0 1
    outer loop
      vertex 60.5747 14.6037 10
      vertex 61.1893 -14.7343 10
      vertex 61.1893 14.7343 10
    endloop
  endfacet
  facet normal 0 0 1
    outer loop
      vertex 60.5747 14.6037 10
      vertex 60.5747 -14.6037 10
      vertex 61.1893 -14.7343 10
    endloop
  endfacet
  facet normal -0 0 1
    outer loop
      vertex 59.9662 14.4474 10
      vertex 60.5747 -14.6037 10
      vertex 60.5747 14.6037 10
    endloop
  endfacet
  facet normal 0 0 1
    outer loop
      vertex 59.9662 14.4474 10
      vertex 59.9662 -14.4474 10
      vertex 60.5747 -14.6037 10
    endloop
  endfacet
  facet normal -0 0 1
    outer loop
      vertex 59.3647 14.2658 10
      vertex 59.9662 -14.4474 10
      vertex 59.9662 14.4474 10
    endloop
  endfacet
  facet normal 0 0 1
    outer loop
      vertex 59.3647 14.2658 10
      vertex 59.3647 -14.2658 10
      vertex 59.9662 -14.4474 10
    endloop
  endfacet
  facet normal -0 0 1
    outer loop
      vertex 58.7714 14.0592 10
      vertex 59.3647 -14.2658 10
      vertex 59.3647 14.2658 10
    endloop
  endfacet
  facet normal 0 0 1
    outer loop
      vertex 58.7714 14.0592 10
      vertex 58.7714 -14.0592 10
      vertex 59.3647 -14.2658 10
    endloop
  endfacet
  facet normal -0 0 1
    outer loop
      vertex 58.1873 13.8279 10
      vertex 58.7714 -14.0592 10
      vertex 58.7714 14.0592 10
    endloop
  endfacet
  facet normal 0 0 1
    outer loop
      vertex 58.1873 13.8279 10
      vertex 58.1873 -13.8279 10
      vertex 58.7714 -14.0592 10
    endloop
  endfacet
  facet normal -0 0 1
    outer loop
      vertex 57.6133 13.5724 10
      vertex 58.1873 -13.8279 10
      vertex 58.1873 13.8279 10
    endloop
  endfacet
  facet normal 0 0 1
    outer loop
      vertex 57.6133 13.5724 10
      vertex 57.6133 -13.5724 10
      vertex 58.1873 -13.8279 10
    endloop
  endfacet
  facet normal -0 0 1
    outer loop
      vertex 57.0506 13.2931 10
      vertex 57.6133 -13.5724 10
      vertex 57.6133 13.5724 10
    endloop
  endfacet
  facet normal 0 0 1
    outer loop
      vertex 57.0506 13.2931 10
      vertex 57.0506 -13.2931 10
      vertex 57.6133 -13.5724 10
    endloop
  endfacet
  facet normal -0 0 1
    outer loop
      vertex 56.5 12.9904 10
      vertex 57.0506 -13.2931 10
      vertex 57.0506 13.2931 10
    endloop
  endfacet
  facet normal 0 0 1
    outer loop
      vertex 56.5 12.9904 10
      vertex 56.5 -12.9904 10
      vertex 57.0506 -13.2931 10
    endloop
  endfacet
  facet normal -0 0 1
    outer loop
      vertex 55.9626 12.6649 10
      vertex 56.5 -12.9904 10
      vertex 56.5 12.9904 10
    endloop
  endfacet
  facet normal 0 0 1
    outer loop
      vertex 55.9626 12.6649 10
      vertex 55.9626 -12.6649 10
      vertex 56.5 -12.9904 10
    endloop
  endfacet
  facet normal -0 0 1
    outer loop
      vertex 55.4393 12.3172 10
      vertex 55.9626 -12.6649 10
      vertex 55.9626 12.6649 10
    endloop
  endfacet
  facet normal 0 0 1
    outer loop
      vertex 55.4393 12.3172 10
      vertex 55.4393 -12.3172 10
      vertex 55.9626 -12.6649 10
    endloop
  endfacet
  facet normal -0 0 1
    outer loop
      vertex 54.931 11.9479 10
      vertex 55.4393 -12.3172 10
      vertex 55.4393 12.3172 10
    endloop
  endfacet
  facet normal 0 0 1
    outer loop
      vertex 54.931 11.9479 10
      vertex 54.931 -11.9479 10
      vertex 55.4393 -12.3172 10
    endloop
  endfacet
  facet normal -0 0 1
    outer loop
      vertex 54.4386 11.5577 10
      vertex 54.931 -11.9479 10
      vertex 54.931 11.9479 10
    endloop
  endfacet
  facet normal 0 0 1
    outer loop
      vertex 54.4386 11.5577 10
      vertex 54.4386 -11.5577 10
      vertex 54.931 -11.9479 10
    endloop
  endfacet
  facet normal -0 0 1
    outer loop
      vertex 53.963 11.1472 10
      vertex 54.4386 -11.5577 10
      vertex 54.4386 11.5577 10
    endloop
  endfacet
  facet normal 0 0 1
    outer loop
      vertex 53.963 11.1472 10
      vertex 53.963 -11.1472 10
      vertex 54.4386 -11.5577 10
    endloop
  endfacet
  facet normal -0 0 1
    outer loop
      vertex 53.5051 10.7171 10
      vertex 53.963 -11.1472 10
      vertex 53.963 11.1472 10
    endloop
  endfacet
  facet normal 0 0 1
    outer loop
      vertex 53.5051 10.7171 10
      vertex 53.5051 -10.7171 10
      vertex 53.963 -11.1472 10
    endloop
  endfacet
  facet normal -0 0 1
    outer loop
      vertex 53.0655 10.2682 10
      vertex 53.5051 -10.7171 10
      vertex 53.5051 10.7171 10
    endloop
  endfacet
  facet normal 0 0 1
    outer loop
      vertex 53.0655 10.2682 10
      vertex 53.0655 -10.2682 10
      vertex 53.5051 -10.7171 10
    endloop
  endfacet
  facet normal -0 0 1
    outer loop
      vertex 52.6451 9.80131 10
      vertex 53.0655 -10.2682 10
      vertex 53.0655 10.2682 10
    endloop
  endfacet
  facet normal 0 0 1
    outer loop
      vertex 52.6451 9.80131 10
      vertex 52.6451 -9.80131 10
      vertex 53.0655 -10.2682 10
    endloop
  endfacet
  facet normal -0 0 1
    outer loop
      vertex 52.2446 9.31722 10
      vertex 52.6451 -9.80131 10
      vertex 52.6451 9.80131 10
    endloop
  endfacet
  facet normal 0 0 1
    outer loop
      vertex 52.2446 9.31722 10
      vertex 52.2446 -9.31722 10
      vertex 52.6451 -9.80131 10
    endloop
  endfacet
  facet normal -0 0 1
    outer loop
      vertex 51.8647 8.81678 10
      vertex 52.2446 -9.31722 10
      vertex 52.2446 9.31722 10
    endloop
  endfacet
  facet normal 0 0 1
    outer loop
      vertex 51.8647 8.81678 10
      vertex 51.8647 -8.81678 10
      vertex 52.2446 -9.31722 10
    endloop
  endfacet
  facet normal -0 0 1
    outer loop
      vertex 51.5062 8.30087 10
      vertex 51.8647 -8.81678 10
      vertex 51.8647 8.81678 10
    endloop
  endfacet
  facet normal 0 0 1
    outer loop
      vertex 51.5062 8.30087 10
      vertex 51.5062 -8.30087 10
      vertex 51.8647 -8.81678 10
    endloop
  endfacet
  facet normal -0 0 1
    outer loop
      vertex 51.1695 7.77041 10
      vertex 51.5062 -8.30087 10
      vertex 51.5062 8.30087 10
    endloop
  endfacet
  facet normal 0 0 1
    outer loop
      vertex 51.1695 7.77041 10
      vertex 51.1695 -7.77041 10
      vertex 51.5062 -8.30087 10
    endloop
  endfacet
  facet normal -0 0 1
    outer loop
      vertex 50.8554 7.22631 10
      vertex 51.1695 -7.77041 10
      vertex 51.1695 7.77041 10
    endloop
  endfacet
  facet normal 0 0 1
    outer loop
      vertex 50.8554 7.22631 10
      vertex 50.8554 -7.22631 10
      vertex 51.1695 -7.77041 10
    endloop
  endfacet
  facet normal -0 0 1
    outer loop
      vertex 50.5643 6.66953 10
      vertex 50.8554 -7.22631 10
      vertex 50.8554 7.22631 10
    endloop
  endfacet
  facet normal 0 0 1
    outer loop
      vertex 50.5643 6.66953 10
      vertex 50.5643 -6.66953 10
      vertex 50.8554 -7.22631 10
    endloop
  endfacet
  facet normal -0 0 1
    outer loop
      vertex 50.2968 6.10105 10
      vertex 50.5643 -6.66953 10
      vertex 50.5643 6.66953 10
    endloop
  endfacet
  facet normal 0 0 1
    outer loop
      vertex 50.2968 6.10105 10
      vertex 50.2968 -6.10105 10
      vertex 50.5643 -6.66953 10
    endloop
  endfacet
  facet normal -0 0 1
    outer loop
      vertex 50.0534 5.52187 10
      vertex 50.2968 -6.10105 10
      vertex 50.2968 6.10105 10
    endloop
  endfacet
  facet normal 0 0 1
    outer loop
      vertex 50.0534 5.52187 10
      vertex 50.0534 -5.52187 10
      vertex 50.2968 -6.10105 10
    endloop
  endfacet
  facet normal -0 0 1
    outer loop
      vertex 49.8344 4.933 10
      vertex 50.0534 -5.52187 10
      vertex 50.0534 5.52187 10
    endloop
  endfacet
  facet normal 0 0 1
    outer loop
      vertex 49.8344 4.933 10
      vertex 49.8344 -4.933 10
      vertex 50.0534 -5.52187 10
    endloop
  endfacet
  facet normal -0 0 1
    outer loop
      vertex 49.6402 4.33548 10
      vertex 49.8344 -4.933 10
      vertex 49.8344 4.933 10
    endloop
  endfacet
  facet normal 0 0 1
    outer loop
      vertex 49.6402 4.33548 10
      vertex 49.6402 -4.33548 10
      vertex 49.8344 -4.933 10
    endloop
  endfacet
  facet normal -0 0 1
    outer loop
      vertex 49.4713 3.73035 10
      vertex 49.6402 -4.33548 10
      vertex 49.6402 4.33548 10
    endloop
  endfacet
  facet normal 0 0 1
    outer loop
      vertex 49.4713 3.73035 10
      vertex 49.4713 -3.73035 10
      vertex 49.6402 -4.33548 10
    endloop
  endfacet
  facet normal -0 0 1
    outer loop
      vertex 49.3278 3.11868 10
      vertex 49.4713 -3.73035 10
      vertex 49.4713 3.73035 10
    endloop
  endfacet
  facet normal 0 0 1
    outer loop
      vertex 49.3278 3.11868 10
      vertex 49.3278 -3.11868 10
      vertex 49.4713 -3.73035 10
    endloop
  endfacet
  facet normal -0 0 1
    outer loop
      vertex 49.2101 2.50153 10
      vertex 49.3278 -3.11868 10
      vertex 49.3278 3.11868 10
    endloop
  endfacet
  facet normal 0 0 1
    outer loop
      vertex 49.2101 2.50153 10
      vertex 49.2101 -2.50153 10
      vertex 49.3278 -3.11868 10
    endloop
  endfacet
  facet normal -0 0 1
    outer loop
      vertex 49.1183 1.88 10
      vertex 49.2101 -2.50153 10
      vertex 49.2101 2.50153 10
    endloop
  endfacet
  facet normal 0 0 1
    outer loop
      vertex 49.1183 1.88 10
      vertex 49.1183 -1.88 10
      vertex 49.2101 -2.50153 10
    endloop
  endfacet
  facet normal -0 0 1
    outer loop
      vertex 49.0526 1.25517 10
      vertex 49.1183 -1.88 10
      vertex 49.1183 1.88 10
    endloop
  endfacet
  facet normal 0 0 1
    outer loop
      vertex 49.0526 1.25517 10
      vertex 49.0526 -1.25517 10
      vertex 49.1183 -1.88 10
    endloop
  endfacet
  facet normal -0 0 1
    outer loop
      vertex 49.0132 0.628135 10
      vertex 49.0526 -1.25517 10
      vertex 49.0526 1.25517 10
    endloop
  endfacet
  facet normal 0 0 1
    outer loop
      vertex 49.0132 0.628135 10
      vertex 49.0132 -0.628135 10
      vertex 49.0526 -1.25517 10
    endloop
  endfacet
  facet normal 0 -0 1
    outer loop
      vertex 49.0132 -0.628135 10
      vertex 49.0132 0.628135 10
      vertex 49 0 10
    endloop
  endfacet
endsolid OpenSCAD_Model
