solid OpenSCAD_Model
  facet normal 0.999786 0.0206918 0
    outer loop
      vertex 271 0 10
      vertex 270.987 0.628135 -10
      vertex 270.987 0.628135 10
    endloop
  endfacet
  facet normal 0.999786 0.0206918 0
    outer loop
      vertex 270.987 0.628135 -10
      vertex 271 0 10
      vertex 271 0 -10
    endloop
  endfacet
  facet normal 0.997971 0.0636629 0
    outer loop
      vertex 270.987 0.628135 10
      vertex 270.947 1.25517 -10
      vertex 270.947 1.25517 10
    endloop
  endfacet
  facet normal 0.997971 0.0636629 0
    outer loop
      vertex 270.947 1.25517 -10
      vertex 270.987 0.628135 10
      vertex 270.987 0.628135 -10
    endloop
  endfacet
  facet normal 0.994633 0.10347 0
    outer loop
      vertex 270.947 1.25517 10
      vertex 270.882 1.88 -10
      vertex 270.882 1.88 10
    endloop
  endfacet
  facet normal 0.994633 0.10347 0
    outer loop
      vertex 270.882 1.88 -10
      vertex 270.947 1.25517 10
      vertex 270.947 1.25517 -10
    endloop
  endfacet
  facet normal 0.989222 0.146426 0
    outer loop
      vertex 270.882 1.88 10
      vertex 270.79 2.50153 -10
      vertex 270.79 2.50153 10
    endloop
  endfacet
  facet normal 0.989222 0.146426 0
    outer loop
      vertex 270.79 2.50153 -10
      vertex 270.882 1.88 10
      vertex 270.882 1.88 -10
    endloop
  endfacet
  facet normal 0.982207 0.1878 0
    outer loop
      vertex 270.79 2.50153 10
      vertex 270.672 3.11868 -10
      vertex 270.672 3.11868 10
    endloop
  endfacet
  facet normal 0.982207 0.1878 0
    outer loop
      vertex 270.672 3.11868 -10
      vertex 270.79 2.50153 10
      vertex 270.79 2.50153 -10
    endloop
  endfacet
  facet normal 0.973744 0.227648 0
    outer loop
      vertex 270.672 3.11868 10
      vertex 270.529 3.73035 -10
      vertex 270.529 3.73035 10
    endloop
  endfacet
  facet normal 0.973744 0.227648 0
    outer loop
      vertex 270.529 3.73035 -10
      vertex 270.672 3.11868 10
      vertex 270.672 3.11868 -10
    endloop
  endfacet
  facet normal 0.963144 0.268986 0
    outer loop
      vertex 270.529 3.73035 10
      vertex 270.36 4.33548 -10
      vertex 270.36 4.33548 10
    endloop
  endfacet
  facet normal 0.963144 0.268986 0
    outer loop
      vertex 270.36 4.33548 -10
      vertex 270.529 3.73035 10
      vertex 270.529 3.73035 -10
    endloop
  endfacet
  facet normal 0.951125 0.308807 0
    outer loop
      vertex 270.36 4.33548 10
      vertex 270.166 4.933 -10
      vertex 270.166 4.933 10
    endloop
  endfacet
  facet normal 0.951125 0.308807 0
    outer loop
      vertex 270.166 4.933 -10
      vertex 270.36 4.33548 10
      vertex 270.36 4.33548 -10
    endloop
  endfacet
  facet normal 0.937281 0.348574 0
    outer loop
      vertex 270.166 4.933 10
      vertex 269.947 5.52187 -10
      vertex 269.947 5.52187 10
    endloop
  endfacet
  facet normal 0.937281 0.348574 0
    outer loop
      vertex 269.947 5.52187 -10
      vertex 270.166 4.933 10
      vertex 270.166 4.933 -10
    endloop
  endfacet
  facet normal 0.921559 0.388239 0
    outer loop
      vertex 269.947 5.52187 10
      vertex 269.703 6.10105 -10
      vertex 269.703 6.10105 10
    endloop
  endfacet
  facet normal 0.921559 0.388239 0
    outer loop
      vertex 269.703 6.10105 -10
      vertex 269.947 5.52187 10
      vertex 269.947 5.52187 -10
    endloop
  endfacet
  facet normal 0.905137 0.425119 0
    outer loop
      vertex 269.703 6.10105 10
      vertex 269.436 6.66953 -10
      vertex 269.436 6.66953 10
    endloop
  endfacet
  facet normal 0.905137 0.425119 0
    outer loop
      vertex 269.436 6.66953 -10
      vertex 269.703 6.10105 10
      vertex 269.703 6.10105 -10
    endloop
  endfacet
  facet normal 0.886254 0.463199 0
    outer loop
      vertex 269.436 6.66953 10
      vertex 269.145 7.22631 -10
      vertex 269.145 7.22631 10
    endloop
  endfacet
  facet normal 0.886254 0.463199 0
    outer loop
      vertex 269.145 7.22631 -10
      vertex 269.436 6.66953 10
      vertex 269.436 6.66953 -10
    endloop
  endfacet
  facet normal 0.86543 0.50103 0
    outer loop
      vertex 269.145 7.22631 10
      vertex 268.83 7.77041 -10
      vertex 268.83 7.77041 10
    endloop
  endfacet
  facet normal 0.86543 0.50103 0
    outer loop
      vertex 268.83 7.77041 -10
      vertex 269.145 7.22631 10
      vertex 269.145 7.22631 -10
    endloop
  endfacet
  facet normal 0.844789 0.5351 0
    outer loop
      vertex 268.83 7.77041 10
      vertex 268.494 8.30087 -10
      vertex 268.494 8.30087 10
    endloop
  endfacet
  facet normal 0.844789 0.5351 0
    outer loop
      vertex 268.494 8.30087 -10
      vertex 268.83 7.77041 10
      vertex 268.83 7.77041 -10
    endloop
  endfacet
  facet normal 0.820826 0.571178 0
    outer loop
      vertex 268.494 8.30087 10
      vertex 268.135 8.81678 -10
      vertex 268.135 8.81678 10
    endloop
  endfacet
  facet normal 0.820826 0.571178 0
    outer loop
      vertex 268.135 8.81678 -10
      vertex 268.494 8.30087 10
      vertex 268.494 8.30087 -10
    endloop
  endfacet
  facet normal 0.796418 0.604746 0
    outer loop
      vertex 268.135 8.81678 10
      vertex 267.755 9.31722 -10
      vertex 267.755 9.31722 10
    endloop
  endfacet
  facet normal 0.796418 0.604746 0
    outer loop
      vertex 267.755 9.31722 -10
      vertex 268.135 8.81678 10
      vertex 268.135 8.81678 -10
    endloop
  endfacet
  facet normal 0.770884 0.636976 0
    outer loop
      vertex 267.755 9.31722 10
      vertex 267.355 9.80131 -10
      vertex 267.355 9.80131 10
    endloop
  endfacet
  facet normal 0.770884 0.636976 0
    outer loop
      vertex 267.355 9.80131 -10
      vertex 267.755 9.31722 10
      vertex 267.755 9.31722 -10
    endloop
  endfacet
  facet normal 0.743453 0.668788 0
    outer loop
      vertex 267.355 9.80131 10
      vertex 266.935 10.2682 -10
      vertex 266.935 10.2682 10
    endloop
  endfacet
  facet normal 0.743453 0.668788 0
    outer loop
      vertex 266.935 10.2682 -10
      vertex 267.355 9.80131 10
      vertex 267.355 9.80131 -10
    endloop
  endfacet
  facet normal 0.714151 0.699992 0
    outer loop
      vertex 266.935 10.2682 10
      vertex 266.495 10.7171 -10
      vertex 266.495 10.7171 10
    endloop
  endfacet
  facet normal 0.714151 0.699992 0
    outer loop
      vertex 266.495 10.7171 -10
      vertex 266.935 10.2682 10
      vertex 266.935 10.2682 -10
    endloop
  endfacet
  facet normal 0.684555 0.728961 -0
    outer loop
      vertex 266.495 10.7171 -10
      vertex 266.037 11.1472 10
      vertex 266.495 10.7171 10
    endloop
  endfacet
  facet normal 0.684555 0.728961 0
    outer loop
      vertex 266.037 11.1472 10
      vertex 266.495 10.7171 -10
      vertex 266.037 11.1472 -10
    endloop
  endfacet
  facet normal 0.653081 0.757288 -0
    outer loop
      vertex 266.037 11.1472 -10
      vertex 265.561 11.5577 10
      vertex 266.037 11.1472 10
    endloop
  endfacet
  facet normal 0.653081 0.757288 0
    outer loop
      vertex 265.561 11.5577 10
      vertex 266.037 11.1472 -10
      vertex 265.561 11.5577 -10
    endloop
  endfacet
  facet normal 0.621388 0.783503 -0
    outer loop
      vertex 265.561 11.5577 -10
      vertex 265.069 11.9479 10
      vertex 265.561 11.5577 10
    endloop
  endfacet
  facet normal 0.621388 0.783503 0
    outer loop
      vertex 265.069 11.9479 10
      vertex 265.561 11.5577 -10
      vertex 265.069 11.9479 -10
    endloop
  endfacet
  facet normal 0.588011 0.808853 -0
    outer loop
      vertex 265.069 11.9479 -10
      vertex 264.561 12.3172 10
      vertex 265.069 11.9479 10
    endloop
  endfacet
  facet normal 0.588011 0.808853 0
    outer loop
      vertex 264.561 12.3172 10
      vertex 265.069 11.9479 -10
      vertex 264.561 12.3172 -10
    endloop
  endfacet
  facet normal 0.552901 0.833247 -0
    outer loop
      vertex 264.561 12.3172 -10
      vertex 264.037 12.6649 10
      vertex 264.561 12.3172 10
    endloop
  endfacet
  facet normal 0.552901 0.833247 0
    outer loop
      vertex 264.037 12.6649 10
      vertex 264.561 12.3172 -10
      vertex 264.037 12.6649 -10
    endloop
  endfacet
  facet normal 0.518355 0.855166 -0
    outer loop
      vertex 264.037 12.6649 -10
      vertex 263.5 12.9904 10
      vertex 264.037 12.6649 10
    endloop
  endfacet
  facet normal 0.518355 0.855166 0
    outer loop
      vertex 263.5 12.9904 10
      vertex 264.037 12.6649 -10
      vertex 263.5 12.9904 -10
    endloop
  endfacet
  facet normal 0.481491 0.876451 -0
    outer loop
      vertex 263.5 12.9904 -10
      vertex 262.949 13.2931 10
      vertex 263.5 12.9904 10
    endloop
  endfacet
  facet normal 0.481491 0.876451 0
    outer loop
      vertex 262.949 13.2931 10
      vertex 263.5 12.9904 -10
      vertex 262.949 13.2931 -10
    endloop
  endfacet
  facet normal 0.445045 0.895508 -0
    outer loop
      vertex 262.949 13.2931 -10
      vertex 262.387 13.5724 10
      vertex 262.949 13.2931 10
    endloop
  endfacet
  facet normal 0.445045 0.895508 0
    outer loop
      vertex 262.387 13.5724 10
      vertex 262.949 13.2931 -10
      vertex 262.387 13.5724 -10
    endloop
  endfacet
  facet normal 0.406655 0.913582 -0
    outer loop
      vertex 262.387 13.5724 -10
      vertex 261.813 13.8279 10
      vertex 262.387 13.5724 10
    endloop
  endfacet
  facet normal 0.406655 0.913582 0
    outer loop
      vertex 261.813 13.8279 10
      vertex 262.387 13.5724 -10
      vertex 261.813 13.8279 -10
    endloop
  endfacet
  facet normal 0.368232 0.929734 -0
    outer loop
      vertex 261.813 13.8279 -10
      vertex 261.229 14.0592 10
      vertex 261.813 13.8279 10
    endloop
  endfacet
  facet normal 0.368232 0.929734 0
    outer loop
      vertex 261.229 14.0592 10
      vertex 261.813 13.8279 -10
      vertex 261.229 14.0592 -10
    endloop
  endfacet
  facet normal 0.328508 0.944501 -0
    outer loop
      vertex 261.229 14.0592 -10
      vertex 260.635 14.2658 10
      vertex 261.229 14.0592 10
    endloop
  endfacet
  facet normal 0.328508 0.944501 0
    outer loop
      vertex 260.635 14.2658 10
      vertex 261.229 14.0592 -10
      vertex 260.635 14.2658 -10
    endloop
  endfacet
  facet normal 0.289247 0.957255 -0
    outer loop
      vertex 260.635 14.2658 -10
      vertex 260.034 14.4474 10
      vertex 260.635 14.2658 10
    endloop
  endfacet
  facet normal 0.289247 0.957255 0
    outer loop
      vertex 260.034 14.4474 10
      vertex 260.635 14.2658 -10
      vertex 260.034 14.4474 -10
    endloop
  endfacet
  facet normal 0.248593 0.968608 -0
    outer loop
      vertex 260.034 14.4474 -10
      vertex 259.425 14.6037 10
      vertex 260.034 14.4474 10
    endloop
  endfacet
  facet normal 0.248593 0.968608 0
    outer loop
      vertex 259.425 14.6037 10
      vertex 260.034 14.4474 -10
      vertex 259.425 14.6037 -10
    endloop
  endfacet
  facet normal 0.208049 0.978118 -0
    outer loop
      vertex 259.425 14.6037 -10
      vertex 258.811 14.7343 10
      vertex 259.425 14.6037 10
    endloop
  endfacet
  facet normal 0.208049 0.978118 0
    outer loop
      vertex 258.811 14.7343 10
      vertex 259.425 14.6037 -10
      vertex 258.811 14.7343 -10
    endloop
  endfacet
  facet normal 0.166668 0.986013 -0
    outer loop
      vertex 258.811 14.7343 -10
      vertex 258.191 14.8391 10
      vertex 258.811 14.7343 10
    endloop
  endfacet
  facet normal 0.166668 0.986013 0
    outer loop
      vertex 258.191 14.8391 10
      vertex 258.811 14.7343 -10
      vertex 258.191 14.8391 -10
    endloop
  endfacet
  facet normal 0.125328 0.992115 -0
    outer loop
      vertex 258.191 14.8391 -10
      vertex 257.568 14.9178 10
      vertex 258.191 14.8391 10
    endloop
  endfacet
  facet normal 0.125328 0.992115 0
    outer loop
      vertex 257.568 14.9178 10
      vertex 258.191 14.8391 -10
      vertex 257.568 14.9178 -10
    endloop
  endfacet
  facet normal 0.0837305 0.996488 -0
    outer loop
      vertex 257.568 14.9178 -10
      vertex 256.942 14.9704 10
      vertex 257.568 14.9178 10
    endloop
  endfacet
  facet normal 0.0837305 0.996488 0
    outer loop
      vertex 256.942 14.9704 10
      vertex 257.568 14.9178 -10
      vertex 256.942 14.9704 -10
    endloop
  endfacet
  facet normal 0.0418423 0.999124 -0
    outer loop
      vertex 256.942 14.9704 -10
      vertex 256.314 14.9967 10
      vertex 256.942 14.9704 10
    endloop
  endfacet
  facet normal 0.0418423 0.999124 0
    outer loop
      vertex 256.314 14.9967 10
      vertex 256.942 14.9704 -10
      vertex 256.314 14.9967 -10
    endloop
  endfacet
  facet normal 0 1 -0
    outer loop
      vertex 256.314 14.9967 -10
      vertex 255.686 14.9967 10
      vertex 256.314 14.9967 10
    endloop
  endfacet
  facet normal 0 1 0
    outer loop
      vertex 255.686 14.9967 10
      vertex 256.314 14.9967 -10
      vertex 255.686 14.9967 -10
    endloop
  endfacet
  facet normal -0.0418423 0.999124 0
    outer loop
      vertex 255.686 14.9967 -10
      vertex 255.058 14.9704 10
      vertex 255.686 14.9967 10
    endloop
  endfacet
  facet normal -0.0418423 0.999124 0
    outer loop
      vertex 255.058 14.9704 10
      vertex 255.686 14.9967 -10
      vertex 255.058 14.9704 -10
    endloop
  endfacet
  facet normal -0.0837305 0.996488 0
    outer loop
      vertex 255.058 14.9704 -10
      vertex 254.432 14.9178 10
      vertex 255.058 14.9704 10
    endloop
  endfacet
  facet normal -0.0837305 0.996488 0
    outer loop
      vertex 254.432 14.9178 10
      vertex 255.058 14.9704 -10
      vertex 254.432 14.9178 -10
    endloop
  endfacet
  facet normal -0.125328 0.992115 0
    outer loop
      vertex 254.432 14.9178 -10
      vertex 253.809 14.8391 10
      vertex 254.432 14.9178 10
    endloop
  endfacet
  facet normal -0.125328 0.992115 0
    outer loop
      vertex 253.809 14.8391 10
      vertex 254.432 14.9178 -10
      vertex 253.809 14.8391 -10
    endloop
  endfacet
  facet normal -0.166668 0.986013 0
    outer loop
      vertex 253.809 14.8391 -10
      vertex 253.189 14.7343 10
      vertex 253.809 14.8391 10
    endloop
  endfacet
  facet normal -0.166668 0.986013 0
    outer loop
      vertex 253.189 14.7343 10
      vertex 253.809 14.8391 -10
      vertex 253.189 14.7343 -10
    endloop
  endfacet
  facet normal -0.208049 0.978118 0
    outer loop
      vertex 253.189 14.7343 -10
      vertex 252.575 14.6037 10
      vertex 253.189 14.7343 10
    endloop
  endfacet
  facet normal -0.208049 0.978118 0
    outer loop
      vertex 252.575 14.6037 10
      vertex 253.189 14.7343 -10
      vertex 252.575 14.6037 -10
    endloop
  endfacet
  facet normal -0.248593 0.968608 0
    outer loop
      vertex 252.575 14.6037 -10
      vertex 251.966 14.4474 10
      vertex 252.575 14.6037 10
    endloop
  endfacet
  facet normal -0.248593 0.968608 0
    outer loop
      vertex 251.966 14.4474 10
      vertex 252.575 14.6037 -10
      vertex 251.966 14.4474 -10
    endloop
  endfacet
  facet normal -0.289247 0.957255 0
    outer loop
      vertex 251.966 14.4474 -10
      vertex 251.365 14.2658 10
      vertex 251.966 14.4474 10
    endloop
  endfacet
  facet normal -0.289247 0.957255 0
    outer loop
      vertex 251.365 14.2658 10
      vertex 251.966 14.4474 -10
      vertex 251.365 14.2658 -10
    endloop
  endfacet
  facet normal -0.328508 0.944501 0
    outer loop
      vertex 251.365 14.2658 -10
      vertex 250.771 14.0592 10
      vertex 251.365 14.2658 10
    endloop
  endfacet
  facet normal -0.328508 0.944501 0
    outer loop
      vertex 250.771 14.0592 10
      vertex 251.365 14.2658 -10
      vertex 250.771 14.0592 -10
    endloop
  endfacet
  facet normal -0.368232 0.929734 0
    outer loop
      vertex 250.771 14.0592 -10
      vertex 250.187 13.8279 10
      vertex 250.771 14.0592 10
    endloop
  endfacet
  facet normal -0.368232 0.929734 0
    outer loop
      vertex 250.187 13.8279 10
      vertex 250.771 14.0592 -10
      vertex 250.187 13.8279 -10
    endloop
  endfacet
  facet normal -0.406655 0.913582 0
    outer loop
      vertex 250.187 13.8279 -10
      vertex 249.613 13.5724 10
      vertex 250.187 13.8279 10
    endloop
  endfacet
  facet normal -0.406655 0.913582 0
    outer loop
      vertex 249.613 13.5724 10
      vertex 250.187 13.8279 -10
      vertex 249.613 13.5724 -10
    endloop
  endfacet
  facet normal -0.445045 0.895508 0
    outer loop
      vertex 249.613 13.5724 -10
      vertex 249.051 13.2931 10
      vertex 249.613 13.5724 10
    endloop
  endfacet
  facet normal -0.445045 0.895508 0
    outer loop
      vertex 249.051 13.2931 10
      vertex 249.613 13.5724 -10
      vertex 249.051 13.2931 -10
    endloop
  endfacet
  facet normal -0.481491 0.876451 0
    outer loop
      vertex 249.051 13.2931 -10
      vertex 248.5 12.9904 10
      vertex 249.051 13.2931 10
    endloop
  endfacet
  facet normal -0.481491 0.876451 0
    outer loop
      vertex 248.5 12.9904 10
      vertex 249.051 13.2931 -10
      vertex 248.5 12.9904 -10
    endloop
  endfacet
  facet normal -0.518355 0.855166 0
    outer loop
      vertex 248.5 12.9904 -10
      vertex 247.963 12.6649 10
      vertex 248.5 12.9904 10
    endloop
  endfacet
  facet normal -0.518355 0.855166 0
    outer loop
      vertex 247.963 12.6649 10
      vertex 248.5 12.9904 -10
      vertex 247.963 12.6649 -10
    endloop
  endfacet
  facet normal -0.552901 0.833247 0
    outer loop
      vertex 247.963 12.6649 -10
      vertex 247.439 12.3172 10
      vertex 247.963 12.6649 10
    endloop
  endfacet
  facet normal -0.552901 0.833247 0
    outer loop
      vertex 247.439 12.3172 10
      vertex 247.963 12.6649 -10
      vertex 247.439 12.3172 -10
    endloop
  endfacet
  facet normal -0.588011 0.808853 0
    outer loop
      vertex 247.439 12.3172 -10
      vertex 246.931 11.9479 10
      vertex 247.439 12.3172 10
    endloop
  endfacet
  facet normal -0.588011 0.808853 0
    outer loop
      vertex 246.931 11.9479 10
      vertex 247.439 12.3172 -10
      vertex 246.931 11.9479 -10
    endloop
  endfacet
  facet normal -0.621388 0.783503 0
    outer loop
      vertex 246.931 11.9479 -10
      vertex 246.439 11.5577 10
      vertex 246.931 11.9479 10
    endloop
  endfacet
  facet normal -0.621388 0.783503 0
    outer loop
      vertex 246.439 11.5577 10
      vertex 246.931 11.9479 -10
      vertex 246.439 11.5577 -10
    endloop
  endfacet
  facet normal -0.653081 0.757288 0
    outer loop
      vertex 246.439 11.5577 -10
      vertex 245.963 11.1472 10
      vertex 246.439 11.5577 10
    endloop
  endfacet
  facet normal -0.653081 0.757288 0
    outer loop
      vertex 245.963 11.1472 10
      vertex 246.439 11.5577 -10
      vertex 245.963 11.1472 -10
    endloop
  endfacet
  facet normal -0.684555 0.728961 0
    outer loop
      vertex 245.963 11.1472 -10
      vertex 245.505 10.7171 10
      vertex 245.963 11.1472 10
    endloop
  endfacet
  facet normal -0.684555 0.728961 0
    outer loop
      vertex 245.505 10.7171 10
      vertex 245.963 11.1472 -10
      vertex 245.505 10.7171 -10
    endloop
  endfacet
  facet normal -0.714151 0.699992 0
    outer loop
      vertex 245.065 10.2682 -10
      vertex 245.505 10.7171 10
      vertex 245.505 10.7171 -10
    endloop
  endfacet
  facet normal -0.714151 0.699992 0
    outer loop
      vertex 245.505 10.7171 10
      vertex 245.065 10.2682 -10
      vertex 245.065 10.2682 10
    endloop
  endfacet
  facet normal -0.743453 0.668788 0
    outer loop
      vertex 244.645 9.80131 -10
      vertex 245.065 10.2682 10
      vertex 245.065 10.2682 -10
    endloop
  endfacet
  facet normal -0.743453 0.668788 0
    outer loop
      vertex 245.065 10.2682 10
      vertex 244.645 9.80131 -10
      vertex 244.645 9.80131 10
    endloop
  endfacet
  facet normal -0.770884 0.636976 0
    outer loop
      vertex 244.245 9.31722 -10
      vertex 244.645 9.80131 10
      vertex 244.645 9.80131 -10
    endloop
  endfacet
  facet normal -0.770884 0.636976 0
    outer loop
      vertex 244.645 9.80131 10
      vertex 244.245 9.31722 -10
      vertex 244.245 9.31722 10
    endloop
  endfacet
  facet normal -0.796418 0.604746 0
    outer loop
      vertex 243.865 8.81678 -10
      vertex 244.245 9.31722 10
      vertex 244.245 9.31722 -10
    endloop
  endfacet
  facet normal -0.796418 0.604746 0
    outer loop
      vertex 244.245 9.31722 10
      vertex 243.865 8.81678 -10
      vertex 243.865 8.81678 10
    endloop
  endfacet
  facet normal -0.820826 0.571178 0
    outer loop
      vertex 243.506 8.30087 -10
      vertex 243.865 8.81678 10
      vertex 243.865 8.81678 -10
    endloop
  endfacet
  facet normal -0.820826 0.571178 0
    outer loop
      vertex 243.865 8.81678 10
      vertex 243.506 8.30087 -10
      vertex 243.506 8.30087 10
    endloop
  endfacet
  facet normal -0.844789 0.5351 0
    outer loop
      vertex 243.17 7.77041 -10
      vertex 243.506 8.30087 10
      vertex 243.506 8.30087 -10
    endloop
  endfacet
  facet normal -0.844789 0.5351 0
    outer loop
      vertex 243.506 8.30087 10
      vertex 243.17 7.77041 -10
      vertex 243.17 7.77041 10
    endloop
  endfacet
  facet normal -0.86543 0.50103 0
    outer loop
      vertex 242.855 7.22631 -10
      vertex 243.17 7.77041 10
      vertex 243.17 7.77041 -10
    endloop
  endfacet
  facet normal -0.86543 0.50103 0
    outer loop
      vertex 243.17 7.77041 10
      vertex 242.855 7.22631 -10
      vertex 242.855 7.22631 10
    endloop
  endfacet
  facet normal -0.886254 0.463199 0
    outer loop
      vertex 242.564 6.66953 -10
      vertex 242.855 7.22631 10
      vertex 242.855 7.22631 -10
    endloop
  endfacet
  facet normal -0.886254 0.463199 0
    outer loop
      vertex 242.855 7.22631 10
      vertex 242.564 6.66953 -10
      vertex 242.564 6.66953 10
    endloop
  endfacet
  facet normal -0.905137 0.425119 0
    outer loop
      vertex 242.297 6.10105 -10
      vertex 242.564 6.66953 10
      vertex 242.564 6.66953 -10
    endloop
  endfacet
  facet normal -0.905137 0.425119 0
    outer loop
      vertex 242.564 6.66953 10
      vertex 242.297 6.10105 -10
      vertex 242.297 6.10105 10
    endloop
  endfacet
  facet normal -0.921559 0.388239 0
    outer loop
      vertex 242.053 5.52187 -10
      vertex 242.297 6.10105 10
      vertex 242.297 6.10105 -10
    endloop
  endfacet
  facet normal -0.921559 0.388239 0
    outer loop
      vertex 242.297 6.10105 10
      vertex 242.053 5.52187 -10
      vertex 242.053 5.52187 10
    endloop
  endfacet
  facet normal -0.937281 0.348574 0
    outer loop
      vertex 241.834 4.933 -10
      vertex 242.053 5.52187 10
      vertex 242.053 5.52187 -10
    endloop
  endfacet
  facet normal -0.937281 0.348574 0
    outer loop
      vertex 242.053 5.52187 10
      vertex 241.834 4.933 -10
      vertex 241.834 4.933 10
    endloop
  endfacet
  facet normal -0.951125 0.308807 0
    outer loop
      vertex 241.64 4.33548 -10
      vertex 241.834 4.933 10
      vertex 241.834 4.933 -10
    endloop
  endfacet
  facet normal -0.951125 0.308807 0
    outer loop
      vertex 241.834 4.933 10
      vertex 241.64 4.33548 -10
      vertex 241.64 4.33548 10
    endloop
  endfacet
  facet normal -0.963144 0.268986 0
    outer loop
      vertex 241.471 3.73035 -10
      vertex 241.64 4.33548 10
      vertex 241.64 4.33548 -10
    endloop
  endfacet
  facet normal -0.963144 0.268986 0
    outer loop
      vertex 241.64 4.33548 10
      vertex 241.471 3.73035 -10
      vertex 241.471 3.73035 10
    endloop
  endfacet
  facet normal -0.973744 0.227648 0
    outer loop
      vertex 241.328 3.11868 -10
      vertex 241.471 3.73035 10
      vertex 241.471 3.73035 -10
    endloop
  endfacet
  facet normal -0.973744 0.227648 0
    outer loop
      vertex 241.471 3.73035 10
      vertex 241.328 3.11868 -10
      vertex 241.328 3.11868 10
    endloop
  endfacet
  facet normal -0.982207 0.1878 0
    outer loop
      vertex 241.21 2.50153 -10
      vertex 241.328 3.11868 10
      vertex 241.328 3.11868 -10
    endloop
  endfacet
  facet normal -0.982207 0.1878 0
    outer loop
      vertex 241.328 3.11868 10
      vertex 241.21 2.50153 -10
      vertex 241.21 2.50153 10
    endloop
  endfacet
  facet normal -0.989222 0.146426 0
    outer loop
      vertex 241.118 1.88 -10
      vertex 241.21 2.50153 10
      vertex 241.21 2.50153 -10
    endloop
  endfacet
  facet normal -0.989222 0.146426 0
    outer loop
      vertex 241.21 2.50153 10
      vertex 241.118 1.88 -10
      vertex 241.118 1.88 10
    endloop
  endfacet
  facet normal -0.994633 0.10347 0
    outer loop
      vertex 241.053 1.25517 -10
      vertex 241.118 1.88 10
      vertex 241.118 1.88 -10
    endloop
  endfacet
  facet normal -0.994633 0.10347 0
    outer loop
      vertex 241.118 1.88 10
      vertex 241.053 1.25517 -10
      vertex 241.053 1.25517 10
    endloop
  endfacet
  facet normal -0.997971 0.0636629 0
    outer loop
      vertex 241.013 0.628135 -10
      vertex 241.053 1.25517 10
      vertex 241.053 1.25517 -10
    endloop
  endfacet
  facet normal -0.997971 0.0636629 0
    outer loop
      vertex 241.053 1.25517 10
      vertex 241.013 0.628135 -10
      vertex 241.013 0.628135 10
    endloop
  endfacet
  facet normal -0.999786 0.0206918 0
    outer loop
      vertex 241 0 -10
      vertex 241.013 0.628135 10
      vertex 241.013 0.628135 -10
    endloop
  endfacet
  facet normal -0.999786 0.0206918 0
    outer loop
      vertex 241.013 0.628135 10
      vertex 241 0 -10
      vertex 241 0 10
    endloop
  endfacet
  facet normal -0.999786 -0.0206918 0
    outer loop
      vertex 241.013 -0.628135 -10
      vertex 241 0 10
      vertex 241 0 -10
    endloop
  endfacet
  facet normal -0.999786 -0.0206918 0
    outer loop
      vertex 241 0 10
      vertex 241.013 -0.628135 -10
      vertex 241.013 -0.628135 10
    endloop
  endfacet
  facet normal -0.997971 -0.0636629 0
    outer loop
      vertex 241.053 -1.25517 -10
      vertex 241.013 -0.628135 10
      vertex 241.013 -0.628135 -10
    endloop
  endfacet
  facet normal -0.997971 -0.0636629 0
    outer loop
      vertex 241.013 -0.628135 10
      vertex 241.053 -1.25517 -10
      vertex 241.053 -1.25517 10
    endloop
  endfacet
  facet normal -0.994633 -0.10347 0
    outer loop
      vertex 241.118 -1.88 -10
      vertex 241.053 -1.25517 10
      vertex 241.053 -1.25517 -10
    endloop
  endfacet
  facet normal -0.994633 -0.10347 0
    outer loop
      vertex 241.053 -1.25517 10
      vertex 241.118 -1.88 -10
      vertex 241.118 -1.88 10
    endloop
  endfacet
  facet normal -0.989222 -0.146426 0
    outer loop
      vertex 241.21 -2.50153 -10
      vertex 241.118 -1.88 10
      vertex 241.118 -1.88 -10
    endloop
  endfacet
  facet normal -0.989222 -0.146426 0
    outer loop
      vertex 241.118 -1.88 10
      vertex 241.21 -2.50153 -10
      vertex 241.21 -2.50153 10
    endloop
  endfacet
  facet normal -0.982207 -0.1878 0
    outer loop
      vertex 241.328 -3.11868 -10
      vertex 241.21 -2.50153 10
      vertex 241.21 -2.50153 -10
    endloop
  endfacet
  facet normal -0.982207 -0.1878 0
    outer loop
      vertex 241.21 -2.50153 10
      vertex 241.328 -3.11868 -10
      vertex 241.328 -3.11868 10
    endloop
  endfacet
  facet normal -0.973744 -0.227648 0
    outer loop
      vertex 241.471 -3.73035 -10
      vertex 241.328 -3.11868 10
      vertex 241.328 -3.11868 -10
    endloop
  endfacet
  facet normal -0.973744 -0.227648 0
    outer loop
      vertex 241.328 -3.11868 10
      vertex 241.471 -3.73035 -10
      vertex 241.471 -3.73035 10
    endloop
  endfacet
  facet normal -0.963144 -0.268986 0
    outer loop
      vertex 241.64 -4.33548 -10
      vertex 241.471 -3.73035 10
      vertex 241.471 -3.73035 -10
    endloop
  endfacet
  facet normal -0.963144 -0.268986 0
    outer loop
      vertex 241.471 -3.73035 10
      vertex 241.64 -4.33548 -10
      vertex 241.64 -4.33548 10
    endloop
  endfacet
  facet normal -0.951125 -0.308807 0
    outer loop
      vertex 241.834 -4.933 -10
      vertex 241.64 -4.33548 10
      vertex 241.64 -4.33548 -10
    endloop
  endfacet
  facet normal -0.951125 -0.308807 0
    outer loop
      vertex 241.64 -4.33548 10
      vertex 241.834 -4.933 -10
      vertex 241.834 -4.933 10
    endloop
  endfacet
  facet normal -0.937281 -0.348574 0
    outer loop
      vertex 242.053 -5.52187 -10
      vertex 241.834 -4.933 10
      vertex 241.834 -4.933 -10
    endloop
  endfacet
  facet normal -0.937281 -0.348574 0
    outer loop
      vertex 241.834 -4.933 10
      vertex 242.053 -5.52187 -10
      vertex 242.053 -5.52187 10
    endloop
  endfacet
  facet normal -0.921559 -0.388239 0
    outer loop
      vertex 242.297 -6.10105 -10
      vertex 242.053 -5.52187 10
      vertex 242.053 -5.52187 -10
    endloop
  endfacet
  facet normal -0.921559 -0.388239 0
    outer loop
      vertex 242.053 -5.52187 10
      vertex 242.297 -6.10105 -10
      vertex 242.297 -6.10105 10
    endloop
  endfacet
  facet normal -0.905137 -0.425119 0
    outer loop
      vertex 242.564 -6.66953 -10
      vertex 242.297 -6.10105 10
      vertex 242.297 -6.10105 -10
    endloop
  endfacet
  facet normal -0.905137 -0.425119 0
    outer loop
      vertex 242.297 -6.10105 10
      vertex 242.564 -6.66953 -10
      vertex 242.564 -6.66953 10
    endloop
  endfacet
  facet normal -0.886254 -0.463199 0
    outer loop
      vertex 242.855 -7.22631 -10
      vertex 242.564 -6.66953 10
      vertex 242.564 -6.66953 -10
    endloop
  endfacet
  facet normal -0.886254 -0.463199 0
    outer loop
      vertex 242.564 -6.66953 10
      vertex 242.855 -7.22631 -10
      vertex 242.855 -7.22631 10
    endloop
  endfacet
  facet normal -0.86543 -0.50103 0
    outer loop
      vertex 243.17 -7.77041 -10
      vertex 242.855 -7.22631 10
      vertex 242.855 -7.22631 -10
    endloop
  endfacet
  facet normal -0.86543 -0.50103 0
    outer loop
      vertex 242.855 -7.22631 10
      vertex 243.17 -7.77041 -10
      vertex 243.17 -7.77041 10
    endloop
  endfacet
  facet normal -0.844789 -0.5351 0
    outer loop
      vertex 243.506 -8.30087 -10
      vertex 243.17 -7.77041 10
      vertex 243.17 -7.77041 -10
    endloop
  endfacet
  facet normal -0.844789 -0.5351 0
    outer loop
      vertex 243.17 -7.77041 10
      vertex 243.506 -8.30087 -10
      vertex 243.506 -8.30087 10
    endloop
  endfacet
  facet normal -0.820826 -0.571178 0
    outer loop
      vertex 243.865 -8.81678 -10
      vertex 243.506 -8.30087 10
      vertex 243.506 -8.30087 -10
    endloop
  endfacet
  facet normal -0.820826 -0.571178 0
    outer loop
      vertex 243.506 -8.30087 10
      vertex 243.865 -8.81678 -10
      vertex 243.865 -8.81678 10
    endloop
  endfacet
  facet normal -0.796418 -0.604746 0
    outer loop
      vertex 244.245 -9.31722 -10
      vertex 243.865 -8.81678 10
      vertex 243.865 -8.81678 -10
    endloop
  endfacet
  facet normal -0.796418 -0.604746 0
    outer loop
      vertex 243.865 -8.81678 10
      vertex 244.245 -9.31722 -10
      vertex 244.245 -9.31722 10
    endloop
  endfacet
  facet normal -0.770884 -0.636976 0
    outer loop
      vertex 244.645 -9.80131 -10
      vertex 244.245 -9.31722 10
      vertex 244.245 -9.31722 -10
    endloop
  endfacet
  facet normal -0.770884 -0.636976 0
    outer loop
      vertex 244.245 -9.31722 10
      vertex 244.645 -9.80131 -10
      vertex 244.645 -9.80131 10
    endloop
  endfacet
  facet normal -0.743453 -0.668788 0
    outer loop
      vertex 245.065 -10.2682 -10
      vertex 244.645 -9.80131 10
      vertex 244.645 -9.80131 -10
    endloop
  endfacet
  facet normal -0.743453 -0.668788 0
    outer loop
      vertex 244.645 -9.80131 10
      vertex 245.065 -10.2682 -10
      vertex 245.065 -10.2682 10
    endloop
  endfacet
  facet normal -0.714151 -0.699992 0
    outer loop
      vertex 245.505 -10.7171 -10
      vertex 245.065 -10.2682 10
      vertex 245.065 -10.2682 -10
    endloop
  endfacet
  facet normal -0.714151 -0.699992 0
    outer loop
      vertex 245.065 -10.2682 10
      vertex 245.505 -10.7171 -10
      vertex 245.505 -10.7171 10
    endloop
  endfacet
  facet normal -0.684555 -0.728961 0
    outer loop
      vertex 245.505 -10.7171 -10
      vertex 245.963 -11.1472 10
      vertex 245.505 -10.7171 10
    endloop
  endfacet
  facet normal -0.684555 -0.728961 -0
    outer loop
      vertex 245.963 -11.1472 10
      vertex 245.505 -10.7171 -10
      vertex 245.963 -11.1472 -10
    endloop
  endfacet
  facet normal -0.653081 -0.757288 0
    outer loop
      vertex 245.963 -11.1472 -10
      vertex 246.439 -11.5577 10
      vertex 245.963 -11.1472 10
    endloop
  endfacet
  facet normal -0.653081 -0.757288 -0
    outer loop
      vertex 246.439 -11.5577 10
      vertex 245.963 -11.1472 -10
      vertex 246.439 -11.5577 -10
    endloop
  endfacet
  facet normal -0.621388 -0.783503 0
    outer loop
      vertex 246.439 -11.5577 -10
      vertex 246.931 -11.9479 10
      vertex 246.439 -11.5577 10
    endloop
  endfacet
  facet normal -0.621388 -0.783503 -0
    outer loop
      vertex 246.931 -11.9479 10
      vertex 246.439 -11.5577 -10
      vertex 246.931 -11.9479 -10
    endloop
  endfacet
  facet normal -0.588011 -0.808853 0
    outer loop
      vertex 246.931 -11.9479 -10
      vertex 247.439 -12.3172 10
      vertex 246.931 -11.9479 10
    endloop
  endfacet
  facet normal -0.588011 -0.808853 -0
    outer loop
      vertex 247.439 -12.3172 10
      vertex 246.931 -11.9479 -10
      vertex 247.439 -12.3172 -10
    endloop
  endfacet
  facet normal -0.552901 -0.833247 0
    outer loop
      vertex 247.439 -12.3172 -10
      vertex 247.963 -12.6649 10
      vertex 247.439 -12.3172 10
    endloop
  endfacet
  facet normal -0.552901 -0.833247 -0
    outer loop
      vertex 247.963 -12.6649 10
      vertex 247.439 -12.3172 -10
      vertex 247.963 -12.6649 -10
    endloop
  endfacet
  facet normal -0.518355 -0.855166 0
    outer loop
      vertex 247.963 -12.6649 -10
      vertex 248.5 -12.9904 10
      vertex 247.963 -12.6649 10
    endloop
  endfacet
  facet normal -0.518355 -0.855166 -0
    outer loop
      vertex 248.5 -12.9904 10
      vertex 247.963 -12.6649 -10
      vertex 248.5 -12.9904 -10
    endloop
  endfacet
  facet normal -0.481491 -0.876451 0
    outer loop
      vertex 248.5 -12.9904 -10
      vertex 249.051 -13.2931 10
      vertex 248.5 -12.9904 10
    endloop
  endfacet
  facet normal -0.481491 -0.876451 -0
    outer loop
      vertex 249.051 -13.2931 10
      vertex 248.5 -12.9904 -10
      vertex 249.051 -13.2931 -10
    endloop
  endfacet
  facet normal -0.445045 -0.895508 0
    outer loop
      vertex 249.051 -13.2931 -10
      vertex 249.613 -13.5724 10
      vertex 249.051 -13.2931 10
    endloop
  endfacet
  facet normal -0.445045 -0.895508 -0
    outer loop
      vertex 249.613 -13.5724 10
      vertex 249.051 -13.2931 -10
      vertex 249.613 -13.5724 -10
    endloop
  endfacet
  facet normal -0.406655 -0.913582 0
    outer loop
      vertex 249.613 -13.5724 -10
      vertex 250.187 -13.8279 10
      vertex 249.613 -13.5724 10
    endloop
  endfacet
  facet normal -0.406655 -0.913582 -0
    outer loop
      vertex 250.187 -13.8279 10
      vertex 249.613 -13.5724 -10
      vertex 250.187 -13.8279 -10
    endloop
  endfacet
  facet normal -0.368232 -0.929734 0
    outer loop
      vertex 250.187 -13.8279 -10
      vertex 250.771 -14.0592 10
      vertex 250.187 -13.8279 10
    endloop
  endfacet
  facet normal -0.368232 -0.929734 -0
    outer loop
      vertex 250.771 -14.0592 10
      vertex 250.187 -13.8279 -10
      vertex 250.771 -14.0592 -10
    endloop
  endfacet
  facet normal -0.328508 -0.944501 0
    outer loop
      vertex 250.771 -14.0592 -10
      vertex 251.365 -14.2658 10
      vertex 250.771 -14.0592 10
    endloop
  endfacet
  facet normal -0.328508 -0.944501 -0
    outer loop
      vertex 251.365 -14.2658 10
      vertex 250.771 -14.0592 -10
      vertex 251.365 -14.2658 -10
    endloop
  endfacet
  facet normal -0.289247 -0.957255 0
    outer loop
      vertex 251.365 -14.2658 -10
      vertex 251.966 -14.4474 10
      vertex 251.365 -14.2658 10
    endloop
  endfacet
  facet normal -0.289247 -0.957255 -0
    outer loop
      vertex 251.966 -14.4474 10
      vertex 251.365 -14.2658 -10
      vertex 251.966 -14.4474 -10
    endloop
  endfacet
  facet normal -0.248593 -0.968608 0
    outer loop
      vertex 251.966 -14.4474 -10
      vertex 252.575 -14.6037 10
      vertex 251.966 -14.4474 10
    endloop
  endfacet
  facet normal -0.248593 -0.968608 -0
    outer loop
      vertex 252.575 -14.6037 10
      vertex 251.966 -14.4474 -10
      vertex 252.575 -14.6037 -10
    endloop
  endfacet
  facet normal -0.208049 -0.978118 0
    outer loop
      vertex 252.575 -14.6037 -10
      vertex 253.189 -14.7343 10
      vertex 252.575 -14.6037 10
    endloop
  endfacet
  facet normal -0.208049 -0.978118 -0
    outer loop
      vertex 253.189 -14.7343 10
      vertex 252.575 -14.6037 -10
      vertex 253.189 -14.7343 -10
    endloop
  endfacet
  facet normal -0.166668 -0.986013 0
    outer loop
      vertex 253.189 -14.7343 -10
      vertex 253.809 -14.8391 10
      vertex 253.189 -14.7343 10
    endloop
  endfacet
  facet normal -0.166668 -0.986013 -0
    outer loop
      vertex 253.809 -14.8391 10
      vertex 253.189 -14.7343 -10
      vertex 253.809 -14.8391 -10
    endloop
  endfacet
  facet normal -0.125328 -0.992115 0
    outer loop
      vertex 253.809 -14.8391 -10
      vertex 254.432 -14.9178 10
      vertex 253.809 -14.8391 10
    endloop
  endfacet
  facet normal -0.125328 -0.992115 -0
    outer loop
      vertex 254.432 -14.9178 10
      vertex 253.809 -14.8391 -10
      vertex 254.432 -14.9178 -10
    endloop
  endfacet
  facet normal -0.0837305 -0.996488 0
    outer loop
      vertex 254.432 -14.9178 -10
      vertex 255.058 -14.9704 10
      vertex 254.432 -14.9178 10
    endloop
  endfacet
  facet normal -0.0837305 -0.996488 -0
    outer loop
      vertex 255.058 -14.9704 10
      vertex 254.432 -14.9178 -10
      vertex 255.058 -14.9704 -10
    endloop
  endfacet
  facet normal -0.0418423 -0.999124 0
    outer loop
      vertex 255.058 -14.9704 -10
      vertex 255.686 -14.9967 10
      vertex 255.058 -14.9704 10
    endloop
  endfacet
  facet normal -0.0418423 -0.999124 -0
    outer loop
      vertex 255.686 -14.9967 10
      vertex 255.058 -14.9704 -10
      vertex 255.686 -14.9967 -10
    endloop
  endfacet
  facet normal 0 -1 0
    outer loop
      vertex 255.686 -14.9967 -10
      vertex 256.314 -14.9967 10
      vertex 255.686 -14.9967 10
    endloop
  endfacet
  facet normal 0 -1 -0
    outer loop
      vertex 256.314 -14.9967 10
      vertex 255.686 -14.9967 -10
      vertex 256.314 -14.9967 -10
    endloop
  endfacet
  facet normal 0.0418423 -0.999124 0
    outer loop
      vertex 256.314 -14.9967 -10
      vertex 256.942 -14.9704 10
      vertex 256.314 -14.9967 10
    endloop
  endfacet
  facet normal 0.0418423 -0.999124 0
    outer loop
      vertex 256.942 -14.9704 10
      vertex 256.314 -14.9967 -10
      vertex 256.942 -14.9704 -10
    endloop
  endfacet
  facet normal 0.0837305 -0.996488 0
    outer loop
      vertex 256.942 -14.9704 -10
      vertex 257.568 -14.9178 10
      vertex 256.942 -14.9704 10
    endloop
  endfacet
  facet normal 0.0837305 -0.996488 0
    outer loop
      vertex 257.568 -14.9178 10
      vertex 256.942 -14.9704 -10
      vertex 257.568 -14.9178 -10
    endloop
  endfacet
  facet normal 0.125328 -0.992115 0
    outer loop
      vertex 257.568 -14.9178 -10
      vertex 258.191 -14.8391 10
      vertex 257.568 -14.9178 10
    endloop
  endfacet
  facet normal 0.125328 -0.992115 0
    outer loop
      vertex 258.191 -14.8391 10
      vertex 257.568 -14.9178 -10
      vertex 258.191 -14.8391 -10
    endloop
  endfacet
  facet normal 0.166668 -0.986013 0
    outer loop
      vertex 258.191 -14.8391 -10
      vertex 258.811 -14.7343 10
      vertex 258.191 -14.8391 10
    endloop
  endfacet
  facet normal 0.166668 -0.986013 0
    outer loop
      vertex 258.811 -14.7343 10
      vertex 258.191 -14.8391 -10
      vertex 258.811 -14.7343 -10
    endloop
  endfacet
  facet normal 0.208049 -0.978118 0
    outer loop
      vertex 258.811 -14.7343 -10
      vertex 259.425 -14.6037 10
      vertex 258.811 -14.7343 10
    endloop
  endfacet
  facet normal 0.208049 -0.978118 0
    outer loop
      vertex 259.425 -14.6037 10
      vertex 258.811 -14.7343 -10
      vertex 259.425 -14.6037 -10
    endloop
  endfacet
  facet normal 0.248593 -0.968608 0
    outer loop
      vertex 259.425 -14.6037 -10
      vertex 260.034 -14.4474 10
      vertex 259.425 -14.6037 10
    endloop
  endfacet
  facet normal 0.248593 -0.968608 0
    outer loop
      vertex 260.034 -14.4474 10
      vertex 259.425 -14.6037 -10
      vertex 260.034 -14.4474 -10
    endloop
  endfacet
  facet normal 0.289247 -0.957255 0
    outer loop
      vertex 260.034 -14.4474 -10
      vertex 260.635 -14.2658 10
      vertex 260.034 -14.4474 10
    endloop
  endfacet
  facet normal 0.289247 -0.957255 0
    outer loop
      vertex 260.635 -14.2658 10
      vertex 260.034 -14.4474 -10
      vertex 260.635 -14.2658 -10
    endloop
  endfacet
  facet normal 0.328508 -0.944501 0
    outer loop
      vertex 260.635 -14.2658 -10
      vertex 261.229 -14.0592 10
      vertex 260.635 -14.2658 10
    endloop
  endfacet
  facet normal 0.328508 -0.944501 0
    outer loop
      vertex 261.229 -14.0592 10
      vertex 260.635 -14.2658 -10
      vertex 261.229 -14.0592 -10
    endloop
  endfacet
  facet normal 0.368232 -0.929734 0
    outer loop
      vertex 261.229 -14.0592 -10
      vertex 261.813 -13.8279 10
      vertex 261.229 -14.0592 10
    endloop
  endfacet
  facet normal 0.368232 -0.929734 0
    outer loop
      vertex 261.813 -13.8279 10
      vertex 261.229 -14.0592 -10
      vertex 261.813 -13.8279 -10
    endloop
  endfacet
  facet normal 0.406655 -0.913582 0
    outer loop
      vertex 261.813 -13.8279 -10
      vertex 262.387 -13.5724 10
      vertex 261.813 -13.8279 10
    endloop
  endfacet
  facet normal 0.406655 -0.913582 0
    outer loop
      vertex 262.387 -13.5724 10
      vertex 261.813 -13.8279 -10
      vertex 262.387 -13.5724 -10
    endloop
  endfacet
  facet normal 0.445045 -0.895508 0
    outer loop
      vertex 262.387 -13.5724 -10
      vertex 262.949 -13.2931 10
      vertex 262.387 -13.5724 10
    endloop
  endfacet
  facet normal 0.445045 -0.895508 0
    outer loop
      vertex 262.949 -13.2931 10
      vertex 262.387 -13.5724 -10
      vertex 262.949 -13.2931 -10
    endloop
  endfacet
  facet normal 0.481491 -0.876451 0
    outer loop
      vertex 262.949 -13.2931 -10
      vertex 263.5 -12.9904 10
      vertex 262.949 -13.2931 10
    endloop
  endfacet
  facet normal 0.481491 -0.876451 0
    outer loop
      vertex 263.5 -12.9904 10
      vertex 262.949 -13.2931 -10
      vertex 263.5 -12.9904 -10
    endloop
  endfacet
  facet normal 0.518355 -0.855166 0
    outer loop
      vertex 263.5 -12.9904 -10
      vertex 264.037 -12.6649 10
      vertex 263.5 -12.9904 10
    endloop
  endfacet
  facet normal 0.518355 -0.855166 0
    outer loop
      vertex 264.037 -12.6649 10
      vertex 263.5 -12.9904 -10
      vertex 264.037 -12.6649 -10
    endloop
  endfacet
  facet normal 0.552901 -0.833247 0
    outer loop
      vertex 264.037 -12.6649 -10
      vertex 264.561 -12.3172 10
      vertex 264.037 -12.6649 10
    endloop
  endfacet
  facet normal 0.552901 -0.833247 0
    outer loop
      vertex 264.561 -12.3172 10
      vertex 264.037 -12.6649 -10
      vertex 264.561 -12.3172 -10
    endloop
  endfacet
  facet normal 0.588011 -0.808853 0
    outer loop
      vertex 264.561 -12.3172 -10
      vertex 265.069 -11.9479 10
      vertex 264.561 -12.3172 10
    endloop
  endfacet
  facet normal 0.588011 -0.808853 0
    outer loop
      vertex 265.069 -11.9479 10
      vertex 264.561 -12.3172 -10
      vertex 265.069 -11.9479 -10
    endloop
  endfacet
  facet normal 0.621388 -0.783503 0
    outer loop
      vertex 265.069 -11.9479 -10
      vertex 265.561 -11.5577 10
      vertex 265.069 -11.9479 10
    endloop
  endfacet
  facet normal 0.621388 -0.783503 0
    outer loop
      vertex 265.561 -11.5577 10
      vertex 265.069 -11.9479 -10
      vertex 265.561 -11.5577 -10
    endloop
  endfacet
  facet normal 0.653081 -0.757288 0
    outer loop
      vertex 265.561 -11.5577 -10
      vertex 266.037 -11.1472 10
      vertex 265.561 -11.5577 10
    endloop
  endfacet
  facet normal 0.653081 -0.757288 0
    outer loop
      vertex 266.037 -11.1472 10
      vertex 265.561 -11.5577 -10
      vertex 266.037 -11.1472 -10
    endloop
  endfacet
  facet normal 0.684555 -0.728961 0
    outer loop
      vertex 266.037 -11.1472 -10
      vertex 266.495 -10.7171 10
      vertex 266.037 -11.1472 10
    endloop
  endfacet
  facet normal 0.684555 -0.728961 0
    outer loop
      vertex 266.495 -10.7171 10
      vertex 266.037 -11.1472 -10
      vertex 266.495 -10.7171 -10
    endloop
  endfacet
  facet normal 0.714151 -0.699992 0
    outer loop
      vertex 266.495 -10.7171 10
      vertex 266.935 -10.2682 -10
      vertex 266.935 -10.2682 10
    endloop
  endfacet
  facet normal 0.714151 -0.699992 0
    outer loop
      vertex 266.935 -10.2682 -10
      vertex 266.495 -10.7171 10
      vertex 266.495 -10.7171 -10
    endloop
  endfacet
  facet normal 0.743453 -0.668788 0
    outer loop
      vertex 266.935 -10.2682 10
      vertex 267.355 -9.80131 -10
      vertex 267.355 -9.80131 10
    endloop
  endfacet
  facet normal 0.743453 -0.668788 0
    outer loop
      vertex 267.355 -9.80131 -10
      vertex 266.935 -10.2682 10
      vertex 266.935 -10.2682 -10
    endloop
  endfacet
  facet normal 0.770884 -0.636976 0
    outer loop
      vertex 267.355 -9.80131 10
      vertex 267.755 -9.31722 -10
      vertex 267.755 -9.31722 10
    endloop
  endfacet
  facet normal 0.770884 -0.636976 0
    outer loop
      vertex 267.755 -9.31722 -10
      vertex 267.355 -9.80131 10
      vertex 267.355 -9.80131 -10
    endloop
  endfacet
  facet normal 0.796418 -0.604746 0
    outer loop
      vertex 267.755 -9.31722 10
      vertex 268.135 -8.81678 -10
      vertex 268.135 -8.81678 10
    endloop
  endfacet
  facet normal 0.796418 -0.604746 0
    outer loop
      vertex 268.135 -8.81678 -10
      vertex 267.755 -9.31722 10
      vertex 267.755 -9.31722 -10
    endloop
  endfacet
  facet normal 0.820826 -0.571178 0
    outer loop
      vertex 268.135 -8.81678 10
      vertex 268.494 -8.30087 -10
      vertex 268.494 -8.30087 10
    endloop
  endfacet
  facet normal 0.820826 -0.571178 0
    outer loop
      vertex 268.494 -8.30087 -10
      vertex 268.135 -8.81678 10
      vertex 268.135 -8.81678 -10
    endloop
  endfacet
  facet normal 0.844789 -0.5351 0
    outer loop
      vertex 268.494 -8.30087 10
      vertex 268.83 -7.77041 -10
      vertex 268.83 -7.77041 10
    endloop
  endfacet
  facet normal 0.844789 -0.5351 0
    outer loop
      vertex 268.83 -7.77041 -10
      vertex 268.494 -8.30087 10
      vertex 268.494 -8.30087 -10
    endloop
  endfacet
  facet normal 0.86543 -0.50103 0
    outer loop
      vertex 268.83 -7.77041 10
      vertex 269.145 -7.22631 -10
      vertex 269.145 -7.22631 10
    endloop
  endfacet
  facet normal 0.86543 -0.50103 0
    outer loop
      vertex 269.145 -7.22631 -10
      vertex 268.83 -7.77041 10
      vertex 268.83 -7.77041 -10
    endloop
  endfacet
  facet normal 0.886254 -0.463199 0
    outer loop
      vertex 269.145 -7.22631 10
      vertex 269.436 -6.66953 -10
      vertex 269.436 -6.66953 10
    endloop
  endfacet
  facet normal 0.886254 -0.463199 0
    outer loop
      vertex 269.436 -6.66953 -10
      vertex 269.145 -7.22631 10
      vertex 269.145 -7.22631 -10
    endloop
  endfacet
  facet normal 0.905137 -0.425119 0
    outer loop
      vertex 269.436 -6.66953 10
      vertex 269.703 -6.10105 -10
      vertex 269.703 -6.10105 10
    endloop
  endfacet
  facet normal 0.905137 -0.425119 0
    outer loop
      vertex 269.703 -6.10105 -10
      vertex 269.436 -6.66953 10
      vertex 269.436 -6.66953 -10
    endloop
  endfacet
  facet normal 0.921559 -0.388239 0
    outer loop
      vertex 269.703 -6.10105 10
      vertex 269.947 -5.52187 -10
      vertex 269.947 -5.52187 10
    endloop
  endfacet
  facet normal 0.921559 -0.388239 0
    outer loop
      vertex 269.947 -5.52187 -10
      vertex 269.703 -6.10105 10
      vertex 269.703 -6.10105 -10
    endloop
  endfacet
  facet normal 0.937281 -0.348574 0
    outer loop
      vertex 269.947 -5.52187 10
      vertex 270.166 -4.933 -10
      vertex 270.166 -4.933 10
    endloop
  endfacet
  facet normal 0.937281 -0.348574 0
    outer loop
      vertex 270.166 -4.933 -10
      vertex 269.947 -5.52187 10
      vertex 269.947 -5.52187 -10
    endloop
  endfacet
  facet normal 0.951125 -0.308807 0
    outer loop
      vertex 270.166 -4.933 10
      vertex 270.36 -4.33548 -10
      vertex 270.36 -4.33548 10
    endloop
  endfacet
  facet normal 0.951125 -0.308807 0
    outer loop
      vertex 270.36 -4.33548 -10
      vertex 270.166 -4.933 10
      vertex 270.166 -4.933 -10
    endloop
  endfacet
  facet normal 0.963144 -0.268986 0
    outer loop
      vertex 270.36 -4.33548 10
      vertex 270.529 -3.73035 -10
      vertex 270.529 -3.73035 10
    endloop
  endfacet
  facet normal 0.963144 -0.268986 0
    outer loop
      vertex 270.529 -3.73035 -10
      vertex 270.36 -4.33548 10
      vertex 270.36 -4.33548 -10
    endloop
  endfacet
  facet normal 0.973744 -0.227648 0
    outer loop
      vertex 270.529 -3.73035 10
      vertex 270.672 -3.11868 -10
      vertex 270.672 -3.11868 10
    endloop
  endfacet
  facet normal 0.973744 -0.227648 0
    outer loop
      vertex 270.672 -3.11868 -10
      vertex 270.529 -3.73035 10
      vertex 270.529 -3.73035 -10
    endloop
  endfacet
  facet normal 0.982207 -0.1878 0
    outer loop
      vertex 270.672 -3.11868 10
      vertex 270.79 -2.50153 -10
      vertex 270.79 -2.50153 10
    endloop
  endfacet
  facet normal 0.982207 -0.1878 0
    outer loop
      vertex 270.79 -2.50153 -10
      vertex 270.672 -3.11868 10
      vertex 270.672 -3.11868 -10
    endloop
  endfacet
  facet normal 0.989222 -0.146426 0
    outer loop
      vertex 270.79 -2.50153 10
      vertex 270.882 -1.88 -10
      vertex 270.882 -1.88 10
    endloop
  endfacet
  facet normal 0.989222 -0.146426 0
    outer loop
      vertex 270.882 -1.88 -10
      vertex 270.79 -2.50153 10
      vertex 270.79 -2.50153 -10
    endloop
  endfacet
  facet normal 0.994633 -0.10347 0
    outer loop
      vertex 270.882 -1.88 10
      vertex 270.947 -1.25517 -10
      vertex 270.947 -1.25517 10
    endloop
  endfacet
  facet normal 0.994633 -0.10347 0
    outer loop
      vertex 270.947 -1.25517 -10
      vertex 270.882 -1.88 10
      vertex 270.882 -1.88 -10
    endloop
  endfacet
  facet normal 0.997971 -0.0636629 0
    outer loop
      vertex 270.947 -1.25517 10
      vertex 270.987 -0.628135 -10
      vertex 270.987 -0.628135 10
    endloop
  endfacet
  facet normal 0.997971 -0.0636629 0
    outer loop
      vertex 270.987 -0.628135 -10
      vertex 270.947 -1.25517 10
      vertex 270.947 -1.25517 -10
    endloop
  endfacet
  facet normal 0.999786 -0.0206918 0
    outer loop
      vertex 270.987 -0.628135 10
      vertex 271 0 -10
      vertex 271 0 10
    endloop
  endfacet
  facet normal 0.999786 -0.0206918 0
    outer loop
      vertex 271 0 -10
      vertex 270.987 -0.628135 10
      vertex 270.987 -0.628135 -10
    endloop
  endfacet
  facet normal 0 0 -1
    outer loop
      vertex 270.987 -0.628135 -10
      vertex 270.987 0.628135 -10
      vertex 271 0 -10
    endloop
  endfacet
  facet normal 0 0 -1
    outer loop
      vertex 270.947 -1.25517 -10
      vertex 270.987 0.628135 -10
      vertex 270.987 -0.628135 -10
    endloop
  endfacet
  facet normal 0 0 -1
    outer loop
      vertex 270.947 -1.25517 -10
      vertex 270.947 1.25517 -10
      vertex 270.987 0.628135 -10
    endloop
  endfacet
  facet normal 0 0 -1
    outer loop
      vertex 270.882 -1.88 -10
      vertex 270.947 1.25517 -10
      vertex 270.947 -1.25517 -10
    endloop
  endfacet
  facet normal 0 0 -1
    outer loop
      vertex 270.882 -1.88 -10
      vertex 270.882 1.88 -10
      vertex 270.947 1.25517 -10
    endloop
  endfacet
  facet normal 0 0 -1
    outer loop
      vertex 270.79 -2.50153 -10
      vertex 270.882 1.88 -10
      vertex 270.882 -1.88 -10
    endloop
  endfacet
  facet normal 0 0 -1
    outer loop
      vertex 270.79 -2.50153 -10
      vertex 270.79 2.50153 -10
      vertex 270.882 1.88 -10
    endloop
  endfacet
  facet normal 0 0 -1
    outer loop
      vertex 270.672 -3.11868 -10
      vertex 270.79 2.50153 -10
      vertex 270.79 -2.50153 -10
    endloop
  endfacet
  facet normal 0 0 -1
    outer loop
      vertex 270.672 -3.11868 -10
      vertex 270.672 3.11868 -10
      vertex 270.79 2.50153 -10
    endloop
  endfacet
  facet normal 0 0 -1
    outer loop
      vertex 270.529 -3.73035 -10
      vertex 270.672 3.11868 -10
      vertex 270.672 -3.11868 -10
    endloop
  endfacet
  facet normal 0 0 -1
    outer loop
      vertex 270.529 -3.73035 -10
      vertex 270.529 3.73035 -10
      vertex 270.672 3.11868 -10
    endloop
  endfacet
  facet normal 0 0 -1
    outer loop
      vertex 270.36 -4.33548 -10
      vertex 270.529 3.73035 -10
      vertex 270.529 -3.73035 -10
    endloop
  endfacet
  facet normal 0 0 -1
    outer loop
      vertex 270.36 -4.33548 -10
      vertex 270.36 4.33548 -10
      vertex 270.529 3.73035 -10
    endloop
  endfacet
  facet normal 0 0 -1
    outer loop
      vertex 270.166 -4.933 -10
      vertex 270.36 4.33548 -10
      vertex 270.36 -4.33548 -10
    endloop
  endfacet
  facet normal 0 0 -1
    outer loop
      vertex 270.166 -4.933 -10
      vertex 270.166 4.933 -10
      vertex 270.36 4.33548 -10
    endloop
  endfacet
  facet normal 0 0 -1
    outer loop
      vertex 269.947 -5.52187 -10
      vertex 270.166 4.933 -10
      vertex 270.166 -4.933 -10
    endloop
  endfacet
  facet normal 0 0 -1
    outer loop
      vertex 269.947 -5.52187 -10
      vertex 269.947 5.52187 -10
      vertex 270.166 4.933 -10
    endloop
  endfacet
  facet normal 0 0 -1
    outer loop
      vertex 269.703 -6.10105 -10
      vertex 269.947 5.52187 -10
      vertex 269.947 -5.52187 -10
    endloop
  endfacet
  facet normal 0 0 -1
    outer loop
      vertex 269.703 -6.10105 -10
      vertex 269.703 6.10105 -10
      vertex 269.947 5.52187 -10
    endloop
  endfacet
  facet normal 0 0 -1
    outer loop
      vertex 269.436 -6.66953 -10
      vertex 269.703 6.10105 -10
      vertex 269.703 -6.10105 -10
    endloop
  endfacet
  facet normal 0 0 -1
    outer loop
      vertex 269.436 -6.66953 -10
      vertex 269.436 6.66953 -10
      vertex 269.703 6.10105 -10
    endloop
  endfacet
  facet normal 0 0 -1
    outer loop
      vertex 269.145 -7.22631 -10
      vertex 269.436 6.66953 -10
      vertex 269.436 -6.66953 -10
    endloop
  endfacet
  facet normal 0 0 -1
    outer loop
      vertex 269.145 -7.22631 -10
      vertex 269.145 7.22631 -10
      vertex 269.436 6.66953 -10
    endloop
  endfacet
  facet normal 0 0 -1
    outer loop
      vertex 268.83 -7.77041 -10
      vertex 269.145 7.22631 -10
      vertex 269.145 -7.22631 -10
    endloop
  endfacet
  facet normal 0 0 -1
    outer loop
      vertex 268.83 -7.77041 -10
      vertex 268.83 7.77041 -10
      vertex 269.145 7.22631 -10
    endloop
  endfacet
  facet normal 0 0 -1
    outer loop
      vertex 268.494 -8.30087 -10
      vertex 268.83 7.77041 -10
      vertex 268.83 -7.77041 -10
    endloop
  endfacet
  facet normal 0 0 -1
    outer loop
      vertex 268.494 -8.30087 -10
      vertex 268.494 8.30087 -10
      vertex 268.83 7.77041 -10
    endloop
  endfacet
  facet normal 0 0 -1
    outer loop
      vertex 268.135 -8.81678 -10
      vertex 268.494 8.30087 -10
      vertex 268.494 -8.30087 -10
    endloop
  endfacet
  facet normal 0 0 -1
    outer loop
      vertex 268.135 -8.81678 -10
      vertex 268.135 8.81678 -10
      vertex 268.494 8.30087 -10
    endloop
  endfacet
  facet normal 0 0 -1
    outer loop
      vertex 267.755 -9.31722 -10
      vertex 268.135 8.81678 -10
      vertex 268.135 -8.81678 -10
    endloop
  endfacet
  facet normal 0 0 -1
    outer loop
      vertex 267.755 -9.31722 -10
      vertex 267.755 9.31722 -10
      vertex 268.135 8.81678 -10
    endloop
  endfacet
  facet normal 0 0 -1
    outer loop
      vertex 267.355 -9.80131 -10
      vertex 267.755 9.31722 -10
      vertex 267.755 -9.31722 -10
    endloop
  endfacet
  facet normal 0 0 -1
    outer loop
      vertex 267.355 -9.80131 -10
      vertex 267.355 9.80131 -10
      vertex 267.755 9.31722 -10
    endloop
  endfacet
  facet normal 0 0 -1
    outer loop
      vertex 266.935 -10.2682 -10
      vertex 267.355 9.80131 -10
      vertex 267.355 -9.80131 -10
    endloop
  endfacet
  facet normal 0 0 -1
    outer loop
      vertex 266.935 -10.2682 -10
      vertex 266.935 10.2682 -10
      vertex 267.355 9.80131 -10
    endloop
  endfacet
  facet normal 0 0 -1
    outer loop
      vertex 266.495 -10.7171 -10
      vertex 266.935 10.2682 -10
      vertex 266.935 -10.2682 -10
    endloop
  endfacet
  facet normal 0 0 -1
    outer loop
      vertex 266.495 -10.7171 -10
      vertex 266.495 10.7171 -10
      vertex 266.935 10.2682 -10
    endloop
  endfacet
  facet normal 0 0 -1
    outer loop
      vertex 266.037 -11.1472 -10
      vertex 266.495 10.7171 -10
      vertex 266.495 -10.7171 -10
    endloop
  endfacet
  facet normal 0 0 -1
    outer loop
      vertex 266.037 -11.1472 -10
      vertex 266.037 11.1472 -10
      vertex 266.495 10.7171 -10
    endloop
  endfacet
  facet normal 0 0 -1
    outer loop
      vertex 265.561 -11.5577 -10
      vertex 266.037 11.1472 -10
      vertex 266.037 -11.1472 -10
    endloop
  endfacet
  facet normal 0 0 -1
    outer loop
      vertex 265.561 -11.5577 -10
      vertex 265.561 11.5577 -10
      vertex 266.037 11.1472 -10
    endloop
  endfacet
  facet normal 0 0 -1
    outer loop
      vertex 265.069 -11.9479 -10
      vertex 265.561 11.5577 -10
      vertex 265.561 -11.5577 -10
    endloop
  endfacet
  facet normal 0 0 -1
    outer loop
      vertex 265.069 -11.9479 -10
      vertex 265.069 11.9479 -10
      vertex 265.561 11.5577 -10
    endloop
  endfacet
  facet normal 0 0 -1
    outer loop
      vertex 264.561 -12.3172 -10
      vertex 265.069 11.9479 -10
      vertex 265.069 -11.9479 -10
    endloop
  endfacet
  facet normal 0 0 -1
    outer loop
      vertex 264.561 -12.3172 -10
      vertex 264.561 12.3172 -10
      vertex 265.069 11.9479 -10
    endloop
  endfacet
  facet normal 0 0 -1
    outer loop
      vertex 264.037 -12.6649 -10
      vertex 264.561 12.3172 -10
      vertex 264.561 -12.3172 -10
    endloop
  endfacet
  facet normal 0 0 -1
    outer loop
      vertex 264.037 -12.6649 -10
      vertex 264.037 12.6649 -10
      vertex 264.561 12.3172 -10
    endloop
  endfacet
  facet normal 0 0 -1
    outer loop
      vertex 263.5 -12.9904 -10
      vertex 264.037 12.6649 -10
      vertex 264.037 -12.6649 -10
    endloop
  endfacet
  facet normal 0 0 -1
    outer loop
      vertex 263.5 -12.9904 -10
      vertex 263.5 12.9904 -10
      vertex 264.037 12.6649 -10
    endloop
  endfacet
  facet normal 0 0 -1
    outer loop
      vertex 262.949 -13.2931 -10
      vertex 263.5 12.9904 -10
      vertex 263.5 -12.9904 -10
    endloop
  endfacet
  facet normal 0 0 -1
    outer loop
      vertex 262.949 -13.2931 -10
      vertex 262.949 13.2931 -10
      vertex 263.5 12.9904 -10
    endloop
  endfacet
  facet normal 0 0 -1
    outer loop
      vertex 262.387 -13.5724 -10
      vertex 262.949 13.2931 -10
      vertex 262.949 -13.2931 -10
    endloop
  endfacet
  facet normal 0 0 -1
    outer loop
      vertex 262.387 -13.5724 -10
      vertex 262.387 13.5724 -10
      vertex 262.949 13.2931 -10
    endloop
  endfacet
  facet normal 0 0 -1
    outer loop
      vertex 261.813 -13.8279 -10
      vertex 262.387 13.5724 -10
      vertex 262.387 -13.5724 -10
    endloop
  endfacet
  facet normal 0 0 -1
    outer loop
      vertex 261.813 -13.8279 -10
      vertex 261.813 13.8279 -10
      vertex 262.387 13.5724 -10
    endloop
  endfacet
  facet normal 0 0 -1
    outer loop
      vertex 261.229 -14.0592 -10
      vertex 261.813 13.8279 -10
      vertex 261.813 -13.8279 -10
    endloop
  endfacet
  facet normal 0 0 -1
    outer loop
      vertex 261.229 -14.0592 -10
      vertex 261.229 14.0592 -10
      vertex 261.813 13.8279 -10
    endloop
  endfacet
  facet normal 0 0 -1
    outer loop
      vertex 260.635 -14.2658 -10
      vertex 261.229 14.0592 -10
      vertex 261.229 -14.0592 -10
    endloop
  endfacet
  facet normal 0 0 -1
    outer loop
      vertex 260.635 -14.2658 -10
      vertex 260.635 14.2658 -10
      vertex 261.229 14.0592 -10
    endloop
  endfacet
  facet normal 0 0 -1
    outer loop
      vertex 260.034 -14.4474 -10
      vertex 260.635 14.2658 -10
      vertex 260.635 -14.2658 -10
    endloop
  endfacet
  facet normal 0 0 -1
    outer loop
      vertex 260.034 -14.4474 -10
      vertex 260.034 14.4474 -10
      vertex 260.635 14.2658 -10
    endloop
  endfacet
  facet normal 0 0 -1
    outer loop
      vertex 259.425 -14.6037 -10
      vertex 260.034 14.4474 -10
      vertex 260.034 -14.4474 -10
    endloop
  endfacet
  facet normal 0 0 -1
    outer loop
      vertex 259.425 -14.6037 -10
      vertex 259.425 14.6037 -10
      vertex 260.034 14.4474 -10
    endloop
  endfacet
  facet normal 0 0 -1
    outer loop
      vertex 258.811 -14.7343 -10
      vertex 259.425 14.6037 -10
      vertex 259.425 -14.6037 -10
    endloop
  endfacet
  facet normal 0 0 -1
    outer loop
      vertex 258.811 -14.7343 -10
      vertex 258.811 14.7343 -10
      vertex 259.425 14.6037 -10
    endloop
  endfacet
  facet normal 0 0 -1
    outer loop
      vertex 258.191 -14.8391 -10
      vertex 258.811 14.7343 -10
      vertex 258.811 -14.7343 -10
    endloop
  endfacet
  facet normal 0 0 -1
    outer loop
      vertex 258.191 -14.8391 -10
      vertex 258.191 14.8391 -10
      vertex 258.811 14.7343 -10
    endloop
  endfacet
  facet normal 0 0 -1
    outer loop
      vertex 257.568 -14.9178 -10
      vertex 258.191 14.8391 -10
      vertex 258.191 -14.8391 -10
    endloop
  endfacet
  facet normal 0 0 -1
    outer loop
      vertex 257.568 -14.9178 -10
      vertex 257.568 14.9178 -10
      vertex 258.191 14.8391 -10
    endloop
  endfacet
  facet normal 0 0 -1
    outer loop
      vertex 256.942 -14.9704 -10
      vertex 257.568 14.9178 -10
      vertex 257.568 -14.9178 -10
    endloop
  endfacet
  facet normal 0 0 -1
    outer loop
      vertex 256.942 -14.9704 -10
      vertex 256.942 14.9704 -10
      vertex 257.568 14.9178 -10
    endloop
  endfacet
  facet normal 0 0 -1
    outer loop
      vertex 256.314 -14.9967 -10
      vertex 256.942 14.9704 -10
      vertex 256.942 -14.9704 -10
    endloop
  endfacet
  facet normal 0 0 -1
    outer loop
      vertex 256.314 -14.9967 -10
      vertex 256.314 14.9967 -10
      vertex 256.942 14.9704 -10
    endloop
  endfacet
  facet normal 0 0 -1
    outer loop
      vertex 255.686 -14.9967 -10
      vertex 256.314 14.9967 -10
      vertex 256.314 -14.9967 -10
    endloop
  endfacet
  facet normal 0 0 -1
    outer loop
      vertex 255.686 -14.9967 -10
      vertex 255.686 14.9967 -10
      vertex 256.314 14.9967 -10
    endloop
  endfacet
  facet normal 0 0 -1
    outer loop
      vertex 255.058 -14.9704 -10
      vertex 255.686 14.9967 -10
      vertex 255.686 -14.9967 -10
    endloop
  endfacet
  facet normal 0 0 -1
    outer loop
      vertex 255.058 -14.9704 -10
      vertex 255.058 14.9704 -10
      vertex 255.686 14.9967 -10
    endloop
  endfacet
  facet normal 0 0 -1
    outer loop
      vertex 254.432 -14.9178 -10
      vertex 255.058 14.9704 -10
      vertex 255.058 -14.9704 -10
    endloop
  endfacet
  facet normal 0 0 -1
    outer loop
      vertex 254.432 -14.9178 -10
      vertex 254.432 14.9178 -10
      vertex 255.058 14.9704 -10
    endloop
  endfacet
  facet normal 0 0 -1
    outer loop
      vertex 253.809 -14.8391 -10
      vertex 254.432 14.9178 -10
      vertex 254.432 -14.9178 -10
    endloop
  endfacet
  facet normal 0 0 -1
    outer loop
      vertex 253.809 -14.8391 -10
      vertex 253.809 14.8391 -10
      vertex 254.432 14.9178 -10
    endloop
  endfacet
  facet normal 0 0 -1
    outer loop
      vertex 253.189 -14.7343 -10
      vertex 253.809 14.8391 -10
      vertex 253.809 -14.8391 -10
    endloop
  endfacet
  facet normal 0 0 -1
    outer loop
      vertex 253.189 -14.7343 -10
      vertex 253.189 14.7343 -10
      vertex 253.809 14.8391 -10
    endloop
  endfacet
  facet normal 0 0 -1
    outer loop
      vertex 252.575 -14.6037 -10
      vertex 253.189 14.7343 -10
      vertex 253.189 -14.7343 -10
    endloop
  endfacet
  facet normal 0 0 -1
    outer loop
      vertex 252.575 -14.6037 -10
      vertex 252.575 14.6037 -10
      vertex 253.189 14.7343 -10
    endloop
  endfacet
  facet normal 0 0 -1
    outer loop
      vertex 251.966 -14.4474 -10
      vertex 252.575 14.6037 -10
      vertex 252.575 -14.6037 -10
    endloop
  endfacet
  facet normal 0 0 -1
    outer loop
      vertex 251.966 -14.4474 -10
      vertex 251.966 14.4474 -10
      vertex 252.575 14.6037 -10
    endloop
  endfacet
  facet normal 0 0 -1
    outer loop
      vertex 251.365 -14.2658 -10
      vertex 251.966 14.4474 -10
      vertex 251.966 -14.4474 -10
    endloop
  endfacet
  facet normal 0 0 -1
    outer loop
      vertex 251.365 -14.2658 -10
      vertex 251.365 14.2658 -10
      vertex 251.966 14.4474 -10
    endloop
  endfacet
  facet normal 0 0 -1
    outer loop
      vertex 250.771 -14.0592 -10
      vertex 251.365 14.2658 -10
      vertex 251.365 -14.2658 -10
    endloop
  endfacet
  facet normal 0 0 -1
    outer loop
      vertex 250.771 -14.0592 -10
      vertex 250.771 14.0592 -10
      vertex 251.365 14.2658 -10
    endloop
  endfacet
  facet normal 0 0 -1
    outer loop
      vertex 250.187 -13.8279 -10
      vertex 250.771 14.0592 -10
      vertex 250.771 -14.0592 -10
    endloop
  endfacet
  facet normal 0 0 -1
    outer loop
      vertex 250.187 -13.8279 -10
      vertex 250.187 13.8279 -10
      vertex 250.771 14.0592 -10
    endloop
  endfacet
  facet normal 0 0 -1
    outer loop
      vertex 249.613 -13.5724 -10
      vertex 250.187 13.8279 -10
      vertex 250.187 -13.8279 -10
    endloop
  endfacet
  facet normal 0 0 -1
    outer loop
      vertex 249.613 -13.5724 -10
      vertex 249.613 13.5724 -10
      vertex 250.187 13.8279 -10
    endloop
  endfacet
  facet normal 0 0 -1
    outer loop
      vertex 249.051 -13.2931 -10
      vertex 249.613 13.5724 -10
      vertex 249.613 -13.5724 -10
    endloop
  endfacet
  facet normal 0 0 -1
    outer loop
      vertex 249.051 -13.2931 -10
      vertex 249.051 13.2931 -10
      vertex 249.613 13.5724 -10
    endloop
  endfacet
  facet normal 0 0 -1
    outer loop
      vertex 248.5 -12.9904 -10
      vertex 249.051 13.2931 -10
      vertex 249.051 -13.2931 -10
    endloop
  endfacet
  facet normal 0 0 -1
    outer loop
      vertex 248.5 -12.9904 -10
      vertex 248.5 12.9904 -10
      vertex 249.051 13.2931 -10
    endloop
  endfacet
  facet normal 0 0 -1
    outer loop
      vertex 247.963 -12.6649 -10
      vertex 248.5 12.9904 -10
      vertex 248.5 -12.9904 -10
    endloop
  endfacet
  facet normal 0 0 -1
    outer loop
      vertex 247.963 -12.6649 -10
      vertex 247.963 12.6649 -10
      vertex 248.5 12.9904 -10
    endloop
  endfacet
  facet normal 0 0 -1
    outer loop
      vertex 247.439 -12.3172 -10
      vertex 247.963 12.6649 -10
      vertex 247.963 -12.6649 -10
    endloop
  endfacet
  facet normal 0 0 -1
    outer loop
      vertex 247.439 -12.3172 -10
      vertex 247.439 12.3172 -10
      vertex 247.963 12.6649 -10
    endloop
  endfacet
  facet normal 0 0 -1
    outer loop
      vertex 246.931 -11.9479 -10
      vertex 247.439 12.3172 -10
      vertex 247.439 -12.3172 -10
    endloop
  endfacet
  facet normal 0 0 -1
    outer loop
      vertex 246.931 -11.9479 -10
      vertex 246.931 11.9479 -10
      vertex 247.439 12.3172 -10
    endloop
  endfacet
  facet normal 0 0 -1
    outer loop
      vertex 246.439 -11.5577 -10
      vertex 246.931 11.9479 -10
      vertex 246.931 -11.9479 -10
    endloop
  endfacet
  facet normal 0 0 -1
    outer loop
      vertex 246.439 -11.5577 -10
      vertex 246.439 11.5577 -10
      vertex 246.931 11.9479 -10
    endloop
  endfacet
  facet normal 0 0 -1
    outer loop
      vertex 245.963 -11.1472 -10
      vertex 246.439 11.5577 -10
      vertex 246.439 -11.5577 -10
    endloop
  endfacet
  facet normal 0 0 -1
    outer loop
      vertex 245.963 -11.1472 -10
      vertex 245.963 11.1472 -10
      vertex 246.439 11.5577 -10
    endloop
  endfacet
  facet normal 0 0 -1
    outer loop
      vertex 245.505 -10.7171 -10
      vertex 245.963 11.1472 -10
      vertex 245.963 -11.1472 -10
    endloop
  endfacet
  facet normal 0 0 -1
    outer loop
      vertex 245.505 -10.7171 -10
      vertex 245.505 10.7171 -10
      vertex 245.963 11.1472 -10
    endloop
  endfacet
  facet normal 0 0 -1
    outer loop
      vertex 245.065 -10.2682 -10
      vertex 245.505 10.7171 -10
      vertex 245.505 -10.7171 -10
    endloop
  endfacet
  facet normal 0 0 -1
    outer loop
      vertex 245.065 -10.2682 -10
      vertex 245.065 10.2682 -10
      vertex 245.505 10.7171 -10
    endloop
  endfacet
  facet normal 0 0 -1
    outer loop
      vertex 244.645 -9.80131 -10
      vertex 245.065 10.2682 -10
      vertex 245.065 -10.2682 -10
    endloop
  endfacet
  facet normal 0 0 -1
    outer loop
      vertex 244.645 -9.80131 -10
      vertex 244.645 9.80131 -10
      vertex 245.065 10.2682 -10
    endloop
  endfacet
  facet normal 0 0 -1
    outer loop
      vertex 244.245 -9.31722 -10
      vertex 244.645 9.80131 -10
      vertex 244.645 -9.80131 -10
    endloop
  endfacet
  facet normal 0 0 -1
    outer loop
      vertex 244.245 -9.31722 -10
      vertex 244.245 9.31722 -10
      vertex 244.645 9.80131 -10
    endloop
  endfacet
  facet normal 0 0 -1
    outer loop
      vertex 243.865 -8.81678 -10
      vertex 244.245 9.31722 -10
      vertex 244.245 -9.31722 -10
    endloop
  endfacet
  facet normal 0 0 -1
    outer loop
      vertex 243.865 -8.81678 -10
      vertex 243.865 8.81678 -10
      vertex 244.245 9.31722 -10
    endloop
  endfacet
  facet normal 0 0 -1
    outer loop
      vertex 243.506 -8.30087 -10
      vertex 243.865 8.81678 -10
      vertex 243.865 -8.81678 -10
    endloop
  endfacet
  facet normal 0 0 -1
    outer loop
      vertex 243.506 -8.30087 -10
      vertex 243.506 8.30087 -10
      vertex 243.865 8.81678 -10
    endloop
  endfacet
  facet normal 0 0 -1
    outer loop
      vertex 243.17 -7.77041 -10
      vertex 243.506 8.30087 -10
      vertex 243.506 -8.30087 -10
    endloop
  endfacet
  facet normal 0 0 -1
    outer loop
      vertex 243.17 -7.77041 -10
      vertex 243.17 7.77041 -10
      vertex 243.506 8.30087 -10
    endloop
  endfacet
  facet normal 0 0 -1
    outer loop
      vertex 242.855 -7.22631 -10
      vertex 243.17 7.77041 -10
      vertex 243.17 -7.77041 -10
    endloop
  endfacet
  facet normal 0 0 -1
    outer loop
      vertex 242.855 -7.22631 -10
      vertex 242.855 7.22631 -10
      vertex 243.17 7.77041 -10
    endloop
  endfacet
  facet normal 0 0 -1
    outer loop
      vertex 242.564 -6.66953 -10
      vertex 242.855 7.22631 -10
      vertex 242.855 -7.22631 -10
    endloop
  endfacet
  facet normal 0 0 -1
    outer loop
      vertex 242.564 -6.66953 -10
      vertex 242.564 6.66953 -10
      vertex 242.855 7.22631 -10
    endloop
  endfacet
  facet normal 0 0 -1
    outer loop
      vertex 242.297 -6.10105 -10
      vertex 242.564 6.66953 -10
      vertex 242.564 -6.66953 -10
    endloop
  endfacet
  facet normal 0 0 -1
    outer loop
      vertex 242.297 -6.10105 -10
      vertex 242.297 6.10105 -10
      vertex 242.564 6.66953 -10
    endloop
  endfacet
  facet normal 0 0 -1
    outer loop
      vertex 242.053 -5.52187 -10
      vertex 242.297 6.10105 -10
      vertex 242.297 -6.10105 -10
    endloop
  endfacet
  facet normal 0 0 -1
    outer loop
      vertex 242.053 -5.52187 -10
      vertex 242.053 5.52187 -10
      vertex 242.297 6.10105 -10
    endloop
  endfacet
  facet normal 0 0 -1
    outer loop
      vertex 241.834 -4.933 -10
      vertex 242.053 5.52187 -10
      vertex 242.053 -5.52187 -10
    endloop
  endfacet
  facet normal 0 0 -1
    outer loop
      vertex 241.834 -4.933 -10
      vertex 241.834 4.933 -10
      vertex 242.053 5.52187 -10
    endloop
  endfacet
  facet normal 0 0 -1
    outer loop
      vertex 241.64 -4.33548 -10
      vertex 241.834 4.933 -10
      vertex 241.834 -4.933 -10
    endloop
  endfacet
  facet normal 0 0 -1
    outer loop
      vertex 241.64 -4.33548 -10
      vertex 241.64 4.33548 -10
      vertex 241.834 4.933 -10
    endloop
  endfacet
  facet normal 0 0 -1
    outer loop
      vertex 241.471 -3.73035 -10
      vertex 241.64 4.33548 -10
      vertex 241.64 -4.33548 -10
    endloop
  endfacet
  facet normal 0 0 -1
    outer loop
      vertex 241.471 -3.73035 -10
      vertex 241.471 3.73035 -10
      vertex 241.64 4.33548 -10
    endloop
  endfacet
  facet normal 0 0 -1
    outer loop
      vertex 241.328 -3.11868 -10
      vertex 241.471 3.73035 -10
      vertex 241.471 -3.73035 -10
    endloop
  endfacet
  facet normal 0 0 -1
    outer loop
      vertex 241.328 -3.11868 -10
      vertex 241.328 3.11868 -10
      vertex 241.471 3.73035 -10
    endloop
  endfacet
  facet normal 0 0 -1
    outer loop
      vertex 241.21 -2.50153 -10
      vertex 241.328 3.11868 -10
      vertex 241.328 -3.11868 -10
    endloop
  endfacet
  facet normal 0 0 -1
    outer loop
      vertex 241.21 -2.50153 -10
      vertex 241.21 2.50153 -10
      vertex 241.328 3.11868 -10
    endloop
  endfacet
  facet normal 0 0 -1
    outer loop
      vertex 241.118 -1.88 -10
      vertex 241.21 2.50153 -10
      vertex 241.21 -2.50153 -10
    endloop
  endfacet
  facet normal 0 0 -1
    outer loop
      vertex 241.118 -1.88 -10
      vertex 241.118 1.88 -10
      vertex 241.21 2.50153 -10
    endloop
  endfacet
  facet normal 0 0 -1
    outer loop
      vertex 241.053 -1.25517 -10
      vertex 241.118 1.88 -10
      vertex 241.118 -1.88 -10
    endloop
  endfacet
  facet normal 0 0 -1
    outer loop
      vertex 241.053 -1.25517 -10
      vertex 241.053 1.25517 -10
      vertex 241.118 1.88 -10
    endloop
  endfacet
  facet normal 0 0 -1
    outer loop
      vertex 241.013 -0.628135 -10
      vertex 241.053 1.25517 -10
      vertex 241.053 -1.25517 -10
    endloop
  endfacet
  facet normal 0 0 -1
    outer loop
      vertex 241.013 -0.628135 -10
      vertex 241.013 0.628135 -10
      vertex 241.053 1.25517 -10
    endloop
  endfacet
  facet normal 0 -0 -1
    outer loop
      vertex 241.013 0.628135 -10
      vertex 241.013 -0.628135 -10
      vertex 241 0 -10
    endloop
  endfacet
  facet normal 0 0 1
    outer loop
      vertex 270.987 0.628135 10
      vertex 270.987 -0.628135 10
      vertex 271 0 10
    endloop
  endfacet
  facet normal 0 0 1
    outer loop
      vertex 270.947 1.25517 10
      vertex 270.987 -0.628135 10
      vertex 270.987 0.628135 10
    endloop
  endfacet
  facet normal 0 0 1
    outer loop
      vertex 270.947 1.25517 10
      vertex 270.947 -1.25517 10
      vertex 270.987 -0.628135 10
    endloop
  endfacet
  facet normal 0 0 1
    outer loop
      vertex 270.882 1.88 10
      vertex 270.947 -1.25517 10
      vertex 270.947 1.25517 10
    endloop
  endfacet
  facet normal 0 0 1
    outer loop
      vertex 270.882 1.88 10
      vertex 270.882 -1.88 10
      vertex 270.947 -1.25517 10
    endloop
  endfacet
  facet normal 0 0 1
    outer loop
      vertex 270.79 2.50153 10
      vertex 270.882 -1.88 10
      vertex 270.882 1.88 10
    endloop
  endfacet
  facet normal 0 0 1
    outer loop
      vertex 270.79 2.50153 10
      vertex 270.79 -2.50153 10
      vertex 270.882 -1.88 10
    endloop
  endfacet
  facet normal 0 0 1
    outer loop
      vertex 270.672 3.11868 10
      vertex 270.79 -2.50153 10
      vertex 270.79 2.50153 10
    endloop
  endfacet
  facet normal 0 0 1
    outer loop
      vertex 270.672 3.11868 10
      vertex 270.672 -3.11868 10
      vertex 270.79 -2.50153 10
    endloop
  endfacet
  facet normal 0 0 1
    outer loop
      vertex 270.529 3.73035 10
      vertex 270.672 -3.11868 10
      vertex 270.672 3.11868 10
    endloop
  endfacet
  facet normal 0 0 1
    outer loop
      vertex 270.529 3.73035 10
      vertex 270.529 -3.73035 10
      vertex 270.672 -3.11868 10
    endloop
  endfacet
  facet normal 0 0 1
    outer loop
      vertex 270.36 4.33548 10
      vertex 270.529 -3.73035 10
      vertex 270.529 3.73035 10
    endloop
  endfacet
  facet normal 0 0 1
    outer loop
      vertex 270.36 4.33548 10
      vertex 270.36 -4.33548 10
      vertex 270.529 -3.73035 10
    endloop
  endfacet
  facet normal 0 0 1
    outer loop
      vertex 270.166 4.933 10
      vertex 270.36 -4.33548 10
      vertex 270.36 4.33548 10
    endloop
  endfacet
  facet normal 0 0 1
    outer loop
      vertex 270.166 4.933 10
      vertex 270.166 -4.933 10
      vertex 270.36 -4.33548 10
    endloop
  endfacet
  facet normal 0 0 1
    outer loop
      vertex 269.947 5.52187 10
      vertex 270.166 -4.933 10
      vertex 270.166 4.933 10
    endloop
  endfacet
  facet normal 0 0 1
    outer loop
      vertex 269.947 5.52187 10
      vertex 269.947 -5.52187 10
      vertex 270.166 -4.933 10
    endloop
  endfacet
  facet normal 0 0 1
    outer loop
      vertex 269.703 6.10105 10
      vertex 269.947 -5.52187 10
      vertex 269.947 5.52187 10
    endloop
  endfacet
  facet normal 0 0 1
    outer loop
      vertex 269.703 6.10105 10
      vertex 269.703 -6.10105 10
      vertex 269.947 -5.52187 10
    endloop
  endfacet
  facet normal 0 0 1
    outer loop
      vertex 269.436 6.66953 10
      vertex 269.703 -6.10105 10
      vertex 269.703 6.10105 10
    endloop
  endfacet
  facet normal 0 0 1
    outer loop
      vertex 269.436 6.66953 10
      vertex 269.436 -6.66953 10
      vertex 269.703 -6.10105 10
    endloop
  endfacet
  facet normal 0 0 1
    outer loop
      vertex 269.145 7.22631 10
      vertex 269.436 -6.66953 10
      vertex 269.436 6.66953 10
    endloop
  endfacet
  facet normal 0 0 1
    outer loop
      vertex 269.145 7.22631 10
      vertex 269.145 -7.22631 10
      vertex 269.436 -6.66953 10
    endloop
  endfacet
  facet normal 0 0 1
    outer loop
      vertex 268.83 7.77041 10
      vertex 269.145 -7.22631 10
      vertex 269.145 7.22631 10
    endloop
  endfacet
  facet normal 0 0 1
    outer loop
      vertex 268.83 7.77041 10
      vertex 268.83 -7.77041 10
      vertex 269.145 -7.22631 10
    endloop
  endfacet
  facet normal 0 0 1
    outer loop
      vertex 268.494 8.30087 10
      vertex 268.83 -7.77041 10
      vertex 268.83 7.77041 10
    endloop
  endfacet
  facet normal 0 0 1
    outer loop
      vertex 268.494 8.30087 10
      vertex 268.494 -8.30087 10
      vertex 268.83 -7.77041 10
    endloop
  endfacet
  facet normal 0 0 1
    outer loop
      vertex 268.135 8.81678 10
      vertex 268.494 -8.30087 10
      vertex 268.494 8.30087 10
    endloop
  endfacet
  facet normal 0 0 1
    outer loop
      vertex 268.135 8.81678 10
      vertex 268.135 -8.81678 10
      vertex 268.494 -8.30087 10
    endloop
  endfacet
  facet normal 0 0 1
    outer loop
      vertex 267.755 9.31722 10
      vertex 268.135 -8.81678 10
      vertex 268.135 8.81678 10
    endloop
  endfacet
  facet normal 0 0 1
    outer loop
      vertex 267.755 9.31722 10
      vertex 267.755 -9.31722 10
      vertex 268.135 -8.81678 10
    endloop
  endfacet
  facet normal 0 0 1
    outer loop
      vertex 267.355 9.80131 10
      vertex 267.755 -9.31722 10
      vertex 267.755 9.31722 10
    endloop
  endfacet
  facet normal 0 0 1
    outer loop
      vertex 267.355 9.80131 10
      vertex 267.355 -9.80131 10
      vertex 267.755 -9.31722 10
    endloop
  endfacet
  facet normal 0 0 1
    outer loop
      vertex 266.935 10.2682 10
      vertex 267.355 -9.80131 10
      vertex 267.355 9.80131 10
    endloop
  endfacet
  facet normal 0 0 1
    outer loop
      vertex 266.935 10.2682 10
      vertex 266.935 -10.2682 10
      vertex 267.355 -9.80131 10
    endloop
  endfacet
  facet normal 0 0 1
    outer loop
      vertex 266.495 10.7171 10
      vertex 266.935 -10.2682 10
      vertex 266.935 10.2682 10
    endloop
  endfacet
  facet normal 0 0 1
    outer loop
      vertex 266.495 10.7171 10
      vertex 266.495 -10.7171 10
      vertex 266.935 -10.2682 10
    endloop
  endfacet
  facet normal 0 0 1
    outer loop
      vertex 266.037 11.1472 10
      vertex 266.495 -10.7171 10
      vertex 266.495 10.7171 10
    endloop
  endfacet
  facet normal 0 0 1
    outer loop
      vertex 266.037 11.1472 10
      vertex 266.037 -11.1472 10
      vertex 266.495 -10.7171 10
    endloop
  endfacet
  facet normal 0 0 1
    outer loop
      vertex 265.561 11.5577 10
      vertex 266.037 -11.1472 10
      vertex 266.037 11.1472 10
    endloop
  endfacet
  facet normal 0 0 1
    outer loop
      vertex 265.561 11.5577 10
      vertex 265.561 -11.5577 10
      vertex 266.037 -11.1472 10
    endloop
  endfacet
  facet normal 0 0 1
    outer loop
      vertex 265.069 11.9479 10
      vertex 265.561 -11.5577 10
      vertex 265.561 11.5577 10
    endloop
  endfacet
  facet normal 0 0 1
    outer loop
      vertex 265.069 11.9479 10
      vertex 265.069 -11.9479 10
      vertex 265.561 -11.5577 10
    endloop
  endfacet
  facet normal 0 0 1
    outer loop
      vertex 264.561 12.3172 10
      vertex 265.069 -11.9479 10
      vertex 265.069 11.9479 10
    endloop
  endfacet
  facet normal 0 0 1
    outer loop
      vertex 264.561 12.3172 10
      vertex 264.561 -12.3172 10
      vertex 265.069 -11.9479 10
    endloop
  endfacet
  facet normal 0 0 1
    outer loop
      vertex 264.037 12.6649 10
      vertex 264.561 -12.3172 10
      vertex 264.561 12.3172 10
    endloop
  endfacet
  facet normal 0 0 1
    outer loop
      vertex 264.037 12.6649 10
      vertex 264.037 -12.6649 10
      vertex 264.561 -12.3172 10
    endloop
  endfacet
  facet normal 0 0 1
    outer loop
      vertex 263.5 12.9904 10
      vertex 264.037 -12.6649 10
      vertex 264.037 12.6649 10
    endloop
  endfacet
  facet normal 0 0 1
    outer loop
      vertex 263.5 12.9904 10
      vertex 263.5 -12.9904 10
      vertex 264.037 -12.6649 10
    endloop
  endfacet
  facet normal 0 0 1
    outer loop
      vertex 262.949 13.2931 10
      vertex 263.5 -12.9904 10
      vertex 263.5 12.9904 10
    endloop
  endfacet
  facet normal 0 0 1
    outer loop
      vertex 262.949 13.2931 10
      vertex 262.949 -13.2931 10
      vertex 263.5 -12.9904 10
    endloop
  endfacet
  facet normal 0 0 1
    outer loop
      vertex 262.387 13.5724 10
      vertex 262.949 -13.2931 10
      vertex 262.949 13.2931 10
    endloop
  endfacet
  facet normal 0 0 1
    outer loop
      vertex 262.387 13.5724 10
      vertex 262.387 -13.5724 10
      vertex 262.949 -13.2931 10
    endloop
  endfacet
  facet normal 0 0 1
    outer loop
      vertex 261.813 13.8279 10
      vertex 262.387 -13.5724 10
      vertex 262.387 13.5724 10
    endloop
  endfacet
  facet normal 0 0 1
    outer loop
      vertex 261.813 13.8279 10
      vertex 261.813 -13.8279 10
      vertex 262.387 -13.5724 10
    endloop
  endfacet
  facet normal 0 0 1
    outer loop
      vertex 261.229 14.0592 10
      vertex 261.813 -13.8279 10
      vertex 261.813 13.8279 10
    endloop
  endfacet
  facet normal 0 0 1
    outer loop
      vertex 261.229 14.0592 10
      vertex 261.229 -14.0592 10
      vertex 261.813 -13.8279 10
    endloop
  endfacet
  facet normal 0 0 1
    outer loop
      vertex 260.635 14.2658 10
      vertex 261.229 -14.0592 10
      vertex 261.229 14.0592 10
    endloop
  endfacet
  facet normal 0 0 1
    outer loop
      vertex 260.635 14.2658 10
      vertex 260.635 -14.2658 10
      vertex 261.229 -14.0592 10
    endloop
  endfacet
  facet normal 0 0 1
    outer loop
      vertex 260.034 14.4474 10
      vertex 260.635 -14.2658 10
      vertex 260.635 14.2658 10
    endloop
  endfacet
  facet normal 0 0 1
    outer loop
      vertex 260.034 14.4474 10
      vertex 260.034 -14.4474 10
      vertex 260.635 -14.2658 10
    endloop
  endfacet
  facet normal 0 0 1
    outer loop
      vertex 259.425 14.6037 10
      vertex 260.034 -14.4474 10
      vertex 260.034 14.4474 10
    endloop
  endfacet
  facet normal 0 0 1
    outer loop
      vertex 259.425 14.6037 10
      vertex 259.425 -14.6037 10
      vertex 260.034 -14.4474 10
    endloop
  endfacet
  facet normal 0 0 1
    outer loop
      vertex 258.811 14.7343 10
      vertex 259.425 -14.6037 10
      vertex 259.425 14.6037 10
    endloop
  endfacet
  facet normal 0 0 1
    outer loop
      vertex 258.811 14.7343 10
      vertex 258.811 -14.7343 10
      vertex 259.425 -14.6037 10
    endloop
  endfacet
  facet normal 0 0 1
    outer loop
      vertex 258.191 14.8391 10
      vertex 258.811 -14.7343 10
      vertex 258.811 14.7343 10
    endloop
  endfacet
  facet normal 0 0 1
    outer loop
      vertex 258.191 14.8391 10
      vertex 258.191 -14.8391 10
      vertex 258.811 -14.7343 10
    endloop
  endfacet
  facet normal 0 0 1
    outer loop
      vertex 257.568 14.9178 10
      vertex 258.191 -14.8391 10
      vertex 258.191 14.8391 10
    endloop
  endfacet
  facet normal 0 0 1
    outer loop
      vertex 257.568 14.9178 10
      vertex 257.568 -14.9178 10
      vertex 258.191 -14.8391 10
    endloop
  endfacet
  facet normal 0 0 1
    outer loop
      vertex 256.942 14.9704 10
      vertex 257.568 -14.9178 10
      vertex 257.568 14.9178 10
    endloop
  endfacet
  facet normal 0 0 1
    outer loop
      vertex 256.942 14.9704 10
      vertex 256.942 -14.9704 10
      vertex 257.568 -14.9178 10
    endloop
  endfacet
  facet normal 0 0 1
    outer loop
      vertex 256.314 14.9967 10
      vertex 256.942 -14.9704 10
      vertex 256.942 14.9704 10
    endloop
  endfacet
  facet normal 0 0 1
    outer loop
      vertex 256.314 14.9967 10
      vertex 256.314 -14.9967 10
      vertex 256.942 -14.9704 10
    endloop
  endfacet
  facet normal -0 0 1
    outer loop
      vertex 255.686 14.9967 10
      vertex 256.314 -14.9967 10
      vertex 256.314 14.9967 10
    endloop
  endfacet
  facet normal 0 0 1
    outer loop
      vertex 255.686 14.9967 10
      vertex 255.686 -14.9967 10
      vertex 256.314 -14.9967 10
    endloop
  endfacet
  facet normal -0 0 1
    outer loop
      vertex 255.058 14.9704 10
      vertex 255.686 -14.9967 10
      vertex 255.686 14.9967 10
    endloop
  endfacet
  facet normal 0 0 1
    outer loop
      vertex 255.058 14.9704 10
      vertex 255.058 -14.9704 10
      vertex 255.686 -14.9967 10
    endloop
  endfacet
  facet normal -0 0 1
    outer loop
      vertex 254.432 14.9178 10
      vertex 255.058 -14.9704 10
      vertex 255.058 14.9704 10
    endloop
  endfacet
  facet normal 0 0 1
    outer loop
      vertex 254.432 14.9178 10
      vertex 254.432 -14.9178 10
      vertex 255.058 -14.9704 10
    endloop
  endfacet
  facet normal -0 0 1
    outer loop
      vertex 253.809 14.8391 10
      vertex 254.432 -14.9178 10
      vertex 254.432 14.9178 10
    endloop
  endfacet
  facet normal 0 0 1
    outer loop
      vertex 253.809 14.8391 10
      vertex 253.809 -14.8391 10
      vertex 254.432 -14.9178 10
    endloop
  endfacet
  facet normal -0 0 1
    outer loop
      vertex 253.189 14.7343 10
      vertex 253.809 -14.8391 10
      vertex 253.809 14.8391 10
    endloop
  endfacet
  facet normal 0 0 1
    outer loop
      vertex 253.189 14.7343 10
      vertex 253.189 -14.7343 10
      vertex 253.809 -14.8391 10
    endloop
  endfacet
  facet normal -0 0 1
    outer loop
      vertex 252.575 14.6037 10
      vertex 253.189 -14.7343 10
      vertex 253.189 14.7343 10
    endloop
  endfacet
  facet normal 0 0 1
    outer loop
      vertex 252.575 14.6037 10
      vertex 252.575 -14.6037 10
      vertex 253.189 -14.7343 10
    endloop
  endfacet
  facet normal -0 0 1
    outer loop
      vertex 251.966 14.4474 10
      vertex 252.575 -14.6037 10
      vertex 252.575 14.6037 10
    endloop
  endfacet
  facet normal 0 0 1
    outer loop
      vertex 251.966 14.4474 10
      vertex 251.966 -14.4474 10
      vertex 252.575 -14.6037 10
    endloop
  endfacet
  facet normal -0 0 1
    outer loop
      vertex 251.365 14.2658 10
      vertex 251.966 -14.4474 10
      vertex 251.966 14.4474 10
    endloop
  endfacet
  facet normal 0 0 1
    outer loop
      vertex 251.365 14.2658 10
      vertex 251.365 -14.2658 10
      vertex 251.966 -14.4474 10
    endloop
  endfacet
  facet normal -0 0 1
    outer loop
      vertex 250.771 14.0592 10
      vertex 251.365 -14.2658 10
      vertex 251.365 14.2658 10
    endloop
  endfacet
  facet normal 0 0 1
    outer loop
      vertex 250.771 14.0592 10
      vertex 250.771 -14.0592 10
      vertex 251.365 -14.2658 10
    endloop
  endfacet
  facet normal -0 0 1
    outer loop
      vertex 250.187 13.8279 10
      vertex 250.771 -14.0592 10
      vertex 250.771 14.0592 10
    endloop
  endfacet
  facet normal 0 0 1
    outer loop
      vertex 250.187 13.8279 10
      vertex 250.187 -13.8279 10
      vertex 250.771 -14.0592 10
    endloop
  endfacet
  facet normal -0 0 1
    outer loop
      vertex 249.613 13.5724 10
      vertex 250.187 -13.8279 10
      vertex 250.187 13.8279 10
    endloop
  endfacet
  facet normal 0 0 1
    outer loop
      vertex 249.613 13.5724 10
      vertex 249.613 -13.5724 10
      vertex 250.187 -13.8279 10
    endloop
  endfacet
  facet normal -0 0 1
    outer loop
      vertex 249.051 13.2931 10
      vertex 249.613 -13.5724 10
      vertex 249.613 13.5724 10
    endloop
  endfacet
  facet normal 0 0 1
    outer loop
      vertex 249.051 13.2931 10
      vertex 249.051 -13.2931 10
      vertex 249.613 -13.5724 10
    endloop
  endfacet
  facet normal -0 0 1
    outer loop
      vertex 248.5 12.9904 10
      vertex 249.051 -13.2931 10
      vertex 249.051 13.2931 10
    endloop
  endfacet
  facet normal 0 0 1
    outer loop
      vertex 248.5 12.9904 10
      vertex 248.5 -12.9904 10
      vertex 249.051 -13.2931 10
    endloop
  endfacet
  facet normal -0 0 1
    outer loop
      vertex 247.963 12.6649 10
      vertex 248.5 -12.9904 10
      vertex 248.5 12.9904 10
    endloop
  endfacet
  facet normal 0 0 1
    outer loop
      vertex 247.963 12.6649 10
      vertex 247.963 -12.6649 10
      vertex 248.5 -12.9904 10
    endloop
  endfacet
  facet normal -0 0 1
    outer loop
      vertex 247.439 12.3172 10
      vertex 247.963 -12.6649 10
      vertex 247.963 12.6649 10
    endloop
  endfacet
  facet normal 0 0 1
    outer loop
      vertex 247.439 12.3172 10
      vertex 247.439 -12.3172 10
      vertex 247.963 -12.6649 10
    endloop
  endfacet
  facet normal -0 0 1
    outer loop
      vertex 246.931 11.9479 10
      vertex 247.439 -12.3172 10
      vertex 247.439 12.3172 10
    endloop
  endfacet
  facet normal 0 0 1
    outer loop
      vertex 246.931 11.9479 10
      vertex 246.931 -11.9479 10
      vertex 247.439 -12.3172 10
    endloop
  endfacet
  facet normal -0 0 1
    outer loop
      vertex 246.439 11.5577 10
      vertex 246.931 -11.9479 10
      vertex 246.931 11.9479 10
    endloop
  endfacet
  facet normal 0 0 1
    outer loop
      vertex 246.439 11.5577 10
      vertex 246.439 -11.5577 10
      vertex 246.931 -11.9479 10
    endloop
  endfacet
  facet normal -0 0 1
    outer loop
      vertex 245.963 11.1472 10
      vertex 246.439 -11.5577 10
      vertex 246.439 11.5577 10
    endloop
  endfacet
  facet normal 0 0 1
    outer loop
      vertex 245.963 11.1472 10
      vertex 245.963 -11.1472 10
      vertex 246.439 -11.5577 10
    endloop
  endfacet
  facet normal -0 0 1
    outer loop
      vertex 245.505 10.7171 10
      vertex 245.963 -11.1472 10
      vertex 245.963 11.1472 10
    endloop
  endfacet
  facet normal 0 0 1
    outer loop
      vertex 245.505 10.7171 10
      vertex 245.505 -10.7171 10
      vertex 245.963 -11.1472 10
    endloop
  endfacet
  facet normal -0 0 1
    outer loop
      vertex 245.065 10.2682 10
      vertex 245.505 -10.7171 10
      vertex 245.505 10.7171 10
    endloop
  endfacet
  facet normal 0 0 1
    outer loop
      vertex 245.065 10.2682 10
      vertex 245.065 -10.2682 10
      vertex 245.505 -10.7171 10
    endloop
  endfacet
  facet normal -0 0 1
    outer loop
      vertex 244.645 9.80131 10
      vertex 245.065 -10.2682 10
      vertex 245.065 10.2682 10
    endloop
  endfacet
  facet normal 0 0 1
    outer loop
      vertex 244.645 9.80131 10
      vertex 244.645 -9.80131 10
      vertex 245.065 -10.2682 10
    endloop
  endfacet
  facet normal -0 0 1
    outer loop
      vertex 244.245 9.31722 10
      vertex 244.645 -9.80131 10
      vertex 244.645 9.80131 10
    endloop
  endfacet
  facet normal 0 0 1
    outer loop
      vertex 244.245 9.31722 10
      vertex 244.245 -9.31722 10
      vertex 244.645 -9.80131 10
    endloop
  endfacet
  facet normal -0 0 1
    outer loop
      vertex 243.865 8.81678 10
      vertex 244.245 -9.31722 10
      vertex 244.245 9.31722 10
    endloop
  endfacet
  facet normal 0 0 1
    outer loop
      vertex 243.865 8.81678 10
      vertex 243.865 -8.81678 10
      vertex 244.245 -9.31722 10
    endloop
  endfacet
  facet normal -0 0 1
    outer loop
      vertex 243.506 8.30087 10
      vertex 243.865 -8.81678 10
      vertex 243.865 8.81678 10
    endloop
  endfacet
  facet normal 0 0 1
    outer loop
      vertex 243.506 8.30087 10
      vertex 243.506 -8.30087 10
      vertex 243.865 -8.81678 10
    endloop
  endfacet
  facet normal -0 0 1
    outer loop
      vertex 243.17 7.77041 10
      vertex 243.506 -8.30087 10
      vertex 243.506 8.30087 10
    endloop
  endfacet
  facet normal 0 0 1
    outer loop
      vertex 243.17 7.77041 10
      vertex 243.17 -7.77041 10
      vertex 243.506 -8.30087 10
    endloop
  endfacet
  facet normal -0 0 1
    outer loop
      vertex 242.855 7.22631 10
      vertex 243.17 -7.77041 10
      vertex 243.17 7.77041 10
    endloop
  endfacet
  facet normal 0 0 1
    outer loop
      vertex 242.855 7.22631 10
      vertex 242.855 -7.22631 10
      vertex 243.17 -7.77041 10
    endloop
  endfacet
  facet normal -0 0 1
    outer loop
      vertex 242.564 6.66953 10
      vertex 242.855 -7.22631 10
      vertex 242.855 7.22631 10
    endloop
  endfacet
  facet normal 0 0 1
    outer loop
      vertex 242.564 6.66953 10
      vertex 242.564 -6.66953 10
      vertex 242.855 -7.22631 10
    endloop
  endfacet
  facet normal -0 0 1
    outer loop
      vertex 242.297 6.10105 10
      vertex 242.564 -6.66953 10
      vertex 242.564 6.66953 10
    endloop
  endfacet
  facet normal 0 0 1
    outer loop
      vertex 242.297 6.10105 10
      vertex 242.297 -6.10105 10
      vertex 242.564 -6.66953 10
    endloop
  endfacet
  facet normal -0 0 1
    outer loop
      vertex 242.053 5.52187 10
      vertex 242.297 -6.10105 10
      vertex 242.297 6.10105 10
    endloop
  endfacet
  facet normal 0 0 1
    outer loop
      vertex 242.053 5.52187 10
      vertex 242.053 -5.52187 10
      vertex 242.297 -6.10105 10
    endloop
  endfacet
  facet normal -0 0 1
    outer loop
      vertex 241.834 4.933 10
      vertex 242.053 -5.52187 10
      vertex 242.053 5.52187 10
    endloop
  endfacet
  facet normal 0 0 1
    outer loop
      vertex 241.834 4.933 10
      vertex 241.834 -4.933 10
      vertex 242.053 -5.52187 10
    endloop
  endfacet
  facet normal -0 0 1
    outer loop
      vertex 241.64 4.33548 10
      vertex 241.834 -4.933 10
      vertex 241.834 4.933 10
    endloop
  endfacet
  facet normal 0 0 1
    outer loop
      vertex 241.64 4.33548 10
      vertex 241.64 -4.33548 10
      vertex 241.834 -4.933 10
    endloop
  endfacet
  facet normal -0 0 1
    outer loop
      vertex 241.471 3.73035 10
      vertex 241.64 -4.33548 10
      vertex 241.64 4.33548 10
    endloop
  endfacet
  facet normal 0 0 1
    outer loop
      vertex 241.471 3.73035 10
      vertex 241.471 -3.73035 10
      vertex 241.64 -4.33548 10
    endloop
  endfacet
  facet normal -0 0 1
    outer loop
      vertex 241.328 3.11868 10
      vertex 241.471 -3.73035 10
      vertex 241.471 3.73035 10
    endloop
  endfacet
  facet normal 0 0 1
    outer loop
      vertex 241.328 3.11868 10
      vertex 241.328 -3.11868 10
      vertex 241.471 -3.73035 10
    endloop
  endfacet
  facet normal -0 0 1
    outer loop
      vertex 241.21 2.50153 10
      vertex 241.328 -3.11868 10
      vertex 241.328 3.11868 10
    endloop
  endfacet
  facet normal 0 0 1
    outer loop
      vertex 241.21 2.50153 10
      vertex 241.21 -2.50153 10
      vertex 241.328 -3.11868 10
    endloop
  endfacet
  facet normal -0 0 1
    outer loop
      vertex 241.118 1.88 10
      vertex 241.21 -2.50153 10
      vertex 241.21 2.50153 10
    endloop
  endfacet
  facet normal 0 0 1
    outer loop
      vertex 241.118 1.88 10
      vertex 241.118 -1.88 10
      vertex 241.21 -2.50153 10
    endloop
  endfacet
  facet normal -0 0 1
    outer loop
      vertex 241.053 1.25517 10
      vertex 241.118 -1.88 10
      vertex 241.118 1.88 10
    endloop
  endfacet
  facet normal 0 0 1
    outer loop
      vertex 241.053 1.25517 10
      vertex 241.053 -1.25517 10
      vertex 241.118 -1.88 10
    endloop
  endfacet
  facet normal -0 0 1
    outer loop
      vertex 241.013 0.628135 10
      vertex 241.053 -1.25517 10
      vertex 241.053 1.25517 10
    endloop
  endfacet
  facet normal 0 0 1
    outer loop
      vertex 241.013 0.628135 10
      vertex 241.013 -0.628135 10
      vertex 241.053 -1.25517 10
    endloop
  endfacet
  facet normal 0 -0 1
    outer loop
      vertex 241.013 -0.628135 10
      vertex 241.013 0.628135 10
      vertex 241 0 10
    endloop
  endfacet
endsolid OpenSCAD_Model
