solid OpenSCAD_Model
  facet normal 0.999786 0.0206929 0
    outer loop
      vertex 287 31 10
      vertex 286.987 31.6281 -10
      vertex 286.987 31.6281 10
    endloop
  endfacet
  facet normal 0.999786 0.0206929 0
    outer loop
      vertex 286.987 31.6281 -10
      vertex 287 31 10
      vertex 287 31 -10
    endloop
  endfacet
  facet normal 0.997972 0.0636563 0
    outer loop
      vertex 286.987 31.6281 10
      vertex 286.947 32.2552 -10
      vertex 286.947 32.2552 10
    endloop
  endfacet
  facet normal 0.997972 0.0636563 0
    outer loop
      vertex 286.947 32.2552 -10
      vertex 286.987 31.6281 10
      vertex 286.987 31.6281 -10
    endloop
  endfacet
  facet normal 0.994632 0.103475 0
    outer loop
      vertex 286.947 32.2552 10
      vertex 286.882 32.88 -10
      vertex 286.882 32.88 10
    endloop
  endfacet
  facet normal 0.994632 0.103475 0
    outer loop
      vertex 286.882 32.88 -10
      vertex 286.947 32.2552 10
      vertex 286.947 32.2552 -10
    endloop
  endfacet
  facet normal 0.989221 0.146433 0
    outer loop
      vertex 286.882 32.88 10
      vertex 286.79 33.5015 -10
      vertex 286.79 33.5015 10
    endloop
  endfacet
  facet normal 0.989221 0.146433 0
    outer loop
      vertex 286.79 33.5015 -10
      vertex 286.882 32.88 10
      vertex 286.882 32.88 -10
    endloop
  endfacet
  facet normal 0.98221 0.187785 0
    outer loop
      vertex 286.79 33.5015 10
      vertex 286.672 34.1187 -10
      vertex 286.672 34.1187 10
    endloop
  endfacet
  facet normal 0.98221 0.187785 0
    outer loop
      vertex 286.672 34.1187 -10
      vertex 286.79 33.5015 10
      vertex 286.79 33.5015 -10
    endloop
  endfacet
  facet normal 0.973738 0.227672 0
    outer loop
      vertex 286.672 34.1187 10
      vertex 286.529 34.7303 -10
      vertex 286.529 34.7303 10
    endloop
  endfacet
  facet normal 0.973738 0.227672 0
    outer loop
      vertex 286.529 34.7303 -10
      vertex 286.672 34.1187 10
      vertex 286.672 34.1187 -10
    endloop
  endfacet
  facet normal 0.963152 0.268957 0
    outer loop
      vertex 286.529 34.7303 10
      vertex 286.36 35.3355 -10
      vertex 286.36 35.3355 10
    endloop
  endfacet
  facet normal 0.963152 0.268957 0
    outer loop
      vertex 286.36 35.3355 -10
      vertex 286.529 34.7303 10
      vertex 286.529 34.7303 -10
    endloop
  endfacet
  facet normal 0.951122 0.308816 0
    outer loop
      vertex 286.36 35.3355 10
      vertex 286.166 35.933 -10
      vertex 286.166 35.933 10
    endloop
  endfacet
  facet normal 0.951122 0.308816 0
    outer loop
      vertex 286.166 35.933 -10
      vertex 286.36 35.3355 10
      vertex 286.36 35.3355 -10
    endloop
  endfacet
  facet normal 0.937287 0.348558 0
    outer loop
      vertex 286.166 35.933 10
      vertex 285.947 36.5219 -10
      vertex 285.947 36.5219 10
    endloop
  endfacet
  facet normal 0.937287 0.348558 0
    outer loop
      vertex 285.947 36.5219 -10
      vertex 286.166 35.933 10
      vertex 286.166 35.933 -10
    endloop
  endfacet
  facet normal 0.921563 0.388228 0
    outer loop
      vertex 285.947 36.5219 10
      vertex 285.703 37.1011 -10
      vertex 285.703 37.1011 10
    endloop
  endfacet
  facet normal 0.921563 0.388228 0
    outer loop
      vertex 285.703 37.1011 -10
      vertex 285.947 36.5219 10
      vertex 285.947 36.5219 -10
    endloop
  endfacet
  facet normal 0.905114 0.425168 0
    outer loop
      vertex 285.703 37.1011 10
      vertex 285.436 37.6695 -10
      vertex 285.436 37.6695 10
    endloop
  endfacet
  facet normal 0.905114 0.425168 0
    outer loop
      vertex 285.436 37.6695 -10
      vertex 285.703 37.1011 10
      vertex 285.703 37.1011 -10
    endloop
  endfacet
  facet normal 0.886261 0.463186 0
    outer loop
      vertex 285.436 37.6695 10
      vertex 285.145 38.2263 -10
      vertex 285.145 38.2263 10
    endloop
  endfacet
  facet normal 0.886261 0.463186 0
    outer loop
      vertex 285.145 38.2263 -10
      vertex 285.436 37.6695 10
      vertex 285.436 37.6695 -10
    endloop
  endfacet
  facet normal 0.86543 0.50103 0
    outer loop
      vertex 285.145 38.2263 10
      vertex 284.83 38.7704 -10
      vertex 284.83 38.7704 10
    endloop
  endfacet
  facet normal 0.86543 0.50103 0
    outer loop
      vertex 284.83 38.7704 -10
      vertex 285.145 38.2263 10
      vertex 285.145 38.2263 -10
    endloop
  endfacet
  facet normal 0.844807 0.535071 0
    outer loop
      vertex 284.83 38.7704 10
      vertex 284.494 39.3009 -10
      vertex 284.494 39.3009 10
    endloop
  endfacet
  facet normal 0.844807 0.535071 0
    outer loop
      vertex 284.494 39.3009 -10
      vertex 284.83 38.7704 10
      vertex 284.83 38.7704 -10
    endloop
  endfacet
  facet normal 0.820821 0.571186 0
    outer loop
      vertex 284.494 39.3009 10
      vertex 284.135 39.8168 -10
      vertex 284.135 39.8168 10
    endloop
  endfacet
  facet normal 0.820821 0.571186 0
    outer loop
      vertex 284.135 39.8168 -10
      vertex 284.494 39.3009 10
      vertex 284.494 39.3009 -10
    endloop
  endfacet
  facet normal 0.796395 0.604777 0
    outer loop
      vertex 284.135 39.8168 10
      vertex 283.755 40.3172 -10
      vertex 283.755 40.3172 10
    endloop
  endfacet
  facet normal 0.796395 0.604777 0
    outer loop
      vertex 283.755 40.3172 -10
      vertex 284.135 39.8168 10
      vertex 284.135 39.8168 -10
    endloop
  endfacet
  facet normal 0.77089 0.636968 0
    outer loop
      vertex 283.755 40.3172 10
      vertex 283.355 40.8013 -10
      vertex 283.355 40.8013 10
    endloop
  endfacet
  facet normal 0.77089 0.636968 0
    outer loop
      vertex 283.355 40.8013 -10
      vertex 283.755 40.3172 10
      vertex 283.755 40.3172 -10
    endloop
  endfacet
  facet normal 0.74346 0.66878 0
    outer loop
      vertex 283.355 40.8013 10
      vertex 282.935 41.2682 -10
      vertex 282.935 41.2682 10
    endloop
  endfacet
  facet normal 0.74346 0.66878 0
    outer loop
      vertex 282.935 41.2682 -10
      vertex 283.355 40.8013 10
      vertex 283.355 40.8013 -10
    endloop
  endfacet
  facet normal 0.714151 0.699992 0
    outer loop
      vertex 282.935 41.2682 10
      vertex 282.495 41.7171 -10
      vertex 282.495 41.7171 10
    endloop
  endfacet
  facet normal 0.714151 0.699992 0
    outer loop
      vertex 282.495 41.7171 -10
      vertex 282.935 41.2682 10
      vertex 282.935 41.2682 -10
    endloop
  endfacet
  facet normal 0.684555 0.728961 -0
    outer loop
      vertex 282.495 41.7171 -10
      vertex 282.037 42.1472 10
      vertex 282.495 41.7171 10
    endloop
  endfacet
  facet normal 0.684555 0.728961 0
    outer loop
      vertex 282.037 42.1472 10
      vertex 282.495 41.7171 -10
      vertex 282.037 42.1472 -10
    endloop
  endfacet
  facet normal 0.653081 0.757288 -0
    outer loop
      vertex 282.037 42.1472 -10
      vertex 281.561 42.5577 10
      vertex 282.037 42.1472 10
    endloop
  endfacet
  facet normal 0.653081 0.757288 0
    outer loop
      vertex 281.561 42.5577 10
      vertex 282.037 42.1472 -10
      vertex 281.561 42.5577 -10
    endloop
  endfacet
  facet normal 0.621388 0.783503 -0
    outer loop
      vertex 281.561 42.5577 -10
      vertex 281.069 42.9479 10
      vertex 281.561 42.5577 10
    endloop
  endfacet
  facet normal 0.621388 0.783503 0
    outer loop
      vertex 281.069 42.9479 10
      vertex 281.561 42.5577 -10
      vertex 281.069 42.9479 -10
    endloop
  endfacet
  facet normal 0.588011 0.808853 -0
    outer loop
      vertex 281.069 42.9479 -10
      vertex 280.561 43.3172 10
      vertex 281.069 42.9479 10
    endloop
  endfacet
  facet normal 0.588011 0.808853 0
    outer loop
      vertex 280.561 43.3172 10
      vertex 281.069 42.9479 -10
      vertex 280.561 43.3172 -10
    endloop
  endfacet
  facet normal 0.552901 0.833247 -0
    outer loop
      vertex 280.561 43.3172 -10
      vertex 280.037 43.6649 10
      vertex 280.561 43.3172 10
    endloop
  endfacet
  facet normal 0.552901 0.833247 0
    outer loop
      vertex 280.037 43.6649 10
      vertex 280.561 43.3172 -10
      vertex 280.037 43.6649 -10
    endloop
  endfacet
  facet normal 0.518355 0.855166 -0
    outer loop
      vertex 280.037 43.6649 -10
      vertex 279.5 43.9904 10
      vertex 280.037 43.6649 10
    endloop
  endfacet
  facet normal 0.518355 0.855166 0
    outer loop
      vertex 279.5 43.9904 10
      vertex 280.037 43.6649 -10
      vertex 279.5 43.9904 -10
    endloop
  endfacet
  facet normal 0.481491 0.876451 -0
    outer loop
      vertex 279.5 43.9904 -10
      vertex 278.949 44.2931 10
      vertex 279.5 43.9904 10
    endloop
  endfacet
  facet normal 0.481491 0.876451 0
    outer loop
      vertex 278.949 44.2931 10
      vertex 279.5 43.9904 -10
      vertex 278.949 44.2931 -10
    endloop
  endfacet
  facet normal 0.445045 0.895508 -0
    outer loop
      vertex 278.949 44.2931 -10
      vertex 278.387 44.5724 10
      vertex 278.949 44.2931 10
    endloop
  endfacet
  facet normal 0.445045 0.895508 0
    outer loop
      vertex 278.387 44.5724 10
      vertex 278.949 44.2931 -10
      vertex 278.387 44.5724 -10
    endloop
  endfacet
  facet normal 0.406655 0.913582 -0
    outer loop
      vertex 278.387 44.5724 -10
      vertex 277.813 44.8279 10
      vertex 278.387 44.5724 10
    endloop
  endfacet
  facet normal 0.406655 0.913582 0
    outer loop
      vertex 277.813 44.8279 10
      vertex 278.387 44.5724 -10
      vertex 277.813 44.8279 -10
    endloop
  endfacet
  facet normal 0.368232 0.929734 -0
    outer loop
      vertex 277.813 44.8279 -10
      vertex 277.229 45.0592 10
      vertex 277.813 44.8279 10
    endloop
  endfacet
  facet normal 0.368232 0.929734 0
    outer loop
      vertex 277.229 45.0592 10
      vertex 277.813 44.8279 -10
      vertex 277.229 45.0592 -10
    endloop
  endfacet
  facet normal 0.328508 0.944501 -0
    outer loop
      vertex 277.229 45.0592 -10
      vertex 276.635 45.2658 10
      vertex 277.229 45.0592 10
    endloop
  endfacet
  facet normal 0.328508 0.944501 0
    outer loop
      vertex 276.635 45.2658 10
      vertex 277.229 45.0592 -10
      vertex 276.635 45.2658 -10
    endloop
  endfacet
  facet normal 0.289247 0.957255 -0
    outer loop
      vertex 276.635 45.2658 -10
      vertex 276.034 45.4474 10
      vertex 276.635 45.2658 10
    endloop
  endfacet
  facet normal 0.289247 0.957255 0
    outer loop
      vertex 276.034 45.4474 10
      vertex 276.635 45.2658 -10
      vertex 276.034 45.4474 -10
    endloop
  endfacet
  facet normal 0.248593 0.968608 -0
    outer loop
      vertex 276.034 45.4474 -10
      vertex 275.425 45.6037 10
      vertex 276.034 45.4474 10
    endloop
  endfacet
  facet normal 0.248593 0.968608 0
    outer loop
      vertex 275.425 45.6037 10
      vertex 276.034 45.4474 -10
      vertex 275.425 45.6037 -10
    endloop
  endfacet
  facet normal 0.208049 0.978118 -0
    outer loop
      vertex 275.425 45.6037 -10
      vertex 274.811 45.7343 10
      vertex 275.425 45.6037 10
    endloop
  endfacet
  facet normal 0.208049 0.978118 0
    outer loop
      vertex 274.811 45.7343 10
      vertex 275.425 45.6037 -10
      vertex 274.811 45.7343 -10
    endloop
  endfacet
  facet normal 0.166668 0.986013 -0
    outer loop
      vertex 274.811 45.7343 -10
      vertex 274.191 45.8391 10
      vertex 274.811 45.7343 10
    endloop
  endfacet
  facet normal 0.166668 0.986013 0
    outer loop
      vertex 274.191 45.8391 10
      vertex 274.811 45.7343 -10
      vertex 274.191 45.8391 -10
    endloop
  endfacet
  facet normal 0.125328 0.992115 -0
    outer loop
      vertex 274.191 45.8391 -10
      vertex 273.568 45.9178 10
      vertex 274.191 45.8391 10
    endloop
  endfacet
  facet normal 0.125328 0.992115 0
    outer loop
      vertex 273.568 45.9178 10
      vertex 274.191 45.8391 -10
      vertex 273.568 45.9178 -10
    endloop
  endfacet
  facet normal 0.0837305 0.996488 -0
    outer loop
      vertex 273.568 45.9178 -10
      vertex 272.942 45.9704 10
      vertex 273.568 45.9178 10
    endloop
  endfacet
  facet normal 0.0837305 0.996488 0
    outer loop
      vertex 272.942 45.9704 10
      vertex 273.568 45.9178 -10
      vertex 272.942 45.9704 -10
    endloop
  endfacet
  facet normal 0.0418423 0.999124 -0
    outer loop
      vertex 272.942 45.9704 -10
      vertex 272.314 45.9967 10
      vertex 272.942 45.9704 10
    endloop
  endfacet
  facet normal 0.0418423 0.999124 0
    outer loop
      vertex 272.314 45.9967 10
      vertex 272.942 45.9704 -10
      vertex 272.314 45.9967 -10
    endloop
  endfacet
  facet normal 0 1 -0
    outer loop
      vertex 272.314 45.9967 -10
      vertex 271.686 45.9967 10
      vertex 272.314 45.9967 10
    endloop
  endfacet
  facet normal 0 1 0
    outer loop
      vertex 271.686 45.9967 10
      vertex 272.314 45.9967 -10
      vertex 271.686 45.9967 -10
    endloop
  endfacet
  facet normal -0.0418423 0.999124 0
    outer loop
      vertex 271.686 45.9967 -10
      vertex 271.058 45.9704 10
      vertex 271.686 45.9967 10
    endloop
  endfacet
  facet normal -0.0418423 0.999124 0
    outer loop
      vertex 271.058 45.9704 10
      vertex 271.686 45.9967 -10
      vertex 271.058 45.9704 -10
    endloop
  endfacet
  facet normal -0.0837305 0.996488 0
    outer loop
      vertex 271.058 45.9704 -10
      vertex 270.432 45.9178 10
      vertex 271.058 45.9704 10
    endloop
  endfacet
  facet normal -0.0837305 0.996488 0
    outer loop
      vertex 270.432 45.9178 10
      vertex 271.058 45.9704 -10
      vertex 270.432 45.9178 -10
    endloop
  endfacet
  facet normal -0.125328 0.992115 0
    outer loop
      vertex 270.432 45.9178 -10
      vertex 269.809 45.8391 10
      vertex 270.432 45.9178 10
    endloop
  endfacet
  facet normal -0.125328 0.992115 0
    outer loop
      vertex 269.809 45.8391 10
      vertex 270.432 45.9178 -10
      vertex 269.809 45.8391 -10
    endloop
  endfacet
  facet normal -0.166668 0.986013 0
    outer loop
      vertex 269.809 45.8391 -10
      vertex 269.189 45.7343 10
      vertex 269.809 45.8391 10
    endloop
  endfacet
  facet normal -0.166668 0.986013 0
    outer loop
      vertex 269.189 45.7343 10
      vertex 269.809 45.8391 -10
      vertex 269.189 45.7343 -10
    endloop
  endfacet
  facet normal -0.208049 0.978118 0
    outer loop
      vertex 269.189 45.7343 -10
      vertex 268.575 45.6037 10
      vertex 269.189 45.7343 10
    endloop
  endfacet
  facet normal -0.208049 0.978118 0
    outer loop
      vertex 268.575 45.6037 10
      vertex 269.189 45.7343 -10
      vertex 268.575 45.6037 -10
    endloop
  endfacet
  facet normal -0.248593 0.968608 0
    outer loop
      vertex 268.575 45.6037 -10
      vertex 267.966 45.4474 10
      vertex 268.575 45.6037 10
    endloop
  endfacet
  facet normal -0.248593 0.968608 0
    outer loop
      vertex 267.966 45.4474 10
      vertex 268.575 45.6037 -10
      vertex 267.966 45.4474 -10
    endloop
  endfacet
  facet normal -0.289247 0.957255 0
    outer loop
      vertex 267.966 45.4474 -10
      vertex 267.365 45.2658 10
      vertex 267.966 45.4474 10
    endloop
  endfacet
  facet normal -0.289247 0.957255 0
    outer loop
      vertex 267.365 45.2658 10
      vertex 267.966 45.4474 -10
      vertex 267.365 45.2658 -10
    endloop
  endfacet
  facet normal -0.328508 0.944501 0
    outer loop
      vertex 267.365 45.2658 -10
      vertex 266.771 45.0592 10
      vertex 267.365 45.2658 10
    endloop
  endfacet
  facet normal -0.328508 0.944501 0
    outer loop
      vertex 266.771 45.0592 10
      vertex 267.365 45.2658 -10
      vertex 266.771 45.0592 -10
    endloop
  endfacet
  facet normal -0.368232 0.929734 0
    outer loop
      vertex 266.771 45.0592 -10
      vertex 266.187 44.8279 10
      vertex 266.771 45.0592 10
    endloop
  endfacet
  facet normal -0.368232 0.929734 0
    outer loop
      vertex 266.187 44.8279 10
      vertex 266.771 45.0592 -10
      vertex 266.187 44.8279 -10
    endloop
  endfacet
  facet normal -0.406655 0.913582 0
    outer loop
      vertex 266.187 44.8279 -10
      vertex 265.613 44.5724 10
      vertex 266.187 44.8279 10
    endloop
  endfacet
  facet normal -0.406655 0.913582 0
    outer loop
      vertex 265.613 44.5724 10
      vertex 266.187 44.8279 -10
      vertex 265.613 44.5724 -10
    endloop
  endfacet
  facet normal -0.445045 0.895508 0
    outer loop
      vertex 265.613 44.5724 -10
      vertex 265.051 44.2931 10
      vertex 265.613 44.5724 10
    endloop
  endfacet
  facet normal -0.445045 0.895508 0
    outer loop
      vertex 265.051 44.2931 10
      vertex 265.613 44.5724 -10
      vertex 265.051 44.2931 -10
    endloop
  endfacet
  facet normal -0.481491 0.876451 0
    outer loop
      vertex 265.051 44.2931 -10
      vertex 264.5 43.9904 10
      vertex 265.051 44.2931 10
    endloop
  endfacet
  facet normal -0.481491 0.876451 0
    outer loop
      vertex 264.5 43.9904 10
      vertex 265.051 44.2931 -10
      vertex 264.5 43.9904 -10
    endloop
  endfacet
  facet normal -0.518355 0.855166 0
    outer loop
      vertex 264.5 43.9904 -10
      vertex 263.963 43.6649 10
      vertex 264.5 43.9904 10
    endloop
  endfacet
  facet normal -0.518355 0.855166 0
    outer loop
      vertex 263.963 43.6649 10
      vertex 264.5 43.9904 -10
      vertex 263.963 43.6649 -10
    endloop
  endfacet
  facet normal -0.552901 0.833247 0
    outer loop
      vertex 263.963 43.6649 -10
      vertex 263.439 43.3172 10
      vertex 263.963 43.6649 10
    endloop
  endfacet
  facet normal -0.552901 0.833247 0
    outer loop
      vertex 263.439 43.3172 10
      vertex 263.963 43.6649 -10
      vertex 263.439 43.3172 -10
    endloop
  endfacet
  facet normal -0.588011 0.808853 0
    outer loop
      vertex 263.439 43.3172 -10
      vertex 262.931 42.9479 10
      vertex 263.439 43.3172 10
    endloop
  endfacet
  facet normal -0.588011 0.808853 0
    outer loop
      vertex 262.931 42.9479 10
      vertex 263.439 43.3172 -10
      vertex 262.931 42.9479 -10
    endloop
  endfacet
  facet normal -0.621388 0.783503 0
    outer loop
      vertex 262.931 42.9479 -10
      vertex 262.439 42.5577 10
      vertex 262.931 42.9479 10
    endloop
  endfacet
  facet normal -0.621388 0.783503 0
    outer loop
      vertex 262.439 42.5577 10
      vertex 262.931 42.9479 -10
      vertex 262.439 42.5577 -10
    endloop
  endfacet
  facet normal -0.653081 0.757288 0
    outer loop
      vertex 262.439 42.5577 -10
      vertex 261.963 42.1472 10
      vertex 262.439 42.5577 10
    endloop
  endfacet
  facet normal -0.653081 0.757288 0
    outer loop
      vertex 261.963 42.1472 10
      vertex 262.439 42.5577 -10
      vertex 261.963 42.1472 -10
    endloop
  endfacet
  facet normal -0.684555 0.728961 0
    outer loop
      vertex 261.963 42.1472 -10
      vertex 261.505 41.7171 10
      vertex 261.963 42.1472 10
    endloop
  endfacet
  facet normal -0.684555 0.728961 0
    outer loop
      vertex 261.505 41.7171 10
      vertex 261.963 42.1472 -10
      vertex 261.505 41.7171 -10
    endloop
  endfacet
  facet normal -0.714151 0.699992 0
    outer loop
      vertex 261.065 41.2682 -10
      vertex 261.505 41.7171 10
      vertex 261.505 41.7171 -10
    endloop
  endfacet
  facet normal -0.714151 0.699992 0
    outer loop
      vertex 261.505 41.7171 10
      vertex 261.065 41.2682 -10
      vertex 261.065 41.2682 10
    endloop
  endfacet
  facet normal -0.74346 0.66878 0
    outer loop
      vertex 260.645 40.8013 -10
      vertex 261.065 41.2682 10
      vertex 261.065 41.2682 -10
    endloop
  endfacet
  facet normal -0.74346 0.66878 0
    outer loop
      vertex 261.065 41.2682 10
      vertex 260.645 40.8013 -10
      vertex 260.645 40.8013 10
    endloop
  endfacet
  facet normal -0.77089 0.636968 0
    outer loop
      vertex 260.245 40.3172 -10
      vertex 260.645 40.8013 10
      vertex 260.645 40.8013 -10
    endloop
  endfacet
  facet normal -0.77089 0.636968 0
    outer loop
      vertex 260.645 40.8013 10
      vertex 260.245 40.3172 -10
      vertex 260.245 40.3172 10
    endloop
  endfacet
  facet normal -0.796395 0.604777 0
    outer loop
      vertex 259.865 39.8168 -10
      vertex 260.245 40.3172 10
      vertex 260.245 40.3172 -10
    endloop
  endfacet
  facet normal -0.796395 0.604777 0
    outer loop
      vertex 260.245 40.3172 10
      vertex 259.865 39.8168 -10
      vertex 259.865 39.8168 10
    endloop
  endfacet
  facet normal -0.820821 0.571186 0
    outer loop
      vertex 259.506 39.3009 -10
      vertex 259.865 39.8168 10
      vertex 259.865 39.8168 -10
    endloop
  endfacet
  facet normal -0.820821 0.571186 0
    outer loop
      vertex 259.865 39.8168 10
      vertex 259.506 39.3009 -10
      vertex 259.506 39.3009 10
    endloop
  endfacet
  facet normal -0.844807 0.535071 0
    outer loop
      vertex 259.17 38.7704 -10
      vertex 259.506 39.3009 10
      vertex 259.506 39.3009 -10
    endloop
  endfacet
  facet normal -0.844807 0.535071 0
    outer loop
      vertex 259.506 39.3009 10
      vertex 259.17 38.7704 -10
      vertex 259.17 38.7704 10
    endloop
  endfacet
  facet normal -0.86543 0.50103 0
    outer loop
      vertex 258.855 38.2263 -10
      vertex 259.17 38.7704 10
      vertex 259.17 38.7704 -10
    endloop
  endfacet
  facet normal -0.86543 0.50103 0
    outer loop
      vertex 259.17 38.7704 10
      vertex 258.855 38.2263 -10
      vertex 258.855 38.2263 10
    endloop
  endfacet
  facet normal -0.886261 0.463186 0
    outer loop
      vertex 258.564 37.6695 -10
      vertex 258.855 38.2263 10
      vertex 258.855 38.2263 -10
    endloop
  endfacet
  facet normal -0.886261 0.463186 0
    outer loop
      vertex 258.855 38.2263 10
      vertex 258.564 37.6695 -10
      vertex 258.564 37.6695 10
    endloop
  endfacet
  facet normal -0.905114 0.425168 0
    outer loop
      vertex 258.297 37.1011 -10
      vertex 258.564 37.6695 10
      vertex 258.564 37.6695 -10
    endloop
  endfacet
  facet normal -0.905114 0.425168 0
    outer loop
      vertex 258.564 37.6695 10
      vertex 258.297 37.1011 -10
      vertex 258.297 37.1011 10
    endloop
  endfacet
  facet normal -0.921563 0.388228 0
    outer loop
      vertex 258.053 36.5219 -10
      vertex 258.297 37.1011 10
      vertex 258.297 37.1011 -10
    endloop
  endfacet
  facet normal -0.921563 0.388228 0
    outer loop
      vertex 258.297 37.1011 10
      vertex 258.053 36.5219 -10
      vertex 258.053 36.5219 10
    endloop
  endfacet
  facet normal -0.937287 0.348558 0
    outer loop
      vertex 257.834 35.933 -10
      vertex 258.053 36.5219 10
      vertex 258.053 36.5219 -10
    endloop
  endfacet
  facet normal -0.937287 0.348558 0
    outer loop
      vertex 258.053 36.5219 10
      vertex 257.834 35.933 -10
      vertex 257.834 35.933 10
    endloop
  endfacet
  facet normal -0.951122 0.308816 0
    outer loop
      vertex 257.64 35.3355 -10
      vertex 257.834 35.933 10
      vertex 257.834 35.933 -10
    endloop
  endfacet
  facet normal -0.951122 0.308816 0
    outer loop
      vertex 257.834 35.933 10
      vertex 257.64 35.3355 -10
      vertex 257.64 35.3355 10
    endloop
  endfacet
  facet normal -0.963152 0.268957 0
    outer loop
      vertex 257.471 34.7303 -10
      vertex 257.64 35.3355 10
      vertex 257.64 35.3355 -10
    endloop
  endfacet
  facet normal -0.963152 0.268957 0
    outer loop
      vertex 257.64 35.3355 10
      vertex 257.471 34.7303 -10
      vertex 257.471 34.7303 10
    endloop
  endfacet
  facet normal -0.973738 0.227672 0
    outer loop
      vertex 257.328 34.1187 -10
      vertex 257.471 34.7303 10
      vertex 257.471 34.7303 -10
    endloop
  endfacet
  facet normal -0.973738 0.227672 0
    outer loop
      vertex 257.471 34.7303 10
      vertex 257.328 34.1187 -10
      vertex 257.328 34.1187 10
    endloop
  endfacet
  facet normal -0.98221 0.187785 0
    outer loop
      vertex 257.21 33.5015 -10
      vertex 257.328 34.1187 10
      vertex 257.328 34.1187 -10
    endloop
  endfacet
  facet normal -0.98221 0.187785 0
    outer loop
      vertex 257.328 34.1187 10
      vertex 257.21 33.5015 -10
      vertex 257.21 33.5015 10
    endloop
  endfacet
  facet normal -0.989221 0.146433 0
    outer loop
      vertex 257.118 32.88 -10
      vertex 257.21 33.5015 10
      vertex 257.21 33.5015 -10
    endloop
  endfacet
  facet normal -0.989221 0.146433 0
    outer loop
      vertex 257.21 33.5015 10
      vertex 257.118 32.88 -10
      vertex 257.118 32.88 10
    endloop
  endfacet
  facet normal -0.994632 0.103475 0
    outer loop
      vertex 257.053 32.2552 -10
      vertex 257.118 32.88 10
      vertex 257.118 32.88 -10
    endloop
  endfacet
  facet normal -0.994632 0.103475 0
    outer loop
      vertex 257.118 32.88 10
      vertex 257.053 32.2552 -10
      vertex 257.053 32.2552 10
    endloop
  endfacet
  facet normal -0.997972 0.0636563 0
    outer loop
      vertex 257.013 31.6281 -10
      vertex 257.053 32.2552 10
      vertex 257.053 32.2552 -10
    endloop
  endfacet
  facet normal -0.997972 0.0636563 0
    outer loop
      vertex 257.053 32.2552 10
      vertex 257.013 31.6281 -10
      vertex 257.013 31.6281 10
    endloop
  endfacet
  facet normal -0.999786 0.0206929 0
    outer loop
      vertex 257 31 -10
      vertex 257.013 31.6281 10
      vertex 257.013 31.6281 -10
    endloop
  endfacet
  facet normal -0.999786 0.0206929 0
    outer loop
      vertex 257.013 31.6281 10
      vertex 257 31 -10
      vertex 257 31 10
    endloop
  endfacet
  facet normal -0.999786 -0.0206929 0
    outer loop
      vertex 257.013 30.3719 -10
      vertex 257 31 10
      vertex 257 31 -10
    endloop
  endfacet
  facet normal -0.999786 -0.0206929 0
    outer loop
      vertex 257 31 10
      vertex 257.013 30.3719 -10
      vertex 257.013 30.3719 10
    endloop
  endfacet
  facet normal -0.997972 -0.0636563 0
    outer loop
      vertex 257.053 29.7448 -10
      vertex 257.013 30.3719 10
      vertex 257.013 30.3719 -10
    endloop
  endfacet
  facet normal -0.997972 -0.0636563 0
    outer loop
      vertex 257.013 30.3719 10
      vertex 257.053 29.7448 -10
      vertex 257.053 29.7448 10
    endloop
  endfacet
  facet normal -0.994632 -0.103475 0
    outer loop
      vertex 257.118 29.12 -10
      vertex 257.053 29.7448 10
      vertex 257.053 29.7448 -10
    endloop
  endfacet
  facet normal -0.994632 -0.103475 0
    outer loop
      vertex 257.053 29.7448 10
      vertex 257.118 29.12 -10
      vertex 257.118 29.12 10
    endloop
  endfacet
  facet normal -0.989221 -0.146433 0
    outer loop
      vertex 257.21 28.4985 -10
      vertex 257.118 29.12 10
      vertex 257.118 29.12 -10
    endloop
  endfacet
  facet normal -0.989221 -0.146433 0
    outer loop
      vertex 257.118 29.12 10
      vertex 257.21 28.4985 -10
      vertex 257.21 28.4985 10
    endloop
  endfacet
  facet normal -0.98221 -0.187785 0
    outer loop
      vertex 257.328 27.8813 -10
      vertex 257.21 28.4985 10
      vertex 257.21 28.4985 -10
    endloop
  endfacet
  facet normal -0.98221 -0.187785 0
    outer loop
      vertex 257.21 28.4985 10
      vertex 257.328 27.8813 -10
      vertex 257.328 27.8813 10
    endloop
  endfacet
  facet normal -0.973738 -0.227672 0
    outer loop
      vertex 257.471 27.2697 -10
      vertex 257.328 27.8813 10
      vertex 257.328 27.8813 -10
    endloop
  endfacet
  facet normal -0.973738 -0.227672 0
    outer loop
      vertex 257.328 27.8813 10
      vertex 257.471 27.2697 -10
      vertex 257.471 27.2697 10
    endloop
  endfacet
  facet normal -0.963152 -0.268957 0
    outer loop
      vertex 257.64 26.6645 -10
      vertex 257.471 27.2697 10
      vertex 257.471 27.2697 -10
    endloop
  endfacet
  facet normal -0.963152 -0.268957 0
    outer loop
      vertex 257.471 27.2697 10
      vertex 257.64 26.6645 -10
      vertex 257.64 26.6645 10
    endloop
  endfacet
  facet normal -0.951122 -0.308816 0
    outer loop
      vertex 257.834 26.067 -10
      vertex 257.64 26.6645 10
      vertex 257.64 26.6645 -10
    endloop
  endfacet
  facet normal -0.951122 -0.308816 0
    outer loop
      vertex 257.64 26.6645 10
      vertex 257.834 26.067 -10
      vertex 257.834 26.067 10
    endloop
  endfacet
  facet normal -0.937287 -0.348558 0
    outer loop
      vertex 258.053 25.4781 -10
      vertex 257.834 26.067 10
      vertex 257.834 26.067 -10
    endloop
  endfacet
  facet normal -0.937287 -0.348558 0
    outer loop
      vertex 257.834 26.067 10
      vertex 258.053 25.4781 -10
      vertex 258.053 25.4781 10
    endloop
  endfacet
  facet normal -0.921539 -0.388285 0
    outer loop
      vertex 258.297 24.899 -10
      vertex 258.053 25.4781 10
      vertex 258.053 25.4781 -10
    endloop
  endfacet
  facet normal -0.921539 -0.388285 0
    outer loop
      vertex 258.053 25.4781 10
      vertex 258.297 24.899 -10
      vertex 258.297 24.899 10
    endloop
  endfacet
  facet normal -0.905143 -0.425107 0
    outer loop
      vertex 258.564 24.3305 -10
      vertex 258.297 24.899 10
      vertex 258.297 24.899 -10
    endloop
  endfacet
  facet normal -0.905143 -0.425107 0
    outer loop
      vertex 258.297 24.899 10
      vertex 258.564 24.3305 -10
      vertex 258.564 24.3305 10
    endloop
  endfacet
  facet normal -0.886261 -0.463186 0
    outer loop
      vertex 258.855 23.7737 -10
      vertex 258.564 24.3305 10
      vertex 258.564 24.3305 -10
    endloop
  endfacet
  facet normal -0.886261 -0.463186 0
    outer loop
      vertex 258.564 24.3305 10
      vertex 258.855 23.7737 -10
      vertex 258.855 23.7737 10
    endloop
  endfacet
  facet normal -0.86543 -0.50103 0
    outer loop
      vertex 259.17 23.2296 -10
      vertex 258.855 23.7737 10
      vertex 258.855 23.7737 -10
    endloop
  endfacet
  facet normal -0.86543 -0.50103 0
    outer loop
      vertex 258.855 23.7737 10
      vertex 259.17 23.2296 -10
      vertex 259.17 23.2296 10
    endloop
  endfacet
  facet normal -0.844807 -0.535071 0
    outer loop
      vertex 259.506 22.6991 -10
      vertex 259.17 23.2296 10
      vertex 259.17 23.2296 -10
    endloop
  endfacet
  facet normal -0.844807 -0.535071 0
    outer loop
      vertex 259.17 23.2296 10
      vertex 259.506 22.6991 -10
      vertex 259.506 22.6991 10
    endloop
  endfacet
  facet normal -0.820821 -0.571186 0
    outer loop
      vertex 259.865 22.1832 -10
      vertex 259.506 22.6991 10
      vertex 259.506 22.6991 -10
    endloop
  endfacet
  facet normal -0.820821 -0.571186 0
    outer loop
      vertex 259.506 22.6991 10
      vertex 259.865 22.1832 -10
      vertex 259.865 22.1832 10
    endloop
  endfacet
  facet normal -0.796395 -0.604777 0
    outer loop
      vertex 260.245 21.6828 -10
      vertex 259.865 22.1832 10
      vertex 259.865 22.1832 -10
    endloop
  endfacet
  facet normal -0.796395 -0.604777 0
    outer loop
      vertex 259.865 22.1832 10
      vertex 260.245 21.6828 -10
      vertex 260.245 21.6828 10
    endloop
  endfacet
  facet normal -0.77089 -0.636968 0
    outer loop
      vertex 260.645 21.1987 -10
      vertex 260.245 21.6828 10
      vertex 260.245 21.6828 -10
    endloop
  endfacet
  facet normal -0.77089 -0.636968 0
    outer loop
      vertex 260.245 21.6828 10
      vertex 260.645 21.1987 -10
      vertex 260.645 21.1987 10
    endloop
  endfacet
  facet normal -0.74346 -0.66878 0
    outer loop
      vertex 261.065 20.7318 -10
      vertex 260.645 21.1987 10
      vertex 260.645 21.1987 -10
    endloop
  endfacet
  facet normal -0.74346 -0.66878 0
    outer loop
      vertex 260.645 21.1987 10
      vertex 261.065 20.7318 -10
      vertex 261.065 20.7318 10
    endloop
  endfacet
  facet normal -0.714151 -0.699992 0
    outer loop
      vertex 261.505 20.2829 -10
      vertex 261.065 20.7318 10
      vertex 261.065 20.7318 -10
    endloop
  endfacet
  facet normal -0.714151 -0.699992 0
    outer loop
      vertex 261.065 20.7318 10
      vertex 261.505 20.2829 -10
      vertex 261.505 20.2829 10
    endloop
  endfacet
  facet normal -0.684555 -0.728961 0
    outer loop
      vertex 261.505 20.2829 -10
      vertex 261.963 19.8528 10
      vertex 261.505 20.2829 10
    endloop
  endfacet
  facet normal -0.684555 -0.728961 -0
    outer loop
      vertex 261.963 19.8528 10
      vertex 261.505 20.2829 -10
      vertex 261.963 19.8528 -10
    endloop
  endfacet
  facet normal -0.653081 -0.757288 0
    outer loop
      vertex 261.963 19.8528 -10
      vertex 262.439 19.4423 10
      vertex 261.963 19.8528 10
    endloop
  endfacet
  facet normal -0.653081 -0.757288 -0
    outer loop
      vertex 262.439 19.4423 10
      vertex 261.963 19.8528 -10
      vertex 262.439 19.4423 -10
    endloop
  endfacet
  facet normal -0.621388 -0.783503 0
    outer loop
      vertex 262.439 19.4423 -10
      vertex 262.931 19.0521 10
      vertex 262.439 19.4423 10
    endloop
  endfacet
  facet normal -0.621388 -0.783503 -0
    outer loop
      vertex 262.931 19.0521 10
      vertex 262.439 19.4423 -10
      vertex 262.931 19.0521 -10
    endloop
  endfacet
  facet normal -0.588011 -0.808853 0
    outer loop
      vertex 262.931 19.0521 -10
      vertex 263.439 18.6828 10
      vertex 262.931 19.0521 10
    endloop
  endfacet
  facet normal -0.588011 -0.808853 -0
    outer loop
      vertex 263.439 18.6828 10
      vertex 262.931 19.0521 -10
      vertex 263.439 18.6828 -10
    endloop
  endfacet
  facet normal -0.552901 -0.833247 0
    outer loop
      vertex 263.439 18.6828 -10
      vertex 263.963 18.3351 10
      vertex 263.439 18.6828 10
    endloop
  endfacet
  facet normal -0.552901 -0.833247 -0
    outer loop
      vertex 263.963 18.3351 10
      vertex 263.439 18.6828 -10
      vertex 263.963 18.3351 -10
    endloop
  endfacet
  facet normal -0.518355 -0.855166 0
    outer loop
      vertex 263.963 18.3351 -10
      vertex 264.5 18.0096 10
      vertex 263.963 18.3351 10
    endloop
  endfacet
  facet normal -0.518355 -0.855166 -0
    outer loop
      vertex 264.5 18.0096 10
      vertex 263.963 18.3351 -10
      vertex 264.5 18.0096 -10
    endloop
  endfacet
  facet normal -0.481491 -0.876451 0
    outer loop
      vertex 264.5 18.0096 -10
      vertex 265.051 17.7069 10
      vertex 264.5 18.0096 10
    endloop
  endfacet
  facet normal -0.481491 -0.876451 -0
    outer loop
      vertex 265.051 17.7069 10
      vertex 264.5 18.0096 -10
      vertex 265.051 17.7069 -10
    endloop
  endfacet
  facet normal -0.445045 -0.895508 0
    outer loop
      vertex 265.051 17.7069 -10
      vertex 265.613 17.4276 10
      vertex 265.051 17.7069 10
    endloop
  endfacet
  facet normal -0.445045 -0.895508 -0
    outer loop
      vertex 265.613 17.4276 10
      vertex 265.051 17.7069 -10
      vertex 265.613 17.4276 -10
    endloop
  endfacet
  facet normal -0.406655 -0.913582 0
    outer loop
      vertex 265.613 17.4276 -10
      vertex 266.187 17.1721 10
      vertex 265.613 17.4276 10
    endloop
  endfacet
  facet normal -0.406655 -0.913582 -0
    outer loop
      vertex 266.187 17.1721 10
      vertex 265.613 17.4276 -10
      vertex 266.187 17.1721 -10
    endloop
  endfacet
  facet normal -0.368232 -0.929734 0
    outer loop
      vertex 266.187 17.1721 -10
      vertex 266.771 16.9408 10
      vertex 266.187 17.1721 10
    endloop
  endfacet
  facet normal -0.368232 -0.929734 -0
    outer loop
      vertex 266.771 16.9408 10
      vertex 266.187 17.1721 -10
      vertex 266.771 16.9408 -10
    endloop
  endfacet
  facet normal -0.328508 -0.944501 0
    outer loop
      vertex 266.771 16.9408 -10
      vertex 267.365 16.7342 10
      vertex 266.771 16.9408 10
    endloop
  endfacet
  facet normal -0.328508 -0.944501 -0
    outer loop
      vertex 267.365 16.7342 10
      vertex 266.771 16.9408 -10
      vertex 267.365 16.7342 -10
    endloop
  endfacet
  facet normal -0.289247 -0.957255 0
    outer loop
      vertex 267.365 16.7342 -10
      vertex 267.966 16.5526 10
      vertex 267.365 16.7342 10
    endloop
  endfacet
  facet normal -0.289247 -0.957255 -0
    outer loop
      vertex 267.966 16.5526 10
      vertex 267.365 16.7342 -10
      vertex 267.966 16.5526 -10
    endloop
  endfacet
  facet normal -0.248593 -0.968608 0
    outer loop
      vertex 267.966 16.5526 -10
      vertex 268.575 16.3963 10
      vertex 267.966 16.5526 10
    endloop
  endfacet
  facet normal -0.248593 -0.968608 -0
    outer loop
      vertex 268.575 16.3963 10
      vertex 267.966 16.5526 -10
      vertex 268.575 16.3963 -10
    endloop
  endfacet
  facet normal -0.208049 -0.978118 0
    outer loop
      vertex 268.575 16.3963 -10
      vertex 269.189 16.2657 10
      vertex 268.575 16.3963 10
    endloop
  endfacet
  facet normal -0.208049 -0.978118 -0
    outer loop
      vertex 269.189 16.2657 10
      vertex 268.575 16.3963 -10
      vertex 269.189 16.2657 -10
    endloop
  endfacet
  facet normal -0.166668 -0.986013 0
    outer loop
      vertex 269.189 16.2657 -10
      vertex 269.809 16.1609 10
      vertex 269.189 16.2657 10
    endloop
  endfacet
  facet normal -0.166668 -0.986013 -0
    outer loop
      vertex 269.809 16.1609 10
      vertex 269.189 16.2657 -10
      vertex 269.809 16.1609 -10
    endloop
  endfacet
  facet normal -0.125328 -0.992115 0
    outer loop
      vertex 269.809 16.1609 -10
      vertex 270.432 16.0822 10
      vertex 269.809 16.1609 10
    endloop
  endfacet
  facet normal -0.125328 -0.992115 -0
    outer loop
      vertex 270.432 16.0822 10
      vertex 269.809 16.1609 -10
      vertex 270.432 16.0822 -10
    endloop
  endfacet
  facet normal -0.0837305 -0.996488 0
    outer loop
      vertex 270.432 16.0822 -10
      vertex 271.058 16.0296 10
      vertex 270.432 16.0822 10
    endloop
  endfacet
  facet normal -0.0837305 -0.996488 -0
    outer loop
      vertex 271.058 16.0296 10
      vertex 270.432 16.0822 -10
      vertex 271.058 16.0296 -10
    endloop
  endfacet
  facet normal -0.0418423 -0.999124 0
    outer loop
      vertex 271.058 16.0296 -10
      vertex 271.686 16.0033 10
      vertex 271.058 16.0296 10
    endloop
  endfacet
  facet normal -0.0418423 -0.999124 -0
    outer loop
      vertex 271.686 16.0033 10
      vertex 271.058 16.0296 -10
      vertex 271.686 16.0033 -10
    endloop
  endfacet
  facet normal 0 -1 0
    outer loop
      vertex 271.686 16.0033 -10
      vertex 272.314 16.0033 10
      vertex 271.686 16.0033 10
    endloop
  endfacet
  facet normal 0 -1 -0
    outer loop
      vertex 272.314 16.0033 10
      vertex 271.686 16.0033 -10
      vertex 272.314 16.0033 -10
    endloop
  endfacet
  facet normal 0.0418423 -0.999124 0
    outer loop
      vertex 272.314 16.0033 -10
      vertex 272.942 16.0296 10
      vertex 272.314 16.0033 10
    endloop
  endfacet
  facet normal 0.0418423 -0.999124 0
    outer loop
      vertex 272.942 16.0296 10
      vertex 272.314 16.0033 -10
      vertex 272.942 16.0296 -10
    endloop
  endfacet
  facet normal 0.0837305 -0.996488 0
    outer loop
      vertex 272.942 16.0296 -10
      vertex 273.568 16.0822 10
      vertex 272.942 16.0296 10
    endloop
  endfacet
  facet normal 0.0837305 -0.996488 0
    outer loop
      vertex 273.568 16.0822 10
      vertex 272.942 16.0296 -10
      vertex 273.568 16.0822 -10
    endloop
  endfacet
  facet normal 0.125328 -0.992115 0
    outer loop
      vertex 273.568 16.0822 -10
      vertex 274.191 16.1609 10
      vertex 273.568 16.0822 10
    endloop
  endfacet
  facet normal 0.125328 -0.992115 0
    outer loop
      vertex 274.191 16.1609 10
      vertex 273.568 16.0822 -10
      vertex 274.191 16.1609 -10
    endloop
  endfacet
  facet normal 0.166668 -0.986013 0
    outer loop
      vertex 274.191 16.1609 -10
      vertex 274.811 16.2657 10
      vertex 274.191 16.1609 10
    endloop
  endfacet
  facet normal 0.166668 -0.986013 0
    outer loop
      vertex 274.811 16.2657 10
      vertex 274.191 16.1609 -10
      vertex 274.811 16.2657 -10
    endloop
  endfacet
  facet normal 0.208049 -0.978118 0
    outer loop
      vertex 274.811 16.2657 -10
      vertex 275.425 16.3963 10
      vertex 274.811 16.2657 10
    endloop
  endfacet
  facet normal 0.208049 -0.978118 0
    outer loop
      vertex 275.425 16.3963 10
      vertex 274.811 16.2657 -10
      vertex 275.425 16.3963 -10
    endloop
  endfacet
  facet normal 0.248593 -0.968608 0
    outer loop
      vertex 275.425 16.3963 -10
      vertex 276.034 16.5526 10
      vertex 275.425 16.3963 10
    endloop
  endfacet
  facet normal 0.248593 -0.968608 0
    outer loop
      vertex 276.034 16.5526 10
      vertex 275.425 16.3963 -10
      vertex 276.034 16.5526 -10
    endloop
  endfacet
  facet normal 0.289247 -0.957255 0
    outer loop
      vertex 276.034 16.5526 -10
      vertex 276.635 16.7342 10
      vertex 276.034 16.5526 10
    endloop
  endfacet
  facet normal 0.289247 -0.957255 0
    outer loop
      vertex 276.635 16.7342 10
      vertex 276.034 16.5526 -10
      vertex 276.635 16.7342 -10
    endloop
  endfacet
  facet normal 0.328508 -0.944501 0
    outer loop
      vertex 276.635 16.7342 -10
      vertex 277.229 16.9408 10
      vertex 276.635 16.7342 10
    endloop
  endfacet
  facet normal 0.328508 -0.944501 0
    outer loop
      vertex 277.229 16.9408 10
      vertex 276.635 16.7342 -10
      vertex 277.229 16.9408 -10
    endloop
  endfacet
  facet normal 0.368232 -0.929734 0
    outer loop
      vertex 277.229 16.9408 -10
      vertex 277.813 17.1721 10
      vertex 277.229 16.9408 10
    endloop
  endfacet
  facet normal 0.368232 -0.929734 0
    outer loop
      vertex 277.813 17.1721 10
      vertex 277.229 16.9408 -10
      vertex 277.813 17.1721 -10
    endloop
  endfacet
  facet normal 0.406655 -0.913582 0
    outer loop
      vertex 277.813 17.1721 -10
      vertex 278.387 17.4276 10
      vertex 277.813 17.1721 10
    endloop
  endfacet
  facet normal 0.406655 -0.913582 0
    outer loop
      vertex 278.387 17.4276 10
      vertex 277.813 17.1721 -10
      vertex 278.387 17.4276 -10
    endloop
  endfacet
  facet normal 0.445045 -0.895508 0
    outer loop
      vertex 278.387 17.4276 -10
      vertex 278.949 17.7069 10
      vertex 278.387 17.4276 10
    endloop
  endfacet
  facet normal 0.445045 -0.895508 0
    outer loop
      vertex 278.949 17.7069 10
      vertex 278.387 17.4276 -10
      vertex 278.949 17.7069 -10
    endloop
  endfacet
  facet normal 0.481491 -0.876451 0
    outer loop
      vertex 278.949 17.7069 -10
      vertex 279.5 18.0096 10
      vertex 278.949 17.7069 10
    endloop
  endfacet
  facet normal 0.481491 -0.876451 0
    outer loop
      vertex 279.5 18.0096 10
      vertex 278.949 17.7069 -10
      vertex 279.5 18.0096 -10
    endloop
  endfacet
  facet normal 0.518355 -0.855166 0
    outer loop
      vertex 279.5 18.0096 -10
      vertex 280.037 18.3351 10
      vertex 279.5 18.0096 10
    endloop
  endfacet
  facet normal 0.518355 -0.855166 0
    outer loop
      vertex 280.037 18.3351 10
      vertex 279.5 18.0096 -10
      vertex 280.037 18.3351 -10
    endloop
  endfacet
  facet normal 0.552901 -0.833247 0
    outer loop
      vertex 280.037 18.3351 -10
      vertex 280.561 18.6828 10
      vertex 280.037 18.3351 10
    endloop
  endfacet
  facet normal 0.552901 -0.833247 0
    outer loop
      vertex 280.561 18.6828 10
      vertex 280.037 18.3351 -10
      vertex 280.561 18.6828 -10
    endloop
  endfacet
  facet normal 0.588011 -0.808853 0
    outer loop
      vertex 280.561 18.6828 -10
      vertex 281.069 19.0521 10
      vertex 280.561 18.6828 10
    endloop
  endfacet
  facet normal 0.588011 -0.808853 0
    outer loop
      vertex 281.069 19.0521 10
      vertex 280.561 18.6828 -10
      vertex 281.069 19.0521 -10
    endloop
  endfacet
  facet normal 0.621388 -0.783503 0
    outer loop
      vertex 281.069 19.0521 -10
      vertex 281.561 19.4423 10
      vertex 281.069 19.0521 10
    endloop
  endfacet
  facet normal 0.621388 -0.783503 0
    outer loop
      vertex 281.561 19.4423 10
      vertex 281.069 19.0521 -10
      vertex 281.561 19.4423 -10
    endloop
  endfacet
  facet normal 0.653081 -0.757288 0
    outer loop
      vertex 281.561 19.4423 -10
      vertex 282.037 19.8528 10
      vertex 281.561 19.4423 10
    endloop
  endfacet
  facet normal 0.653081 -0.757288 0
    outer loop
      vertex 282.037 19.8528 10
      vertex 281.561 19.4423 -10
      vertex 282.037 19.8528 -10
    endloop
  endfacet
  facet normal 0.684555 -0.728961 0
    outer loop
      vertex 282.037 19.8528 -10
      vertex 282.495 20.2829 10
      vertex 282.037 19.8528 10
    endloop
  endfacet
  facet normal 0.684555 -0.728961 0
    outer loop
      vertex 282.495 20.2829 10
      vertex 282.037 19.8528 -10
      vertex 282.495 20.2829 -10
    endloop
  endfacet
  facet normal 0.714151 -0.699992 0
    outer loop
      vertex 282.495 20.2829 10
      vertex 282.935 20.7318 -10
      vertex 282.935 20.7318 10
    endloop
  endfacet
  facet normal 0.714151 -0.699992 0
    outer loop
      vertex 282.935 20.7318 -10
      vertex 282.495 20.2829 10
      vertex 282.495 20.2829 -10
    endloop
  endfacet
  facet normal 0.74346 -0.66878 0
    outer loop
      vertex 282.935 20.7318 10
      vertex 283.355 21.1987 -10
      vertex 283.355 21.1987 10
    endloop
  endfacet
  facet normal 0.74346 -0.66878 0
    outer loop
      vertex 283.355 21.1987 -10
      vertex 282.935 20.7318 10
      vertex 282.935 20.7318 -10
    endloop
  endfacet
  facet normal 0.77089 -0.636968 0
    outer loop
      vertex 283.355 21.1987 10
      vertex 283.755 21.6828 -10
      vertex 283.755 21.6828 10
    endloop
  endfacet
  facet normal 0.77089 -0.636968 0
    outer loop
      vertex 283.755 21.6828 -10
      vertex 283.355 21.1987 10
      vertex 283.355 21.1987 -10
    endloop
  endfacet
  facet normal 0.796395 -0.604777 0
    outer loop
      vertex 283.755 21.6828 10
      vertex 284.135 22.1832 -10
      vertex 284.135 22.1832 10
    endloop
  endfacet
  facet normal 0.796395 -0.604777 0
    outer loop
      vertex 284.135 22.1832 -10
      vertex 283.755 21.6828 10
      vertex 283.755 21.6828 -10
    endloop
  endfacet
  facet normal 0.820821 -0.571186 0
    outer loop
      vertex 284.135 22.1832 10
      vertex 284.494 22.6991 -10
      vertex 284.494 22.6991 10
    endloop
  endfacet
  facet normal 0.820821 -0.571186 0
    outer loop
      vertex 284.494 22.6991 -10
      vertex 284.135 22.1832 10
      vertex 284.135 22.1832 -10
    endloop
  endfacet
  facet normal 0.844807 -0.535071 0
    outer loop
      vertex 284.494 22.6991 10
      vertex 284.83 23.2296 -10
      vertex 284.83 23.2296 10
    endloop
  endfacet
  facet normal 0.844807 -0.535071 0
    outer loop
      vertex 284.83 23.2296 -10
      vertex 284.494 22.6991 10
      vertex 284.494 22.6991 -10
    endloop
  endfacet
  facet normal 0.86543 -0.50103 0
    outer loop
      vertex 284.83 23.2296 10
      vertex 285.145 23.7737 -10
      vertex 285.145 23.7737 10
    endloop
  endfacet
  facet normal 0.86543 -0.50103 0
    outer loop
      vertex 285.145 23.7737 -10
      vertex 284.83 23.2296 10
      vertex 284.83 23.2296 -10
    endloop
  endfacet
  facet normal 0.886261 -0.463186 0
    outer loop
      vertex 285.145 23.7737 10
      vertex 285.436 24.3305 -10
      vertex 285.436 24.3305 10
    endloop
  endfacet
  facet normal 0.886261 -0.463186 0
    outer loop
      vertex 285.436 24.3305 -10
      vertex 285.145 23.7737 10
      vertex 285.145 23.7737 -10
    endloop
  endfacet
  facet normal 0.905143 -0.425107 0
    outer loop
      vertex 285.436 24.3305 10
      vertex 285.703 24.899 -10
      vertex 285.703 24.899 10
    endloop
  endfacet
  facet normal 0.905143 -0.425107 0
    outer loop
      vertex 285.703 24.899 -10
      vertex 285.436 24.3305 10
      vertex 285.436 24.3305 -10
    endloop
  endfacet
  facet normal 0.921539 -0.388285 0
    outer loop
      vertex 285.703 24.899 10
      vertex 285.947 25.4781 -10
      vertex 285.947 25.4781 10
    endloop
  endfacet
  facet normal 0.921539 -0.388285 0
    outer loop
      vertex 285.947 25.4781 -10
      vertex 285.703 24.899 10
      vertex 285.703 24.899 -10
    endloop
  endfacet
  facet normal 0.937287 -0.348558 0
    outer loop
      vertex 285.947 25.4781 10
      vertex 286.166 26.067 -10
      vertex 286.166 26.067 10
    endloop
  endfacet
  facet normal 0.937287 -0.348558 0
    outer loop
      vertex 286.166 26.067 -10
      vertex 285.947 25.4781 10
      vertex 285.947 25.4781 -10
    endloop
  endfacet
  facet normal 0.951122 -0.308816 0
    outer loop
      vertex 286.166 26.067 10
      vertex 286.36 26.6645 -10
      vertex 286.36 26.6645 10
    endloop
  endfacet
  facet normal 0.951122 -0.308816 0
    outer loop
      vertex 286.36 26.6645 -10
      vertex 286.166 26.067 10
      vertex 286.166 26.067 -10
    endloop
  endfacet
  facet normal 0.963152 -0.268957 0
    outer loop
      vertex 286.36 26.6645 10
      vertex 286.529 27.2697 -10
      vertex 286.529 27.2697 10
    endloop
  endfacet
  facet normal 0.963152 -0.268957 0
    outer loop
      vertex 286.529 27.2697 -10
      vertex 286.36 26.6645 10
      vertex 286.36 26.6645 -10
    endloop
  endfacet
  facet normal 0.973738 -0.227672 0
    outer loop
      vertex 286.529 27.2697 10
      vertex 286.672 27.8813 -10
      vertex 286.672 27.8813 10
    endloop
  endfacet
  facet normal 0.973738 -0.227672 0
    outer loop
      vertex 286.672 27.8813 -10
      vertex 286.529 27.2697 10
      vertex 286.529 27.2697 -10
    endloop
  endfacet
  facet normal 0.98221 -0.187785 0
    outer loop
      vertex 286.672 27.8813 10
      vertex 286.79 28.4985 -10
      vertex 286.79 28.4985 10
    endloop
  endfacet
  facet normal 0.98221 -0.187785 0
    outer loop
      vertex 286.79 28.4985 -10
      vertex 286.672 27.8813 10
      vertex 286.672 27.8813 -10
    endloop
  endfacet
  facet normal 0.989221 -0.146433 0
    outer loop
      vertex 286.79 28.4985 10
      vertex 286.882 29.12 -10
      vertex 286.882 29.12 10
    endloop
  endfacet
  facet normal 0.989221 -0.146433 0
    outer loop
      vertex 286.882 29.12 -10
      vertex 286.79 28.4985 10
      vertex 286.79 28.4985 -10
    endloop
  endfacet
  facet normal 0.994632 -0.103475 0
    outer loop
      vertex 286.882 29.12 10
      vertex 286.947 29.7448 -10
      vertex 286.947 29.7448 10
    endloop
  endfacet
  facet normal 0.994632 -0.103475 0
    outer loop
      vertex 286.947 29.7448 -10
      vertex 286.882 29.12 10
      vertex 286.882 29.12 -10
    endloop
  endfacet
  facet normal 0.997972 -0.0636563 0
    outer loop
      vertex 286.947 29.7448 10
      vertex 286.987 30.3719 -10
      vertex 286.987 30.3719 10
    endloop
  endfacet
  facet normal 0.997972 -0.0636563 0
    outer loop
      vertex 286.987 30.3719 -10
      vertex 286.947 29.7448 10
      vertex 286.947 29.7448 -10
    endloop
  endfacet
  facet normal 0.999786 -0.0206929 0
    outer loop
      vertex 286.987 30.3719 10
      vertex 287 31 -10
      vertex 287 31 10
    endloop
  endfacet
  facet normal 0.999786 -0.0206929 0
    outer loop
      vertex 287 31 -10
      vertex 286.987 30.3719 10
      vertex 286.987 30.3719 -10
    endloop
  endfacet
  facet normal 0 0 -1
    outer loop
      vertex 286.987 30.3719 -10
      vertex 286.987 31.6281 -10
      vertex 287 31 -10
    endloop
  endfacet
  facet normal 0 0 -1
    outer loop
      vertex 286.947 29.7448 -10
      vertex 286.987 31.6281 -10
      vertex 286.987 30.3719 -10
    endloop
  endfacet
  facet normal 0 0 -1
    outer loop
      vertex 286.947 29.7448 -10
      vertex 286.947 32.2552 -10
      vertex 286.987 31.6281 -10
    endloop
  endfacet
  facet normal 0 0 -1
    outer loop
      vertex 286.882 29.12 -10
      vertex 286.947 32.2552 -10
      vertex 286.947 29.7448 -10
    endloop
  endfacet
  facet normal 0 0 -1
    outer loop
      vertex 286.882 29.12 -10
      vertex 286.882 32.88 -10
      vertex 286.947 32.2552 -10
    endloop
  endfacet
  facet normal 0 0 -1
    outer loop
      vertex 286.79 28.4985 -10
      vertex 286.882 32.88 -10
      vertex 286.882 29.12 -10
    endloop
  endfacet
  facet normal 0 0 -1
    outer loop
      vertex 286.79 28.4985 -10
      vertex 286.79 33.5015 -10
      vertex 286.882 32.88 -10
    endloop
  endfacet
  facet normal 0 0 -1
    outer loop
      vertex 286.672 27.8813 -10
      vertex 286.79 33.5015 -10
      vertex 286.79 28.4985 -10
    endloop
  endfacet
  facet normal 0 0 -1
    outer loop
      vertex 286.672 27.8813 -10
      vertex 286.672 34.1187 -10
      vertex 286.79 33.5015 -10
    endloop
  endfacet
  facet normal 0 0 -1
    outer loop
      vertex 286.529 27.2697 -10
      vertex 286.672 34.1187 -10
      vertex 286.672 27.8813 -10
    endloop
  endfacet
  facet normal 0 0 -1
    outer loop
      vertex 286.529 27.2697 -10
      vertex 286.529 34.7303 -10
      vertex 286.672 34.1187 -10
    endloop
  endfacet
  facet normal 0 0 -1
    outer loop
      vertex 286.36 26.6645 -10
      vertex 286.529 34.7303 -10
      vertex 286.529 27.2697 -10
    endloop
  endfacet
  facet normal 0 0 -1
    outer loop
      vertex 286.36 26.6645 -10
      vertex 286.36 35.3355 -10
      vertex 286.529 34.7303 -10
    endloop
  endfacet
  facet normal 0 0 -1
    outer loop
      vertex 286.166 26.067 -10
      vertex 286.36 35.3355 -10
      vertex 286.36 26.6645 -10
    endloop
  endfacet
  facet normal 0 0 -1
    outer loop
      vertex 286.166 26.067 -10
      vertex 286.166 35.933 -10
      vertex 286.36 35.3355 -10
    endloop
  endfacet
  facet normal 0 0 -1
    outer loop
      vertex 285.947 25.4781 -10
      vertex 286.166 35.933 -10
      vertex 286.166 26.067 -10
    endloop
  endfacet
  facet normal 0 0 -1
    outer loop
      vertex 285.947 25.4781 -10
      vertex 285.947 36.5219 -10
      vertex 286.166 35.933 -10
    endloop
  endfacet
  facet normal 0 0 -1
    outer loop
      vertex 285.703 24.899 -10
      vertex 285.947 36.5219 -10
      vertex 285.947 25.4781 -10
    endloop
  endfacet
  facet normal 0 0 -1
    outer loop
      vertex 285.703 24.899 -10
      vertex 285.703 37.1011 -10
      vertex 285.947 36.5219 -10
    endloop
  endfacet
  facet normal 0 0 -1
    outer loop
      vertex 285.436 24.3305 -10
      vertex 285.703 37.1011 -10
      vertex 285.703 24.899 -10
    endloop
  endfacet
  facet normal 0 0 -1
    outer loop
      vertex 285.436 24.3305 -10
      vertex 285.436 37.6695 -10
      vertex 285.703 37.1011 -10
    endloop
  endfacet
  facet normal 0 0 -1
    outer loop
      vertex 285.145 23.7737 -10
      vertex 285.436 37.6695 -10
      vertex 285.436 24.3305 -10
    endloop
  endfacet
  facet normal 0 0 -1
    outer loop
      vertex 285.145 23.7737 -10
      vertex 285.145 38.2263 -10
      vertex 285.436 37.6695 -10
    endloop
  endfacet
  facet normal 0 0 -1
    outer loop
      vertex 284.83 23.2296 -10
      vertex 285.145 38.2263 -10
      vertex 285.145 23.7737 -10
    endloop
  endfacet
  facet normal 0 0 -1
    outer loop
      vertex 284.83 23.2296 -10
      vertex 284.83 38.7704 -10
      vertex 285.145 38.2263 -10
    endloop
  endfacet
  facet normal 0 0 -1
    outer loop
      vertex 284.494 22.6991 -10
      vertex 284.83 38.7704 -10
      vertex 284.83 23.2296 -10
    endloop
  endfacet
  facet normal 0 0 -1
    outer loop
      vertex 284.494 22.6991 -10
      vertex 284.494 39.3009 -10
      vertex 284.83 38.7704 -10
    endloop
  endfacet
  facet normal 0 0 -1
    outer loop
      vertex 284.135 22.1832 -10
      vertex 284.494 39.3009 -10
      vertex 284.494 22.6991 -10
    endloop
  endfacet
  facet normal 0 0 -1
    outer loop
      vertex 284.135 22.1832 -10
      vertex 284.135 39.8168 -10
      vertex 284.494 39.3009 -10
    endloop
  endfacet
  facet normal 0 0 -1
    outer loop
      vertex 283.755 21.6828 -10
      vertex 284.135 39.8168 -10
      vertex 284.135 22.1832 -10
    endloop
  endfacet
  facet normal 0 0 -1
    outer loop
      vertex 283.755 21.6828 -10
      vertex 283.755 40.3172 -10
      vertex 284.135 39.8168 -10
    endloop
  endfacet
  facet normal 0 0 -1
    outer loop
      vertex 283.355 21.1987 -10
      vertex 283.755 40.3172 -10
      vertex 283.755 21.6828 -10
    endloop
  endfacet
  facet normal 0 0 -1
    outer loop
      vertex 283.355 21.1987 -10
      vertex 283.355 40.8013 -10
      vertex 283.755 40.3172 -10
    endloop
  endfacet
  facet normal 0 0 -1
    outer loop
      vertex 282.935 20.7318 -10
      vertex 283.355 40.8013 -10
      vertex 283.355 21.1987 -10
    endloop
  endfacet
  facet normal 0 0 -1
    outer loop
      vertex 282.935 20.7318 -10
      vertex 282.935 41.2682 -10
      vertex 283.355 40.8013 -10
    endloop
  endfacet
  facet normal 0 0 -1
    outer loop
      vertex 282.495 20.2829 -10
      vertex 282.935 41.2682 -10
      vertex 282.935 20.7318 -10
    endloop
  endfacet
  facet normal 0 0 -1
    outer loop
      vertex 282.495 20.2829 -10
      vertex 282.495 41.7171 -10
      vertex 282.935 41.2682 -10
    endloop
  endfacet
  facet normal 0 0 -1
    outer loop
      vertex 282.037 19.8528 -10
      vertex 282.495 41.7171 -10
      vertex 282.495 20.2829 -10
    endloop
  endfacet
  facet normal 0 0 -1
    outer loop
      vertex 282.037 19.8528 -10
      vertex 282.037 42.1472 -10
      vertex 282.495 41.7171 -10
    endloop
  endfacet
  facet normal 0 0 -1
    outer loop
      vertex 281.561 19.4423 -10
      vertex 282.037 42.1472 -10
      vertex 282.037 19.8528 -10
    endloop
  endfacet
  facet normal 0 0 -1
    outer loop
      vertex 281.561 19.4423 -10
      vertex 281.561 42.5577 -10
      vertex 282.037 42.1472 -10
    endloop
  endfacet
  facet normal 0 0 -1
    outer loop
      vertex 281.069 19.0521 -10
      vertex 281.561 42.5577 -10
      vertex 281.561 19.4423 -10
    endloop
  endfacet
  facet normal 0 0 -1
    outer loop
      vertex 281.069 19.0521 -10
      vertex 281.069 42.9479 -10
      vertex 281.561 42.5577 -10
    endloop
  endfacet
  facet normal 0 0 -1
    outer loop
      vertex 280.561 18.6828 -10
      vertex 281.069 42.9479 -10
      vertex 281.069 19.0521 -10
    endloop
  endfacet
  facet normal 0 0 -1
    outer loop
      vertex 280.561 18.6828 -10
      vertex 280.561 43.3172 -10
      vertex 281.069 42.9479 -10
    endloop
  endfacet
  facet normal 0 0 -1
    outer loop
      vertex 280.037 18.3351 -10
      vertex 280.561 43.3172 -10
      vertex 280.561 18.6828 -10
    endloop
  endfacet
  facet normal 0 0 -1
    outer loop
      vertex 280.037 18.3351 -10
      vertex 280.037 43.6649 -10
      vertex 280.561 43.3172 -10
    endloop
  endfacet
  facet normal 0 0 -1
    outer loop
      vertex 279.5 18.0096 -10
      vertex 280.037 43.6649 -10
      vertex 280.037 18.3351 -10
    endloop
  endfacet
  facet normal 0 0 -1
    outer loop
      vertex 279.5 18.0096 -10
      vertex 279.5 43.9904 -10
      vertex 280.037 43.6649 -10
    endloop
  endfacet
  facet normal 0 0 -1
    outer loop
      vertex 278.949 17.7069 -10
      vertex 279.5 43.9904 -10
      vertex 279.5 18.0096 -10
    endloop
  endfacet
  facet normal 0 0 -1
    outer loop
      vertex 278.949 17.7069 -10
      vertex 278.949 44.2931 -10
      vertex 279.5 43.9904 -10
    endloop
  endfacet
  facet normal 0 0 -1
    outer loop
      vertex 278.387 17.4276 -10
      vertex 278.949 44.2931 -10
      vertex 278.949 17.7069 -10
    endloop
  endfacet
  facet normal 0 0 -1
    outer loop
      vertex 278.387 17.4276 -10
      vertex 278.387 44.5724 -10
      vertex 278.949 44.2931 -10
    endloop
  endfacet
  facet normal 0 0 -1
    outer loop
      vertex 277.813 17.1721 -10
      vertex 278.387 44.5724 -10
      vertex 278.387 17.4276 -10
    endloop
  endfacet
  facet normal 0 0 -1
    outer loop
      vertex 277.813 17.1721 -10
      vertex 277.813 44.8279 -10
      vertex 278.387 44.5724 -10
    endloop
  endfacet
  facet normal 0 0 -1
    outer loop
      vertex 277.229 16.9408 -10
      vertex 277.813 44.8279 -10
      vertex 277.813 17.1721 -10
    endloop
  endfacet
  facet normal 0 0 -1
    outer loop
      vertex 277.229 16.9408 -10
      vertex 277.229 45.0592 -10
      vertex 277.813 44.8279 -10
    endloop
  endfacet
  facet normal 0 0 -1
    outer loop
      vertex 276.635 16.7342 -10
      vertex 277.229 45.0592 -10
      vertex 277.229 16.9408 -10
    endloop
  endfacet
  facet normal 0 0 -1
    outer loop
      vertex 276.635 16.7342 -10
      vertex 276.635 45.2658 -10
      vertex 277.229 45.0592 -10
    endloop
  endfacet
  facet normal 0 0 -1
    outer loop
      vertex 276.034 16.5526 -10
      vertex 276.635 45.2658 -10
      vertex 276.635 16.7342 -10
    endloop
  endfacet
  facet normal 0 0 -1
    outer loop
      vertex 276.034 16.5526 -10
      vertex 276.034 45.4474 -10
      vertex 276.635 45.2658 -10
    endloop
  endfacet
  facet normal 0 0 -1
    outer loop
      vertex 275.425 16.3963 -10
      vertex 276.034 45.4474 -10
      vertex 276.034 16.5526 -10
    endloop
  endfacet
  facet normal 0 0 -1
    outer loop
      vertex 275.425 16.3963 -10
      vertex 275.425 45.6037 -10
      vertex 276.034 45.4474 -10
    endloop
  endfacet
  facet normal 0 0 -1
    outer loop
      vertex 274.811 16.2657 -10
      vertex 275.425 45.6037 -10
      vertex 275.425 16.3963 -10
    endloop
  endfacet
  facet normal 0 0 -1
    outer loop
      vertex 274.811 16.2657 -10
      vertex 274.811 45.7343 -10
      vertex 275.425 45.6037 -10
    endloop
  endfacet
  facet normal 0 0 -1
    outer loop
      vertex 274.191 16.1609 -10
      vertex 274.811 45.7343 -10
      vertex 274.811 16.2657 -10
    endloop
  endfacet
  facet normal 0 0 -1
    outer loop
      vertex 274.191 16.1609 -10
      vertex 274.191 45.8391 -10
      vertex 274.811 45.7343 -10
    endloop
  endfacet
  facet normal 0 0 -1
    outer loop
      vertex 273.568 16.0822 -10
      vertex 274.191 45.8391 -10
      vertex 274.191 16.1609 -10
    endloop
  endfacet
  facet normal 0 0 -1
    outer loop
      vertex 273.568 16.0822 -10
      vertex 273.568 45.9178 -10
      vertex 274.191 45.8391 -10
    endloop
  endfacet
  facet normal 0 0 -1
    outer loop
      vertex 272.942 16.0296 -10
      vertex 273.568 45.9178 -10
      vertex 273.568 16.0822 -10
    endloop
  endfacet
  facet normal 0 0 -1
    outer loop
      vertex 272.942 16.0296 -10
      vertex 272.942 45.9704 -10
      vertex 273.568 45.9178 -10
    endloop
  endfacet
  facet normal 0 0 -1
    outer loop
      vertex 272.314 16.0033 -10
      vertex 272.942 45.9704 -10
      vertex 272.942 16.0296 -10
    endloop
  endfacet
  facet normal 0 0 -1
    outer loop
      vertex 272.314 16.0033 -10
      vertex 272.314 45.9967 -10
      vertex 272.942 45.9704 -10
    endloop
  endfacet
  facet normal 0 0 -1
    outer loop
      vertex 271.686 16.0033 -10
      vertex 272.314 45.9967 -10
      vertex 272.314 16.0033 -10
    endloop
  endfacet
  facet normal 0 0 -1
    outer loop
      vertex 271.686 16.0033 -10
      vertex 271.686 45.9967 -10
      vertex 272.314 45.9967 -10
    endloop
  endfacet
  facet normal 0 0 -1
    outer loop
      vertex 271.058 16.0296 -10
      vertex 271.686 45.9967 -10
      vertex 271.686 16.0033 -10
    endloop
  endfacet
  facet normal 0 0 -1
    outer loop
      vertex 271.058 16.0296 -10
      vertex 271.058 45.9704 -10
      vertex 271.686 45.9967 -10
    endloop
  endfacet
  facet normal 0 0 -1
    outer loop
      vertex 270.432 16.0822 -10
      vertex 271.058 45.9704 -10
      vertex 271.058 16.0296 -10
    endloop
  endfacet
  facet normal 0 0 -1
    outer loop
      vertex 270.432 16.0822 -10
      vertex 270.432 45.9178 -10
      vertex 271.058 45.9704 -10
    endloop
  endfacet
  facet normal 0 0 -1
    outer loop
      vertex 269.809 16.1609 -10
      vertex 270.432 45.9178 -10
      vertex 270.432 16.0822 -10
    endloop
  endfacet
  facet normal 0 0 -1
    outer loop
      vertex 269.809 16.1609 -10
      vertex 269.809 45.8391 -10
      vertex 270.432 45.9178 -10
    endloop
  endfacet
  facet normal 0 0 -1
    outer loop
      vertex 269.189 16.2657 -10
      vertex 269.809 45.8391 -10
      vertex 269.809 16.1609 -10
    endloop
  endfacet
  facet normal 0 0 -1
    outer loop
      vertex 269.189 16.2657 -10
      vertex 269.189 45.7343 -10
      vertex 269.809 45.8391 -10
    endloop
  endfacet
  facet normal 0 0 -1
    outer loop
      vertex 268.575 16.3963 -10
      vertex 269.189 45.7343 -10
      vertex 269.189 16.2657 -10
    endloop
  endfacet
  facet normal 0 0 -1
    outer loop
      vertex 268.575 16.3963 -10
      vertex 268.575 45.6037 -10
      vertex 269.189 45.7343 -10
    endloop
  endfacet
  facet normal 0 0 -1
    outer loop
      vertex 267.966 16.5526 -10
      vertex 268.575 45.6037 -10
      vertex 268.575 16.3963 -10
    endloop
  endfacet
  facet normal 0 0 -1
    outer loop
      vertex 267.966 16.5526 -10
      vertex 267.966 45.4474 -10
      vertex 268.575 45.6037 -10
    endloop
  endfacet
  facet normal 0 0 -1
    outer loop
      vertex 267.365 16.7342 -10
      vertex 267.966 45.4474 -10
      vertex 267.966 16.5526 -10
    endloop
  endfacet
  facet normal 0 0 -1
    outer loop
      vertex 267.365 16.7342 -10
      vertex 267.365 45.2658 -10
      vertex 267.966 45.4474 -10
    endloop
  endfacet
  facet normal 0 0 -1
    outer loop
      vertex 266.771 16.9408 -10
      vertex 267.365 45.2658 -10
      vertex 267.365 16.7342 -10
    endloop
  endfacet
  facet normal 0 0 -1
    outer loop
      vertex 266.771 16.9408 -10
      vertex 266.771 45.0592 -10
      vertex 267.365 45.2658 -10
    endloop
  endfacet
  facet normal 0 0 -1
    outer loop
      vertex 266.187 17.1721 -10
      vertex 266.771 45.0592 -10
      vertex 266.771 16.9408 -10
    endloop
  endfacet
  facet normal 0 0 -1
    outer loop
      vertex 266.187 17.1721 -10
      vertex 266.187 44.8279 -10
      vertex 266.771 45.0592 -10
    endloop
  endfacet
  facet normal 0 0 -1
    outer loop
      vertex 265.613 17.4276 -10
      vertex 266.187 44.8279 -10
      vertex 266.187 17.1721 -10
    endloop
  endfacet
  facet normal 0 0 -1
    outer loop
      vertex 265.613 17.4276 -10
      vertex 265.613 44.5724 -10
      vertex 266.187 44.8279 -10
    endloop
  endfacet
  facet normal 0 0 -1
    outer loop
      vertex 265.051 17.7069 -10
      vertex 265.613 44.5724 -10
      vertex 265.613 17.4276 -10
    endloop
  endfacet
  facet normal 0 0 -1
    outer loop
      vertex 265.051 17.7069 -10
      vertex 265.051 44.2931 -10
      vertex 265.613 44.5724 -10
    endloop
  endfacet
  facet normal 0 0 -1
    outer loop
      vertex 264.5 18.0096 -10
      vertex 265.051 44.2931 -10
      vertex 265.051 17.7069 -10
    endloop
  endfacet
  facet normal 0 0 -1
    outer loop
      vertex 264.5 18.0096 -10
      vertex 264.5 43.9904 -10
      vertex 265.051 44.2931 -10
    endloop
  endfacet
  facet normal 0 0 -1
    outer loop
      vertex 263.963 18.3351 -10
      vertex 264.5 43.9904 -10
      vertex 264.5 18.0096 -10
    endloop
  endfacet
  facet normal 0 0 -1
    outer loop
      vertex 263.963 18.3351 -10
      vertex 263.963 43.6649 -10
      vertex 264.5 43.9904 -10
    endloop
  endfacet
  facet normal 0 0 -1
    outer loop
      vertex 263.439 18.6828 -10
      vertex 263.963 43.6649 -10
      vertex 263.963 18.3351 -10
    endloop
  endfacet
  facet normal 0 0 -1
    outer loop
      vertex 263.439 18.6828 -10
      vertex 263.439 43.3172 -10
      vertex 263.963 43.6649 -10
    endloop
  endfacet
  facet normal 0 0 -1
    outer loop
      vertex 262.931 19.0521 -10
      vertex 263.439 43.3172 -10
      vertex 263.439 18.6828 -10
    endloop
  endfacet
  facet normal 0 0 -1
    outer loop
      vertex 262.931 19.0521 -10
      vertex 262.931 42.9479 -10
      vertex 263.439 43.3172 -10
    endloop
  endfacet
  facet normal 0 0 -1
    outer loop
      vertex 262.439 19.4423 -10
      vertex 262.931 42.9479 -10
      vertex 262.931 19.0521 -10
    endloop
  endfacet
  facet normal 0 0 -1
    outer loop
      vertex 262.439 19.4423 -10
      vertex 262.439 42.5577 -10
      vertex 262.931 42.9479 -10
    endloop
  endfacet
  facet normal 0 0 -1
    outer loop
      vertex 261.963 19.8528 -10
      vertex 262.439 42.5577 -10
      vertex 262.439 19.4423 -10
    endloop
  endfacet
  facet normal 0 0 -1
    outer loop
      vertex 261.963 19.8528 -10
      vertex 261.963 42.1472 -10
      vertex 262.439 42.5577 -10
    endloop
  endfacet
  facet normal 0 0 -1
    outer loop
      vertex 261.505 20.2829 -10
      vertex 261.963 42.1472 -10
      vertex 261.963 19.8528 -10
    endloop
  endfacet
  facet normal 0 0 -1
    outer loop
      vertex 261.505 20.2829 -10
      vertex 261.505 41.7171 -10
      vertex 261.963 42.1472 -10
    endloop
  endfacet
  facet normal 0 0 -1
    outer loop
      vertex 261.065 20.7318 -10
      vertex 261.505 41.7171 -10
      vertex 261.505 20.2829 -10
    endloop
  endfacet
  facet normal 0 0 -1
    outer loop
      vertex 261.065 20.7318 -10
      vertex 261.065 41.2682 -10
      vertex 261.505 41.7171 -10
    endloop
  endfacet
  facet normal 0 0 -1
    outer loop
      vertex 260.645 21.1987 -10
      vertex 261.065 41.2682 -10
      vertex 261.065 20.7318 -10
    endloop
  endfacet
  facet normal 0 0 -1
    outer loop
      vertex 260.645 21.1987 -10
      vertex 260.645 40.8013 -10
      vertex 261.065 41.2682 -10
    endloop
  endfacet
  facet normal 0 0 -1
    outer loop
      vertex 260.245 21.6828 -10
      vertex 260.645 40.8013 -10
      vertex 260.645 21.1987 -10
    endloop
  endfacet
  facet normal 0 0 -1
    outer loop
      vertex 260.245 21.6828 -10
      vertex 260.245 40.3172 -10
      vertex 260.645 40.8013 -10
    endloop
  endfacet
  facet normal 0 0 -1
    outer loop
      vertex 259.865 22.1832 -10
      vertex 260.245 40.3172 -10
      vertex 260.245 21.6828 -10
    endloop
  endfacet
  facet normal 0 0 -1
    outer loop
      vertex 259.865 22.1832 -10
      vertex 259.865 39.8168 -10
      vertex 260.245 40.3172 -10
    endloop
  endfacet
  facet normal 0 0 -1
    outer loop
      vertex 259.506 22.6991 -10
      vertex 259.865 39.8168 -10
      vertex 259.865 22.1832 -10
    endloop
  endfacet
  facet normal 0 0 -1
    outer loop
      vertex 259.506 22.6991 -10
      vertex 259.506 39.3009 -10
      vertex 259.865 39.8168 -10
    endloop
  endfacet
  facet normal 0 0 -1
    outer loop
      vertex 259.17 23.2296 -10
      vertex 259.506 39.3009 -10
      vertex 259.506 22.6991 -10
    endloop
  endfacet
  facet normal 0 0 -1
    outer loop
      vertex 259.17 23.2296 -10
      vertex 259.17 38.7704 -10
      vertex 259.506 39.3009 -10
    endloop
  endfacet
  facet normal 0 0 -1
    outer loop
      vertex 258.855 23.7737 -10
      vertex 259.17 38.7704 -10
      vertex 259.17 23.2296 -10
    endloop
  endfacet
  facet normal 0 0 -1
    outer loop
      vertex 258.855 23.7737 -10
      vertex 258.855 38.2263 -10
      vertex 259.17 38.7704 -10
    endloop
  endfacet
  facet normal 0 0 -1
    outer loop
      vertex 258.564 24.3305 -10
      vertex 258.855 38.2263 -10
      vertex 258.855 23.7737 -10
    endloop
  endfacet
  facet normal 0 0 -1
    outer loop
      vertex 258.564 24.3305 -10
      vertex 258.564 37.6695 -10
      vertex 258.855 38.2263 -10
    endloop
  endfacet
  facet normal 0 0 -1
    outer loop
      vertex 258.297 24.899 -10
      vertex 258.564 37.6695 -10
      vertex 258.564 24.3305 -10
    endloop
  endfacet
  facet normal 0 0 -1
    outer loop
      vertex 258.297 24.899 -10
      vertex 258.297 37.1011 -10
      vertex 258.564 37.6695 -10
    endloop
  endfacet
  facet normal 0 0 -1
    outer loop
      vertex 258.053 25.4781 -10
      vertex 258.297 37.1011 -10
      vertex 258.297 24.899 -10
    endloop
  endfacet
  facet normal 0 0 -1
    outer loop
      vertex 258.053 25.4781 -10
      vertex 258.053 36.5219 -10
      vertex 258.297 37.1011 -10
    endloop
  endfacet
  facet normal 0 0 -1
    outer loop
      vertex 257.834 26.067 -10
      vertex 258.053 36.5219 -10
      vertex 258.053 25.4781 -10
    endloop
  endfacet
  facet normal 0 0 -1
    outer loop
      vertex 257.834 26.067 -10
      vertex 257.834 35.933 -10
      vertex 258.053 36.5219 -10
    endloop
  endfacet
  facet normal 0 0 -1
    outer loop
      vertex 257.64 26.6645 -10
      vertex 257.834 35.933 -10
      vertex 257.834 26.067 -10
    endloop
  endfacet
  facet normal 0 0 -1
    outer loop
      vertex 257.64 26.6645 -10
      vertex 257.64 35.3355 -10
      vertex 257.834 35.933 -10
    endloop
  endfacet
  facet normal 0 0 -1
    outer loop
      vertex 257.471 27.2697 -10
      vertex 257.64 35.3355 -10
      vertex 257.64 26.6645 -10
    endloop
  endfacet
  facet normal 0 0 -1
    outer loop
      vertex 257.471 27.2697 -10
      vertex 257.471 34.7303 -10
      vertex 257.64 35.3355 -10
    endloop
  endfacet
  facet normal 0 0 -1
    outer loop
      vertex 257.328 27.8813 -10
      vertex 257.471 34.7303 -10
      vertex 257.471 27.2697 -10
    endloop
  endfacet
  facet normal 0 0 -1
    outer loop
      vertex 257.328 27.8813 -10
      vertex 257.328 34.1187 -10
      vertex 257.471 34.7303 -10
    endloop
  endfacet
  facet normal 0 0 -1
    outer loop
      vertex 257.21 28.4985 -10
      vertex 257.328 34.1187 -10
      vertex 257.328 27.8813 -10
    endloop
  endfacet
  facet normal 0 0 -1
    outer loop
      vertex 257.21 28.4985 -10
      vertex 257.21 33.5015 -10
      vertex 257.328 34.1187 -10
    endloop
  endfacet
  facet normal 0 0 -1
    outer loop
      vertex 257.118 29.12 -10
      vertex 257.21 33.5015 -10
      vertex 257.21 28.4985 -10
    endloop
  endfacet
  facet normal 0 0 -1
    outer loop
      vertex 257.118 29.12 -10
      vertex 257.118 32.88 -10
      vertex 257.21 33.5015 -10
    endloop
  endfacet
  facet normal 0 0 -1
    outer loop
      vertex 257.053 29.7448 -10
      vertex 257.118 32.88 -10
      vertex 257.118 29.12 -10
    endloop
  endfacet
  facet normal 0 0 -1
    outer loop
      vertex 257.053 29.7448 -10
      vertex 257.053 32.2552 -10
      vertex 257.118 32.88 -10
    endloop
  endfacet
  facet normal 0 0 -1
    outer loop
      vertex 257.013 30.3719 -10
      vertex 257.053 32.2552 -10
      vertex 257.053 29.7448 -10
    endloop
  endfacet
  facet normal 0 0 -1
    outer loop
      vertex 257.013 30.3719 -10
      vertex 257.013 31.6281 -10
      vertex 257.053 32.2552 -10
    endloop
  endfacet
  facet normal 0 -0 -1
    outer loop
      vertex 257.013 31.6281 -10
      vertex 257.013 30.3719 -10
      vertex 257 31 -10
    endloop
  endfacet
  facet normal 0 0 1
    outer loop
      vertex 286.987 31.6281 10
      vertex 286.987 30.3719 10
      vertex 287 31 10
    endloop
  endfacet
  facet normal 0 0 1
    outer loop
      vertex 286.947 32.2552 10
      vertex 286.987 30.3719 10
      vertex 286.987 31.6281 10
    endloop
  endfacet
  facet normal 0 0 1
    outer loop
      vertex 286.947 32.2552 10
      vertex 286.947 29.7448 10
      vertex 286.987 30.3719 10
    endloop
  endfacet
  facet normal 0 0 1
    outer loop
      vertex 286.882 32.88 10
      vertex 286.947 29.7448 10
      vertex 286.947 32.2552 10
    endloop
  endfacet
  facet normal 0 0 1
    outer loop
      vertex 286.882 32.88 10
      vertex 286.882 29.12 10
      vertex 286.947 29.7448 10
    endloop
  endfacet
  facet normal 0 0 1
    outer loop
      vertex 286.79 33.5015 10
      vertex 286.882 29.12 10
      vertex 286.882 32.88 10
    endloop
  endfacet
  facet normal 0 0 1
    outer loop
      vertex 286.79 33.5015 10
      vertex 286.79 28.4985 10
      vertex 286.882 29.12 10
    endloop
  endfacet
  facet normal 0 0 1
    outer loop
      vertex 286.672 34.1187 10
      vertex 286.79 28.4985 10
      vertex 286.79 33.5015 10
    endloop
  endfacet
  facet normal 0 0 1
    outer loop
      vertex 286.672 34.1187 10
      vertex 286.672 27.8813 10
      vertex 286.79 28.4985 10
    endloop
  endfacet
  facet normal 0 0 1
    outer loop
      vertex 286.529 34.7303 10
      vertex 286.672 27.8813 10
      vertex 286.672 34.1187 10
    endloop
  endfacet
  facet normal 0 0 1
    outer loop
      vertex 286.529 34.7303 10
      vertex 286.529 27.2697 10
      vertex 286.672 27.8813 10
    endloop
  endfacet
  facet normal 0 0 1
    outer loop
      vertex 286.36 35.3355 10
      vertex 286.529 27.2697 10
      vertex 286.529 34.7303 10
    endloop
  endfacet
  facet normal 0 0 1
    outer loop
      vertex 286.36 35.3355 10
      vertex 286.36 26.6645 10
      vertex 286.529 27.2697 10
    endloop
  endfacet
  facet normal 0 0 1
    outer loop
      vertex 286.166 35.933 10
      vertex 286.36 26.6645 10
      vertex 286.36 35.3355 10
    endloop
  endfacet
  facet normal 0 0 1
    outer loop
      vertex 286.166 35.933 10
      vertex 286.166 26.067 10
      vertex 286.36 26.6645 10
    endloop
  endfacet
  facet normal 0 0 1
    outer loop
      vertex 285.947 36.5219 10
      vertex 286.166 26.067 10
      vertex 286.166 35.933 10
    endloop
  endfacet
  facet normal 0 0 1
    outer loop
      vertex 285.947 36.5219 10
      vertex 285.947 25.4781 10
      vertex 286.166 26.067 10
    endloop
  endfacet
  facet normal 0 0 1
    outer loop
      vertex 285.703 37.1011 10
      vertex 285.947 25.4781 10
      vertex 285.947 36.5219 10
    endloop
  endfacet
  facet normal 0 0 1
    outer loop
      vertex 285.703 37.1011 10
      vertex 285.703 24.899 10
      vertex 285.947 25.4781 10
    endloop
  endfacet
  facet normal 0 0 1
    outer loop
      vertex 285.436 37.6695 10
      vertex 285.703 24.899 10
      vertex 285.703 37.1011 10
    endloop
  endfacet
  facet normal 0 0 1
    outer loop
      vertex 285.436 37.6695 10
      vertex 285.436 24.3305 10
      vertex 285.703 24.899 10
    endloop
  endfacet
  facet normal 0 0 1
    outer loop
      vertex 285.145 38.2263 10
      vertex 285.436 24.3305 10
      vertex 285.436 37.6695 10
    endloop
  endfacet
  facet normal 0 0 1
    outer loop
      vertex 285.145 38.2263 10
      vertex 285.145 23.7737 10
      vertex 285.436 24.3305 10
    endloop
  endfacet
  facet normal 0 0 1
    outer loop
      vertex 284.83 38.7704 10
      vertex 285.145 23.7737 10
      vertex 285.145 38.2263 10
    endloop
  endfacet
  facet normal 0 0 1
    outer loop
      vertex 284.83 38.7704 10
      vertex 284.83 23.2296 10
      vertex 285.145 23.7737 10
    endloop
  endfacet
  facet normal 0 0 1
    outer loop
      vertex 284.494 39.3009 10
      vertex 284.83 23.2296 10
      vertex 284.83 38.7704 10
    endloop
  endfacet
  facet normal 0 0 1
    outer loop
      vertex 284.494 39.3009 10
      vertex 284.494 22.6991 10
      vertex 284.83 23.2296 10
    endloop
  endfacet
  facet normal 0 0 1
    outer loop
      vertex 284.135 39.8168 10
      vertex 284.494 22.6991 10
      vertex 284.494 39.3009 10
    endloop
  endfacet
  facet normal 0 0 1
    outer loop
      vertex 284.135 39.8168 10
      vertex 284.135 22.1832 10
      vertex 284.494 22.6991 10
    endloop
  endfacet
  facet normal 0 0 1
    outer loop
      vertex 283.755 40.3172 10
      vertex 284.135 22.1832 10
      vertex 284.135 39.8168 10
    endloop
  endfacet
  facet normal 0 0 1
    outer loop
      vertex 283.755 40.3172 10
      vertex 283.755 21.6828 10
      vertex 284.135 22.1832 10
    endloop
  endfacet
  facet normal 0 0 1
    outer loop
      vertex 283.355 40.8013 10
      vertex 283.755 21.6828 10
      vertex 283.755 40.3172 10
    endloop
  endfacet
  facet normal 0 0 1
    outer loop
      vertex 283.355 40.8013 10
      vertex 283.355 21.1987 10
      vertex 283.755 21.6828 10
    endloop
  endfacet
  facet normal 0 0 1
    outer loop
      vertex 282.935 41.2682 10
      vertex 283.355 21.1987 10
      vertex 283.355 40.8013 10
    endloop
  endfacet
  facet normal 0 0 1
    outer loop
      vertex 282.935 41.2682 10
      vertex 282.935 20.7318 10
      vertex 283.355 21.1987 10
    endloop
  endfacet
  facet normal 0 0 1
    outer loop
      vertex 282.495 41.7171 10
      vertex 282.935 20.7318 10
      vertex 282.935 41.2682 10
    endloop
  endfacet
  facet normal 0 0 1
    outer loop
      vertex 282.495 41.7171 10
      vertex 282.495 20.2829 10
      vertex 282.935 20.7318 10
    endloop
  endfacet
  facet normal 0 0 1
    outer loop
      vertex 282.037 42.1472 10
      vertex 282.495 20.2829 10
      vertex 282.495 41.7171 10
    endloop
  endfacet
  facet normal 0 0 1
    outer loop
      vertex 282.037 42.1472 10
      vertex 282.037 19.8528 10
      vertex 282.495 20.2829 10
    endloop
  endfacet
  facet normal 0 0 1
    outer loop
      vertex 281.561 42.5577 10
      vertex 282.037 19.8528 10
      vertex 282.037 42.1472 10
    endloop
  endfacet
  facet normal 0 0 1
    outer loop
      vertex 281.561 42.5577 10
      vertex 281.561 19.4423 10
      vertex 282.037 19.8528 10
    endloop
  endfacet
  facet normal 0 0 1
    outer loop
      vertex 281.069 42.9479 10
      vertex 281.561 19.4423 10
      vertex 281.561 42.5577 10
    endloop
  endfacet
  facet normal 0 0 1
    outer loop
      vertex 281.069 42.9479 10
      vertex 281.069 19.0521 10
      vertex 281.561 19.4423 10
    endloop
  endfacet
  facet normal 0 0 1
    outer loop
      vertex 280.561 43.3172 10
      vertex 281.069 19.0521 10
      vertex 281.069 42.9479 10
    endloop
  endfacet
  facet normal 0 0 1
    outer loop
      vertex 280.561 43.3172 10
      vertex 280.561 18.6828 10
      vertex 281.069 19.0521 10
    endloop
  endfacet
  facet normal 0 0 1
    outer loop
      vertex 280.037 43.6649 10
      vertex 280.561 18.6828 10
      vertex 280.561 43.3172 10
    endloop
  endfacet
  facet normal 0 0 1
    outer loop
      vertex 280.037 43.6649 10
      vertex 280.037 18.3351 10
      vertex 280.561 18.6828 10
    endloop
  endfacet
  facet normal 0 0 1
    outer loop
      vertex 279.5 43.9904 10
      vertex 280.037 18.3351 10
      vertex 280.037 43.6649 10
    endloop
  endfacet
  facet normal 0 0 1
    outer loop
      vertex 279.5 43.9904 10
      vertex 279.5 18.0096 10
      vertex 280.037 18.3351 10
    endloop
  endfacet
  facet normal 0 0 1
    outer loop
      vertex 278.949 44.2931 10
      vertex 279.5 18.0096 10
      vertex 279.5 43.9904 10
    endloop
  endfacet
  facet normal 0 0 1
    outer loop
      vertex 278.949 44.2931 10
      vertex 278.949 17.7069 10
      vertex 279.5 18.0096 10
    endloop
  endfacet
  facet normal 0 0 1
    outer loop
      vertex 278.387 44.5724 10
      vertex 278.949 17.7069 10
      vertex 278.949 44.2931 10
    endloop
  endfacet
  facet normal 0 0 1
    outer loop
      vertex 278.387 44.5724 10
      vertex 278.387 17.4276 10
      vertex 278.949 17.7069 10
    endloop
  endfacet
  facet normal 0 0 1
    outer loop
      vertex 277.813 44.8279 10
      vertex 278.387 17.4276 10
      vertex 278.387 44.5724 10
    endloop
  endfacet
  facet normal 0 0 1
    outer loop
      vertex 277.813 44.8279 10
      vertex 277.813 17.1721 10
      vertex 278.387 17.4276 10
    endloop
  endfacet
  facet normal 0 0 1
    outer loop
      vertex 277.229 45.0592 10
      vertex 277.813 17.1721 10
      vertex 277.813 44.8279 10
    endloop
  endfacet
  facet normal 0 0 1
    outer loop
      vertex 277.229 45.0592 10
      vertex 277.229 16.9408 10
      vertex 277.813 17.1721 10
    endloop
  endfacet
  facet normal 0 0 1
    outer loop
      vertex 276.635 45.2658 10
      vertex 277.229 16.9408 10
      vertex 277.229 45.0592 10
    endloop
  endfacet
  facet normal 0 0 1
    outer loop
      vertex 276.635 45.2658 10
      vertex 276.635 16.7342 10
      vertex 277.229 16.9408 10
    endloop
  endfacet
  facet normal 0 0 1
    outer loop
      vertex 276.034 45.4474 10
      vertex 276.635 16.7342 10
      vertex 276.635 45.2658 10
    endloop
  endfacet
  facet normal 0 0 1
    outer loop
      vertex 276.034 45.4474 10
      vertex 276.034 16.5526 10
      vertex 276.635 16.7342 10
    endloop
  endfacet
  facet normal 0 0 1
    outer loop
      vertex 275.425 45.6037 10
      vertex 276.034 16.5526 10
      vertex 276.034 45.4474 10
    endloop
  endfacet
  facet normal 0 0 1
    outer loop
      vertex 275.425 45.6037 10
      vertex 275.425 16.3963 10
      vertex 276.034 16.5526 10
    endloop
  endfacet
  facet normal 0 0 1
    outer loop
      vertex 274.811 45.7343 10
      vertex 275.425 16.3963 10
      vertex 275.425 45.6037 10
    endloop
  endfacet
  facet normal 0 0 1
    outer loop
      vertex 274.811 45.7343 10
      vertex 274.811 16.2657 10
      vertex 275.425 16.3963 10
    endloop
  endfacet
  facet normal 0 0 1
    outer loop
      vertex 274.191 45.8391 10
      vertex 274.811 16.2657 10
      vertex 274.811 45.7343 10
    endloop
  endfacet
  facet normal 0 0 1
    outer loop
      vertex 274.191 45.8391 10
      vertex 274.191 16.1609 10
      vertex 274.811 16.2657 10
    endloop
  endfacet
  facet normal 0 0 1
    outer loop
      vertex 273.568 45.9178 10
      vertex 274.191 16.1609 10
      vertex 274.191 45.8391 10
    endloop
  endfacet
  facet normal 0 0 1
    outer loop
      vertex 273.568 45.9178 10
      vertex 273.568 16.0822 10
      vertex 274.191 16.1609 10
    endloop
  endfacet
  facet normal 0 0 1
    outer loop
      vertex 272.942 45.9704 10
      vertex 273.568 16.0822 10
      vertex 273.568 45.9178 10
    endloop
  endfacet
  facet normal 0 0 1
    outer loop
      vertex 272.942 45.9704 10
      vertex 272.942 16.0296 10
      vertex 273.568 16.0822 10
    endloop
  endfacet
  facet normal 0 0 1
    outer loop
      vertex 272.314 45.9967 10
      vertex 272.942 16.0296 10
      vertex 272.942 45.9704 10
    endloop
  endfacet
  facet normal 0 0 1
    outer loop
      vertex 272.314 45.9967 10
      vertex 272.314 16.0033 10
      vertex 272.942 16.0296 10
    endloop
  endfacet
  facet normal -0 0 1
    outer loop
      vertex 271.686 45.9967 10
      vertex 272.314 16.0033 10
      vertex 272.314 45.9967 10
    endloop
  endfacet
  facet normal 0 0 1
    outer loop
      vertex 271.686 45.9967 10
      vertex 271.686 16.0033 10
      vertex 272.314 16.0033 10
    endloop
  endfacet
  facet normal -0 0 1
    outer loop
      vertex 271.058 45.9704 10
      vertex 271.686 16.0033 10
      vertex 271.686 45.9967 10
    endloop
  endfacet
  facet normal 0 0 1
    outer loop
      vertex 271.058 45.9704 10
      vertex 271.058 16.0296 10
      vertex 271.686 16.0033 10
    endloop
  endfacet
  facet normal -0 0 1
    outer loop
      vertex 270.432 45.9178 10
      vertex 271.058 16.0296 10
      vertex 271.058 45.9704 10
    endloop
  endfacet
  facet normal 0 0 1
    outer loop
      vertex 270.432 45.9178 10
      vertex 270.432 16.0822 10
      vertex 271.058 16.0296 10
    endloop
  endfacet
  facet normal -0 0 1
    outer loop
      vertex 269.809 45.8391 10
      vertex 270.432 16.0822 10
      vertex 270.432 45.9178 10
    endloop
  endfacet
  facet normal 0 0 1
    outer loop
      vertex 269.809 45.8391 10
      vertex 269.809 16.1609 10
      vertex 270.432 16.0822 10
    endloop
  endfacet
  facet normal -0 0 1
    outer loop
      vertex 269.189 45.7343 10
      vertex 269.809 16.1609 10
      vertex 269.809 45.8391 10
    endloop
  endfacet
  facet normal 0 0 1
    outer loop
      vertex 269.189 45.7343 10
      vertex 269.189 16.2657 10
      vertex 269.809 16.1609 10
    endloop
  endfacet
  facet normal -0 0 1
    outer loop
      vertex 268.575 45.6037 10
      vertex 269.189 16.2657 10
      vertex 269.189 45.7343 10
    endloop
  endfacet
  facet normal 0 0 1
    outer loop
      vertex 268.575 45.6037 10
      vertex 268.575 16.3963 10
      vertex 269.189 16.2657 10
    endloop
  endfacet
  facet normal -0 0 1
    outer loop
      vertex 267.966 45.4474 10
      vertex 268.575 16.3963 10
      vertex 268.575 45.6037 10
    endloop
  endfacet
  facet normal 0 0 1
    outer loop
      vertex 267.966 45.4474 10
      vertex 267.966 16.5526 10
      vertex 268.575 16.3963 10
    endloop
  endfacet
  facet normal -0 0 1
    outer loop
      vertex 267.365 45.2658 10
      vertex 267.966 16.5526 10
      vertex 267.966 45.4474 10
    endloop
  endfacet
  facet normal 0 0 1
    outer loop
      vertex 267.365 45.2658 10
      vertex 267.365 16.7342 10
      vertex 267.966 16.5526 10
    endloop
  endfacet
  facet normal -0 0 1
    outer loop
      vertex 266.771 45.0592 10
      vertex 267.365 16.7342 10
      vertex 267.365 45.2658 10
    endloop
  endfacet
  facet normal 0 0 1
    outer loop
      vertex 266.771 45.0592 10
      vertex 266.771 16.9408 10
      vertex 267.365 16.7342 10
    endloop
  endfacet
  facet normal -0 0 1
    outer loop
      vertex 266.187 44.8279 10
      vertex 266.771 16.9408 10
      vertex 266.771 45.0592 10
    endloop
  endfacet
  facet normal 0 0 1
    outer loop
      vertex 266.187 44.8279 10
      vertex 266.187 17.1721 10
      vertex 266.771 16.9408 10
    endloop
  endfacet
  facet normal -0 0 1
    outer loop
      vertex 265.613 44.5724 10
      vertex 266.187 17.1721 10
      vertex 266.187 44.8279 10
    endloop
  endfacet
  facet normal 0 0 1
    outer loop
      vertex 265.613 44.5724 10
      vertex 265.613 17.4276 10
      vertex 266.187 17.1721 10
    endloop
  endfacet
  facet normal -0 0 1
    outer loop
      vertex 265.051 44.2931 10
      vertex 265.613 17.4276 10
      vertex 265.613 44.5724 10
    endloop
  endfacet
  facet normal 0 0 1
    outer loop
      vertex 265.051 44.2931 10
      vertex 265.051 17.7069 10
      vertex 265.613 17.4276 10
    endloop
  endfacet
  facet normal -0 0 1
    outer loop
      vertex 264.5 43.9904 10
      vertex 265.051 17.7069 10
      vertex 265.051 44.2931 10
    endloop
  endfacet
  facet normal 0 0 1
    outer loop
      vertex 264.5 43.9904 10
      vertex 264.5 18.0096 10
      vertex 265.051 17.7069 10
    endloop
  endfacet
  facet normal -0 0 1
    outer loop
      vertex 263.963 43.6649 10
      vertex 264.5 18.0096 10
      vertex 264.5 43.9904 10
    endloop
  endfacet
  facet normal 0 0 1
    outer loop
      vertex 263.963 43.6649 10
      vertex 263.963 18.3351 10
      vertex 264.5 18.0096 10
    endloop
  endfacet
  facet normal -0 0 1
    outer loop
      vertex 263.439 43.3172 10
      vertex 263.963 18.3351 10
      vertex 263.963 43.6649 10
    endloop
  endfacet
  facet normal 0 0 1
    outer loop
      vertex 263.439 43.3172 10
      vertex 263.439 18.6828 10
      vertex 263.963 18.3351 10
    endloop
  endfacet
  facet normal -0 0 1
    outer loop
      vertex 262.931 42.9479 10
      vertex 263.439 18.6828 10
      vertex 263.439 43.3172 10
    endloop
  endfacet
  facet normal 0 0 1
    outer loop
      vertex 262.931 42.9479 10
      vertex 262.931 19.0521 10
      vertex 263.439 18.6828 10
    endloop
  endfacet
  facet normal -0 0 1
    outer loop
      vertex 262.439 42.5577 10
      vertex 262.931 19.0521 10
      vertex 262.931 42.9479 10
    endloop
  endfacet
  facet normal 0 0 1
    outer loop
      vertex 262.439 42.5577 10
      vertex 262.439 19.4423 10
      vertex 262.931 19.0521 10
    endloop
  endfacet
  facet normal -0 0 1
    outer loop
      vertex 261.963 42.1472 10
      vertex 262.439 19.4423 10
      vertex 262.439 42.5577 10
    endloop
  endfacet
  facet normal 0 0 1
    outer loop
      vertex 261.963 42.1472 10
      vertex 261.963 19.8528 10
      vertex 262.439 19.4423 10
    endloop
  endfacet
  facet normal -0 0 1
    outer loop
      vertex 261.505 41.7171 10
      vertex 261.963 19.8528 10
      vertex 261.963 42.1472 10
    endloop
  endfacet
  facet normal 0 0 1
    outer loop
      vertex 261.505 41.7171 10
      vertex 261.505 20.2829 10
      vertex 261.963 19.8528 10
    endloop
  endfacet
  facet normal -0 0 1
    outer loop
      vertex 261.065 41.2682 10
      vertex 261.505 20.2829 10
      vertex 261.505 41.7171 10
    endloop
  endfacet
  facet normal 0 0 1
    outer loop
      vertex 261.065 41.2682 10
      vertex 261.065 20.7318 10
      vertex 261.505 20.2829 10
    endloop
  endfacet
  facet normal -0 0 1
    outer loop
      vertex 260.645 40.8013 10
      vertex 261.065 20.7318 10
      vertex 261.065 41.2682 10
    endloop
  endfacet
  facet normal 0 0 1
    outer loop
      vertex 260.645 40.8013 10
      vertex 260.645 21.1987 10
      vertex 261.065 20.7318 10
    endloop
  endfacet
  facet normal -0 0 1
    outer loop
      vertex 260.245 40.3172 10
      vertex 260.645 21.1987 10
      vertex 260.645 40.8013 10
    endloop
  endfacet
  facet normal 0 0 1
    outer loop
      vertex 260.245 40.3172 10
      vertex 260.245 21.6828 10
      vertex 260.645 21.1987 10
    endloop
  endfacet
  facet normal -0 0 1
    outer loop
      vertex 259.865 39.8168 10
      vertex 260.245 21.6828 10
      vertex 260.245 40.3172 10
    endloop
  endfacet
  facet normal 0 0 1
    outer loop
      vertex 259.865 39.8168 10
      vertex 259.865 22.1832 10
      vertex 260.245 21.6828 10
    endloop
  endfacet
  facet normal -0 0 1
    outer loop
      vertex 259.506 39.3009 10
      vertex 259.865 22.1832 10
      vertex 259.865 39.8168 10
    endloop
  endfacet
  facet normal 0 0 1
    outer loop
      vertex 259.506 39.3009 10
      vertex 259.506 22.6991 10
      vertex 259.865 22.1832 10
    endloop
  endfacet
  facet normal -0 0 1
    outer loop
      vertex 259.17 38.7704 10
      vertex 259.506 22.6991 10
      vertex 259.506 39.3009 10
    endloop
  endfacet
  facet normal 0 0 1
    outer loop
      vertex 259.17 38.7704 10
      vertex 259.17 23.2296 10
      vertex 259.506 22.6991 10
    endloop
  endfacet
  facet normal -0 0 1
    outer loop
      vertex 258.855 38.2263 10
      vertex 259.17 23.2296 10
      vertex 259.17 38.7704 10
    endloop
  endfacet
  facet normal 0 0 1
    outer loop
      vertex 258.855 38.2263 10
      vertex 258.855 23.7737 10
      vertex 259.17 23.2296 10
    endloop
  endfacet
  facet normal -0 0 1
    outer loop
      vertex 258.564 37.6695 10
      vertex 258.855 23.7737 10
      vertex 258.855 38.2263 10
    endloop
  endfacet
  facet normal 0 0 1
    outer loop
      vertex 258.564 37.6695 10
      vertex 258.564 24.3305 10
      vertex 258.855 23.7737 10
    endloop
  endfacet
  facet normal -0 0 1
    outer loop
      vertex 258.297 37.1011 10
      vertex 258.564 24.3305 10
      vertex 258.564 37.6695 10
    endloop
  endfacet
  facet normal 0 0 1
    outer loop
      vertex 258.297 37.1011 10
      vertex 258.297 24.899 10
      vertex 258.564 24.3305 10
    endloop
  endfacet
  facet normal -0 0 1
    outer loop
      vertex 258.053 36.5219 10
      vertex 258.297 24.899 10
      vertex 258.297 37.1011 10
    endloop
  endfacet
  facet normal 0 0 1
    outer loop
      vertex 258.053 36.5219 10
      vertex 258.053 25.4781 10
      vertex 258.297 24.899 10
    endloop
  endfacet
  facet normal -0 0 1
    outer loop
      vertex 257.834 35.933 10
      vertex 258.053 25.4781 10
      vertex 258.053 36.5219 10
    endloop
  endfacet
  facet normal 0 0 1
    outer loop
      vertex 257.834 35.933 10
      vertex 257.834 26.067 10
      vertex 258.053 25.4781 10
    endloop
  endfacet
  facet normal -0 0 1
    outer loop
      vertex 257.64 35.3355 10
      vertex 257.834 26.067 10
      vertex 257.834 35.933 10
    endloop
  endfacet
  facet normal 0 0 1
    outer loop
      vertex 257.64 35.3355 10
      vertex 257.64 26.6645 10
      vertex 257.834 26.067 10
    endloop
  endfacet
  facet normal -0 0 1
    outer loop
      vertex 257.471 34.7303 10
      vertex 257.64 26.6645 10
      vertex 257.64 35.3355 10
    endloop
  endfacet
  facet normal 0 0 1
    outer loop
      vertex 257.471 34.7303 10
      vertex 257.471 27.2697 10
      vertex 257.64 26.6645 10
    endloop
  endfacet
  facet normal -0 0 1
    outer loop
      vertex 257.328 34.1187 10
      vertex 257.471 27.2697 10
      vertex 257.471 34.7303 10
    endloop
  endfacet
  facet normal 0 0 1
    outer loop
      vertex 257.328 34.1187 10
      vertex 257.328 27.8813 10
      vertex 257.471 27.2697 10
    endloop
  endfacet
  facet normal -0 0 1
    outer loop
      vertex 257.21 33.5015 10
      vertex 257.328 27.8813 10
      vertex 257.328 34.1187 10
    endloop
  endfacet
  facet normal 0 0 1
    outer loop
      vertex 257.21 33.5015 10
      vertex 257.21 28.4985 10
      vertex 257.328 27.8813 10
    endloop
  endfacet
  facet normal -0 0 1
    outer loop
      vertex 257.118 32.88 10
      vertex 257.21 28.4985 10
      vertex 257.21 33.5015 10
    endloop
  endfacet
  facet normal 0 0 1
    outer loop
      vertex 257.118 32.88 10
      vertex 257.118 29.12 10
      vertex 257.21 28.4985 10
    endloop
  endfacet
  facet normal -0 0 1
    outer loop
      vertex 257.053 32.2552 10
      vertex 257.118 29.12 10
      vertex 257.118 32.88 10
    endloop
  endfacet
  facet normal 0 0 1
    outer loop
      vertex 257.053 32.2552 10
      vertex 257.053 29.7448 10
      vertex 257.118 29.12 10
    endloop
  endfacet
  facet normal -0 0 1
    outer loop
      vertex 257.013 31.6281 10
      vertex 257.053 29.7448 10
      vertex 257.053 32.2552 10
    endloop
  endfacet
  facet normal 0 0 1
    outer loop
      vertex 257.013 31.6281 10
      vertex 257.013 30.3719 10
      vertex 257.053 29.7448 10
    endloop
  endfacet
  facet normal 0 -0 1
    outer loop
      vertex 257.013 30.3719 10
      vertex 257.013 31.6281 10
      vertex 257 31 10
    endloop
  endfacet
endsolid OpenSCAD_Model
