solid OpenSCAD_Model
  facet normal 0.499949 0.0157076 0.865912
    outer loop
      vertex 158.347 9.96234 25
      vertex 150 0 30
      vertex 158.66 0 25
    endloop
  endfacet
  facet normal 0.499945 0.0157119 0.865914
    outer loop
      vertex 158.347 9.96234 25
      vertex 149.704 9.41858 30
      vertex 150 0 30
    endloop
  endfacet
  facet normal 0.497972 0.047072 0.865914
    outer loop
      vertex 157.409 19.8854 25
      vertex 149.704 9.41858 30
      vertex 158.347 9.96234 25
    endloop
  endfacet
  facet normal 0.497963 0.0470817 0.865919
    outer loop
      vertex 157.409 19.8854 25
      vertex 148.817 18.8 30
      vertex 149.704 9.41858 30
    endloop
  endfacet
  facet normal 0.494027 0.0782354 0.865919
    outer loop
      vertex 155.85 29.7299 25
      vertex 148.817 18.8 30
      vertex 157.409 19.8854 25
    endloop
  endfacet
  facet normal 0.494023 0.0782393 0.865922
    outer loop
      vertex 155.85 29.7299 25
      vertex 147.343 28.1072 30
      vertex 148.817 18.8 30
    endloop
  endfacet
  facet normal 0.488127 0.109145 0.865921
    outer loop
      vertex 153.675 39.4571 25
      vertex 147.343 28.1072 30
      vertex 155.85 29.7299 25
    endloop
  endfacet
  facet normal 0.488143 0.109133 0.865914
    outer loop
      vertex 153.675 39.4571 25
      vertex 145.287 37.3035 30
      vertex 147.343 28.1072 30
    endloop
  endfacet
  facet normal 0.480343 0.139513 0.865914
    outer loop
      vertex 150.895 49.0286 25
      vertex 145.287 37.3035 30
      vertex 153.675 39.4571 25
    endloop
  endfacet
  facet normal 0.480302 0.13954 0.865932
    outer loop
      vertex 150.895 49.0286 25
      vertex 142.658 46.3526 30
      vertex 145.287 37.3035 30
    endloop
  endfacet
  facet normal 0.470583 0.169456 0.865931
    outer loop
      vertex 147.518 58.4066 25
      vertex 142.658 46.3526 30
      vertex 150.895 49.0286 25
    endloop
  endfacet
  facet normal 0.47062 0.169434 0.865915
    outer loop
      vertex 147.518 58.4066 25
      vertex 139.466 55.2187 30
      vertex 142.658 46.3526 30
    endloop
  endfacet
  facet normal 0.459062 0.19863 0.865915
    outer loop
      vertex 143.56 67.5541 25
      vertex 139.466 55.2187 30
      vertex 147.518 58.4066 25
    endloop
  endfacet
  facet normal 0.459059 0.198631 0.865916
    outer loop
      vertex 143.56 67.5541 25
      vertex 135.724 63.8669 30
      vertex 139.466 55.2187 30
    endloop
  endfacet
  facet normal 0.445673 0.227079 0.865916
    outer loop
      vertex 139.035 76.435 25
      vertex 135.724 63.8669 30
      vertex 143.56 67.5541 25
    endloop
  endfacet
  facet normal 0.445675 0.227079 0.865915
    outer loop
      vertex 139.035 76.435 25
      vertex 131.446 72.2631 30
      vertex 135.724 63.8669 30
    endloop
  endfacet
  facet normal 0.430531 0.254626 0.865915
    outer loop
      vertex 133.961 85.0143 25
      vertex 131.446 72.2631 30
      vertex 139.035 76.435 25
    endloop
  endfacet
  facet normal 0.43053 0.254627 0.865915
    outer loop
      vertex 133.961 85.0143 25
      vertex 126.649 80.374 30
      vertex 131.446 72.2631 30
    endloop
  endfacet
  facet normal 0.413707 0.281135 0.865915
    outer loop
      vertex 128.359 93.258 25
      vertex 126.649 80.374 30
      vertex 133.961 85.0143 25
    endloop
  endfacet
  facet normal 0.413722 0.28113 0.86591
    outer loop
      vertex 128.359 93.258 25
      vertex 121.353 88.1678 30
      vertex 126.649 80.374 30
    endloop
  endfacet
  facet normal 0.395241 0.306568 0.86591
    outer loop
      vertex 122.25 101.134 25
      vertex 121.353 88.1678 30
      vertex 128.359 93.258 25
    endloop
  endfacet
  facet normal 0.395205 0.306576 0.865924
    outer loop
      vertex 122.25 101.134 25
      vertex 115.577 95.6136 30
      vertex 121.353 88.1678 30
    endloop
  endfacet
  facet normal 0.375163 0.330802 0.865923
    outer loop
      vertex 115.658 108.61 25
      vertex 115.577 95.6136 30
      vertex 122.25 101.134 25
    endloop
  endfacet
  facet normal 0.375193 0.330797 0.865912
    outer loop
      vertex 115.658 108.61 25
      vertex 109.345 102.682 30
      vertex 115.577 95.6136 30
    endloop
  endfacet
  facet normal 0.353693 0.353693 0.865911
    outer loop
      vertex 108.61 115.658 25
      vertex 109.345 102.682 30
      vertex 115.658 108.61 25
    endloop
  endfacet
  facet normal 0.353693 0.353693 0.865911
    outer loop
      vertex 108.61 115.658 25
      vertex 102.682 109.345 30
      vertex 109.345 102.682 30
    endloop
  endfacet
  facet normal 0.330814 0.375177 0.865912
    outer loop
      vertex 101.134 122.25 25
      vertex 102.682 109.345 30
      vertex 108.61 115.658 25
    endloop
  endfacet
  facet normal 0.330783 0.375178 0.865924
    outer loop
      vertex 101.134 122.25 25
      vertex 95.6136 115.577 30
      vertex 102.682 109.345 30
    endloop
  endfacet
  facet normal 0.306553 0.395223 0.865924
    outer loop
      vertex 93.258 128.359 25
      vertex 95.6136 115.577 30
      vertex 101.134 122.25 25
    endloop
  endfacet
  facet normal 0.306591 0.395224 0.86591
    outer loop
      vertex 93.258 128.359 25
      vertex 88.1678 121.353 30
      vertex 95.6136 115.577 30
    endloop
  endfacet
  facet normal 0.28114 0.413715 0.86591
    outer loop
      vertex 85.0143 133.961 25
      vertex 88.1678 121.353 30
      vertex 93.258 128.359 25
    endloop
  endfacet
  facet normal 0.281125 0.413714 0.865916
    outer loop
      vertex 85.0143 133.961 25
      vertex 80.374 126.649 30
      vertex 88.1678 121.353 30
    endloop
  endfacet
  facet normal 0.254626 0.43053 0.865915
    outer loop
      vertex 76.435 139.035 25
      vertex 80.374 126.649 30
      vertex 85.0143 133.961 25
    endloop
  endfacet
  facet normal 0.254627 0.43053 0.865915
    outer loop
      vertex 76.435 139.035 25
      vertex 72.2631 131.446 30
      vertex 80.374 126.649 30
    endloop
  endfacet
  facet normal 0.22708 0.445674 0.865915
    outer loop
      vertex 67.5541 143.56 25
      vertex 72.2631 131.446 30
      vertex 76.435 139.035 25
    endloop
  endfacet
  facet normal 0.227078 0.445674 0.865916
    outer loop
      vertex 67.5541 143.56 25
      vertex 63.8669 135.724 30
      vertex 72.2631 131.446 30
    endloop
  endfacet
  facet normal 0.198629 0.45906 0.865916
    outer loop
      vertex 58.4066 147.518 25
      vertex 63.8669 135.724 30
      vertex 67.5541 143.56 25
    endloop
  endfacet
  facet normal 0.198632 0.459061 0.865915
    outer loop
      vertex 58.4066 147.518 25
      vertex 55.2187 139.466 30
      vertex 63.8669 135.724 30
    endloop
  endfacet
  facet normal 0.169465 0.470608 0.865915
    outer loop
      vertex 49.0286 150.895 25
      vertex 55.2187 139.466 30
      vertex 58.4066 147.518 25
    endloop
  endfacet
  facet normal 0.169424 0.470593 0.865931
    outer loop
      vertex 49.0286 150.895 25
      vertex 46.3526 142.658 30
      vertex 55.2187 139.466 30
    endloop
  endfacet
  facet normal 0.139505 0.480313 0.865931
    outer loop
      vertex 39.4571 153.675 25
      vertex 46.3526 142.658 30
      vertex 49.0286 150.895 25
    endloop
  endfacet
  facet normal 0.139549 0.480333 0.865913
    outer loop
      vertex 39.4571 153.675 25
      vertex 37.3035 145.287 30
      vertex 46.3526 142.658 30
    endloop
  endfacet
  facet normal 0.109148 0.488139 0.865914
    outer loop
      vertex 29.7299 155.85 25
      vertex 37.3035 145.287 30
      vertex 39.4571 153.675 25
    endloop
  endfacet
  facet normal 0.10913 0.48813 0.865921
    outer loop
      vertex 29.7299 155.85 25
      vertex 28.1072 147.343 30
      vertex 37.3035 145.287 30
    endloop
  endfacet
  facet normal 0.0782348 0.494023 0.865922
    outer loop
      vertex 19.8854 157.409 25
      vertex 28.1072 147.343 30
      vertex 29.7299 155.85 25
    endloop
  endfacet
  facet normal 0.07824 0.494026 0.865919
    outer loop
      vertex 19.8854 157.409 25
      vertex 18.8 148.817 30
      vertex 28.1072 147.343 30
    endloop
  endfacet
  facet normal 0.0470712 0.497964 0.865919
    outer loop
      vertex 9.96234 158.347 25
      vertex 18.8 148.817 30
      vertex 19.8854 157.409 25
    endloop
  endfacet
  facet normal 0.0470825 0.497972 0.865914
    outer loop
      vertex 9.96234 158.347 25
      vertex 9.41858 149.704 30
      vertex 18.8 148.817 30
    endloop
  endfacet
  facet normal 0.0157075 0.499946 0.865914
    outer loop
      vertex 0 158.66 25
      vertex 9.41858 149.704 30
      vertex 9.96234 158.347 25
    endloop
  endfacet
  facet normal 0.015712 0.499949 0.865912
    outer loop
      vertex 0 158.66 25
      vertex 0 150 30
      vertex 9.41858 149.704 30
    endloop
  endfacet
  facet normal -0.0157076 0.499949 0.865912
    outer loop
      vertex -9.96234 158.347 25
      vertex 0 150 30
      vertex 0 158.66 25
    endloop
  endfacet
  facet normal -0.0157119 0.499945 0.865914
    outer loop
      vertex -9.96234 158.347 25
      vertex -9.41858 149.704 30
      vertex 0 150 30
    endloop
  endfacet
  facet normal -0.047072 0.497972 0.865914
    outer loop
      vertex -19.8854 157.409 25
      vertex -9.41858 149.704 30
      vertex -9.96234 158.347 25
    endloop
  endfacet
  facet normal -0.0470817 0.497963 0.865919
    outer loop
      vertex -19.8854 157.409 25
      vertex -18.8 148.817 30
      vertex -9.41858 149.704 30
    endloop
  endfacet
  facet normal -0.0782354 0.494027 0.865919
    outer loop
      vertex -29.7299 155.85 25
      vertex -18.8 148.817 30
      vertex -19.8854 157.409 25
    endloop
  endfacet
  facet normal -0.0782393 0.494023 0.865922
    outer loop
      vertex -29.7299 155.85 25
      vertex -28.1072 147.343 30
      vertex -18.8 148.817 30
    endloop
  endfacet
  facet normal -0.109145 0.488127 0.865921
    outer loop
      vertex -39.4571 153.675 25
      vertex -28.1072 147.343 30
      vertex -29.7299 155.85 25
    endloop
  endfacet
  facet normal -0.109133 0.488143 0.865914
    outer loop
      vertex -39.4571 153.675 25
      vertex -37.3035 145.287 30
      vertex -28.1072 147.343 30
    endloop
  endfacet
  facet normal -0.139513 0.480343 0.865914
    outer loop
      vertex -49.0286 150.895 25
      vertex -37.3035 145.287 30
      vertex -39.4571 153.675 25
    endloop
  endfacet
  facet normal -0.13954 0.480302 0.865932
    outer loop
      vertex -49.0286 150.895 25
      vertex -46.3526 142.658 30
      vertex -37.3035 145.287 30
    endloop
  endfacet
  facet normal -0.169456 0.470583 0.865931
    outer loop
      vertex -58.4066 147.518 25
      vertex -46.3526 142.658 30
      vertex -49.0286 150.895 25
    endloop
  endfacet
  facet normal -0.169434 0.47062 0.865915
    outer loop
      vertex -58.4066 147.518 25
      vertex -55.2187 139.466 30
      vertex -46.3526 142.658 30
    endloop
  endfacet
  facet normal -0.19863 0.459062 0.865915
    outer loop
      vertex -67.5541 143.56 25
      vertex -55.2187 139.466 30
      vertex -58.4066 147.518 25
    endloop
  endfacet
  facet normal -0.198631 0.459059 0.865916
    outer loop
      vertex -67.5541 143.56 25
      vertex -63.8669 135.724 30
      vertex -55.2187 139.466 30
    endloop
  endfacet
  facet normal -0.227079 0.445673 0.865916
    outer loop
      vertex -76.435 139.035 25
      vertex -63.8669 135.724 30
      vertex -67.5541 143.56 25
    endloop
  endfacet
  facet normal -0.227079 0.445675 0.865915
    outer loop
      vertex -76.435 139.035 25
      vertex -72.2631 131.446 30
      vertex -63.8669 135.724 30
    endloop
  endfacet
  facet normal -0.254626 0.430531 0.865915
    outer loop
      vertex -85.0143 133.961 25
      vertex -72.2631 131.446 30
      vertex -76.435 139.035 25
    endloop
  endfacet
  facet normal -0.254627 0.43053 0.865915
    outer loop
      vertex -85.0143 133.961 25
      vertex -80.374 126.649 30
      vertex -72.2631 131.446 30
    endloop
  endfacet
  facet normal -0.281135 0.413707 0.865915
    outer loop
      vertex -93.258 128.359 25
      vertex -80.374 126.649 30
      vertex -85.0143 133.961 25
    endloop
  endfacet
  facet normal -0.28113 0.413722 0.86591
    outer loop
      vertex -93.258 128.359 25
      vertex -88.1678 121.353 30
      vertex -80.374 126.649 30
    endloop
  endfacet
  facet normal -0.306568 0.395241 0.86591
    outer loop
      vertex -101.134 122.25 25
      vertex -88.1678 121.353 30
      vertex -93.258 128.359 25
    endloop
  endfacet
  facet normal -0.306576 0.395205 0.865924
    outer loop
      vertex -101.134 122.25 25
      vertex -95.6136 115.577 30
      vertex -88.1678 121.353 30
    endloop
  endfacet
  facet normal -0.330802 0.375163 0.865923
    outer loop
      vertex -108.61 115.658 25
      vertex -95.6136 115.577 30
      vertex -101.134 122.25 25
    endloop
  endfacet
  facet normal -0.330797 0.375193 0.865912
    outer loop
      vertex -108.61 115.658 25
      vertex -102.682 109.345 30
      vertex -95.6136 115.577 30
    endloop
  endfacet
  facet normal -0.353693 0.353693 0.865911
    outer loop
      vertex -115.658 108.61 25
      vertex -102.682 109.345 30
      vertex -108.61 115.658 25
    endloop
  endfacet
  facet normal -0.353693 0.353693 0.865911
    outer loop
      vertex -115.658 108.61 25
      vertex -109.345 102.682 30
      vertex -102.682 109.345 30
    endloop
  endfacet
  facet normal -0.375177 0.330814 0.865912
    outer loop
      vertex -122.25 101.134 25
      vertex -109.345 102.682 30
      vertex -115.658 108.61 25
    endloop
  endfacet
  facet normal -0.375178 0.330783 0.865924
    outer loop
      vertex -122.25 101.134 25
      vertex -115.577 95.6136 30
      vertex -109.345 102.682 30
    endloop
  endfacet
  facet normal -0.395223 0.306553 0.865924
    outer loop
      vertex -128.359 93.258 25
      vertex -115.577 95.6136 30
      vertex -122.25 101.134 25
    endloop
  endfacet
  facet normal -0.395224 0.306591 0.86591
    outer loop
      vertex -128.359 93.258 25
      vertex -121.353 88.1678 30
      vertex -115.577 95.6136 30
    endloop
  endfacet
  facet normal -0.413715 0.28114 0.86591
    outer loop
      vertex -133.961 85.0143 25
      vertex -121.353 88.1678 30
      vertex -128.359 93.258 25
    endloop
  endfacet
  facet normal -0.413714 0.281125 0.865916
    outer loop
      vertex -133.961 85.0143 25
      vertex -126.649 80.374 30
      vertex -121.353 88.1678 30
    endloop
  endfacet
  facet normal -0.43053 0.254626 0.865915
    outer loop
      vertex -139.035 76.435 25
      vertex -126.649 80.374 30
      vertex -133.961 85.0143 25
    endloop
  endfacet
  facet normal -0.43053 0.254627 0.865915
    outer loop
      vertex -139.035 76.435 25
      vertex -131.446 72.2631 30
      vertex -126.649 80.374 30
    endloop
  endfacet
  facet normal -0.445674 0.22708 0.865915
    outer loop
      vertex -143.56 67.5541 25
      vertex -131.446 72.2631 30
      vertex -139.035 76.435 25
    endloop
  endfacet
  facet normal -0.445674 0.227078 0.865916
    outer loop
      vertex -143.56 67.5541 25
      vertex -135.724 63.8669 30
      vertex -131.446 72.2631 30
    endloop
  endfacet
  facet normal -0.45906 0.198629 0.865916
    outer loop
      vertex -147.518 58.4066 25
      vertex -135.724 63.8669 30
      vertex -143.56 67.5541 25
    endloop
  endfacet
  facet normal -0.459061 0.198632 0.865915
    outer loop
      vertex -147.518 58.4066 25
      vertex -139.466 55.2187 30
      vertex -135.724 63.8669 30
    endloop
  endfacet
  facet normal -0.470608 0.169465 0.865915
    outer loop
      vertex -150.895 49.0286 25
      vertex -139.466 55.2187 30
      vertex -147.518 58.4066 25
    endloop
  endfacet
  facet normal -0.470593 0.169424 0.865931
    outer loop
      vertex -150.895 49.0286 25
      vertex -142.658 46.3526 30
      vertex -139.466 55.2187 30
    endloop
  endfacet
  facet normal -0.480313 0.139505 0.865931
    outer loop
      vertex -153.675 39.4571 25
      vertex -142.658 46.3526 30
      vertex -150.895 49.0286 25
    endloop
  endfacet
  facet normal -0.480333 0.139549 0.865913
    outer loop
      vertex -153.675 39.4571 25
      vertex -145.287 37.3035 30
      vertex -142.658 46.3526 30
    endloop
  endfacet
  facet normal -0.488139 0.109148 0.865914
    outer loop
      vertex -155.85 29.7299 25
      vertex -145.287 37.3035 30
      vertex -153.675 39.4571 25
    endloop
  endfacet
  facet normal -0.48813 0.10913 0.865921
    outer loop
      vertex -155.85 29.7299 25
      vertex -147.343 28.1072 30
      vertex -145.287 37.3035 30
    endloop
  endfacet
  facet normal -0.494023 0.0782348 0.865922
    outer loop
      vertex -157.409 19.8854 25
      vertex -147.343 28.1072 30
      vertex -155.85 29.7299 25
    endloop
  endfacet
  facet normal -0.494026 0.07824 0.865919
    outer loop
      vertex -157.409 19.8854 25
      vertex -148.817 18.8 30
      vertex -147.343 28.1072 30
    endloop
  endfacet
  facet normal -0.497964 0.0470712 0.865919
    outer loop
      vertex -158.347 9.96234 25
      vertex -148.817 18.8 30
      vertex -157.409 19.8854 25
    endloop
  endfacet
  facet normal -0.497972 0.0470825 0.865914
    outer loop
      vertex -158.347 9.96234 25
      vertex -149.704 9.41858 30
      vertex -148.817 18.8 30
    endloop
  endfacet
  facet normal -0.499946 0.0157075 0.865914
    outer loop
      vertex -158.66 0 25
      vertex -149.704 9.41858 30
      vertex -158.347 9.96234 25
    endloop
  endfacet
  facet normal -0.499949 0.015712 0.865912
    outer loop
      vertex -158.66 0 25
      vertex -150 0 30
      vertex -149.704 9.41858 30
    endloop
  endfacet
  facet normal -0.499949 -0.0157076 0.865912
    outer loop
      vertex -158.347 -9.96234 25
      vertex -150 0 30
      vertex -158.66 0 25
    endloop
  endfacet
  facet normal -0.499945 -0.0157119 0.865914
    outer loop
      vertex -158.347 -9.96234 25
      vertex -149.704 -9.41858 30
      vertex -150 0 30
    endloop
  endfacet
  facet normal -0.497972 -0.047072 0.865914
    outer loop
      vertex -157.409 -19.8854 25
      vertex -149.704 -9.41858 30
      vertex -158.347 -9.96234 25
    endloop
  endfacet
  facet normal -0.497963 -0.0470817 0.865919
    outer loop
      vertex -157.409 -19.8854 25
      vertex -148.817 -18.8 30
      vertex -149.704 -9.41858 30
    endloop
  endfacet
  facet normal -0.494027 -0.0782354 0.865919
    outer loop
      vertex -155.85 -29.7299 25
      vertex -148.817 -18.8 30
      vertex -157.409 -19.8854 25
    endloop
  endfacet
  facet normal -0.494023 -0.0782393 0.865922
    outer loop
      vertex -155.85 -29.7299 25
      vertex -147.343 -28.1072 30
      vertex -148.817 -18.8 30
    endloop
  endfacet
  facet normal -0.488127 -0.109145 0.865921
    outer loop
      vertex -153.675 -39.4571 25
      vertex -147.343 -28.1072 30
      vertex -155.85 -29.7299 25
    endloop
  endfacet
  facet normal -0.488143 -0.109133 0.865914
    outer loop
      vertex -153.675 -39.4571 25
      vertex -145.287 -37.3035 30
      vertex -147.343 -28.1072 30
    endloop
  endfacet
  facet normal -0.480343 -0.139513 0.865914
    outer loop
      vertex -150.895 -49.0286 25
      vertex -145.287 -37.3035 30
      vertex -153.675 -39.4571 25
    endloop
  endfacet
  facet normal -0.480302 -0.13954 0.865932
    outer loop
      vertex -150.895 -49.0286 25
      vertex -142.658 -46.3526 30
      vertex -145.287 -37.3035 30
    endloop
  endfacet
  facet normal -0.470583 -0.169456 0.865931
    outer loop
      vertex -147.518 -58.4066 25
      vertex -142.658 -46.3526 30
      vertex -150.895 -49.0286 25
    endloop
  endfacet
  facet normal -0.47062 -0.169434 0.865915
    outer loop
      vertex -147.518 -58.4066 25
      vertex -139.466 -55.2187 30
      vertex -142.658 -46.3526 30
    endloop
  endfacet
  facet normal -0.459062 -0.19863 0.865915
    outer loop
      vertex -143.56 -67.5541 25
      vertex -139.466 -55.2187 30
      vertex -147.518 -58.4066 25
    endloop
  endfacet
  facet normal -0.459059 -0.198631 0.865916
    outer loop
      vertex -143.56 -67.5541 25
      vertex -135.724 -63.8669 30
      vertex -139.466 -55.2187 30
    endloop
  endfacet
  facet normal -0.445673 -0.227079 0.865916
    outer loop
      vertex -139.035 -76.435 25
      vertex -135.724 -63.8669 30
      vertex -143.56 -67.5541 25
    endloop
  endfacet
  facet normal -0.445675 -0.227079 0.865915
    outer loop
      vertex -139.035 -76.435 25
      vertex -131.446 -72.2631 30
      vertex -135.724 -63.8669 30
    endloop
  endfacet
  facet normal -0.430531 -0.254626 0.865915
    outer loop
      vertex -133.961 -85.0143 25
      vertex -131.446 -72.2631 30
      vertex -139.035 -76.435 25
    endloop
  endfacet
  facet normal -0.43053 -0.254627 0.865915
    outer loop
      vertex -133.961 -85.0143 25
      vertex -126.649 -80.374 30
      vertex -131.446 -72.2631 30
    endloop
  endfacet
  facet normal -0.413707 -0.281135 0.865915
    outer loop
      vertex -128.359 -93.258 25
      vertex -126.649 -80.374 30
      vertex -133.961 -85.0143 25
    endloop
  endfacet
  facet normal -0.413722 -0.28113 0.86591
    outer loop
      vertex -128.359 -93.258 25
      vertex -121.353 -88.1678 30
      vertex -126.649 -80.374 30
    endloop
  endfacet
  facet normal -0.395241 -0.306568 0.86591
    outer loop
      vertex -122.25 -101.134 25
      vertex -121.353 -88.1678 30
      vertex -128.359 -93.258 25
    endloop
  endfacet
  facet normal -0.395205 -0.306576 0.865924
    outer loop
      vertex -122.25 -101.134 25
      vertex -115.577 -95.6136 30
      vertex -121.353 -88.1678 30
    endloop
  endfacet
  facet normal -0.375163 -0.330802 0.865923
    outer loop
      vertex -115.658 -108.61 25
      vertex -115.577 -95.6136 30
      vertex -122.25 -101.134 25
    endloop
  endfacet
  facet normal -0.375193 -0.330797 0.865912
    outer loop
      vertex -115.658 -108.61 25
      vertex -109.345 -102.682 30
      vertex -115.577 -95.6136 30
    endloop
  endfacet
  facet normal -0.353693 -0.353693 0.865911
    outer loop
      vertex -108.61 -115.658 25
      vertex -109.345 -102.682 30
      vertex -115.658 -108.61 25
    endloop
  endfacet
  facet normal -0.353693 -0.353693 0.865911
    outer loop
      vertex -108.61 -115.658 25
      vertex -102.682 -109.345 30
      vertex -109.345 -102.682 30
    endloop
  endfacet
  facet normal -0.330814 -0.375177 0.865912
    outer loop
      vertex -101.134 -122.25 25
      vertex -102.682 -109.345 30
      vertex -108.61 -115.658 25
    endloop
  endfacet
  facet normal -0.330783 -0.375178 0.865924
    outer loop
      vertex -101.134 -122.25 25
      vertex -95.6136 -115.577 30
      vertex -102.682 -109.345 30
    endloop
  endfacet
  facet normal -0.306553 -0.395223 0.865924
    outer loop
      vertex -93.258 -128.359 25
      vertex -95.6136 -115.577 30
      vertex -101.134 -122.25 25
    endloop
  endfacet
  facet normal -0.306591 -0.395224 0.86591
    outer loop
      vertex -93.258 -128.359 25
      vertex -88.1678 -121.353 30
      vertex -95.6136 -115.577 30
    endloop
  endfacet
  facet normal -0.28114 -0.413715 0.86591
    outer loop
      vertex -85.0143 -133.961 25
      vertex -88.1678 -121.353 30
      vertex -93.258 -128.359 25
    endloop
  endfacet
  facet normal -0.281125 -0.413714 0.865916
    outer loop
      vertex -85.0143 -133.961 25
      vertex -80.374 -126.649 30
      vertex -88.1678 -121.353 30
    endloop
  endfacet
  facet normal -0.254626 -0.43053 0.865915
    outer loop
      vertex -76.435 -139.035 25
      vertex -80.374 -126.649 30
      vertex -85.0143 -133.961 25
    endloop
  endfacet
  facet normal -0.254627 -0.43053 0.865915
    outer loop
      vertex -76.435 -139.035 25
      vertex -72.2631 -131.446 30
      vertex -80.374 -126.649 30
    endloop
  endfacet
  facet normal -0.22708 -0.445674 0.865915
    outer loop
      vertex -67.5541 -143.56 25
      vertex -72.2631 -131.446 30
      vertex -76.435 -139.035 25
    endloop
  endfacet
  facet normal -0.227078 -0.445674 0.865916
    outer loop
      vertex -67.5541 -143.56 25
      vertex -63.8669 -135.724 30
      vertex -72.2631 -131.446 30
    endloop
  endfacet
  facet normal -0.198629 -0.45906 0.865916
    outer loop
      vertex -58.4066 -147.518 25
      vertex -63.8669 -135.724 30
      vertex -67.5541 -143.56 25
    endloop
  endfacet
  facet normal -0.198632 -0.459061 0.865915
    outer loop
      vertex -58.4066 -147.518 25
      vertex -55.2187 -139.466 30
      vertex -63.8669 -135.724 30
    endloop
  endfacet
  facet normal -0.169465 -0.470608 0.865915
    outer loop
      vertex -49.0286 -150.895 25
      vertex -55.2187 -139.466 30
      vertex -58.4066 -147.518 25
    endloop
  endfacet
  facet normal -0.169424 -0.470593 0.865931
    outer loop
      vertex -49.0286 -150.895 25
      vertex -46.3526 -142.658 30
      vertex -55.2187 -139.466 30
    endloop
  endfacet
  facet normal -0.139505 -0.480313 0.865931
    outer loop
      vertex -39.4571 -153.675 25
      vertex -46.3526 -142.658 30
      vertex -49.0286 -150.895 25
    endloop
  endfacet
  facet normal -0.139549 -0.480333 0.865913
    outer loop
      vertex -39.4571 -153.675 25
      vertex -37.3035 -145.287 30
      vertex -46.3526 -142.658 30
    endloop
  endfacet
  facet normal -0.109148 -0.488139 0.865914
    outer loop
      vertex -29.7299 -155.85 25
      vertex -37.3035 -145.287 30
      vertex -39.4571 -153.675 25
    endloop
  endfacet
  facet normal -0.10913 -0.48813 0.865921
    outer loop
      vertex -29.7299 -155.85 25
      vertex -28.1072 -147.343 30
      vertex -37.3035 -145.287 30
    endloop
  endfacet
  facet normal -0.0782348 -0.494023 0.865922
    outer loop
      vertex -19.8854 -157.409 25
      vertex -28.1072 -147.343 30
      vertex -29.7299 -155.85 25
    endloop
  endfacet
  facet normal -0.07824 -0.494026 0.865919
    outer loop
      vertex -19.8854 -157.409 25
      vertex -18.8 -148.817 30
      vertex -28.1072 -147.343 30
    endloop
  endfacet
  facet normal -0.0470712 -0.497964 0.865919
    outer loop
      vertex -9.96234 -158.347 25
      vertex -18.8 -148.817 30
      vertex -19.8854 -157.409 25
    endloop
  endfacet
  facet normal -0.0470825 -0.497972 0.865914
    outer loop
      vertex -9.96234 -158.347 25
      vertex -9.41858 -149.704 30
      vertex -18.8 -148.817 30
    endloop
  endfacet
  facet normal -0.0157075 -0.499946 0.865914
    outer loop
      vertex 0 -158.66 25
      vertex -9.41858 -149.704 30
      vertex -9.96234 -158.347 25
    endloop
  endfacet
  facet normal -0.015712 -0.499949 0.865912
    outer loop
      vertex 0 -158.66 25
      vertex 0 -150 30
      vertex -9.41858 -149.704 30
    endloop
  endfacet
  facet normal 0.0157076 -0.499949 0.865912
    outer loop
      vertex 9.96234 -158.347 25
      vertex 0 -150 30
      vertex 0 -158.66 25
    endloop
  endfacet
  facet normal 0.0157119 -0.499945 0.865914
    outer loop
      vertex 9.96234 -158.347 25
      vertex 9.41858 -149.704 30
      vertex 0 -150 30
    endloop
  endfacet
  facet normal 0.047072 -0.497972 0.865914
    outer loop
      vertex 19.8854 -157.409 25
      vertex 9.41858 -149.704 30
      vertex 9.96234 -158.347 25
    endloop
  endfacet
  facet normal 0.0470817 -0.497963 0.865919
    outer loop
      vertex 19.8854 -157.409 25
      vertex 18.8 -148.817 30
      vertex 9.41858 -149.704 30
    endloop
  endfacet
  facet normal 0.0782354 -0.494027 0.865919
    outer loop
      vertex 29.7299 -155.85 25
      vertex 18.8 -148.817 30
      vertex 19.8854 -157.409 25
    endloop
  endfacet
  facet normal 0.0782393 -0.494023 0.865922
    outer loop
      vertex 29.7299 -155.85 25
      vertex 28.1072 -147.343 30
      vertex 18.8 -148.817 30
    endloop
  endfacet
  facet normal 0.109145 -0.488127 0.865921
    outer loop
      vertex 39.4571 -153.675 25
      vertex 28.1072 -147.343 30
      vertex 29.7299 -155.85 25
    endloop
  endfacet
  facet normal 0.109133 -0.488143 0.865914
    outer loop
      vertex 39.4571 -153.675 25
      vertex 37.3035 -145.287 30
      vertex 28.1072 -147.343 30
    endloop
  endfacet
  facet normal 0.139513 -0.480343 0.865914
    outer loop
      vertex 49.0286 -150.895 25
      vertex 37.3035 -145.287 30
      vertex 39.4571 -153.675 25
    endloop
  endfacet
  facet normal 0.13954 -0.480302 0.865932
    outer loop
      vertex 49.0286 -150.895 25
      vertex 46.3526 -142.658 30
      vertex 37.3035 -145.287 30
    endloop
  endfacet
  facet normal 0.169456 -0.470583 0.865931
    outer loop
      vertex 58.4066 -147.518 25
      vertex 46.3526 -142.658 30
      vertex 49.0286 -150.895 25
    endloop
  endfacet
  facet normal 0.169434 -0.47062 0.865915
    outer loop
      vertex 58.4066 -147.518 25
      vertex 55.2187 -139.466 30
      vertex 46.3526 -142.658 30
    endloop
  endfacet
  facet normal 0.19863 -0.459062 0.865915
    outer loop
      vertex 67.5541 -143.56 25
      vertex 55.2187 -139.466 30
      vertex 58.4066 -147.518 25
    endloop
  endfacet
  facet normal 0.198631 -0.459059 0.865916
    outer loop
      vertex 67.5541 -143.56 25
      vertex 63.8669 -135.724 30
      vertex 55.2187 -139.466 30
    endloop
  endfacet
  facet normal 0.227079 -0.445673 0.865916
    outer loop
      vertex 76.435 -139.035 25
      vertex 63.8669 -135.724 30
      vertex 67.5541 -143.56 25
    endloop
  endfacet
  facet normal 0.227079 -0.445675 0.865915
    outer loop
      vertex 76.435 -139.035 25
      vertex 72.2631 -131.446 30
      vertex 63.8669 -135.724 30
    endloop
  endfacet
  facet normal 0.254626 -0.430531 0.865915
    outer loop
      vertex 85.0143 -133.961 25
      vertex 72.2631 -131.446 30
      vertex 76.435 -139.035 25
    endloop
  endfacet
  facet normal 0.254627 -0.43053 0.865915
    outer loop
      vertex 85.0143 -133.961 25
      vertex 80.374 -126.649 30
      vertex 72.2631 -131.446 30
    endloop
  endfacet
  facet normal 0.281135 -0.413707 0.865915
    outer loop
      vertex 93.258 -128.359 25
      vertex 80.374 -126.649 30
      vertex 85.0143 -133.961 25
    endloop
  endfacet
  facet normal 0.28113 -0.413722 0.86591
    outer loop
      vertex 93.258 -128.359 25
      vertex 88.1678 -121.353 30
      vertex 80.374 -126.649 30
    endloop
  endfacet
  facet normal 0.306568 -0.395241 0.86591
    outer loop
      vertex 101.134 -122.25 25
      vertex 88.1678 -121.353 30
      vertex 93.258 -128.359 25
    endloop
  endfacet
  facet normal 0.306576 -0.395205 0.865924
    outer loop
      vertex 101.134 -122.25 25
      vertex 95.6136 -115.577 30
      vertex 88.1678 -121.353 30
    endloop
  endfacet
  facet normal 0.330802 -0.375163 0.865923
    outer loop
      vertex 108.61 -115.658 25
      vertex 95.6136 -115.577 30
      vertex 101.134 -122.25 25
    endloop
  endfacet
  facet normal 0.330797 -0.375193 0.865912
    outer loop
      vertex 108.61 -115.658 25
      vertex 102.682 -109.345 30
      vertex 95.6136 -115.577 30
    endloop
  endfacet
  facet normal 0.353693 -0.353693 0.865911
    outer loop
      vertex 115.658 -108.61 25
      vertex 102.682 -109.345 30
      vertex 108.61 -115.658 25
    endloop
  endfacet
  facet normal 0.353693 -0.353693 0.865911
    outer loop
      vertex 115.658 -108.61 25
      vertex 109.345 -102.682 30
      vertex 102.682 -109.345 30
    endloop
  endfacet
  facet normal 0.375177 -0.330814 0.865912
    outer loop
      vertex 122.25 -101.134 25
      vertex 109.345 -102.682 30
      vertex 115.658 -108.61 25
    endloop
  endfacet
  facet normal 0.375178 -0.330783 0.865924
    outer loop
      vertex 122.25 -101.134 25
      vertex 115.577 -95.6136 30
      vertex 109.345 -102.682 30
    endloop
  endfacet
  facet normal 0.395223 -0.306553 0.865924
    outer loop
      vertex 128.359 -93.258 25
      vertex 115.577 -95.6136 30
      vertex 122.25 -101.134 25
    endloop
  endfacet
  facet normal 0.395224 -0.306591 0.86591
    outer loop
      vertex 128.359 -93.258 25
      vertex 121.353 -88.1678 30
      vertex 115.577 -95.6136 30
    endloop
  endfacet
  facet normal 0.413715 -0.28114 0.86591
    outer loop
      vertex 133.961 -85.0143 25
      vertex 121.353 -88.1678 30
      vertex 128.359 -93.258 25
    endloop
  endfacet
  facet normal 0.413714 -0.281125 0.865916
    outer loop
      vertex 133.961 -85.0143 25
      vertex 126.649 -80.374 30
      vertex 121.353 -88.1678 30
    endloop
  endfacet
  facet normal 0.43053 -0.254626 0.865915
    outer loop
      vertex 139.035 -76.435 25
      vertex 126.649 -80.374 30
      vertex 133.961 -85.0143 25
    endloop
  endfacet
  facet normal 0.43053 -0.254627 0.865915
    outer loop
      vertex 139.035 -76.435 25
      vertex 131.446 -72.2631 30
      vertex 126.649 -80.374 30
    endloop
  endfacet
  facet normal 0.445674 -0.22708 0.865915
    outer loop
      vertex 143.56 -67.5541 25
      vertex 131.446 -72.2631 30
      vertex 139.035 -76.435 25
    endloop
  endfacet
  facet normal 0.445674 -0.227078 0.865916
    outer loop
      vertex 143.56 -67.5541 25
      vertex 135.724 -63.8669 30
      vertex 131.446 -72.2631 30
    endloop
  endfacet
  facet normal 0.45906 -0.198629 0.865916
    outer loop
      vertex 147.518 -58.4066 25
      vertex 135.724 -63.8669 30
      vertex 143.56 -67.5541 25
    endloop
  endfacet
  facet normal 0.459061 -0.198632 0.865915
    outer loop
      vertex 147.518 -58.4066 25
      vertex 139.466 -55.2187 30
      vertex 135.724 -63.8669 30
    endloop
  endfacet
  facet normal 0.470608 -0.169465 0.865915
    outer loop
      vertex 150.895 -49.0286 25
      vertex 139.466 -55.2187 30
      vertex 147.518 -58.4066 25
    endloop
  endfacet
  facet normal 0.470593 -0.169424 0.865931
    outer loop
      vertex 150.895 -49.0286 25
      vertex 142.658 -46.3526 30
      vertex 139.466 -55.2187 30
    endloop
  endfacet
  facet normal 0.480313 -0.139505 0.865931
    outer loop
      vertex 153.675 -39.4571 25
      vertex 142.658 -46.3526 30
      vertex 150.895 -49.0286 25
    endloop
  endfacet
  facet normal 0.480333 -0.139549 0.865913
    outer loop
      vertex 153.675 -39.4571 25
      vertex 145.287 -37.3035 30
      vertex 142.658 -46.3526 30
    endloop
  endfacet
  facet normal 0.488139 -0.109148 0.865914
    outer loop
      vertex 155.85 -29.7299 25
      vertex 145.287 -37.3035 30
      vertex 153.675 -39.4571 25
    endloop
  endfacet
  facet normal 0.48813 -0.10913 0.865921
    outer loop
      vertex 155.85 -29.7299 25
      vertex 147.343 -28.1072 30
      vertex 145.287 -37.3035 30
    endloop
  endfacet
  facet normal 0.494023 -0.0782348 0.865922
    outer loop
      vertex 157.409 -19.8854 25
      vertex 147.343 -28.1072 30
      vertex 155.85 -29.7299 25
    endloop
  endfacet
  facet normal 0.494026 -0.07824 0.865919
    outer loop
      vertex 157.409 -19.8854 25
      vertex 148.817 -18.8 30
      vertex 147.343 -28.1072 30
    endloop
  endfacet
  facet normal 0.497964 -0.0470712 0.865919
    outer loop
      vertex 158.347 -9.96234 25
      vertex 148.817 -18.8 30
      vertex 157.409 -19.8854 25
    endloop
  endfacet
  facet normal 0.497972 -0.0470825 0.865914
    outer loop
      vertex 158.347 -9.96234 25
      vertex 149.704 -9.41858 30
      vertex 148.817 -18.8 30
    endloop
  endfacet
  facet normal 0.499946 -0.0157075 0.865914
    outer loop
      vertex 158.66 0 25
      vertex 149.704 -9.41858 30
      vertex 158.347 -9.96234 25
    endloop
  endfacet
  facet normal 0.499949 -0.015712 0.865912
    outer loop
      vertex 158.66 0 25
      vertex 150 0 30
      vertex 149.704 -9.41858 30
    endloop
  endfacet
  facet normal 0 0 -1
    outer loop
      vertex 158.347 -9.96234 25
      vertex 158.347 9.96234 25
      vertex 158.66 0 25
    endloop
  endfacet
  facet normal 0 0 -1
    outer loop
      vertex 157.409 -19.8854 25
      vertex 158.347 9.96234 25
      vertex 158.347 -9.96234 25
    endloop
  endfacet
  facet normal 0 0 -1
    outer loop
      vertex 157.409 -19.8854 25
      vertex 157.409 19.8854 25
      vertex 158.347 9.96234 25
    endloop
  endfacet
  facet normal 0 0 -1
    outer loop
      vertex 155.85 -29.7299 25
      vertex 157.409 19.8854 25
      vertex 157.409 -19.8854 25
    endloop
  endfacet
  facet normal 0 0 -1
    outer loop
      vertex 155.85 -29.7299 25
      vertex 155.85 29.7299 25
      vertex 157.409 19.8854 25
    endloop
  endfacet
  facet normal 0 0 -1
    outer loop
      vertex 153.675 -39.4571 25
      vertex 155.85 29.7299 25
      vertex 155.85 -29.7299 25
    endloop
  endfacet
  facet normal 0 0 -1
    outer loop
      vertex 153.675 -39.4571 25
      vertex 153.675 39.4571 25
      vertex 155.85 29.7299 25
    endloop
  endfacet
  facet normal 0 0 -1
    outer loop
      vertex 150.895 -49.0286 25
      vertex 153.675 39.4571 25
      vertex 153.675 -39.4571 25
    endloop
  endfacet
  facet normal 0 0 -1
    outer loop
      vertex 150.895 -49.0286 25
      vertex 150.895 49.0286 25
      vertex 153.675 39.4571 25
    endloop
  endfacet
  facet normal 0 0 -1
    outer loop
      vertex 147.518 -58.4066 25
      vertex 150.895 49.0286 25
      vertex 150.895 -49.0286 25
    endloop
  endfacet
  facet normal 0 0 -1
    outer loop
      vertex 147.518 -58.4066 25
      vertex 147.518 58.4066 25
      vertex 150.895 49.0286 25
    endloop
  endfacet
  facet normal 0 0 -1
    outer loop
      vertex 143.56 -67.5541 25
      vertex 147.518 58.4066 25
      vertex 147.518 -58.4066 25
    endloop
  endfacet
  facet normal 0 0 -1
    outer loop
      vertex 143.56 -67.5541 25
      vertex 143.56 67.5541 25
      vertex 147.518 58.4066 25
    endloop
  endfacet
  facet normal 0 0 -1
    outer loop
      vertex 139.035 -76.435 25
      vertex 143.56 67.5541 25
      vertex 143.56 -67.5541 25
    endloop
  endfacet
  facet normal 0 0 -1
    outer loop
      vertex 139.035 -76.435 25
      vertex 139.035 76.435 25
      vertex 143.56 67.5541 25
    endloop
  endfacet
  facet normal 0 0 -1
    outer loop
      vertex 133.961 -85.0143 25
      vertex 139.035 76.435 25
      vertex 139.035 -76.435 25
    endloop
  endfacet
  facet normal 0 0 -1
    outer loop
      vertex 133.961 -85.0143 25
      vertex 133.961 85.0143 25
      vertex 139.035 76.435 25
    endloop
  endfacet
  facet normal 0 0 -1
    outer loop
      vertex 128.359 -93.258 25
      vertex 133.961 85.0143 25
      vertex 133.961 -85.0143 25
    endloop
  endfacet
  facet normal 0 0 -1
    outer loop
      vertex 128.359 -93.258 25
      vertex 128.359 93.258 25
      vertex 133.961 85.0143 25
    endloop
  endfacet
  facet normal 0 0 -1
    outer loop
      vertex 122.25 -101.134 25
      vertex 128.359 93.258 25
      vertex 128.359 -93.258 25
    endloop
  endfacet
  facet normal 0 0 -1
    outer loop
      vertex 122.25 -101.134 25
      vertex 122.25 101.134 25
      vertex 128.359 93.258 25
    endloop
  endfacet
  facet normal 0 0 -1
    outer loop
      vertex 115.658 -108.61 25
      vertex 122.25 101.134 25
      vertex 122.25 -101.134 25
    endloop
  endfacet
  facet normal 0 0 -1
    outer loop
      vertex 115.658 -108.61 25
      vertex 115.658 108.61 25
      vertex 122.25 101.134 25
    endloop
  endfacet
  facet normal 0 0 -1
    outer loop
      vertex 108.61 -115.658 25
      vertex 115.658 108.61 25
      vertex 115.658 -108.61 25
    endloop
  endfacet
  facet normal 0 0 -1
    outer loop
      vertex 108.61 -115.658 25
      vertex 108.61 115.658 25
      vertex 115.658 108.61 25
    endloop
  endfacet
  facet normal 0 0 -1
    outer loop
      vertex 101.134 -122.25 25
      vertex 108.61 115.658 25
      vertex 108.61 -115.658 25
    endloop
  endfacet
  facet normal 0 0 -1
    outer loop
      vertex 101.134 -122.25 25
      vertex 101.134 122.25 25
      vertex 108.61 115.658 25
    endloop
  endfacet
  facet normal 0 0 -1
    outer loop
      vertex 93.258 -128.359 25
      vertex 101.134 122.25 25
      vertex 101.134 -122.25 25
    endloop
  endfacet
  facet normal 0 0 -1
    outer loop
      vertex 93.258 -128.359 25
      vertex 93.258 128.359 25
      vertex 101.134 122.25 25
    endloop
  endfacet
  facet normal 0 0 -1
    outer loop
      vertex 85.0143 -133.961 25
      vertex 93.258 128.359 25
      vertex 93.258 -128.359 25
    endloop
  endfacet
  facet normal 0 0 -1
    outer loop
      vertex 85.0143 -133.961 25
      vertex 85.0143 133.961 25
      vertex 93.258 128.359 25
    endloop
  endfacet
  facet normal 0 0 -1
    outer loop
      vertex 76.435 -139.035 25
      vertex 85.0143 133.961 25
      vertex 85.0143 -133.961 25
    endloop
  endfacet
  facet normal 0 0 -1
    outer loop
      vertex 76.435 -139.035 25
      vertex 76.435 139.035 25
      vertex 85.0143 133.961 25
    endloop
  endfacet
  facet normal 0 0 -1
    outer loop
      vertex 67.5541 -143.56 25
      vertex 76.435 139.035 25
      vertex 76.435 -139.035 25
    endloop
  endfacet
  facet normal 0 0 -1
    outer loop
      vertex 67.5541 -143.56 25
      vertex 67.5541 143.56 25
      vertex 76.435 139.035 25
    endloop
  endfacet
  facet normal 0 0 -1
    outer loop
      vertex 58.4066 -147.518 25
      vertex 67.5541 143.56 25
      vertex 67.5541 -143.56 25
    endloop
  endfacet
  facet normal 0 0 -1
    outer loop
      vertex 58.4066 -147.518 25
      vertex 58.4066 147.518 25
      vertex 67.5541 143.56 25
    endloop
  endfacet
  facet normal 0 0 -1
    outer loop
      vertex 49.0286 -150.895 25
      vertex 58.4066 147.518 25
      vertex 58.4066 -147.518 25
    endloop
  endfacet
  facet normal 0 0 -1
    outer loop
      vertex 49.0286 -150.895 25
      vertex 49.0286 150.895 25
      vertex 58.4066 147.518 25
    endloop
  endfacet
  facet normal 0 0 -1
    outer loop
      vertex 39.4571 -153.675 25
      vertex 49.0286 150.895 25
      vertex 49.0286 -150.895 25
    endloop
  endfacet
  facet normal 0 0 -1
    outer loop
      vertex 39.4571 -153.675 25
      vertex 39.4571 153.675 25
      vertex 49.0286 150.895 25
    endloop
  endfacet
  facet normal 0 0 -1
    outer loop
      vertex 29.7299 -155.85 25
      vertex 39.4571 153.675 25
      vertex 39.4571 -153.675 25
    endloop
  endfacet
  facet normal 0 0 -1
    outer loop
      vertex 29.7299 -155.85 25
      vertex 29.7299 155.85 25
      vertex 39.4571 153.675 25
    endloop
  endfacet
  facet normal 0 0 -1
    outer loop
      vertex 19.8854 -157.409 25
      vertex 29.7299 155.85 25
      vertex 29.7299 -155.85 25
    endloop
  endfacet
  facet normal 0 0 -1
    outer loop
      vertex 19.8854 -157.409 25
      vertex 19.8854 157.409 25
      vertex 29.7299 155.85 25
    endloop
  endfacet
  facet normal 0 0 -1
    outer loop
      vertex 9.96234 -158.347 25
      vertex 19.8854 157.409 25
      vertex 19.8854 -157.409 25
    endloop
  endfacet
  facet normal 0 0 -1
    outer loop
      vertex 9.96234 -158.347 25
      vertex 9.96234 158.347 25
      vertex 19.8854 157.409 25
    endloop
  endfacet
  facet normal 0 0 -1
    outer loop
      vertex 0 -158.66 25
      vertex 9.96234 158.347 25
      vertex 9.96234 -158.347 25
    endloop
  endfacet
  facet normal 0 0 -1
    outer loop
      vertex 0 -158.66 25
      vertex 0 158.66 25
      vertex 9.96234 158.347 25
    endloop
  endfacet
  facet normal 0 0 -1
    outer loop
      vertex -9.96234 -158.347 25
      vertex 0 158.66 25
      vertex 0 -158.66 25
    endloop
  endfacet
  facet normal 0 0 -1
    outer loop
      vertex -9.96234 -158.347 25
      vertex -9.96234 158.347 25
      vertex 0 158.66 25
    endloop
  endfacet
  facet normal 0 0 -1
    outer loop
      vertex -19.8854 -157.409 25
      vertex -9.96234 158.347 25
      vertex -9.96234 -158.347 25
    endloop
  endfacet
  facet normal 0 0 -1
    outer loop
      vertex -19.8854 -157.409 25
      vertex -19.8854 157.409 25
      vertex -9.96234 158.347 25
    endloop
  endfacet
  facet normal 0 0 -1
    outer loop
      vertex -29.7299 -155.85 25
      vertex -19.8854 157.409 25
      vertex -19.8854 -157.409 25
    endloop
  endfacet
  facet normal 0 0 -1
    outer loop
      vertex -29.7299 -155.85 25
      vertex -29.7299 155.85 25
      vertex -19.8854 157.409 25
    endloop
  endfacet
  facet normal 0 0 -1
    outer loop
      vertex -39.4571 -153.675 25
      vertex -29.7299 155.85 25
      vertex -29.7299 -155.85 25
    endloop
  endfacet
  facet normal 0 0 -1
    outer loop
      vertex -39.4571 -153.675 25
      vertex -39.4571 153.675 25
      vertex -29.7299 155.85 25
    endloop
  endfacet
  facet normal 0 0 -1
    outer loop
      vertex -49.0286 -150.895 25
      vertex -39.4571 153.675 25
      vertex -39.4571 -153.675 25
    endloop
  endfacet
  facet normal 0 0 -1
    outer loop
      vertex -49.0286 -150.895 25
      vertex -49.0286 150.895 25
      vertex -39.4571 153.675 25
    endloop
  endfacet
  facet normal 0 0 -1
    outer loop
      vertex -58.4066 -147.518 25
      vertex -49.0286 150.895 25
      vertex -49.0286 -150.895 25
    endloop
  endfacet
  facet normal 0 0 -1
    outer loop
      vertex -58.4066 -147.518 25
      vertex -58.4066 147.518 25
      vertex -49.0286 150.895 25
    endloop
  endfacet
  facet normal 0 0 -1
    outer loop
      vertex -67.5541 -143.56 25
      vertex -58.4066 147.518 25
      vertex -58.4066 -147.518 25
    endloop
  endfacet
  facet normal 0 0 -1
    outer loop
      vertex -67.5541 -143.56 25
      vertex -67.5541 143.56 25
      vertex -58.4066 147.518 25
    endloop
  endfacet
  facet normal 0 0 -1
    outer loop
      vertex -76.435 -139.035 25
      vertex -67.5541 143.56 25
      vertex -67.5541 -143.56 25
    endloop
  endfacet
  facet normal 0 0 -1
    outer loop
      vertex -76.435 -139.035 25
      vertex -76.435 139.035 25
      vertex -67.5541 143.56 25
    endloop
  endfacet
  facet normal 0 0 -1
    outer loop
      vertex -85.0143 -133.961 25
      vertex -76.435 139.035 25
      vertex -76.435 -139.035 25
    endloop
  endfacet
  facet normal 0 0 -1
    outer loop
      vertex -85.0143 -133.961 25
      vertex -85.0143 133.961 25
      vertex -76.435 139.035 25
    endloop
  endfacet
  facet normal 0 0 -1
    outer loop
      vertex -93.258 -128.359 25
      vertex -85.0143 133.961 25
      vertex -85.0143 -133.961 25
    endloop
  endfacet
  facet normal 0 0 -1
    outer loop
      vertex -93.258 -128.359 25
      vertex -93.258 128.359 25
      vertex -85.0143 133.961 25
    endloop
  endfacet
  facet normal 0 0 -1
    outer loop
      vertex -101.134 -122.25 25
      vertex -93.258 128.359 25
      vertex -93.258 -128.359 25
    endloop
  endfacet
  facet normal 0 0 -1
    outer loop
      vertex -101.134 -122.25 25
      vertex -101.134 122.25 25
      vertex -93.258 128.359 25
    endloop
  endfacet
  facet normal 0 0 -1
    outer loop
      vertex -108.61 -115.658 25
      vertex -101.134 122.25 25
      vertex -101.134 -122.25 25
    endloop
  endfacet
  facet normal 0 0 -1
    outer loop
      vertex -108.61 -115.658 25
      vertex -108.61 115.658 25
      vertex -101.134 122.25 25
    endloop
  endfacet
  facet normal 0 0 -1
    outer loop
      vertex -115.658 -108.61 25
      vertex -108.61 115.658 25
      vertex -108.61 -115.658 25
    endloop
  endfacet
  facet normal 0 0 -1
    outer loop
      vertex -115.658 -108.61 25
      vertex -115.658 108.61 25
      vertex -108.61 115.658 25
    endloop
  endfacet
  facet normal 0 0 -1
    outer loop
      vertex -122.25 -101.134 25
      vertex -115.658 108.61 25
      vertex -115.658 -108.61 25
    endloop
  endfacet
  facet normal 0 0 -1
    outer loop
      vertex -122.25 -101.134 25
      vertex -122.25 101.134 25
      vertex -115.658 108.61 25
    endloop
  endfacet
  facet normal 0 0 -1
    outer loop
      vertex -128.359 -93.258 25
      vertex -122.25 101.134 25
      vertex -122.25 -101.134 25
    endloop
  endfacet
  facet normal 0 0 -1
    outer loop
      vertex -128.359 -93.258 25
      vertex -128.359 93.258 25
      vertex -122.25 101.134 25
    endloop
  endfacet
  facet normal 0 0 -1
    outer loop
      vertex -133.961 -85.0143 25
      vertex -128.359 93.258 25
      vertex -128.359 -93.258 25
    endloop
  endfacet
  facet normal 0 0 -1
    outer loop
      vertex -133.961 -85.0143 25
      vertex -133.961 85.0143 25
      vertex -128.359 93.258 25
    endloop
  endfacet
  facet normal 0 0 -1
    outer loop
      vertex -139.035 -76.435 25
      vertex -133.961 85.0143 25
      vertex -133.961 -85.0143 25
    endloop
  endfacet
  facet normal 0 0 -1
    outer loop
      vertex -139.035 -76.435 25
      vertex -139.035 76.435 25
      vertex -133.961 85.0143 25
    endloop
  endfacet
  facet normal 0 0 -1
    outer loop
      vertex -143.56 -67.5541 25
      vertex -139.035 76.435 25
      vertex -139.035 -76.435 25
    endloop
  endfacet
  facet normal 0 0 -1
    outer loop
      vertex -143.56 -67.5541 25
      vertex -143.56 67.5541 25
      vertex -139.035 76.435 25
    endloop
  endfacet
  facet normal 0 0 -1
    outer loop
      vertex -147.518 -58.4066 25
      vertex -143.56 67.5541 25
      vertex -143.56 -67.5541 25
    endloop
  endfacet
  facet normal 0 0 -1
    outer loop
      vertex -147.518 -58.4066 25
      vertex -147.518 58.4066 25
      vertex -143.56 67.5541 25
    endloop
  endfacet
  facet normal 0 0 -1
    outer loop
      vertex -150.895 -49.0286 25
      vertex -147.518 58.4066 25
      vertex -147.518 -58.4066 25
    endloop
  endfacet
  facet normal 0 0 -1
    outer loop
      vertex -150.895 -49.0286 25
      vertex -150.895 49.0286 25
      vertex -147.518 58.4066 25
    endloop
  endfacet
  facet normal 0 0 -1
    outer loop
      vertex -153.675 -39.4571 25
      vertex -150.895 49.0286 25
      vertex -150.895 -49.0286 25
    endloop
  endfacet
  facet normal 0 0 -1
    outer loop
      vertex -153.675 -39.4571 25
      vertex -153.675 39.4571 25
      vertex -150.895 49.0286 25
    endloop
  endfacet
  facet normal 0 0 -1
    outer loop
      vertex -155.85 -29.7299 25
      vertex -153.675 39.4571 25
      vertex -153.675 -39.4571 25
    endloop
  endfacet
  facet normal 0 0 -1
    outer loop
      vertex -155.85 -29.7299 25
      vertex -155.85 29.7299 25
      vertex -153.675 39.4571 25
    endloop
  endfacet
  facet normal 0 0 -1
    outer loop
      vertex -157.409 -19.8854 25
      vertex -155.85 29.7299 25
      vertex -155.85 -29.7299 25
    endloop
  endfacet
  facet normal 0 0 -1
    outer loop
      vertex -157.409 -19.8854 25
      vertex -157.409 19.8854 25
      vertex -155.85 29.7299 25
    endloop
  endfacet
  facet normal 0 0 -1
    outer loop
      vertex -158.347 -9.96234 25
      vertex -157.409 19.8854 25
      vertex -157.409 -19.8854 25
    endloop
  endfacet
  facet normal 0 0 -1
    outer loop
      vertex -158.347 -9.96234 25
      vertex -158.347 9.96234 25
      vertex -157.409 19.8854 25
    endloop
  endfacet
  facet normal 0 -0 -1
    outer loop
      vertex -158.347 9.96234 25
      vertex -158.347 -9.96234 25
      vertex -158.66 0 25
    endloop
  endfacet
  facet normal 0 0 1
    outer loop
      vertex 149.704 9.41858 30
      vertex 149.704 -9.41858 30
      vertex 150 0 30
    endloop
  endfacet
  facet normal 0 0 1
    outer loop
      vertex 148.817 18.8 30
      vertex 149.704 -9.41858 30
      vertex 149.704 9.41858 30
    endloop
  endfacet
  facet normal 0 0 1
    outer loop
      vertex 148.817 18.8 30
      vertex 148.817 -18.8 30
      vertex 149.704 -9.41858 30
    endloop
  endfacet
  facet normal 0 0 1
    outer loop
      vertex 147.343 28.1072 30
      vertex 148.817 -18.8 30
      vertex 148.817 18.8 30
    endloop
  endfacet
  facet normal 0 0 1
    outer loop
      vertex 147.343 28.1072 30
      vertex 147.343 -28.1072 30
      vertex 148.817 -18.8 30
    endloop
  endfacet
  facet normal 0 0 1
    outer loop
      vertex 145.287 37.3035 30
      vertex 147.343 -28.1072 30
      vertex 147.343 28.1072 30
    endloop
  endfacet
  facet normal 0 0 1
    outer loop
      vertex 145.287 37.3035 30
      vertex 145.287 -37.3035 30
      vertex 147.343 -28.1072 30
    endloop
  endfacet
  facet normal 0 0 1
    outer loop
      vertex 142.658 46.3526 30
      vertex 145.287 -37.3035 30
      vertex 145.287 37.3035 30
    endloop
  endfacet
  facet normal 0 0 1
    outer loop
      vertex 142.658 46.3526 30
      vertex 142.658 -46.3526 30
      vertex 145.287 -37.3035 30
    endloop
  endfacet
  facet normal 0 0 1
    outer loop
      vertex 139.466 55.2187 30
      vertex 142.658 -46.3526 30
      vertex 142.658 46.3526 30
    endloop
  endfacet
  facet normal 0 0 1
    outer loop
      vertex 139.466 55.2187 30
      vertex 139.466 -55.2187 30
      vertex 142.658 -46.3526 30
    endloop
  endfacet
  facet normal 0 0 1
    outer loop
      vertex 135.724 63.8669 30
      vertex 139.466 -55.2187 30
      vertex 139.466 55.2187 30
    endloop
  endfacet
  facet normal 0 0 1
    outer loop
      vertex 135.724 63.8669 30
      vertex 135.724 -63.8669 30
      vertex 139.466 -55.2187 30
    endloop
  endfacet
  facet normal 0 0 1
    outer loop
      vertex 131.446 72.2631 30
      vertex 135.724 -63.8669 30
      vertex 135.724 63.8669 30
    endloop
  endfacet
  facet normal 0 0 1
    outer loop
      vertex 131.446 72.2631 30
      vertex 131.446 -72.2631 30
      vertex 135.724 -63.8669 30
    endloop
  endfacet
  facet normal 0 0 1
    outer loop
      vertex 126.649 80.374 30
      vertex 131.446 -72.2631 30
      vertex 131.446 72.2631 30
    endloop
  endfacet
  facet normal 0 0 1
    outer loop
      vertex 126.649 80.374 30
      vertex 126.649 -80.374 30
      vertex 131.446 -72.2631 30
    endloop
  endfacet
  facet normal 0 0 1
    outer loop
      vertex 121.353 88.1678 30
      vertex 126.649 -80.374 30
      vertex 126.649 80.374 30
    endloop
  endfacet
  facet normal 0 0 1
    outer loop
      vertex 121.353 88.1678 30
      vertex 121.353 -88.1678 30
      vertex 126.649 -80.374 30
    endloop
  endfacet
  facet normal 0 0 1
    outer loop
      vertex 115.577 95.6136 30
      vertex 121.353 -88.1678 30
      vertex 121.353 88.1678 30
    endloop
  endfacet
  facet normal 0 0 1
    outer loop
      vertex 115.577 95.6136 30
      vertex 115.577 -95.6136 30
      vertex 121.353 -88.1678 30
    endloop
  endfacet
  facet normal 0 0 1
    outer loop
      vertex 109.345 102.682 30
      vertex 115.577 -95.6136 30
      vertex 115.577 95.6136 30
    endloop
  endfacet
  facet normal 0 0 1
    outer loop
      vertex 109.345 102.682 30
      vertex 109.345 -102.682 30
      vertex 115.577 -95.6136 30
    endloop
  endfacet
  facet normal 0 0 1
    outer loop
      vertex 102.682 109.345 30
      vertex 109.345 -102.682 30
      vertex 109.345 102.682 30
    endloop
  endfacet
  facet normal 0 0 1
    outer loop
      vertex 102.682 109.345 30
      vertex 102.682 -109.345 30
      vertex 109.345 -102.682 30
    endloop
  endfacet
  facet normal 0 0 1
    outer loop
      vertex 95.6136 115.577 30
      vertex 102.682 -109.345 30
      vertex 102.682 109.345 30
    endloop
  endfacet
  facet normal 0 0 1
    outer loop
      vertex 95.6136 115.577 30
      vertex 95.6136 -115.577 30
      vertex 102.682 -109.345 30
    endloop
  endfacet
  facet normal 0 0 1
    outer loop
      vertex 88.1678 121.353 30
      vertex 95.6136 -115.577 30
      vertex 95.6136 115.577 30
    endloop
  endfacet
  facet normal 0 0 1
    outer loop
      vertex 88.1678 121.353 30
      vertex 88.1678 -121.353 30
      vertex 95.6136 -115.577 30
    endloop
  endfacet
  facet normal 0 0 1
    outer loop
      vertex 80.374 126.649 30
      vertex 88.1678 -121.353 30
      vertex 88.1678 121.353 30
    endloop
  endfacet
  facet normal 0 0 1
    outer loop
      vertex 80.374 126.649 30
      vertex 80.374 -126.649 30
      vertex 88.1678 -121.353 30
    endloop
  endfacet
  facet normal 0 0 1
    outer loop
      vertex 72.2631 131.446 30
      vertex 80.374 -126.649 30
      vertex 80.374 126.649 30
    endloop
  endfacet
  facet normal 0 0 1
    outer loop
      vertex 72.2631 131.446 30
      vertex 72.2631 -131.446 30
      vertex 80.374 -126.649 30
    endloop
  endfacet
  facet normal 0 0 1
    outer loop
      vertex 63.8669 135.724 30
      vertex 72.2631 -131.446 30
      vertex 72.2631 131.446 30
    endloop
  endfacet
  facet normal 0 0 1
    outer loop
      vertex 63.8669 135.724 30
      vertex 63.8669 -135.724 30
      vertex 72.2631 -131.446 30
    endloop
  endfacet
  facet normal 0 0 1
    outer loop
      vertex 55.2187 139.466 30
      vertex 63.8669 -135.724 30
      vertex 63.8669 135.724 30
    endloop
  endfacet
  facet normal 0 0 1
    outer loop
      vertex 55.2187 139.466 30
      vertex 55.2187 -139.466 30
      vertex 63.8669 -135.724 30
    endloop
  endfacet
  facet normal 0 0 1
    outer loop
      vertex 46.3526 142.658 30
      vertex 55.2187 -139.466 30
      vertex 55.2187 139.466 30
    endloop
  endfacet
  facet normal 0 0 1
    outer loop
      vertex 46.3526 142.658 30
      vertex 46.3526 -142.658 30
      vertex 55.2187 -139.466 30
    endloop
  endfacet
  facet normal 0 0 1
    outer loop
      vertex 37.3035 145.287 30
      vertex 46.3526 -142.658 30
      vertex 46.3526 142.658 30
    endloop
  endfacet
  facet normal 0 0 1
    outer loop
      vertex 37.3035 145.287 30
      vertex 37.3035 -145.287 30
      vertex 46.3526 -142.658 30
    endloop
  endfacet
  facet normal 0 0 1
    outer loop
      vertex 28.1072 147.343 30
      vertex 37.3035 -145.287 30
      vertex 37.3035 145.287 30
    endloop
  endfacet
  facet normal 0 0 1
    outer loop
      vertex 28.1072 147.343 30
      vertex 28.1072 -147.343 30
      vertex 37.3035 -145.287 30
    endloop
  endfacet
  facet normal 0 0 1
    outer loop
      vertex 18.8 148.817 30
      vertex 28.1072 -147.343 30
      vertex 28.1072 147.343 30
    endloop
  endfacet
  facet normal 0 0 1
    outer loop
      vertex 18.8 148.817 30
      vertex 18.8 -148.817 30
      vertex 28.1072 -147.343 30
    endloop
  endfacet
  facet normal 0 0 1
    outer loop
      vertex 9.41858 149.704 30
      vertex 18.8 -148.817 30
      vertex 18.8 148.817 30
    endloop
  endfacet
  facet normal 0 0 1
    outer loop
      vertex 9.41858 149.704 30
      vertex 9.41858 -149.704 30
      vertex 18.8 -148.817 30
    endloop
  endfacet
  facet normal 0 0 1
    outer loop
      vertex 0 150 30
      vertex 9.41858 -149.704 30
      vertex 9.41858 149.704 30
    endloop
  endfacet
  facet normal 0 0 1
    outer loop
      vertex 0 150 30
      vertex 0 -150 30
      vertex 9.41858 -149.704 30
    endloop
  endfacet
  facet normal -0 0 1
    outer loop
      vertex -9.41858 149.704 30
      vertex 0 -150 30
      vertex 0 150 30
    endloop
  endfacet
  facet normal 0 0 1
    outer loop
      vertex -9.41858 149.704 30
      vertex -9.41858 -149.704 30
      vertex 0 -150 30
    endloop
  endfacet
  facet normal -0 0 1
    outer loop
      vertex -18.8 148.817 30
      vertex -9.41858 -149.704 30
      vertex -9.41858 149.704 30
    endloop
  endfacet
  facet normal 0 0 1
    outer loop
      vertex -18.8 148.817 30
      vertex -18.8 -148.817 30
      vertex -9.41858 -149.704 30
    endloop
  endfacet
  facet normal -0 0 1
    outer loop
      vertex -28.1072 147.343 30
      vertex -18.8 -148.817 30
      vertex -18.8 148.817 30
    endloop
  endfacet
  facet normal 0 0 1
    outer loop
      vertex -28.1072 147.343 30
      vertex -28.1072 -147.343 30
      vertex -18.8 -148.817 30
    endloop
  endfacet
  facet normal -0 0 1
    outer loop
      vertex -37.3035 145.287 30
      vertex -28.1072 -147.343 30
      vertex -28.1072 147.343 30
    endloop
  endfacet
  facet normal 0 0 1
    outer loop
      vertex -37.3035 145.287 30
      vertex -37.3035 -145.287 30
      vertex -28.1072 -147.343 30
    endloop
  endfacet
  facet normal -0 0 1
    outer loop
      vertex -46.3526 142.658 30
      vertex -37.3035 -145.287 30
      vertex -37.3035 145.287 30
    endloop
  endfacet
  facet normal 0 0 1
    outer loop
      vertex -46.3526 142.658 30
      vertex -46.3526 -142.658 30
      vertex -37.3035 -145.287 30
    endloop
  endfacet
  facet normal -0 0 1
    outer loop
      vertex -55.2187 139.466 30
      vertex -46.3526 -142.658 30
      vertex -46.3526 142.658 30
    endloop
  endfacet
  facet normal 0 0 1
    outer loop
      vertex -55.2187 139.466 30
      vertex -55.2187 -139.466 30
      vertex -46.3526 -142.658 30
    endloop
  endfacet
  facet normal -0 0 1
    outer loop
      vertex -63.8669 135.724 30
      vertex -55.2187 -139.466 30
      vertex -55.2187 139.466 30
    endloop
  endfacet
  facet normal 0 0 1
    outer loop
      vertex -63.8669 135.724 30
      vertex -63.8669 -135.724 30
      vertex -55.2187 -139.466 30
    endloop
  endfacet
  facet normal -0 0 1
    outer loop
      vertex -72.2631 131.446 30
      vertex -63.8669 -135.724 30
      vertex -63.8669 135.724 30
    endloop
  endfacet
  facet normal 0 0 1
    outer loop
      vertex -72.2631 131.446 30
      vertex -72.2631 -131.446 30
      vertex -63.8669 -135.724 30
    endloop
  endfacet
  facet normal -0 0 1
    outer loop
      vertex -80.374 126.649 30
      vertex -72.2631 -131.446 30
      vertex -72.2631 131.446 30
    endloop
  endfacet
  facet normal 0 0 1
    outer loop
      vertex -80.374 126.649 30
      vertex -80.374 -126.649 30
      vertex -72.2631 -131.446 30
    endloop
  endfacet
  facet normal -0 0 1
    outer loop
      vertex -88.1678 121.353 30
      vertex -80.374 -126.649 30
      vertex -80.374 126.649 30
    endloop
  endfacet
  facet normal 0 0 1
    outer loop
      vertex -88.1678 121.353 30
      vertex -88.1678 -121.353 30
      vertex -80.374 -126.649 30
    endloop
  endfacet
  facet normal -0 0 1
    outer loop
      vertex -95.6136 115.577 30
      vertex -88.1678 -121.353 30
      vertex -88.1678 121.353 30
    endloop
  endfacet
  facet normal 0 0 1
    outer loop
      vertex -95.6136 115.577 30
      vertex -95.6136 -115.577 30
      vertex -88.1678 -121.353 30
    endloop
  endfacet
  facet normal -0 0 1
    outer loop
      vertex -102.682 109.345 30
      vertex -95.6136 -115.577 30
      vertex -95.6136 115.577 30
    endloop
  endfacet
  facet normal 0 0 1
    outer loop
      vertex -102.682 109.345 30
      vertex -102.682 -109.345 30
      vertex -95.6136 -115.577 30
    endloop
  endfacet
  facet normal -0 0 1
    outer loop
      vertex -109.345 102.682 30
      vertex -102.682 -109.345 30
      vertex -102.682 109.345 30
    endloop
  endfacet
  facet normal 0 0 1
    outer loop
      vertex -109.345 102.682 30
      vertex -109.345 -102.682 30
      vertex -102.682 -109.345 30
    endloop
  endfacet
  facet normal -0 0 1
    outer loop
      vertex -115.577 95.6136 30
      vertex -109.345 -102.682 30
      vertex -109.345 102.682 30
    endloop
  endfacet
  facet normal 0 0 1
    outer loop
      vertex -115.577 95.6136 30
      vertex -115.577 -95.6136 30
      vertex -109.345 -102.682 30
    endloop
  endfacet
  facet normal -0 0 1
    outer loop
      vertex -121.353 88.1678 30
      vertex -115.577 -95.6136 30
      vertex -115.577 95.6136 30
    endloop
  endfacet
  facet normal 0 0 1
    outer loop
      vertex -121.353 88.1678 30
      vertex -121.353 -88.1678 30
      vertex -115.577 -95.6136 30
    endloop
  endfacet
  facet normal -0 0 1
    outer loop
      vertex -126.649 80.374 30
      vertex -121.353 -88.1678 30
      vertex -121.353 88.1678 30
    endloop
  endfacet
  facet normal 0 0 1
    outer loop
      vertex -126.649 80.374 30
      vertex -126.649 -80.374 30
      vertex -121.353 -88.1678 30
    endloop
  endfacet
  facet normal -0 0 1
    outer loop
      vertex -131.446 72.2631 30
      vertex -126.649 -80.374 30
      vertex -126.649 80.374 30
    endloop
  endfacet
  facet normal 0 0 1
    outer loop
      vertex -131.446 72.2631 30
      vertex -131.446 -72.2631 30
      vertex -126.649 -80.374 30
    endloop
  endfacet
  facet normal -0 0 1
    outer loop
      vertex -135.724 63.8669 30
      vertex -131.446 -72.2631 30
      vertex -131.446 72.2631 30
    endloop
  endfacet
  facet normal 0 0 1
    outer loop
      vertex -135.724 63.8669 30
      vertex -135.724 -63.8669 30
      vertex -131.446 -72.2631 30
    endloop
  endfacet
  facet normal -0 0 1
    outer loop
      vertex -139.466 55.2187 30
      vertex -135.724 -63.8669 30
      vertex -135.724 63.8669 30
    endloop
  endfacet
  facet normal 0 0 1
    outer loop
      vertex -139.466 55.2187 30
      vertex -139.466 -55.2187 30
      vertex -135.724 -63.8669 30
    endloop
  endfacet
  facet normal -0 0 1
    outer loop
      vertex -142.658 46.3526 30
      vertex -139.466 -55.2187 30
      vertex -139.466 55.2187 30
    endloop
  endfacet
  facet normal 0 0 1
    outer loop
      vertex -142.658 46.3526 30
      vertex -142.658 -46.3526 30
      vertex -139.466 -55.2187 30
    endloop
  endfacet
  facet normal -0 0 1
    outer loop
      vertex -145.287 37.3035 30
      vertex -142.658 -46.3526 30
      vertex -142.658 46.3526 30
    endloop
  endfacet
  facet normal 0 0 1
    outer loop
      vertex -145.287 37.3035 30
      vertex -145.287 -37.3035 30
      vertex -142.658 -46.3526 30
    endloop
  endfacet
  facet normal -0 0 1
    outer loop
      vertex -147.343 28.1072 30
      vertex -145.287 -37.3035 30
      vertex -145.287 37.3035 30
    endloop
  endfacet
  facet normal 0 0 1
    outer loop
      vertex -147.343 28.1072 30
      vertex -147.343 -28.1072 30
      vertex -145.287 -37.3035 30
    endloop
  endfacet
  facet normal -0 0 1
    outer loop
      vertex -148.817 18.8 30
      vertex -147.343 -28.1072 30
      vertex -147.343 28.1072 30
    endloop
  endfacet
  facet normal 0 0 1
    outer loop
      vertex -148.817 18.8 30
      vertex -148.817 -18.8 30
      vertex -147.343 -28.1072 30
    endloop
  endfacet
  facet normal -0 0 1
    outer loop
      vertex -149.704 9.41858 30
      vertex -148.817 -18.8 30
      vertex -148.817 18.8 30
    endloop
  endfacet
  facet normal 0 0 1
    outer loop
      vertex -149.704 9.41858 30
      vertex -149.704 -9.41858 30
      vertex -148.817 -18.8 30
    endloop
  endfacet
  facet normal 0 -0 1
    outer loop
      vertex -149.704 -9.41858 30
      vertex -149.704 9.41858 30
      vertex -150 0 30
    endloop
  endfacet
endsolid OpenSCAD_Model
