solid OpenSCAD_Model
  facet normal 0.499949 0.0157076 0.865912
    outer loop
      vertex 758.347 9.96234 -5
      vertex 750 0 0
      vertex 758.66 0 -5
    endloop
  endfacet
  facet normal 0.499945 0.0157119 0.865914
    outer loop
      vertex 758.347 9.96234 -5
      vertex 749.704 9.41858 0
      vertex 750 0 0
    endloop
  endfacet
  facet normal 0.497972 0.047072 0.865914
    outer loop
      vertex 757.409 19.8854 -5
      vertex 749.704 9.41858 0
      vertex 758.347 9.96234 -5
    endloop
  endfacet
  facet normal 0.497963 0.0470817 0.865919
    outer loop
      vertex 757.409 19.8854 -5
      vertex 748.817 18.8 0
      vertex 749.704 9.41858 0
    endloop
  endfacet
  facet normal 0.494027 0.0782354 0.865919
    outer loop
      vertex 755.85 29.7299 -5
      vertex 748.817 18.8 0
      vertex 757.409 19.8854 -5
    endloop
  endfacet
  facet normal 0.494023 0.0782393 0.865922
    outer loop
      vertex 755.85 29.7299 -5
      vertex 747.343 28.1072 0
      vertex 748.817 18.8 0
    endloop
  endfacet
  facet normal 0.488127 0.109145 0.865921
    outer loop
      vertex 753.675 39.4571 -5
      vertex 747.343 28.1072 0
      vertex 755.85 29.7299 -5
    endloop
  endfacet
  facet normal 0.488143 0.109133 0.865914
    outer loop
      vertex 753.675 39.4571 -5
      vertex 745.287 37.3035 0
      vertex 747.343 28.1072 0
    endloop
  endfacet
  facet normal 0.480343 0.139513 0.865914
    outer loop
      vertex 750.895 49.0286 -5
      vertex 745.287 37.3035 0
      vertex 753.675 39.4571 -5
    endloop
  endfacet
  facet normal 0.480302 0.13954 0.865932
    outer loop
      vertex 750.895 49.0286 -5
      vertex 742.658 46.3526 0
      vertex 745.287 37.3035 0
    endloop
  endfacet
  facet normal 0.470583 0.169456 0.865931
    outer loop
      vertex 747.518 58.4066 -5
      vertex 742.658 46.3526 0
      vertex 750.895 49.0286 -5
    endloop
  endfacet
  facet normal 0.47062 0.169434 0.865915
    outer loop
      vertex 747.518 58.4066 -5
      vertex 739.466 55.2187 0
      vertex 742.658 46.3526 0
    endloop
  endfacet
  facet normal 0.459062 0.19863 0.865915
    outer loop
      vertex 743.56 67.5541 -5
      vertex 739.466 55.2187 0
      vertex 747.518 58.4066 -5
    endloop
  endfacet
  facet normal 0.459059 0.198631 0.865916
    outer loop
      vertex 743.56 67.5541 -5
      vertex 735.724 63.8669 0
      vertex 739.466 55.2187 0
    endloop
  endfacet
  facet normal 0.445673 0.227079 0.865916
    outer loop
      vertex 739.035 76.435 -5
      vertex 735.724 63.8669 0
      vertex 743.56 67.5541 -5
    endloop
  endfacet
  facet normal 0.445675 0.227079 0.865915
    outer loop
      vertex 739.035 76.435 -5
      vertex 731.446 72.2631 0
      vertex 735.724 63.8669 0
    endloop
  endfacet
  facet normal 0.430531 0.254626 0.865915
    outer loop
      vertex 733.961 85.0143 -5
      vertex 731.446 72.2631 0
      vertex 739.035 76.435 -5
    endloop
  endfacet
  facet normal 0.43053 0.254627 0.865915
    outer loop
      vertex 733.961 85.0143 -5
      vertex 726.649 80.374 0
      vertex 731.446 72.2631 0
    endloop
  endfacet
  facet normal 0.413707 0.281135 0.865915
    outer loop
      vertex 728.359 93.258 -5
      vertex 726.649 80.374 0
      vertex 733.961 85.0143 -5
    endloop
  endfacet
  facet normal 0.413722 0.28113 0.86591
    outer loop
      vertex 728.359 93.258 -5
      vertex 721.353 88.1678 0
      vertex 726.649 80.374 0
    endloop
  endfacet
  facet normal 0.395241 0.306568 0.86591
    outer loop
      vertex 722.25 101.134 -5
      vertex 721.353 88.1678 0
      vertex 728.359 93.258 -5
    endloop
  endfacet
  facet normal 0.395205 0.306576 0.865924
    outer loop
      vertex 722.25 101.134 -5
      vertex 715.577 95.6136 0
      vertex 721.353 88.1678 0
    endloop
  endfacet
  facet normal 0.375163 0.330802 0.865923
    outer loop
      vertex 715.658 108.61 -5
      vertex 715.577 95.6136 0
      vertex 722.25 101.134 -5
    endloop
  endfacet
  facet normal 0.375193 0.330797 0.865912
    outer loop
      vertex 715.658 108.61 -5
      vertex 709.345 102.682 0
      vertex 715.577 95.6136 0
    endloop
  endfacet
  facet normal 0.353693 0.353693 0.865911
    outer loop
      vertex 708.61 115.658 -5
      vertex 709.345 102.682 0
      vertex 715.658 108.61 -5
    endloop
  endfacet
  facet normal 0.353693 0.353693 0.865911
    outer loop
      vertex 708.61 115.658 -5
      vertex 702.682 109.345 0
      vertex 709.345 102.682 0
    endloop
  endfacet
  facet normal 0.330814 0.375177 0.865912
    outer loop
      vertex 701.134 122.25 -5
      vertex 702.682 109.345 0
      vertex 708.61 115.658 -5
    endloop
  endfacet
  facet normal 0.330802 0.375177 0.865917
    outer loop
      vertex 701.134 122.25 -5
      vertex 695.614 115.577 0
      vertex 702.682 109.345 0
    endloop
  endfacet
  facet normal 0.30656 0.395231 0.865918
    outer loop
      vertex 693.258 128.359 -5
      vertex 695.614 115.577 0
      vertex 701.134 122.25 -5
    endloop
  endfacet
  facet normal 0.306589 0.395232 0.865907
    outer loop
      vertex 693.258 128.359 -5
      vertex 688.168 121.353 0
      vertex 695.614 115.577 0
    endloop
  endfacet
  facet normal 0.281136 0.413724 0.865907
    outer loop
      vertex 685.014 133.961 -5
      vertex 688.168 121.353 0
      vertex 693.258 128.359 -5
    endloop
  endfacet
  facet normal 0.281124 0.413723 0.865911
    outer loop
      vertex 685.014 133.961 -5
      vertex 680.374 126.649 0
      vertex 688.168 121.353 0
    endloop
  endfacet
  facet normal 0.254636 0.430532 0.865912
    outer loop
      vertex 676.435 139.035 -5
      vertex 680.374 126.649 0
      vertex 685.014 133.961 -5
    endloop
  endfacet
  facet normal 0.254624 0.43053 0.865916
    outer loop
      vertex 676.435 139.035 -5
      vertex 672.263 131.446 0
      vertex 680.374 126.649 0
    endloop
  endfacet
  facet normal 0.227077 0.445673 0.865916
    outer loop
      vertex 667.554 143.56 -5
      vertex 672.263 131.446 0
      vertex 676.435 139.035 -5
    endloop
  endfacet
  facet normal 0.227084 0.445675 0.865914
    outer loop
      vertex 667.554 143.56 -5
      vertex 663.867 135.724 0
      vertex 672.263 131.446 0
    endloop
  endfacet
  facet normal 0.19864 0.459059 0.865914
    outer loop
      vertex 658.407 147.518 -5
      vertex 663.867 135.724 0
      vertex 667.554 143.56 -5
    endloop
  endfacet
  facet normal 0.198635 0.459058 0.865916
    outer loop
      vertex 658.407 147.518 -5
      vertex 655.219 139.466 0
      vertex 663.867 135.724 0
    endloop
  endfacet
  facet normal 0.169465 0.470607 0.865916
    outer loop
      vertex 649.029 150.895 -5
      vertex 655.219 139.466 0
      vertex 658.407 147.518 -5
    endloop
  endfacet
  facet normal 0.169426 0.470593 0.865931
    outer loop
      vertex 649.029 150.895 -5
      vertex 646.353 142.658 0
      vertex 655.219 139.466 0
    endloop
  endfacet
  facet normal 0.139498 0.480316 0.865931
    outer loop
      vertex 639.457 153.675 -5
      vertex 646.353 142.658 0
      vertex 649.029 150.895 -5
    endloop
  endfacet
  facet normal 0.139535 0.480332 0.865916
    outer loop
      vertex 639.457 153.675 -5
      vertex 637.303 145.287 0
      vertex 646.353 142.658 0
    endloop
  endfacet
  facet normal 0.109149 0.488135 0.865916
    outer loop
      vertex 629.73 155.85 -5
      vertex 637.303 145.287 0
      vertex 639.457 153.675 -5
    endloop
  endfacet
  facet normal 0.109133 0.488126 0.865923
    outer loop
      vertex 629.73 155.85 -5
      vertex 628.107 147.343 0
      vertex 637.303 145.287 0
    endloop
  endfacet
  facet normal 0.0782306 0.494022 0.865923
    outer loop
      vertex 619.885 157.409 -5
      vertex 628.107 147.343 0
      vertex 629.73 155.85 -5
    endloop
  endfacet
  facet normal 0.078242 0.494029 0.865918
    outer loop
      vertex 619.885 157.409 -5
      vertex 618.8 148.817 0
      vertex 628.107 147.343 0
    endloop
  endfacet
  facet normal 0.0470716 0.497965 0.865918
    outer loop
      vertex 609.962 158.347 -5
      vertex 618.8 148.817 0
      vertex 619.885 157.409 -5
    endloop
  endfacet
  facet normal 0.0470849 0.497975 0.865912
    outer loop
      vertex 609.962 158.347 -5
      vertex 609.419 149.704 0
      vertex 618.8 148.817 0
    endloop
  endfacet
  facet normal 0.015708 0.499947 0.865914
    outer loop
      vertex 600 158.66 -5
      vertex 609.419 149.704 0
      vertex 609.962 158.347 -5
    endloop
  endfacet
  facet normal 0.0157113 0.499949 0.865912
    outer loop
      vertex 600 158.66 -5
      vertex 600 150 0
      vertex 609.419 149.704 0
    endloop
  endfacet
  facet normal -0.0157081 0.499949 0.865912
    outer loop
      vertex 590.038 158.347 -5
      vertex 600 150 0
      vertex 600 158.66 -5
    endloop
  endfacet
  facet normal -0.0157112 0.499947 0.865914
    outer loop
      vertex 590.038 158.347 -5
      vertex 590.581 149.704 0
      vertex 600 150 0
    endloop
  endfacet
  facet normal -0.0470726 0.497976 0.865913
    outer loop
      vertex 580.115 157.409 -5
      vertex 590.581 149.704 0
      vertex 590.038 158.347 -5
    endloop
  endfacet
  facet normal -0.0470839 0.497964 0.865919
    outer loop
      vertex 580.115 157.409 -5
      vertex 581.2 148.817 0
      vertex 590.581 149.704 0
    endloop
  endfacet
  facet normal -0.0782319 0.49403 0.865918
    outer loop
      vertex 570.27 155.85 -5
      vertex 581.2 148.817 0
      vertex 580.115 157.409 -5
    endloop
  endfacet
  facet normal -0.0782407 0.49402 0.865923
    outer loop
      vertex 570.27 155.85 -5
      vertex 571.893 147.343 0
      vertex 581.2 148.817 0
    endloop
  endfacet
  facet normal -0.109147 0.488124 0.865923
    outer loop
      vertex 560.543 153.675 -5
      vertex 571.893 147.343 0
      vertex 570.27 155.85 -5
    endloop
  endfacet
  facet normal -0.109136 0.488138 0.865916
    outer loop
      vertex 560.543 153.675 -5
      vertex 562.697 145.287 0
      vertex 571.893 147.343 0
    endloop
  endfacet
  facet normal -0.139505 0.48034 0.865917
    outer loop
      vertex 550.971 150.895 -5
      vertex 562.697 145.287 0
      vertex 560.543 153.675 -5
    endloop
  endfacet
  facet normal -0.139528 0.480306 0.865932
    outer loop
      vertex 550.971 150.895 -5
      vertex 553.647 142.658 0
      vertex 562.697 145.287 0
    endloop
  endfacet
  facet normal -0.169456 0.470583 0.865931
    outer loop
      vertex 541.593 147.518 -5
      vertex 553.647 142.658 0
      vertex 550.971 150.895 -5
    endloop
  endfacet
  facet normal -0.169435 0.470618 0.865916
    outer loop
      vertex 541.593 147.518 -5
      vertex 544.781 139.466 0
      vertex 553.647 142.658 0
    endloop
  endfacet
  facet normal -0.198638 0.459056 0.865916
    outer loop
      vertex 532.446 143.56 -5
      vertex 544.781 139.466 0
      vertex 541.593 147.518 -5
    endloop
  endfacet
  facet normal -0.198636 0.459061 0.865914
    outer loop
      vertex 532.446 143.56 -5
      vertex 536.133 135.724 0
      vertex 544.781 139.466 0
    endloop
  endfacet
  facet normal -0.227079 0.445677 0.865914
    outer loop
      vertex 523.565 139.035 -5
      vertex 536.133 135.724 0
      vertex 532.446 143.56 -5
    endloop
  endfacet
  facet normal -0.227082 0.445671 0.865916
    outer loop
      vertex 523.565 139.035 -5
      vertex 527.737 131.446 0
      vertex 536.133 135.724 0
    endloop
  endfacet
  facet normal -0.254632 0.430525 0.865916
    outer loop
      vertex 514.986 133.961 -5
      vertex 527.737 131.446 0
      vertex 523.565 139.035 -5
    endloop
  endfacet
  facet normal -0.254628 0.430537 0.865912
    outer loop
      vertex 514.986 133.961 -5
      vertex 519.626 126.649 0
      vertex 527.737 131.446 0
    endloop
  endfacet
  facet normal -0.281132 0.413718 0.865911
    outer loop
      vertex 506.742 128.359 -5
      vertex 519.626 126.649 0
      vertex 514.986 133.961 -5
    endloop
  endfacet
  facet normal -0.281128 0.41373 0.865907
    outer loop
      vertex 506.742 128.359 -5
      vertex 511.832 121.353 0
      vertex 519.626 126.649 0
    endloop
  endfacet
  facet normal -0.306571 0.395245 0.865907
    outer loop
      vertex 498.866 122.25 -5
      vertex 511.832 121.353 0
      vertex 506.742 128.359 -5
    endloop
  endfacet
  facet normal -0.306577 0.395217 0.865918
    outer loop
      vertex 498.866 122.25 -5
      vertex 504.386 115.577 0
      vertex 511.832 121.353 0
    endloop
  endfacet
  facet normal -0.330809 0.375171 0.865917
    outer loop
      vertex 491.39 115.658 -5
      vertex 504.386 115.577 0
      vertex 498.866 122.25 -5
    endloop
  endfacet
  facet normal -0.330807 0.375184 0.865912
    outer loop
      vertex 491.39 115.658 -5
      vertex 497.318 109.345 0
      vertex 504.386 115.577 0
    endloop
  endfacet
  facet normal -0.353693 0.353693 0.865911
    outer loop
      vertex 484.342 108.61 -5
      vertex 497.318 109.345 0
      vertex 491.39 115.658 -5
    endloop
  endfacet
  facet normal -0.353693 0.353693 0.865911
    outer loop
      vertex 484.342 108.61 -5
      vertex 490.655 102.682 0
      vertex 497.318 109.345 0
    endloop
  endfacet
  facet normal -0.375177 0.330814 0.865912
    outer loop
      vertex 477.75 101.134 -5
      vertex 490.655 102.682 0
      vertex 484.342 108.61 -5
    endloop
  endfacet
  facet normal -0.375178 0.330783 0.865924
    outer loop
      vertex 477.75 101.134 -5
      vertex 484.423 95.6136 0
      vertex 490.655 102.682 0
    endloop
  endfacet
  facet normal -0.395223 0.306553 0.865924
    outer loop
      vertex 471.641 93.258 -5
      vertex 484.423 95.6136 0
      vertex 477.75 101.134 -5
    endloop
  endfacet
  facet normal -0.395224 0.306591 0.86591
    outer loop
      vertex 471.641 93.258 -5
      vertex 478.647 88.1678 0
      vertex 484.423 95.6136 0
    endloop
  endfacet
  facet normal -0.413715 0.28114 0.86591
    outer loop
      vertex 466.039 85.0143 -5
      vertex 478.647 88.1678 0
      vertex 471.641 93.258 -5
    endloop
  endfacet
  facet normal -0.413714 0.281125 0.865916
    outer loop
      vertex 466.039 85.0143 -5
      vertex 473.351 80.374 0
      vertex 478.647 88.1678 0
    endloop
  endfacet
  facet normal -0.43053 0.254626 0.865915
    outer loop
      vertex 460.965 76.435 -5
      vertex 473.351 80.374 0
      vertex 466.039 85.0143 -5
    endloop
  endfacet
  facet normal -0.43053 0.254627 0.865915
    outer loop
      vertex 460.965 76.435 -5
      vertex 468.554 72.2631 0
      vertex 473.351 80.374 0
    endloop
  endfacet
  facet normal -0.445674 0.22708 0.865915
    outer loop
      vertex 456.44 67.5541 -5
      vertex 468.554 72.2631 0
      vertex 460.965 76.435 -5
    endloop
  endfacet
  facet normal -0.445674 0.227078 0.865916
    outer loop
      vertex 456.44 67.5541 -5
      vertex 464.276 63.8669 0
      vertex 468.554 72.2631 0
    endloop
  endfacet
  facet normal -0.45906 0.198629 0.865916
    outer loop
      vertex 452.482 58.4066 -5
      vertex 464.276 63.8669 0
      vertex 456.44 67.5541 -5
    endloop
  endfacet
  facet normal -0.459061 0.198632 0.865915
    outer loop
      vertex 452.482 58.4066 -5
      vertex 460.534 55.2187 0
      vertex 464.276 63.8669 0
    endloop
  endfacet
  facet normal -0.470608 0.169465 0.865915
    outer loop
      vertex 449.105 49.0286 -5
      vertex 460.534 55.2187 0
      vertex 452.482 58.4066 -5
    endloop
  endfacet
  facet normal -0.470593 0.169424 0.865931
    outer loop
      vertex 449.105 49.0286 -5
      vertex 457.342 46.3526 0
      vertex 460.534 55.2187 0
    endloop
  endfacet
  facet normal -0.480313 0.139505 0.865931
    outer loop
      vertex 446.325 39.4571 -5
      vertex 457.342 46.3526 0
      vertex 449.105 49.0286 -5
    endloop
  endfacet
  facet normal -0.480333 0.139549 0.865913
    outer loop
      vertex 446.325 39.4571 -5
      vertex 454.713 37.3035 0
      vertex 457.342 46.3526 0
    endloop
  endfacet
  facet normal -0.488139 0.109148 0.865914
    outer loop
      vertex 444.15 29.7299 -5
      vertex 454.713 37.3035 0
      vertex 446.325 39.4571 -5
    endloop
  endfacet
  facet normal -0.48813 0.10913 0.865921
    outer loop
      vertex 444.15 29.7299 -5
      vertex 452.657 28.1072 0
      vertex 454.713 37.3035 0
    endloop
  endfacet
  facet normal -0.494023 0.0782348 0.865922
    outer loop
      vertex 442.591 19.8854 -5
      vertex 452.657 28.1072 0
      vertex 444.15 29.7299 -5
    endloop
  endfacet
  facet normal -0.494026 0.07824 0.865919
    outer loop
      vertex 442.591 19.8854 -5
      vertex 451.183 18.8 0
      vertex 452.657 28.1072 0
    endloop
  endfacet
  facet normal -0.497964 0.0470712 0.865919
    outer loop
      vertex 441.653 9.96234 -5
      vertex 451.183 18.8 0
      vertex 442.591 19.8854 -5
    endloop
  endfacet
  facet normal -0.497972 0.0470825 0.865914
    outer loop
      vertex 441.653 9.96234 -5
      vertex 450.296 9.41858 0
      vertex 451.183 18.8 0
    endloop
  endfacet
  facet normal -0.499946 0.0157075 0.865914
    outer loop
      vertex 441.34 0 -5
      vertex 450.296 9.41858 0
      vertex 441.653 9.96234 -5
    endloop
  endfacet
  facet normal -0.499949 0.015712 0.865912
    outer loop
      vertex 441.34 0 -5
      vertex 450 0 0
      vertex 450.296 9.41858 0
    endloop
  endfacet
  facet normal -0.499949 -0.0157076 0.865912
    outer loop
      vertex 441.653 -9.96234 -5
      vertex 450 0 0
      vertex 441.34 0 -5
    endloop
  endfacet
  facet normal -0.499945 -0.0157119 0.865914
    outer loop
      vertex 441.653 -9.96234 -5
      vertex 450.296 -9.41858 0
      vertex 450 0 0
    endloop
  endfacet
  facet normal -0.497972 -0.047072 0.865914
    outer loop
      vertex 442.591 -19.8854 -5
      vertex 450.296 -9.41858 0
      vertex 441.653 -9.96234 -5
    endloop
  endfacet
  facet normal -0.497963 -0.0470817 0.865919
    outer loop
      vertex 442.591 -19.8854 -5
      vertex 451.183 -18.8 0
      vertex 450.296 -9.41858 0
    endloop
  endfacet
  facet normal -0.494027 -0.0782354 0.865919
    outer loop
      vertex 444.15 -29.7299 -5
      vertex 451.183 -18.8 0
      vertex 442.591 -19.8854 -5
    endloop
  endfacet
  facet normal -0.494023 -0.0782393 0.865922
    outer loop
      vertex 444.15 -29.7299 -5
      vertex 452.657 -28.1072 0
      vertex 451.183 -18.8 0
    endloop
  endfacet
  facet normal -0.488127 -0.109145 0.865921
    outer loop
      vertex 446.325 -39.4571 -5
      vertex 452.657 -28.1072 0
      vertex 444.15 -29.7299 -5
    endloop
  endfacet
  facet normal -0.488143 -0.109133 0.865914
    outer loop
      vertex 446.325 -39.4571 -5
      vertex 454.713 -37.3035 0
      vertex 452.657 -28.1072 0
    endloop
  endfacet
  facet normal -0.480343 -0.139513 0.865914
    outer loop
      vertex 449.105 -49.0286 -5
      vertex 454.713 -37.3035 0
      vertex 446.325 -39.4571 -5
    endloop
  endfacet
  facet normal -0.480302 -0.13954 0.865932
    outer loop
      vertex 449.105 -49.0286 -5
      vertex 457.342 -46.3526 0
      vertex 454.713 -37.3035 0
    endloop
  endfacet
  facet normal -0.470583 -0.169456 0.865931
    outer loop
      vertex 452.482 -58.4066 -5
      vertex 457.342 -46.3526 0
      vertex 449.105 -49.0286 -5
    endloop
  endfacet
  facet normal -0.47062 -0.169434 0.865915
    outer loop
      vertex 452.482 -58.4066 -5
      vertex 460.534 -55.2187 0
      vertex 457.342 -46.3526 0
    endloop
  endfacet
  facet normal -0.459062 -0.19863 0.865915
    outer loop
      vertex 456.44 -67.5541 -5
      vertex 460.534 -55.2187 0
      vertex 452.482 -58.4066 -5
    endloop
  endfacet
  facet normal -0.459059 -0.198631 0.865916
    outer loop
      vertex 456.44 -67.5541 -5
      vertex 464.276 -63.8669 0
      vertex 460.534 -55.2187 0
    endloop
  endfacet
  facet normal -0.445673 -0.227079 0.865916
    outer loop
      vertex 460.965 -76.435 -5
      vertex 464.276 -63.8669 0
      vertex 456.44 -67.5541 -5
    endloop
  endfacet
  facet normal -0.445675 -0.227079 0.865915
    outer loop
      vertex 460.965 -76.435 -5
      vertex 468.554 -72.2631 0
      vertex 464.276 -63.8669 0
    endloop
  endfacet
  facet normal -0.430531 -0.254626 0.865915
    outer loop
      vertex 466.039 -85.0143 -5
      vertex 468.554 -72.2631 0
      vertex 460.965 -76.435 -5
    endloop
  endfacet
  facet normal -0.43053 -0.254627 0.865915
    outer loop
      vertex 466.039 -85.0143 -5
      vertex 473.351 -80.374 0
      vertex 468.554 -72.2631 0
    endloop
  endfacet
  facet normal -0.413707 -0.281135 0.865915
    outer loop
      vertex 471.641 -93.258 -5
      vertex 473.351 -80.374 0
      vertex 466.039 -85.0143 -5
    endloop
  endfacet
  facet normal -0.413722 -0.28113 0.86591
    outer loop
      vertex 471.641 -93.258 -5
      vertex 478.647 -88.1678 0
      vertex 473.351 -80.374 0
    endloop
  endfacet
  facet normal -0.395241 -0.306568 0.86591
    outer loop
      vertex 477.75 -101.134 -5
      vertex 478.647 -88.1678 0
      vertex 471.641 -93.258 -5
    endloop
  endfacet
  facet normal -0.395205 -0.306576 0.865924
    outer loop
      vertex 477.75 -101.134 -5
      vertex 484.423 -95.6136 0
      vertex 478.647 -88.1678 0
    endloop
  endfacet
  facet normal -0.375163 -0.330802 0.865923
    outer loop
      vertex 484.342 -108.61 -5
      vertex 484.423 -95.6136 0
      vertex 477.75 -101.134 -5
    endloop
  endfacet
  facet normal -0.375193 -0.330797 0.865912
    outer loop
      vertex 484.342 -108.61 -5
      vertex 490.655 -102.682 0
      vertex 484.423 -95.6136 0
    endloop
  endfacet
  facet normal -0.353693 -0.353693 0.865911
    outer loop
      vertex 491.39 -115.658 -5
      vertex 490.655 -102.682 0
      vertex 484.342 -108.61 -5
    endloop
  endfacet
  facet normal -0.353693 -0.353693 0.865911
    outer loop
      vertex 491.39 -115.658 -5
      vertex 497.318 -109.345 0
      vertex 490.655 -102.682 0
    endloop
  endfacet
  facet normal -0.330814 -0.375177 0.865912
    outer loop
      vertex 498.866 -122.25 -5
      vertex 497.318 -109.345 0
      vertex 491.39 -115.658 -5
    endloop
  endfacet
  facet normal -0.330802 -0.375177 0.865917
    outer loop
      vertex 498.866 -122.25 -5
      vertex 504.386 -115.577 0
      vertex 497.318 -109.345 0
    endloop
  endfacet
  facet normal -0.30656 -0.395231 0.865918
    outer loop
      vertex 506.742 -128.359 -5
      vertex 504.386 -115.577 0
      vertex 498.866 -122.25 -5
    endloop
  endfacet
  facet normal -0.306589 -0.395232 0.865907
    outer loop
      vertex 506.742 -128.359 -5
      vertex 511.832 -121.353 0
      vertex 504.386 -115.577 0
    endloop
  endfacet
  facet normal -0.281136 -0.413724 0.865907
    outer loop
      vertex 514.986 -133.961 -5
      vertex 511.832 -121.353 0
      vertex 506.742 -128.359 -5
    endloop
  endfacet
  facet normal -0.281124 -0.413723 0.865911
    outer loop
      vertex 514.986 -133.961 -5
      vertex 519.626 -126.649 0
      vertex 511.832 -121.353 0
    endloop
  endfacet
  facet normal -0.254636 -0.430532 0.865912
    outer loop
      vertex 523.565 -139.035 -5
      vertex 519.626 -126.649 0
      vertex 514.986 -133.961 -5
    endloop
  endfacet
  facet normal -0.254624 -0.43053 0.865916
    outer loop
      vertex 523.565 -139.035 -5
      vertex 527.737 -131.446 0
      vertex 519.626 -126.649 0
    endloop
  endfacet
  facet normal -0.227077 -0.445673 0.865916
    outer loop
      vertex 532.446 -143.56 -5
      vertex 527.737 -131.446 0
      vertex 523.565 -139.035 -5
    endloop
  endfacet
  facet normal -0.227084 -0.445675 0.865914
    outer loop
      vertex 532.446 -143.56 -5
      vertex 536.133 -135.724 0
      vertex 527.737 -131.446 0
    endloop
  endfacet
  facet normal -0.19864 -0.459059 0.865914
    outer loop
      vertex 541.593 -147.518 -5
      vertex 536.133 -135.724 0
      vertex 532.446 -143.56 -5
    endloop
  endfacet
  facet normal -0.198635 -0.459058 0.865916
    outer loop
      vertex 541.593 -147.518 -5
      vertex 544.781 -139.466 0
      vertex 536.133 -135.724 0
    endloop
  endfacet
  facet normal -0.169465 -0.470607 0.865916
    outer loop
      vertex 550.971 -150.895 -5
      vertex 544.781 -139.466 0
      vertex 541.593 -147.518 -5
    endloop
  endfacet
  facet normal -0.169426 -0.470593 0.865931
    outer loop
      vertex 550.971 -150.895 -5
      vertex 553.647 -142.658 0
      vertex 544.781 -139.466 0
    endloop
  endfacet
  facet normal -0.139498 -0.480316 0.865931
    outer loop
      vertex 560.543 -153.675 -5
      vertex 553.647 -142.658 0
      vertex 550.971 -150.895 -5
    endloop
  endfacet
  facet normal -0.139535 -0.480332 0.865916
    outer loop
      vertex 560.543 -153.675 -5
      vertex 562.697 -145.287 0
      vertex 553.647 -142.658 0
    endloop
  endfacet
  facet normal -0.109149 -0.488135 0.865916
    outer loop
      vertex 570.27 -155.85 -5
      vertex 562.697 -145.287 0
      vertex 560.543 -153.675 -5
    endloop
  endfacet
  facet normal -0.109133 -0.488126 0.865923
    outer loop
      vertex 570.27 -155.85 -5
      vertex 571.893 -147.343 0
      vertex 562.697 -145.287 0
    endloop
  endfacet
  facet normal -0.0782306 -0.494022 0.865923
    outer loop
      vertex 580.115 -157.409 -5
      vertex 571.893 -147.343 0
      vertex 570.27 -155.85 -5
    endloop
  endfacet
  facet normal -0.078242 -0.494029 0.865918
    outer loop
      vertex 580.115 -157.409 -5
      vertex 581.2 -148.817 0
      vertex 571.893 -147.343 0
    endloop
  endfacet
  facet normal -0.0470716 -0.497965 0.865918
    outer loop
      vertex 590.038 -158.347 -5
      vertex 581.2 -148.817 0
      vertex 580.115 -157.409 -5
    endloop
  endfacet
  facet normal -0.0470849 -0.497975 0.865912
    outer loop
      vertex 590.038 -158.347 -5
      vertex 590.581 -149.704 0
      vertex 581.2 -148.817 0
    endloop
  endfacet
  facet normal -0.015708 -0.499947 0.865914
    outer loop
      vertex 600 -158.66 -5
      vertex 590.581 -149.704 0
      vertex 590.038 -158.347 -5
    endloop
  endfacet
  facet normal -0.0157113 -0.499949 0.865912
    outer loop
      vertex 600 -158.66 -5
      vertex 600 -150 0
      vertex 590.581 -149.704 0
    endloop
  endfacet
  facet normal 0.0157081 -0.499949 0.865912
    outer loop
      vertex 609.962 -158.347 -5
      vertex 600 -150 0
      vertex 600 -158.66 -5
    endloop
  endfacet
  facet normal 0.0157112 -0.499947 0.865914
    outer loop
      vertex 609.962 -158.347 -5
      vertex 609.419 -149.704 0
      vertex 600 -150 0
    endloop
  endfacet
  facet normal 0.0470726 -0.497976 0.865913
    outer loop
      vertex 619.885 -157.409 -5
      vertex 609.419 -149.704 0
      vertex 609.962 -158.347 -5
    endloop
  endfacet
  facet normal 0.0470839 -0.497964 0.865919
    outer loop
      vertex 619.885 -157.409 -5
      vertex 618.8 -148.817 0
      vertex 609.419 -149.704 0
    endloop
  endfacet
  facet normal 0.0782319 -0.49403 0.865918
    outer loop
      vertex 629.73 -155.85 -5
      vertex 618.8 -148.817 0
      vertex 619.885 -157.409 -5
    endloop
  endfacet
  facet normal 0.0782407 -0.49402 0.865923
    outer loop
      vertex 629.73 -155.85 -5
      vertex 628.107 -147.343 0
      vertex 618.8 -148.817 0
    endloop
  endfacet
  facet normal 0.109147 -0.488124 0.865923
    outer loop
      vertex 639.457 -153.675 -5
      vertex 628.107 -147.343 0
      vertex 629.73 -155.85 -5
    endloop
  endfacet
  facet normal 0.109136 -0.488138 0.865916
    outer loop
      vertex 639.457 -153.675 -5
      vertex 637.303 -145.287 0
      vertex 628.107 -147.343 0
    endloop
  endfacet
  facet normal 0.139505 -0.48034 0.865917
    outer loop
      vertex 649.029 -150.895 -5
      vertex 637.303 -145.287 0
      vertex 639.457 -153.675 -5
    endloop
  endfacet
  facet normal 0.139528 -0.480306 0.865932
    outer loop
      vertex 649.029 -150.895 -5
      vertex 646.353 -142.658 0
      vertex 637.303 -145.287 0
    endloop
  endfacet
  facet normal 0.169456 -0.470583 0.865931
    outer loop
      vertex 658.407 -147.518 -5
      vertex 646.353 -142.658 0
      vertex 649.029 -150.895 -5
    endloop
  endfacet
  facet normal 0.169435 -0.470618 0.865916
    outer loop
      vertex 658.407 -147.518 -5
      vertex 655.219 -139.466 0
      vertex 646.353 -142.658 0
    endloop
  endfacet
  facet normal 0.198638 -0.459056 0.865916
    outer loop
      vertex 667.554 -143.56 -5
      vertex 655.219 -139.466 0
      vertex 658.407 -147.518 -5
    endloop
  endfacet
  facet normal 0.198636 -0.459061 0.865914
    outer loop
      vertex 667.554 -143.56 -5
      vertex 663.867 -135.724 0
      vertex 655.219 -139.466 0
    endloop
  endfacet
  facet normal 0.227079 -0.445677 0.865914
    outer loop
      vertex 676.435 -139.035 -5
      vertex 663.867 -135.724 0
      vertex 667.554 -143.56 -5
    endloop
  endfacet
  facet normal 0.227082 -0.445671 0.865916
    outer loop
      vertex 676.435 -139.035 -5
      vertex 672.263 -131.446 0
      vertex 663.867 -135.724 0
    endloop
  endfacet
  facet normal 0.254632 -0.430525 0.865916
    outer loop
      vertex 685.014 -133.961 -5
      vertex 672.263 -131.446 0
      vertex 676.435 -139.035 -5
    endloop
  endfacet
  facet normal 0.254628 -0.430537 0.865912
    outer loop
      vertex 685.014 -133.961 -5
      vertex 680.374 -126.649 0
      vertex 672.263 -131.446 0
    endloop
  endfacet
  facet normal 0.281132 -0.413718 0.865911
    outer loop
      vertex 693.258 -128.359 -5
      vertex 680.374 -126.649 0
      vertex 685.014 -133.961 -5
    endloop
  endfacet
  facet normal 0.281128 -0.41373 0.865907
    outer loop
      vertex 693.258 -128.359 -5
      vertex 688.168 -121.353 0
      vertex 680.374 -126.649 0
    endloop
  endfacet
  facet normal 0.306571 -0.395245 0.865907
    outer loop
      vertex 701.134 -122.25 -5
      vertex 688.168 -121.353 0
      vertex 693.258 -128.359 -5
    endloop
  endfacet
  facet normal 0.306577 -0.395217 0.865918
    outer loop
      vertex 701.134 -122.25 -5
      vertex 695.614 -115.577 0
      vertex 688.168 -121.353 0
    endloop
  endfacet
  facet normal 0.330809 -0.375171 0.865917
    outer loop
      vertex 708.61 -115.658 -5
      vertex 695.614 -115.577 0
      vertex 701.134 -122.25 -5
    endloop
  endfacet
  facet normal 0.330807 -0.375184 0.865912
    outer loop
      vertex 708.61 -115.658 -5
      vertex 702.682 -109.345 0
      vertex 695.614 -115.577 0
    endloop
  endfacet
  facet normal 0.353693 -0.353693 0.865911
    outer loop
      vertex 715.658 -108.61 -5
      vertex 702.682 -109.345 0
      vertex 708.61 -115.658 -5
    endloop
  endfacet
  facet normal 0.353693 -0.353693 0.865911
    outer loop
      vertex 715.658 -108.61 -5
      vertex 709.345 -102.682 0
      vertex 702.682 -109.345 0
    endloop
  endfacet
  facet normal 0.375177 -0.330814 0.865912
    outer loop
      vertex 722.25 -101.134 -5
      vertex 709.345 -102.682 0
      vertex 715.658 -108.61 -5
    endloop
  endfacet
  facet normal 0.375178 -0.330783 0.865924
    outer loop
      vertex 722.25 -101.134 -5
      vertex 715.577 -95.6136 0
      vertex 709.345 -102.682 0
    endloop
  endfacet
  facet normal 0.395223 -0.306553 0.865924
    outer loop
      vertex 728.359 -93.258 -5
      vertex 715.577 -95.6136 0
      vertex 722.25 -101.134 -5
    endloop
  endfacet
  facet normal 0.395224 -0.306591 0.86591
    outer loop
      vertex 728.359 -93.258 -5
      vertex 721.353 -88.1678 0
      vertex 715.577 -95.6136 0
    endloop
  endfacet
  facet normal 0.413715 -0.28114 0.86591
    outer loop
      vertex 733.961 -85.0143 -5
      vertex 721.353 -88.1678 0
      vertex 728.359 -93.258 -5
    endloop
  endfacet
  facet normal 0.413714 -0.281125 0.865916
    outer loop
      vertex 733.961 -85.0143 -5
      vertex 726.649 -80.374 0
      vertex 721.353 -88.1678 0
    endloop
  endfacet
  facet normal 0.43053 -0.254626 0.865915
    outer loop
      vertex 739.035 -76.435 -5
      vertex 726.649 -80.374 0
      vertex 733.961 -85.0143 -5
    endloop
  endfacet
  facet normal 0.43053 -0.254627 0.865915
    outer loop
      vertex 739.035 -76.435 -5
      vertex 731.446 -72.2631 0
      vertex 726.649 -80.374 0
    endloop
  endfacet
  facet normal 0.445674 -0.22708 0.865915
    outer loop
      vertex 743.56 -67.5541 -5
      vertex 731.446 -72.2631 0
      vertex 739.035 -76.435 -5
    endloop
  endfacet
  facet normal 0.445674 -0.227078 0.865916
    outer loop
      vertex 743.56 -67.5541 -5
      vertex 735.724 -63.8669 0
      vertex 731.446 -72.2631 0
    endloop
  endfacet
  facet normal 0.45906 -0.198629 0.865916
    outer loop
      vertex 747.518 -58.4066 -5
      vertex 735.724 -63.8669 0
      vertex 743.56 -67.5541 -5
    endloop
  endfacet
  facet normal 0.459061 -0.198632 0.865915
    outer loop
      vertex 747.518 -58.4066 -5
      vertex 739.466 -55.2187 0
      vertex 735.724 -63.8669 0
    endloop
  endfacet
  facet normal 0.470608 -0.169465 0.865915
    outer loop
      vertex 750.895 -49.0286 -5
      vertex 739.466 -55.2187 0
      vertex 747.518 -58.4066 -5
    endloop
  endfacet
  facet normal 0.470593 -0.169424 0.865931
    outer loop
      vertex 750.895 -49.0286 -5
      vertex 742.658 -46.3526 0
      vertex 739.466 -55.2187 0
    endloop
  endfacet
  facet normal 0.480313 -0.139505 0.865931
    outer loop
      vertex 753.675 -39.4571 -5
      vertex 742.658 -46.3526 0
      vertex 750.895 -49.0286 -5
    endloop
  endfacet
  facet normal 0.480333 -0.139549 0.865913
    outer loop
      vertex 753.675 -39.4571 -5
      vertex 745.287 -37.3035 0
      vertex 742.658 -46.3526 0
    endloop
  endfacet
  facet normal 0.488139 -0.109148 0.865914
    outer loop
      vertex 755.85 -29.7299 -5
      vertex 745.287 -37.3035 0
      vertex 753.675 -39.4571 -5
    endloop
  endfacet
  facet normal 0.48813 -0.10913 0.865921
    outer loop
      vertex 755.85 -29.7299 -5
      vertex 747.343 -28.1072 0
      vertex 745.287 -37.3035 0
    endloop
  endfacet
  facet normal 0.494023 -0.0782348 0.865922
    outer loop
      vertex 757.409 -19.8854 -5
      vertex 747.343 -28.1072 0
      vertex 755.85 -29.7299 -5
    endloop
  endfacet
  facet normal 0.494026 -0.07824 0.865919
    outer loop
      vertex 757.409 -19.8854 -5
      vertex 748.817 -18.8 0
      vertex 747.343 -28.1072 0
    endloop
  endfacet
  facet normal 0.497964 -0.0470712 0.865919
    outer loop
      vertex 758.347 -9.96234 -5
      vertex 748.817 -18.8 0
      vertex 757.409 -19.8854 -5
    endloop
  endfacet
  facet normal 0.497972 -0.0470825 0.865914
    outer loop
      vertex 758.347 -9.96234 -5
      vertex 749.704 -9.41858 0
      vertex 748.817 -18.8 0
    endloop
  endfacet
  facet normal 0.499946 -0.0157075 0.865914
    outer loop
      vertex 758.66 0 -5
      vertex 749.704 -9.41858 0
      vertex 758.347 -9.96234 -5
    endloop
  endfacet
  facet normal 0.499949 -0.015712 0.865912
    outer loop
      vertex 758.66 0 -5
      vertex 750 0 0
      vertex 749.704 -9.41858 0
    endloop
  endfacet
  facet normal 0 0 -1
    outer loop
      vertex 758.347 -9.96234 -5
      vertex 758.347 9.96234 -5
      vertex 758.66 0 -5
    endloop
  endfacet
  facet normal 0 0 -1
    outer loop
      vertex 757.409 -19.8854 -5
      vertex 758.347 9.96234 -5
      vertex 758.347 -9.96234 -5
    endloop
  endfacet
  facet normal 0 0 -1
    outer loop
      vertex 757.409 -19.8854 -5
      vertex 757.409 19.8854 -5
      vertex 758.347 9.96234 -5
    endloop
  endfacet
  facet normal 0 0 -1
    outer loop
      vertex 755.85 -29.7299 -5
      vertex 757.409 19.8854 -5
      vertex 757.409 -19.8854 -5
    endloop
  endfacet
  facet normal 0 0 -1
    outer loop
      vertex 755.85 -29.7299 -5
      vertex 755.85 29.7299 -5
      vertex 757.409 19.8854 -5
    endloop
  endfacet
  facet normal 0 0 -1
    outer loop
      vertex 753.675 -39.4571 -5
      vertex 755.85 29.7299 -5
      vertex 755.85 -29.7299 -5
    endloop
  endfacet
  facet normal 0 0 -1
    outer loop
      vertex 753.675 -39.4571 -5
      vertex 753.675 39.4571 -5
      vertex 755.85 29.7299 -5
    endloop
  endfacet
  facet normal 0 0 -1
    outer loop
      vertex 750.895 -49.0286 -5
      vertex 753.675 39.4571 -5
      vertex 753.675 -39.4571 -5
    endloop
  endfacet
  facet normal 0 0 -1
    outer loop
      vertex 750.895 -49.0286 -5
      vertex 750.895 49.0286 -5
      vertex 753.675 39.4571 -5
    endloop
  endfacet
  facet normal 0 0 -1
    outer loop
      vertex 747.518 -58.4066 -5
      vertex 750.895 49.0286 -5
      vertex 750.895 -49.0286 -5
    endloop
  endfacet
  facet normal 0 0 -1
    outer loop
      vertex 747.518 -58.4066 -5
      vertex 747.518 58.4066 -5
      vertex 750.895 49.0286 -5
    endloop
  endfacet
  facet normal 0 0 -1
    outer loop
      vertex 743.56 -67.5541 -5
      vertex 747.518 58.4066 -5
      vertex 747.518 -58.4066 -5
    endloop
  endfacet
  facet normal 0 0 -1
    outer loop
      vertex 743.56 -67.5541 -5
      vertex 743.56 67.5541 -5
      vertex 747.518 58.4066 -5
    endloop
  endfacet
  facet normal 0 0 -1
    outer loop
      vertex 739.035 -76.435 -5
      vertex 743.56 67.5541 -5
      vertex 743.56 -67.5541 -5
    endloop
  endfacet
  facet normal 0 0 -1
    outer loop
      vertex 739.035 -76.435 -5
      vertex 739.035 76.435 -5
      vertex 743.56 67.5541 -5
    endloop
  endfacet
  facet normal 0 0 -1
    outer loop
      vertex 733.961 -85.0143 -5
      vertex 739.035 76.435 -5
      vertex 739.035 -76.435 -5
    endloop
  endfacet
  facet normal 0 0 -1
    outer loop
      vertex 733.961 -85.0143 -5
      vertex 733.961 85.0143 -5
      vertex 739.035 76.435 -5
    endloop
  endfacet
  facet normal 0 0 -1
    outer loop
      vertex 728.359 -93.258 -5
      vertex 733.961 85.0143 -5
      vertex 733.961 -85.0143 -5
    endloop
  endfacet
  facet normal 0 0 -1
    outer loop
      vertex 728.359 -93.258 -5
      vertex 728.359 93.258 -5
      vertex 733.961 85.0143 -5
    endloop
  endfacet
  facet normal 0 0 -1
    outer loop
      vertex 722.25 -101.134 -5
      vertex 728.359 93.258 -5
      vertex 728.359 -93.258 -5
    endloop
  endfacet
  facet normal 0 0 -1
    outer loop
      vertex 722.25 -101.134 -5
      vertex 722.25 101.134 -5
      vertex 728.359 93.258 -5
    endloop
  endfacet
  facet normal 0 0 -1
    outer loop
      vertex 715.658 -108.61 -5
      vertex 722.25 101.134 -5
      vertex 722.25 -101.134 -5
    endloop
  endfacet
  facet normal 0 0 -1
    outer loop
      vertex 715.658 -108.61 -5
      vertex 715.658 108.61 -5
      vertex 722.25 101.134 -5
    endloop
  endfacet
  facet normal 0 0 -1
    outer loop
      vertex 708.61 -115.658 -5
      vertex 715.658 108.61 -5
      vertex 715.658 -108.61 -5
    endloop
  endfacet
  facet normal 0 0 -1
    outer loop
      vertex 708.61 -115.658 -5
      vertex 708.61 115.658 -5
      vertex 715.658 108.61 -5
    endloop
  endfacet
  facet normal 0 0 -1
    outer loop
      vertex 701.134 -122.25 -5
      vertex 708.61 115.658 -5
      vertex 708.61 -115.658 -5
    endloop
  endfacet
  facet normal 0 0 -1
    outer loop
      vertex 701.134 -122.25 -5
      vertex 701.134 122.25 -5
      vertex 708.61 115.658 -5
    endloop
  endfacet
  facet normal 0 0 -1
    outer loop
      vertex 693.258 -128.359 -5
      vertex 701.134 122.25 -5
      vertex 701.134 -122.25 -5
    endloop
  endfacet
  facet normal 0 0 -1
    outer loop
      vertex 693.258 -128.359 -5
      vertex 693.258 128.359 -5
      vertex 701.134 122.25 -5
    endloop
  endfacet
  facet normal 0 0 -1
    outer loop
      vertex 685.014 -133.961 -5
      vertex 693.258 128.359 -5
      vertex 693.258 -128.359 -5
    endloop
  endfacet
  facet normal 0 0 -1
    outer loop
      vertex 685.014 -133.961 -5
      vertex 685.014 133.961 -5
      vertex 693.258 128.359 -5
    endloop
  endfacet
  facet normal 0 0 -1
    outer loop
      vertex 676.435 -139.035 -5
      vertex 685.014 133.961 -5
      vertex 685.014 -133.961 -5
    endloop
  endfacet
  facet normal 0 0 -1
    outer loop
      vertex 676.435 -139.035 -5
      vertex 676.435 139.035 -5
      vertex 685.014 133.961 -5
    endloop
  endfacet
  facet normal 0 0 -1
    outer loop
      vertex 667.554 -143.56 -5
      vertex 676.435 139.035 -5
      vertex 676.435 -139.035 -5
    endloop
  endfacet
  facet normal 0 0 -1
    outer loop
      vertex 667.554 -143.56 -5
      vertex 667.554 143.56 -5
      vertex 676.435 139.035 -5
    endloop
  endfacet
  facet normal 0 0 -1
    outer loop
      vertex 658.407 -147.518 -5
      vertex 667.554 143.56 -5
      vertex 667.554 -143.56 -5
    endloop
  endfacet
  facet normal 0 0 -1
    outer loop
      vertex 658.407 -147.518 -5
      vertex 658.407 147.518 -5
      vertex 667.554 143.56 -5
    endloop
  endfacet
  facet normal 0 0 -1
    outer loop
      vertex 649.029 -150.895 -5
      vertex 658.407 147.518 -5
      vertex 658.407 -147.518 -5
    endloop
  endfacet
  facet normal 0 0 -1
    outer loop
      vertex 649.029 -150.895 -5
      vertex 649.029 150.895 -5
      vertex 658.407 147.518 -5
    endloop
  endfacet
  facet normal 0 0 -1
    outer loop
      vertex 639.457 -153.675 -5
      vertex 649.029 150.895 -5
      vertex 649.029 -150.895 -5
    endloop
  endfacet
  facet normal 0 0 -1
    outer loop
      vertex 639.457 -153.675 -5
      vertex 639.457 153.675 -5
      vertex 649.029 150.895 -5
    endloop
  endfacet
  facet normal 0 0 -1
    outer loop
      vertex 629.73 -155.85 -5
      vertex 639.457 153.675 -5
      vertex 639.457 -153.675 -5
    endloop
  endfacet
  facet normal 0 0 -1
    outer loop
      vertex 629.73 -155.85 -5
      vertex 629.73 155.85 -5
      vertex 639.457 153.675 -5
    endloop
  endfacet
  facet normal 0 0 -1
    outer loop
      vertex 619.885 -157.409 -5
      vertex 629.73 155.85 -5
      vertex 629.73 -155.85 -5
    endloop
  endfacet
  facet normal 0 0 -1
    outer loop
      vertex 619.885 -157.409 -5
      vertex 619.885 157.409 -5
      vertex 629.73 155.85 -5
    endloop
  endfacet
  facet normal 0 0 -1
    outer loop
      vertex 609.962 -158.347 -5
      vertex 619.885 157.409 -5
      vertex 619.885 -157.409 -5
    endloop
  endfacet
  facet normal 0 0 -1
    outer loop
      vertex 609.962 -158.347 -5
      vertex 609.962 158.347 -5
      vertex 619.885 157.409 -5
    endloop
  endfacet
  facet normal 0 0 -1
    outer loop
      vertex 600 -158.66 -5
      vertex 609.962 158.347 -5
      vertex 609.962 -158.347 -5
    endloop
  endfacet
  facet normal 0 0 -1
    outer loop
      vertex 600 -158.66 -5
      vertex 600 158.66 -5
      vertex 609.962 158.347 -5
    endloop
  endfacet
  facet normal 0 0 -1
    outer loop
      vertex 590.038 -158.347 -5
      vertex 600 158.66 -5
      vertex 600 -158.66 -5
    endloop
  endfacet
  facet normal 0 0 -1
    outer loop
      vertex 590.038 -158.347 -5
      vertex 590.038 158.347 -5
      vertex 600 158.66 -5
    endloop
  endfacet
  facet normal 0 0 -1
    outer loop
      vertex 580.115 -157.409 -5
      vertex 590.038 158.347 -5
      vertex 590.038 -158.347 -5
    endloop
  endfacet
  facet normal 0 0 -1
    outer loop
      vertex 580.115 -157.409 -5
      vertex 580.115 157.409 -5
      vertex 590.038 158.347 -5
    endloop
  endfacet
  facet normal 0 0 -1
    outer loop
      vertex 570.27 -155.85 -5
      vertex 580.115 157.409 -5
      vertex 580.115 -157.409 -5
    endloop
  endfacet
  facet normal 0 0 -1
    outer loop
      vertex 570.27 -155.85 -5
      vertex 570.27 155.85 -5
      vertex 580.115 157.409 -5
    endloop
  endfacet
  facet normal 0 0 -1
    outer loop
      vertex 560.543 -153.675 -5
      vertex 570.27 155.85 -5
      vertex 570.27 -155.85 -5
    endloop
  endfacet
  facet normal 0 0 -1
    outer loop
      vertex 560.543 -153.675 -5
      vertex 560.543 153.675 -5
      vertex 570.27 155.85 -5
    endloop
  endfacet
  facet normal 0 0 -1
    outer loop
      vertex 550.971 -150.895 -5
      vertex 560.543 153.675 -5
      vertex 560.543 -153.675 -5
    endloop
  endfacet
  facet normal 0 0 -1
    outer loop
      vertex 550.971 -150.895 -5
      vertex 550.971 150.895 -5
      vertex 560.543 153.675 -5
    endloop
  endfacet
  facet normal 0 0 -1
    outer loop
      vertex 541.593 -147.518 -5
      vertex 550.971 150.895 -5
      vertex 550.971 -150.895 -5
    endloop
  endfacet
  facet normal 0 0 -1
    outer loop
      vertex 541.593 -147.518 -5
      vertex 541.593 147.518 -5
      vertex 550.971 150.895 -5
    endloop
  endfacet
  facet normal 0 0 -1
    outer loop
      vertex 532.446 -143.56 -5
      vertex 541.593 147.518 -5
      vertex 541.593 -147.518 -5
    endloop
  endfacet
  facet normal 0 0 -1
    outer loop
      vertex 532.446 -143.56 -5
      vertex 532.446 143.56 -5
      vertex 541.593 147.518 -5
    endloop
  endfacet
  facet normal 0 0 -1
    outer loop
      vertex 523.565 -139.035 -5
      vertex 532.446 143.56 -5
      vertex 532.446 -143.56 -5
    endloop
  endfacet
  facet normal 0 0 -1
    outer loop
      vertex 523.565 -139.035 -5
      vertex 523.565 139.035 -5
      vertex 532.446 143.56 -5
    endloop
  endfacet
  facet normal 0 0 -1
    outer loop
      vertex 514.986 -133.961 -5
      vertex 523.565 139.035 -5
      vertex 523.565 -139.035 -5
    endloop
  endfacet
  facet normal 0 0 -1
    outer loop
      vertex 514.986 -133.961 -5
      vertex 514.986 133.961 -5
      vertex 523.565 139.035 -5
    endloop
  endfacet
  facet normal 0 0 -1
    outer loop
      vertex 506.742 -128.359 -5
      vertex 514.986 133.961 -5
      vertex 514.986 -133.961 -5
    endloop
  endfacet
  facet normal 0 0 -1
    outer loop
      vertex 506.742 -128.359 -5
      vertex 506.742 128.359 -5
      vertex 514.986 133.961 -5
    endloop
  endfacet
  facet normal 0 0 -1
    outer loop
      vertex 498.866 -122.25 -5
      vertex 506.742 128.359 -5
      vertex 506.742 -128.359 -5
    endloop
  endfacet
  facet normal 0 0 -1
    outer loop
      vertex 498.866 -122.25 -5
      vertex 498.866 122.25 -5
      vertex 506.742 128.359 -5
    endloop
  endfacet
  facet normal 0 0 -1
    outer loop
      vertex 491.39 -115.658 -5
      vertex 498.866 122.25 -5
      vertex 498.866 -122.25 -5
    endloop
  endfacet
  facet normal 0 0 -1
    outer loop
      vertex 491.39 -115.658 -5
      vertex 491.39 115.658 -5
      vertex 498.866 122.25 -5
    endloop
  endfacet
  facet normal 0 0 -1
    outer loop
      vertex 484.342 -108.61 -5
      vertex 491.39 115.658 -5
      vertex 491.39 -115.658 -5
    endloop
  endfacet
  facet normal 0 0 -1
    outer loop
      vertex 484.342 -108.61 -5
      vertex 484.342 108.61 -5
      vertex 491.39 115.658 -5
    endloop
  endfacet
  facet normal 0 0 -1
    outer loop
      vertex 477.75 -101.134 -5
      vertex 484.342 108.61 -5
      vertex 484.342 -108.61 -5
    endloop
  endfacet
  facet normal 0 0 -1
    outer loop
      vertex 477.75 -101.134 -5
      vertex 477.75 101.134 -5
      vertex 484.342 108.61 -5
    endloop
  endfacet
  facet normal 0 0 -1
    outer loop
      vertex 471.641 -93.258 -5
      vertex 477.75 101.134 -5
      vertex 477.75 -101.134 -5
    endloop
  endfacet
  facet normal 0 0 -1
    outer loop
      vertex 471.641 -93.258 -5
      vertex 471.641 93.258 -5
      vertex 477.75 101.134 -5
    endloop
  endfacet
  facet normal 0 0 -1
    outer loop
      vertex 466.039 -85.0143 -5
      vertex 471.641 93.258 -5
      vertex 471.641 -93.258 -5
    endloop
  endfacet
  facet normal 0 0 -1
    outer loop
      vertex 466.039 -85.0143 -5
      vertex 466.039 85.0143 -5
      vertex 471.641 93.258 -5
    endloop
  endfacet
  facet normal 0 0 -1
    outer loop
      vertex 460.965 -76.435 -5
      vertex 466.039 85.0143 -5
      vertex 466.039 -85.0143 -5
    endloop
  endfacet
  facet normal 0 0 -1
    outer loop
      vertex 460.965 -76.435 -5
      vertex 460.965 76.435 -5
      vertex 466.039 85.0143 -5
    endloop
  endfacet
  facet normal 0 0 -1
    outer loop
      vertex 456.44 -67.5541 -5
      vertex 460.965 76.435 -5
      vertex 460.965 -76.435 -5
    endloop
  endfacet
  facet normal 0 0 -1
    outer loop
      vertex 456.44 -67.5541 -5
      vertex 456.44 67.5541 -5
      vertex 460.965 76.435 -5
    endloop
  endfacet
  facet normal 0 0 -1
    outer loop
      vertex 452.482 -58.4066 -5
      vertex 456.44 67.5541 -5
      vertex 456.44 -67.5541 -5
    endloop
  endfacet
  facet normal 0 0 -1
    outer loop
      vertex 452.482 -58.4066 -5
      vertex 452.482 58.4066 -5
      vertex 456.44 67.5541 -5
    endloop
  endfacet
  facet normal 0 0 -1
    outer loop
      vertex 449.105 -49.0286 -5
      vertex 452.482 58.4066 -5
      vertex 452.482 -58.4066 -5
    endloop
  endfacet
  facet normal 0 0 -1
    outer loop
      vertex 449.105 -49.0286 -5
      vertex 449.105 49.0286 -5
      vertex 452.482 58.4066 -5
    endloop
  endfacet
  facet normal 0 0 -1
    outer loop
      vertex 446.325 -39.4571 -5
      vertex 449.105 49.0286 -5
      vertex 449.105 -49.0286 -5
    endloop
  endfacet
  facet normal 0 0 -1
    outer loop
      vertex 446.325 -39.4571 -5
      vertex 446.325 39.4571 -5
      vertex 449.105 49.0286 -5
    endloop
  endfacet
  facet normal 0 0 -1
    outer loop
      vertex 444.15 -29.7299 -5
      vertex 446.325 39.4571 -5
      vertex 446.325 -39.4571 -5
    endloop
  endfacet
  facet normal 0 0 -1
    outer loop
      vertex 444.15 -29.7299 -5
      vertex 444.15 29.7299 -5
      vertex 446.325 39.4571 -5
    endloop
  endfacet
  facet normal 0 0 -1
    outer loop
      vertex 442.591 -19.8854 -5
      vertex 444.15 29.7299 -5
      vertex 444.15 -29.7299 -5
    endloop
  endfacet
  facet normal 0 0 -1
    outer loop
      vertex 442.591 -19.8854 -5
      vertex 442.591 19.8854 -5
      vertex 444.15 29.7299 -5
    endloop
  endfacet
  facet normal 0 0 -1
    outer loop
      vertex 441.653 -9.96234 -5
      vertex 442.591 19.8854 -5
      vertex 442.591 -19.8854 -5
    endloop
  endfacet
  facet normal 0 0 -1
    outer loop
      vertex 441.653 -9.96234 -5
      vertex 441.653 9.96234 -5
      vertex 442.591 19.8854 -5
    endloop
  endfacet
  facet normal 0 -0 -1
    outer loop
      vertex 441.653 9.96234 -5
      vertex 441.653 -9.96234 -5
      vertex 441.34 0 -5
    endloop
  endfacet
  facet normal 0 0 1
    outer loop
      vertex 749.704 9.41858 0
      vertex 749.704 -9.41858 0
      vertex 750 0 0
    endloop
  endfacet
  facet normal 0 0 1
    outer loop
      vertex 748.817 18.8 0
      vertex 749.704 -9.41858 0
      vertex 749.704 9.41858 0
    endloop
  endfacet
  facet normal 0 0 1
    outer loop
      vertex 748.817 18.8 0
      vertex 748.817 -18.8 0
      vertex 749.704 -9.41858 0
    endloop
  endfacet
  facet normal 0 0 1
    outer loop
      vertex 747.343 28.1072 0
      vertex 748.817 -18.8 0
      vertex 748.817 18.8 0
    endloop
  endfacet
  facet normal 0 0 1
    outer loop
      vertex 747.343 28.1072 0
      vertex 747.343 -28.1072 0
      vertex 748.817 -18.8 0
    endloop
  endfacet
  facet normal 0 0 1
    outer loop
      vertex 745.287 37.3035 0
      vertex 747.343 -28.1072 0
      vertex 747.343 28.1072 0
    endloop
  endfacet
  facet normal 0 0 1
    outer loop
      vertex 745.287 37.3035 0
      vertex 745.287 -37.3035 0
      vertex 747.343 -28.1072 0
    endloop
  endfacet
  facet normal 0 0 1
    outer loop
      vertex 742.658 46.3526 0
      vertex 745.287 -37.3035 0
      vertex 745.287 37.3035 0
    endloop
  endfacet
  facet normal 0 0 1
    outer loop
      vertex 742.658 46.3526 0
      vertex 742.658 -46.3526 0
      vertex 745.287 -37.3035 0
    endloop
  endfacet
  facet normal 0 0 1
    outer loop
      vertex 739.466 55.2187 0
      vertex 742.658 -46.3526 0
      vertex 742.658 46.3526 0
    endloop
  endfacet
  facet normal 0 0 1
    outer loop
      vertex 739.466 55.2187 0
      vertex 739.466 -55.2187 0
      vertex 742.658 -46.3526 0
    endloop
  endfacet
  facet normal 0 0 1
    outer loop
      vertex 735.724 63.8669 0
      vertex 739.466 -55.2187 0
      vertex 739.466 55.2187 0
    endloop
  endfacet
  facet normal 0 0 1
    outer loop
      vertex 735.724 63.8669 0
      vertex 735.724 -63.8669 0
      vertex 739.466 -55.2187 0
    endloop
  endfacet
  facet normal 0 0 1
    outer loop
      vertex 731.446 72.2631 0
      vertex 735.724 -63.8669 0
      vertex 735.724 63.8669 0
    endloop
  endfacet
  facet normal 0 0 1
    outer loop
      vertex 731.446 72.2631 0
      vertex 731.446 -72.2631 0
      vertex 735.724 -63.8669 0
    endloop
  endfacet
  facet normal 0 0 1
    outer loop
      vertex 726.649 80.374 0
      vertex 731.446 -72.2631 0
      vertex 731.446 72.2631 0
    endloop
  endfacet
  facet normal 0 0 1
    outer loop
      vertex 726.649 80.374 0
      vertex 726.649 -80.374 0
      vertex 731.446 -72.2631 0
    endloop
  endfacet
  facet normal 0 0 1
    outer loop
      vertex 721.353 88.1678 0
      vertex 726.649 -80.374 0
      vertex 726.649 80.374 0
    endloop
  endfacet
  facet normal 0 0 1
    outer loop
      vertex 721.353 88.1678 0
      vertex 721.353 -88.1678 0
      vertex 726.649 -80.374 0
    endloop
  endfacet
  facet normal 0 0 1
    outer loop
      vertex 715.577 95.6136 0
      vertex 721.353 -88.1678 0
      vertex 721.353 88.1678 0
    endloop
  endfacet
  facet normal 0 0 1
    outer loop
      vertex 715.577 95.6136 0
      vertex 715.577 -95.6136 0
      vertex 721.353 -88.1678 0
    endloop
  endfacet
  facet normal 0 0 1
    outer loop
      vertex 709.345 102.682 0
      vertex 715.577 -95.6136 0
      vertex 715.577 95.6136 0
    endloop
  endfacet
  facet normal 0 0 1
    outer loop
      vertex 709.345 102.682 0
      vertex 709.345 -102.682 0
      vertex 715.577 -95.6136 0
    endloop
  endfacet
  facet normal 0 0 1
    outer loop
      vertex 702.682 109.345 0
      vertex 709.345 -102.682 0
      vertex 709.345 102.682 0
    endloop
  endfacet
  facet normal 0 0 1
    outer loop
      vertex 702.682 109.345 0
      vertex 702.682 -109.345 0
      vertex 709.345 -102.682 0
    endloop
  endfacet
  facet normal 0 0 1
    outer loop
      vertex 695.614 115.577 0
      vertex 702.682 -109.345 0
      vertex 702.682 109.345 0
    endloop
  endfacet
  facet normal 0 0 1
    outer loop
      vertex 695.614 115.577 0
      vertex 695.614 -115.577 0
      vertex 702.682 -109.345 0
    endloop
  endfacet
  facet normal 0 0 1
    outer loop
      vertex 688.168 121.353 0
      vertex 695.614 -115.577 0
      vertex 695.614 115.577 0
    endloop
  endfacet
  facet normal 0 0 1
    outer loop
      vertex 688.168 121.353 0
      vertex 688.168 -121.353 0
      vertex 695.614 -115.577 0
    endloop
  endfacet
  facet normal 0 0 1
    outer loop
      vertex 680.374 126.649 0
      vertex 688.168 -121.353 0
      vertex 688.168 121.353 0
    endloop
  endfacet
  facet normal 0 0 1
    outer loop
      vertex 680.374 126.649 0
      vertex 680.374 -126.649 0
      vertex 688.168 -121.353 0
    endloop
  endfacet
  facet normal 0 0 1
    outer loop
      vertex 672.263 131.446 0
      vertex 680.374 -126.649 0
      vertex 680.374 126.649 0
    endloop
  endfacet
  facet normal 0 0 1
    outer loop
      vertex 672.263 131.446 0
      vertex 672.263 -131.446 0
      vertex 680.374 -126.649 0
    endloop
  endfacet
  facet normal 0 0 1
    outer loop
      vertex 663.867 135.724 0
      vertex 672.263 -131.446 0
      vertex 672.263 131.446 0
    endloop
  endfacet
  facet normal 0 0 1
    outer loop
      vertex 663.867 135.724 0
      vertex 663.867 -135.724 0
      vertex 672.263 -131.446 0
    endloop
  endfacet
  facet normal 0 0 1
    outer loop
      vertex 655.219 139.466 0
      vertex 663.867 -135.724 0
      vertex 663.867 135.724 0
    endloop
  endfacet
  facet normal 0 0 1
    outer loop
      vertex 655.219 139.466 0
      vertex 655.219 -139.466 0
      vertex 663.867 -135.724 0
    endloop
  endfacet
  facet normal 0 0 1
    outer loop
      vertex 646.353 142.658 0
      vertex 655.219 -139.466 0
      vertex 655.219 139.466 0
    endloop
  endfacet
  facet normal 0 0 1
    outer loop
      vertex 646.353 142.658 0
      vertex 646.353 -142.658 0
      vertex 655.219 -139.466 0
    endloop
  endfacet
  facet normal 0 0 1
    outer loop
      vertex 637.303 145.287 0
      vertex 646.353 -142.658 0
      vertex 646.353 142.658 0
    endloop
  endfacet
  facet normal 0 0 1
    outer loop
      vertex 637.303 145.287 0
      vertex 637.303 -145.287 0
      vertex 646.353 -142.658 0
    endloop
  endfacet
  facet normal 0 0 1
    outer loop
      vertex 628.107 147.343 0
      vertex 637.303 -145.287 0
      vertex 637.303 145.287 0
    endloop
  endfacet
  facet normal 0 0 1
    outer loop
      vertex 628.107 147.343 0
      vertex 628.107 -147.343 0
      vertex 637.303 -145.287 0
    endloop
  endfacet
  facet normal 0 0 1
    outer loop
      vertex 618.8 148.817 0
      vertex 628.107 -147.343 0
      vertex 628.107 147.343 0
    endloop
  endfacet
  facet normal 0 0 1
    outer loop
      vertex 618.8 148.817 0
      vertex 618.8 -148.817 0
      vertex 628.107 -147.343 0
    endloop
  endfacet
  facet normal 0 0 1
    outer loop
      vertex 609.419 149.704 0
      vertex 618.8 -148.817 0
      vertex 618.8 148.817 0
    endloop
  endfacet
  facet normal 0 0 1
    outer loop
      vertex 609.419 149.704 0
      vertex 609.419 -149.704 0
      vertex 618.8 -148.817 0
    endloop
  endfacet
  facet normal 0 0 1
    outer loop
      vertex 600 150 0
      vertex 609.419 -149.704 0
      vertex 609.419 149.704 0
    endloop
  endfacet
  facet normal 0 0 1
    outer loop
      vertex 600 150 0
      vertex 600 -150 0
      vertex 609.419 -149.704 0
    endloop
  endfacet
  facet normal -0 0 1
    outer loop
      vertex 590.581 149.704 0
      vertex 600 -150 0
      vertex 600 150 0
    endloop
  endfacet
  facet normal 0 0 1
    outer loop
      vertex 590.581 149.704 0
      vertex 590.581 -149.704 0
      vertex 600 -150 0
    endloop
  endfacet
  facet normal -0 0 1
    outer loop
      vertex 581.2 148.817 0
      vertex 590.581 -149.704 0
      vertex 590.581 149.704 0
    endloop
  endfacet
  facet normal 0 0 1
    outer loop
      vertex 581.2 148.817 0
      vertex 581.2 -148.817 0
      vertex 590.581 -149.704 0
    endloop
  endfacet
  facet normal -0 0 1
    outer loop
      vertex 571.893 147.343 0
      vertex 581.2 -148.817 0
      vertex 581.2 148.817 0
    endloop
  endfacet
  facet normal 0 0 1
    outer loop
      vertex 571.893 147.343 0
      vertex 571.893 -147.343 0
      vertex 581.2 -148.817 0
    endloop
  endfacet
  facet normal -0 0 1
    outer loop
      vertex 562.697 145.287 0
      vertex 571.893 -147.343 0
      vertex 571.893 147.343 0
    endloop
  endfacet
  facet normal 0 0 1
    outer loop
      vertex 562.697 145.287 0
      vertex 562.697 -145.287 0
      vertex 571.893 -147.343 0
    endloop
  endfacet
  facet normal -0 0 1
    outer loop
      vertex 553.647 142.658 0
      vertex 562.697 -145.287 0
      vertex 562.697 145.287 0
    endloop
  endfacet
  facet normal 0 0 1
    outer loop
      vertex 553.647 142.658 0
      vertex 553.647 -142.658 0
      vertex 562.697 -145.287 0
    endloop
  endfacet
  facet normal -0 0 1
    outer loop
      vertex 544.781 139.466 0
      vertex 553.647 -142.658 0
      vertex 553.647 142.658 0
    endloop
  endfacet
  facet normal 0 0 1
    outer loop
      vertex 544.781 139.466 0
      vertex 544.781 -139.466 0
      vertex 553.647 -142.658 0
    endloop
  endfacet
  facet normal -0 0 1
    outer loop
      vertex 536.133 135.724 0
      vertex 544.781 -139.466 0
      vertex 544.781 139.466 0
    endloop
  endfacet
  facet normal 0 0 1
    outer loop
      vertex 536.133 135.724 0
      vertex 536.133 -135.724 0
      vertex 544.781 -139.466 0
    endloop
  endfacet
  facet normal -0 0 1
    outer loop
      vertex 527.737 131.446 0
      vertex 536.133 -135.724 0
      vertex 536.133 135.724 0
    endloop
  endfacet
  facet normal 0 0 1
    outer loop
      vertex 527.737 131.446 0
      vertex 527.737 -131.446 0
      vertex 536.133 -135.724 0
    endloop
  endfacet
  facet normal -0 0 1
    outer loop
      vertex 519.626 126.649 0
      vertex 527.737 -131.446 0
      vertex 527.737 131.446 0
    endloop
  endfacet
  facet normal 0 0 1
    outer loop
      vertex 519.626 126.649 0
      vertex 519.626 -126.649 0
      vertex 527.737 -131.446 0
    endloop
  endfacet
  facet normal -0 0 1
    outer loop
      vertex 511.832 121.353 0
      vertex 519.626 -126.649 0
      vertex 519.626 126.649 0
    endloop
  endfacet
  facet normal 0 0 1
    outer loop
      vertex 511.832 121.353 0
      vertex 511.832 -121.353 0
      vertex 519.626 -126.649 0
    endloop
  endfacet
  facet normal -0 0 1
    outer loop
      vertex 504.386 115.577 0
      vertex 511.832 -121.353 0
      vertex 511.832 121.353 0
    endloop
  endfacet
  facet normal 0 0 1
    outer loop
      vertex 504.386 115.577 0
      vertex 504.386 -115.577 0
      vertex 511.832 -121.353 0
    endloop
  endfacet
  facet normal -0 0 1
    outer loop
      vertex 497.318 109.345 0
      vertex 504.386 -115.577 0
      vertex 504.386 115.577 0
    endloop
  endfacet
  facet normal 0 0 1
    outer loop
      vertex 497.318 109.345 0
      vertex 497.318 -109.345 0
      vertex 504.386 -115.577 0
    endloop
  endfacet
  facet normal -0 0 1
    outer loop
      vertex 490.655 102.682 0
      vertex 497.318 -109.345 0
      vertex 497.318 109.345 0
    endloop
  endfacet
  facet normal 0 0 1
    outer loop
      vertex 490.655 102.682 0
      vertex 490.655 -102.682 0
      vertex 497.318 -109.345 0
    endloop
  endfacet
  facet normal -0 0 1
    outer loop
      vertex 484.423 95.6136 0
      vertex 490.655 -102.682 0
      vertex 490.655 102.682 0
    endloop
  endfacet
  facet normal 0 0 1
    outer loop
      vertex 484.423 95.6136 0
      vertex 484.423 -95.6136 0
      vertex 490.655 -102.682 0
    endloop
  endfacet
  facet normal -0 0 1
    outer loop
      vertex 478.647 88.1678 0
      vertex 484.423 -95.6136 0
      vertex 484.423 95.6136 0
    endloop
  endfacet
  facet normal 0 0 1
    outer loop
      vertex 478.647 88.1678 0
      vertex 478.647 -88.1678 0
      vertex 484.423 -95.6136 0
    endloop
  endfacet
  facet normal -0 0 1
    outer loop
      vertex 473.351 80.374 0
      vertex 478.647 -88.1678 0
      vertex 478.647 88.1678 0
    endloop
  endfacet
  facet normal 0 0 1
    outer loop
      vertex 473.351 80.374 0
      vertex 473.351 -80.374 0
      vertex 478.647 -88.1678 0
    endloop
  endfacet
  facet normal -0 0 1
    outer loop
      vertex 468.554 72.2631 0
      vertex 473.351 -80.374 0
      vertex 473.351 80.374 0
    endloop
  endfacet
  facet normal 0 0 1
    outer loop
      vertex 468.554 72.2631 0
      vertex 468.554 -72.2631 0
      vertex 473.351 -80.374 0
    endloop
  endfacet
  facet normal -0 0 1
    outer loop
      vertex 464.276 63.8669 0
      vertex 468.554 -72.2631 0
      vertex 468.554 72.2631 0
    endloop
  endfacet
  facet normal 0 0 1
    outer loop
      vertex 464.276 63.8669 0
      vertex 464.276 -63.8669 0
      vertex 468.554 -72.2631 0
    endloop
  endfacet
  facet normal -0 0 1
    outer loop
      vertex 460.534 55.2187 0
      vertex 464.276 -63.8669 0
      vertex 464.276 63.8669 0
    endloop
  endfacet
  facet normal 0 0 1
    outer loop
      vertex 460.534 55.2187 0
      vertex 460.534 -55.2187 0
      vertex 464.276 -63.8669 0
    endloop
  endfacet
  facet normal -0 0 1
    outer loop
      vertex 457.342 46.3526 0
      vertex 460.534 -55.2187 0
      vertex 460.534 55.2187 0
    endloop
  endfacet
  facet normal 0 0 1
    outer loop
      vertex 457.342 46.3526 0
      vertex 457.342 -46.3526 0
      vertex 460.534 -55.2187 0
    endloop
  endfacet
  facet normal -0 0 1
    outer loop
      vertex 454.713 37.3035 0
      vertex 457.342 -46.3526 0
      vertex 457.342 46.3526 0
    endloop
  endfacet
  facet normal 0 0 1
    outer loop
      vertex 454.713 37.3035 0
      vertex 454.713 -37.3035 0
      vertex 457.342 -46.3526 0
    endloop
  endfacet
  facet normal -0 0 1
    outer loop
      vertex 452.657 28.1072 0
      vertex 454.713 -37.3035 0
      vertex 454.713 37.3035 0
    endloop
  endfacet
  facet normal 0 0 1
    outer loop
      vertex 452.657 28.1072 0
      vertex 452.657 -28.1072 0
      vertex 454.713 -37.3035 0
    endloop
  endfacet
  facet normal -0 0 1
    outer loop
      vertex 451.183 18.8 0
      vertex 452.657 -28.1072 0
      vertex 452.657 28.1072 0
    endloop
  endfacet
  facet normal 0 0 1
    outer loop
      vertex 451.183 18.8 0
      vertex 451.183 -18.8 0
      vertex 452.657 -28.1072 0
    endloop
  endfacet
  facet normal -0 0 1
    outer loop
      vertex 450.296 9.41858 0
      vertex 451.183 -18.8 0
      vertex 451.183 18.8 0
    endloop
  endfacet
  facet normal 0 0 1
    outer loop
      vertex 450.296 9.41858 0
      vertex 450.296 -9.41858 0
      vertex 451.183 -18.8 0
    endloop
  endfacet
  facet normal 0 -0 1
    outer loop
      vertex 450.296 -9.41858 0
      vertex 450.296 9.41858 0
      vertex 450 0 0
    endloop
  endfacet
endsolid OpenSCAD_Model
